<svg width="186" height="103" viewBox="0 0 186 103" fill="none" xmlns="http://www.w3.org/2000/svg">
<path d="M137.365 61.9883C142.66 61.9883 146.972 66.3002 146.972 71.5996C146.972 74.1682 145.975 76.5785 144.159 78.3955C142.342 80.2125 139.933 81.209 137.365 81.209C132.069 81.2078 127.758 76.8968 127.758 71.5986C127.758 69.0302 128.756 66.6207 130.572 64.8037C132.388 62.9868 134.797 61.9884 137.365 61.9883ZM137.365 66.6504C136.047 66.6505 134.801 67.1663 133.869 68.0996C132.936 69.0324 132.419 70.2801 132.419 71.5996C132.419 74.3279 134.636 76.5486 137.365 76.5488C138.684 76.5488 139.929 76.0313 140.861 75.1006L140.863 75.0996C141.795 74.1658 142.311 72.919 142.311 71.5996C142.311 68.8703 140.095 66.6504 137.365 66.6504Z" fill="#2F5ED1" stroke="white" stroke-width="2.5"/>
<path d="M86.8354 61.9902H86.8364C92.1311 61.9902 96.4427 66.3022 96.4429 71.6006C96.4429 74.1703 95.4464 76.5796 93.6304 78.3965C91.8142 80.2135 89.4047 81.2119 86.8364 81.2119C81.5409 81.2117 77.23 76.8989 77.23 71.6006C77.23 69.0311 78.2275 66.6216 80.0425 64.8057H80.0435C81.8593 62.9882 84.2672 61.9904 86.8354 61.9902ZM86.8364 66.6504C85.5181 66.6505 84.2711 67.1676 83.3394 68.1006C82.4065 69.0337 81.8912 70.2806 81.8911 71.5996C81.8911 74.3284 84.1062 76.5496 86.8364 76.5498C88.1557 76.5498 89.4006 76.0324 90.3325 75.1006C91.2658 74.1673 91.7817 72.92 91.7817 71.6006C91.7816 68.8719 89.566 66.6504 86.8364 66.6504Z" fill="#2F5ED1" stroke="white" stroke-width="2.5"/>
<path d="M55.4038 69.5391C56.7158 69.5393 57.7805 70.6034 57.7808 71.918C57.7808 73.232 56.7157 74.2976 55.4038 74.2979C54.0909 74.2979 53.0259 73.2323 53.0259 71.918C53.0261 70.6031 54.0909 69.5391 55.4038 69.5391Z" fill="#FFA200" stroke="white" stroke-width="2"/>
<path d="M68.4146 69.5391C69.7262 69.5393 70.7903 70.6031 70.7905 71.918C70.7905 73.2323 69.7261 74.2976 68.4146 74.2979C67.1017 74.2979 66.0366 73.2323 66.0366 71.918C66.0368 70.6031 67.1016 69.5391 68.4146 69.5391Z" fill="#FFA200" stroke="white" stroke-width="2"/>
<path d="M105.212 69.5391C106.525 69.5393 107.589 70.6032 107.589 71.918C107.589 73.2321 106.525 74.2976 105.212 74.2979C103.9 74.2979 102.834 73.2321 102.834 71.918C102.834 70.6033 103.9 69.5391 105.212 69.5391Z" fill="#FFA200" stroke="white" stroke-width="2"/>
<path d="M118.223 69.5391C119.536 69.5393 120.6 70.6032 120.6 71.918C120.6 73.2321 119.536 74.2976 118.223 74.2979C116.911 74.2979 115.845 73.2321 115.845 71.918C115.845 70.6033 116.911 69.5391 118.223 69.5391Z" fill="#FFA200" stroke="white" stroke-width="2"/>
<path d="M78.2622 82.6035H96.0679C97.3552 82.6037 98.3979 83.6472 98.3979 84.9346C98.3978 86.2218 97.3551 87.2645 96.0679 87.2646H78.2622C76.9749 87.2646 75.9313 86.2219 75.9312 84.9346C75.9312 83.6471 76.9748 82.6035 78.2622 82.6035Z" fill="#FFA200" stroke="white" stroke-width="2.5"/>
<path d="M45.2373 65.8145C46.0962 64.9339 47.4822 64.9314 48.3428 65.8096V65.8105C49.2165 66.701 49.2192 68.1562 48.3477 69.0498L37.1914 80.4912C36.7759 80.9171 36.2163 81.1522 35.6387 81.1523H35.6367C35.0583 81.1523 34.4986 80.9177 34.083 80.4922V80.4912L29.6543 75.96C28.8365 75.1231 28.7858 73.7922 29.502 72.8945L29.6553 72.7207C30.4622 71.8961 31.7301 71.8443 32.5938 72.5664L32.7607 72.7217L34.9189 74.9297L35.6348 75.6621L36.3496 74.9287L45.2373 65.8145Z" fill="#2F5ED1" stroke="white" stroke-width="2"/>
<path d="M44.1684 23.5523H45.4184C45.4184 22.862 44.8588 22.3023 44.1684 22.3023V23.5523ZM44.1684 57.1523V58.4023C44.8588 58.4023 45.4184 57.8427 45.4184 57.1523H44.1684ZM34.6644 57.1523H33.4144C33.4144 57.8427 33.9741 58.4023 34.6644 58.4023V57.1523ZM34.6644 30.8963H35.9144C35.9144 30.206 35.3548 29.6463 34.6644 29.6463V30.8963ZM28.4244 30.8963H27.1744C27.1744 31.5867 27.7341 32.1463 28.4244 32.1463V30.8963ZM28.4244 23.5523V22.3023C27.7341 22.3023 27.1744 22.862 27.1744 23.5523H28.4244ZM42.9184 23.5523V57.1523H45.4184V23.5523H42.9184ZM44.1684 55.9023H34.6644V58.4023H44.1684V55.9023ZM35.9144 57.1523V30.8963H33.4144V57.1523H35.9144ZM34.6644 29.6463H28.4244V32.1463H34.6644V29.6463ZM29.6744 30.8963V23.5523H27.1744V30.8963H29.6744ZM28.4244 24.8023H44.1684V22.3023H28.4244V24.8023Z" fill="#FFA200"/>
<path d="M99.6255 49.6163H100.626C100.626 49.0641 100.178 48.6163 99.6255 48.6163V49.6163ZM99.6255 57.1523V58.1523C100.178 58.1523 100.626 57.7046 100.626 57.1523H99.6255ZM73.4655 57.1523H72.4655C72.4655 57.7046 72.9132 58.1523 73.4655 58.1523V57.1523ZM73.4655 51.2003L72.7825 50.4699C72.5803 50.659 72.4655 50.9235 72.4655 51.2003H73.4655ZM86.0415 39.4403L86.7246 40.1708L86.7293 40.1663L86.0415 39.4403ZM88.4895 36.5123L89.3767 36.9737C89.3792 36.969 89.3816 36.9643 89.384 36.9596L88.4895 36.5123ZM81.3375 31.4243L81.8067 32.3075L81.8164 32.3022L81.3375 31.4243ZM78.7935 33.8243L78.3064 34.6977C78.7691 34.9558 79.3527 34.8082 79.6372 34.3612L78.7935 33.8243ZM71.7375 29.8883L70.8811 29.372C70.7412 29.6041 70.7015 29.8831 70.7711 30.1451C70.8407 30.4071 71.0136 30.6296 71.2504 30.7617L71.7375 29.8883ZM77.2575 24.7523L77.7238 25.637H77.7238L77.2575 24.7523ZM92.4255 24.1283L92.0334 25.0483L92.0388 25.0505L92.4255 24.1283ZM97.0335 27.7283L96.2119 28.2984C96.2164 28.3048 96.2209 28.3112 96.2255 28.3175L97.0335 27.7283ZM97.5135 38.2883L96.6156 37.8482L96.612 37.8556L97.5135 38.2883ZM93.0015 43.7603L92.3267 43.0223L92.3228 43.026L93.0015 43.7603ZM86.6655 49.6163L85.9868 48.882C85.6845 49.1614 85.5843 49.5975 85.7343 49.9808C85.8843 50.3641 86.2539 50.6163 86.6655 50.6163V49.6163ZM98.6255 49.6163V57.1523H100.626V49.6163H98.6255ZM99.6255 56.1523H73.4655V58.1523H99.6255V56.1523ZM74.4655 57.1523V51.2003H72.4655V57.1523H74.4655ZM74.1485 51.9307L86.7245 40.1707L85.3585 38.7099L72.7825 50.4699L74.1485 51.9307ZM86.7293 40.1663C87.9692 38.9916 88.8827 37.9237 89.3767 36.9737L87.6023 36.051C87.2643 36.701 86.5459 37.585 85.3538 38.7144L86.7293 40.1663ZM89.384 36.9596C89.8611 36.0053 90.1135 35.0211 90.1135 34.0163H88.1135C88.1135 34.6756 87.95 35.3554 87.5951 36.0651L89.384 36.9596ZM90.1135 34.0163C90.1135 32.6768 89.6462 31.5273 88.6464 30.7014L87.3726 32.2433C87.8449 32.6334 88.1135 33.1799 88.1135 34.0163H90.1135ZM88.6464 30.7014C87.6632 29.8892 86.3271 29.5603 84.7935 29.5603V31.5603C86.076 31.5603 86.8839 31.8395 87.3726 32.2433L88.6464 30.7014ZM84.7935 29.5603C83.3847 29.5603 82.0672 29.8873 80.8587 30.5464L81.8164 32.3022C82.7199 31.8094 83.7063 31.5603 84.7935 31.5603V29.5603ZM80.8684 30.5412C79.6797 31.1727 78.7071 32.0976 77.9499 33.2875L79.6372 34.3612C80.224 33.4391 80.9474 32.764 81.8067 32.3075L80.8684 30.5412ZM79.2807 32.951L72.2247 29.015L71.2504 30.7617L78.3064 34.6977L79.2807 32.951ZM72.5939 30.4047C73.8067 28.3932 75.5079 26.8048 77.7238 25.637L76.7913 23.8677C74.2711 25.1959 72.2923 27.0315 70.8811 29.372L72.5939 30.4047ZM77.7238 25.637C79.9211 24.4789 82.5546 23.8803 85.6575 23.8803V21.8803C82.2965 21.8803 79.3299 22.5297 76.7913 23.8677L77.7238 25.637ZM85.6575 23.8803C88.11 23.8803 90.2282 24.2788 92.0334 25.0483L92.8176 23.2084C90.7189 22.3139 88.3251 21.8803 85.6575 21.8803V23.8803ZM92.0388 25.0505C93.8703 25.8186 95.2458 26.9061 96.2119 28.2984L97.8551 27.1583C96.6452 25.4146 94.9488 24.1021 92.8123 23.2061L92.0388 25.0505ZM96.2255 28.3175C97.2109 29.6689 97.7135 31.2508 97.7135 33.1043H99.7135C99.7135 30.8619 99.0961 28.8598 97.8415 27.1392L96.2255 28.3175ZM97.7135 33.1043C97.7135 34.7763 97.3482 36.3537 96.6156 37.8482L98.4114 38.7285C99.2789 36.959 99.7135 35.0804 99.7135 33.1043H97.7135ZM96.612 37.8556C95.9253 39.2863 94.5298 41.0081 92.3268 43.0223L93.6763 44.4984C95.9533 42.4166 97.5658 40.4903 98.4151 38.7211L96.612 37.8556ZM92.3228 43.026L85.9868 48.882L87.3443 50.3507L93.6803 44.4947L92.3228 43.026ZM86.6655 50.6163H99.6255V48.6163H86.6655V50.6163Z" fill="#2F5ED1"/>
<path d="M141.482 36.9923L140.749 36.3115C140.504 36.576 140.419 36.9524 140.529 37.2964C140.639 37.6404 140.926 37.8984 141.279 37.9716L141.482 36.9923ZM147.866 40.4483L147.105 41.0968C147.109 41.1019 147.113 41.1069 147.118 41.1118L147.866 40.4483ZM148.49 52.1603L147.648 51.6203L147.641 51.6318L148.49 52.1603ZM143.594 56.2883L144.02 57.1932L144.025 57.1905L143.594 56.2883ZM128.426 56.9603L128.183 57.9305L128.187 57.9313L128.426 56.9603ZM122.426 54.5123L121.526 54.0773C121.303 54.5374 121.464 55.0911 121.897 55.3612L122.426 54.5123ZM125.882 47.3603L126.446 46.5345C126.205 46.3703 125.905 46.3191 125.624 46.3941C125.343 46.4692 125.108 46.6631 124.982 46.9253L125.882 47.3603ZM130.298 49.4243L130.016 50.3837L130.021 50.3852L130.298 49.4243ZM139.082 49.2323L139.617 50.0772V50.0772L139.082 49.2323ZM131.402 43.3763H130.402C130.402 43.9286 130.85 44.3763 131.402 44.3763V43.3763ZM131.402 37.3763L130.668 36.6969C130.497 36.8818 130.402 37.1244 130.402 37.3763H131.402ZM137.402 30.8963L138.136 31.5757C138.406 31.2841 138.477 30.8602 138.318 30.496C138.159 30.1317 137.799 29.8963 137.402 29.8963V30.8963ZM124.154 30.8963H123.154C123.154 31.4486 123.602 31.8963 124.154 31.8963L124.154 30.8963ZM124.154 23.5523V22.5523C123.602 22.5523 123.154 23.0001 123.154 23.5523H124.154ZM148.442 23.5523H149.442C149.442 23.0001 148.994 22.5523 148.442 22.5523V23.5523ZM148.442 29.5043L149.174 30.1852C149.346 30.0001 149.442 29.7569 149.442 29.5043H148.442ZM141.279 37.9716C143.902 38.5141 145.81 39.5771 147.105 41.0968L148.627 39.7999C146.978 37.8636 144.63 36.6226 141.685 36.0131L141.279 37.9716ZM147.118 41.1118C148.447 42.6109 149.122 44.4335 149.122 46.6403H151.122C151.122 43.9832 150.293 41.6778 148.614 39.7849L147.118 41.1118ZM149.122 46.6403C149.122 48.4298 148.635 50.0828 147.648 51.6204L149.332 52.7003C150.521 50.8458 151.122 48.8189 151.122 46.6403H149.122ZM147.641 51.6318C146.706 53.133 145.237 54.3938 143.162 55.3862L144.025 57.1905C146.366 56.0708 148.162 54.5797 149.339 52.6889L147.641 51.6318ZM143.168 55.3835C141.163 56.3272 138.615 56.8243 135.482 56.8243V58.8243C138.813 58.8243 141.673 58.2975 144.02 57.1932L143.168 55.3835ZM135.482 56.8243C133.196 56.8243 130.924 56.5464 128.665 55.9894L128.187 57.9313C130.6 58.5263 133.032 58.8243 135.482 58.8243V56.8243ZM128.668 55.9902C126.447 55.4348 124.547 54.6551 122.954 53.6634L121.897 55.3612C123.697 56.4816 125.797 57.3338 128.183 57.9305L128.668 55.9902ZM123.326 54.9474L126.782 47.7954L124.982 46.9253L121.526 54.0773L123.326 54.9474ZM125.318 48.1861C126.722 49.1452 128.291 49.8763 130.016 50.3837L130.58 48.465C129.041 48.0124 127.666 47.3675 126.446 46.5345L125.318 48.1861ZM130.021 50.3852C131.767 50.889 133.493 51.1443 135.194 51.1443V49.1443C133.695 49.1443 132.156 48.9197 130.575 48.4635L130.021 50.3852ZM135.194 51.1443C136.937 51.1443 138.442 50.8216 139.617 50.0772L138.547 48.3875C137.802 48.8591 136.715 49.1443 135.194 49.1443V51.1443ZM139.617 50.0772C140.861 49.2891 141.522 48.1091 141.522 46.6403H139.522C139.522 47.4116 139.223 47.9596 138.547 48.3875L139.617 50.0772ZM141.522 46.6403C141.522 45.2401 140.943 44.0913 139.774 43.3484C138.682 42.6542 137.172 42.3763 135.386 42.3763V44.3763C137.024 44.3763 138.082 44.6425 138.702 45.0363C139.244 45.3814 139.522 45.8646 139.522 46.6403H141.522ZM135.386 42.3763H131.402V44.3763H135.386V42.3763ZM132.402 43.3763V37.3763H130.402V43.3763H132.402ZM132.136 38.0557L138.136 31.5757L136.668 30.2169L130.668 36.6969L132.136 38.0557ZM137.402 29.8963H124.154V31.8963H137.402V29.8963ZM125.154 30.8963V23.5523H123.154V30.8963H125.154ZM124.154 24.5523H148.442V22.5523H124.154V24.5523ZM147.442 23.5523V29.5043H149.442V23.5523H147.442ZM147.709 28.8235L140.749 36.3115L142.214 37.6732L149.174 30.1852L147.709 28.8235Z" fill="#2F5ED1"/>
<path d="M185.333 51.9694C185.333 50.6324 182.81 49.4625 179.11 48.9611C178.774 45.2843 177.596 42.7773 176.251 42.7773C174.905 42.7773 173.728 45.2843 173.223 48.9611C169.523 49.2953 167 50.4652 167 51.8023C167 53.1393 169.523 54.3092 173.223 54.8106C173.56 58.4874 174.737 60.9943 176.083 60.9943C177.428 60.9943 178.606 58.4874 179.11 54.8106C182.642 54.3092 185.333 53.3064 185.333 51.9694Z" fill="#FFE48F"/>
<path d="M18.3333 39.3444C18.3333 38.0074 15.8104 36.8375 12.1101 36.3361C11.7737 32.6593 10.5963 30.1523 9.25077 30.1523C7.9052 30.1523 6.72783 32.6593 6.22324 36.3361C2.52293 36.6703 0 37.8402 0 39.1773C0 40.5143 2.52293 41.6842 6.22324 42.1856C6.55963 45.8624 7.737 48.3693 9.08257 48.3693C10.4281 48.3693 11.6055 45.8624 12.1101 42.1856C15.6422 41.6842 18.3333 40.6814 18.3333 39.3444Z" fill="#9FADF0"/>
<path d="M114.3 96.3195C114.3 95.4225 112.608 94.6376 110.125 94.3012C109.899 91.8343 109.109 90.1523 108.207 90.1523C107.304 90.1523 106.514 91.8343 106.175 94.3012C103.693 94.5254 102 95.3103 102 96.2074C102 97.1044 103.693 97.8893 106.175 98.2257C106.401 100.693 107.191 102.375 108.094 102.375C108.996 102.375 109.786 100.693 110.125 98.2257C112.495 97.8893 114.3 97.2166 114.3 96.3195Z" fill="#9FADF0"/>
<rect x="99" y="4.88281" width="6.90644" height="6.90644" transform="rotate(-45 99 4.88281)" fill="#E02287" fill-opacity="0.6"/>
</svg>
