<svg width="124" height="108" viewBox="0 0 124 108" fill="none" xmlns="http://www.w3.org/2000/svg">
<path d="M86.5672 41.2249H52.7569V25.7558C52.7569 23.4801 53.6548 21.3456 55.2853 19.7461C56.9149 18.1473 59.0653 17.3001 61.3448 17.3336C65.8994 17.4199 69.6048 21.2788 69.6048 25.9355V27.2108C69.6048 31.6447 73.212 35.2517 77.6457 35.2517C82.0795 35.2517 85.6866 31.6445 85.6866 27.2108V25.7558C85.6866 19.1746 83.1047 12.993 78.4166 8.35023C73.7874 3.76564 67.6762 1.25 61.1836 1.25C61.1025 1.25 61.0207 1.25054 60.9394 1.25107C47.5602 1.3807 36.675 12.5007 36.675 26.0389V41.2249H35.7943C31.424 41.2249 27.8682 44.7806 27.8682 49.151V84.9905C27.8683 89.361 31.424 92.9167 35.7945 92.9167H86.5672C90.9375 92.9167 94.4934 89.361 94.4934 84.9905V49.151C94.4932 44.7806 90.9375 41.2249 86.5672 41.2249ZM41.2698 26.0389C41.2698 15.0097 50.1134 5.95096 60.9838 5.84551C61.0501 5.84497 61.1159 5.84461 61.182 5.84461C66.4557 5.84461 71.4213 7.88939 75.1832 11.6148C78.9933 15.388 81.0914 20.4099 81.0914 25.7556V27.2108C81.0914 29.1109 79.5454 30.6569 77.6453 30.6569C75.7452 30.6569 74.1992 29.1109 74.1992 27.2108V25.9355C74.1992 18.7927 68.4715 12.8732 61.4316 12.7397C57.9037 12.6718 54.5842 13.9963 52.0671 16.4663C49.5489 18.9374 48.1619 22.2363 48.1619 25.7562V41.2251H41.2698V26.0389ZM89.8984 84.9905C89.8984 86.8273 88.404 88.3219 86.5671 88.3219H35.7945C33.9577 88.3219 32.4631 86.8275 32.4631 84.9905V49.151C32.4631 47.3143 33.9576 45.8197 35.7945 45.8197H86.5672C88.404 45.8197 89.8986 47.3141 89.8986 49.151V84.9905H89.8984Z" fill="#2F5ED1" stroke="white" stroke-width="2.5"/>
<path d="M61.1803 50.3379C55.522 50.3379 50.9185 54.9413 50.9185 60.5995C50.9185 63.5053 52.1594 66.2657 54.2881 68.1989V81.506C54.2881 82.7746 55.3167 83.8034 56.5855 83.8034H65.7751C67.0439 83.8034 68.0725 82.7746 68.0725 81.506V68.1989C70.2012 66.2657 71.4421 63.5053 71.4421 60.5995C71.4419 54.9413 66.8386 50.3379 61.1803 50.3379ZM64.4477 65.2278C63.8393 65.6586 63.4777 66.3577 63.4777 67.103V79.2086H58.8829V67.103C58.8829 66.3577 58.5212 65.6586 57.9129 65.2278C56.4104 64.1642 55.5134 62.4341 55.5134 60.5994C55.5134 57.4746 58.0556 54.9325 61.1805 54.9325C64.3054 54.9325 66.8475 57.4746 66.8475 60.5994C66.8472 62.434 65.9502 64.1642 64.4477 65.2278Z" fill="#FFA200" stroke="white" stroke-width="2.5"/>
<path d="M102.373 39.9803L94.3479 35.3472C93.2494 34.7129 91.8443 35.0892 91.2096 36.1882C90.5751 37.2871 90.9516 38.6918 92.0505 39.3265L100.075 43.9596C100.437 44.1683 100.832 44.2679 101.222 44.2679C102.016 44.2679 102.788 43.8557 103.213 43.1187C103.848 42.0197 103.471 40.6148 102.373 39.9803Z" fill="#FFA200" stroke="white" stroke-width="2.5"/>
<path d="M93.2009 30.4456C93.5905 30.4456 93.9856 30.3461 94.3474 30.1373L102.372 25.5044C103.471 24.87 103.848 23.465 103.213 22.366C102.579 21.2671 101.174 20.8904 100.075 21.5251L92.05 26.158C90.9511 26.7924 90.5746 28.1974 91.2091 29.2964C91.6347 30.0335 92.4069 30.4456 93.2009 30.4456Z" fill="#FFA200" stroke="white" stroke-width="2.5"/>
<path d="M18.3333 74.61C18.3333 73.273 15.8104 72.1031 12.1101 71.6017C11.7737 67.9249 10.5963 65.418 9.25077 65.418C7.9052 65.418 6.72783 67.9249 6.22324 71.6017C2.52293 71.936 0 73.1059 0 74.4429C0 75.7799 2.52293 76.9498 6.22324 77.4512C6.55963 81.128 7.737 83.635 9.08257 83.635C10.4281 83.635 11.6055 81.128 12.1101 77.4512C15.6422 76.9498 18.3333 75.9471 18.3333 74.61Z" fill="#FFE48F"/>
<path d="M108.237 98.2897C108.237 96.9527 105.714 95.7828 102.013 95.2814C101.677 91.6046 100.5 89.0977 99.1541 89.0977C97.8085 89.0977 96.6311 91.6046 96.1266 95.2814C92.4263 95.6157 89.9033 96.7856 89.9033 98.1226C89.9033 99.4596 92.4263 100.63 96.1266 101.131C96.463 104.808 97.6403 107.315 98.9859 107.315C100.331 107.315 101.509 104.808 102.013 101.131C105.546 100.63 108.237 99.6267 108.237 98.2897Z" fill="#9FADF0"/>
<path d="M123.537 27.2805C123.537 26.3834 121.844 25.5985 119.361 25.2621C119.136 22.7952 118.346 21.1133 117.443 21.1133C116.54 21.1133 115.75 22.7952 115.412 25.2621C112.929 25.4864 111.236 26.2713 111.236 27.1683C111.236 28.0654 112.929 28.8503 115.412 29.1867C115.637 31.6535 116.427 33.3355 117.33 33.3355C118.233 33.3355 119.023 31.6535 119.361 29.1867C121.731 28.8503 123.537 28.1775 123.537 27.2805Z" fill="#9FADF0"/>
<rect x="19.334" y="25.5215" width="6.90644" height="6.90644" transform="rotate(-45 19.334 25.5215)" fill="#E02287" fill-opacity="0.6"/>
</svg>
