<svg width="135" height="102" viewBox="0 0 135 102" fill="none" xmlns="http://www.w3.org/2000/svg">
<mask id="path-1-inside-1_1631_7" fill="white">
<path d="M105.599 47.2898C105.322 45.8513 104.064 44.8111 102.6 44.8102H99.6494L99.4325 43.5101C99.216 42.2042 98.1872 41.184 96.8795 40.9786C96.5893 40.9327 96.2959 40.9022 96.0072 40.8625C96.5075 38.5268 96.0918 36.0882 94.8461 34.0501C95.5043 32.3428 95.3814 30.4328 94.5099 28.8238C93.6384 27.2149 92.1058 26.0685 90.3162 25.687C89.1721 19.5637 83.845 15.1126 77.6158 15.0751C77.463 15.0751 77.327 15.0949 77.1819 15.0995C76.1865 13.5364 74.5456 12.4989 72.7066 12.2702C70.8676 12.0415 69.0225 12.6453 67.6745 13.917C65.9765 12.8132 63.9951 12.2248 61.9698 12.2227C58.7066 12.2361 55.6311 13.7507 53.6312 16.3294C51.4106 15.6819 49.0161 16.0795 47.1239 17.4099C45.2318 18.7403 44.0474 20.859 43.9054 23.1677C41.573 24.1482 40.0553 26.431 40.0538 28.9611C40.0586 29.3996 40.1098 29.8365 40.2066 30.2643C38.144 33.3738 37.605 37.2518 38.7415 40.8059C38.332 40.8624 37.9134 40.9129 37.5193 40.9709C36.2048 41.1692 35.1668 42.19 34.9465 43.5009L34.7295 44.8056H31.7718C30.3094 44.8066 29.0528 45.8436 28.7743 47.2791L22.0841 81.6266C21.8229 82.9718 22.1771 84.3633 23.0499 85.4197C23.9227 86.4761 25.2223 87.0866 26.5926 87.0838H58.4529C59.7179 89.1708 63.5618 90.1394 67.1857 90.1394C70.7714 90.1394 74.5786 89.1937 75.8802 87.0838H107.779C109.149 87.0865 110.448 86.4762 111.321 85.4202C112.193 84.3641 112.548 82.9731 112.287 81.6282L105.599 47.2898ZM44.6738 31.7263C43.4334 30.9805 42.8414 29.4999 43.2256 28.1044C43.6099 26.7089 44.8764 25.7401 46.3238 25.7344C47.3368 25.7314 48.2902 26.2129 48.889 27.0299C49.2143 27.4682 49.7487 27.6997 50.291 27.6371C50.8332 27.5745 51.3008 27.2274 51.5178 26.7266C51.7347 26.2257 51.6679 25.6471 51.3426 25.2088C50.3052 23.8223 48.733 22.9353 47.0098 22.7644C47.4653 20.6248 49.3521 19.0931 51.5397 19.087C51.7261 19.0965 51.9118 19.1169 52.0958 19.1481C51.9729 19.4614 51.8658 19.7806 51.775 20.1045C51.5848 20.9133 52.0758 21.7257 52.8801 21.9334C53.6845 22.1412 54.5075 21.6681 54.7327 20.8684C54.9065 20.1969 55.1734 19.5531 55.5257 18.9556C56.8809 16.6853 59.3258 15.2901 61.9698 15.2783C63.4088 15.2847 64.8149 15.7093 66.0169 16.5005C65.7879 17.1439 65.6666 17.8206 65.6579 18.5034C65.6579 19.3472 66.3419 20.0312 67.1857 20.0312C68.0294 20.0312 68.7134 19.3472 68.7134 18.5034C68.7134 16.7286 70.1522 15.2897 71.9271 15.2897C73.702 15.2897 75.1408 16.7286 75.1408 18.5034C75.1408 19.3472 75.8248 20.0312 76.6686 20.0312C77.5123 20.0312 78.1964 19.3472 78.1964 18.5034C78.1964 18.3858 78.1673 18.2743 78.1612 18.1566C82.5358 18.4265 86.2143 21.5361 87.2087 25.8047C86.496 26.0122 85.8264 26.3459 85.2318 26.7901C84.7951 27.1176 84.5663 27.6532 84.6316 28.1951C84.6969 28.737 85.0463 29.2029 85.5483 29.4173C86.0502 29.6317 86.6284 29.562 87.0651 29.2345C88.286 28.3306 89.9724 28.4027 91.1117 29.4075C92.251 30.4123 92.5332 32.0765 91.789 33.4008C91.4564 33.9855 90.951 34.453 90.3422 34.7391C89.7037 35.0483 89.362 35.7562 89.5172 36.4484C89.6724 37.1406 90.2837 37.635 90.993 37.6419C91.217 37.6422 91.4383 37.5927 91.6408 37.4968C92.0457 37.3005 92.4283 37.0613 92.782 36.7833C93.5718 39.0285 93.0765 41.5255 91.4895 43.2993L91.4529 43.3374C89.4625 45.4936 86.2875 46.0763 83.6612 44.7674C83.404 44.6316 83.1569 44.4774 82.9218 44.3061C84.0471 42.7284 84.2025 40.6561 83.3251 38.9283C83.0795 38.4406 82.5923 38.121 82.0472 38.0898C81.502 38.0587 80.9816 38.3208 80.6821 38.7773C80.3826 39.2339 80.3493 39.8156 80.595 40.3033C81.0973 41.3131 80.784 42.5385 79.8586 43.1831C79.3151 43.545 78.6438 43.6594 78.0111 43.498C77.3785 43.3367 76.844 42.9147 76.5402 42.3368C76.296 41.8485 75.8098 41.5277 75.2649 41.4951C74.7199 41.4625 74.199 41.7231 73.8983 42.1788C73.5976 42.6344 73.5628 43.2159 73.807 43.7041C74.703 45.5128 76.5491 46.6551 78.5676 46.6497C79.2247 46.6452 79.8752 46.5172 80.485 46.2723C81.0306 46.75 81.6318 47.1604 82.2755 47.4945C84.4529 48.6232 86.9849 48.8573 89.3323 48.1469C87.8225 50.2084 85.563 51.5939 83.0409 52.0045C82.2563 52.1323 81.7008 52.8403 81.7634 53.6328C81.826 54.4253 82.4859 55.0373 83.2808 55.0402C83.3621 55.0402 83.4433 55.0341 83.5237 55.0219C84.454 54.8608 85.3632 54.5954 86.234 54.2305C86.7046 55.0626 87.0866 55.9418 87.3737 56.8537C87.4263 57.0129 87.4531 57.1795 87.4531 57.3472C87.4528 58.0075 87.0584 58.6039 86.4509 58.8627C85.7482 59.1345 84.9503 58.9201 84.4786 58.3326C83.2954 56.9432 81.746 55.9136 80.0068 55.3611C76.7052 54.255 75.4311 53.2665 74.8902 52.1909C75.6829 52.092 76.4662 51.9285 77.2323 51.702C77.7541 51.5416 78.1507 51.1149 78.2726 50.5828C78.3945 50.0506 78.2233 49.4939 77.8235 49.1222C77.4236 48.7505 76.8558 48.6205 76.334 48.7809C75.4767 49.0439 74.5918 49.2065 73.697 49.2652C71.9732 49.4 70.2414 49.1387 68.634 48.5013C68.0305 48.266 67.3441 48.4368 66.9213 48.9276C64.697 51.4827 60.8899 51.917 58.1472 49.9285C55.4045 47.94 54.6336 44.1866 56.3705 41.278C56.6519 40.8083 56.6613 40.2242 56.3952 39.7457C56.1292 39.2672 55.628 38.967 55.0806 38.9581C54.5331 38.9493 54.0226 39.2332 53.7412 39.7029C53.3767 40.3232 53.0835 40.9828 52.8673 41.6691C51.6642 41.6058 50.7156 40.6218 50.6964 39.4172V39.379C50.6956 38.9758 50.5337 38.5897 50.2468 38.3066C49.9599 38.0234 49.5717 37.8666 49.1686 37.8711C48.3211 37.8794 47.6391 38.5697 47.6408 39.4172C47.6476 42.1266 49.6908 44.3976 52.3845 44.6895C52.39 45.2017 52.4365 45.7126 52.5236 46.2173C49.1124 46.9554 45.5743 45.7293 43.3514 43.0386C41.1285 40.3479 40.592 36.642 41.9605 33.4313C42.3023 33.7771 42.6839 34.0812 43.0972 34.3373C43.8189 34.7601 44.7464 34.5239 45.178 33.8074C45.6097 33.091 45.3849 32.1606 44.6738 31.7202V31.7263ZM37.9516 43.999C38.6559 43.8951 39.3832 43.8034 40.1058 43.7087C42.9305 48.2227 48.3331 50.4145 53.5044 49.1445C54.8939 51.7817 57.4329 53.6209 60.3719 54.119C63.3108 54.6171 66.3141 53.7173 68.495 51.6852C69.5332 51.9949 70.6025 52.1886 71.6834 52.2627C72.4213 55.0616 74.5541 56.7575 79.0351 58.2593C80.2431 58.638 81.3207 59.3477 82.1456 60.308C83.0628 61.3986 84.4118 62.0324 85.8368 62.042C86.46 62.0418 87.0767 61.9161 87.6502 61.6723C89.382 60.9322 90.5055 59.2305 90.5057 57.3472C90.5071 56.856 90.4286 56.3679 90.2734 55.9019C89.9299 54.8224 89.4773 53.7807 88.9229 52.7929C91.5208 50.9253 93.3306 48.1575 93.9997 45.0287C94.3251 44.6421 94.6193 44.2304 94.8797 43.7973C95.3915 43.863 95.9033 43.9211 96.4182 44.0066L101.933 77.1808C91.1527 73.5809 79.4942 73.5809 68.7134 77.1808V58.0561C68.7134 57.2123 68.0294 56.5283 67.1857 56.5283C66.3419 56.5283 65.6579 57.2123 65.6579 58.0561V77.1869C54.8783 73.5837 43.2201 73.5794 32.4379 77.1747L37.9516 43.999ZM25.4025 83.4661C25.1138 83.1173 24.9961 82.6578 25.0816 82.2133L31.7718 47.8658H34.2162L29.422 76.6781C29.2534 77.7269 29.6396 78.7882 30.4427 79.4833C31.2458 80.1785 32.3515 80.4085 33.3652 80.0912C41.5098 77.4525 50.1868 76.902 58.5995 78.4901L58.1443 84.0283H42.3684H26.5926C26.1317 84.0286 25.6949 83.8223 25.4025 83.4661ZM67.1857 87.0838C63.5052 87.0838 61.3938 85.9961 61.0837 85.5118L61.6093 79.1715C63.2892 79.5898 64.9332 80.141 66.5257 80.82C66.7316 80.9192 66.9571 80.9714 67.1857 80.9727C67.4149 80.9724 67.641 80.9202 67.8472 80.82C69.4387 80.137 71.0822 79.5822 72.762 79.1608L73.2876 85.5102C72.9775 85.9961 70.8661 87.0838 67.1857 87.0838ZM108.969 83.4661C108.676 83.8223 108.24 84.0286 107.779 84.0283H76.2316L75.7733 78.4794C84.1907 76.8945 92.8714 77.4498 101.018 80.0943C102.032 80.4073 103.135 80.1741 103.935 79.4776C104.735 78.7812 105.118 77.7205 104.948 76.6736L100.158 47.8673H102.603L109.294 82.2118C109.379 82.6575 109.26 83.1178 108.969 83.4661Z"/>
</mask>
<path d="M105.599 47.2898C105.322 45.8513 104.064 44.8111 102.6 44.8102H99.6494L99.4325 43.5101C99.216 42.2042 98.1872 41.184 96.8795 40.9786C96.5893 40.9327 96.2959 40.9022 96.0072 40.8625C96.5075 38.5268 96.0918 36.0882 94.8461 34.0501C95.5043 32.3428 95.3814 30.4328 94.5099 28.8238C93.6384 27.2149 92.1058 26.0685 90.3162 25.687C89.1721 19.5637 83.845 15.1126 77.6158 15.0751C77.463 15.0751 77.327 15.0949 77.1819 15.0995C76.1865 13.5364 74.5456 12.4989 72.7066 12.2702C70.8676 12.0415 69.0225 12.6453 67.6745 13.917C65.9765 12.8132 63.9951 12.2248 61.9698 12.2227C58.7066 12.2361 55.6311 13.7507 53.6312 16.3294C51.4106 15.6819 49.0161 16.0795 47.1239 17.4099C45.2318 18.7403 44.0474 20.859 43.9054 23.1677C41.573 24.1482 40.0553 26.431 40.0538 28.9611C40.0586 29.3996 40.1098 29.8365 40.2066 30.2643C38.144 33.3738 37.605 37.2518 38.7415 40.8059C38.332 40.8624 37.9134 40.9129 37.5193 40.9709C36.2048 41.1692 35.1668 42.19 34.9465 43.5009L34.7295 44.8056H31.7718C30.3094 44.8066 29.0528 45.8436 28.7743 47.2791L22.0841 81.6266C21.8229 82.9718 22.1771 84.3633 23.0499 85.4197C23.9227 86.4761 25.2223 87.0866 26.5926 87.0838H58.4529C59.7179 89.1708 63.5618 90.1394 67.1857 90.1394C70.7714 90.1394 74.5786 89.1937 75.8802 87.0838H107.779C109.149 87.0865 110.448 86.4762 111.321 85.4202C112.193 84.3641 112.548 82.9731 112.287 81.6282L105.599 47.2898ZM44.6738 31.7263C43.4334 30.9805 42.8414 29.4999 43.2256 28.1044C43.6099 26.7089 44.8764 25.7401 46.3238 25.7344C47.3368 25.7314 48.2902 26.2129 48.889 27.0299C49.2143 27.4682 49.7487 27.6997 50.291 27.6371C50.8332 27.5745 51.3008 27.2274 51.5178 26.7266C51.7347 26.2257 51.6679 25.6471 51.3426 25.2088C50.3052 23.8223 48.733 22.9353 47.0098 22.7644C47.4653 20.6248 49.3521 19.0931 51.5397 19.087C51.7261 19.0965 51.9118 19.1169 52.0958 19.1481C51.9729 19.4614 51.8658 19.7806 51.775 20.1045C51.5848 20.9133 52.0758 21.7257 52.8801 21.9334C53.6845 22.1412 54.5075 21.6681 54.7327 20.8684C54.9065 20.1969 55.1734 19.5531 55.5257 18.9556C56.8809 16.6853 59.3258 15.2901 61.9698 15.2783C63.4088 15.2847 64.8149 15.7093 66.0169 16.5005C65.7879 17.1439 65.6666 17.8206 65.6579 18.5034C65.6579 19.3472 66.3419 20.0312 67.1857 20.0312C68.0294 20.0312 68.7134 19.3472 68.7134 18.5034C68.7134 16.7286 70.1522 15.2897 71.9271 15.2897C73.702 15.2897 75.1408 16.7286 75.1408 18.5034C75.1408 19.3472 75.8248 20.0312 76.6686 20.0312C77.5123 20.0312 78.1964 19.3472 78.1964 18.5034C78.1964 18.3858 78.1673 18.2743 78.1612 18.1566C82.5358 18.4265 86.2143 21.5361 87.2087 25.8047C86.496 26.0122 85.8264 26.3459 85.2318 26.7901C84.7951 27.1176 84.5663 27.6532 84.6316 28.1951C84.6969 28.737 85.0463 29.2029 85.5483 29.4173C86.0502 29.6317 86.6284 29.562 87.0651 29.2345C88.286 28.3306 89.9724 28.4027 91.1117 29.4075C92.251 30.4123 92.5332 32.0765 91.789 33.4008C91.4564 33.9855 90.951 34.453 90.3422 34.7391C89.7037 35.0483 89.362 35.7562 89.5172 36.4484C89.6724 37.1406 90.2837 37.635 90.993 37.6419C91.217 37.6422 91.4383 37.5927 91.6408 37.4968C92.0457 37.3005 92.4283 37.0613 92.782 36.7833C93.5718 39.0285 93.0765 41.5255 91.4895 43.2993L91.4529 43.3374C89.4625 45.4936 86.2875 46.0763 83.6612 44.7674C83.404 44.6316 83.1569 44.4774 82.9218 44.3061C84.0471 42.7284 84.2025 40.6561 83.3251 38.9283C83.0795 38.4406 82.5923 38.121 82.0472 38.0898C81.502 38.0587 80.9816 38.3208 80.6821 38.7773C80.3826 39.2339 80.3493 39.8156 80.595 40.3033C81.0973 41.3131 80.784 42.5385 79.8586 43.1831C79.3151 43.545 78.6438 43.6594 78.0111 43.498C77.3785 43.3367 76.844 42.9147 76.5402 42.3368C76.296 41.8485 75.8098 41.5277 75.2649 41.4951C74.7199 41.4625 74.199 41.7231 73.8983 42.1788C73.5976 42.6344 73.5628 43.2159 73.807 43.7041C74.703 45.5128 76.5491 46.6551 78.5676 46.6497C79.2247 46.6452 79.8752 46.5172 80.485 46.2723C81.0306 46.75 81.6318 47.1604 82.2755 47.4945C84.4529 48.6232 86.9849 48.8573 89.3323 48.1469C87.8225 50.2084 85.563 51.5939 83.0409 52.0045C82.2563 52.1323 81.7008 52.8403 81.7634 53.6328C81.826 54.4253 82.4859 55.0373 83.2808 55.0402C83.3621 55.0402 83.4433 55.0341 83.5237 55.0219C84.454 54.8608 85.3632 54.5954 86.234 54.2305C86.7046 55.0626 87.0866 55.9418 87.3737 56.8537C87.4263 57.0129 87.4531 57.1795 87.4531 57.3472C87.4528 58.0075 87.0584 58.6039 86.4509 58.8627C85.7482 59.1345 84.9503 58.9201 84.4786 58.3326C83.2954 56.9432 81.746 55.9136 80.0068 55.3611C76.7052 54.255 75.4311 53.2665 74.8902 52.1909C75.6829 52.092 76.4662 51.9285 77.2323 51.702C77.7541 51.5416 78.1507 51.1149 78.2726 50.5828C78.3945 50.0506 78.2233 49.4939 77.8235 49.1222C77.4236 48.7505 76.8558 48.6205 76.334 48.7809C75.4767 49.0439 74.5918 49.2065 73.697 49.2652C71.9732 49.4 70.2414 49.1387 68.634 48.5013C68.0305 48.266 67.3441 48.4368 66.9213 48.9276C64.697 51.4827 60.8899 51.917 58.1472 49.9285C55.4045 47.94 54.6336 44.1866 56.3705 41.278C56.6519 40.8083 56.6613 40.2242 56.3952 39.7457C56.1292 39.2672 55.628 38.967 55.0806 38.9581C54.5331 38.9493 54.0226 39.2332 53.7412 39.7029C53.3767 40.3232 53.0835 40.9828 52.8673 41.6691C51.6642 41.6058 50.7156 40.6218 50.6964 39.4172V39.379C50.6956 38.9758 50.5337 38.5897 50.2468 38.3066C49.9599 38.0234 49.5717 37.8666 49.1686 37.8711C48.3211 37.8794 47.6391 38.5697 47.6408 39.4172C47.6476 42.1266 49.6908 44.3976 52.3845 44.6895C52.39 45.2017 52.4365 45.7126 52.5236 46.2173C49.1124 46.9554 45.5743 45.7293 43.3514 43.0386C41.1285 40.3479 40.592 36.642 41.9605 33.4313C42.3023 33.7771 42.6839 34.0812 43.0972 34.3373C43.8189 34.7601 44.7464 34.5239 45.178 33.8074C45.6097 33.091 45.3849 32.1606 44.6738 31.7202V31.7263ZM37.9516 43.999C38.6559 43.8951 39.3832 43.8034 40.1058 43.7087C42.9305 48.2227 48.3331 50.4145 53.5044 49.1445C54.8939 51.7817 57.4329 53.6209 60.3719 54.119C63.3108 54.6171 66.3141 53.7173 68.495 51.6852C69.5332 51.9949 70.6025 52.1886 71.6834 52.2627C72.4213 55.0616 74.5541 56.7575 79.0351 58.2593C80.2431 58.638 81.3207 59.3477 82.1456 60.308C83.0628 61.3986 84.4118 62.0324 85.8368 62.042C86.46 62.0418 87.0767 61.9161 87.6502 61.6723C89.382 60.9322 90.5055 59.2305 90.5057 57.3472C90.5071 56.856 90.4286 56.3679 90.2734 55.9019C89.9299 54.8224 89.4773 53.7807 88.9229 52.7929C91.5208 50.9253 93.3306 48.1575 93.9997 45.0287C94.3251 44.6421 94.6193 44.2304 94.8797 43.7973C95.3915 43.863 95.9033 43.9211 96.4182 44.0066L101.933 77.1808C91.1527 73.5809 79.4942 73.5809 68.7134 77.1808V58.0561C68.7134 57.2123 68.0294 56.5283 67.1857 56.5283C66.3419 56.5283 65.6579 57.2123 65.6579 58.0561V77.1869C54.8783 73.5837 43.2201 73.5794 32.4379 77.1747L37.9516 43.999ZM25.4025 83.4661C25.1138 83.1173 24.9961 82.6578 25.0816 82.2133L31.7718 47.8658H34.2162L29.422 76.6781C29.2534 77.7269 29.6396 78.7882 30.4427 79.4833C31.2458 80.1785 32.3515 80.4085 33.3652 80.0912C41.5098 77.4525 50.1868 76.902 58.5995 78.4901L58.1443 84.0283H42.3684H26.5926C26.1317 84.0286 25.6949 83.8223 25.4025 83.4661ZM67.1857 87.0838C63.5052 87.0838 61.3938 85.9961 61.0837 85.5118L61.6093 79.1715C63.2892 79.5898 64.9332 80.141 66.5257 80.82C66.7316 80.9192 66.9571 80.9714 67.1857 80.9727C67.4149 80.9724 67.641 80.9202 67.8472 80.82C69.4387 80.137 71.0822 79.5822 72.762 79.1608L73.2876 85.5102C72.9775 85.9961 70.8661 87.0838 67.1857 87.0838ZM108.969 83.4661C108.676 83.8223 108.24 84.0286 107.779 84.0283H76.2316L75.7733 78.4794C84.1907 76.8945 92.8714 77.4498 101.018 80.0943C102.032 80.4073 103.135 80.1741 103.935 79.4776C104.735 78.7812 105.118 77.7205 104.948 76.6736L100.158 47.8673H102.603L109.294 82.2118C109.379 82.6575 109.26 83.1178 108.969 83.4661Z" fill="#2F5ED1" stroke="white" stroke-width="1.2" mask="url(#path-1-inside-1_1631_7)"/>
<path d="M75.9482 30.9072C76.3665 30.7593 76.8321 30.8486 77.166 31.1406C77.5 31.4329 77.6508 31.883 77.5596 32.3174L77.5586 32.3223C76.8463 35.9789 73.936 38.8079 70.2607 39.417L70.0908 39.4453L70.0293 39.6064C68.9562 42.4481 66.2309 44.3246 63.1934 44.3125H63.1924C62.5144 44.3125 61.965 43.7629 61.9648 43.085C61.9648 42.4069 62.5143 41.8564 63.1924 41.8564V41.8555C64.7666 41.8577 66.2441 41.0972 67.1553 39.8135L67.4189 39.4414L66.9736 39.3457C65.1478 38.9541 63.491 37.9992 62.2373 36.6152C61.7829 36.1124 61.8218 35.3366 62.3242 34.8818C62.7957 34.4558 63.507 34.4631 63.9688 34.8799L64.0605 34.9717C66.2525 37.3195 69.8261 37.7269 72.4902 35.9326L72.4922 35.9316C73.8785 34.9775 74.8331 33.5146 75.1475 31.8613V31.8564C75.223 31.4189 75.5298 31.0555 75.9482 30.9072Z" fill="#2F5ED1" stroke="white" stroke-width="0.6"/>
<path d="M62.2964 24.7451C62.9743 24.7451 63.5247 25.2948 63.5249 25.9727C63.5249 26.6507 62.9745 27.2012 62.2964 27.2012C61.1635 27.2013 60.077 27.6511 59.2759 28.4521C58.4748 29.2532 58.025 30.3397 58.0249 31.4727C58.0249 32.1507 57.4745 32.7012 56.7964 32.7012C56.4709 32.7011 56.1584 32.571 55.9282 32.3408C55.6984 32.1107 55.569 31.7989 55.5688 31.4736C55.5729 27.7597 58.5826 24.7496 62.2964 24.7451Z" fill="#2F5ED1" stroke="white" stroke-width="0.6"/>
<path d="M67.1855 0.299805C67.8635 0.299805 68.4138 0.849461 68.4141 1.52734V3.05566C68.414 3.7337 67.8636 4.2832 67.1855 4.2832C66.5077 4.28297 65.9581 3.73355 65.958 3.05566V1.52734C65.9582 0.849606 66.5078 0.300041 67.1855 0.299805Z" fill="#FFA200" stroke="white" stroke-width="0.6"/>
<path d="M92.4717 11.1709C92.7799 10.8517 93.2368 10.7236 93.666 10.8359C94.0952 10.9483 94.4306 11.2837 94.543 11.7129C94.6553 12.1422 94.5272 12.599 94.208 12.9072L92.6729 14.4424C92.3646 14.7615 91.9078 14.8897 91.4785 14.7773C91.0493 14.665 90.714 14.3296 90.6016 13.9004C90.4892 13.4711 90.6174 13.0143 90.9365 12.7061L92.4717 11.1709Z" fill="#FFA200" stroke="white" stroke-width="0.6"/>
<path d="M40.7051 10.8359C41.1343 10.7236 41.5911 10.8517 41.8994 11.1709L43.4307 12.7021C43.7817 13.0533 43.8862 13.5813 43.6963 14.04C43.5063 14.4988 43.059 14.7977 42.5625 14.7979C42.2779 14.7977 42.0035 14.6992 41.7852 14.5205L41.6943 14.4385L40.1631 12.9072L40.0527 12.7852C39.8158 12.4854 39.7298 12.0886 39.8281 11.7129C39.9405 11.2837 40.2759 10.9483 40.7051 10.8359Z" fill="#FFA200" stroke="white" stroke-width="0.6"/>
<path d="M52.7241 1.65918C53.1648 1.72023 53.5381 2.01518 53.6997 2.42969L53.7017 2.43555L55.4575 6.6709C55.5821 6.97166 55.582 7.30953 55.4575 7.61035C55.3485 7.8738 55.152 8.09025 54.9028 8.22363L54.7944 8.27441C54.6447 8.3359 54.4836 8.36684 54.3218 8.36719C53.8257 8.36693 53.3781 8.06958 53.188 7.61133L51.4341 3.37598L51.4321 3.37012L51.3755 3.21484C51.2696 2.84684 51.3412 2.4464 51.5757 2.13574C51.8438 1.78073 52.2834 1.59815 52.7241 1.65918Z" fill="#FFA200" stroke="white" stroke-width="0.6"/>
<path d="M80.6685 2.43652C80.9281 1.81069 81.6459 1.51357 82.272 1.77246C82.5731 1.89706 82.8124 2.1364 82.937 2.4375C83.0616 2.73876 83.0612 3.0779 82.936 3.37891L81.1821 7.61426C80.9919 8.07253 80.5445 8.37104 80.0483 8.37109L79.9272 8.36523C79.807 8.35325 79.6879 8.32342 79.5757 8.27734C79.2752 8.15251 79.037 7.913 78.9126 7.6123C78.8036 7.34861 78.7902 7.05674 78.8726 6.78613L78.9136 6.67188L80.6685 2.43652Z" fill="#FFA200" stroke="white" stroke-width="0.6"/>
<path d="M102.002 22.4424C102.407 22.2746 102.872 22.3354 103.22 22.6025C103.568 22.8697 103.747 23.3024 103.689 23.7373C103.632 24.1722 103.347 24.5432 102.941 24.7109L98.708 26.4648H98.707C98.5581 26.5269 98.3986 26.5593 98.2373 26.5596H98.2363C97.6494 26.5612 97.1438 26.147 97.0293 25.5713C96.9149 24.9956 97.2236 24.4193 97.7666 24.1963H97.7676L102.002 22.4424Z" fill="#FFA200" stroke="white" stroke-width="0.6"/>
<path d="M30.7646 23.1074C31.024 22.4809 31.7426 22.183 32.3691 22.4424L36.6035 24.1963C37.2299 24.4559 37.5279 25.1743 37.2686 25.8008C37.0088 26.4274 36.2897 26.7255 35.6631 26.4658L31.4297 24.7119C30.8032 24.4526 30.5053 23.734 30.7646 23.1074Z" fill="#FFA200" stroke="white" stroke-width="0.6"/>
<path d="M18.3333 64.1921C18.3333 62.855 15.8104 61.6851 12.1101 61.1837C11.7737 57.5069 10.5963 55 9.25077 55C7.9052 55 6.72783 57.5069 6.22324 61.1837C2.52293 61.518 0 62.6879 0 64.0249C0 65.362 2.52293 66.5319 6.22324 67.0332C6.55963 70.7101 7.737 73.217 9.08257 73.217C10.4281 73.217 11.6055 70.7101 12.1101 67.0332C15.6422 66.5319 18.3333 65.5291 18.3333 64.1921Z" fill="#FFE48F"/>
<path d="M134.333 37.4577C134.333 36.1207 131.81 34.9508 128.11 34.4494C127.774 30.7725 126.596 28.2656 125.251 28.2656C123.905 28.2656 122.728 30.7725 122.223 34.4494C118.523 34.7836 116 35.9535 116 37.2906C116 38.6276 118.523 39.7975 122.223 40.2989C122.56 43.9757 123.737 46.4826 125.083 46.4826C126.428 46.4826 127.606 43.9757 128.11 40.2989C131.642 39.7975 134.333 38.7947 134.333 37.4577Z" fill="#9FADF0"/>
<path d="M30.3003 6.93281C30.3003 6.03576 28.6076 5.25084 26.125 4.91445C25.8993 2.44758 25.1093 0.765625 24.2066 0.765625C23.3038 0.765625 22.5139 2.44758 22.1753 4.91445C19.6927 5.13871 18 5.92362 18 6.82067C18 7.71771 19.6927 8.50263 22.1753 8.83902C22.401 11.3059 23.1909 12.9878 24.0937 12.9878C24.9965 12.9878 25.7864 11.3059 26.125 8.83902C28.4947 8.50263 30.3003 7.82985 30.3003 6.93281Z" fill="#9FADF0"/>
<rect x="100" y="96.5508" width="6.90644" height="6.90644" transform="rotate(-45 100 96.5508)" fill="#E02287" fill-opacity="0.6"/>
</svg>
