<svg width="156" height="97" viewBox="0 0 156 97" fill="none" xmlns="http://www.w3.org/2000/svg">
<path d="M56.6523 59.1797L51.1523 61.6797L57.6523 74.6797L64.6523 85.1797L66.1523 74.6797L63.6523 71.6797L67.1523 66.6797L56.6523 59.1797Z" fill="#FFA200"/>
<path d="M79.3086 59.1797L85.1523 61.872L78.2461 75.872L70.8086 87.1797L69.2148 75.872L71.8711 72.6412L68.1523 67.2566L79.3086 59.1797Z" fill="#FFA200"/>
<path d="M63.1836 70.5771C63.6248 69.9765 64.4697 69.8474 65.0703 70.2881C65.6336 70.7018 65.7827 71.4701 65.4355 72.0596L65.3594 72.1748L65.165 72.4385C64.9007 72.7965 64.4932 72.9863 64.0791 72.9863C63.8012 72.9863 63.5204 72.9004 63.2793 72.7227C62.6799 72.2809 62.5514 71.4372 62.9922 70.8369L63.1836 70.5771Z" fill="#2F5ED1" stroke="white" stroke-width="0.4"/>
<path d="M66.7456 65.7256C67.0667 65.2882 67.6183 65.0857 68.147 65.2109C68.6749 65.337 69.0755 65.7676 69.1646 66.3027C69.1706 66.3392 69.1751 66.3761 69.1782 66.4131L69.1831 66.5254C69.183 66.8306 69.0813 67.1162 68.9058 67.3457L68.9028 67.3486L65.3599 72.1748C65.0951 72.5352 64.6856 72.7266 64.27 72.7266C63.9926 72.7266 63.7129 72.6418 63.4722 72.4648C62.8711 72.0237 62.7418 71.1781 63.1831 70.5771L66.7456 65.7256Z" fill="#2F5ED1" stroke="white" stroke-width="0.4"/>
<path d="M67.9478 65.1797V65.1787C68.4163 65.2187 68.8302 65.5002 69.0405 65.9209C69.1341 66.1086 69.1832 66.3155 69.1831 66.5244C69.1831 66.815 69.0891 67.1136 68.9194 67.3438L65.2075 72.3818C64.943 72.7408 64.5342 72.9306 64.1196 72.9307C63.842 72.9307 63.5618 72.8453 63.3208 72.668C62.7208 72.2266 62.5921 71.3829 63.0327 70.7822L66.7456 65.7256C67.0237 65.3468 67.4795 65.1411 67.9478 65.1797Z" fill="#2F5ED1" stroke="white" stroke-width="0.4"/>
<path d="M67.2881 90.8584C67.8294 90.3631 68.6677 90.3915 69.1748 90.9219C69.6818 91.4518 69.672 92.2899 69.1533 92.8086L68.8105 93.1523C68.5556 93.4073 68.2108 93.5479 67.8555 93.5479L67.6699 93.5352C67.251 93.477 66.8829 93.2257 66.6768 92.8564V92.8555L66.666 92.8359C66.3611 92.2894 66.4719 91.6049 66.9336 91.1826L67.2881 90.8584Z" fill="#2F5ED1" stroke="white" stroke-width="0.4"/>
<path d="M66.4922 90.9219C66.9993 90.3917 67.8376 90.3632 68.3789 90.8584L68.7334 91.1826C69.1919 91.6021 69.3047 92.2807 69.0068 92.8262L68.9961 92.8457L68.9951 92.8477C68.7907 93.2199 68.423 93.474 68.0029 93.5342H68.002C67.9386 93.5433 67.8751 93.5478 67.8115 93.5479C67.4561 93.5479 67.1124 93.4073 66.8574 93.1523L66.5137 92.8096C65.9949 92.2911 65.9851 91.4524 66.4922 90.9219Z" fill="#2F5ED1" stroke="white" stroke-width="0.4"/>
<path d="M67.9805 90.8486C68.2776 90.8812 68.5473 91.0101 68.7559 91.2051L68.7578 91.2061L68.7598 91.208C69.0322 91.4566 69.1911 91.8061 69.1992 92.1748C69.2078 92.5433 69.0645 92.8992 68.8037 93.1602L68.7881 93.1768C68.5248 93.4398 68.1796 93.5712 67.834 93.5713C67.4894 93.5713 67.1443 93.4406 66.8809 93.1787L66.8662 93.1631H66.8652C66.6035 92.9028 66.46 92.5462 66.4678 92.1768C66.4757 91.8075 66.6345 91.4568 66.9072 91.208L66.9082 91.207L66.9131 91.2031L66.9141 91.2021C67.1604 90.9728 67.4877 90.8412 67.832 90.8408L67.9805 90.8486Z" fill="#2F5ED1" stroke="white" stroke-width="0.4"/>
<path d="M66.7617 65.7227C67.1026 65.2432 67.7174 65.0362 68.2754 65.2148C68.8359 65.3938 69.2167 65.9109 69.2168 66.4971V66.501C69.2168 66.9402 69.0035 67.3517 68.6445 67.6045H68.6436C68.4085 67.77 68.1365 67.8515 67.8652 67.8516C67.5156 67.8516 67.169 67.7171 66.9082 67.4551C66.4439 66.9886 66.3815 66.2582 66.7617 65.7227Z" fill="#2F5ED1" stroke="white" stroke-width="0.4"/>
<path d="M67.4106 65.2148C67.964 65.0326 68.5722 65.226 68.9185 65.6943L68.9321 65.7129C69.152 66.0103 69.2405 66.385 69.1763 66.749C69.1119 67.1134 68.8999 67.4364 68.5913 67.6406C68.3649 67.7905 68.1006 67.8672 67.8364 67.8672C67.6176 67.8671 67.3992 67.814 67.2017 67.708C66.7618 67.4718 66.4839 67.0181 66.4839 66.5234V66.4971C66.4839 65.9146 66.8574 65.3972 67.4106 65.2148Z" fill="#2F5ED1" stroke="white" stroke-width="0.4"/>
<path d="M66.8926 91.2529C67.4009 90.7423 68.2219 90.7217 68.7559 91.2051V91.2061L68.7744 91.2217C69.188 91.5962 69.3279 92.1871 69.127 92.708C68.9264 93.2284 68.4261 93.5722 67.8682 93.5723H67.834C67.2888 93.5723 66.7973 93.2437 66.5879 92.7402C66.3919 92.2686 66.4795 91.7298 66.8076 91.3457L66.877 91.2705L66.8926 91.2529Z" fill="#2F5ED1" stroke="white" stroke-width="0.4"/>
<path d="M67.5967 90.8496C68.0035 90.7803 68.4192 90.9019 68.7256 91.1777C69.1784 91.5853 69.3115 92.2531 69.041 92.7939C68.9669 92.9421 68.8662 93.0761 68.7441 93.1875L68.7275 93.2021L68.7266 93.2031C68.4684 93.439 68.1427 93.5557 67.8174 93.5557C67.4637 93.5557 67.1112 93.4179 66.8467 93.1445L66.8418 93.1387C66.4303 92.7132 66.3434 92.0695 66.6279 91.5508L66.6387 91.5312C66.8371 91.1698 67.1904 90.9193 67.5967 90.8506V90.8496Z" fill="#2F5ED1" stroke="white" stroke-width="0.4"/>
<mask id="path-13-inside-1_1631_9" fill="white">
<path fill-rule="evenodd" clip-rule="evenodd" d="M85.7561 8.75449C90.6882 10.8215 91.4142 16.0612 91.445 16.3039C91.4533 16.3689 91.4574 16.4343 91.4574 16.4996V27.6098C91.4574 28.8988 91.0902 30.1691 90.3959 31.2832C88.5016 34.3213 87.8479 38.0775 87.7813 38.485C86.8547 48.6751 82.503 53.0282 79.9884 54.7171C79.9494 54.7432 79.9116 54.7701 79.8738 54.7968L79.758 54.8779C79.6003 54.9865 79.445 55.0963 79.2922 55.207V57.65C79.3067 57.654 79.3212 57.6583 79.3357 57.6627C79.3581 57.6697 79.3803 57.6771 79.4022 57.6849L85.3446 59.8151C85.3544 59.8186 85.3642 59.8222 85.374 59.8259C85.3806 59.8285 85.3872 59.831 85.3938 59.8336L104.69 66.8149C108.317 68.1265 110.961 71.3053 111.591 75.1101L113.59 87.183C113.863 88.8273 113.401 90.4999 112.322 91.7714C111.244 93.0429 109.67 93.7721 108.003 93.7721H67.8678L67.8593 93.7721L67.8335 93.7723H27.6644C25.9976 93.7723 24.4229 93.0431 23.3446 91.7718C22.2664 90.5004 21.8042 88.8282 22.0765 87.1832L24.0758 75.1102C24.7058 71.3054 27.3502 68.1266 30.9768 66.8151L50.2811 59.8309C50.2951 59.8254 50.3093 59.82 50.3236 59.8149L56.266 57.6847C56.3019 57.6719 56.3383 57.6603 56.375 57.6501V55.4263C56.2238 55.3183 56.0723 55.2131 55.921 55.111C55.906 55.1009 55.8913 55.0908 55.8767 55.0806L55.8431 55.0571L55.8224 55.0424L55.7833 55.0148C48.2316 50.0163 47.9041 39.0867 47.8939 38.6238C47.8937 38.6124 47.8936 38.6009 47.8936 38.5895V36.1267C47.7634 34.0075 46.9668 32.6033 46.3192 31.7967C45.0032 30.1582 44.2783 28.0844 44.2783 25.9578V17.7953C44.2783 9.34835 51.1503 2.47656 59.5969 2.47656H80.3986C80.498 2.47656 80.5968 2.48605 80.6942 2.50503C82.9653 2.94653 84.5149 3.95433 85.3001 5.50085C85.8843 6.65152 85.8994 7.83424 85.7561 8.75449ZM48.1944 70.065L50.9137 64.6116L58.415 78.25C58.4234 78.2654 58.4321 78.2805 58.441 78.2955L61.9878 84.7439L51.8807 75.498L53.5062 72.3948C53.756 71.9182 53.7404 71.3462 53.4656 70.8835C53.1906 70.4211 52.6954 70.1345 52.1574 70.126L48.1944 70.065ZM63.3885 69.9599L62.8329 70.7137C62.8301 70.7175 62.8274 70.7212 62.8246 70.725L59.9595 74.6271L53.08 62.1193L56.5773 60.8657L62.4135 64.7656L65.6029 66.9438L63.3885 69.9599ZM72.8662 70.7586C72.8621 70.7528 72.8579 70.7471 72.8538 70.7415L70.0652 66.9438L73.2683 64.7563L79.0905 60.8658L82.5876 62.1196L75.7075 74.6284L72.8662 70.7586ZM67.8374 69.1481L69.6994 71.684L68.4165 73.5262C68.1877 73.8546 68.095 74.259 68.1576 74.6547L69.8443 85.2853L67.8332 88.9422L65.8486 85.334L67.543 74.6547C67.6058 74.259 67.5129 73.8547 67.2841 73.5262L65.9854 71.661L67.8374 69.1481ZM64.0467 74.301L61.6084 77.6218L63.4132 80.9035L64.3839 74.7852L64.0467 74.301ZM72.28 80.8553L71.3169 74.7854L71.6381 74.3243L73.2599 76.5331L74.0586 77.621L72.28 80.8553ZM76.4724 58.8873L67.8342 64.6595L59.1949 58.8866V57.7908C61.2984 59.3531 64.3926 61.2693 66.9148 61.2691H66.9312C67.7781 61.3648 72.0965 61.625 76.4724 57.7017V58.8873ZM77.2206 78.3063L73.6811 84.7417L83.786 75.4978L82.1607 72.3946C81.9111 71.9178 81.9265 71.346 82.2015 70.8834C82.4763 70.4207 82.9717 70.1343 83.5097 70.1258L87.4723 70.0648L84.7537 64.6128L77.253 78.2501C77.2426 78.2691 77.2318 78.2879 77.2206 78.3063ZM50.9935 36.0855L50.9932 36.1129V38.5671C51.0066 38.961 51.4054 48.4 57.4994 52.4335C57.5431 52.4625 57.5802 52.4888 57.6174 52.5153L57.6555 52.5422C58.1472 52.8739 58.6402 53.2338 59.1211 53.6115C62.2652 56.0808 65.2372 57.5871 66.8856 57.5448C66.9767 57.5423 67.068 57.548 67.1581 57.5615C67.3518 57.5887 71.3015 58.0814 75.4568 54.3248C76.222 53.6332 77.0774 52.9604 77.9993 52.3254L78.0852 52.2648C78.1433 52.224 78.2013 52.1832 78.26 52.1436C79.9146 51.0323 83.8479 47.4536 84.6924 38.2221H84.6926V25.5205C84.6129 25.0238 83.9702 21.8624 80.369 20.534L73.1657 18.0052C72.1672 17.6543 71.0726 17.6681 70.0839 18.0439C68.6063 18.6052 66.5764 19.3604 65.297 19.7707C64.5531 20.0092 63.7748 20.1301 62.9833 20.1301H56.2545C55.6354 20.2448 52.0455 21.0926 50.9935 25.4436V36.0855ZM88.3576 27.609C88.3576 28.3013 88.1623 28.988 87.7924 29.5987V25.4147C87.7924 25.4035 87.7922 25.3924 87.792 25.3813C87.791 25.3364 87.7881 25.2917 87.7832 25.247C87.7589 25.022 87.1184 19.7106 81.4277 17.6202L81.4068 17.6127L74.1925 15.08C73.3792 14.7945 72.5282 14.652 71.6778 14.652C70.879 14.652 70.0806 14.7778 69.3142 15.0291C69.2031 15.0655 69.0927 15.1045 68.983 15.1462C67.0435 15.883 65.5142 16.4374 64.5383 16.7581C64.4732 16.7794 64.4106 16.7998 64.3505 16.819C64.2958 16.8365 64.2408 16.853 64.1854 16.8684C64.0132 16.9162 63.8379 16.9535 63.6601 16.9802C63.4377 17.0136 63.2116 17.0304 62.9831 17.0304H56.1294C56.063 17.0304 55.9964 17.0347 55.9303 17.0431C55.668 17.0771 49.4864 17.9562 47.9308 24.9288C47.9061 25.0396 47.8936 25.1528 47.8936 25.2663V28.4555C47.5562 27.6758 47.3776 26.8241 47.3776 25.958V17.7957C47.3776 11.0582 52.8592 5.57658 59.5965 5.57658H80.2422C81.0969 5.75867 82.1357 6.13232 82.5297 6.89251C83.0122 7.82296 82.4626 9.10415 82.462 9.10522C82.2639 9.52685 82.2662 10.0151 82.4676 10.4349C82.6692 10.8548 83.0491 11.1616 83.5021 11.2707C87.4477 12.2205 88.2525 16.0048 88.3574 16.6169V27.609H88.3576ZM25.7088 89.7669C26.1968 90.3427 26.9098 90.6728 27.6646 90.6728H63.8778L48.9084 76.9792C48.3895 76.5046 48.2552 75.7397 48.5816 75.1167L49.5928 73.1861L45.6852 73.1258C45.1525 73.1177 44.6614 72.8366 44.3848 72.3815C44.1079 71.9262 44.0842 71.3612 44.322 70.8844L47.7301 64.0499L32.0313 69.7295C29.4576 70.6605 27.5812 72.916 27.1341 75.6164L25.1348 87.6894C25.0116 88.4342 25.2207 89.1913 25.7088 89.7669ZM108.003 90.6726C108.757 90.6726 109.47 90.3425 109.959 89.7667C110.447 89.1909 110.656 88.4338 110.533 87.6892L108.534 75.6162C108.087 72.9161 106.21 70.6603 103.636 69.7293L87.9375 64.0497L91.3458 70.8846C91.5834 71.3614 91.5596 71.9264 91.2829 72.3817C91.006 72.8366 90.5152 73.1179 89.9826 73.126L86.0749 73.1861L87.0861 75.1167C87.4127 75.7399 87.2784 76.5046 86.7592 76.9792L71.7898 90.6726H108.003Z"/>
</mask>
<path fill-rule="evenodd" clip-rule="evenodd" d="M85.7561 8.75449C90.6882 10.8215 91.4142 16.0612 91.445 16.3039C91.4533 16.3689 91.4574 16.4343 91.4574 16.4996V27.6098C91.4574 28.8988 91.0902 30.1691 90.3959 31.2832C88.5016 34.3213 87.8479 38.0775 87.7813 38.485C86.8547 48.6751 82.503 53.0282 79.9884 54.7171C79.9494 54.7432 79.9116 54.7701 79.8738 54.7968L79.758 54.8779C79.6003 54.9865 79.445 55.0963 79.2922 55.207V57.65C79.3067 57.654 79.3212 57.6583 79.3357 57.6627C79.3581 57.6697 79.3803 57.6771 79.4022 57.6849L85.3446 59.8151C85.3544 59.8186 85.3642 59.8222 85.374 59.8259C85.3806 59.8285 85.3872 59.831 85.3938 59.8336L104.69 66.8149C108.317 68.1265 110.961 71.3053 111.591 75.1101L113.59 87.183C113.863 88.8273 113.401 90.4999 112.322 91.7714C111.244 93.0429 109.67 93.7721 108.003 93.7721H67.8678L67.8593 93.7721L67.8335 93.7723H27.6644C25.9976 93.7723 24.4229 93.0431 23.3446 91.7718C22.2664 90.5004 21.8042 88.8282 22.0765 87.1832L24.0758 75.1102C24.7058 71.3054 27.3502 68.1266 30.9768 66.8151L50.2811 59.8309C50.2951 59.8254 50.3093 59.82 50.3236 59.8149L56.266 57.6847C56.3019 57.6719 56.3383 57.6603 56.375 57.6501V55.4263C56.2238 55.3183 56.0723 55.2131 55.921 55.111C55.906 55.1009 55.8913 55.0908 55.8767 55.0806L55.8431 55.0571L55.8224 55.0424L55.7833 55.0148C48.2316 50.0163 47.9041 39.0867 47.8939 38.6238C47.8937 38.6124 47.8936 38.6009 47.8936 38.5895V36.1267C47.7634 34.0075 46.9668 32.6033 46.3192 31.7967C45.0032 30.1582 44.2783 28.0844 44.2783 25.9578V17.7953C44.2783 9.34835 51.1503 2.47656 59.5969 2.47656H80.3986C80.498 2.47656 80.5968 2.48605 80.6942 2.50503C82.9653 2.94653 84.5149 3.95433 85.3001 5.50085C85.8843 6.65152 85.8994 7.83424 85.7561 8.75449ZM48.1944 70.065L50.9137 64.6116L58.415 78.25C58.4234 78.2654 58.4321 78.2805 58.441 78.2955L61.9878 84.7439L51.8807 75.498L53.5062 72.3948C53.756 71.9182 53.7404 71.3462 53.4656 70.8835C53.1906 70.4211 52.6954 70.1345 52.1574 70.126L48.1944 70.065ZM63.3885 69.9599L62.8329 70.7137C62.8301 70.7175 62.8274 70.7212 62.8246 70.725L59.9595 74.6271L53.08 62.1193L56.5773 60.8657L62.4135 64.7656L65.6029 66.9438L63.3885 69.9599ZM72.8662 70.7586C72.8621 70.7528 72.8579 70.7471 72.8538 70.7415L70.0652 66.9438L73.2683 64.7563L79.0905 60.8658L82.5876 62.1196L75.7075 74.6284L72.8662 70.7586ZM67.8374 69.1481L69.6994 71.684L68.4165 73.5262C68.1877 73.8546 68.095 74.259 68.1576 74.6547L69.8443 85.2853L67.8332 88.9422L65.8486 85.334L67.543 74.6547C67.6058 74.259 67.5129 73.8547 67.2841 73.5262L65.9854 71.661L67.8374 69.1481ZM64.0467 74.301L61.6084 77.6218L63.4132 80.9035L64.3839 74.7852L64.0467 74.301ZM72.28 80.8553L71.3169 74.7854L71.6381 74.3243L73.2599 76.5331L74.0586 77.621L72.28 80.8553ZM76.4724 58.8873L67.8342 64.6595L59.1949 58.8866V57.7908C61.2984 59.3531 64.3926 61.2693 66.9148 61.2691H66.9312C67.7781 61.3648 72.0965 61.625 76.4724 57.7017V58.8873ZM77.2206 78.3063L73.6811 84.7417L83.786 75.4978L82.1607 72.3946C81.9111 71.9178 81.9265 71.346 82.2015 70.8834C82.4763 70.4207 82.9717 70.1343 83.5097 70.1258L87.4723 70.0648L84.7537 64.6128L77.253 78.2501C77.2426 78.2691 77.2318 78.2879 77.2206 78.3063ZM50.9935 36.0855L50.9932 36.1129V38.5671C51.0066 38.961 51.4054 48.4 57.4994 52.4335C57.5431 52.4625 57.5802 52.4888 57.6174 52.5153L57.6555 52.5422C58.1472 52.8739 58.6402 53.2338 59.1211 53.6115C62.2652 56.0808 65.2372 57.5871 66.8856 57.5448C66.9767 57.5423 67.068 57.548 67.1581 57.5615C67.3518 57.5887 71.3015 58.0814 75.4568 54.3248C76.222 53.6332 77.0774 52.9604 77.9993 52.3254L78.0852 52.2648C78.1433 52.224 78.2013 52.1832 78.26 52.1436C79.9146 51.0323 83.8479 47.4536 84.6924 38.2221H84.6926V25.5205C84.6129 25.0238 83.9702 21.8624 80.369 20.534L73.1657 18.0052C72.1672 17.6543 71.0726 17.6681 70.0839 18.0439C68.6063 18.6052 66.5764 19.3604 65.297 19.7707C64.5531 20.0092 63.7748 20.1301 62.9833 20.1301H56.2545C55.6354 20.2448 52.0455 21.0926 50.9935 25.4436V36.0855ZM88.3576 27.609C88.3576 28.3013 88.1623 28.988 87.7924 29.5987V25.4147C87.7924 25.4035 87.7922 25.3924 87.792 25.3813C87.791 25.3364 87.7881 25.2917 87.7832 25.247C87.7589 25.022 87.1184 19.7106 81.4277 17.6202L81.4068 17.6127L74.1925 15.08C73.3792 14.7945 72.5282 14.652 71.6778 14.652C70.879 14.652 70.0806 14.7778 69.3142 15.0291C69.2031 15.0655 69.0927 15.1045 68.983 15.1462C67.0435 15.883 65.5142 16.4374 64.5383 16.7581C64.4732 16.7794 64.4106 16.7998 64.3505 16.819C64.2958 16.8365 64.2408 16.853 64.1854 16.8684C64.0132 16.9162 63.8379 16.9535 63.6601 16.9802C63.4377 17.0136 63.2116 17.0304 62.9831 17.0304H56.1294C56.063 17.0304 55.9964 17.0347 55.9303 17.0431C55.668 17.0771 49.4864 17.9562 47.9308 24.9288C47.9061 25.0396 47.8936 25.1528 47.8936 25.2663V28.4555C47.5562 27.6758 47.3776 26.8241 47.3776 25.958V17.7957C47.3776 11.0582 52.8592 5.57658 59.5965 5.57658H80.2422C81.0969 5.75867 82.1357 6.13232 82.5297 6.89251C83.0122 7.82296 82.4626 9.10415 82.462 9.10522C82.2639 9.52685 82.2662 10.0151 82.4676 10.4349C82.6692 10.8548 83.0491 11.1616 83.5021 11.2707C87.4477 12.2205 88.2525 16.0048 88.3574 16.6169V27.609H88.3576ZM25.7088 89.7669C26.1968 90.3427 26.9098 90.6728 27.6646 90.6728H63.8778L48.9084 76.9792C48.3895 76.5046 48.2552 75.7397 48.5816 75.1167L49.5928 73.1861L45.6852 73.1258C45.1525 73.1177 44.6614 72.8366 44.3848 72.3815C44.1079 71.9262 44.0842 71.3612 44.322 70.8844L47.7301 64.0499L32.0313 69.7295C29.4576 70.6605 27.5812 72.916 27.1341 75.6164L25.1348 87.6894C25.0116 88.4342 25.2207 89.1913 25.7088 89.7669ZM108.003 90.6726C108.757 90.6726 109.47 90.3425 109.959 89.7667C110.447 89.1909 110.656 88.4338 110.533 87.6892L108.534 75.6162C108.087 72.9161 106.21 70.6603 103.636 69.7293L87.9375 64.0497L91.3458 70.8846C91.5834 71.3614 91.5596 71.9264 91.2829 72.3817C91.006 72.8366 90.5152 73.1179 89.9826 73.126L86.0749 73.1861L87.0861 75.1167C87.4127 75.7399 87.2784 76.5046 86.7592 76.9792L71.7898 90.6726H108.003Z" fill="#2F5ED1"/>
<path d="M91.445 16.3039L91.8419 16.2537L91.8419 16.2536L91.445 16.3039ZM85.7561 8.75449L85.3609 8.69297L85.3127 9.00237L85.6015 9.1234L85.7561 8.75449ZM90.3959 31.2832L90.7353 31.4949L90.7354 31.4948L90.3959 31.2832ZM87.7813 38.485L87.3865 38.4204L87.3842 38.4345L87.3829 38.4487L87.7813 38.485ZM79.9884 54.7171L80.211 55.0495L80.2114 55.0492L79.9884 54.7171ZM79.8738 54.7968L80.1032 55.1245L80.1046 55.1235L79.8738 54.7968ZM79.758 54.8779L79.9849 55.2073L79.9874 55.2056L79.758 54.8779ZM79.2922 55.207L79.0575 54.8831L78.8922 55.0029V55.207H79.2922ZM79.2922 57.65H78.8922V57.9546L79.1858 58.0356L79.2922 57.65ZM79.3357 57.6627L79.4538 57.2806L79.4538 57.2806L79.3357 57.6627ZM79.4022 57.6849L79.5372 57.3084L79.5367 57.3082L79.4022 57.6849ZM85.3446 59.8151L85.2096 60.1916L85.2099 60.1917L85.3446 59.8151ZM85.374 59.8259L85.5165 59.4522L85.5163 59.4521L85.374 59.8259ZM85.3938 59.8336L85.2463 60.2056L85.2577 60.2098L85.3938 59.8336ZM104.69 66.8149L104.554 67.1911L104.554 67.1911L104.69 66.8149ZM111.591 75.1101L111.196 75.1754V75.1754L111.591 75.1101ZM113.59 87.183L113.196 87.2484L113.196 87.2484L113.59 87.183ZM112.322 91.7714L112.017 91.5127L112.017 91.5127L112.322 91.7714ZM67.8678 93.7721L67.8667 94.1721H67.8678V93.7721ZM67.8593 93.7721L67.8604 93.3721L67.856 93.3721L67.8593 93.7721ZM67.8335 93.7723V94.1723L67.8368 94.1723L67.8335 93.7723ZM23.3446 91.7718L23.0395 92.0305L23.0396 92.0305L23.3446 91.7718ZM22.0765 87.1832L21.6819 87.1179L21.6819 87.1179L22.0765 87.1832ZM24.0758 75.1102L24.4704 75.1756L24.4704 75.1756L24.0758 75.1102ZM30.9768 66.8151L31.1128 67.1913L31.1129 67.1912L30.9768 66.8151ZM50.2811 59.8309L50.4172 60.2071L50.427 60.2033L50.2811 59.8309ZM50.3236 59.8149L50.4586 60.1915L50.4586 60.1915L50.3236 59.8149ZM56.266 57.6847L56.1312 57.3081L56.131 57.3082L56.266 57.6847ZM56.375 57.6501L56.4823 58.0354L56.775 57.9539V57.6501H56.375ZM56.375 55.4263H56.775V55.2203L56.6074 55.1007L56.375 55.4263ZM55.921 55.111L56.1449 54.7795L56.1441 54.779L55.921 55.111ZM55.8767 55.0806L55.647 55.4081L55.6482 55.409L55.8767 55.0806ZM55.8431 55.0571L55.6123 55.3837L55.6135 55.3846L55.8431 55.0571ZM55.8224 55.0424L56.0532 54.7158L56.0532 54.7157L55.8224 55.0424ZM55.7833 55.0148L56.0143 54.688L56.0041 54.6813L55.7833 55.0148ZM47.8939 38.6238L47.494 38.6301L47.494 38.6327L47.8939 38.6238ZM47.8936 36.1267H48.2936V36.1145L48.2928 36.1022L47.8936 36.1267ZM46.3192 31.7967L46.6311 31.5463L46.631 31.5462L46.3192 31.7967ZM80.6942 2.50503L80.6177 2.89765L80.6179 2.89768L80.6942 2.50503ZM85.3001 5.50085L85.6568 5.31977L85.6568 5.31976L85.3001 5.50085ZM50.9137 64.6116L51.2642 64.4188L50.8964 63.75L50.5558 64.4331L50.9137 64.6116ZM48.1944 70.065L47.8364 69.8865L47.5528 70.4551L48.1882 70.4649L48.1944 70.065ZM58.415 78.25L58.7655 78.0573L58.7655 78.0572L58.415 78.25ZM58.441 78.2955L58.7917 78.1027L58.7848 78.091L58.441 78.2955ZM61.9878 84.7439L61.7178 85.0391L62.3383 84.5511L61.9878 84.7439ZM51.8807 75.498L51.5264 75.3124L51.3835 75.5853L51.6108 75.7932L51.8807 75.498ZM53.5062 72.3948L53.1519 72.2091L53.1519 72.2092L53.5062 72.3948ZM53.4656 70.8835L53.8095 70.6793L53.8094 70.6791L53.4656 70.8835ZM52.1574 70.126L52.1636 69.7261L52.1635 69.7261L52.1574 70.126ZM63.3885 69.9599L63.7105 70.1972L63.7109 70.1966L63.3885 69.9599ZM62.8329 70.7137L63.1544 70.9517L63.1549 70.951L62.8329 70.7137ZM62.8246 70.725L63.1471 70.9617L63.1483 70.9601L62.8246 70.725ZM59.9595 74.6271L59.609 74.8199L59.911 75.369L60.2819 74.8638L59.9595 74.6271ZM53.08 62.1193L52.9451 61.7428L52.5035 61.9011L52.7295 62.3121L53.08 62.1193ZM56.5773 60.8657L56.7996 60.5331L56.632 60.4212L56.4424 60.4892L56.5773 60.8657ZM62.4135 64.7656L62.6391 64.4352L62.6357 64.433L62.4135 64.7656ZM65.6029 66.9438L65.9254 67.1805L66.1703 66.8469L65.8285 66.6134L65.6029 66.9438ZM72.8662 70.7586L72.5404 70.9908L72.5437 70.9953L72.8662 70.7586ZM72.8538 70.7415L73.1763 70.5049L73.1762 70.5047L72.8538 70.7415ZM70.0652 66.9438L69.8396 66.6135L69.4978 66.8469L69.7428 67.1806L70.0652 66.9438ZM73.2683 64.7563L73.046 64.4237L73.0427 64.426L73.2683 64.7563ZM79.0905 60.8658L79.2255 60.4893L79.0358 60.4213L78.8683 60.5333L79.0905 60.8658ZM82.5876 62.1196L82.9381 62.3124L83.1642 61.9014L82.7226 61.7431L82.5876 62.1196ZM75.7075 74.6284L75.3851 74.8651L75.756 75.3702L76.058 74.8211L75.7075 74.6284ZM69.6994 71.684L70.0276 71.9125L70.1911 71.6778L70.0218 71.4472L69.6994 71.684ZM67.8374 69.1481L68.1598 68.9113L67.838 68.473L67.5154 68.9108L67.8374 69.1481ZM68.4165 73.5262L68.7447 73.7549L68.7448 73.7548L68.4165 73.5262ZM68.1576 74.6547L67.7626 74.7172L67.7626 74.7174L68.1576 74.6547ZM69.8443 85.2853L70.1948 85.4781L70.2609 85.358L70.2394 85.2226L69.8443 85.2853ZM67.8332 88.9422L67.4827 89.1349L67.8332 89.7722L68.1837 89.1349L67.8332 88.9422ZM65.8486 85.334L65.4535 85.2713L65.4321 85.4067L65.4981 85.5268L65.8486 85.334ZM67.543 74.6547L67.1479 74.5919L67.1479 74.592L67.543 74.6547ZM67.2841 73.5262L66.9559 73.7548L66.9559 73.7548L67.2841 73.5262ZM65.9854 71.661L65.6634 71.4237L65.4934 71.6544L65.6571 71.8896L65.9854 71.661ZM64.0467 74.301L64.375 74.0724L64.0554 73.6134L63.7243 74.0643L64.0467 74.301ZM61.6084 77.6218L61.286 77.385L61.1349 77.5908L61.2579 77.8145L61.6084 77.6218ZM63.4132 80.9035L63.0627 81.0963L63.6253 82.1193L63.8083 80.9662L63.4132 80.9035ZM64.3839 74.7852L64.779 74.8479L64.8042 74.6888L64.7121 74.5566L64.3839 74.7852ZM72.28 80.8553L71.8849 80.918L72.0679 82.0711L72.6305 81.0481L72.28 80.8553ZM71.3169 74.7854L70.9887 74.5568L70.8966 74.6889L70.9219 74.8481L71.3169 74.7854ZM71.6381 74.3243L71.9605 74.0876L71.6295 73.6367L71.3098 74.0957L71.6381 74.3243ZM73.2599 76.5331L73.5823 76.2964L73.5823 76.2964L73.2599 76.5331ZM74.0586 77.621L74.4091 77.8138L74.5322 77.5901L74.3811 77.3843L74.0586 77.621ZM67.8342 64.6595L67.612 64.9921L67.8342 65.1406L68.0564 64.9921L67.8342 64.6595ZM76.4724 58.8873L76.6947 59.2199L76.8724 59.1011V58.8873H76.4724ZM59.1949 58.8866H58.7949V59.1004L58.9727 59.2192L59.1949 58.8866ZM59.1949 57.7908L59.4334 57.4696L58.7949 56.9954V57.7908H59.1949ZM66.9148 61.2691V60.8691H66.9148L66.9148 61.2691ZM66.9312 61.2691L66.9762 60.8716L66.9538 60.8691H66.9312V61.2691ZM76.4724 57.7017H76.8724V56.8059L76.2054 57.4039L76.4724 57.7017ZM73.6811 84.7417L73.3306 84.5489L73.9511 85.0368L73.6811 84.7417ZM77.2206 78.3063L76.8784 78.0992L76.8741 78.1063L76.8701 78.1135L77.2206 78.3063ZM83.786 75.4978L84.0559 75.793L84.2832 75.5851L84.1403 75.3123L83.786 75.4978ZM82.1607 72.3946L81.8063 72.5801L81.8063 72.5802L82.1607 72.3946ZM82.2015 70.8834L82.5453 71.0877L82.5454 71.0876L82.2015 70.8834ZM83.5097 70.1258L83.5035 69.7259L83.5034 69.7259L83.5097 70.1258ZM87.4723 70.0648L87.4785 70.4648L88.1139 70.455L87.8303 69.8863L87.4723 70.0648ZM84.7537 64.6128L85.1116 64.4343L84.771 63.7512L84.4032 64.42L84.7537 64.6128ZM77.253 78.2501L76.9025 78.0574L76.9025 78.0575L77.253 78.2501ZM50.9932 36.1129L50.5932 36.1094V36.1129H50.9932ZM50.9935 36.0855L51.3935 36.089V36.0855H50.9935ZM50.9932 38.5671H50.593L50.5935 38.5807L50.9932 38.5671ZM57.4994 52.4335L57.7207 52.1002L57.7202 52.0999L57.4994 52.4335ZM57.6174 52.5153L57.3855 52.8412L57.3871 52.8424L57.6174 52.5153ZM57.6555 52.5422L57.4252 52.8693L57.4318 52.8737L57.6555 52.5422ZM59.1211 53.6115L58.874 53.9261L58.8741 53.9261L59.1211 53.6115ZM66.8856 57.5448L66.8959 57.9447L66.8966 57.9447L66.8856 57.5448ZM67.1581 57.5615L67.0991 57.9571L67.1024 57.9576L67.1581 57.5615ZM75.4568 54.3248L75.1886 54.0281L75.1886 54.0281L75.4568 54.3248ZM77.9993 52.3254L78.2262 52.6548L78.2296 52.6524L77.9993 52.3254ZM78.0852 52.2648L77.855 51.9377L77.8549 51.9378L78.0852 52.2648ZM78.26 52.1436L78.037 51.8116L78.0365 51.8119L78.26 52.1436ZM84.6924 38.2221V37.8221H84.3273L84.2941 38.1856L84.6924 38.2221ZM84.6926 38.2221V38.6221H85.0926V38.2221H84.6926ZM84.6926 25.5205H85.0926V25.4886L85.0876 25.4571L84.6926 25.5205ZM80.369 20.534L80.5075 20.1586L80.5015 20.1565L80.369 20.534ZM73.1657 18.0052L73.033 18.3826L73.0332 18.3827L73.1657 18.0052ZM70.0839 18.0439L70.226 18.4178L70.226 18.4178L70.0839 18.0439ZM65.297 19.7707L65.4191 20.1516L65.4192 20.1516L65.297 19.7707ZM56.2545 20.1301V19.7301H56.2177L56.1815 19.7368L56.2545 20.1301ZM50.9935 25.4436L50.6047 25.3496L50.5935 25.3959V25.4436H50.9935ZM87.7924 29.5987H87.3924V31.0313L88.1346 29.8059L87.7924 29.5987ZM88.3576 27.609H88.7576V27.209H88.3576V27.609ZM87.7924 25.4147H88.1924L88.1924 25.4133L87.7924 25.4147ZM87.792 25.3813L87.3921 25.3898L87.3921 25.3911L87.792 25.3813ZM87.7832 25.247L87.3855 25.29L87.3856 25.2904L87.7832 25.247ZM81.4277 17.6202L81.5657 17.2447L81.5629 17.2437L81.4277 17.6202ZM81.4068 17.6127L81.5419 17.2362L81.5393 17.2353L81.4068 17.6127ZM74.1925 15.08L74.06 15.4575L74.06 15.4575L74.1925 15.08ZM69.3142 15.0291L69.4387 15.4093L69.4389 15.4092L69.3142 15.0291ZM68.983 15.1462L68.841 14.7723L68.841 14.7723L68.983 15.1462ZM64.5383 16.7581L64.6631 17.1381L64.6631 17.1381L64.5383 16.7581ZM64.3505 16.819L64.4726 17.1999L64.4726 17.1999L64.3505 16.819ZM64.1854 16.8684L64.0785 16.4829V16.4829L64.1854 16.8684ZM63.6601 16.9802L63.7195 17.3758L63.7195 17.3758L63.6601 16.9802ZM55.9303 17.0431L55.8798 16.6463L55.8789 16.6464L55.9303 17.0431ZM47.9308 24.9288L47.5404 24.8417L47.5404 24.8417L47.9308 24.9288ZM47.8936 28.4555L47.5264 28.6143L48.2936 28.4555H47.8936ZM80.2422 5.57658L80.3255 5.18536L80.2843 5.17658H80.2422V5.57658ZM82.5297 6.89251L82.1746 7.07659L82.1746 7.07665L82.5297 6.89251ZM82.462 9.10522L82.1038 8.92712L82.1 8.93506L82.462 9.10522ZM82.4676 10.4349L82.107 10.6079L82.107 10.6081L82.4676 10.4349ZM83.5021 11.2707L83.5957 10.8818L83.5957 10.8818L83.5021 11.2707ZM88.3574 16.6169H88.7574V16.5829L88.7516 16.5493L88.3574 16.6169ZM88.3574 27.609H87.9574V28.009H88.3574V27.609ZM25.7088 89.7669L26.0139 89.5083L26.0139 89.5082L25.7088 89.7669ZM63.8778 90.6728V91.0728H64.9077L64.1478 90.3777L63.8778 90.6728ZM48.9084 76.9792L49.1784 76.6841V76.6841L48.9084 76.9792ZM48.5816 75.1167L48.936 75.3023L48.936 75.3023L48.5816 75.1167ZM49.5928 73.1861L49.9472 73.3717L50.2486 72.7962L49.599 72.7862L49.5928 73.1861ZM45.6852 73.1258L45.6914 72.7258H45.6912L45.6852 73.1258ZM44.3848 72.3815L44.7266 72.1738L44.7266 72.1737L44.3848 72.3815ZM44.322 70.8844L44.6799 71.0629H44.68L44.322 70.8844ZM47.7301 64.0499L48.0881 64.2284L48.5343 63.3336L47.5941 63.6737L47.7301 64.0499ZM32.0313 69.7295L32.1674 70.1056H32.1674L32.0313 69.7295ZM27.1341 75.6164L27.5287 75.6817L27.5287 75.6817L27.1341 75.6164ZM25.1348 87.6894L24.7402 87.624L24.7402 87.6241L25.1348 87.6894ZM109.959 89.7667L110.264 90.0255L110.264 90.0254L109.959 89.7667ZM110.533 87.6892L110.928 87.6239L110.928 87.6238L110.533 87.6892ZM108.534 75.6162L108.139 75.6815L108.139 75.6815L108.534 75.6162ZM103.636 69.7293L103.5 70.1054H103.5L103.636 69.7293ZM87.9375 64.0497L88.0735 63.6736L87.1333 63.3334L87.5795 64.2282L87.9375 64.0497ZM91.3458 70.8846L91.7038 70.7062L91.7037 70.7061L91.3458 70.8846ZM91.2829 72.3817L91.6246 72.5897L91.6248 72.5894L91.2829 72.3817ZM89.9826 73.126L89.9765 72.726H89.9764L89.9826 73.126ZM86.0749 73.1861L86.0688 72.7862L85.4191 72.7962L85.7206 73.3717L86.0749 73.1861ZM87.0861 75.1167L86.7318 75.3023L86.7318 75.3023L87.0861 75.1167ZM86.7592 76.9792L86.4893 76.684L86.4892 76.6841L86.7592 76.9792ZM71.7898 90.6726L71.5198 90.3775L70.7599 91.0726H71.7898V90.6726ZM91.8419 16.2536C91.8233 16.1072 91.6257 14.6877 90.7961 13.0339C89.9648 11.3766 88.489 9.4661 85.9107 8.38558L85.6015 9.1234C87.9554 10.1099 89.3086 11.8527 90.081 13.3926C90.8552 14.9361 91.036 16.2579 91.0482 16.3543L91.8419 16.2536ZM91.8574 16.4996C91.8574 16.4175 91.8522 16.3353 91.8419 16.2537L91.0482 16.3542C91.0543 16.4025 91.0574 16.4511 91.0574 16.4996H91.8574ZM91.8574 27.6098V16.4996H91.0574V27.6098H91.8574ZM90.7354 31.4948C91.4684 30.3184 91.8574 28.9751 91.8574 27.6098H91.0574C91.0574 28.8225 90.7119 30.0197 90.0564 31.0717L90.7354 31.4948ZM88.176 38.5495C88.2413 38.1502 88.8856 34.4614 90.7353 31.4949L90.0565 31.0716C88.1176 34.1812 87.4545 38.0048 87.3865 38.4204L88.176 38.5495ZM80.2114 55.0492C82.827 53.2924 87.2423 48.8301 88.1796 38.5212L87.3829 38.4487C86.4672 48.52 82.179 52.764 79.7654 54.3851L80.2114 55.0492ZM80.1046 55.1235C80.144 55.0956 80.1771 55.0722 80.211 55.0495L79.7658 54.3848C79.7217 54.4143 79.6792 54.4445 79.6431 54.47L80.1046 55.1235ZM79.9874 55.2056L80.1032 55.1245L79.6444 54.4691L79.5286 54.5502L79.9874 55.2056ZM79.527 55.5309C79.6771 55.422 79.8298 55.3141 79.9849 55.2073L79.5311 54.5485C79.3708 54.6589 79.2129 54.7705 79.0575 54.8831L79.527 55.5309ZM79.6922 57.65V55.207H78.8922V57.65H79.6922ZM79.4538 57.2806C79.4356 57.275 79.4172 57.2696 79.3986 57.2644L79.1858 58.0356C79.1963 58.0385 79.2069 58.0416 79.2175 58.0449L79.4538 57.2806ZM79.5367 57.3082C79.5097 57.2986 79.482 57.2893 79.4538 57.2806L79.2175 58.0449C79.2342 58.05 79.2509 58.0556 79.2677 58.0616L79.5367 57.3082ZM85.4796 59.4385L79.5372 57.3084L79.2672 58.0614L85.2096 60.1916L85.4796 59.4385ZM85.5163 59.4521C85.5041 59.4474 85.4917 59.4429 85.4793 59.4385L85.2099 60.1917C85.2171 60.1943 85.2244 60.197 85.2316 60.1997L85.5163 59.4521ZM85.5412 59.4618C85.533 59.4585 85.5248 59.4553 85.5165 59.4522L85.2315 60.1997C85.2364 60.2016 85.2414 60.2035 85.2463 60.2055L85.5412 59.4618ZM104.826 66.4388L85.5299 59.4575L85.2577 60.2098L104.554 67.1911L104.826 66.4388ZM111.986 75.0447C111.332 71.0973 108.589 67.7996 104.826 66.4388L104.554 67.1911C108.045 68.4535 110.59 71.5134 111.196 75.1754L111.986 75.0447ZM113.985 87.1177L111.986 75.0447L111.196 75.1754L113.196 87.2484L113.985 87.1177ZM112.628 92.0301C113.782 90.6689 114.277 88.8779 113.985 87.1176L113.196 87.2484C113.449 88.7768 113.02 90.3308 112.017 91.5127L112.628 92.0301ZM108.003 94.1721C109.788 94.1721 111.474 93.3913 112.628 92.0301L112.017 91.5127C111.015 92.6946 109.553 93.3721 108.003 93.3721V94.1721ZM67.8678 94.1721H108.003V93.3721H67.8678V94.1721ZM67.8582 94.1721L67.8667 94.1721L67.8689 93.3721L67.8604 93.3721L67.8582 94.1721ZM67.8368 94.1723L67.8626 94.1721L67.856 93.3721L67.8302 93.3723L67.8368 94.1723ZM27.6644 94.1723H67.8335V93.3723H27.6644V94.1723ZM23.0396 92.0305C24.1939 93.3914 25.8801 94.1723 27.6644 94.1723V93.3723C26.1151 93.3723 24.652 92.6948 23.6497 91.513L23.0396 92.0305ZM21.6819 87.1179C21.3903 88.8788 21.8854 90.6695 23.0395 92.0305L23.6497 91.5131C22.6475 90.3313 22.218 88.7776 22.4711 87.2486L21.6819 87.1179ZM23.6812 75.0449L21.6819 87.1179L22.4711 87.2486L24.4704 75.1756L23.6812 75.0449ZM30.8407 66.4389C27.0781 67.7996 24.3348 71.0973 23.6812 75.0449L24.4704 75.1756C25.0768 71.5134 27.6223 68.4535 31.1128 67.1913L30.8407 66.4389ZM50.145 59.4547L30.8407 66.439L31.1129 67.1912L50.4172 60.207L50.145 59.4547ZM50.1886 59.4384C50.1707 59.4448 50.1529 59.4515 50.1351 59.4584L50.427 60.2033C50.4373 60.1992 50.4479 60.1953 50.4586 60.1915L50.1886 59.4384ZM56.131 57.3082L50.1886 59.4384L50.4586 60.1915L56.401 58.0613L56.131 57.3082ZM56.2677 57.2647C56.2213 57.2776 56.1758 57.2922 56.1312 57.3081L56.4008 58.0614C56.428 58.0516 56.4552 58.043 56.4823 58.0354L56.2677 57.2647ZM55.975 55.4263V57.6501H56.775V55.4263H55.975ZM55.6972 55.4425C55.8455 55.5427 55.9942 55.6459 56.1426 55.7519L56.6074 55.1007C56.4534 54.9908 56.2991 54.8836 56.1449 54.7795L55.6972 55.4425ZM55.6482 55.409C55.6641 55.42 55.6806 55.4314 55.6979 55.443L56.1441 54.779C56.1314 54.7704 56.1185 54.7616 56.1051 54.7523L55.6482 55.409ZM55.6135 55.3846L55.647 55.4081L56.1063 54.7531L56.0728 54.7296L55.6135 55.3846ZM55.5915 55.3691L55.6123 55.3837L56.074 54.7304L56.0532 54.7158L55.5915 55.3691ZM55.5525 55.3415L55.5916 55.3691L56.0532 54.7157L56.0142 54.6881L55.5525 55.3415ZM47.494 38.6327C47.4995 38.8827 47.5859 41.7706 48.6275 45.2337C49.6676 48.692 51.6762 52.776 55.5626 55.3484L56.0041 54.6813C52.3387 52.2551 50.4077 48.375 49.3936 45.0032C48.3809 41.6362 48.2985 38.8278 48.2938 38.615L47.494 38.6327ZM47.4936 38.5895C47.4936 38.6046 47.4938 38.6192 47.494 38.6301L48.2939 38.6176C48.2937 38.6056 48.2936 38.5973 48.2936 38.5895H47.4936ZM47.4936 36.1267V38.5895H48.2936V36.1267H47.4936ZM46.0073 32.0472C46.6116 32.7997 47.37 34.127 47.4943 36.1512L48.2928 36.1022C48.1569 33.888 47.3221 32.4069 46.6311 31.5463L46.0073 32.0472ZM43.8783 25.9578C43.8783 28.1743 44.6336 30.3367 46.0073 32.0472L46.631 31.5462C45.3729 29.9796 44.6783 27.9945 44.6783 25.9578H43.8783ZM43.8783 17.7953V25.9578H44.6783V17.7953H43.8783ZM59.5969 2.07656C50.9294 2.07656 43.8783 9.12744 43.8783 17.7953H44.6783C44.6783 9.56927 51.3712 2.87656 59.5969 2.87656V2.07656ZM80.3986 2.07656H59.5969V2.87656H80.3986V2.07656ZM80.7707 2.11241C80.648 2.0885 80.5235 2.07656 80.3986 2.07656V2.87656C80.4725 2.87656 80.5457 2.88361 80.6177 2.89765L80.7707 2.11241ZM85.6568 5.31976C84.7983 3.62899 83.1192 2.56895 80.7706 2.11238L80.6179 2.89768C82.8115 3.32412 84.2315 4.27967 84.9435 5.68195L85.6568 5.31976ZM86.1514 8.81601C86.3027 7.84389 86.2911 6.5691 85.6568 5.31977L84.9435 5.68193C85.4776 6.73394 85.4961 7.82459 85.3609 8.69297L86.1514 8.81601ZM50.5558 64.4331L47.8364 69.8865L48.5523 70.2435L51.2717 64.7901L50.5558 64.4331ZM58.7655 78.0572L51.2642 64.4188L50.5633 64.8043L58.0645 78.4428L58.7655 78.0572ZM58.7848 78.091C58.7782 78.0799 58.7718 78.0687 58.7655 78.0573L58.0644 78.4427C58.0751 78.462 58.086 78.4811 58.0972 78.5L58.7848 78.091ZM62.3383 84.5511L58.7915 78.1028L58.0905 78.4883L61.6374 84.9367L62.3383 84.5511ZM51.6108 75.7932L61.7178 85.0391L62.2578 84.4488L52.1507 75.2029L51.6108 75.7932ZM53.1519 72.2092L51.5264 75.3124L52.2351 75.6836L53.8606 72.5804L53.1519 72.2092ZM53.1217 71.0878C53.3257 71.4313 53.3371 71.8557 53.1519 72.2091L53.8605 72.5805C54.1748 71.9807 54.1551 71.2611 53.8095 70.6793L53.1217 71.0878ZM52.1511 70.526C52.5504 70.5322 52.9178 70.7449 53.1218 71.088L53.8094 70.6791C53.4634 70.0972 52.8403 69.7367 52.1636 69.7261L52.1511 70.526ZM48.1882 70.4649L52.1512 70.526L52.1635 69.7261L48.2005 69.665L48.1882 70.4649ZM63.0665 69.7226L62.5109 70.4764L63.1549 70.951L63.7105 70.1972L63.0665 69.7226ZM62.5114 70.4757C62.5078 70.4806 62.5043 70.4854 62.501 70.49L63.1483 70.9601C63.1505 70.957 63.1525 70.9543 63.1544 70.9517L62.5114 70.4757ZM62.5022 70.4883L59.6371 74.3904L60.2819 74.8638L63.147 70.9617L62.5022 70.4883ZM60.31 74.4343L53.4305 61.9265L52.7295 62.3121L59.609 74.8199L60.31 74.4343ZM53.215 62.4958L56.7123 61.2422L56.4424 60.4892L52.9451 61.7428L53.215 62.4958ZM56.3551 61.1983L62.1912 65.0982L62.6357 64.433L56.7996 60.5331L56.3551 61.1983ZM62.1879 65.0959L65.3773 67.2741L65.8285 66.6134L62.6391 64.4353L62.1879 65.0959ZM65.2805 66.707L63.0661 69.7232L63.7109 70.1966L65.9254 67.1805L65.2805 66.707ZM73.1918 70.5263C73.1866 70.5189 73.1813 70.5118 73.1763 70.5049L72.5312 70.9781C72.5345 70.9825 72.5376 70.9868 72.5405 70.9908L73.1918 70.5263ZM73.1762 70.5047L70.3876 66.7071L69.7428 67.1806L72.5314 70.9782L73.1762 70.5047ZM70.2908 67.2742L73.4939 65.0867L73.0427 64.426L69.8396 66.6135L70.2908 67.2742ZM73.4905 65.0889L79.3127 61.1984L78.8683 60.5333L73.0461 64.4238L73.4905 65.0889ZM78.9555 61.2424L82.4526 62.4962L82.7226 61.7431L79.2255 60.4893L78.9555 61.2424ZM82.2371 61.9269L75.3571 74.4356L76.058 74.8211L82.9381 62.3124L82.2371 61.9269ZM76.03 74.3916L73.1886 70.5218L72.5437 70.9953L75.3851 74.8651L76.03 74.3916ZM70.0218 71.4472L68.1598 68.9113L67.515 69.3848L69.377 71.9207L70.0218 71.4472ZM69.3711 71.4554L68.0883 73.2976L68.7448 73.7548L70.0276 71.9125L69.3711 71.4554ZM68.0883 73.2975C67.8004 73.7108 67.6838 74.2197 67.7626 74.7172L68.5527 74.5921C68.5062 74.2984 68.5751 73.9983 68.7447 73.7549L68.0883 73.2975ZM67.7626 74.7174L69.4493 85.348L70.2394 85.2226L68.5527 74.592L67.7626 74.7174ZM69.4939 85.0926L67.4827 88.7494L68.1837 89.1349L70.1948 85.4781L69.4939 85.0926ZM68.1837 88.7494L66.1991 85.1413L65.4981 85.5268L67.4827 89.1349L68.1837 88.7494ZM66.2437 85.3967L67.9381 74.7174L67.1479 74.592L65.4535 85.2713L66.2437 85.3967ZM67.938 74.7174C68.0171 74.2195 67.9002 73.7109 67.6124 73.2976L66.9559 73.7548C67.1257 73.9986 67.1946 74.2985 67.1479 74.5919L67.938 74.7174ZM67.6124 73.2976L66.3136 71.4324L65.6571 71.8896L66.9559 73.7548L67.6124 73.2976ZM66.3074 71.8983L68.1594 69.3854L67.5154 68.9108L65.6634 71.4237L66.3074 71.8983ZM63.7243 74.0643L61.286 77.385L61.9309 77.8585L64.3692 74.5378L63.7243 74.0643ZM61.2579 77.8145L63.0627 81.0963L63.7637 80.7108L61.9589 77.429L61.2579 77.8145ZM63.9888 74.7225L63.0182 80.8409L63.8083 80.9662L64.779 74.8479L63.9888 74.7225ZM63.7185 74.5296L64.0556 75.0138L64.7121 74.5566L64.375 74.0724L63.7185 74.5296ZM72.6751 80.7926L71.712 74.7227L70.9219 74.8481L71.8849 80.918L72.6751 80.7926ZM71.6451 75.014L71.9663 74.5529L71.3098 74.0957L70.9887 74.5568L71.6451 75.014ZM73.5823 76.2964L71.9605 74.0876L71.3156 74.561L72.9375 76.7698L73.5823 76.2964ZM74.3811 77.3843L73.5823 76.2964L72.9375 76.7698L73.7362 77.8577L74.3811 77.3843ZM72.6305 81.0481L74.4091 77.8138L73.7081 77.4283L71.9295 80.6626L72.6305 81.0481ZM68.0564 64.9921L76.6947 59.2199L76.2502 58.5547L67.612 64.327L68.0564 64.9921ZM58.9727 59.2192L67.612 64.9921L68.0564 64.327L59.4172 58.554L58.9727 59.2192ZM58.7949 57.7908V58.8866H59.5949V57.7908H58.7949ZM66.9148 60.8691C65.7448 60.8692 64.4065 60.4214 63.0764 59.7579C61.7532 59.0979 60.4746 58.243 59.4334 57.4696L58.9564 58.1119C60.0187 58.9009 61.3389 59.7852 62.7193 60.4738C64.0927 61.1589 65.5626 61.6692 66.9148 61.6691L66.9148 60.8691ZM66.9312 60.8691H66.9148V61.6691H66.9312V60.8691ZM76.2054 57.4039C71.9443 61.2242 67.7567 60.9598 66.9762 60.8716L66.8863 61.6666C67.7994 61.7698 72.2487 62.0258 76.7395 57.9995L76.2054 57.4039ZM76.8724 58.8873V57.7017H76.0724V58.8873H76.8724ZM74.0316 84.9345L77.5711 78.4991L76.8701 78.1135L73.3306 84.5489L74.0316 84.9345ZM83.516 75.2027L73.4111 84.4466L73.9511 85.0368L84.0559 75.793L83.516 75.2027ZM81.8063 72.5802L83.4316 75.6834L84.1403 75.3123L82.515 72.209L81.8063 72.5802ZM81.8576 70.679C81.5117 71.261 81.4923 71.9804 81.8063 72.5801L82.515 72.2091C82.3298 71.8553 82.3413 71.431 82.5453 71.0877L81.8576 70.679ZM83.5034 69.7259C82.8269 69.7365 82.2035 70.0967 81.8576 70.6791L82.5454 71.0876C82.7491 70.7447 83.1165 70.532 83.516 70.5258L83.5034 69.7259ZM87.4662 69.6648L83.5035 69.7259L83.5159 70.5258L87.4785 70.4648L87.4662 69.6648ZM84.3957 64.7913L87.1144 70.2433L87.8303 69.8863L85.1116 64.4343L84.3957 64.7913ZM77.6035 78.4429L85.1042 64.8056L84.4032 64.42L76.9025 78.0574L77.6035 78.4429ZM77.5628 78.5134C77.5769 78.4902 77.5905 78.4667 77.6036 78.4428L76.9025 78.0575C76.8947 78.0716 76.8867 78.0855 76.8784 78.0992L77.5628 78.5134ZM51.3932 36.1163L51.3934 36.089L50.5935 36.0821L50.5932 36.1094L51.3932 36.1163ZM51.3932 38.5671V36.1129H50.5932V38.5671H51.3932ZM57.7202 52.0999C54.7877 50.159 53.2017 46.8976 52.3496 44.0218C51.4999 41.1539 51.3991 38.7331 51.393 38.5535L50.5935 38.5807C50.6008 38.795 50.706 41.2906 51.5826 44.2491C52.4567 47.1996 54.1171 50.6745 57.2786 52.767L57.7202 52.0999ZM57.8493 52.1894C57.8121 52.1629 57.7703 52.1332 57.7207 52.1002L57.2782 52.7667C57.3159 52.7918 57.3482 52.8147 57.3855 52.8412L57.8493 52.1894ZM57.8858 52.2151L57.8477 52.1883L57.3871 52.8424L57.4253 52.8692L57.8858 52.2151ZM59.3682 53.297C58.88 52.9135 58.3792 52.5479 57.8793 52.2106L57.4318 52.8737C57.9152 53.1999 58.4004 53.5541 58.874 53.9261L59.3682 53.297ZM66.8754 57.1449C66.1542 57.1634 65.0731 56.836 63.745 56.1632C62.4315 55.4977 60.9247 54.5194 59.3682 53.297L58.8741 53.9261C60.4617 55.173 62.0128 56.1824 63.3835 56.8768C64.7395 57.5638 65.9686 57.9684 66.8959 57.9447L66.8754 57.1449ZM67.2171 57.1658C67.1045 57.149 66.9898 57.1418 66.8746 57.145L66.8966 57.9447C66.9637 57.9428 67.0316 57.947 67.0991 57.9571L67.2171 57.1658ZM75.1886 54.0281C71.1522 57.6772 67.3389 57.1829 67.2137 57.1654L67.1024 57.9576C67.3647 57.9944 71.4509 58.4856 75.7251 54.6216L75.1886 54.0281ZM77.7724 51.9959C76.8373 52.6401 75.9679 53.3238 75.1886 54.0281L75.725 54.6216C76.4762 53.9427 77.3176 53.2807 78.2262 52.6548L77.7724 51.9959ZM77.8549 51.9378L77.769 51.9983L78.2296 52.6524L78.3156 52.5919L77.8549 51.9378ZM78.0365 51.8119C77.9738 51.8541 77.9125 51.8973 77.855 51.9377L78.3155 52.592C78.374 52.5507 78.4287 52.5123 78.4835 52.4754L78.0365 51.8119ZM84.2941 38.1856C83.4605 47.2976 79.5914 50.7676 78.037 51.8116L78.483 52.4757C80.2379 51.2971 84.2353 47.6096 85.0908 38.2585L84.2941 38.1856ZM84.6926 37.8221H84.6924V38.6221H84.6926V37.8221ZM84.2926 25.5205V38.2221H85.0926V25.5205H84.2926ZM80.2306 20.9092C83.6246 22.1613 84.2255 25.1339 84.2976 25.5838L85.0876 25.4571C85.0004 24.9138 84.3158 21.5635 80.5075 20.1587L80.2306 20.9092ZM73.0332 18.3827L80.2365 20.9114L80.5015 20.1565L73.2982 17.6278L73.0332 18.3827ZM70.226 18.4178C71.1263 18.0756 72.1236 18.063 73.033 18.3826L73.2983 17.6279C72.2107 17.2457 71.0188 17.2606 69.9418 17.67L70.226 18.4178ZM65.4192 20.1516C66.7101 19.7376 68.7495 18.9787 70.226 18.4178L69.9419 17.67C68.4631 18.2317 66.4427 18.9832 65.1748 19.3898L65.4192 20.1516ZM62.9833 20.5301C63.8157 20.5301 64.6352 20.4029 65.4191 20.1516L65.1749 19.3898C64.471 19.6155 63.734 19.7301 62.9833 19.7301V20.5301ZM56.2545 20.5301H62.9833V19.7301H56.2545V20.5301ZM51.3822 25.5376C52.3775 21.4217 55.759 20.6288 56.3274 20.5233L56.1815 19.7368C55.5119 19.8609 51.7136 20.7635 50.6047 25.3496L51.3822 25.5376ZM51.3935 36.0855V25.4436H50.5935V36.0855H51.3935ZM88.1346 29.8059C88.5409 29.1349 88.7576 28.3769 88.7576 27.609H87.9576C87.9576 28.2257 87.7836 28.8411 87.4503 29.3915L88.1346 29.8059ZM87.3924 25.4147V29.5987H88.1924V25.4147H87.3924ZM87.3921 25.3911C87.3923 25.3995 87.3924 25.4078 87.3924 25.4161L88.1924 25.4133C88.1924 25.3993 88.1922 25.3853 88.1918 25.3714L87.3921 25.3911ZM87.3856 25.2904C87.3892 25.3236 87.3913 25.3567 87.3921 25.3898L88.1919 25.3727C88.1907 25.3161 88.187 25.2598 88.1808 25.2036L87.3856 25.2904ZM81.2898 17.9957C86.7528 20.0025 87.3647 25.098 87.3855 25.29L88.1809 25.204C88.153 24.9459 87.4841 19.4188 81.5657 17.2447L81.2898 17.9957ZM81.2717 17.9892L81.2926 17.9967L81.5629 17.2437L81.5419 17.2362L81.2717 17.9892ZM74.06 15.4575L81.2743 17.9901L81.5393 17.2353L74.325 14.7026L74.06 15.4575ZM71.6778 15.052C72.4835 15.052 73.2897 15.187 74.06 15.4575L74.325 14.7026C73.4686 14.402 72.5728 14.252 71.6778 14.252V15.052ZM69.4389 15.4092C70.1646 15.1712 70.9209 15.052 71.6778 15.052V14.252C70.837 14.252 69.9965 14.3844 69.1895 14.6491L69.4389 15.4092ZM69.1251 15.5201C69.2289 15.4807 69.3335 15.4437 69.4387 15.4093L69.1897 14.649C69.0727 14.6873 68.9564 14.7284 68.841 14.7723L69.1251 15.5201ZM64.6631 17.1381C65.6481 16.8145 67.1843 16.2574 69.1251 15.5201L68.841 14.7723C66.9027 15.5086 65.3804 16.0604 64.4134 16.378L64.6631 17.1381ZM64.4726 17.1999C64.5337 17.1803 64.5972 17.1597 64.6631 17.1381L64.4135 16.378C64.3492 16.3991 64.2875 16.4192 64.2284 16.4381L64.4726 17.1999ZM64.2924 17.2538C64.3528 17.237 64.4129 17.2191 64.4726 17.1999L64.2284 16.4381C64.1787 16.454 64.1288 16.469 64.0785 16.4829L64.2924 17.2538ZM63.7195 17.3758C63.9132 17.3467 64.1045 17.306 64.2924 17.2538L64.0785 16.4829C63.922 16.5264 63.7625 16.5603 63.6006 16.5847L63.7195 17.3758ZM62.9831 17.4304C63.2312 17.4304 63.4772 17.4122 63.7195 17.3758L63.6006 16.5847C63.3983 16.615 63.192 16.6304 62.9831 16.6304V17.4304ZM56.1294 17.4304H62.9831V16.6304H56.1294V17.4304ZM55.9809 17.4399C56.0305 17.4336 56.0802 17.4304 56.1294 17.4304V16.6304C56.0458 16.6304 55.9623 16.6358 55.8798 16.6463L55.9809 17.4399ZM48.3212 25.0159C49.8174 18.3096 55.7506 17.4698 55.9818 17.4398L55.8789 16.6464C55.5855 16.6845 49.1555 17.6027 47.5404 24.8417L48.3212 25.0159ZM48.2936 25.2663C48.2936 25.1822 48.3028 25.0982 48.3212 25.0158L47.5404 24.8417C47.5093 24.981 47.4936 25.1233 47.4936 25.2663H48.2936ZM48.2936 28.4555V25.2663H47.4936V28.4555H48.2936ZM46.9776 25.958C46.9776 26.8789 47.1675 27.7846 47.5264 28.6143L48.2607 28.2967C47.945 27.5669 47.7776 26.7693 47.7776 25.958H46.9776ZM46.9776 17.7957V25.958H47.7776V17.7957H46.9776ZM59.5965 5.17658C52.6383 5.17658 46.9776 10.8372 46.9776 17.7957H47.7776C47.7776 11.2791 53.0801 5.97658 59.5965 5.97658V5.17658ZM80.2422 5.17658H59.5965V5.97658H80.2422V5.17658ZM82.8848 6.70842C82.6343 6.22517 82.1948 5.89222 81.7398 5.66112C81.2817 5.4284 80.7715 5.28037 80.3255 5.18536L80.1588 5.96781C80.5676 6.05488 81.0041 6.18472 81.3775 6.37439C81.7542 6.56568 82.031 6.79965 82.1746 7.07659L82.8848 6.70842ZM82.8202 9.28328C82.838 9.24745 82.9873 8.89023 83.0709 8.41698C83.1538 7.94796 83.1861 7.28941 82.8848 6.70836L82.1746 7.07665C82.3558 7.42606 82.3546 7.87333 82.2831 8.27779C82.2124 8.67801 82.0866 8.96192 82.1039 8.92716L82.8202 9.28328ZM82.8282 10.2619C82.6787 9.95024 82.6771 9.58802 82.824 9.27539L82.1 8.93506C81.8506 9.46568 81.8536 10.0799 82.107 10.6079L82.8282 10.2619ZM83.5957 10.8818C83.2595 10.8009 82.9777 10.5732 82.8282 10.2618L82.107 10.6081C82.3607 11.1364 82.8387 11.5224 83.4085 11.6596L83.5957 10.8818ZM88.7516 16.5493C88.644 15.9215 87.8001 11.8939 83.5957 10.8818L83.4085 11.6596C87.0953 12.5471 87.8609 16.088 87.9631 16.6845L88.7516 16.5493ZM88.7574 27.609V16.6169H87.9574V27.609H88.7574ZM88.3576 27.209H88.3574V28.009H88.3576V27.209ZM27.6646 90.2728C27.0273 90.2728 26.4259 89.9943 26.0139 89.5083L25.4037 90.0256C25.9677 90.691 26.7923 91.0728 27.6646 91.0728V90.2728ZM63.8778 90.2728H27.6646V91.0728H63.8778V90.2728ZM48.6384 77.2744L63.6078 90.968L64.1478 90.3777L49.1784 76.6841L48.6384 77.2744ZM48.2273 74.9311C47.8167 75.715 47.9856 76.6772 48.6384 77.2744L49.1784 76.6841C48.7935 76.332 48.6938 75.7645 48.936 75.3023L48.2273 74.9311ZM49.2385 73.0005L48.2273 74.9311L48.936 75.3023L49.9472 73.3717L49.2385 73.0005ZM45.679 73.5258L49.5867 73.5861L49.599 72.7862L45.6914 72.7258L45.679 73.5258ZM44.043 72.5893C44.3911 73.162 45.009 73.5156 45.6791 73.5258L45.6912 72.7258C45.2961 72.7199 44.9318 72.5113 44.7266 72.1738L44.043 72.5893ZM43.964 70.7059C43.6649 71.3057 43.6947 72.0167 44.0431 72.5894L44.7266 72.1737C44.5211 71.8358 44.5035 71.4167 44.6799 71.0629L43.964 70.7059ZM47.3722 63.8714L43.964 70.7059L44.68 71.0629L48.0881 64.2284L47.3722 63.8714ZM32.1674 70.1056L47.8662 64.426L47.5941 63.6737L31.8952 69.3533L32.1674 70.1056ZM27.5287 75.6817C27.9521 73.124 29.7298 70.9874 32.1674 70.1056L31.8952 69.3533C29.1855 70.3335 27.2102 72.7079 26.7395 75.551L27.5287 75.6817ZM25.5294 87.7547L27.5287 75.6817L26.7395 75.551L24.7402 87.624L25.5294 87.7547ZM26.0139 89.5082C25.6018 89.0223 25.4254 88.3836 25.5294 87.7546L24.7402 87.6241C24.5978 88.4847 24.8396 89.3603 25.4037 90.0256L26.0139 89.5082ZM109.654 89.508C109.241 89.9942 108.64 90.2726 108.003 90.2726V91.0726C108.875 91.0726 109.699 90.6908 110.264 90.0255L109.654 89.508ZM110.138 87.7545C110.242 88.3832 110.066 89.0219 109.654 89.508L110.264 90.0254C110.828 89.36 111.07 88.4844 110.928 87.6239L110.138 87.7545ZM108.139 75.6815L110.138 87.7545L110.928 87.6238L108.928 75.5508L108.139 75.6815ZM103.5 70.1054C105.938 70.9872 107.716 73.1242 108.139 75.6815L108.928 75.5509C108.458 72.7081 106.482 70.3333 103.773 69.3531L103.5 70.1054ZM87.8014 64.4258L103.5 70.1054L103.773 69.3531L88.0735 63.6736L87.8014 64.4258ZM91.7037 70.7061L88.2954 63.8712L87.5795 64.2282L90.9878 71.0631L91.7037 70.7061ZM91.6248 72.5894C91.9727 72.0168 92.0027 71.306 91.7038 70.7062L90.9878 71.063C91.164 71.4168 91.1464 71.836 90.9411 72.174L91.6248 72.5894ZM89.9886 73.5259C90.659 73.5158 91.2763 73.1618 91.6246 72.5897L90.9413 72.1737C90.7356 72.5115 90.3715 72.72 89.9765 72.726L89.9886 73.5259ZM86.0811 73.5861L89.9888 73.5259L89.9764 72.726L86.0688 72.7862L86.0811 73.5861ZM87.4405 74.9311L86.4293 73.0005L85.7206 73.3717L86.7318 75.3023L87.4405 74.9311ZM87.0291 77.2744C87.6824 76.6773 87.8513 75.7151 87.4405 74.931L86.7318 75.3023C86.9741 75.7647 86.8745 76.3319 86.4893 76.684L87.0291 77.2744ZM72.0598 90.9678L87.0292 77.2743L86.4892 76.6841L71.5198 90.3775L72.0598 90.9678ZM108.003 90.2726H71.7898V91.0726H108.003V90.2726Z" fill="white" mask="url(#path-13-inside-1_1631_9)"/>
<path d="M18.3333 66.4811C18.3333 65.1441 15.8104 63.9742 12.1101 63.4728C11.7737 59.796 10.5963 57.2891 9.25077 57.2891C7.9052 57.2891 6.72783 59.796 6.22324 63.4728C2.52293 63.8071 0 64.977 0 66.314C0 67.651 2.52293 68.8209 6.22324 69.3223C6.55963 72.9991 7.737 75.5061 9.08257 75.5061C10.4281 75.5061 11.6055 72.9991 12.1101 69.3223C15.6422 68.8209 18.3333 67.8182 18.3333 66.4811Z" fill="#FFE48F"/>
<path d="M155.333 87.1061C155.333 85.7691 152.81 84.5992 149.11 84.0978C148.774 80.421 147.596 77.9141 146.251 77.9141C144.905 77.9141 143.728 80.421 143.223 84.0978C139.523 84.4321 137 85.602 137 86.939C137 88.276 139.523 89.4459 143.223 89.9473C143.56 93.6241 144.737 96.1311 146.083 96.1311C147.428 96.1311 148.606 93.6241 149.11 89.9473C152.642 89.4459 155.333 88.4432 155.333 87.1061Z" fill="#9FADF0"/>
<path d="M34.3003 6.16718C34.3003 5.27014 32.6076 4.48522 30.125 4.14883C29.8993 1.68195 29.1093 0 28.2066 0C27.3038 0 26.5139 1.68195 26.1753 4.14883C23.6927 4.37309 22 5.158 22 6.05504C22 6.95209 23.6927 7.737 26.1753 8.0734C26.401 10.5403 27.1909 12.2222 28.0937 12.2222C28.9965 12.2222 29.7864 10.5403 30.125 8.0734C32.4947 7.737 34.3003 7.06422 34.3003 6.16718Z" fill="#9FADF0"/>
<rect x="122" y="37.7305" width="6.90644" height="6.90644" transform="rotate(-45 122 37.7305)" fill="#E02287" fill-opacity="0.6"/>
</svg>
