<svg width="109" height="102" viewBox="0 0 109 102" fill="none" xmlns="http://www.w3.org/2000/svg">
<mask id="path-1-inside-1_1631_11" fill="white">
<path d="M99.2933 49.0725L83.9507 29.1421C83.3828 28.405 82.3471 28.2232 81.5617 28.7225L71.656 35.0224H58.7367C58.5695 35.0224 58.4031 35.058 58.2422 35.1049L48.2253 37.9883L37.8314 35.1454L27.7319 28.7225C26.9598 28.2316 25.9429 28.398 25.3687 29.11L8.39874 50.13C7.7889 50.8853 7.8896 51.9882 8.62533 52.6211L17.5198 60.2756L25.4995 71.029C23.1658 73.5152 23.2112 77.4365 25.6394 79.8654C26.7157 80.941 28.0844 81.5488 29.4922 81.69C29.4432 82.0089 29.418 82.3327 29.418 82.6614C29.418 84.3581 30.0789 85.9533 31.2783 87.1527C32.4784 88.3528 34.0737 89.0137 35.7703 89.0137C35.7934 89.0137 35.8158 89.0123 35.8382 89.0116C35.8375 89.055 35.8354 89.0977 35.8354 89.141C35.8354 90.8377 36.4963 92.4329 37.6957 93.633C38.8958 94.8324 40.491 95.4933 42.1877 95.4933C42.5227 95.4933 42.8542 95.466 43.1794 95.4157C43.3171 96.8284 43.9263 98.2033 45.0061 99.2832C46.244 100.522 47.8707 101.141 49.4974 101.141C51.1241 101.141 52.7508 100.522 53.9894 99.2832L54.9608 98.3117L55.3685 98.6404C56.5966 99.8301 58.1912 100.425 59.7857 100.425C61.4124 100.425 63.0391 99.8056 64.277 98.567C65.5407 97.3033 66.1597 95.6353 66.1338 93.9757C67.7927 94.0009 69.4614 93.3826 70.7251 92.1196C71.9875 90.8566 72.6064 89.19 72.5819 87.5311C74.31 87.5584 75.9493 86.8947 77.1725 85.6715C78.4363 84.4077 79.0552 82.7398 79.0293 81.0802C80.6896 81.1054 82.3569 80.4871 83.6206 79.2234C85.7775 77.0666 86.0551 73.7327 84.4557 71.2716L90.282 59.0692L99.0415 51.5315C99.7654 50.9083 99.8759 49.8285 99.2933 49.0725ZM27.157 32.6173L34.4192 37.2351L18.6213 56.4816L12.2907 51.0328L27.157 32.6173ZM28.1816 73.4236L30.3734 71.2318C30.4398 71.1653 30.5097 71.1024 30.5811 71.0436C31.0098 70.694 31.5287 70.4856 32.0784 70.4359C32.0938 70.4345 32.1099 70.4345 32.1253 70.4338C32.2036 70.4275 32.2819 70.4233 32.361 70.424C33.1121 70.4345 33.81 70.7415 34.3276 71.2877C35.343 72.3612 35.2885 74.1152 34.2059 75.1979L32.0805 77.3232C31.0056 78.3981 29.2565 78.3981 28.1816 77.3232C27.1066 76.2476 27.1066 74.4985 28.1816 73.4236ZM33.8205 84.6106C33.2995 84.0902 33.0128 83.3979 33.0128 82.6614C33.0128 81.925 33.2995 81.2326 33.8205 80.7116L38.0705 76.4616C38.8846 75.6475 40.1644 75.4244 41.2051 75.9203C42.2779 76.4315 42.8814 77.596 42.7241 78.7674C42.6402 79.3926 42.3492 79.9815 41.903 80.4284L37.7202 84.6106C37.1991 85.1316 36.5068 85.4183 35.7703 85.4183C35.0339 85.4183 34.3415 85.1316 33.8205 84.6106ZM40.2379 91.0901C39.7168 90.5698 39.4301 89.8774 39.4301 89.141C39.4301 88.4046 39.7168 87.7122 40.2379 87.1912L44.4872 82.9412C45.3579 82.0712 46.7545 81.8838 47.8203 82.5041C48.7938 83.0706 49.3037 84.1825 49.1365 85.2903C49.0449 85.8995 48.7554 86.4723 48.3197 86.908L44.1375 91.0901C43.6165 91.6112 42.9241 91.8979 42.1877 91.8979C41.4512 91.8979 40.7589 91.6112 40.2379 91.0901ZM47.5476 96.741C46.4727 95.6661 46.4727 93.917 47.5476 92.842L49.7394 90.6502C49.8058 90.5838 49.8751 90.5216 49.9464 90.4628C49.9485 90.4614 49.9499 90.46 49.9513 90.4586C50.308 90.1691 50.7269 89.9754 51.1738 89.8907C51.1843 89.8893 51.1947 89.8879 51.2052 89.8865C51.2822 89.8726 51.3605 89.8614 51.4388 89.8544C51.4703 89.8516 51.5018 89.8516 51.5339 89.8495C51.5983 89.846 51.6619 89.8418 51.727 89.8425C52.4774 89.853 53.176 90.1593 53.6936 90.7062C53.7572 90.7733 53.8167 90.8433 53.8712 90.9153C54.6978 91.9958 54.5866 93.6008 53.5607 94.6275L51.4465 96.7417C50.3716 97.8166 48.6225 97.8159 47.5476 96.741ZM81.0785 76.6812C80.0035 77.7568 78.2544 77.7561 77.1795 76.6812C77.1404 76.642 77.0991 76.6057 77.0571 76.5714L65.4995 64.8921C64.8008 64.1864 63.663 64.1808 62.9573 64.8795C62.2516 65.5774 62.2461 66.7153 62.944 67.421L74.6268 79.2255C74.6282 79.2269 74.6296 79.2283 74.631 79.2297C75.706 80.3046 75.706 82.0544 74.631 83.1293C74.11 83.6503 73.4176 83.9371 72.6812 83.9371C71.9441 83.9371 71.2517 83.6503 70.7314 83.1293L62.916 75.2328C62.2181 74.5272 61.0802 74.5216 60.3746 75.2195C59.6689 75.9182 59.6633 77.0561 60.3613 77.7617L68.057 85.5372C68.0962 85.5862 68.1382 85.633 68.1829 85.6778C69.2579 86.7527 69.2579 88.5025 68.1829 89.5774C67.1073 90.6523 65.3575 90.6516 64.2826 89.5767L60.0172 85.2666C59.3185 84.5609 58.1807 84.5546 57.475 85.2533C56.7694 85.9512 56.7638 87.0891 57.4617 87.7948L61.6082 91.9839C61.6474 92.0329 61.6894 92.0804 61.7348 92.1252C62.8097 93.2001 62.8097 94.9499 61.7348 96.0248C60.6599 97.1004 58.9108 97.0997 57.8359 96.0248C57.7121 95.901 57.5666 95.8059 57.4282 95.6996C57.3107 95.6101 57.2799 95.5479 57.3386 95.4052C57.3981 95.2604 57.4869 95.1296 57.5463 94.9842C57.6121 94.8219 57.6652 94.6548 57.717 94.4869C57.9925 93.5987 58.0737 92.6434 57.9499 91.7217C57.7121 89.953 56.7393 88.357 55.265 87.3472C54.4685 86.8024 53.5467 86.445 52.5914 86.3107C53.0543 84.2686 52.4984 82.0544 51.0521 80.5263C49.8618 79.2688 48.2539 78.5632 46.5244 78.5394C46.4615 78.5387 46.3985 78.5387 46.3349 78.5394C46.3734 76.8889 45.7733 75.2489 44.6354 74.0467C43.4444 72.7893 41.8366 72.0836 40.1078 72.0598C39.5937 72.0528 39.0748 72.1074 38.5741 72.2228C38.3601 70.7338 37.6097 69.3561 36.4732 68.3707C35.3437 67.393 33.9233 66.8503 32.4106 66.8293C30.8182 66.8062 29.2537 67.3937 28.0711 68.4616L21.1229 59.0993L37.7453 38.8486L43.043 40.2976L36.1242 52.5064C35.2878 53.9827 35.0766 55.6962 35.5291 57.3313C35.9815 58.9671 37.0432 60.328 38.5195 61.1645C38.6118 61.2169 38.7049 61.2666 38.7993 61.3141C38.8063 61.3176 38.8133 61.3211 38.8209 61.3246C39.0692 61.4484 39.3245 61.5547 39.5833 61.6442C40.7883 62.0618 42.0898 62.1072 43.3451 61.7603C44.9802 61.3078 46.3412 60.2455 47.1776 58.7699L51.6738 50.8356L59.7018 51.4049L81.0791 72.7816C82.1534 73.8572 82.1534 75.6063 81.0785 76.6812ZM81.8233 68.442L61.7691 48.3885C61.7313 48.3501 61.6915 48.3137 61.6502 48.2794C61.3614 48.0389 61.0033 47.8934 60.6256 47.8668L50.7961 47.1696C50.1163 47.1227 49.4408 47.4843 49.1051 48.0766L44.0501 56.9977C43.6871 57.6383 43.0961 58.0992 42.3863 58.2957C41.6771 58.4922 40.933 58.3999 40.2917 58.0369C39.6511 57.674 39.1902 57.083 38.9937 56.3732C38.7972 55.6633 38.8888 54.9192 39.2525 54.2786L46.0006 42.3691L48.7351 41.5824C48.7533 41.5768 48.7708 41.5698 48.7889 41.5642L58.9947 38.6171H71.3259L86.7202 58.1866L81.8233 68.442ZM89.0749 55.3654L74.8388 37.2582L82.1044 32.6375L95.407 49.9167L89.0749 55.3654Z"/>
</mask>
<path d="M99.2933 49.0725L83.9507 29.1421C83.3828 28.405 82.3471 28.2232 81.5617 28.7225L71.656 35.0224H58.7367C58.5695 35.0224 58.4031 35.058 58.2422 35.1049L48.2253 37.9883L37.8314 35.1454L27.7319 28.7225C26.9598 28.2316 25.9429 28.398 25.3687 29.11L8.39874 50.13C7.7889 50.8853 7.8896 51.9882 8.62533 52.6211L17.5198 60.2756L25.4995 71.029C23.1658 73.5152 23.2112 77.4365 25.6394 79.8654C26.7157 80.941 28.0844 81.5488 29.4922 81.69C29.4432 82.0089 29.418 82.3327 29.418 82.6614C29.418 84.3581 30.0789 85.9533 31.2783 87.1527C32.4784 88.3528 34.0737 89.0137 35.7703 89.0137C35.7934 89.0137 35.8158 89.0123 35.8382 89.0116C35.8375 89.055 35.8354 89.0977 35.8354 89.141C35.8354 90.8377 36.4963 92.4329 37.6957 93.633C38.8958 94.8324 40.491 95.4933 42.1877 95.4933C42.5227 95.4933 42.8542 95.466 43.1794 95.4157C43.3171 96.8284 43.9263 98.2033 45.0061 99.2832C46.244 100.522 47.8707 101.141 49.4974 101.141C51.1241 101.141 52.7508 100.522 53.9894 99.2832L54.9608 98.3117L55.3685 98.6404C56.5966 99.8301 58.1912 100.425 59.7857 100.425C61.4124 100.425 63.0391 99.8056 64.277 98.567C65.5407 97.3033 66.1597 95.6353 66.1338 93.9757C67.7927 94.0009 69.4614 93.3826 70.7251 92.1196C71.9875 90.8566 72.6064 89.19 72.5819 87.5311C74.31 87.5584 75.9493 86.8947 77.1725 85.6715C78.4363 84.4077 79.0552 82.7398 79.0293 81.0802C80.6896 81.1054 82.3569 80.4871 83.6206 79.2234C85.7775 77.0666 86.0551 73.7327 84.4557 71.2716L90.282 59.0692L99.0415 51.5315C99.7654 50.9083 99.8759 49.8285 99.2933 49.0725ZM27.157 32.6173L34.4192 37.2351L18.6213 56.4816L12.2907 51.0328L27.157 32.6173ZM28.1816 73.4236L30.3734 71.2318C30.4398 71.1653 30.5097 71.1024 30.5811 71.0436C31.0098 70.694 31.5287 70.4856 32.0784 70.4359C32.0938 70.4345 32.1099 70.4345 32.1253 70.4338C32.2036 70.4275 32.2819 70.4233 32.361 70.424C33.1121 70.4345 33.81 70.7415 34.3276 71.2877C35.343 72.3612 35.2885 74.1152 34.2059 75.1979L32.0805 77.3232C31.0056 78.3981 29.2565 78.3981 28.1816 77.3232C27.1066 76.2476 27.1066 74.4985 28.1816 73.4236ZM33.8205 84.6106C33.2995 84.0902 33.0128 83.3979 33.0128 82.6614C33.0128 81.925 33.2995 81.2326 33.8205 80.7116L38.0705 76.4616C38.8846 75.6475 40.1644 75.4244 41.2051 75.9203C42.2779 76.4315 42.8814 77.596 42.7241 78.7674C42.6402 79.3926 42.3492 79.9815 41.903 80.4284L37.7202 84.6106C37.1991 85.1316 36.5068 85.4183 35.7703 85.4183C35.0339 85.4183 34.3415 85.1316 33.8205 84.6106ZM40.2379 91.0901C39.7168 90.5698 39.4301 89.8774 39.4301 89.141C39.4301 88.4046 39.7168 87.7122 40.2379 87.1912L44.4872 82.9412C45.3579 82.0712 46.7545 81.8838 47.8203 82.5041C48.7938 83.0706 49.3037 84.1825 49.1365 85.2903C49.0449 85.8995 48.7554 86.4723 48.3197 86.908L44.1375 91.0901C43.6165 91.6112 42.9241 91.8979 42.1877 91.8979C41.4512 91.8979 40.7589 91.6112 40.2379 91.0901ZM47.5476 96.741C46.4727 95.6661 46.4727 93.917 47.5476 92.842L49.7394 90.6502C49.8058 90.5838 49.8751 90.5216 49.9464 90.4628C49.9485 90.4614 49.9499 90.46 49.9513 90.4586C50.308 90.1691 50.7269 89.9754 51.1738 89.8907C51.1843 89.8893 51.1947 89.8879 51.2052 89.8865C51.2822 89.8726 51.3605 89.8614 51.4388 89.8544C51.4703 89.8516 51.5018 89.8516 51.5339 89.8495C51.5983 89.846 51.6619 89.8418 51.727 89.8425C52.4774 89.853 53.176 90.1593 53.6936 90.7062C53.7572 90.7733 53.8167 90.8433 53.8712 90.9153C54.6978 91.9958 54.5866 93.6008 53.5607 94.6275L51.4465 96.7417C50.3716 97.8166 48.6225 97.8159 47.5476 96.741ZM81.0785 76.6812C80.0035 77.7568 78.2544 77.7561 77.1795 76.6812C77.1404 76.642 77.0991 76.6057 77.0571 76.5714L65.4995 64.8921C64.8008 64.1864 63.663 64.1808 62.9573 64.8795C62.2516 65.5774 62.2461 66.7153 62.944 67.421L74.6268 79.2255C74.6282 79.2269 74.6296 79.2283 74.631 79.2297C75.706 80.3046 75.706 82.0544 74.631 83.1293C74.11 83.6503 73.4176 83.9371 72.6812 83.9371C71.9441 83.9371 71.2517 83.6503 70.7314 83.1293L62.916 75.2328C62.2181 74.5272 61.0802 74.5216 60.3746 75.2195C59.6689 75.9182 59.6633 77.0561 60.3613 77.7617L68.057 85.5372C68.0962 85.5862 68.1382 85.633 68.1829 85.6778C69.2579 86.7527 69.2579 88.5025 68.1829 89.5774C67.1073 90.6523 65.3575 90.6516 64.2826 89.5767L60.0172 85.2666C59.3185 84.5609 58.1807 84.5546 57.475 85.2533C56.7694 85.9512 56.7638 87.0891 57.4617 87.7948L61.6082 91.9839C61.6474 92.0329 61.6894 92.0804 61.7348 92.1252C62.8097 93.2001 62.8097 94.9499 61.7348 96.0248C60.6599 97.1004 58.9108 97.0997 57.8359 96.0248C57.7121 95.901 57.5666 95.8059 57.4282 95.6996C57.3107 95.6101 57.2799 95.5479 57.3386 95.4052C57.3981 95.2604 57.4869 95.1296 57.5463 94.9842C57.6121 94.8219 57.6652 94.6548 57.717 94.4869C57.9925 93.5987 58.0737 92.6434 57.9499 91.7217C57.7121 89.953 56.7393 88.357 55.265 87.3472C54.4685 86.8024 53.5467 86.445 52.5914 86.3107C53.0543 84.2686 52.4984 82.0544 51.0521 80.5263C49.8618 79.2688 48.2539 78.5632 46.5244 78.5394C46.4615 78.5387 46.3985 78.5387 46.3349 78.5394C46.3734 76.8889 45.7733 75.2489 44.6354 74.0467C43.4444 72.7893 41.8366 72.0836 40.1078 72.0598C39.5937 72.0528 39.0748 72.1074 38.5741 72.2228C38.3601 70.7338 37.6097 69.3561 36.4732 68.3707C35.3437 67.393 33.9233 66.8503 32.4106 66.8293C30.8182 66.8062 29.2537 67.3937 28.0711 68.4616L21.1229 59.0993L37.7453 38.8486L43.043 40.2976L36.1242 52.5064C35.2878 53.9827 35.0766 55.6962 35.5291 57.3313C35.9815 58.9671 37.0432 60.328 38.5195 61.1645C38.6118 61.2169 38.7049 61.2666 38.7993 61.3141C38.8063 61.3176 38.8133 61.3211 38.8209 61.3246C39.0692 61.4484 39.3245 61.5547 39.5833 61.6442C40.7883 62.0618 42.0898 62.1072 43.3451 61.7603C44.9802 61.3078 46.3412 60.2455 47.1776 58.7699L51.6738 50.8356L59.7018 51.4049L81.0791 72.7816C82.1534 73.8572 82.1534 75.6063 81.0785 76.6812ZM81.8233 68.442L61.7691 48.3885C61.7313 48.3501 61.6915 48.3137 61.6502 48.2794C61.3614 48.0389 61.0033 47.8934 60.6256 47.8668L50.7961 47.1696C50.1163 47.1227 49.4408 47.4843 49.1051 48.0766L44.0501 56.9977C43.6871 57.6383 43.0961 58.0992 42.3863 58.2957C41.6771 58.4922 40.933 58.3999 40.2917 58.0369C39.6511 57.674 39.1902 57.083 38.9937 56.3732C38.7972 55.6633 38.8888 54.9192 39.2525 54.2786L46.0006 42.3691L48.7351 41.5824C48.7533 41.5768 48.7708 41.5698 48.7889 41.5642L58.9947 38.6171H71.3259L86.7202 58.1866L81.8233 68.442ZM89.0749 55.3654L74.8388 37.2582L82.1044 32.6375L95.407 49.9167L89.0749 55.3654Z" fill="#2F5ED1" stroke="white" stroke-width="1.6" mask="url(#path-1-inside-1_1631_11)"/>
<path d="M74.8257 16.5811C75.3716 16.0353 76.2554 16.0353 76.8013 16.5811C77.3472 17.127 77.3472 18.0117 76.8013 18.5576L64.5239 30.835C64.2509 31.108 63.8931 31.2451 63.5347 31.2451C63.1772 31.245 62.8203 31.1079 62.5474 30.835C62.0016 30.2891 62.0016 29.4053 62.5474 28.8594L74.8257 16.5811Z" fill="#FFA200" stroke="white" stroke-width="0.8"/>
<path d="M30.8667 16.5811C31.4126 16.0351 32.2973 16.0351 32.8433 16.5811L45.1206 28.8594C45.6666 29.4053 45.6666 30.289 45.1206 30.835C44.8475 31.108 44.4909 31.2451 44.1333 31.2451C43.7749 31.2451 43.4181 31.108 43.145 30.835L30.8667 18.5576C30.3208 18.0117 30.3208 17.127 30.8667 16.5811Z" fill="#FFA200" stroke="white" stroke-width="0.8"/>
<path d="M53.833 18.291C54.6043 18.291 55.2302 18.9162 55.2305 19.6875V29.8486C55.2305 30.6201 54.6045 31.2461 53.833 31.2461C53.0618 31.2458 52.4365 30.62 52.4365 29.8486V19.6875C52.4368 18.9164 53.0619 18.2913 53.833 18.291Z" fill="#FFA200" stroke="white" stroke-width="0.8"/>
<path d="M53.0581 11.3252C53.5526 10.9984 54.2144 11.0186 54.686 11.3779C55.1454 11.7273 55.3416 12.3602 55.1636 12.9111C54.9852 13.4596 54.4772 13.85 53.9019 13.8799C53.3583 13.9083 52.8357 13.5995 52.5903 13.1191L52.5454 13.0205L52.5034 12.9053C52.3228 12.324 52.5454 11.6636 53.0571 11.3252H53.0581Z" fill="#FFA200" stroke="white" stroke-width="0.8"/>
<path d="M18.3333 81.7604C18.3333 80.4234 15.8104 79.2535 12.1101 78.7521C11.7737 75.0753 10.5963 72.5684 9.25077 72.5684C7.9052 72.5684 6.72783 75.0753 6.22324 78.7521C2.52293 79.0864 0 80.2563 0 81.5933C0 82.9303 2.52293 84.1002 6.22324 84.6016C6.55963 88.2784 7.737 90.7853 9.08257 90.7853C10.4281 90.7853 11.6055 88.2784 12.1101 84.6016C15.6422 84.1002 18.3333 83.0975 18.3333 81.7604Z" fill="#FFE48F"/>
<path d="M108.333 24.4675C108.333 23.1304 105.81 21.9605 102.11 21.4591C101.774 17.7823 100.596 15.2754 99.2508 15.2754C97.9052 15.2754 96.7278 17.7823 96.2232 21.4591C92.5229 21.7934 90 22.9633 90 24.3003C90 25.6373 92.5229 26.8072 96.2232 27.3086C96.5596 30.9855 97.737 33.4924 99.0826 33.4924C100.428 33.4924 101.606 30.9855 102.11 27.3086C105.642 26.8072 108.333 25.8045 108.333 24.4675Z" fill="#9FADF0"/>
<path d="M15.3003 6.16718C15.3003 5.27014 13.6076 4.48522 11.125 4.14883C10.8993 1.68195 10.1093 0 9.20656 0C8.30379 0 7.51386 1.68195 7.17532 4.14883C4.6927 4.37309 3 5.158 3 6.05504C3 6.95209 4.6927 7.737 7.17532 8.0734C7.40102 10.5403 8.19094 12.2222 9.09372 12.2222C9.99649 12.2222 10.7864 10.5403 11.125 8.0734C13.4947 7.737 15.3003 7.06422 15.3003 6.16718Z" fill="#9FADF0"/>
<rect x="85" y="91.2012" width="6.90644" height="6.90644" transform="rotate(-45 85 91.2012)" fill="#E02287" fill-opacity="0.6"/>
</svg>
