<svg width="139" height="100" viewBox="0 0 139 100" fill="none" xmlns="http://www.w3.org/2000/svg">
<path d="M73.8652 23.335C74.1969 23.179 74.5805 23.179 74.9121 23.335L100.884 35.5566C101.313 35.7592 101.589 36.1931 101.589 36.668C101.589 37.143 101.313 37.5767 100.884 37.7793L74.9131 50.001C74.7464 50.0788 74.5677 50.1182 74.3887 50.1182C74.2097 50.1182 74.031 50.0788 73.8643 50.001H73.8633L47.8936 37.7793C47.4639 37.5767 47.1885 37.143 47.1885 36.668C47.1886 36.1932 47.464 35.7602 47.8936 35.5576L73.8652 23.335ZM74.2607 25.8633L51.8779 36.3965L51.3008 36.668L51.8779 36.9395L74.2607 47.4736L74.3887 47.5342L74.5166 47.4736L96.8994 36.9395L97.4766 36.668L96.8994 36.3965L74.5166 25.8633L74.3887 25.8027L74.2607 25.8633Z" fill="#FFA200" stroke="white" stroke-width="0.6"/>
<path d="M55.3979 39.2256C55.7517 39.0004 56.1979 38.974 56.5786 39.1514V39.1504L74.2612 47.4727L74.3892 47.5322L74.5171 47.4727L92.1987 39.1504V39.1514C92.5804 38.9728 93.0261 39.0005 93.3784 39.2256L93.3794 39.2266C93.7349 39.451 93.9496 39.8419 93.9497 40.2617V51.9443C93.9497 52.3515 93.749 52.7284 93.4194 52.9561L93.271 53.0439L74.938 62.2109C74.7669 62.2965 74.5775 62.3388 74.3892 62.3389C74.2009 62.3389 74.0114 62.2964 73.8403 62.2109L55.5073 53.0439C55.0906 52.835 54.8276 52.4096 54.8276 51.9443V40.2617C54.8277 39.8418 55.0427 39.45 55.397 39.2256H55.3979ZM91.0669 42.3984L74.9116 50C74.58 50.1559 74.1973 50.156 73.8657 50L57.7114 42.3984L57.2837 42.1973V51.1865L57.4497 51.2686L74.2544 59.6719L74.3892 59.7393L74.5229 59.6719L91.3286 51.2686L91.4946 51.1865V42.1973L91.0669 42.3984Z" fill="#FFA200" stroke="white" stroke-width="0.6"/>
<path d="M74.3887 35.4404H100.361C101.039 35.4404 101.589 35.9905 101.589 36.668C101.589 37.3456 101.039 37.8965 100.361 37.8965H74.3887C73.7112 37.8962 73.1611 37.3455 73.1611 36.668C73.1614 35.9907 73.7114 35.4407 74.3887 35.4404Z" fill="#FFA200" stroke="white" stroke-width="0.6"/>
<path d="M100.36 35.4404C101.038 35.4404 101.589 35.9905 101.589 36.668V50.418C101.589 51.0956 101.038 51.6465 100.36 51.6465C99.6829 51.6462 99.1328 51.0955 99.1328 50.418V36.668C99.133 35.9907 99.683 35.4407 100.36 35.4404Z" fill="#FFA200" stroke="white" stroke-width="0.6"/>
<path d="M74.3887 32.3838C75.0662 32.3838 75.617 32.9339 75.6172 33.6113V39.7227C75.6172 40.4003 75.0663 40.9502 74.3887 40.9502C73.7112 40.95 73.1611 40.4002 73.1611 39.7227V33.6113C73.1614 32.934 73.7114 32.384 74.3887 32.3838Z" fill="#FFA200" stroke="white" stroke-width="0.6"/>
<path d="M99.3398 49.7363C99.6921 49.2068 100.383 49.039 100.935 49.332L101.043 49.3965C101.571 49.7484 101.738 50.4403 101.447 50.9912L101.383 51.0996L98.3271 55.6826C98.0904 56.0371 97.7021 56.2294 97.3047 56.2295C97.0715 56.2295 96.8342 56.1626 96.624 56.0225C96.0614 55.6471 95.9076 54.8844 96.2832 54.3193L96.2842 54.3203L99.3398 49.7363Z" fill="#FFA200" stroke="white" stroke-width="0.6"/>
<path d="M99.6797 49.3965C100.242 49.0191 101.004 49.171 101.382 49.7363L104.438 54.3203C104.813 54.8838 104.661 55.647 104.098 56.0225C103.888 56.1625 103.651 56.2294 103.418 56.2295C103.07 56.2295 102.729 56.082 102.49 55.8076L102.395 55.6826L99.3389 51.0996C98.9632 50.5361 99.1157 49.772 99.6787 49.3965H99.6797Z" fill="#FFA200" stroke="white" stroke-width="0.6"/>
<path d="M74.3887 47.6631C75.0662 47.6631 75.617 48.2132 75.6172 48.8906V53.4746C75.6171 54.1522 75.0662 54.7021 74.3887 54.7021C73.7113 54.7019 73.1612 54.152 73.1611 53.4746V48.8906C73.1614 48.2133 73.7114 47.6633 74.3887 47.6631Z" fill="#FFA200" stroke="white" stroke-width="0.6"/>
<path d="M69.8052 72.1064H78.9722C79.6497 72.1064 80.1995 72.6565 80.1997 73.334C80.1997 74.0116 79.6498 74.5625 78.9722 74.5625H69.8052C69.1277 74.5623 68.5776 74.0115 68.5776 73.334C68.5779 72.6567 69.1279 72.1067 69.8052 72.1064Z" fill="#FFA200" stroke="white" stroke-width="0.6"/>
<mask id="path-10-inside-1_1631_13" fill="white">
<path fill-rule="evenodd" clip-rule="evenodd" d="M117.167 16.808V65.6953H114.111V18.3344C114.111 17.4911 113.427 16.8066 112.584 16.8066H36.1948C35.3514 16.8066 34.667 17.4911 34.667 18.3344V65.6953H31.6112V16.808C31.6112 15.1213 32.9816 13.7509 34.6683 13.7509H114.11C115.796 13.7509 117.167 15.1213 117.167 16.808ZM37.7225 65.6953V19.8622H111.056V65.6953H37.7225ZM36.1683 68.7509H31.6112V74.8605C31.6112 76.5471 32.9816 77.9175 34.6683 77.9175H114.11C115.796 77.9175 117.167 76.5471 117.167 74.8605V68.7509H112.61L112.584 68.7511H36.1948L36.1683 68.7509ZM28.5557 16.808V67.2231V74.8605C28.5557 78.2307 31.298 80.9731 34.6683 80.9731H65.1796C64.8257 87.0583 62.2751 90.1402 57.5834 90.1402C57.5713 90.1402 57.5591 90.1403 57.547 90.1406H54.5277C52.0007 90.1406 49.9443 92.197 49.9443 94.724C49.9443 97.2509 52.0007 99.3073 54.5277 99.3073H94.2499C96.7768 99.3073 98.8332 97.2509 98.8332 94.724C98.8332 92.197 96.7768 90.1406 94.2499 90.1406H91.231C91.2189 90.1403 91.2067 90.1402 91.1946 90.1402C86.5029 90.1402 83.9523 87.0583 83.5984 80.9731H114.11C117.48 80.9731 120.222 78.2307 120.222 74.8605V67.2231V16.808C120.222 13.4377 117.48 10.6953 114.11 10.6953H34.6683C31.298 10.6953 28.5557 13.4377 28.5557 16.808ZM54.5277 93.1962C53.6859 93.1962 52.9999 93.8822 52.9999 94.724C52.9999 95.5658 53.6859 96.2517 54.5277 96.2517H94.2499C95.0917 96.2517 95.7777 95.5658 95.7777 94.724C95.7777 93.8822 95.0917 93.1962 94.2499 93.1962H54.5277ZM83.7543 90.1402H65.0252C66.9075 88.0563 68.0136 84.9534 68.2366 80.9735H80.5429C80.7644 84.9534 81.8721 88.0563 83.7543 90.1402Z"/>
</mask>
<path fill-rule="evenodd" clip-rule="evenodd" d="M117.167 16.808V65.6953H114.111V18.3344C114.111 17.4911 113.427 16.8066 112.584 16.8066H36.1948C35.3514 16.8066 34.667 17.4911 34.667 18.3344V65.6953H31.6112V16.808C31.6112 15.1213 32.9816 13.7509 34.6683 13.7509H114.11C115.796 13.7509 117.167 15.1213 117.167 16.808ZM37.7225 65.6953V19.8622H111.056V65.6953H37.7225ZM36.1683 68.7509H31.6112V74.8605C31.6112 76.5471 32.9816 77.9175 34.6683 77.9175H114.11C115.796 77.9175 117.167 76.5471 117.167 74.8605V68.7509H112.61L112.584 68.7511H36.1948L36.1683 68.7509ZM28.5557 16.808V67.2231V74.8605C28.5557 78.2307 31.298 80.9731 34.6683 80.9731H65.1796C64.8257 87.0583 62.2751 90.1402 57.5834 90.1402C57.5713 90.1402 57.5591 90.1403 57.547 90.1406H54.5277C52.0007 90.1406 49.9443 92.197 49.9443 94.724C49.9443 97.2509 52.0007 99.3073 54.5277 99.3073H94.2499C96.7768 99.3073 98.8332 97.2509 98.8332 94.724C98.8332 92.197 96.7768 90.1406 94.2499 90.1406H91.231C91.2189 90.1403 91.2067 90.1402 91.1946 90.1402C86.5029 90.1402 83.9523 87.0583 83.5984 80.9731H114.11C117.48 80.9731 120.222 78.2307 120.222 74.8605V67.2231V16.808C120.222 13.4377 117.48 10.6953 114.11 10.6953H34.6683C31.298 10.6953 28.5557 13.4377 28.5557 16.808ZM54.5277 93.1962C53.6859 93.1962 52.9999 93.8822 52.9999 94.724C52.9999 95.5658 53.6859 96.2517 54.5277 96.2517H94.2499C95.0917 96.2517 95.7777 95.5658 95.7777 94.724C95.7777 93.8822 95.0917 93.1962 94.2499 93.1962H54.5277ZM83.7543 90.1402H65.0252C66.9075 88.0563 68.0136 84.9534 68.2366 80.9735H80.5429C80.7644 84.9534 81.8721 88.0563 83.7543 90.1402Z" fill="#2F5ED1"/>
<path d="M117.167 65.6953V66.2953H117.767V65.6953H117.167ZM114.111 65.6953H113.511V66.2953H114.111V65.6953ZM34.667 65.6953V66.2953H35.267V65.6953H34.667ZM31.6112 65.6953H31.0112V66.2953H31.6112V65.6953ZM37.7225 19.8622V19.2622H37.1225V19.8622H37.7225ZM37.7225 65.6953H37.1225V66.2953H37.7225V65.6953ZM111.056 19.8622H111.656V19.2622H111.056V19.8622ZM111.056 65.6953V66.2953H111.656V65.6953H111.056ZM31.6112 68.7509V68.1509H31.0112V68.7509H31.6112ZM36.1683 68.7509L36.1734 68.1509H36.1683V68.7509ZM117.167 68.7509H117.767V68.1509H117.167V68.7509ZM112.61 68.7509V68.1508L112.605 68.1509L112.61 68.7509ZM112.584 68.7511V69.3511L112.589 69.3511L112.584 68.7511ZM36.1948 68.7511L36.1897 69.3511H36.1948V68.7511ZM65.1796 80.9731L65.7786 81.0079L65.8155 80.3731H65.1796V80.9731ZM57.547 90.1406V90.7408L57.561 90.7405L57.547 90.1406ZM91.231 90.1406L91.217 90.7406H91.231V90.1406ZM83.5984 80.9731V80.3731H82.9625L82.9994 81.0079L83.5984 80.9731ZM65.0252 90.1402L64.58 89.738L63.6748 90.7402H65.0252V90.1402ZM83.7543 90.1402V90.7402H85.1047L84.1995 89.738L83.7543 90.1402ZM68.2366 80.9735V80.3735H67.6693L67.6376 80.9399L68.2366 80.9735ZM80.5429 80.9735L81.142 80.9402L81.1104 80.3735H80.5429V80.9735ZM117.767 65.6953V16.808H116.567V65.6953H117.767ZM114.111 66.2953H117.167V65.0953H114.111V66.2953ZM113.511 18.3344V65.6953H114.711V18.3344H113.511ZM112.584 17.4066C113.096 17.4066 113.511 17.8225 113.511 18.3344H114.711C114.711 17.1597 113.758 16.2066 112.584 16.2066V17.4066ZM36.1948 17.4066H112.584V16.2066H36.1948V17.4066ZM35.267 18.3344C35.267 17.8225 35.6828 17.4066 36.1948 17.4066V16.2066C35.0201 16.2066 34.067 17.1597 34.067 18.3344H35.267ZM35.267 65.6953V18.3344H34.067V65.6953H35.267ZM31.6112 66.2953H34.667V65.0953H31.6112V66.2953ZM31.0112 16.808V65.6953H32.2112V16.808H31.0112ZM34.6683 13.1509C32.6503 13.1509 31.0112 14.7899 31.0112 16.808H32.2112C32.2112 15.4527 33.313 14.3509 34.6683 14.3509V13.1509ZM114.11 13.1509H34.6683V14.3509H114.11V13.1509ZM117.767 16.808C117.767 14.7899 116.128 13.1509 114.11 13.1509V14.3509C115.465 14.3509 116.567 15.4527 116.567 16.808H117.767ZM37.1225 19.8622V65.6953H38.3225V19.8622H37.1225ZM111.056 19.2622H37.7225V20.4622H111.056V19.2622ZM111.656 65.6953V19.8622H110.456V65.6953H111.656ZM37.7225 66.2953H111.056V65.0953H37.7225V66.2953ZM31.6112 69.3509H36.1683V68.1509H31.6112V69.3509ZM32.2112 74.8605V68.7509H31.0112V74.8605H32.2112ZM34.6683 77.3175C33.313 77.3175 32.2112 76.2157 32.2112 74.8605H31.0112C31.0112 76.8785 32.6503 78.5175 34.6683 78.5175V77.3175ZM114.11 77.3175H34.6683V78.5175H114.11V77.3175ZM116.567 74.8605C116.567 76.2157 115.465 77.3175 114.11 77.3175V78.5175C116.128 78.5175 117.767 76.8785 117.767 74.8605H116.567ZM116.567 68.7509V74.8605H117.767V68.7509H116.567ZM112.61 69.3509H117.167V68.1509H112.61V69.3509ZM112.589 69.3511L112.615 69.3508L112.605 68.1509L112.579 68.1511L112.589 69.3511ZM36.1948 69.3511H112.584V68.1511H36.1948V69.3511ZM36.1632 69.3508L36.1897 69.3511L36.1999 68.1511L36.1734 68.1509L36.1632 69.3508ZM29.1557 67.2231V16.808H27.9557V67.2231H29.1557ZM29.1557 74.8605V67.2231H27.9557V74.8605H29.1557ZM34.6683 80.3731C31.6294 80.3731 29.1557 77.8994 29.1557 74.8605H27.9557C27.9557 78.5621 30.9667 81.5731 34.6683 81.5731V80.3731ZM65.1796 80.3731H34.6683V81.5731H65.1796V80.3731ZM57.5834 90.7402C60.073 90.7402 62.0673 89.9149 63.4702 88.2213C64.853 86.552 65.5979 84.1146 65.7786 81.0079L64.5806 80.9382C64.4074 83.9168 63.7 86.0629 62.5461 87.4558C61.4123 88.8246 59.7855 89.5402 57.5834 89.5402V90.7402ZM57.561 90.7405C57.5685 90.7403 57.576 90.7402 57.5834 90.7402V89.5402C57.5665 89.5402 57.5497 89.5404 57.533 89.5408L57.561 90.7405ZM57.547 89.5406H54.5277V90.7406H57.547V89.5406ZM54.5277 89.5406C51.6694 89.5406 49.3443 91.8656 49.3443 94.724H50.5443C50.5443 92.5284 52.3321 90.7406 54.5277 90.7406V89.5406ZM49.3443 94.724C49.3443 97.5823 51.6694 99.9073 54.5277 99.9073V98.7073C52.3321 98.7073 50.5443 96.9195 50.5443 94.724H49.3443ZM54.5277 99.9073H94.2499V98.7073H54.5277V99.9073ZM94.2499 99.9073C97.1082 99.9073 99.4332 97.5823 99.4332 94.724H98.2332C98.2332 96.9195 96.4455 98.7073 94.2499 98.7073V99.9073ZM99.4332 94.724C99.4332 91.8656 97.1082 89.5406 94.2499 89.5406V90.7406C96.4455 90.7406 98.2332 92.5284 98.2332 94.724H99.4332ZM94.2499 89.5406H91.231V90.7406H94.2499V89.5406ZM91.1946 90.7402C91.202 90.7402 91.2095 90.7403 91.217 90.7405L91.245 89.5408C91.2283 89.5404 91.2115 89.5402 91.1946 89.5402V90.7402ZM82.9994 81.0079C83.1801 84.1146 83.925 86.552 85.3078 88.2213C86.7107 89.9149 88.705 90.7402 91.1946 90.7402V89.5402C88.9925 89.5402 87.3657 88.8246 86.2319 87.4558C85.078 86.0629 84.3706 83.9168 84.1974 80.9382L82.9994 81.0079ZM114.11 80.3731H83.5984V81.5731H114.11V80.3731ZM119.622 74.8605C119.622 77.8994 117.149 80.3731 114.11 80.3731V81.5731C117.811 81.5731 120.822 78.5621 120.822 74.8605H119.622ZM119.622 67.2231V74.8605H120.822V67.2231H119.622ZM119.622 16.808V67.2231H120.822V16.808H119.622ZM114.11 11.2953C117.149 11.2953 119.622 13.769 119.622 16.808H120.822C120.822 13.1063 117.811 10.0953 114.11 10.0953V11.2953ZM34.6683 11.2953H114.11V10.0953H34.6683V11.2953ZM29.1557 16.808C29.1557 13.769 31.6294 11.2953 34.6683 11.2953V10.0953C30.9667 10.0953 27.9557 13.1063 27.9557 16.808H29.1557ZM53.5999 94.724C53.5999 94.2135 54.0172 93.7962 54.5277 93.7962V92.5962C53.3545 92.5962 52.3999 93.5508 52.3999 94.724H53.5999ZM54.5277 95.6517C54.0172 95.6517 53.5999 95.2344 53.5999 94.724H52.3999C52.3999 95.8971 53.3545 96.8517 54.5277 96.8517V95.6517ZM94.2499 95.6517H54.5277V96.8517H94.2499V95.6517ZM95.1777 94.724C95.1777 95.2344 94.7603 95.6517 94.2499 95.6517V96.8517C95.4231 96.8517 96.3777 95.8971 96.3777 94.724H95.1777ZM94.2499 93.7962C94.7603 93.7962 95.1777 94.2135 95.1777 94.724H96.3777C96.3777 93.5508 95.4231 92.5962 94.2499 92.5962V93.7962ZM54.5277 93.7962H94.2499V92.5962H54.5277V93.7962ZM65.0252 90.7402H83.7543V89.5402H65.0252V90.7402ZM67.6376 80.9399C67.4193 84.8351 66.3406 87.7888 64.58 89.738L65.4705 90.5424C67.4743 88.3239 68.6079 85.0717 68.8357 81.0071L67.6376 80.9399ZM80.5429 80.3735H68.2366V81.5735H80.5429V80.3735ZM84.1995 89.738C82.4388 87.7887 81.3588 84.8349 81.142 80.9402L79.9438 81.0069C80.1701 85.0718 81.3053 88.324 83.309 90.5424L84.1995 89.738Z" fill="white" mask="url(#path-10-inside-1_1631_13)"/>
<path d="M18.3333 68.7741C18.3333 67.4371 15.8104 66.2672 12.1101 65.7658C11.7737 62.089 10.5963 59.582 9.25077 59.582C7.9052 59.582 6.72783 62.089 6.22324 65.7658C2.52293 66.1 0 67.2699 0 68.607C0 69.944 2.52293 71.1139 6.22324 71.6153C6.55963 75.2921 7.737 77.799 9.08257 77.799C10.4281 77.799 11.6055 75.2921 12.1101 71.6153C15.6422 71.1139 18.3333 70.1111 18.3333 68.7741Z" fill="#FFE48F"/>
<path d="M138.264 87.1061C138.264 85.7691 135.741 84.5992 132.041 84.0978C131.704 80.421 130.527 77.9141 129.181 77.9141C127.836 77.9141 126.658 80.421 126.154 84.0978C122.454 84.4321 119.931 85.602 119.931 86.939C119.931 88.276 122.454 89.4459 126.154 89.9473C126.49 93.6241 127.668 96.1311 129.013 96.1311C130.359 96.1311 131.536 93.6241 132.041 89.9473C135.573 89.4459 138.264 88.4432 138.264 87.1061Z" fill="#9FADF0"/>
<path d="M30.6333 6.16718C30.6333 5.27014 28.9406 4.48522 26.458 4.14883C26.2323 1.68195 25.4423 0 24.5396 0C23.6368 0 22.8469 1.68195 22.5083 4.14883C20.0257 4.37309 18.333 5.158 18.333 6.05504C18.333 6.95209 20.0257 7.737 22.5083 8.0734C22.734 10.5403 23.524 12.2222 24.4267 12.2222C25.3295 12.2222 26.1194 10.5403 26.458 8.0734C28.8277 7.737 30.6333 7.06422 30.6333 6.16718Z" fill="#9FADF0"/>
<rect x="124.514" y="4.88477" width="6.90644" height="6.90644" transform="rotate(-45 124.514 4.88477)" fill="#E02287" fill-opacity="0.6"/>
</svg>
