<svg width="375" height="270" viewBox="0 0 375 270" fill="none" xmlns="http://www.w3.org/2000/svg">
<path fill-rule="evenodd" clip-rule="evenodd" d="M332.586 221.132C340.519 206.676 343.57 189.684 342.228 173.2C341.495 164.577 339.543 155.828 336.248 147.966C333.074 140.484 328.803 133.51 329.169 125.014C329.535 116.645 334.295 108.276 331.732 100.414C326.972 85.8319 305.614 85.4515 294.264 79.7453C278.032 71.7567 274.249 55.6525 265.706 40.9433C257.162 26.234 244.226 14.0608 228.726 8.22779C213.226 2.3948 195.164 3.15562 180.762 11.5247C173.684 15.7092 169.168 20.7814 165.629 28.2628C162.944 33.969 160.259 40.0556 155.255 43.4793C149.03 47.9175 141.22 46.5226 134.141 47.1567C118.031 48.5515 101.921 54.5113 89.8387 65.7969C83.9805 71.2494 79.3428 77.9701 76.1696 85.4515C73.1185 92.8061 71.5319 101.175 66.8942 107.896C62.3785 114.236 55.2999 118.167 51.0284 124.761C45.5363 133.383 50.174 142.767 48.9536 152.15C47.0009 167.113 35.1625 187.909 45.4143 202.111C49.5638 207.817 55.544 207.31 61.7683 207.183C69.9453 207.183 78.7326 206.549 86.5435 203.887C93.2559 201.604 99.8464 198.814 106.925 198.561C112.173 198.307 117.421 197.927 122.669 197.8C126.086 197.8 115.488 213.714 132.817 215.047C149.701 215.047 151.508 207.621 158.587 208.382C174.453 210.158 178.581 216.824 194.577 220.823C228.345 226.599 237.231 215.936 274.553 215.047C291.437 215.047 297.658 222.156 308.321 226.599C316.763 229.265 325.205 231.931 332.586 221.132Z" fill="#EDEEF7" fill-opacity="0.5"/>
<path d="M240.796 203.235C240.796 204.393 240.099 205.32 238.938 205.32C237.777 205.32 236.848 204.625 236.848 203.466L233.596 140.433C233.596 139.275 234.293 138.348 235.454 138.348C236.615 138.348 237.544 139.043 237.544 140.202L240.796 203.235Z" fill="#686DDB"/>
<path d="M139.77 204.395C139.77 205.553 140.467 206.48 141.628 206.48C142.789 206.48 143.718 205.785 143.718 204.627L146.97 141.593C146.97 140.435 146.273 139.508 145.112 139.508C143.95 139.508 143.021 140.203 143.021 141.362L139.77 204.395Z" fill="#878CF0"/>
<path d="M244.744 139.506L126.764 139.043L132.57 3.70703H240.332L244.744 139.506Z" fill="#878CF0"/>
<path d="M242.654 139.506L128.389 139.043L134.195 3.70703H238.473L242.654 139.506Z" fill="#E4EEF4"/>
<path d="M242.19 3.24435C242.19 3.93957 241.493 4.40305 240.796 4.40305H131.873C131.177 4.40305 130.48 3.93957 130.48 3.24435V1.1587C130.48 0.463478 131.177 0 131.873 0H240.564C241.261 0 241.957 0.463478 241.957 1.1587V3.24435H242.19Z" fill="#878CF0"/>
<path d="M245.441 142.522C245.441 143.217 244.744 143.68 244.047 143.68L124.906 143.217C124.209 143.217 123.512 142.753 123.512 142.058V139.741C123.512 139.046 124.209 138.582 124.906 138.582L244.047 139.046C244.744 139.046 245.441 139.509 245.441 140.204V142.522Z" fill="#878CF0"/>
<path d="M187.38 21.7773C175.071 21.7773 165.084 31.7421 164.852 44.0243C164.62 56.3065 174.606 66.503 186.915 66.503C199.224 66.503 209.443 56.5382 209.443 44.0243C209.443 31.7421 199.689 21.7773 187.38 21.7773ZM187.148 53.7574C181.806 53.7574 177.626 49.3543 177.626 44.2561C177.626 38.926 182.038 34.7547 187.148 34.7547C192.489 34.7547 196.67 39.1578 196.67 44.2561C196.67 49.3543 192.257 53.7574 187.148 53.7574Z" fill="white"/>
<path opacity="0.7" d="M187.379 25.9492C177.393 25.9492 169.264 34.0601 169.032 44.0249C169.032 53.9897 176.928 62.3323 187.147 62.3323C197.133 62.3323 205.494 54.2214 205.494 44.0249C205.494 34.0601 197.366 25.9492 187.379 25.9492ZM187.147 55.1484C181.108 55.1484 176.231 50.2818 176.231 44.0249C176.231 37.9997 181.341 32.9014 187.379 32.9014C193.417 32.9014 198.295 37.7679 198.295 44.0249C198.295 50.2818 193.185 55.1484 187.147 55.1484Z" fill="#6597EF"/>
<path d="M205.263 44.4883H198.296C198.296 50.5135 193.419 55.38 187.38 55.1483C186.916 55.1483 186.684 55.1483 186.219 55.1483V62.1005C186.684 62.1005 186.916 62.1005 187.38 62.1005C197.135 62.3322 205.263 54.4531 205.263 44.4883Z" fill="#E64A00"/>
<path d="M168.8 44.0254C168.8 53.9902 176.464 61.8694 186.219 62.3328V55.1489C180.413 54.9172 175.768 50.0507 175.768 44.0254C175.768 40.5494 177.393 37.5367 179.716 35.6828C178.322 33.5972 176.697 31.7433 175.303 30.1211C171.587 33.3654 168.8 38.4637 168.8 44.0254Z" fill="#6597EF"/>
<path opacity="0.7" d="M217.34 22.242C217.34 22.9372 216.643 23.6324 215.947 23.6324C215.25 23.6324 214.553 22.9372 214.553 22.242C214.785 21.5468 215.25 20.8516 216.179 20.8516C216.876 20.8516 217.34 21.5468 217.34 22.242Z" fill="#6597EF"/>
<path d="M217.803 47.2693C217.803 47.9646 217.106 48.6598 216.41 48.6598C215.713 48.6598 215.016 47.9646 215.016 47.2693C215.016 46.5741 215.713 45.8789 216.41 45.8789C217.339 45.8789 217.803 46.5741 217.803 47.2693Z" fill="#E64A00"/>
<path d="M158.581 24.3279C158.581 25.0232 157.885 25.7184 157.188 25.7184C156.491 25.7184 155.794 25.0232 155.794 24.3279C155.794 23.6327 156.491 22.9375 157.188 22.9375C157.885 22.9375 158.581 23.6327 158.581 24.3279Z" fill="#6597EF"/>
<path d="M214.32 23.6289C214.32 23.6289 214.087 24.0924 213.855 24.3241L200.617 34.9841C200.385 35.2159 199.92 35.4476 199.92 35.2159C199.92 35.2159 200.153 34.7524 200.385 34.5207L213.623 23.8606C213.855 23.6289 214.087 23.6289 214.32 23.6289Z" fill="#72859B"/>
<path d="M159.51 25.4844C159.51 25.4844 159.743 25.9479 159.975 26.1796L172.98 36.8396C173.213 37.0713 173.677 37.3031 173.677 37.0713C173.677 37.0713 173.445 36.6079 173.213 36.3761L160.207 25.7161C159.975 25.4844 159.742 25.4844 159.51 25.4844Z" fill="#72859B"/>
<path d="M214.552 47.5015C214.552 47.5015 214.319 47.7334 214.087 47.7334L204.101 47.9654C203.868 47.9654 203.636 47.9654 203.636 47.7334C203.636 47.5015 203.868 47.5015 204.101 47.5015L214.087 47.2695C214.319 47.2695 214.552 47.5015 214.552 47.5015Z" fill="#72859B"/>
<path d="M234.06 21.5508H219.197V23.173H234.06V21.5508Z" fill="#878CF0"/>
<path d="M234.06 24.793H219.197V25.4888H234.06V24.793Z" fill="#878CF0"/>
<path d="M234.06 26.649H219.197V25.9531L234.06 26.1851V26.649Z" fill="#878CF0"/>
<path d="M234.06 28.0396H219.197V27.3438H234.06V28.0396Z" fill="#878CF0"/>
<path d="M234.06 29.4263H219.197V28.7305H234.06V29.4263Z" fill="#878CF0"/>
<path d="M219.485 46.4442L219.483 48.0664L234.347 48.089L234.349 46.4668L219.485 46.4442Z" fill="#878CF0"/>
<path d="M234.525 50.2818H219.662V49.5859H234.525V50.2818Z" fill="#878CF0"/>
<path d="M234.525 51.6724L219.662 51.4405V50.9766H234.525V51.6724Z" fill="#878CF0"/>
<path d="M234.525 52.8311H219.662V52.3672H234.525V52.8311Z" fill="#878CF0"/>
<path d="M234.525 54.2232H219.662V53.5273L234.525 53.7593V54.2232Z" fill="#878CF0"/>
<path d="M153.936 24.798H139.304V23.1758H153.936V24.798Z" fill="#878CF0"/>
<path d="M153.936 26.8873H139.073V26.1914H153.936V26.8873Z" fill="#878CF0"/>
<path d="M153.936 28.274H139.073V27.5781H153.936V28.274Z" fill="#878CF0"/>
<path d="M153.936 29.6646H139.073V28.9688H153.936V29.6646Z" fill="#878CF0"/>
<path d="M153.936 31.0552H139.073V30.3594H153.936V31.0552Z" fill="#878CF0"/>
<path d="M232.434 123.755L215.016 123.523V122.133H232.667L232.434 123.755Z" fill="#878CF0"/>
<path d="M232.435 125.374H214.785L215.017 124.91H232.435V125.374Z" fill="#878CF0"/>
<path d="M232.435 126.534H214.785V126.07H232.435V126.534Z" fill="#878CF0"/>
<path d="M232.435 127.694H214.785V127.23H232.435V127.694Z" fill="#878CF0"/>
<path d="M232.435 128.851H214.785V128.387H232.435V128.851Z" fill="#878CF0"/>
<path d="M209.442 123.523H189.702V122.133H209.442V123.523Z" fill="#878CF0"/>
<path d="M209.443 125.374H189.47L189.702 124.91H209.443V125.374Z" fill="#878CF0"/>
<path d="M209.443 126.536H189.47V125.84L209.443 126.072V126.536Z" fill="#878CF0"/>
<path d="M209.443 127.696H189.47V127L209.443 127.232V127.696Z" fill="#878CF0"/>
<path d="M209.211 128.852H189.47V128.156L209.443 128.388L209.211 128.852Z" fill="#878CF0"/>
<path d="M193.651 119.348H189.703L189.935 104.285H193.883L193.651 119.348Z" fill="#6597EF"/>
<path d="M198.76 119.346H194.812L195.044 108.918H198.992L198.76 119.346Z" fill="#6597EF"/>
<path opacity="0.7" d="M204.566 119.346H200.618L200.85 106.137H204.798L204.566 119.346Z" fill="#6597EF"/>
<path opacity="0.7" d="M210.14 119.352H206.192L206.424 110.777H210.14V119.352Z" fill="#6597EF"/>
<path opacity="0.7" d="M215.714 119.349H211.766L211.998 108.457H215.947L215.714 119.349Z" fill="#6597EF"/>
<path opacity="0.68" d="M221.287 119.349H217.339L217.572 107.066H221.52L221.287 119.349Z" fill="#FF781D"/>
<path d="M226.862 119.348H223.146L223.378 104.285H227.094L226.862 119.348Z" fill="#FF781D"/>
<path d="M232.667 119.349H228.719L228.951 102.664H232.9L232.667 119.349Z" fill="#E64A00"/>
<path opacity="0.7" d="M209.443 72.7731C209.443 73.2366 209.211 73.4684 208.978 73.4684C208.514 73.4684 208.282 73.2366 208.282 73.0049C208.282 72.5414 208.514 72.3097 208.746 72.3097C208.978 72.0779 209.443 72.3097 209.443 72.7731Z" fill="#6597EF"/>
<path d="M208.05 73.7031C208.05 73.7031 208.05 73.9349 207.817 74.1666L202.243 80.6553C202.011 80.887 202.011 80.887 202.011 80.887C202.011 80.887 202.011 80.6553 202.243 80.4236L207.817 73.9349C207.817 73.7031 207.817 73.7031 208.05 73.7031Z" fill="#72859B"/>
<path d="M175.535 70.4504C175.303 70.6821 175.535 71.1456 175.767 71.3773C176 71.6091 176.464 71.3773 176.696 71.1456C176.929 70.9138 176.696 70.4504 176.464 70.2186C176.232 69.9869 175.767 69.9869 175.535 70.4504Z" fill="#FF781D"/>
<path d="M176.696 71.8398C176.696 71.8398 176.696 72.0716 176.696 72.3033L179.947 80.1825C179.947 80.4142 180.179 80.4142 180.179 80.4142C180.179 80.4142 180.179 80.1825 180.179 79.9507L176.928 72.0716C176.928 71.8398 176.696 71.8398 176.696 71.8398Z" fill="#72859B"/>
<path d="M206.424 89.6903V83.2016L190.631 81.3477L173.445 81.5794L163.458 82.9698V89.6903C163.923 91.7759 173.445 92.7029 184.825 92.7029C196.669 92.7029 205.727 91.7759 205.727 89.6903C205.959 89.6903 206.424 89.6903 206.424 89.6903Z" fill="#E64A00"/>
<path d="M206.423 90.1514V89.6879V83.1992L198.527 83.8944L185.753 84.8214V93.8592C197.133 93.6275 206.191 91.7736 206.423 90.1514Z" fill="#4A75DD"/>
<path d="M163.458 83.1992V89.9197C163.923 92.0053 173.445 93.6275 184.825 93.6275C185.057 93.6275 185.289 93.6275 185.522 93.6275V85.0531L170.426 84.1262L163.458 83.1992Z" fill="#66BCF7"/>
<path d="M163.458 82.9658C163.458 84.3563 172.981 85.2832 184.825 85.2832C196.669 85.2832 206.192 84.3563 206.192 82.9658C206.192 81.5754 196.669 80.6484 184.825 80.6484C172.981 80.6484 163.458 81.8071 163.458 82.9658ZM171.819 82.9658C171.819 82.2706 177.625 81.5754 184.825 81.5754C192.025 81.5754 197.831 82.2706 197.831 82.9658C197.831 83.661 192.025 84.3563 184.825 84.3563C177.625 84.3563 171.819 83.8928 171.819 82.9658Z" fill="#FF781D"/>
<path d="M163.69 82.9688H171.819C171.819 83.664 177.392 84.3592 184.36 84.3592C184.824 84.3592 185.289 84.3592 185.521 84.3592V85.2861C185.056 85.2861 184.592 85.2861 184.36 85.2861C172.98 85.2861 163.69 84.3592 163.69 82.9688Z" fill="#ABDBFF"/>
<path d="M206.424 83.2016C206.424 84.3603 197.134 85.519 185.754 85.519V84.592C192.489 84.592 197.831 83.8968 197.831 83.2016C197.831 82.7381 196.205 82.5064 193.418 82.0429C195.276 81.8111 196.902 81.5794 198.528 81.3477C203.173 81.8111 206.424 82.5064 206.424 83.2016Z" fill="#6597EF"/>
<path d="M179.019 84.3594L177.858 85.2872H185.754V84.3594H179.019Z" fill="white"/>
<path opacity="0.55" d="M177.858 85.2852V93.396L185.522 93.6278C185.522 90.6152 185.522 85.2852 185.522 85.2852H177.858Z" fill="#E6EDF4"/>
<path d="M156.723 79.7238C156.723 80.1873 157.188 80.1873 157.652 80.1873C158.117 80.1873 158.117 79.7238 158.117 79.2604C157.884 78.7969 157.652 78.7969 157.188 78.7969C156.955 79.0286 156.723 79.4921 156.723 79.7238Z" fill="#ABDBFF"/>
<path d="M158.582 79.957C158.582 79.957 158.582 80.1888 158.814 80.1888L166.71 83.4331C166.942 83.4331 167.175 83.4331 167.175 83.4331L166.942 83.2014L159.046 79.957C158.814 79.957 158.582 79.957 158.582 79.957Z" fill="#72859B"/>
<path d="M178.555 105.215C178.323 105.215 178.09 105.215 177.858 104.983C177.626 104.519 177.626 104.056 178.09 103.824C178.323 103.592 179.019 103.592 179.252 104.056C179.484 104.288 179.484 104.983 179.019 105.215C178.787 104.983 178.555 105.215 178.555 105.215ZM178.555 103.824C178.323 103.824 178.323 103.824 178.323 104.056C178.09 104.288 178.09 104.519 178.323 104.983C178.555 105.215 178.787 105.215 179.252 104.983C179.484 104.751 179.484 104.519 179.252 104.056C178.787 103.824 178.555 103.824 178.555 103.824Z" fill="#7DB9D8"/>
<path d="M178.787 103.36C178.787 103.36 178.787 103.128 178.787 102.897L180.645 93.1637C180.645 92.9319 180.877 92.7002 180.877 92.9319C180.877 92.9319 180.877 93.1637 180.877 93.3954L179.019 103.128L178.787 103.36Z" fill="#72859B"/>
<path d="M224.539 68.1299C216.642 65.8125 216.41 63.4952 210.139 60.7143C209.907 60.4825 210.836 56.543 210.836 56.543C217.571 58.8604 229.183 60.7143 229.416 60.7143C230.577 60.7143 227.79 69.2886 224.539 68.1299Z" fill="#FFC8AF"/>
<path d="M206.656 54.9218C205.262 54.4583 200.385 53.5313 200.153 54.2265C199.921 54.69 203.172 55.1535 204.566 55.8487C204.566 55.8487 200.153 54.69 200.153 55.1535C199.921 56.0805 204.566 56.5439 204.566 56.5439C204.566 56.5439 201.314 55.8487 201.082 56.3122C200.85 57.0074 204.333 56.7757 208.281 59.3248C209.443 60.2518 206.656 54.9218 206.656 54.9218Z" fill="#CC9987"/>
<path d="M211.069 56.312C209.675 55.3851 206.656 54.2264 206.656 54.2264L203.637 53.2994L200.85 52.8359C200.85 52.8359 200.153 53.5312 201.779 53.9946C202.244 54.2264 203.637 54.4581 204.102 54.6899C205.263 55.3851 206.424 56.0803 206.888 57.239C207.585 58.8612 204.566 59.0929 203.173 59.7881C202.476 60.0199 202.708 60.4833 204.334 60.4833C206.424 60.2516 208.979 62.1055 212.23 60.9468C215.482 60.0199 215.714 59.0929 214.553 58.6294C213.624 57.9342 211.069 56.312 211.069 56.312Z" fill="#FFC8AF"/>
<path d="M275.4 203.704C275.168 201.85 274.239 199.764 275.168 189.799C275.168 188.641 264.949 187.945 264.949 187.945C265.414 192.812 266.575 195.824 261.93 201.85C261.001 203.24 257.982 205.557 256.821 206.484C256.124 207.18 255.195 210.656 259.608 210.656C265.182 210.656 269.594 209.034 270.988 206.253C271.22 206.021 271.452 206.021 271.452 206.021C271.452 206.021 275.865 207.643 275.4 203.704Z" fill="#3C3C6D"/>
<path d="M289.799 193.737L298.392 192.578C298.392 192.578 297.463 193.737 297.928 196.749C299.089 202.079 301.179 203.238 304.431 206.482C306.289 208.336 305.592 211.117 305.592 211.117C305.592 211.117 304.895 212.044 303.037 212.508C300.715 212.971 295.838 212.044 294.909 210.886C294.676 210.654 293.747 209.263 293.051 208.8C292.354 208.105 291.193 208.336 290.961 207.641C290.961 207.641 289.799 205.092 290.961 202.543C291.89 199.762 289.799 193.737 289.799 193.737Z" fill="#3C3C6D"/>
<path d="M258.678 94.7848C257.749 98.0291 256.588 107.53 256.588 108.226C256.588 113.556 256.356 117.959 256.356 120.508C256.356 123.057 258.678 152.72 260.769 159.208C262.859 165.929 263.323 192.115 261.93 194.201C260.536 196.287 261.001 201.848 261.001 201.848C261.001 201.848 276.329 201.385 276.561 204.166C276.561 204.166 277.026 201.385 277.49 195.591C278.187 184.236 276.561 174.967 275.4 159.44C274.471 148.085 275.168 132.79 275.168 128.85C275.168 125.838 281.671 158.281 284.458 167.319C284.458 167.319 288.87 186.785 287.709 195.36C286.78 203.007 289.102 205.093 289.102 205.093C289.102 205.093 297.463 200.921 302.108 203.47C302.34 200.921 302.573 200.458 301.876 195.823C301.179 189.798 299.786 175.43 297.231 164.307C295.141 154.574 294.909 132.327 294.212 120.508C293.515 108.689 289.335 98.0291 287.941 95.7117C286.083 93.3943 258.678 94.7848 258.678 94.7848Z" fill="#3C3C6D"/>
<path d="M258.91 121.898C259.375 135.339 261.465 149.475 262.859 155.5C264.252 161.526 265.181 165.233 266.11 168.709C266.807 172.186 266.574 189.798 266.574 190.956C266.574 192.115 274.703 199.299 273.077 198.372C268.665 196.286 265.413 195.591 265.413 196.286C265.413 196.982 270.987 199.067 270.987 199.067C270.987 199.067 261.465 199.299 260.768 199.067C260.304 198.836 260.768 194.664 261.233 192.115C261.465 189.566 263.555 171.722 261.465 165.233C259.375 158.745 256.123 119.581 256.82 115.409C257.517 111.238 258.91 121.898 258.91 121.898Z" fill="#303065"/>
<path d="M275.168 125.141C277.955 130.702 283.529 159.206 284.923 163.146C286.084 167.085 288.174 170.562 289.335 171.952C290.264 173.111 295.838 193.04 295.142 196.516C292.587 196.748 290.264 196.285 290.032 197.443C289.8 198.602 296.535 198.138 296.535 198.138L288.174 202.542C288.174 202.542 287.71 198.37 287.71 195.126C287.71 191.882 287.245 176.818 284.69 168.708C282.136 160.828 280.51 154.34 279.581 147.388C278.188 140.667 275.168 125.141 275.168 125.141Z" fill="#303065"/>
<path d="M276.33 47.2713C275.865 46.3443 275.401 45.6491 274.472 45.8809C273.543 46.1126 263.556 47.9665 263.324 49.8204C263.092 51.6743 265.646 53.2965 267.272 53.5283C268.898 53.76 276.33 47.2713 276.33 47.2713Z" fill="#66BCF7"/>
<path d="M264.02 45.1839C264.717 47.5013 264.717 49.8187 264.02 51.9044C263.324 53.99 266.807 57.0026 267.969 56.7709C269.13 56.5391 275.865 50.0505 275.865 50.0505C275.865 50.0505 274.472 42.4031 274.007 40.7809C273.775 38.927 264.02 45.1839 264.02 45.1839Z" fill="#FFC8AF"/>
<path d="M257.982 71.1431L251.247 55.6165L263.091 50.75C263.556 51.4452 265.878 55.153 267.504 54.9213C269.129 54.6896 268.433 57.7022 268.433 57.7022V100.11L257.517 100.342C257.517 100.342 256.82 96.4026 256.588 89.2187C256.82 86.9013 257.285 76.9365 257.982 71.1431Z" fill="#F5F5F5"/>
<path d="M267.271 85.5119C267.039 73.9249 267.271 55.6175 269.129 54.6906C270.523 53.9953 275.632 50.2875 276.096 49.1288L276.561 48.4336C283.296 50.9827 288.87 51.9097 288.405 52.8366C288.405 52.8366 288.173 61.8745 287.941 66.0458C287.709 71.144 283.528 81.8041 283.993 86.6706C284.225 89.4514 287.244 97.0988 287.244 97.0988C287.244 97.0988 273.309 100.111 268.897 99.648C267.503 99.648 267.503 92.0006 267.271 85.5119Z" fill="#F5F5F5"/>
<path d="M267.968 95.7078L267.503 53.763L270.523 53.5312L271.684 53.9947L269.361 56.7756L272.381 91.7682L267.968 95.7078Z" fill="#EC827D"/>
<path d="M264.252 92.4634L266.11 56.7756L264.485 54.2265L265.181 53.5312L267.968 53.763L267.736 56.7756L267.968 95.7078L264.252 92.4634Z" fill="#EC827D"/>
<path d="M276.793 115.413C276.793 115.413 294.908 116.571 295.141 114.486C295.373 111.01 291.425 94.0926 290.728 89.9213C289.334 81.8104 290.496 71.6139 290.031 70.2234C287.941 62.1126 290.728 52.3795 289.567 51.916C286.548 50.9891 284.225 50.0621 277.258 47.2812C277.258 47.2812 279.58 59.3317 273.774 80.1882C273.077 81.8104 276.793 115.413 276.793 115.413Z" fill="#3C3C6D"/>
<path d="M253.569 96.4049C253.802 94.7827 251.711 73.231 249.853 69.2914C247.995 65.5836 251.247 59.3266 250.55 53.3014C250.55 53.0697 257.75 52.3744 262.627 48.2031L260.537 57.0092C261.233 67.2057 262.859 77.8658 262.859 77.8658C262.859 77.8658 263.788 119.347 263.324 119.579C261.698 120.042 253.337 119.115 253.337 119.115C253.337 119.115 253.105 102.198 253.569 96.4049Z" fill="#3C3C6D"/>
<path d="M275.633 46.3477C275.633 47.5064 272.149 52.1411 268.898 53.5316C271.453 52.8364 274.936 58.8616 275.865 60.0203C275.633 54.4585 279.117 48.4333 278.652 48.2016C277.723 47.2746 275.633 46.3477 275.633 46.3477Z" fill="white"/>
<path d="M263.788 48.8943C263.788 50.2848 265.878 53.2974 266.342 53.5291C264.02 53.0656 261.001 59.3226 261.001 59.3226L260.072 51.6752C260.304 51.4435 263.788 48.1991 263.788 48.8943Z" fill="white"/>
<path d="M306.289 77.4013L305.592 72.5348C299.09 63.9604 293.98 57.24 293.98 57.24C290.729 52.837 289.8 50.7513 288.406 52.1417C286.548 54.2274 284.226 63.0335 285.852 66.5096C287.245 69.7539 294.677 77.1696 298.625 80.6457C298.625 80.6457 301.644 84.1218 304.199 82.9631L306.289 77.4013Z" fill="#3C3C6D"/>
<path d="M276.329 46.1133C279.581 49.5894 274.007 74.6172 273.542 80.8742C273.542 80.8742 281.903 58.8589 283.529 57.7002L280.742 54.4559L283.993 53.2972C283.993 53.2972 281.207 49.5894 280.51 48.6624C279.581 47.7355 276.329 46.1133 276.329 46.1133Z" fill="#303065"/>
<path d="M251.712 53.0686C251.015 52.8369 249.854 53.3004 246.834 54.6908C245.905 55.1543 237.545 58.3986 233.132 59.5573C227.326 59.0938 215.249 57.2399 215.249 57.2399C213.159 56.7765 214.552 66.973 215.481 67.8999C216.41 68.8269 232.667 71.6078 232.667 71.6078C235.222 71.8395 252.176 70.9125 253.802 69.2904C255.427 66.973 251.712 53.0686 251.712 53.0686Z" fill="#3C3C6D"/>
<path d="M260.536 52.3717C259.607 55.616 262.162 76.2408 262.394 79.2534C260.072 72.9965 255.195 59.7874 255.195 59.7874L258.214 55.8478L255.659 54.2256C255.659 54.2256 257.285 52.3717 258.678 51.213C260.072 50.0543 262.394 47.2734 262.394 47.2734L260.536 52.3717Z" fill="#303065"/>
<path d="M276.563 32.9102C276.795 34.5323 275.866 40.3258 275.866 40.5575C275.866 40.7893 276.098 41.948 276.33 41.7162C276.563 41.4845 274.705 43.5702 274.008 43.1067C273.543 42.6432 271.918 35.2275 272.15 34.7641C272.382 34.5323 276.563 32.9102 276.563 32.9102Z" fill="#CE7C56"/>
<path d="M260.073 41.0204C259.144 38.2395 258.215 33.8364 259.376 30.8238C260.073 28.7382 264.486 26.8843 265.647 26.6525C272.382 26.189 272.847 30.3603 273.079 34.7634C274.472 33.8364 275.169 35.2269 275.169 36.849C275.169 38.2395 274.472 39.6299 273.776 40.0934C273.543 43.8012 271.221 46.8138 266.576 47.509C265.647 47.7408 264.95 47.509 264.254 47.2773C263.325 46.8138 262.396 46.1186 261.931 44.9599C261.234 44.033 260.305 41.2521 260.073 41.0204Z" fill="#FFC8AF"/>
<path d="M273.31 25.9611C272.614 25.0341 268.665 24.3389 268.898 25.2659C267.969 24.3389 267.969 26.6563 267.969 26.6563C267.736 25.0341 269.827 29.2054 269.827 29.4372C273.775 29.2054 271.685 34.0719 271.917 34.7672C272.614 35.6941 272.381 36.3893 272.381 36.3893L273.31 35.9259L274.239 34.5354L276.33 36.1576C276.097 35.6941 278.42 27.815 273.31 25.9611Z" fill="#CE7C56"/>
<path d="M259.609 39.3984C259.609 41.0206 259.841 47.2776 260.77 48.668C261.699 50.0584 264.254 53.0711 265.88 53.0711C266.576 51.9124 265.415 44.9602 265.415 44.9602C265.415 44.9602 263.557 45.6554 261.931 44.265C260.306 42.6428 259.609 39.3984 259.609 39.3984Z" fill="#CE7C56"/>
<path d="M262.86 41.9492C262.163 42.181 261.466 44.2666 261.466 45.1936C261.466 46.1205 263.789 43.3397 264.485 43.5714C264.485 41.9492 264.485 41.9492 264.485 41.9492H262.86Z" fill="#CE7C56"/>
<path d="M264.253 41.7142C264.253 41.7142 265.879 41.4824 266.344 41.9459C267.04 42.4094 268.666 44.0316 268.666 44.0316C268.666 44.0316 267.969 44.7268 266.344 43.7998C265.415 43.3364 264.253 43.3364 264.253 43.3364V41.7142Z" fill="#CE7C56"/>
<path d="M272.846 32.6797C272.846 34.3019 271.917 39.8636 270.988 41.9493C270.059 43.8032 265.414 44.7301 264.717 44.9619C264.717 45.8888 265.646 53.3045 265.646 53.3045C265.646 53.3045 269.362 52.841 271.452 49.1332C272.614 47.0475 273.775 42.181 273.775 41.0223C273.543 39.1684 272.846 32.6797 272.846 32.6797Z" fill="#CE7C56"/>
<path d="M258.912 35.2221C257.983 32.9047 257.983 30.819 258.215 29.4286C258.447 28.0381 256.357 26.416 257.286 24.5621C258.447 22.4764 259.84 23.4034 259.84 23.4034C259.84 23.4034 263.092 20.8542 265.182 22.0129C267.04 22.9399 266.808 22.2447 267.737 22.9399C267.969 23.1716 268.666 23.8668 268.898 24.0986C269.13 24.0986 269.13 24.0986 269.363 24.0986C270.756 25.2573 271.917 26.8795 271.453 28.5016C270.524 31.5142 269.595 29.1968 267.737 28.7334C265.879 28.5016 263.556 30.5873 263.556 30.5873C263.556 30.5873 264.021 30.1238 262.395 30.1238C258.447 29.6603 258.912 35.2221 258.912 35.2221Z" fill="#CE7C56"/>
<path d="M269.595 29.4287C270.292 28.5017 271.221 25.0256 273.543 25.9526C273.079 25.9526 272.382 25.9526 271.685 26.8795C272.614 25.4891 274.008 25.9526 275.169 26.6478C272.847 26.1843 272.614 27.8065 272.614 28.7334C272.847 29.6604 273.543 26.6478 273.543 27.343C273.311 28.7334 273.543 29.1969 273.079 30.8191C272.614 32.673 271.685 33.1365 271.685 33.1365C271.685 33.1365 271.685 30.8191 270.989 30.1239C270.524 29.4287 269.595 29.4287 269.595 29.4287Z" fill="#CE7C56"/>
<path d="M263.324 29.1973C262.86 28.0386 262.628 27.8068 260.538 25.7212C258.68 23.6355 258.912 22.4768 259.841 22.9403C259.376 22.2451 258.68 22.9403 258.912 23.6355C259.376 25.026 260.073 26.6481 261.467 27.8068C262.396 28.7338 263.324 29.1973 263.324 29.1973Z" fill="#CE7C56"/>
<path d="M261.698 28.9654C260.305 28.7336 258.447 27.8067 258.215 26.1845C257.983 24.5623 258.679 23.1719 258.679 23.1719C258.679 23.1719 257.518 24.0988 257.518 24.794C257.518 25.721 258.215 28.2701 259.376 28.7336C260.769 29.4288 261.698 28.9654 261.698 28.9654Z" fill="#CE7C56"/>
<path d="M261.002 29.1986C260.305 29.4303 257.751 28.5033 257.286 27.1129C256.822 25.7225 257.286 24.5638 257.286 24.332C256.822 25.0272 255.66 27.5764 257.518 29.1986C259.376 30.8207 260.073 30.1255 260.305 30.1255C260.77 29.662 261.002 29.1986 261.002 29.1986Z" fill="#CE7C56"/>
<path d="M263.324 30.3547C263.324 28.7325 264.021 27.3421 263.557 25.2564C263.092 23.1708 261.002 22.4756 260.305 23.1708C260.305 22.4756 261.699 21.3169 263.092 22.7073C264.253 24.0977 265.182 25.9517 264.253 28.2691C263.324 30.3547 263.324 30.3547 263.324 30.3547Z" fill="#CE7C56"/>
<path d="M263.556 29.4269C264.253 28.5 265.646 26.1826 264.485 23.8652C263.324 21.5478 261.93 22.0113 261.001 22.243C261.698 21.7795 263.788 21.5478 264.717 22.7065C265.646 23.8652 267.04 26.6461 265.414 28.2682C264.021 30.1221 263.556 29.4269 263.556 29.4269Z" fill="#CE7C56"/>
<path d="M270.292 29.6592C270.989 27.8053 272.382 26.4149 268.666 23.4022C269.828 24.0975 270.524 27.3418 269.828 27.8053C269.363 24.5609 268.666 23.1705 267.273 22.707C268.202 23.4022 269.828 27.8053 268.899 28.5005C267.97 29.4275 269.131 29.4275 269.363 29.4275C269.828 29.4275 270.292 29.6592 270.292 29.6592Z" fill="#CE7C56"/>
<path d="M309.076 70.2152C310.237 71.8374 309.076 82.0339 305.824 82.9609C302.573 84.1196 300.715 83.8879 300.715 74.3866C300.483 65.117 309.076 70.2152 309.076 70.2152Z" fill="#3C3C6D"/>
<path d="M288.638 54.6924C289.335 55.3876 294.445 60.2542 296.535 64.1937C298.625 68.1333 301.18 70.9142 300.715 71.8411C300.018 72.7681 299.786 78.3298 300.483 76.2442C301.18 74.1585 301.412 72.0729 302.573 72.3046C303.502 72.5363 305.128 71.3776 303.038 68.1333C301.18 64.8889 291.658 53.9972 289.8 53.0702C288.174 51.9115 287.942 53.9972 288.638 54.6924Z" fill="#303065"/>
<path d="M303.27 74.1542C302.341 73.459 302.109 72.0685 301.412 71.1416C300.251 69.5194 299.322 69.0559 298.625 68.8242C298.161 68.5924 298.625 67.6655 299.554 67.8972C300.715 68.1289 302.341 69.5194 303.27 69.2876C303.27 69.2876 305.128 67.6655 306.289 66.7385C306.986 66.0433 307.218 65.8116 308.379 65.1163C310.005 63.9576 311.166 63.4942 311.166 63.7259C311.631 64.4211 310.005 65.1163 309.076 66.0433C308.612 66.7385 308.379 66.9703 307.915 67.4337C307.915 67.4337 309.773 65.8116 310.934 65.3481C311.863 64.8846 313.721 64.4211 313.953 64.6529C314.418 65.1163 313.256 65.8116 311.631 66.7385C310.702 67.202 309.541 68.3607 309.541 68.3607C309.541 68.3607 310.47 67.6655 311.631 66.7385C312.56 66.0433 314.65 65.5798 314.882 66.0433C315.347 66.5068 314.185 66.9703 312.792 67.6655C311.631 68.3607 310.47 69.2876 310.47 69.2876C310.47 69.2876 311.863 68.3607 313.256 67.8972C314.418 67.6655 314.882 67.4337 314.882 67.6655C315.347 68.3607 313.256 69.0559 311.631 69.9829C310.47 70.9098 310.702 72.9955 307.45 74.1542C304.431 75.5446 303.27 74.1542 303.27 74.1542Z" fill="#FFC8AF"/>
<path d="M274.007 86.207C274.24 91.3053 274.704 113.552 277.955 117.028C281.207 120.504 296.535 115.87 295.142 114.479C294.909 114.247 287.478 117.724 280.742 116.333C277.259 115.638 274.936 99.4162 274.704 93.3909C274.472 87.3657 274.007 86.207 274.007 86.207Z" fill="#303065"/>
<path d="M262.859 87.1328C263.091 92.9263 264.252 114.015 263.556 116.564C262.859 119.113 260.769 120.04 258.911 120.04C257.053 120.04 252.64 119.576 252.64 119.576C252.64 119.576 258.446 119.113 260.304 117.954C262.162 116.795 262.394 110.075 262.394 102.891C262.627 95.9389 262.859 87.1328 262.859 87.1328Z" fill="#303065"/>
<path d="M102.146 208.098C101.217 209.72 98.8947 214.586 100.056 215.977C100.985 217.599 101.682 217.599 103.54 217.831C105.398 218.062 106.327 217.136 107.488 216.904C108.649 216.44 112.365 216.672 113.526 215.977C114.687 215.282 117.242 212.037 116.081 211.11C115.384 210.647 113.294 210.415 108.184 210.183L102.146 208.098Z" fill="#333366"/>
<path d="M103.075 175.656C103.075 175.656 98.198 205.782 98.6625 212.734C108.185 213.429 112.829 209.953 112.597 207.867C112.597 205.782 117.939 177.741 117.939 176.119C118.171 174.497 120.726 164.3 116.313 162.215C102.378 155.031 103.075 175.656 103.075 175.656Z" fill="#333366"/>
<path d="M114.223 209.023C113.062 211.572 111.204 215.975 111.901 217.829C112.597 219.683 115.384 219.451 117.939 218.524C118.403 218.292 120.029 217.365 121.655 218.061C123.745 218.756 127.925 217.365 128.854 217.134C133.035 216.207 131.641 212.962 129.087 212.731C125.371 212.499 122.816 210.181 121.655 209.023C120.261 207.864 114.223 209.023 114.223 209.023Z" fill="#333366"/>
<path d="M123.513 162.679C140.931 158.739 136.751 169.863 132.57 180.523C130.48 185.853 125.835 208.1 126.764 211.576C119.564 214.357 111.204 213.661 111.204 213.661C111.204 213.661 115.384 186.78 117.939 181.218C119.1 178.669 123.513 162.679 123.513 162.679Z" fill="#333366"/>
<path d="M89.1402 99.4141C89.3724 101.268 87.9789 107.988 86.8177 110.538C85.6565 113.087 81.4761 116.331 81.4761 116.331L96.3397 122.356C96.3397 122.356 97.0365 111.696 100.288 110.074C102.61 109.379 89.1402 99.4141 89.1402 99.4141Z" fill="#FFC8AF"/>
<path d="M104.933 96.6325C104.933 97.5595 104.701 99.4134 104.701 100.34C104.701 101.036 105.398 101.731 105.398 102.658C105.398 107.524 104.236 111.232 102.379 111.464C101.217 111.696 98.4304 112.854 96.5724 112.159C93.321 111 90.3018 107.293 89.1406 103.816C87.2826 98.4865 89.1406 92.693 94.7145 91.5343C100.521 90.3756 104.469 90.8391 104.933 96.6325Z" fill="#FFC8AF"/>
<path d="M67.7746 221.545H66.1489L69.8648 177.978L70.5616 172.648L98.4309 175.893L96.8052 226.644L94.4828 226.412L93.5538 181.686L73.813 179.369L67.7746 221.545Z" fill="#606099"/>
<path d="M128.159 168.017L106.56 165.699L70.0974 170.334L69.8651 177.054C69.6329 177.75 69.4007 179.604 71.7231 179.835C71.7231 179.835 94.4831 182.848 97.27 181.921L128.391 177.75L128.159 168.017Z" fill="#606099"/>
<path d="M100.056 173.577C96.1082 174.504 94.7148 174.272 91.2311 173.809L73.8127 172.419C67.7744 171.492 69.6323 170.565 72.8837 169.174L75.6707 167.089C78.4576 165.93 101.682 163.381 105.398 163.612L126.068 165.698C130.016 166.162 128.855 169.638 128.158 169.638L100.056 173.577Z" fill="#454580"/>
<path d="M126.3 176.355L130.713 222.24L129.551 222.008L122.12 174.965L126.3 176.355Z" fill="#606099"/>
<path d="M85.8896 110.771C92.3924 110.076 95.4116 111.466 99.1275 112.857C99.8242 113.783 100.056 117.028 100.056 117.028C100.056 117.028 86.1218 112.625 85.6573 112.161C85.4251 111.466 85.8896 110.771 85.8896 110.771Z" fill="white"/>
<path d="M106.327 91.0721C106.327 92.2308 106.094 92.2308 105.63 92.2308C106.327 91.0721 105.862 88.9865 105.862 88.9865C103.307 91.9991 95.6433 84.12 88.2114 89.4499C87.5147 89.9134 88.4437 90.3769 87.7469 90.8404C82.6376 94.78 82.4053 97.0973 83.7988 100.805C85.1922 104.976 85.889 106.599 85.4245 108.684C84.96 110.306 95.8755 110.306 95.8755 110.306C95.8755 110.306 98.1979 109.38 98.8947 107.526C99.3592 106.367 100.753 104.281 100.52 104.05C98.8947 100.342 101.217 99.183 102.146 100.805C102.611 101.964 102.378 102.891 102.378 102.891L103.54 102.196C103.54 102.196 102.611 98.256 103.54 96.4021C103.772 95.9386 104.469 94.78 105.398 93.6213C107.255 93.3895 106.327 89.6817 106.327 91.0721Z" fill="#333366"/>
<path d="M109.81 126.528C108.881 124.906 108.649 119.807 108.649 119.807C108.649 119.807 109.578 120.734 100.288 116.331C97.2686 114.941 94.4816 113.55 94.4816 113.55L85.6563 111.465C81.7082 114.477 77.2955 116.563 74.9731 118.88C74.9731 118.88 72.1862 121.893 71.7217 122.588C67.0768 133.712 76.831 136.956 76.3666 141.359C74.2764 159.667 79.8502 165.924 80.547 168.241C80.7792 169.4 86.3531 170.558 92.8559 170.558C96.3396 171.717 113.293 166.387 114.455 165.46C114.919 163.838 111.436 169.168 108.881 154.337C108.649 152.483 107.952 148.543 108.881 144.372C110.042 133.248 113.99 132.785 109.81 126.528Z" fill="#333366"/>
<path d="M85.1929 111.23L82.6382 113.779C82.6382 113.779 86.1219 113.547 88.4443 114.242C93.5537 115.633 102.147 118.182 102.147 118.182L100.986 114.938C100.986 114.938 95.6439 112.62 89.8378 111.462C87.5153 110.998 85.1929 111.23 85.1929 111.23Z" fill="#333366"/>
<path d="M101.683 117.023L100.754 114.937C100.754 114.937 93.7864 111.693 89.606 111.461C98.4313 114.705 97.9668 116.096 98.6635 116.559C99.5925 116.791 101.683 117.023 101.683 117.023Z" fill="#282864"/>
<path d="M102.611 128.614C102.843 134.408 107.72 146.226 108.649 147.617C109.81 149.471 114.223 152.947 116.081 152.252C117.474 151.788 117.939 150.861 118.868 148.08C119.797 145.299 119.332 141.36 119.1 140.201C118.868 138.579 116.778 136.262 116.778 136.262C116.778 136.262 111.436 123.053 110.275 121.43C108.649 119.576 102.611 128.614 102.611 128.614Z" fill="#333366"/>
<path d="M109.346 120.272C107.72 119.345 105.165 120.041 104.236 122.358C103.075 124.675 106.559 125.139 108.417 128.383C110.042 131.627 114.687 143.678 116.777 145.764C118.868 147.849 120.726 143.214 120.726 141.824C120.726 140.434 119.564 139.97 118.635 139.275C117.706 138.58 115.384 133.018 113.758 130.005C112.365 127.224 110.739 120.967 109.346 120.272Z" fill="#282864"/>
<path d="M96.5721 158.277C96.3398 161.985 95.8753 171.022 99.1268 171.486C102.61 171.949 116.313 170.559 120.726 168.937C125.138 167.315 132.57 171.486 132.802 172.645C133.035 173.572 136.75 167.546 135.357 163.838C133.963 160.131 133.267 155.264 130.248 155.496C127.228 155.728 110.971 154.569 106.094 155.264C101.449 155.728 96.5721 158.277 96.5721 158.277Z" fill="#333366"/>
<path d="M95.4108 168.24C95.4108 170.789 93.3206 172.411 89.6047 172.179L73.5798 170.557C69.1672 169.862 69.8639 169.398 69.3994 166.849L64.5223 127.222C63.8255 123.05 65.9157 119.806 71.0251 120.501L87.05 120.27C91.9272 120.733 92.3916 123.746 92.6239 127.685L95.4108 168.24Z" fill="#606099"/>
<path d="M88.4438 120.27C90.0695 120.27 92.6242 121.892 92.8564 124.904C93.0887 127.917 98.6625 167.313 97.5013 169.862C96.3401 172.179 93.3209 172.643 93.3209 171.484C94.4821 161.751 89.8372 125.6 88.9082 123.514C87.9793 121.892 88.4438 120.27 88.4438 120.27Z" fill="#454580"/>
<path d="M139.769 173.57C139.769 173.57 139.769 199.756 140.234 206.94C149.988 207.867 157.42 208.099 157.42 206.013C157.42 203.928 156.026 181.217 156.258 179.595C156.491 177.973 160.207 165.923 155.794 163.837C141.163 156.421 139.769 173.57 139.769 173.57Z" fill="#333366"/>
<path d="M144.646 164.769C150.22 162.915 165.548 158.048 169.496 157.585C177.392 156.658 181.341 160.829 179.715 168.476C177.857 177.051 158.813 202.774 160.439 206.482C153.239 210.189 145.11 208.799 145.11 208.799C145.11 208.799 156.49 179.368 156.955 176.356C157.652 173.575 144.646 164.769 144.646 164.769Z" fill="#333366"/>
<path d="M134.428 104.742C134.892 106.596 134.892 113.548 134.196 116.329C133.499 119.11 130.015 123.05 130.015 123.05L147.201 126.062C147.201 126.062 144.879 114.939 147.898 112.853C149.756 111.926 134.428 104.742 134.428 104.742Z" fill="#FFC8AF"/>
<path d="M132.105 117.258C129.318 118.88 125.138 121.429 120.028 123.978C120.028 123.978 117.706 124.905 117.474 125.832C112.597 137.419 123.512 142.286 123.048 146.92C120.957 165.46 128.389 171.717 129.086 174.034C129.318 175.193 136.053 176.583 142.556 176.815C146.272 177.974 161.368 173.57 162.529 172.412C163.226 170.79 163.458 168.704 162.529 164.764C160.207 155.031 159.975 153.873 160.439 148.774C160.671 145.067 164.619 144.603 165.781 142.517C166.942 140.432 160.904 123.978 160.904 123.978C160.904 123.978 154.865 122.588 147.898 118.648C146.272 117.721 140.466 118.417 140.466 118.417L132.105 117.258Z" fill="#333366"/>
<path d="M133.266 114.246C133.731 114.478 141.859 117.027 146.736 116.332C147.433 117.259 146.504 119.576 146.504 119.576C146.504 119.576 131.873 117.722 131.408 117.027C131.176 116.563 133.266 114.246 133.266 114.246Z" fill="#D4D5D6"/>
<path d="M132.106 115.637L129.086 119.576C129.086 119.576 134.893 119.576 137.447 120.272C142.789 121.43 149.292 120.272 149.292 120.272L148.13 117.259C148.13 117.259 143.486 117.954 137.447 116.795C135.125 116.332 132.106 115.637 132.106 115.637Z" fill="#333366"/>
<path d="M119.332 229.649H121.189L129.086 178.898H124.905L119.332 229.649Z" fill="#606099"/>
<path d="M166.709 231.04H168.335L161.832 180.289H157.419L166.709 231.04Z" fill="#606099"/>
<path d="M131.408 221.77H132.104L139.072 180.984H135.124L131.408 221.77Z" fill="#606099"/>
<path d="M177.624 223.628H179.018L173.676 178.207L169.728 178.671L177.624 223.628Z" fill="#606099"/>
<path d="M121.655 178.437C123.28 177.278 126.3 176.583 127.461 175.888C127.925 175.656 132.106 174.034 132.106 174.034L172.516 172.875C172.516 172.875 173.445 173.107 174.606 173.338C175.303 173.57 175.768 176.351 175.768 177.51C175.768 178.205 166.71 182.145 163.459 183.072C160.207 184.23 159.511 184.23 157.653 184.23C154.633 184.23 126.532 184.694 122.119 183.767C120.493 183.535 120.493 179.364 121.655 178.437Z" fill="#606099"/>
<path d="M175.768 169.634C172.516 172.647 162.297 176.355 159.046 177.282C156.027 178.209 143.95 174.269 142.324 170.561C140.699 166.854 156.491 162.219 161.601 162.219C166.71 162.219 175.768 169.634 175.768 169.634Z" fill="#333366"/>
<path d="M160.439 123.75C163.458 123.75 164.154 130.239 166.012 136.496C168.103 143.448 171.122 150.632 171.122 152.254C171.122 155.267 172.515 163.377 168.799 162.914C163.225 161.987 160.671 156.889 156.723 150.168C153.007 143.216 160.439 123.75 160.439 123.75Z" fill="#333366"/>
<path d="M149.292 101.963L149.988 104.976C149.988 104.976 151.382 105.439 152.311 104.744C153.007 104.049 153.007 102.658 152.775 101.963C152.543 101.036 149.988 101.268 149.292 101.963ZM152.078 104.512C151.382 105.207 149.988 104.744 149.988 104.744L149.292 101.963C149.988 101.499 152.311 101.268 152.311 101.963C152.543 102.658 152.775 103.817 152.078 104.512Z" fill="#282864"/>
<path d="M150.917 100.572C151.382 102.195 150.917 102.195 150.917 103.585C150.917 104.048 151.382 104.512 151.382 105.207C151.846 109.61 151.382 113.55 149.756 114.477C147.201 115.867 138.144 114.013 135.357 108.915C132.57 103.817 135.589 96.1693 140.931 94.0837C146.737 92.2298 149.524 95.0107 150.917 100.572Z" fill="#FFC8AF"/>
<path d="M150.22 91.5384C148.827 94.3193 136.518 85.5132 131.176 93.8558C130.712 94.551 130.944 95.2462 130.944 95.2462C130.712 95.478 130.479 95.478 129.783 95.9414C126.531 98.2588 127.693 103.821 129.318 107.065C131.408 111.004 133.034 112.858 132.337 114.712C131.641 116.334 145.343 116.334 145.343 116.334C145.343 116.334 147.433 109.151 146.737 108.455C144.414 105.211 145.808 102.662 146.737 104.284C147.433 105.443 147.666 105.674 147.666 105.674L148.362 105.906C148.362 105.906 147.201 101.04 148.595 99.6493C151.382 97.1001 150.22 91.5384 150.22 91.5384Z" fill="#5B250E"/>
<path d="M142.091 90.377C143.949 90.8404 147.433 92.2309 148.594 91.3039C147.665 91.9991 146.504 92.2309 146.504 92.2309C146.504 92.2309 149.058 92.4626 149.755 91.3039C149.291 92.6944 148.13 92.9261 148.13 92.9261C148.13 92.9261 150.22 92.4626 150.684 90.8404C150.452 93.6213 150.684 93.3896 149.058 93.6213C146.968 93.6213 142.788 90.8404 139.072 90.377C138.143 90.1452 139.769 89.9135 142.091 90.377Z" fill="#93513F"/>
<path d="M146.736 94.3161C148.362 94.7796 151.381 95.0114 151.614 92.2305C151.149 93.1574 147.898 94.7796 145.575 93.3892C143.253 91.9987 146.736 94.3161 146.736 94.3161Z" fill="#93513F"/>
<path d="M146.272 103.356C146.272 103.356 151.846 102.661 152.543 102.429C153.007 102.197 152.543 103.819 152.543 103.819L146.969 104.051L146.272 103.356Z" fill="#282864"/>
<path d="M150.454 203.007C149.989 200.226 145.809 199.53 144.415 200.457C142.557 201.616 141.86 205.324 142.325 208.337C142.557 210.19 140.235 212.971 139.77 214.825C139.306 216.216 139.306 218.765 141.164 219.692C142.325 220.155 143.022 220.85 147.667 221.546C148.828 221.777 149.989 222.009 150.221 220.85C150.454 218.997 150.454 216.447 150.686 212.276C150.454 210.19 150.454 203.007 150.454 203.007Z" fill="#333366"/>
<path d="M142.326 206.25L148.828 207.177L148.596 208.567L142.093 207.872L142.326 206.25Z" fill="#282864"/>
<path d="M143.021 203.008C144.182 202.081 149.524 202.776 149.524 204.399C150.221 202.545 148.827 200.923 146.04 200.459C143.485 200.227 143.021 203.008 143.021 203.008Z" fill="#282864"/>
<path d="M150.22 203.002C147.665 201.612 144.646 204.393 144.414 206.015C143.949 208.101 146.736 211.113 149.291 212.735C150.685 213.662 151.613 217.37 152.775 218.992C155.097 222.237 165.548 221.078 165.316 217.834C165.084 215.053 162.993 213.662 157.42 208.796C156.026 207.637 150.22 203.002 150.22 203.002Z" fill="#282864"/>
<path d="M147.898 211.348L152.543 206.945L153.472 208.104L148.827 212.507L147.898 211.348Z" fill="#333366"/>
<path d="M145.576 208.567C145.576 207.177 149.524 203.237 150.917 204.396C149.756 202.774 147.666 202.774 145.808 204.628C143.95 206.482 145.576 208.567 145.576 208.567Z" fill="#333366"/>
<path d="M147.666 128.383C150.22 128.846 155.562 128.151 156.491 135.567C157.188 141.128 160.671 174.035 159.51 176.121C158.349 178.67 154.865 178.902 153.704 177.512C152.543 176.121 145.343 130.932 146.04 130.005C146.737 129.31 147.666 128.383 147.666 128.383Z" fill="#454580"/>
<path d="M157.42 174.499C157.42 177.28 154.168 179.597 149.988 179.597L126.531 178.207C122.815 178.207 120.261 177.28 120.028 174.499L115.848 135.567C115.616 132.322 118.635 129.31 122.815 129.078L145.808 128.383C151.381 128.383 154.168 130.932 154.168 134.408L157.42 174.499Z" fill="#606099"/>
<rect x="364" y="140.121" width="7.22486" height="7.22486" transform="rotate(-45 364 140.121)" fill="#E02287" fill-opacity="0.6"/>
<circle cx="269" cy="259.012" r="8" stroke="#9FADF0" stroke-width="4"/>
<circle cx="10" cy="188.012" r="8" stroke="#E02287" stroke-opacity="0.6" stroke-width="4"/>
<path d="M347.848 50.045C347.848 48.2947 344.566 46.7632 339.753 46.1068C339.315 41.2935 337.784 38.0117 336.033 38.0117C334.283 38.0117 332.751 41.2935 332.095 46.1068C327.282 46.5444 324 48.0759 324 49.8262C324 51.5765 327.282 53.108 332.095 53.7643C332.533 58.5776 334.064 61.8594 335.814 61.8594C337.565 61.8594 339.096 58.5776 339.753 53.7643C344.347 53.108 347.848 51.7953 347.848 50.045Z" fill="#FFE48F"/>
<path d="M50.8477 100.045C50.8477 98.2947 47.5659 96.7632 42.7526 96.1068C42.315 91.2935 40.7835 88.0117 39.0332 88.0117C37.283 88.0117 35.7515 91.2935 35.0951 96.1068C30.2818 96.5444 27 98.0759 27 99.8262C27 101.576 30.2818 103.108 35.0951 103.764C35.5327 108.578 37.0642 111.859 38.8145 111.859C40.5648 111.859 42.0963 108.578 42.7526 103.764C47.3471 103.108 50.8477 101.795 50.8477 100.045Z" fill="#9FADF0"/>
</svg>
