<svg width="38" height="38" viewBox="0 0 38 38" fill="none" xmlns="http://www.w3.org/2000/svg">
<g opacity="0.6">
<path fill-rule="evenodd" clip-rule="evenodd" d="M11.0833 25.3346C11.0833 24.4638 11.7958 23.7513 12.6667 23.7513C13.5375 23.7513 14.25 24.4638 14.25 25.3346C14.25 26.2055 13.5375 26.918 12.6667 26.918C11.7958 26.918 11.0833 26.2055 11.0833 25.3346ZM19 23.7513H25.3333C26.2042 23.7513 26.9167 24.4638 26.9167 25.3346C26.9167 26.2055 26.2042 26.918 25.3333 26.918H19C18.1292 26.918 17.4167 26.2055 17.4167 25.3346C17.4167 24.4638 18.1292 23.7513 19 23.7513ZM28.5 31.668H9.5C8.62758 31.668 7.91667 30.9571 7.91667 30.0846V20.5846H30.0833V30.0846C30.0833 30.9571 29.3724 31.668 28.5 31.668ZM9.5 9.5013H11.0833V11.0846C11.0833 11.9555 11.7958 12.668 12.6667 12.668C13.5375 12.668 14.25 11.9555 14.25 11.0846V9.5013H23.75V11.0846C23.75 11.9555 24.4625 12.668 25.3333 12.668C26.2042 12.668 26.9167 11.9555 26.9167 11.0846V9.5013H28.5C29.3724 9.5013 30.0833 10.2122 30.0833 11.0846V17.418H7.91667V11.0846C7.91667 10.2122 8.62758 9.5013 9.5 9.5013ZM28.5 6.33464H26.9167V4.7513C26.9167 3.88047 26.2042 3.16797 25.3333 3.16797C24.4625 3.16797 23.75 3.88047 23.75 4.7513V6.33464H14.25V4.7513C14.25 3.88047 13.5375 3.16797 12.6667 3.16797C11.7958 3.16797 11.0833 3.88047 11.0833 4.7513V6.33464H9.5C6.88117 6.33464 4.75 8.4658 4.75 11.0846V30.0846C4.75 32.7035 6.88117 34.8346 9.5 34.8346H28.5C31.1188 34.8346 33.25 32.7035 33.25 30.0846V11.0846C33.25 8.4658 31.1188 6.33464 28.5 6.33464Z" fill="#231F20"/>
<mask id="mask0_1597_2" style="mask-type:luminance" maskUnits="userSpaceOnUse" x="4" y="3" width="30" height="32">
<path fill-rule="evenodd" clip-rule="evenodd" d="M11.0833 25.3346C11.0833 24.4638 11.7958 23.7513 12.6667 23.7513C13.5375 23.7513 14.25 24.4638 14.25 25.3346C14.25 26.2055 13.5375 26.918 12.6667 26.918C11.7958 26.918 11.0833 26.2055 11.0833 25.3346ZM19 23.7513H25.3333C26.2042 23.7513 26.9167 24.4638 26.9167 25.3346C26.9167 26.2055 26.2042 26.918 25.3333 26.918H19C18.1292 26.918 17.4167 26.2055 17.4167 25.3346C17.4167 24.4638 18.1292 23.7513 19 23.7513ZM28.5 31.668H9.5C8.62758 31.668 7.91667 30.9571 7.91667 30.0846V20.5846H30.0833V30.0846C30.0833 30.9571 29.3724 31.668 28.5 31.668ZM9.5 9.5013H11.0833V11.0846C11.0833 11.9555 11.7958 12.668 12.6667 12.668C13.5375 12.668 14.25 11.9555 14.25 11.0846V9.5013H23.75V11.0846C23.75 11.9555 24.4625 12.668 25.3333 12.668C26.2042 12.668 26.9167 11.9555 26.9167 11.0846V9.5013H28.5C29.3724 9.5013 30.0833 10.2122 30.0833 11.0846V17.418H7.91667V11.0846C7.91667 10.2122 8.62758 9.5013 9.5 9.5013ZM28.5 6.33464H26.9167V4.7513C26.9167 3.88047 26.2042 3.16797 25.3333 3.16797C24.4625 3.16797 23.75 3.88047 23.75 4.7513V6.33464H14.25V4.7513C14.25 3.88047 13.5375 3.16797 12.6667 3.16797C11.7958 3.16797 11.0833 3.88047 11.0833 4.7513V6.33464H9.5C6.88117 6.33464 4.75 8.4658 4.75 11.0846V30.0846C4.75 32.7035 6.88117 34.8346 9.5 34.8346H28.5C31.1188 34.8346 33.25 32.7035 33.25 30.0846V11.0846C33.25 8.4658 31.1188 6.33464 28.5 6.33464Z" fill="white"/>
</mask>
<g mask="url(#mask0_1597_2)">
<rect width="38" height="38" fill="#405CE1"/>
</g>
</g>
</svg>
