<svg width="34" height="49" viewBox="0 0 34 49" fill="none" xmlns="http://www.w3.org/2000/svg">
<path d="M29.9187 41.3735L22.3004 37.9758C22.0963 37.8848 21.8863 37.8148 21.6722 37.7639V33.7871C28.1548 31.6251 32.8415 25.4993 32.8415 18.2987C32.8415 11.4679 28.5576 5.33503 22.1629 2.97919C21.6288 1.36641 20.1077 0.199219 18.3182 0.199219H14.7234C12.9338 0.199219 11.4126 1.36659 10.8786 2.97956C7.7901 4.11741 5.1441 6.13922 3.22391 8.83228C1.24579 11.6066 0.200195 14.88 0.200195 18.2986C0.200195 25.4992 4.88685 31.625 11.3695 33.787V37.7638C11.1553 37.8147 10.9453 37.8847 10.7413 37.9757L7.79694 39.2888C6.96866 39.6583 7.54129 40.9422 8.36966 40.5731L11.314 39.26C11.5928 39.1357 11.8889 39.0727 12.1942 39.0727H20.8475C21.1528 39.0727 21.4489 39.1357 21.7276 39.26L29.3458 42.6577C31.4158 43.5808 30.7302 46.7928 28.4657 46.7928H4.57598C2.31463 46.7928 1.62238 43.5822 3.69585 42.6577L4.90101 42.1202C5.72929 41.7507 5.15657 40.4667 4.32819 40.8359L3.12304 41.3734C-0.306149 42.903 0.82907 48.1992 4.57598 48.1992H28.4657C32.2077 48.1992 33.3528 42.9052 29.9187 41.3735ZM23.6742 18.5616C23.6742 22.5064 20.4652 25.7158 16.5208 25.7158C12.5765 25.7158 9.36754 22.5065 9.36754 18.5616C9.36754 14.6167 12.5765 11.4074 16.5208 11.4074C20.4652 11.4074 23.6742 14.6168 23.6742 18.5616ZM1.60645 18.2987C1.60645 15.1745 2.56166 12.1835 4.36888 9.64875C5.97904 7.3905 8.14776 5.65022 10.6736 4.57491V12.3142C10.6736 12.3148 10.6737 12.3155 10.6737 12.3161C9.00548 13.8791 7.96119 16.1006 7.96119 18.5617C7.96119 23.282 11.801 27.1222 16.5208 27.1222C21.2405 27.1222 25.0803 23.282 25.0803 18.5617C25.0803 16.1006 24.036 13.8791 22.3678 12.3161C22.3678 12.3155 22.3679 12.3148 22.3679 12.3142V10.418C22.3679 9.51094 20.9617 9.51094 20.9617 10.418V11.246C19.6662 10.4565 18.1456 10.0013 16.5207 10.0013C14.8957 10.0013 13.3752 10.4565 12.0796 11.246V4.24941C12.0796 2.7915 13.2656 1.60547 14.7232 1.60547H18.318C19.7757 1.60547 20.9616 2.7915 20.9616 4.24941V6.57422C20.9616 7.48125 22.3678 7.48125 22.3678 6.57422V4.57256C27.827 6.9 31.435 12.3055 31.435 18.2987C31.435 26.5233 24.7444 33.2147 16.5206 33.2147C8.29672 33.2147 1.60645 26.5233 1.60645 18.2987ZM16.5208 34.6208C17.8092 34.6208 19.0629 34.4701 20.266 34.1865V37.6665H12.7757V34.1865C13.9788 34.4701 15.2325 34.6208 16.5208 34.6208Z" fill="white" stroke="white" stroke-width="0.4"/>
<path d="M11.8896 18.8309C11.8896 21.3849 13.9672 23.4627 16.521 23.4627C19.0747 23.4627 21.1523 21.3849 21.1523 18.8309C21.1523 16.277 19.0747 14.1992 16.521 14.1992C13.9672 14.1992 11.8896 16.277 11.8896 18.8309ZM19.7461 18.8309C19.7461 20.6095 18.2992 22.0564 16.521 22.0564C14.7427 22.0564 13.2959 20.6094 13.2959 18.8309C13.2959 17.0525 14.7427 15.6055 16.521 15.6055C18.2992 15.6055 19.7461 17.0525 19.7461 18.8309Z" fill="white" stroke="white" stroke-width="0.4"/>
</svg>
