<svg width="487" height="526" viewBox="0 0 487 526" fill="none" xmlns="http://www.w3.org/2000/svg">
<path d="M373.495 330.403C373.495 330.403 405.438 324.496 411.126 326.246C416.815 327.778 487.045 376.129 486.608 378.974C486.17 381.818 484.857 384.224 481.576 385.537C478.294 386.631 423.378 374.817 423.378 374.817L376.558 354.688L373.495 330.403Z" fill="url(#paint0_linear_461_1230)"/>
<path d="M307.859 460.143C307.859 460.143 321.424 489.679 326.018 493.398C330.613 497.117 410.251 527.31 412.439 525.122C414.627 522.934 415.939 520.746 414.845 517.246C413.97 513.745 372.62 475.458 372.62 475.458L329.3 448.766L307.859 460.143Z" fill="url(#paint1_linear_461_1230)"/>
<path d="M404.562 386.847L370.432 454.233C368.463 458.39 369.557 463.204 373.276 466.048L401.281 486.614L448.757 392.536L415.502 382.253C411.345 380.94 406.75 382.909 404.562 386.847Z" fill="url(#paint2_linear_461_1230)"/>
<path d="M423.378 374.816L419.221 383.13L377.871 465.175L377.433 466.05L372.62 475.458C372.62 475.458 371.088 475.458 367.806 475.02C360.586 474.145 345.053 471.957 321.642 465.612C318.142 464.737 314.423 463.643 310.484 462.549C308.734 462.112 307.203 461.674 305.452 461.018C296.263 458.392 286.199 454.892 275.26 451.172C272.416 450.297 269.571 449.203 266.508 448.109C261.695 446.359 256.444 444.39 251.193 442.421C247.474 440.889 243.536 439.358 239.598 437.826C217.063 428.637 191.683 417.26 163.46 403.039C121.891 382.036 90.3853 357.313 66.5376 333.246C63.037 329.746 59.7552 326.245 56.6922 322.963C52.0977 317.931 47.9408 313.118 44.2214 308.086C17.3107 274.393 5.27742 244.638 0.682906 231.073C0.0265469 228.885 0.245333 226.697 1.12048 224.947C1.99562 223.197 3.74592 221.665 5.71499 221.009C19.2797 216.852 50.3474 208.976 93.4483 210.507C99.7931 210.726 106.138 211.164 112.92 211.82C117.515 212.258 122.328 212.914 127.141 213.57C160.835 218.384 199.341 229.104 240.91 250.108C378.746 319.463 423.378 374.816 423.378 374.816Z" fill="#F1EDF9"/>
<path d="M302.17 377.44C302.17 377.44 322.518 365.188 338.051 372.846C348.334 377.878 407.844 417.916 447.226 444.389C451.82 447.452 447.663 455.985 442.412 454.016C397.561 438.044 330.175 413.978 319.892 408.727C304.358 401.288 302.17 377.44 302.17 377.44Z" fill="url(#paint3_linear_461_1230)"/>
<path d="M61.9432 255.578C69.3819 241.138 73.1013 225.385 73.1013 210.289C40.5021 211.383 16.6544 217.29 5.49632 220.791C1.33938 222.104 -1.06727 226.698 0.464238 230.855C4.40239 242.013 13.5914 264.767 32.1883 291.459C44.2215 282.489 54.5045 270.237 61.9432 255.578Z" fill="url(#paint4_linear_461_1230)"/>
<path d="M44.0028 307.868C59.099 298.46 72.6638 284.02 81.8528 265.861C91.0418 247.483 94.7612 228.23 93.2297 210.508C88.6352 210.289 84.4782 210.289 80.1025 210.289C80.1025 226.698 75.9456 243.326 68.0693 258.86C60.193 274.393 49.2536 287.739 36.1265 297.585C38.5331 300.867 41.1586 304.367 44.0028 307.868Z" fill="url(#paint5_linear_461_1230)"/>
<path opacity="0.4" d="M423.378 374.816L419.221 383.13C192.996 202.193 0.683105 224.728 0.683105 224.728C1.55825 222.978 3.30854 221.447 5.27762 220.79C18.8424 216.633 49.91 208.757 93.0109 210.288C99.3557 210.507 105.701 210.945 112.483 211.601C117.077 212.039 121.891 212.695 126.704 213.352C160.397 218.165 198.904 228.885 240.473 249.889C378.746 319.463 423.378 374.816 423.378 374.816Z" fill="#F0EEF4"/>
<path d="M377.652 465.392L377.214 466.267L372.401 475.675C372.401 475.675 370.869 475.675 367.588 475.238C360.368 474.363 344.834 472.175 321.424 465.83C317.923 464.955 314.204 463.861 310.266 462.767C308.515 462.329 306.984 461.892 305.233 461.235C296.044 458.61 285.98 455.109 275.041 451.39C272.197 450.515 269.353 449.421 266.29 448.327C261.476 446.577 256.225 444.608 250.975 442.639C247.255 441.107 243.317 439.576 239.379 438.044C216.844 428.855 191.465 417.478 163.241 403.257C121.672 382.254 90.1665 357.531 66.3188 333.464C62.8183 329.964 59.5365 326.463 56.4735 323.181C51.8789 318.149 47.722 313.336 44.0026 308.304C17.0919 274.611 5.05867 244.856 0.464156 231.291C-0.192203 229.103 0.0265828 226.915 0.901728 225.165C0.901728 224.727 80.1024 389.036 377.652 465.392Z" fill="#D4D1DB" fill-opacity="0.2"/>
<path d="M129.986 348.562C155.802 361.689 187.308 351.188 200.216 325.371C212.03 301.742 204.592 273.519 183.588 258.86C181.619 257.328 179.431 256.234 177.243 254.922C151.427 242.013 119.921 252.296 107.013 278.113C99.1367 293.866 99.7931 311.369 107.451 326.027C112.045 335.435 119.703 343.53 129.986 348.562Z" fill="url(#paint6_linear_461_1230)"/>
<path d="M135.018 338.499C155.365 348.782 180.088 340.687 190.371 320.34C199.779 301.743 193.653 279.646 177.244 268.05C175.712 266.956 173.962 265.862 172.212 264.987C151.864 254.704 127.142 262.799 116.859 283.146C110.733 295.398 111.17 309.401 117.077 320.778C120.797 328.216 126.923 334.561 135.018 338.499Z" fill="#0064AB"/>
<path d="M122.109 323.841C142.457 334.123 167.179 325.81 177.462 305.681C183.588 293.429 183.151 279.427 177.244 268.05C175.712 266.956 173.962 265.862 172.212 264.987C151.864 254.704 127.142 262.799 116.859 283.146C110.733 295.398 111.17 309.401 117.077 320.778C118.609 322.09 120.359 322.965 122.109 323.841Z" fill="#0088BD"/>
<path d="M162.366 277.455C164.116 281.612 162.804 286.425 160.834 290.582C157.771 296.708 152.521 301.959 146.395 305.241C141.581 307.866 135.674 309.179 130.423 307.648C125.172 306.335 120.359 301.74 119.703 296.271C117.952 279.424 154.052 257.108 162.366 277.455Z" fill="#00B0DA"/>
<path d="M271.541 411.793L253.6 410.918C253.382 412.449 252.288 417.7 250.537 419.888C248.568 422.514 240.254 428.202 237.848 429.734C236.316 430.828 237.191 433.015 237.191 433.015L275.917 424.045C276.135 424.045 273.947 416.169 271.541 411.793Z" fill="#390280"/>
<path d="M376.777 293.428C371.526 304.586 363.649 315.526 350.96 317.057C320.986 320.558 283.136 313.775 283.136 313.775L274.603 413.979L251.85 411.792H251.412C251.412 411.792 251.412 287.74 255.569 285.552C258.632 284.02 284.886 281.614 299.764 282.27H299.983C306.546 282.489 310.484 279.426 310.484 279.426L380.058 282.708C379.621 286.427 378.308 290.146 376.777 293.428Z" fill="#0088BD"/>
<path d="M253.6 410.917L251.631 411.793H251.193C251.193 411.793 251.193 287.741 255.35 285.553C258.413 284.021 284.668 281.615 299.545 282.271C296.482 283.146 262.789 292.335 261.914 292.773C261.258 293.429 253.6 410.917 253.6 410.917Z" fill="#00B0DA"/>
<path d="M376.777 293.428C351.179 293.647 312.673 285.114 299.764 282.051C306.109 280.301 310.266 279.207 310.266 279.207L379.84 282.489C379.621 286.427 378.308 290.146 376.777 293.428Z" fill="#0064AB"/>
<path d="M328.206 153.186L321.861 177.909L320.111 184.691L319.236 187.973C319.236 187.973 270.665 198.693 260.382 195.193C250.099 191.692 215.969 128.025 215.969 128.025L220.344 125.619L223.407 123.868L234.128 117.961L237.847 115.992L267.602 166.094L321.205 154.717L328.206 153.186Z" fill="#0088BD"/>
<path d="M320.986 154.717C320.986 154.717 268.04 171.126 266.29 170.689C264.539 170.251 233.909 117.961 233.909 117.961L237.629 115.992L267.383 166.094L320.986 154.717Z" fill="#00B0DA"/>
<path d="M319.236 188.19C319.236 188.19 270.665 198.911 260.382 195.41C250.099 191.91 215.969 128.243 215.969 128.243L220.344 125.836L223.407 124.086C229.971 137.213 256.225 188.19 262.789 189.941C269.353 191.472 310.047 181.189 321.861 178.126L320.111 184.909L319.236 188.19Z" fill="#0064AB"/>
<path d="M383.778 289.711L335.208 285.335L333.02 285.116L299.764 282.053C299.764 282.053 306.984 218.824 311.36 184.256C313.548 165.659 321.424 157.126 328.206 153.188C329.738 152.313 331.269 151.657 332.582 151.219C336.301 149.906 338.927 149.906 338.927 149.906L355.773 151.438C357.305 151.875 358.618 152.094 359.93 152.532C361.024 152.75 361.899 153.188 362.775 153.407C365.619 154.501 380.059 161.283 381.371 162.596C386.185 170.91 387.935 186.006 387.935 186.006L386.622 218.386L386.404 224.95L383.778 289.711Z" fill="#0088BD"/>
<path d="M361.9 137.652L354.023 154.499L336.739 152.53L340.459 141.59L361.9 137.652Z" fill="#FF8A8C"/>
<path d="M338.052 103.305L331.488 141.592L354.898 144.874L363.65 137.217L370.87 113.15L338.052 103.305Z" fill="#FFABA7"/>
<path d="M357.305 130.216C357.305 130.216 365.4 117.307 370.432 125.402C373.933 130.872 363.65 137.217 363.65 137.217L357.305 130.216Z" fill="#FFABA7"/>
<path d="M336.739 110.305C336.739 110.742 328.863 126.932 328.863 126.932L336.739 129.339L338.489 114.462L336.739 110.305Z" fill="#FFABA7"/>
<path d="M345.709 82.5197C343.302 84.0512 341.771 85.8015 341.114 87.5518C340.02 84.4888 340.458 81.4258 340.458 81.4258C329.081 86.8954 333.238 99.585 333.238 99.585C333.019 106.149 365.181 114.9 365.181 114.9L362.118 124.745C365.837 120.807 370.432 125.402 370.432 125.402L378.308 113.806C374.37 109.43 368.682 105.273 363.649 101.773C356.211 96.9596 350.085 90.1772 345.709 82.5197Z" fill="#28016A"/>
<path d="M341.333 215.98L332.582 151.219C336.301 149.906 338.927 149.906 338.927 149.906L346.803 150.563L355.773 151.438C357.305 151.875 358.618 152.094 359.93 152.532L341.333 215.98Z" fill="#F1EDF9"/>
<path d="M321.424 186.662L328.862 179.442L319.236 176.379L328.425 153.188C329.956 152.313 331.488 151.656 332.801 151.219L341.552 215.979L321.424 186.662Z" fill="#0064AB"/>
<path d="M357.524 184.255L364.306 191.256L341.552 215.979L360.149 152.531C361.243 152.75 362.118 153.188 362.993 153.406L367.588 180.755L357.524 184.255Z" fill="#0064AB"/>
<path d="M359.93 152.532L358.618 156.907L352.273 166.315L346.803 154.063L339.364 165.659L333.02 154.72L332.582 151.438C336.301 150.125 338.927 150.125 338.927 150.125L346.803 150.781L355.773 151.657C357.305 151.657 358.618 152.094 359.93 152.532Z" fill="#D4D1DB"/>
<path d="M338.927 149.905L346.803 150.562L339.802 162.814L332.582 151.218C336.301 149.687 338.927 149.905 338.927 149.905Z" fill="#F1EDF9"/>
<path d="M359.93 152.532L352.71 163.908L346.803 150.562L355.773 151.438C357.305 151.656 358.618 152.094 359.93 152.532Z" fill="#F1EDF9"/>
<path d="M335.207 285.333L333.02 285.114L336.958 221.885L343.74 209.633L345.49 210.727L338.927 222.541L335.207 285.333Z" fill="#0064AB"/>
<path d="M346.365 228.012C345.928 229.106 344.834 229.763 343.74 229.325C342.646 228.888 341.99 227.794 342.427 226.7C342.865 225.606 343.959 224.949 345.053 225.387C346.146 225.825 346.803 226.919 346.365 228.012Z" fill="#0064AB"/>
<path d="M345.272 240.266C344.834 241.36 343.74 242.017 342.646 241.579C341.552 241.142 340.896 240.048 341.333 238.954C341.771 237.86 342.865 237.203 343.959 237.641C345.053 238.079 345.709 239.172 345.272 240.266Z" fill="#0064AB"/>
<path d="M343.959 253.391C343.521 254.485 342.427 255.142 341.333 254.704C340.239 254.267 339.583 253.173 340.02 252.079C340.458 250.985 341.552 250.328 342.646 250.766C343.74 251.204 344.177 252.516 343.959 253.391Z" fill="#0064AB"/>
<path d="M352.492 264.332L375.683 266.739L374.152 271.333L363.212 272.865L352.929 268.27L352.492 264.332Z" fill="#0064AB"/>
<path d="M307.203 261.051L327.331 263.02L326.018 267.177L316.61 268.49L307.64 264.333L307.203 261.051Z" fill="#0064AB"/>
<path d="M224.282 107.461L214.437 118.181L220.344 126.277L229.752 121.682L228.439 108.555L224.282 107.461Z" fill="#FF8A8C"/>
<path d="M191.902 54.0756L164.773 7.47412C185.776 -3.68398 213.344 -2.15247 233.253 10.7559C242.88 17.1007 250.975 25.8522 260.601 32.197C273.51 40.5109 289.481 44.2302 304.577 42.2611C295.826 47.2932 287.293 52.5441 277.885 56.2635C268.478 59.9828 258.413 62.1707 248.349 61.0768C238.285 59.9828 228.877 55.8259 219.251 53.2005C209.624 50.575 200.873 49.2623 191.902 54.0756Z" fill="url(#paint7_linear_461_1230)"/>
<path d="M160.178 10.3169L351.835 339.809L356.211 336.746L164.773 7.47266L160.178 10.3169Z" fill="#F0EEF4"/>
<path d="M381.371 162.594L381.809 177.69L377.652 199.569L372.62 215.102L322.299 243.326L324.049 249.014L327.768 262.36C327.768 262.36 385.966 242.888 394.28 235.887C398.655 232.168 400.406 208.539 402.812 190.38C403.687 182.285 391.654 167.626 381.371 162.594Z" fill="#0088BD"/>
<path d="M234.347 114.678L228.221 103.738L211.374 103.957C211.374 103.957 210.28 106.364 213.125 107.458C215.75 108.552 221.657 109.208 221.657 109.208C221.657 109.208 226.908 121.241 231.721 119.928C236.535 118.616 234.347 114.678 234.347 114.678Z" fill="#FFABA7"/>
<path d="M213.562 109.21C213.562 109.21 211.593 111.836 212.249 113.586C212.906 115.336 222.532 116.211 222.532 116.211L223.407 114.024C223.407 114.242 216.187 107.898 213.562 109.21Z" fill="#FFABA7"/>
<path d="M214.219 105.052C214.219 105.052 212.25 107.677 212.906 109.427C213.562 111.178 223.189 112.053 223.189 112.053L224.064 109.865C224.064 109.865 216.844 103.739 214.219 105.052Z" fill="#FFABA7"/>
<path d="M213.343 113.805C213.343 113.805 211.593 116.211 212.031 117.743C212.468 119.274 221.22 120.15 221.22 120.15L222.095 118.181C222.095 118.181 215.75 112.711 213.343 113.805Z" fill="#FFABA7"/>
<path d="M213.781 118.617C213.781 118.617 212.687 120.804 213.344 122.117C214 123.43 221.439 122.773 221.439 122.773L221.876 121.023C221.876 121.023 215.75 117.304 213.781 118.617Z" fill="#FFABA7"/>
<path d="M323.831 248.797L313.985 249.453C313.985 249.453 301.952 257.767 301.952 259.517C301.733 261.049 304.14 263.893 304.577 263.893C305.015 263.893 306.765 263.893 306.765 263.893C306.765 263.893 307.859 266.081 308.516 266.3C309.391 266.519 311.36 266.956 311.36 266.956C311.36 266.956 312.673 268.269 313.11 268.488C313.548 268.706 316.173 268.706 316.611 268.488C317.048 268.269 322.299 262.799 322.518 261.924L326.456 258.642L323.831 248.797Z" fill="#FFABA7"/>
<path d="M322.08 243.105L323.83 248.794L373.932 221.446C373.932 221.446 383.559 199.786 384.434 189.722C385.528 179.657 381.59 172.656 381.59 172.656C381.59 172.656 383.34 193.66 370.651 217.07L322.08 243.105Z" fill="#0064AB"/>
<path d="M394.061 235.67C392.53 236.983 389.685 238.514 385.747 240.264C367.369 248.797 327.769 262.143 327.769 262.143L326.456 257.767V257.549C326.456 257.549 390.779 233.701 391.217 233.263C393.405 230.638 401.5 187.756 399.531 184.474C397.562 181.192 394.936 176.379 385.747 168.284C384.872 167.409 369.338 156.907 362.775 153.406C365.619 154.5 380.277 160.845 381.59 162.158C391.873 167.19 403.688 182.286 402.594 190.162C400.187 208.322 398.437 231.951 394.061 235.67Z" fill="#00B0DA"/>
<path d="M388.592 214.444C382.684 206.568 375.246 199.786 366.713 194.535C361.243 191.034 355.336 188.19 351.179 183.158C345.928 176.813 344.397 167.624 347.46 159.966L349.866 157.341L346.803 150.559L343.303 156.903L344.834 159.966C342.646 166.749 340.458 174.406 342.209 181.407C343.74 187.971 348.116 193.222 353.367 197.598C358.399 201.973 364.306 205.255 369.776 208.975C375.246 212.694 383.341 222.977 383.122 222.758L390.998 223.633L388.592 214.444Z" fill="#FF6790"/>
<defs>
<linearGradient id="paint0_linear_461_1230" x1="371.315" y1="342.741" x2="489.319" y2="363.999" gradientUnits="userSpaceOnUse">
<stop stop-color="#FF9A7A"/>
<stop offset="1" stop-color="#FF4E83"/>
</linearGradient>
<linearGradient id="paint1_linear_461_1230" x1="316.633" y1="451.346" x2="401.483" y2="536.064" gradientUnits="userSpaceOnUse">
<stop stop-color="#FF9A7A"/>
<stop offset="1" stop-color="#FF4E83"/>
</linearGradient>
<linearGradient id="paint2_linear_461_1230" x1="386.15" y1="419.427" x2="418.368" y2="436.066" gradientUnits="userSpaceOnUse">
<stop stop-color="#F66987"/>
<stop offset="1" stop-color="#C74F86"/>
</linearGradient>
<linearGradient id="paint3_linear_461_1230" x1="298.816" y1="396.725" x2="453.64" y2="424.616" gradientUnits="userSpaceOnUse">
<stop stop-color="#FF9A7A"/>
<stop offset="1" stop-color="#FF4E83"/>
</linearGradient>
<linearGradient id="paint4_linear_461_1230" x1="-2.45815" y1="241.035" x2="66.7444" y2="253.501" gradientUnits="userSpaceOnUse">
<stop stop-color="#F66987"/>
<stop offset="1" stop-color="#C74F86"/>
</linearGradient>
<linearGradient id="paint5_linear_461_1230" x1="43.8721" y1="254.6" x2="87.2024" y2="262.406" gradientUnits="userSpaceOnUse">
<stop stop-color="#F66987"/>
<stop offset="1" stop-color="#C74F86"/>
</linearGradient>
<linearGradient id="paint6_linear_461_1230" x1="101.965" y1="292.597" x2="205.035" y2="311.165" gradientUnits="userSpaceOnUse">
<stop stop-color="#FF9A7A"/>
<stop offset="1" stop-color="#FF4E83"/>
</linearGradient>
<linearGradient id="paint7_linear_461_1230" x1="162.432" y1="14.8456" x2="298.894" y2="59.6255" gradientUnits="userSpaceOnUse">
<stop stop-color="#FF9A7A"/>
<stop offset="1" stop-color="#FF4E83"/>
</linearGradient>
</defs>
</svg>
