<svg width="48" height="46" viewBox="0 0 48 46" fill="none" xmlns="http://www.w3.org/2000/svg">
<path d="M21.1504 0.538086C29.149 -1.05593 36.9251 4.13526 38.5195 12.1338L38.5547 12.3115L38.7344 12.333C43.8574 12.9601 47.7178 17.2948 47.75 22.4561C47.785 28.1235 43.2192 32.7468 37.5518 32.7822H30.0439C29.3526 32.7822 28.792 32.2216 28.792 31.5303C28.792 30.8389 29.3526 30.2784 30.0439 30.2783H37.5527C41.8381 30.2783 45.3115 26.8046 45.3115 22.5195C45.3114 18.2342 41.8381 14.7607 37.5527 14.7607H37.5508C36.8899 14.7649 36.325 14.2867 36.2188 13.6338H36.2178C35.5589 7.98242 31.0993 3.52583 25.4463 2.87207C18.7177 2.0938 12.6318 6.91731 11.8535 13.6455V13.6465C11.7876 14.2412 11.3125 14.7 10.7275 14.7549L10.6094 14.7607C6.32483 14.7363 2.83118 18.1889 2.80566 22.4736C2.78069 26.7587 6.23412 30.253 10.5195 30.2783H18.0293C18.7207 30.2783 19.2812 30.8389 19.2812 31.5303C19.2812 32.2217 18.7207 32.7822 18.0293 32.7822H10.5205C5.30437 32.7857 0.915469 28.8761 0.318359 23.6943C-0.33015 18.0637 3.70856 12.9731 9.33887 12.3242L9.51953 12.3037L9.55566 12.125C10.7254 6.2754 15.3 1.70412 21.1504 0.538086Z" fill="white" stroke="#5263E3" stroke-width="0.5"/>
<path d="M24.0361 19.7656C24.7271 19.7656 25.2881 20.3261 25.2881 21.0176V40.5225L25.7148 40.0957L29.5225 36.2871L29.5566 36.2529L29.5557 36.252C30.0218 35.8024 30.7478 35.7871 31.2324 36.1963L31.3262 36.2842C31.8062 36.7815 31.7921 37.5736 31.2949 38.0537L31.292 38.0566L24.9229 44.4277C24.8072 44.5433 24.6697 44.6354 24.5186 44.6982H24.5176C24.2099 44.8283 23.8629 44.8282 23.5557 44.6982H23.5547C23.4036 44.6354 23.2655 44.5435 23.1494 44.4277L16.7803 38.0566H16.7812L16.7783 38.0547L16.7461 38.0225C16.2666 37.5252 16.2804 36.7328 16.7773 36.2529C17.2746 35.7725 18.0678 35.7867 18.5479 36.2842L18.5508 36.2871L22.3584 40.0957L22.7852 40.5225V21.0176C22.7852 20.3263 23.3449 19.7659 24.0361 19.7656Z" fill="white" stroke="#5263E3" stroke-width="0.5"/>
</svg>
