<svg width="344" height="235" viewBox="0 0 344 235" fill="none" xmlns="http://www.w3.org/2000/svg">
<path fill-rule="evenodd" clip-rule="evenodd" d="M21.0429 204.848C13.681 190.624 11.6468 174.396 14.2128 158.989C15.5867 150.932 18.2572 142.851 22.2822 135.711C26.1519 128.919 31.1452 122.69 31.3513 114.667C31.5487 106.762 27.1103 98.5149 30.3627 91.3171C36.4016 77.9669 58.9626 79.2789 71.336 74.7967C89.0193 68.5484 94.1342 53.69 104.174 40.5163C114.213 27.3426 128.712 16.8989 145.472 12.6219C162.232 8.34485 181.237 10.4731 195.848 19.4746C203.025 23.9658 207.436 29.0919 210.648 36.4088C213.083 41.9884 215.492 47.9259 220.532 51.539C226.79 56.202 235.128 55.5002 242.553 56.6503C259.453 59.2225 276.035 66.0904 287.996 77.6551C293.796 83.2441 298.221 89.9309 301.047 97.2192C303.753 104.379 304.844 112.378 309.268 119.065C313.591 125.384 320.785 129.637 324.832 136.176C330.025 144.719 324.478 153.187 325.111 162.112C326.128 176.345 337.168 196.84 325.361 209.403C320.585 214.448 314.311 213.503 307.753 212.897C299.125 212.258 289.898 210.974 281.843 207.858C274.919 205.185 268.161 202.044 260.71 201.252C255.19 200.603 249.68 199.835 244.152 199.305C240.546 199.038 250.618 214.842 232.242 214.742C214.428 213.422 213.038 206.293 205.517 206.455C188.653 206.885 183.832 212.836 166.677 215.348C130.646 218.143 122.014 207.414 82.697 203.659C64.8829 202.339 57.824 208.543 46.2632 211.89C37.1702 213.738 28.0772 215.587 21.0429 204.848Z" fill="#EDEEF7" fill-opacity="0.5"/>
<path d="M177.604 126.896V126.687C177.604 126.478 177.394 126.06 177.183 125.642C176.763 124.806 175.922 124.178 174.45 123.969L174.66 121.879C176.763 122.088 178.235 123.342 178.866 124.597C179.286 125.433 179.496 126.06 179.496 126.478C179.496 126.478 179.496 126.478 179.496 126.687C179.496 126.687 179.496 126.687 179.496 126.896C179.496 126.896 179.496 126.896 179.496 127.105C179.707 129.405 180.758 142.157 181.599 154.7C182.651 168.497 183.912 182.086 183.912 182.086L181.81 182.295C182.02 182.295 177.814 130.032 177.604 126.896Z" fill="#96A6BC"/>
<path d="M134.286 183.132C134.286 183.132 138.281 132.96 138.702 128.152C138.702 128.152 138.702 128.152 138.702 127.943V127.734C138.702 127.734 138.702 127.734 138.702 127.525C138.702 127.107 138.912 126.48 139.543 125.643C140.173 124.389 141.645 123.135 143.748 122.926L143.959 125.016C141.435 125.225 141.015 127.525 140.804 128.152C140.594 131.915 136.388 183.551 136.388 183.551L134.286 183.132Z" fill="#96A6BC"/>
<path d="M178.865 122.299C178.024 116.445 178.655 104.738 179.917 100.139C181.178 95.5402 179.706 92.4044 179.706 92.4044C177.393 89.0596 166.879 88.8505 159.099 89.0596C151.319 88.6415 140.805 89.0596 138.491 92.4044C138.491 92.4044 137.019 95.5402 138.281 100.139C139.543 104.738 140.174 116.236 139.333 122.299C138.491 128.152 134.076 134.006 135.548 136.305C136.389 137.559 144.8 137.977 152.58 138.187H165.407C173.188 137.977 181.599 137.35 182.44 136.305C184.122 134.215 179.706 128.152 178.865 122.299Z" fill="#96A6BC"/>
<path d="M130.711 140.489C131.132 142.997 133.024 144.461 133.024 144.461C135.968 144.461 184.753 144.67 185.594 144.043C186.435 143.415 186.856 141.325 187.066 139.861C187.277 138.398 187.066 134.008 185.174 133.59C183.281 133.172 180.127 133.172 178.024 133.381C175.921 133.59 138.912 133.172 138.912 133.172C138.912 133.172 133.235 132.545 131.763 134.844C130.501 136.517 130.501 139.443 130.711 140.489Z" fill="#96A6BC"/>
<path d="M131.552 135.469C132.604 133.588 134.706 132.961 135.758 133.17C136.809 133.379 183.491 132.334 184.753 132.961C186.015 133.588 186.856 134.215 186.435 134.633C185.174 135.888 166.879 135.26 158.468 135.469C149.847 135.679 131.552 135.469 131.552 135.469Z" fill="#B6C2D3"/>
<path d="M169.192 77.7687C177.603 75.4692 173.398 95.9561 170.874 103.9C168.771 110.172 172.136 114.562 172.136 114.771C171.715 116.861 168.351 114.98 168.351 114.98C158.468 90.1027 167.93 79.6502 168.561 78.3959C168.982 77.1416 169.192 77.7687 169.192 77.7687Z" fill="#380F01"/>
<path d="M159.098 100.973L171.084 92.1932C171.084 92.1932 166.668 91.5661 167.72 80.2773L163.514 83.2041H159.309C160.781 91.357 156.996 91.148 156.996 91.148L159.098 100.973Z" fill="#FFC8AF"/>
<path d="M163.094 83.2058H159.309C159.309 83.4149 158.889 84.6692 158.678 85.9235C159.519 87.3868 167.3 95.7489 169.192 95.9579C169.823 95.9579 171.295 93.0312 170.244 91.986C168.141 89.8954 167.72 86.9687 167.51 85.5054C167.51 84.8782 167.51 81.9515 167.51 80.9062L163.094 83.2058Z" fill="#FFC8AF"/>
<path d="M188.538 186.893C188.538 183.967 186.435 137.557 185.594 130.659C185.174 127.523 185.384 124.596 184.753 122.506C184.122 120.415 183.702 119.788 181.599 119.788C176.342 119.788 173.818 120.833 169.613 121.878L168.982 119.37C172.977 118.325 175.921 117.07 181.599 117.07C184.963 117.07 186.856 119.37 187.276 121.878C187.907 124.387 187.907 127.314 188.117 130.241C188.959 137.348 191.061 183.549 191.061 186.893H188.538Z" fill="#B6C2D3"/>
<path d="M126.505 186.893C126.505 183.758 128.608 137.557 129.449 130.241C129.87 127.314 129.66 124.387 130.29 121.878C130.711 119.37 132.603 117.07 135.968 117.07C141.646 117.07 144.589 118.325 148.585 119.37L147.954 121.878C143.748 120.833 141.225 119.788 135.968 119.788C133.865 119.997 133.445 120.624 132.814 122.506C132.393 124.596 132.393 127.523 131.973 130.659C131.132 137.557 129.029 183.967 129.029 186.893H126.505Z" fill="#B6C2D3"/>
<path d="M171.295 122.714C176.131 126.686 177.393 131.703 176.972 134.421C176.552 136.302 175.711 143.41 175.711 144.246C175.711 146.337 150.057 146.964 147.743 145.919C146.692 145.501 148.585 137.766 146.692 136.302C145.22 135.048 145.22 135.257 145.01 135.257C138.071 131.912 148.164 122.087 150.898 121.042C153.842 120.206 171.295 122.714 171.295 122.714Z" fill="#3C3C6D"/>
<path d="M171.085 90.7307C169.823 92.4031 167.09 94.7027 164.146 95.1208C161.622 94.4937 158.258 92.6122 157.417 89.8945C157.417 89.8945 153.632 93.2393 150.688 93.0303C154.262 100.765 151.739 114.144 148.795 118.116C146.272 121.67 147.323 123.343 147.323 123.343L154.893 123.552L165.618 121.461C165.618 121.461 171.716 123.97 170.664 121.043C169.823 118.116 175.921 97.6294 177.814 95.748L171.085 90.7307Z" fill="white"/>
<path d="M171.295 90.5195C174.449 92.1919 178.865 92.1919 179.706 93.0281C179.706 93.0281 177.603 105.362 176.973 106.616C176.762 107.244 176.552 109.752 175.711 111.425C174.66 113.933 173.818 117.278 174.029 118.95C174.239 121.668 178.234 127.312 177.603 131.075C177.393 132.121 175.921 126.267 168.351 124.804C165.407 124.177 157.206 126.894 157.417 125.013C157.627 123.131 164.146 109.334 164.146 109.334C164.146 109.334 168.351 100.345 169.613 97.6273C170.244 96.1639 171.295 90.5195 171.295 90.5195Z" fill="#313164"/>
<path d="M169.192 89.0586L173.818 91.1491L173.608 95.1211L171.295 94.4939L172.767 96.7935C172.767 96.7935 172.136 100.556 169.192 103.901C167.93 105.365 162.673 114.772 162.673 114.772C162.673 114.772 164.986 106.828 166.879 103.274C168.982 99.3021 169.823 94.703 170.243 92.6125C170.243 90.5219 169.192 89.0586 169.192 89.0586Z" fill="#3C3C6D"/>
<path d="M155.524 89.8945C150.478 92.1941 148.375 91.776 147.324 92.4031C147.324 92.4031 146.272 107.873 146.482 109.336C146.693 110.8 149.006 114.563 147.954 117.071C146.693 119.58 141.015 127.942 141.015 133.795C141.015 134.84 144.8 126.478 151.739 125.851C154.683 125.433 163.305 126.06 163.305 125.433C163.305 121.461 163.305 120.207 164.567 109.963C164.567 109.963 158.258 96.5842 157.417 94.4937C156.996 92.6122 155.524 89.8945 155.524 89.8945Z" fill="#3C3C6D"/>
<path d="M158.468 88.6406L153.631 90.9402V94.4941L156.786 94.285L155.314 97.6298C155.314 97.6298 156.155 97.8389 159.099 101.811C160.15 103.274 164.986 111.427 164.986 111.427C164.986 111.427 164.986 108.291 163.094 104.529C162.043 102.438 159.729 98.257 158.678 94.285C157.627 90.9402 158.468 88.6406 158.468 88.6406Z" fill="#313164"/>
<path d="M154.473 126.269C154.683 126.478 160.361 126.478 160.571 126.478C161.833 127.523 163.936 127.732 164.987 127.941C166.669 128.15 166.039 127.941 167.511 128.987C168.982 129.823 169.193 129.823 169.403 129.614C169.613 129.405 168.772 128.777 167.931 128.15C167.3 127.523 165.408 126.687 165.618 126.687C166.039 126.687 169.193 128.568 169.613 128.987C170.244 129.196 171.506 129.405 170.875 128.987C170.454 128.568 167.721 126.687 167.511 126.269C167.09 125.851 170.875 128.359 171.296 128.359C171.716 128.568 171.716 128.15 171.085 127.523C170.665 127.105 167.931 125.224 167.721 125.015C167.511 125.015 168.772 125.433 169.193 125.642C169.824 126.06 170.244 126.269 170.454 126.478C171.085 126.896 171.926 126.896 171.085 126.06C170.244 125.433 169.824 124.805 169.613 124.805C169.193 124.596 168.352 124.178 167.09 123.969C166.669 123.969 162.254 123.342 161.202 123.133C158.258 122.506 156.155 122.297 155.735 122.297L154.473 126.269Z" fill="#FFC8AF"/>
<path d="M156.786 121.25L159.52 122.504L158.258 127.731H155.314L156.576 121.877L156.786 121.25Z" fill="white"/>
<path d="M148.164 92.1925C146.062 91.7744 144.379 93.4468 143.328 100.555C142.487 105.99 139.122 118.951 140.174 121.042C142.066 124.595 154.262 129.404 156.365 128.985C156.576 128.358 157.627 125.014 158.047 122.296L148.795 118.533C148.375 117.488 149.636 107.871 149.005 105.363C148.585 104.108 148.164 92.1925 148.164 92.1925Z" fill="#3C3C6D"/>
<path d="M179.706 117.905C179.496 118.114 173.819 118.533 173.608 118.742C172.347 119.787 170.454 120.205 169.192 120.414C167.51 120.832 168.141 120.623 166.669 121.668C165.197 122.714 164.987 122.714 164.777 122.505C164.566 122.295 165.407 121.668 166.038 120.832C166.669 120.205 168.562 119.16 168.141 119.369C167.72 119.369 164.777 121.668 164.356 121.877C163.935 122.086 162.674 122.505 163.094 122.086C163.515 121.459 166.038 119.578 166.248 119.16C166.669 118.742 163.094 121.459 162.674 121.668C162.253 121.877 162.253 121.459 162.674 120.832C163.094 120.414 165.618 118.324 165.828 118.114C166.038 118.114 164.777 118.533 164.566 118.742C163.935 119.16 163.725 119.369 163.305 119.578C162.674 119.996 161.833 119.996 162.674 119.369C163.515 118.742 163.725 118.114 164.146 117.905C164.566 117.696 165.407 117.278 166.459 116.86C166.879 116.651 171.295 115.815 172.347 115.606C175.501 114.77 177.604 114.352 178.024 114.352L179.706 117.905Z" fill="#FFC8AF"/>
<path d="M174.029 114.562L172.557 114.981L173.609 120.834L176.342 120.625L174.45 114.981L174.029 114.562Z" fill="white"/>
<path d="M178.865 92.8169C180.337 91.5626 181.599 94.2803 183.912 99.9247C186.435 105.778 190.01 116.231 188.538 117.903C187.066 119.575 178.445 123.129 176.342 123.338C175.921 121.457 174.449 118.739 173.398 114.558L180.968 112.886C180.968 111.841 178.865 110.795 176.552 107.66C175.711 106.614 178.865 92.8169 178.865 92.8169Z" fill="#3C3C6D"/>
<path d="M149.847 100.973C149.847 103.899 149.216 113.725 149.636 116.651C149.636 117.07 158.468 121.669 158.468 121.669L157.417 124.804C157.417 124.804 146.692 119.787 146.062 118.951C145.431 118.115 146.062 117.279 146.062 117.279L145.01 116.651L147.323 116.233H145.221L146.903 114.77L149.847 100.973Z" fill="#313164"/>
<path d="M171.927 130.241C164.567 128.151 165.828 134.422 163.726 137.976C156.366 150.31 159.73 170.797 155.735 179.159C154.053 182.504 153.212 184.594 153.422 186.058C153.632 187.939 155.104 188.566 156.156 188.566C160.151 188.566 160.151 186.685 160.571 182.504C160.782 180.413 160.992 179.786 161.413 177.278C163.095 168.706 173.399 153.028 173.188 145.711C172.978 138.394 174.66 141.321 175.291 136.304C176.132 131.495 171.927 130.241 171.927 130.241Z" fill="#FFC8AF"/>
<path d="M163.516 138.184C156.156 150.518 159.52 171.005 155.525 179.367C155.104 180.413 154.684 181.249 154.263 181.876C154.263 183.13 154.263 184.384 154.263 185.43C155.104 182.921 157.207 179.367 158.469 177.068C160.151 173.932 161.623 153.027 162.674 148.846C163.726 144.665 166.039 141.529 165.829 139.648C165.618 137.766 165.829 131.704 168.983 130.031C164.777 130.24 165.408 135.258 163.516 138.184Z" fill="#FFC8AF"/>
<path d="M160.571 183.758C158.889 186.058 154.894 186.058 153.842 182.504C151.319 188.357 154.263 190.866 155.945 190.866C157.627 190.657 159.94 188.984 160.571 186.894C160.992 184.803 160.782 183.34 160.571 183.758Z" fill="#3C3C6D"/>
<path d="M159.519 129.824C152.369 128.988 153.841 134.424 151.949 138.186C145.64 151.148 150.477 170.798 147.323 179.579C144.379 187.522 145.43 187.732 148.164 188.568C150.477 189.195 152.369 188.777 152.79 184.596C153 182.505 153.421 179.788 153.631 177.279C154.262 169.335 162.042 151.566 162.042 144.249C162.042 138.605 163.514 140.695 163.724 135.678C163.724 130.87 159.519 129.824 159.519 129.824Z" fill="#FFC8AF"/>
<path d="M151.949 138.395C145.64 151.356 150.477 171.007 147.322 179.787C146.271 182.296 145.85 184.177 145.64 185.432C146.271 186.686 146.692 187.731 146.692 187.731C146.692 187.731 149.215 180.205 149.846 178.324C150.477 176.652 150.477 165.99 151.107 154.492C151.738 142.994 153.841 142.367 154.262 140.277C154.682 138.186 153.631 132.124 157.626 129.824H157.416C152.579 130.033 153.631 135.05 151.949 138.395Z" fill="#FFC8AF"/>
<path d="M152.79 183.551C151.318 186.06 147.323 186.269 146.061 182.715C143.748 188.777 147.112 191.077 148.584 190.868C150.267 190.659 152.58 188.777 153 186.478C153.211 184.596 153 183.133 152.79 183.551Z" fill="#3C3C6D"/>
<path d="M169.192 77.9796C168.561 83.4149 164.146 87.805 160.571 87.3869C158.047 86.9688 155.524 83.833 154.262 76.9344C153.211 71.29 155.103 66.4818 162.253 66.4818C169.192 66.2728 169.823 72.3352 169.192 77.9796Z" fill="#FFC8AF"/>
<path d="M163.936 72.1232C160.782 70.0327 154.474 72.9594 154.053 75.259C152.791 72.5413 155.315 66.4788 159.52 65.8517C164.567 65.0155 166.039 65.4336 166.039 67.106C166.249 69.1965 163.936 72.1232 163.936 72.1232Z" fill="#380F01"/>
<path d="M166.248 66.4804C168.561 65.6442 174.028 69.6162 171.505 77.9782C170.033 82.7864 167.72 83.6226 167.72 83.6226V76.3058L163.935 71.4977L166.248 66.4804Z" fill="#380F01"/>
<path d="M166.458 76.0922C167.089 75.6741 168.351 75.256 168.561 76.0922C168.772 76.9284 168.772 79.8551 167.72 80.2732C166.458 80.2732 166.458 76.0922 166.458 76.0922Z" fill="#FFC8AF"/>
<path d="M163.725 69.8216C164.777 69.6126 167.3 74.6298 167.51 75.2569C167.721 75.675 167.931 75.466 167.931 75.466C167.931 75.466 165.407 70.0307 164.356 69.4035C163.305 68.7764 163.725 69.8216 163.725 69.8216Z" fill="#5B250E"/>
<path d="M162.884 70.451C161.412 69.6148 154.052 69.8238 153.842 74.632C153.421 73.5867 154.052 71.2872 156.786 70.2419C159.52 69.1967 162.884 69.6148 163.094 69.8238C163.515 70.2419 162.884 70.451 162.884 70.451Z" fill="#5B250E"/>
<path d="M163.515 69.8267C163.095 69.1996 156.366 67.1091 153.842 73.1715C153.842 73.1715 155.945 67.3181 160.782 67.7362C162.884 67.9453 163.936 69.1996 163.936 69.1996L163.515 69.8267Z" fill="#5B250E"/>
<path d="M163.305 70.2423C164.146 70.2423 167.3 75.4686 167.3 75.4686L167.511 75.2595C167.511 75.2595 164.146 69.8242 163.515 69.8242C163.095 69.8242 163.305 70.2423 163.305 70.2423Z" fill="#5B250E"/>
<path d="M75.1975 68.1523C76.0386 70.0338 83.1881 84.6674 85.0806 85.7126C86.9732 86.7579 87.1834 88.2212 85.9218 89.0574C84.6601 89.8936 83.1881 93.2384 73.5152 87.8031C63.8423 82.3678 75.1975 68.1523 75.1975 68.1523Z" fill="#F2F2F2"/>
<path d="M100.431 74.2096C101.062 73.5824 102.114 72.3281 102.534 71.701C102.955 71.0738 104.427 70.6557 105.268 69.6105C105.688 69.1923 106.319 69.1923 106.319 69.6105C106.319 70.2376 105.478 70.8648 105.058 71.4919C104.637 72.3281 107.371 71.4919 108.001 71.2829C108.632 71.0738 112.417 70.2376 112.628 70.6557C112.838 71.4919 108.422 72.1191 108.632 72.3281C108.843 72.5372 113.258 71.0738 113.258 71.701C113.258 72.9553 109.473 73.1643 109.263 73.7915C109.263 73.7915 110.104 73.5824 111.156 73.3734C111.997 73.1643 112.838 72.7462 113.048 72.7462C114.52 73.7915 108.422 74.4186 108.843 75.0458C109.263 75.4639 112.207 74.4186 112.207 75.0458C112.207 75.4639 108.422 76.3001 108.422 76.3001C108.422 76.3001 103.586 78.3906 101.693 78.8087C100.642 79.0177 97.6977 80.8992 97.6977 80.8992L97.0669 76.3001C97.0669 76.3001 99.5903 75.2548 100.431 74.2096Z" fill="#FFC8AF"/>
<path d="M93.0718 77.3464L98.9596 75.0469C98.9596 75.0469 101.273 80.9003 101.904 81.7365L96.8568 84.0361L93.0718 77.3464Z" fill="#F2F2F2"/>
<path d="M95.3844 76.509C93.7021 76.0909 85.5012 81.1081 82.347 82.7805C78.9825 84.453 79.4031 92.1878 80.6647 92.6059C81.9264 93.024 99.59 88.4249 98.5386 82.7805C97.2769 77.1362 95.3844 76.509 95.3844 76.509Z" fill="#F2F2F2"/>
<path d="M71.4117 62.7148C72.6734 63.551 75.6173 67.1049 75.6173 67.1049L76.6687 72.5402C76.6687 72.5402 71.8323 68.3592 70.5706 68.1502C69.3089 67.9411 71.4117 62.7148 71.4117 62.7148Z" fill="#ECECEC"/>
<path d="M93.071 200.9C93.7019 200.691 94.1224 200.063 93.9122 199.436L84.2393 145.083C82.3467 133.376 75.4075 129.613 68.8888 129.613C60.6879 130.24 56.272 135.885 54.8 145.083L45.9683 199.436C45.9683 200.063 46.1785 200.691 46.8094 200.9C47.4402 201.109 48.0711 200.482 48.0711 199.854L56.9028 145.501C58.1645 136.93 61.529 132.749 68.6785 132.122C74.5664 132.331 80.0337 134.84 81.9262 145.501L91.5991 199.854C91.5991 200.482 92.2299 200.9 92.6505 200.9C92.8608 200.9 92.8608 200.9 93.071 200.9Z" fill="#313164"/>
<path d="M83.3979 173.928L89.496 172.255C89.9165 172.046 90.3371 171.628 90.1268 171.21C89.9166 170.792 89.496 170.374 89.0754 170.583L82.9773 172.255C82.5567 172.464 82.1362 172.883 82.3465 173.301C82.3465 173.719 82.767 173.928 83.1876 173.928C83.1876 174.137 83.3979 174.137 83.3979 173.928Z" fill="#3C3C6D"/>
<path d="M86.132 153.023C86.132 153.023 95.8049 157.623 93.4918 160.758C90.1273 165.148 89.917 170.793 92.4404 176.855C93.2815 178.946 93.0712 179.782 92.6507 180.409C92.2301 181.036 91.5993 181.872 90.3376 181.872C88.2348 181.872 83.3984 177.273 80.6647 172.047C80.0339 170.584 80.875 169.12 77.3002 166.821C76.6694 166.403 75.4077 163.894 75.4077 163.894C75.4077 163.894 76.6694 161.595 78.3516 160.131C80.4544 157.414 84.2395 154.278 86.132 153.023Z" fill="#3C3C6D"/>
<path d="M101.903 182.295C101.903 182.295 110.524 180.623 111.996 184.177C114.73 191.494 119.145 191.494 123.561 193.793C125.664 194.839 126.505 195.675 126.716 196.72C126.926 197.347 127.136 198.392 126.295 199.438C124.823 201.11 118.935 203.201 111.155 200.483C109.683 199.856 108.001 199.438 106.739 200.065C106.108 200.483 103.374 199.647 103.374 199.647C103.374 199.647 102.744 196.929 102.744 194.42C101.903 190.867 101.692 184.595 101.903 182.295Z" fill="#3C3C6D"/>
<path d="M45.3373 173.51L51.4354 171.837C51.856 171.628 52.2766 171.21 52.0663 170.792C52.0663 170.374 51.4354 169.956 51.0149 170.165L44.9168 171.837C44.4962 172.046 44.0756 172.465 44.2859 172.883C44.2859 173.301 44.7065 173.51 45.127 173.51H45.3373Z" fill="#3C3C6D"/>
<path d="M88.2344 206.123C88.8652 205.913 89.2858 205.286 89.0755 204.659L78.7718 144.871C76.8792 131.909 69.3091 127.938 62.3699 127.938H62.1596C53.7484 128.565 49.1222 134.836 47.6503 144.871L38.3979 204.659C38.3979 205.286 38.8185 205.913 39.4494 206.123C40.0802 206.332 40.711 205.704 40.711 205.077L49.9634 145.289C51.4353 135.881 55.0101 131.282 62.5802 130.446C68.8886 130.655 74.5662 133.373 76.669 145.289L86.9727 205.077C86.9727 205.704 87.6035 206.123 88.0241 206.123C88.2344 206.123 88.2344 206.123 88.2344 206.123Z" fill="#313164"/>
<path d="M42.604 131.491C42.604 129.401 44.076 127.938 45.9685 127.938H84.8703C86.7629 127.938 88.2348 129.61 88.2348 131.491C88.2348 132.955 87.604 134 86.5526 134.627C85.0806 136.09 76.2488 137.136 65.3143 137.136C53.9591 137.136 44.9171 135.881 44.076 134.418C43.0246 133.791 42.604 132.746 42.604 131.491Z" fill="#FBD15B"/>
<path d="M44.2866 128.565C44.2866 129.819 53.7492 130.865 65.3146 130.865C76.8801 130.865 86.3427 129.819 86.3427 128.565C86.3427 127.311 76.8801 126.266 65.3146 126.266C53.7492 126.266 44.2866 127.311 44.2866 128.565Z" fill="#FBD15B"/>
<path d="M76.8791 105.152C77.2997 106.407 80.6641 114.978 82.7669 115.814C92.0193 118.95 102.744 118.741 113.468 121.249C121.248 123.131 122.51 132.538 117.884 137.973C107.159 151.144 96.4352 166.822 96.4352 169.331C91.3884 170.376 81.7155 155.743 81.7155 155.743C81.7155 155.743 89.9165 145.29 96.4352 136.092C98.3277 133.583 59.6361 130.238 58.1642 124.385C56.6922 118.741 76.8791 105.152 76.8791 105.152Z" fill="#3C3C6D"/>
<path d="M49.1227 113.516C48.9124 126.477 52.9077 128.777 58.1647 129.822C64.0526 130.658 95.1741 143.201 95.1741 146.755C95.1741 153.863 97.4871 183.757 100.431 193.583C101.062 195.882 118.095 191.91 118.095 191.91C115.992 177.695 112.417 157.208 110.525 143.62C109.473 136.303 108.422 135.258 105.478 132.749C100.011 127.941 86.9731 123.133 78.7722 117.279C74.5666 114.352 68.4685 105.363 68.4685 105.363L49.1227 113.516Z" fill="#3C3C6D"/>
<path d="M80.6648 46.8242C81.0854 46.8242 81.2957 46.8242 81.2957 47.0333C81.2957 47.2423 81.2957 49.96 80.4546 50.169C79.8237 50.5871 80.034 50.169 80.034 50.169C80.034 50.169 81.0854 48.0785 80.6648 47.2423C80.6648 47.0333 80.034 47.0333 80.034 47.0333L79.8237 46.8242H80.6648Z" fill="#313164"/>
<path d="M69.9404 46.1979C69.9404 44.7345 68.4684 43.8983 67.417 44.7345C66.5759 45.5707 65.1039 49.3337 66.7862 50.588C68.4684 52.0513 69.9404 46.1979 69.9404 46.1979Z" fill="#FFC8AF"/>
<path d="M62.5804 44.9492C61.529 46.8307 62.7907 60.2099 60.0571 62.0914C57.3234 63.9729 72.6739 71.9168 72.6739 71.9168C72.6739 71.9168 69.9402 63.5548 77.0898 60.628C79.4029 59.7918 62.5804 44.9492 62.5804 44.9492Z" fill="#FFC8AF"/>
<path d="M72.2532 37.2148C76.8794 37.2148 79.1925 38.8873 80.2439 45.7859C80.2439 46.204 79.8233 47.2493 79.8233 47.6674V47.8764C80.4542 49.5488 81.5056 52.2665 81.5056 52.6846C81.5056 53.1027 80.6645 53.5208 79.8233 53.5208C80.0336 54.7751 80.0336 55.8204 80.0336 57.0747C80.0336 59.1652 79.8233 60.2104 79.4028 60.4195C77.0897 60.8376 73.3046 58.7471 70.9916 58.1199C67.6271 57.4928 67.2065 52.4756 66.786 48.9217C65.5243 43.2773 66.3654 37.2148 72.2532 37.2148Z" fill="#FFC8AF"/>
<path d="M79.1919 40.9741C80.033 40.1379 79.1919 40.347 80.4536 38.8836C80.8741 38.2564 80.8741 36.7931 80.8741 36.7931L77.7199 37.2112C77.7199 37.2112 80.033 37.0021 80.6638 36.1659C80.8741 35.9569 74.9863 35.5388 74.9863 35.5388C74.9863 35.5388 69.9395 33.6573 65.1031 34.9116C61.9489 35.7478 61.5283 37.6293 61.5283 37.6293C61.5283 37.6293 55.0096 42.0194 59.6358 51.4267C59.6358 51.4267 60.6872 55.8167 60.4769 57.071C62.1592 57.9072 66.5751 54.3534 66.5751 54.3534C66.5751 54.3534 67.8367 51.8448 67.2059 50.5905C66.1545 48.0818 67.2059 46.2004 67.8367 47.2456C68.047 47.4547 68.4676 49.1271 68.8881 49.3361C69.3087 49.5452 70.7807 51.6357 70.5704 51.2176C69.519 47.0366 72.2526 42.8556 73.304 41.8103C74.3554 40.9741 70.1498 39.5108 68.6779 39.3017C67.4162 39.0927 70.9909 39.0927 74.3554 41.3922C75.4068 41.8103 79.1919 40.9741 79.1919 40.9741Z" fill="#380F01"/>
<path d="M68.2569 47.4538C67.8364 46.8266 65.9438 46.4085 65.9438 47.8719C65.9438 49.5443 66.9952 52.6801 68.2569 52.471C69.7289 52.471 68.2569 47.4538 68.2569 47.4538Z" fill="#FFC8AF"/>
<path d="M67.4165 46.6172L76.038 46.8263L75.4072 48.2905L67.6268 47.0355L67.4165 46.6172Z" fill="#3C3C6D"/>
<path d="M80.0336 47.038C79.8233 45.9927 76.8794 46.2018 75.828 46.6199C74.5663 47.038 74.7766 50.8009 76.2485 51.01C77.2999 51.01 78.3513 51.01 79.4027 50.5919C80.0336 49.9647 80.2438 48.0833 80.0336 47.038ZM78.9822 50.1738C78.7719 50.3828 77.9308 50.5919 76.8794 50.3828C75.828 50.3828 75.6177 47.2471 76.6691 46.829C77.5102 46.6199 79.613 46.4108 79.8233 47.2471C80.0336 48.0833 79.613 49.7557 78.9822 50.1738Z" fill="#3C3C6D"/>
<path d="M60.6875 59.9961C57.7436 63.3409 53.7483 66.6857 52.6969 68.1491C51.4352 69.8215 48.4913 85.9184 49.9633 96.371C51.2249 104.733 44.9165 111.005 47.0193 113.095C49.1221 115.186 48.4913 117.067 48.4913 117.067C48.4913 117.067 72.6735 110.377 78.7716 112.677C81.9258 113.931 80.6642 109.959 80.2436 103.688C79.823 97.6253 80.8744 91.9809 79.6128 85.0822C78.3511 78.1835 74.9866 69.6124 71.6221 67.731C68.4679 65.6405 60.6875 59.9961 60.6875 59.9961Z" fill="#F2F2F2"/>
<path d="M76.0384 71.0766C76.8795 73.3762 78.7721 77.9753 79.6132 80.693C80.4543 83.4106 80.6646 86.3374 80.0338 90.7274C79.6132 95.1175 80.4543 105.57 80.8749 108.079C81.2954 110.587 80.6646 111.842 80.244 111.842C79.8235 111.842 78.3515 107.87 78.9824 104.316C79.4029 100.762 76.0384 81.3201 74.7767 76.3029C73.5151 71.0766 74.5665 69.6133 74.5665 69.6133L76.0384 71.0766Z" fill="#ECECEC"/>
<path d="M71.6216 70.2375L73.5141 72.537C73.5141 72.537 78.5608 101.386 78.5608 103.268C78.5608 105.149 83.187 108.494 83.187 108.494L83.3973 101.177C83.3973 101.177 75.1963 73.5823 75.1963 72.1189C75.1963 70.8646 74.5655 67.7288 74.5655 67.7288L72.8833 66.6836L71.6216 70.2375Z" fill="#3C3C6D"/>
<path d="M61.3191 58.7461L58.5854 62.3C58.5854 62.3 69.3097 69.4077 72.2537 73.5887L72.8845 66.8991C72.8845 66.8991 72.4639 66.8991 68.0481 64.5995C63.8425 62.0909 61.3191 58.7461 61.3191 58.7461Z" fill="#ECECEC"/>
<path d="M96.0148 85.2891C97.697 85.2891 98.9587 85.4981 100.22 85.4981C100.22 85.4981 102.954 86.3343 102.954 86.9615C102.954 87.5886 101.062 86.7524 100.22 86.7524C99.3793 86.7524 98.3279 86.5434 98.3279 86.5434C98.3279 86.5434 102.954 86.9615 103.375 88.0067C103.795 88.8429 102.744 88.2158 101.692 88.0067C100.641 87.7977 98.3279 88.2158 98.3279 88.2158C98.3279 88.2158 100.22 88.0067 101.482 88.4248C103.585 88.8429 103.164 89.4701 102.954 89.6791C102.744 89.8882 101.272 89.6791 100.431 89.4701C99.5895 89.261 97.4867 89.4701 97.4867 89.4701C97.4867 89.4701 101.272 89.4701 102.113 90.0972C102.744 90.7244 101.692 90.5153 100.641 90.3063C99.169 90.0972 98.9587 90.5153 97.697 90.9334C96.4353 91.3515 93.4914 92.6058 90.5475 91.7696C89.0755 91.3515 85.2905 94.4873 85.0802 94.4873C84.8699 94.6963 84.0288 88.2158 84.0288 88.2158C84.0288 88.2158 94.3325 85.2891 96.0148 85.2891Z" fill="#FFC8AF"/>
<path d="M88.0239 86.9639C89.7062 86.1277 91.3884 85.2915 92.4398 84.8734C93.4912 84.2462 96.4351 83.8281 97.2763 83.8281C97.9071 83.8281 97.6968 84.4553 94.122 85.7096C93.0706 86.1277 94.3323 87.591 94.3323 87.591L88.0239 86.9639Z" fill="#FFC8AF"/>
<path d="M85.08 86.1254C82.9772 86.1254 73.9352 87.5887 69.309 89.2611C68.4679 89.4702 68.4679 78.3905 67.4165 73.1642C66.5754 69.1922 62.3698 66.4746 56.9025 67.1017C56.9025 67.1017 52.4866 71.4918 52.2763 79.4357C52.066 83.8258 58.1641 97.2051 60.6875 99.9227C60.6875 99.9227 64.6828 100.968 72.8838 99.7137C76.8791 99.0865 85.9211 97.6232 85.9211 95.5326C85.9211 93.4421 85.08 86.1254 85.08 86.1254Z" fill="#ECECEC"/>
<path d="M83.188 86.7563L88.445 85.293C88.445 85.293 86.973 89.8921 89.4964 93.0279C85.0805 95.5365 85.0805 95.5365 85.0805 95.5365L83.188 86.7563Z" fill="#ECECEC"/>
<path d="M57.7435 74.8384C58.3743 79.0194 61.108 94.0711 63.8416 95.1164C66.5753 96.1616 83.1874 97.834 83.608 90.0991C84.0285 82.3643 84.6594 86.9634 84.6594 88.4267C84.6594 89.8901 85.0799 94.9073 85.0799 94.9073C85.0799 94.9073 64.6827 100.761 61.5285 98.6702C58.3743 96.5797 50.3837 80.0647 52.6968 74.4203C55.2201 68.7759 57.5332 65.6402 57.5332 67.9397C57.5332 70.4483 57.7435 74.8384 57.7435 74.8384Z" fill="#F2F2F2"/>
<path d="M66.7863 103.691C65.3143 105.364 63.6321 111.008 65.7349 110.381C67.4171 109.754 72.6741 109.545 72.0433 109.754C71.6227 109.963 70.9919 108.918 68.048 108.5C66.1554 108.081 66.7863 103.691 66.7863 103.691Z" fill="#ECECEC"/>
<path d="M69.0991 106.198C69.0991 104.735 70.1505 102.435 70.3608 103.898C70.5711 105.362 70.3608 106.825 71.6225 107.243C73.0944 107.452 73.0944 105.78 73.515 106.616C73.9356 107.243 75.1973 108.288 76.4589 109.752C77.7206 111.215 74.3561 109.125 72.043 109.752C69.73 110.379 69.0991 107.661 69.0991 106.198Z" fill="#ECECEC"/>
<path d="M81.5054 117.695C84.8699 119.995 106.949 130.866 109.052 133.792C111.365 136.719 112.627 145.081 112.417 147.799C112.206 150.516 117.884 191.281 117.884 191.281C117.884 191.281 115.991 192.745 113.258 192.954C110.314 175.184 108.632 148.635 108.211 144.036C108.001 138.809 105.477 134.001 103.375 132.538C101.692 131.075 81.5054 117.695 81.5054 117.695Z" fill="#313164"/>
<path d="M253.094 158.464C251.411 145.921 249.519 132.96 249.309 130.66C249.309 130.451 249.309 130.451 249.309 130.242C249.309 130.242 249.309 130.033 249.309 129.824C249.309 129.615 249.098 129.197 248.888 128.779C248.468 127.942 247.837 127.315 246.365 127.106L246.575 125.016C248.678 125.225 250.15 126.479 250.781 127.733C251.201 128.569 251.411 129.197 251.411 129.615C251.411 129.615 251.411 129.615 251.411 129.824C251.411 129.824 251.411 129.824 251.411 130.033C251.411 130.242 251.411 130.242 251.411 130.451C251.411 130.869 251.622 131.496 251.622 132.332C251.832 133.796 252.253 136.095 252.463 138.604C253.094 143.83 254.145 150.729 255.197 157.628C257.089 171.425 259.192 188.567 259.192 188.567L257.089 188.776C257.089 188.776 254.986 172.261 253.094 158.464Z" fill="#96A6BC"/>
<path d="M182.44 188.147C182.65 185.012 188.538 139.23 190.22 131.704C191.061 128.15 191.692 124.805 193.164 121.878C194.426 119.161 196.739 116.861 199.893 116.652C200.103 116.652 200.314 116.652 200.314 116.652C206.622 116.443 208.304 116.861 212.931 117.488L212.3 120.415C207.884 119.788 206.622 119.37 200.314 119.579H200.103C198.211 119.788 196.949 120.833 195.898 123.133C194.846 125.432 194.005 128.568 193.164 132.122C191.692 139.23 185.594 185.43 185.384 188.356L182.44 188.147Z" fill="#B6C2D3"/>
<path d="M258.982 89.062C260.875 89.4801 264.029 89.8982 262.977 93.0339C261.716 97.0059 256.038 109.34 255.407 115.193C254.777 121.465 254.777 127.527 254.987 135.053C255.197 140.07 248.468 138.189 248.468 138.189L212.51 132.545C212.51 132.545 215.034 121.465 215.034 108.922C215.034 100.56 218.819 91.7796 220.711 88.8529C221.342 87.8077 222.814 86.9715 223.655 86.9715C226.809 86.5534 251.622 87.1805 258.982 89.062Z" fill="#96A6BC"/>
<path d="M262.136 90.3125C259.402 90.7306 256.879 97.0021 255.407 103.692C253.935 110.381 249.73 132.123 250.991 135.886C251.622 137.558 255.197 138.394 255.197 136.095C255.407 133.795 256.459 120.207 257.72 114.562C259.613 104.737 263.818 94.7026 263.818 93.0302C264.029 90.3125 262.136 90.3125 262.136 90.3125Z" fill="#B6C2D3"/>
<path d="M187.697 140.279C186.225 142.788 190.221 143.415 190.221 143.415C190.221 143.415 233.118 150.314 235.221 149.059C237.323 147.805 238.375 143.415 240.898 143.415C243.421 143.415 249.52 146.969 252.253 145.715C252.253 145.715 254.777 142.37 252.464 140.07C248.889 136.516 213.562 134.217 210.618 134.217C207.674 134.217 195.478 134.008 191.903 136.098C189.169 137.562 188.749 138.398 187.697 140.279Z" fill="#96A6BC"/>
<path d="M233.749 141.953C235.431 140.699 239.847 140.071 243.842 139.862C248.258 139.653 253.305 140.699 253.515 142.371C253.726 143.834 254.146 146.343 251.833 146.761C249.52 147.388 244.684 145.089 240.898 146.343C238.585 147.179 236.693 149.688 235.431 149.479C231.646 149.27 232.487 142.789 233.749 141.953Z" fill="#B6C2D3"/>
<path d="M236.272 122.509C236.272 122.509 216.295 118.328 213.351 118.328C212.3 118.328 208.725 120.419 208.725 120.419C206.833 122.927 198.632 130.035 201.155 134.634C202.627 137.561 208.515 139.024 209.777 139.233C211.459 140.488 209.356 139.233 211.669 140.488C217.347 143.414 229.753 140.906 235.431 140.278C239.636 139.86 239.426 131.498 236.272 122.509Z" fill="#3C3C6D"/>
<path d="M220.08 93.6602C213.141 94.9145 214.192 100.559 204.099 109.966C201.365 112.475 201.576 115.82 201.996 116.447C203.468 118.119 212.51 117.283 216.926 114.356C217.977 113.52 218.398 112.266 218.398 112.266L223.234 100.35L220.08 93.6602Z" fill="#DD6F6F"/>
<path d="M239.426 91.3596C235.01 89.4781 232.066 98.6763 228.912 98.2582C227.44 98.0492 226.178 91.9867 226.178 91.9867L219.029 93.8682L219.449 96.5858C217.767 100.767 216.085 107.456 216.295 108.502C216.505 109.338 215.454 109.965 215.454 110.592L215.033 112.474C214.192 114.146 209.987 118.327 207.463 121.045C204.73 123.972 205.991 123.972 205.991 123.972C205.991 123.972 209.776 122.299 211.038 121.672C215.875 120.836 227.65 125.226 233.328 129.616C235.641 131.706 238.585 139.441 238.585 139.441C239.426 136.724 240.057 134.842 240.898 130.661C241.739 126.48 240.898 120 243.211 116.655C245.104 114.146 245.524 109.547 246.786 103.066L249.519 95.3315C249.309 95.5406 245.734 94.0772 239.426 91.3596Z" fill="#DD6F6F"/>
<path d="M227.441 86.7588C227.441 88.8493 228.072 91.567 226.81 93.2394C225.549 94.9118 227.231 100.138 227.862 99.72C232.488 96.1661 239.217 93.8666 239.217 93.8666C239.217 93.8666 237.324 85.7136 237.535 84.0412C237.745 82.5778 227.441 86.7588 227.441 86.7588Z" fill="#FFC8AF"/>
<path d="M226.81 88.222C227.441 89.6853 233.118 98.6745 234.801 99.0926C236.273 99.5107 237.955 96.1659 239.217 95.3297C239.427 93.8663 237.324 85.0862 237.324 84.25C237.534 84.4591 227.231 87.1767 226.81 88.222Z" fill="#FFC8AF"/>
<path d="M233.118 95.5411C237.323 93.0324 238.585 89.2695 238.585 89.2695L240.898 91.9872C240.898 91.9872 240.478 94.7049 237.113 99.513C236.062 94.4958 233.118 95.5411 233.118 95.5411Z" fill="white"/>
<path d="M227.651 90.7305L224.286 92.6119L221.973 97.002C221.973 97.002 225.758 95.3296 226.599 95.5386C226.389 93.4481 227.02 92.4029 227.23 92.1938C227.44 91.9848 227.651 90.7305 227.651 90.7305Z" fill="white"/>
<path d="M226.599 91.9883C225.548 95.124 227.44 97.2146 227.861 98.4689C228.281 99.7232 227.651 100.768 227.651 100.768C227.651 100.768 227.23 98.887 226.599 97.6327C225.968 96.3784 225.548 96.7965 225.337 94.7059C225.127 92.6154 226.599 91.9883 226.599 91.9883Z" fill="white"/>
<path d="M235.852 94.0781C233.328 95.1234 231.226 96.7958 229.964 98.0501C228.702 99.3044 227.651 100.559 227.651 100.559C227.651 100.559 229.754 98.8863 230.805 98.2591C231.856 97.632 235.642 95.7505 236.062 95.1234C236.272 94.2872 235.852 94.0781 235.852 94.0781Z" fill="white"/>
<path d="M242.369 77.5625C242.369 79.0259 239.846 87.3879 240.056 87.5969C240.056 87.806 240.056 88.8512 240.477 88.8512C240.687 88.8512 238.584 88.8512 237.954 88.2241C237.533 87.5969 236.902 79.653 237.323 79.2349C237.323 79.0259 242.369 77.5625 242.369 77.5625Z" fill="#3C3C6D"/>
<path d="M237.953 79.4503C238.374 76.3145 242.159 71.7154 233.327 70.4611C231.855 70.252 230.594 70.252 229.753 70.4611C229.332 70.252 229.122 70.043 228.701 70.043C227.229 70.043 226.178 70.8792 225.126 72.7606C223.654 75.6873 224.285 79.6593 224.285 83.0041C224.285 85.9308 225.126 89.0666 227.439 90.1119C228.07 90.53 228.701 90.739 229.332 90.739C233.958 90.739 236.692 88.4395 237.743 84.8856C238.584 84.6765 239.425 83.2132 239.636 81.9589C240.056 80.2865 239.636 78.8231 237.953 79.4503Z" fill="#FFC8AF"/>
<path d="M231.225 70.4558L231.435 70.0377C231.435 70.0377 233.328 69.2015 232.907 69.2015C232.697 69.2015 232.066 68.5744 231.646 69.4106L232.487 68.1562L228.491 68.9925C228.491 68.9925 227.65 68.7834 227.019 69.2015C226.388 69.6196 225.758 70.0377 225.758 70.0377C225.758 70.0377 225.758 70.6649 225.968 69.8287C225.127 70.0377 224.286 71.9192 224.286 73.3825C224.075 73.8006 224.075 74.2187 223.865 74.8459C223.445 76.9364 223.865 79.445 223.865 79.445L224.286 79.6541C224.286 79.6541 223.865 74.4278 226.178 72.9644C228.281 71.7101 232.907 73.3825 232.907 73.3825L231.225 70.4558Z" fill="#313164"/>
<path d="M242.369 74.8483C241.738 73.3849 241.108 71.5035 240.056 70.8763C239.636 69.8311 234.589 68.1587 231.224 66.6953C231.224 66.6953 234.168 68.1587 234.168 68.7858C233.748 68.1587 229.752 66.9044 229.963 67.3225C231.224 69.622 231.014 68.1587 230.594 68.9949C230.594 68.9949 230.804 68.9949 230.594 68.9949C230.804 67.9496 229.752 67.1134 229.122 66.6953C229.332 67.9496 227.86 67.7406 226.598 69.2039C225.337 70.2492 224.075 72.3397 225.337 73.3849C228.07 75.8936 230.594 74.2211 232.696 74.4302C234.379 74.6392 235.43 75.6845 235.64 76.5207C236.061 77.3569 236.061 81.5379 236.061 81.5379L237.323 80.9108L238.794 79.2384L241.108 80.9108C241.108 81.1198 243.421 77.566 242.369 74.8483Z" fill="#3C3C6D"/>
<path d="M212.3 175.399C211.248 179.162 211.459 185.224 212.09 187.942C212.72 190.451 201.786 186.479 201.786 186.479C201.786 186.479 201.155 185.433 202.206 183.343C203.258 181.461 203.889 174.563 204.099 173.727C204.309 172.472 212.3 175.399 212.3 175.399Z" fill="#313164"/>
<path d="M223.865 138.813C222.603 142.994 220.921 141.74 219.66 145.712C219.66 145.712 213.772 177.905 213.772 181.459C209.146 183.132 203.678 181.041 201.155 178.324C198.632 175.815 204.94 149.893 204.94 146.757C204.94 143.83 205.571 138.604 208.935 135.259C212.51 131.914 223.865 138.813 223.865 138.813Z" fill="#3C3C6D"/>
<path d="M220.081 192.96C220.081 192.96 220.291 194.005 220.081 194.841C219.87 195.468 218.609 197.35 216.926 197.768C215.244 198.186 209.356 197.559 207.043 195.887C204.94 194.214 205.151 192.333 204.52 191.705C203.679 191.287 202.627 190.66 202.627 190.66C202.627 190.66 201.366 188.779 201.996 188.361C202.417 187.943 220.081 192.96 220.081 192.96Z" fill="#313164"/>
<path d="M211.459 183.551C211.879 185.432 215.454 188.568 216.716 189.822C217.978 191.077 220.291 192.122 220.08 193.794C219.66 195.467 217.347 196.93 215.244 197.139C213.141 197.348 208.094 196.93 206.622 194.003C205.15 191.077 203.679 189.613 202.627 189.195C201.576 188.777 201.996 181.878 202.837 183.133C203.679 184.178 203.679 185.641 205.15 186.059C206.622 186.268 206.833 184.596 208.094 183.969C209.987 182.506 211.459 183.551 211.459 183.551Z" fill="#3C3C6D"/>
<path d="M232.908 191.077C232.908 187.941 234.38 144.249 235.221 137.141C235.641 133.797 236.272 130.243 237.324 127.525C238.375 124.807 240.688 122.508 243.842 122.508C244.894 122.508 245.945 122.508 246.786 122.508C250.571 122.508 255.197 122.926 258.562 123.344L258.141 126.062C254.567 125.644 250.361 125.225 246.786 125.225C245.945 125.225 245.104 125.225 243.842 125.225C241.739 125.435 240.688 126.271 239.637 128.57C238.585 130.87 238.165 134.006 237.744 137.35C236.903 143.831 235.431 187.941 235.431 190.867H232.908V191.077Z" fill="#B6C2D3"/>
<path d="M222.603 168.499C221.762 169.962 222.183 170.799 227.019 167.663C230.594 165.363 237.533 162.855 235.851 160.973C234.379 159.092 224.286 165.781 222.603 168.499Z" fill="#3C3C6D"/>
<path d="M222.814 158.461C225.127 165.987 226.599 173.304 226.599 173.304C226.599 173.304 237.744 172.886 237.323 172.049C233.328 165.987 231.856 160.97 231.015 158.67C229.963 156.58 222.814 158.461 222.814 158.461Z" fill="#313164"/>
<path d="M226.178 123.135C228.491 124.807 228.912 129.407 229.542 131.079C232.907 138.396 236.271 161.6 236.271 161.6C236.271 161.6 231.225 162.855 230.173 164.109C229.122 165.154 222.393 169.753 222.393 169.753C222.393 169.753 215.664 146.34 214.402 138.396C213.351 130.452 215.033 124.598 218.187 122.508C221.342 119.999 226.178 123.135 226.178 123.135Z" fill="#313164"/>
<path d="M245.735 174.145C245.735 174.145 246.366 175.19 246.366 175.817C246.366 176.444 245.314 178.326 243.842 179.162C242.37 179.998 237.324 181.252 234.8 180.207C232.277 179.162 231.646 177.907 230.805 177.698C229.964 177.489 228.702 177.28 228.702 177.28C228.702 177.28 227.02 176.026 227.23 175.399C227.44 174.772 245.735 174.145 245.735 174.145Z" fill="#313164"/>
<path d="M234.59 167.663C235.641 169.126 239.847 171.217 241.319 172.053C242.791 172.889 245.524 173.098 245.734 174.771C245.945 176.443 244.683 177.279 242.791 178.115C240.898 178.952 235.431 180.624 233.118 178.324C230.805 176.025 228.912 175.816 227.65 175.607C226.389 175.398 224.917 168.917 225.968 169.753C227.02 170.59 227.44 172.053 228.912 171.844C230.384 171.635 229.963 169.962 231.225 168.917C232.697 167.036 234.59 167.663 234.59 167.663Z" fill="#3C3C6D"/>
<path d="M217.767 122.299C221.552 123.344 223.865 128.361 224.075 130.452C224.286 132.542 233.117 162.228 232.487 163.064C232.276 163.482 223.234 168.29 223.234 168.29C223.234 168.29 213.351 138.814 213.561 133.17C213.982 127.316 214.613 121.463 217.767 122.299Z" fill="#3C3C6D"/>
<path d="M219.029 99.7188C218.398 102.227 215.665 105.99 214.613 110.589C214.193 113.098 213.562 118.324 213.562 119.788C213.562 121.042 215.034 120.415 215.455 119.997C215.875 119.579 215.665 111.844 216.506 109.753C217.347 107.663 219.029 99.7188 219.029 99.7188Z" fill="#D76363"/>
<path d="M221.132 118.534C221.762 118.743 223.655 119.37 224.286 119.579C224.917 119.788 225.547 121.251 227.019 122.924C227.23 123.342 227.44 123.551 227.019 123.76C226.599 123.76 225.968 121.669 225.337 121.878C225.127 121.878 225.968 122.924 226.389 123.342C226.809 123.76 227.86 126.687 227.44 126.896C226.809 127.314 225.758 123.969 225.547 124.178C225.337 124.387 227.23 127.314 226.809 127.523C225.968 127.941 224.917 125.223 224.286 125.014C224.286 125.014 224.706 125.641 225.127 126.477C225.547 127.105 225.758 127.732 225.547 127.941C225.127 128.777 223.445 124.596 223.024 125.014C222.603 125.432 224.075 127.523 223.445 127.732C223.234 127.732 221.762 124.596 221.762 124.596C221.762 124.596 218.608 121.669 217.767 120.206C217.346 119.37 215.875 118.952 215.875 118.952L218.818 117.488C218.818 117.697 220.08 118.115 221.132 118.534Z" fill="#FFC8AF"/>
<path d="M218.398 116.234C218.819 116.443 222.183 118.534 222.183 118.534C222.183 118.534 219.66 118.743 217.767 123.133C217.347 123.969 214.403 121.879 214.403 121.879L218.398 116.234Z" fill="white"/>
<path d="M220.08 116.235C221.972 116.444 208.935 109.336 208.935 109.336C208.935 109.336 201.365 114.771 202.627 116.444C206.622 121.879 215.033 122.088 215.033 122.088C215.033 122.088 218.398 116.026 220.08 116.235Z" fill="#DD6F6F"/>
<path d="M221.973 115.41C221.343 114.992 220.081 115.201 219.871 115.201C219.871 115.201 221.763 119.173 221.343 120.218C221.132 120.636 224.287 120.845 225.128 120.427C227.651 120.009 227.441 119.382 227.441 118.127C227.23 116.455 224.497 116.664 221.973 115.41Z" fill="#FFC8AF"/>
<path d="M219.87 115.411C219.449 115.62 218.819 116.247 218.398 116.456C217.978 116.874 216.506 118.128 216.716 118.546C216.926 118.755 217.767 117.919 218.608 117.501C219.66 116.874 219.66 116.874 219.87 117.083C219.87 117.083 219.029 117.501 218.398 117.919C217.978 118.337 216.295 119.174 216.716 119.592C216.926 120.01 217.978 118.965 218.608 118.755C219.449 118.337 220.291 117.919 220.291 117.919C220.291 117.919 219.66 118.337 218.819 118.755C217.978 119.383 217.136 119.801 217.347 120.01C217.557 120.219 218.608 119.801 219.449 119.592C220.291 119.383 221.132 119.174 221.132 119.174C221.132 119.174 217.767 120.428 218.398 120.846C219.029 121.264 221.132 120.428 222.393 119.801C223.024 119.592 222.393 118.128 221.763 116.874C221.132 114.993 219.87 115.411 219.87 115.411Z" fill="#FFC8AF"/>
<path d="M224.707 116.872C226.599 116.663 230.595 116.663 231.646 116.245C232.697 116.036 235.01 120.635 233.749 121.262C232.697 121.89 225.127 120.844 224.286 120.426C223.866 119.799 224.707 116.872 224.707 116.872Z" fill="#FFC8AF"/>
<path d="M229.543 116.664C229.332 116.664 226.178 116.246 226.178 116.246C226.178 116.246 226.599 123.145 226.178 123.354C228.281 123.772 230.174 122.727 230.174 122.727L229.543 116.664Z" fill="white"/>
<path d="M248.468 95.1215C250.991 94.4944 252.884 99.7206 252.043 105.783C251.412 111.637 252.253 123.343 248.468 123.343C244.683 123.343 231.646 126.27 229.332 125.225C228.702 118.953 227.44 116.027 227.44 116.027C227.44 116.027 239.426 116.027 240.898 116.236C242.16 116.445 242.58 112.682 242.16 109.337C241.739 101.602 246.575 95.5396 248.468 95.1215Z" fill="#D76363"/>
<path d="M248.048 97.6316C249.52 100.14 248.468 109.548 247.838 113.729C247.207 117.91 246.155 118.328 244.894 116.864C243.632 115.401 242.16 115.192 243.422 116.446C244.473 117.701 247.207 119.373 245.524 119.373C244.052 119.582 243.001 116.237 243.211 117.282C243.422 118.537 243.632 121.045 242.791 120.418C241.739 119.791 229.123 118.746 229.123 118.746L229.753 125.226C229.753 125.226 249.309 123.972 250.151 121.672C250.992 119.373 253.095 102.858 251.623 98.8859C249.73 95.123 248.048 97.6316 248.048 97.6316Z" fill="#DD6F6F"/>
<path d="M326.062 196.715L323.749 197.133C323.749 197.133 319.123 154.486 318.282 149.26C317.861 146.752 317.651 144.452 317.23 142.989C317.02 142.152 317.02 141.734 317.02 141.316V141.107C316.81 140.48 316.389 138.18 313.866 137.971L314.076 135.672C316.389 135.881 317.861 137.344 318.702 138.599C319.123 139.435 319.333 140.062 319.543 140.48C319.754 140.898 319.543 140.689 319.754 140.898C319.964 144.034 326.062 196.506 326.062 196.715Z" fill="#96A6BC"/>
<path d="M249.73 138.6C250.571 135.046 251.412 131.91 252.464 129.82C253.725 127.729 254.987 126.684 257.09 126.684C257.3 126.684 257.3 126.684 257.51 126.684C264.029 127.102 273.071 125.848 277.697 126.893L278.328 124.384C273.702 123.339 264.239 124.594 257.721 124.175C257.51 124.175 257.3 124.175 257.09 124.175C253.936 124.175 251.623 126.057 250.151 128.775C248.679 131.492 247.838 134.837 247.207 138.182C245.524 145.499 241.109 186.055 240.688 189.19L243.211 189.399C243.422 186.264 248.048 145.499 249.73 138.6Z" fill="#96A6BC"/>
<path d="M322.697 90.9364C324.8 91.5635 325.851 92.8178 324.8 96.1626C323.538 100.553 321.015 118.949 320.384 125.43C319.543 132.119 315.758 139.227 316.179 147.589C316.389 153.025 313.235 152.397 313.235 152.397L272.23 144.244C272.23 144.244 275.594 134.628 277.277 121.04C278.538 111.214 281.903 95.9536 284.216 92.6088C285.057 91.5635 288.001 90.5183 288.842 90.3092C291.786 89.8911 314.917 88.8459 322.697 90.9364Z" fill="#96A6BC"/>
<path d="M323.328 92.1914C320.385 92.6095 318.913 97.8358 317.23 105.362C315.548 112.678 312.184 143.2 313.445 147.381C314.076 149.262 317.02 148.844 317.23 146.336C317.441 143.827 318.913 130.866 320.174 124.803C322.277 114.142 325.221 96.9996 325.221 95.3272C325.431 92.1914 323.328 92.1914 323.328 92.1914Z" fill="#B6C2D3"/>
<path d="M246.156 146.756C244.684 149.474 248.889 150.101 248.889 150.101C248.889 150.101 285.688 156.163 288.002 154.7C290.315 153.237 292.628 153.446 301.459 153.028C304.193 152.819 310.712 153.655 313.866 152.191C313.866 152.191 318.072 150.519 315.758 147.801C313.445 145.084 274.754 139.648 271.389 139.648C268.235 139.648 254.777 139.857 250.782 141.948C247.628 143.829 247.207 144.457 246.156 146.756Z" fill="#96A6BC"/>
<path d="M278.328 183.755C278.328 183.755 271.388 181.664 270.547 185.009C269.496 188.354 266.762 191.699 261.926 195.461C260.244 196.716 259.613 197.761 259.402 198.597C259.192 199.224 258.982 200.061 259.823 200.897C261.295 202.151 266.552 202.987 272.23 199.224C273.491 198.388 273.702 197.761 274.963 198.179C275.594 198.388 278.748 197.343 278.748 197.343C278.748 197.343 280.01 196.298 279.8 193.998C280.22 191.071 278.748 185.845 278.328 183.755Z" fill="#3C3C6D"/>
<path d="M257.721 180.204C257.721 180.204 250.361 177.905 249.73 181.459C248.889 186.476 243.421 189.194 237.954 191.493C236.062 192.329 235.641 192.956 235.431 193.793C235.22 194.42 235.01 195.465 235.851 196.092C237.323 197.556 243.421 197.556 248.678 196.092C250.15 195.674 250.571 194.002 254.146 195.047C254.777 195.256 257.3 194.42 257.3 194.42C257.3 194.42 257.931 192.329 257.931 190.03C258.351 186.894 258.141 182.504 257.721 180.204Z" fill="#3C3C6D"/>
<path d="M262.136 149.472C262.136 151.98 264.66 185.219 264.66 192.327C270.968 194.627 280.851 192.954 280.851 192.954C281.903 176.23 281.692 152.189 280.851 149.263C280.851 149.263 286.739 148.426 293.047 149.053C298.935 149.472 305.033 149.681 306.085 144.036C307.557 137.138 307.136 129.821 307.136 129.821L286.318 124.595L282.113 122.086L275.384 131.284C275.384 131.284 267.603 131.702 264.029 135.047C260.454 138.183 262.136 149.472 262.136 149.472Z" fill="#3C3C6D"/>
<path d="M247.417 133.999C244.683 138.18 243.211 140.48 244.473 147.587C245.524 154.486 244.052 185.635 244.052 187.725C248.258 188.561 260.454 189.607 260.454 189.607C260.454 189.607 261.926 164.73 259.613 149.678C259.613 149.678 264.66 147.169 271.599 147.796C278.538 148.424 286.108 138.389 286.108 138.389L286.739 130.863C286.739 130.863 265.291 131.281 257.3 131.281C249.099 131.281 247.417 133.999 247.417 133.999Z" fill="#3C3C6D"/>
<path d="M288.842 149.472C291.155 148.218 299.986 144.873 306.715 145.918C312.814 146.754 316.809 148.009 317.019 149.681C317.229 151.353 316.388 154.698 313.234 155.116C310.08 155.534 301.879 152.19 298.725 153.235C293.468 154.907 290.524 156.162 289.052 156.162C284.636 155.953 286.949 150.517 288.842 149.472Z" fill="#B6C2D3"/>
<path d="M258.982 120.619C257.3 121.038 253.936 121.665 253.305 122.083C252.674 122.501 251.833 124.8 251.833 124.8C251.833 124.8 250.992 127.727 251.412 127.936C251.833 128.145 252.674 125.637 253.094 125.428C253.305 125.01 255.618 124.173 255.618 124.173C255.618 124.173 252.884 125.846 253.936 126.473C254.146 126.682 254.356 126.055 255.828 125.428C257.3 125.01 258.772 126.055 260.665 123.964C260.875 123.755 267.814 123.755 268.024 123.128C268.655 122.292 264.66 119.574 264.66 119.574L258.982 120.619Z" fill="#FFC8AF"/>
<path d="M253.094 122.082C252.884 122.082 251.832 122.918 251.412 123.754C250.991 124.382 250.781 125.009 250.57 125.845C250.36 126.681 250.15 128.144 250.57 127.726C250.991 127.308 251.412 125.845 251.832 125.218C252.253 124.382 253.094 122.082 253.094 122.082Z" fill="#FFC8AF"/>
<path d="M252.463 122.711C251.832 123.129 251.201 124.383 250.781 124.801C250.57 125.22 249.519 127.519 249.94 127.31C250.36 127.101 251.412 125.429 251.412 125.22C251.412 124.801 252.463 122.711 252.463 122.711Z" fill="#FFC8AF"/>
<path d="M294.73 101.389C296.202 103.479 293.258 109.542 289.473 113.932C285.688 118.322 285.057 123.13 281.693 124.175C278.328 125.221 265.081 127.102 264.24 125.43C263.399 123.966 261.506 125.43 261.506 125.43L260.455 119.367L263.609 118.531C263.609 118.531 274.754 114.977 276.015 113.932C277.698 112.678 279.59 108.078 281.062 103.897C281.693 102.016 283.375 96.5807 285.899 95.9535C291.366 94.6992 294.73 101.389 294.73 101.389Z" fill="#5B80D9"/>
<path d="M306.505 90.9384C306.295 90.7293 304.403 86.9664 304.192 86.3393C303.562 84.6669 303.351 82.3673 303.562 82.1582C304.613 80.0677 305.664 77.141 306.295 74.4234C306.295 74.4234 304.823 70.4514 302.51 69.6152C302.09 66.6885 297.463 67.1066 294.099 67.1066C289.893 67.1066 288.211 69.8242 287.37 76.0958C287.37 76.5139 288.001 77.9772 288.001 78.1863C287.37 80.2768 286.529 81.9492 286.529 82.3673C286.529 82.7854 287.16 83.2035 288.001 83.4126C288.211 84.4578 288.632 85.7121 288.632 86.5483C289.052 88.4298 289.473 88.6388 290.104 88.8479C291.155 89.0569 292.206 88.8479 293.258 88.6388C294.099 89.8931 294.099 90.5203 294.519 91.9836C294.73 92.8198 291.786 98.2552 291.786 98.2552L293.468 100.346C293.258 100.346 308.398 93.238 306.505 90.9384Z" fill="#FFC8AF"/>
<path d="M288.001 72.126C287.16 71.2898 285.898 70.4536 285.898 69.6174C285.898 67.5269 289.262 64.1821 289.262 64.1821L290.104 67.1088C290.104 67.1088 289.262 67.1088 289.473 66.0636C289.683 64.6002 291.155 62.3006 290.734 63.3459C289.683 66.2726 292.627 66.4817 292.627 66.4817C294.519 65.4364 292.627 63.764 300.407 65.8545C303.351 66.6907 304.403 68.5722 304.403 68.5722C304.403 68.5722 310.291 70.4536 305.454 83.6238C305.244 84.251 305.033 84.8781 305.033 85.5053C305.033 85.5053 300.407 85.0872 300.197 84.0419C299.776 80.4881 299.356 77.5614 298.305 77.5614C297.674 77.5614 297.253 80.07 297.043 79.8609C296.202 78.1885 294.94 76.7252 294.94 75.4709C294.94 75.0527 295.15 71.917 292.837 71.7079C292.206 71.4989 288.001 72.126 288.001 72.126Z" fill="#A0593A"/>
<path d="M303.141 69.6184C302.3 67.7369 299.987 66.6917 296.623 67.946C298.305 67.7369 299.566 67.3188 300.828 68.7822C302.3 70.0365 303.141 69.6184 303.141 69.6184Z" fill="#BA784A"/>
<path d="M294.94 67.5269C292.206 67.1088 290.524 65.2274 291.155 62.7188C290.103 65.2274 290.314 67.5269 293.258 68.1541C295.36 68.7812 294.94 67.5269 294.94 67.5269Z" fill="#BA784A"/>
<path d="M298.725 69.4077C290.524 71.2892 288.211 67.9444 289.894 64.8086C287.791 66.8991 288.211 69.4077 289.683 70.2439C292.207 71.2892 298.725 69.4077 298.725 69.4077Z" fill="#BA784A"/>
<path d="M297.253 66.2726C295.36 65.6455 294.309 64.1821 293.888 63.555C293.468 63.764 293.888 65.0183 293.888 65.0183C293.888 65.0183 293.257 63.764 293.257 62.7188C291.785 63.555 292.206 64.3912 292.626 65.0183C291.996 63.764 292.416 62.9278 292.416 62.9278C292.416 62.9278 290.734 65.6455 292.206 66.8998C294.098 68.5722 298.304 67.1088 298.935 66.8998C299.566 66.6907 297.253 66.2726 297.253 66.2726Z" fill="#BA784A"/>
<path d="M291.576 62.9297C291.365 63.7659 291.365 65.8564 293.048 67.1107C292.207 66.9017 290.945 65.2292 290.945 64.6021C290.945 64.184 291.576 62.9297 291.576 62.9297Z" fill="#A0593A"/>
<path d="M293.678 63.1367C293.468 63.5548 294.098 66.2725 295.991 66.6906C296.622 66.8996 295.781 66.8996 295.57 66.6906C293.678 66.0634 293.678 65.0182 293.678 63.9729C293.468 63.1367 293.678 63.1367 293.678 63.1367Z" fill="#A0593A"/>
<path d="M304.192 70.0347C304.823 68.5714 303.981 66.0628 301.248 65.4356C301.248 65.4356 302.299 65.6447 302.72 66.899C302.93 68.1533 303.14 67.3171 303.14 67.3171C303.14 67.3171 303.351 66.2718 299.776 65.2266C301.458 66.0628 300.407 66.0628 301.038 66.899C301.668 67.7352 304.192 70.0347 304.192 70.0347Z" fill="#A0593A"/>
<path d="M298.094 77.978C298.515 76.3056 300.828 76.5146 300.828 77.978C300.828 79.4413 299.987 82.3681 298.725 82.159C297.253 82.159 298.094 77.978 298.094 77.978Z" fill="#FFC8AF"/>
<path d="M315.548 95.7462L306.085 89.2656C305.244 90.5199 303.141 91.7742 300.408 93.0285C300.198 92.4014 290.104 96.1643 293.469 91.1471C291.997 91.7742 285.688 96.3734 285.478 96.3734C283.585 96.3734 284.006 103.272 283.585 105.572C283.375 105.99 282.955 114.352 278.539 123.55C276.436 128.149 279.17 127.313 279.17 127.313C279.17 127.313 285.057 128.567 287.37 128.567C290.104 128.567 293.258 128.985 293.679 128.985C296.623 128.776 299.987 131.285 302.3 131.703C304.403 131.912 306.506 135.884 306.506 135.884C315.548 130.867 303.352 131.285 312.604 107.244C315.758 99.091 315.548 95.7462 315.548 95.7462Z" fill="#5B80D9"/>
<path opacity="0.86" d="M298.094 93.8655L294.52 95.956C294.52 95.956 289.263 115.607 288.001 124.596C285.267 127.941 282.954 129.195 282.954 129.195L281.903 123.969C281.903 123.969 291.996 96.7922 293.258 94.9107C292.627 92.1931 293.258 91.5659 293.258 91.5659C293.258 91.5659 294.52 93.0293 297.253 91.3569C298.936 90.5207 298.094 93.8655 298.094 93.8655Z" fill="white"/>
<path d="M296.202 91.5681C297.674 91.3591 303.982 87.8052 305.244 86.1328C306.926 89.0595 307.557 90.1048 307.557 90.1048L299.146 97.0035L296.202 91.5681Z" fill="#6E9AE8"/>
<path d="M294.098 89.685C293.678 89.8941 291.365 91.9846 291.365 91.9846L290.103 95.9566L294.519 91.9846C294.519 91.9846 293.888 91.3574 293.888 90.5212C294.098 89.476 294.098 89.685 294.098 89.685Z" fill="#6E9AE8"/>
<path d="M289.894 202.152C289.894 198.808 291.366 153.235 292.207 145.709C292.627 141.737 292.838 137.556 294.099 134.42C295.361 131.284 296.623 129.612 300.408 129.403C301.038 129.403 301.669 129.403 302.3 129.403C308.819 129.403 318.071 128.776 322.277 129.403L322.697 126.267C318.492 125.64 309.029 126.267 302.3 126.267C301.669 126.267 300.828 126.267 300.197 126.267C295.361 126.476 292.417 129.612 291.155 133.375C289.894 137.138 289.683 141.528 289.263 145.291C288.422 153.444 286.95 198.599 286.95 202.152H289.894Z" fill="#B6C2D3"/>
<path d="M312.814 118.741C309.449 119.368 300.407 124.176 298.725 124.176C295.571 124.176 293.889 124.594 293.258 124.803C292.417 125.012 291.576 125.849 290.524 127.103C289.262 128.775 289.052 129.821 289.473 129.821C289.683 129.821 290.314 128.984 290.945 128.357C291.365 127.521 292.837 126.894 292.837 126.894C292.837 126.894 292.206 127.312 291.155 128.566C290.524 129.403 289.683 131.075 290.104 131.284C290.734 131.702 291.576 129.612 292.206 128.984C293.047 128.357 294.309 127.521 294.309 127.521C294.309 127.521 290.734 131.284 291.155 131.493C291.576 131.702 293.047 130.239 293.678 129.821C294.519 129.403 295.361 128.775 295.361 128.775C295.361 128.775 292.206 131.284 292.417 131.493C292.837 131.911 294.309 131.075 295.571 130.239C296.622 129.612 298.725 130.03 300.618 128.566C303.351 126.476 317.861 126.476 319.543 122.922C321.856 117.278 312.814 118.741 312.814 118.741Z" fill="#CC9483"/>
<path d="M314.496 94.0725C316.599 95.745 318.702 99.0898 319.963 109.333C320.594 114.978 323.118 124.385 320.174 126.475C317.23 128.566 307.767 130.029 306.295 128.775C305.034 127.73 300.197 129.402 300.197 129.402L298.725 123.131L302.3 120.831C302.3 120.831 309.66 118.741 310.08 117.277C310.501 115.814 305.664 104.734 306.926 99.0898C308.398 93.2363 314.496 94.0725 314.496 94.0725Z" fill="#6E9AE8"/>
<path d="M280.22 133.791C275.805 133.164 268.234 133.582 265.501 135.672C262.767 137.763 260.664 142.153 261.505 146.961C262.347 151.769 263.188 157.413 263.188 157.413L264.66 192.116C264.66 192.116 268.655 193.161 268.865 192.116C269.076 191.071 266.342 147.797 266.342 143.407C266.342 139.017 267.183 137.554 269.706 136.299C272.02 135.463 280.22 133.791 280.22 133.791Z" fill="#313164"/>
<rect x="256" y="220.109" width="7.22486" height="7.22486" transform="rotate(-45 256 220.109)" fill="#E02287" fill-opacity="0.6"/>
<circle cx="89" cy="224" r="8" stroke="#9FADF0" stroke-width="4"/>
<path d="M113.848 12.0332C113.848 10.283 110.566 8.75145 105.753 8.09509C105.315 3.28179 103.784 0 102.033 0C100.283 0 98.7515 3.28179 98.0951 8.09509C93.2818 8.53266 90 10.0642 90 11.8144C90 13.5647 93.2818 15.0963 98.0951 15.7526C98.5327 20.5659 100.064 23.8477 101.814 23.8477C103.565 23.8477 105.096 20.5659 105.753 15.7526C110.347 15.0963 113.848 13.7835 113.848 12.0332Z" fill="#9FADF0"/>
<path d="M278.848 36.0332C278.848 34.283 275.566 32.7514 270.753 32.0951C270.315 27.2818 268.784 24 267.033 24C265.283 24 263.751 27.2818 263.095 32.0951C258.282 32.5327 255 34.0642 255 35.8144C255 37.5647 258.282 39.0963 263.095 39.7526C263.533 44.5659 265.064 47.8477 266.814 47.8477C268.565 47.8477 270.096 44.5659 270.753 39.7526C275.347 39.0963 278.848 37.7835 278.848 36.0332Z" fill="#FFE48F"/>
<circle cx="10" cy="117" r="8" stroke="#E02287" stroke-opacity="0.6" stroke-width="4"/>
</svg>
