<svg width="138" height="150" viewBox="0 0 138 150" fill="none" xmlns="http://www.w3.org/2000/svg">
<path d="M115.461 145.745L100.884 104.225C100.541 103.249 99.6231 102.596 98.5929 102.596H67.0085V68.4037H113.17C114.013 68.4037 114.794 67.9657 115.237 67.2453C115.68 66.5252 115.72 65.6263 115.343 64.8693L106.168 46.423L115.343 27.9767C115.72 27.2197 115.68 26.3205 115.237 25.6007C114.794 24.8803 114.013 24.4423 113.17 24.4423H67.0085C67.0085 23.0934 65.9208 22 64.579 22H54.8606C53.5187 22 52.431 23.0934 52.431 24.4423V102.596H20.8466C19.8164 102.596 18.8983 103.249 18.5555 104.226L3.97834 145.745C3.71604 146.492 3.83053 147.321 4.28604 147.968C4.74155 148.615 5.48082 149 6.26944 149H113.171C113.959 149 114.698 148.615 115.154 147.968C115.609 147.321 115.724 146.492 115.461 145.745ZM67.0085 58.6344H74.2971C75.6389 58.6344 76.7266 57.541 76.7266 56.1921C76.7266 54.8432 75.6389 53.7498 74.2971 53.7498H67.0085V29.3266H109.239L101.279 45.3306C100.937 46.0182 100.937 46.8276 101.279 47.5149L109.239 63.5189H67.0085V58.6344ZM57.2904 105.038V26.8843H62.1494V65.9612V105.038V127.019H57.2904V105.038ZM9.70326 144.115L11.4182 139.231H20.8466C22.1885 139.231 23.2762 138.138 23.2762 136.789C23.2762 135.44 22.1885 134.346 20.8466 134.346H13.1331L22.5658 107.481H52.4313V129.462C52.4313 130.81 53.519 131.904 54.8608 131.904H64.5792C65.921 131.904 67.0087 130.81 67.0087 129.462V107.481H96.8743L109.737 144.115H9.70326Z" fill="white" stroke="#405CE1"/>
<path d="M23.8477 34.0332C23.8477 32.283 20.5659 30.7514 15.7526 30.0951C15.315 25.2818 13.7835 22 12.0332 22C10.283 22 8.75145 25.2818 8.09509 30.0951C3.28179 30.5327 0 32.0642 0 33.8144C0 35.5647 3.28179 37.0963 8.09509 37.7526C8.53266 42.5659 10.0642 45.8477 11.8145 45.8477C13.5648 45.8477 15.0963 42.5659 15.7526 37.7526C20.3471 37.0963 23.8477 35.7835 23.8477 34.0332Z" fill="#FFE48F"/>
<path d="M138 93.5688C138 92.4679 135.936 91.5046 132.908 91.0917C132.633 88.0642 131.67 86 130.569 86C129.468 86 128.505 88.0642 128.092 91.0917C125.064 91.367 123 92.3303 123 93.4312C123 94.5321 125.064 95.4954 128.092 95.9083C128.367 98.9358 129.33 101 130.431 101C131.532 101 132.495 98.9358 132.908 95.9083C135.798 95.4954 138 94.6697 138 93.5688Z" fill="#FFE48F"/>
<rect x="105" y="5.10938" width="7.22486" height="7.22486" transform="rotate(-45 105 5.10938)" fill="white" fill-opacity="0.6"/>
<path d="M83.9672 55.7148C83.9381 55.5585 83.8895 55.4047 83.8288 55.2581C83.7681 55.1091 83.6928 54.9674 83.6052 54.8357C83.5179 54.7013 83.4157 54.5767 83.3039 54.4644C83.1921 54.352 83.0683 54.2496 82.9345 54.1615C82.8033 54.0737 82.6624 53.9978 82.5143 53.9368C82.3685 53.8758 82.2155 53.8294 82.06 53.7976C81.7491 53.7341 81.4259 53.7341 81.1125 53.7976C80.9571 53.8294 80.8041 53.8758 80.6582 53.9368C80.5099 53.9978 80.369 54.0735 80.238 54.1615C80.1043 54.2493 79.9804 54.352 79.8686 54.4644C79.7568 54.5767 79.6547 54.7013 79.5673 54.8357C79.48 54.9677 79.4045 55.1093 79.3438 55.2581C79.2831 55.4047 79.2345 55.5585 79.2054 55.7148C79.1738 55.871 79.1567 56.0323 79.1567 56.191C79.1567 56.8335 79.4168 57.4635 79.8686 57.9177C80.3204 58.3719 80.9474 58.6333 81.5863 58.6333C81.7442 58.6333 81.9046 58.6162 82.06 58.5844C82.2155 58.5552 82.3685 58.5063 82.5143 58.4453C82.6626 58.3843 82.8035 58.3086 82.9345 58.2206C83.0683 58.1327 83.1921 58.0301 83.3039 57.9177C83.7557 57.4635 84.0158 56.8332 84.0158 56.191C84.0158 56.0323 83.9988 55.871 83.9672 55.7148Z" fill="white" stroke="#405CE1"/>
<path d="M30.516 136.312C30.4869 136.156 30.4383 136.002 30.3776 135.856C30.3169 135.707 30.2416 135.565 30.154 135.433C30.0667 135.299 29.9645 135.174 29.8528 135.062C29.741 134.95 29.6171 134.847 29.4834 134.759C29.3521 134.671 29.2112 134.595 29.0631 134.534C28.9173 134.473 28.7643 134.425 28.6089 134.395C28.2955 134.332 27.9747 134.332 27.6613 134.395C27.5059 134.425 27.3529 134.473 27.2071 134.534C27.0588 134.595 26.9179 134.671 26.7868 134.759C26.6531 134.847 26.5292 134.95 26.4175 135.062C26.3057 135.174 26.2038 135.299 26.1162 135.433C26.0288 135.565 25.9533 135.707 25.8926 135.856C25.8319 136.002 25.7833 136.156 25.7542 136.312C25.7226 136.469 25.7056 136.63 25.7056 136.789C25.7056 136.947 25.7226 137.109 25.7542 137.265C25.7833 137.421 25.8319 137.575 25.8926 137.722C25.9533 137.871 26.0286 138.012 26.1162 138.144C26.2035 138.278 26.3057 138.403 26.4175 138.515C26.5292 138.628 26.6531 138.73 26.7868 138.818C26.9181 138.906 27.059 138.982 27.2071 139.043C27.3529 139.104 27.5059 139.153 27.6613 139.182C27.8168 139.214 27.9772 139.231 28.1351 139.231C28.293 139.231 28.4534 139.214 28.6089 139.182C28.7643 139.153 28.9173 139.104 29.0631 139.043C29.2114 138.982 29.3523 138.906 29.4834 138.818C29.6171 138.73 29.741 138.628 29.8528 138.515C29.9645 138.403 30.0664 138.278 30.154 138.144C30.2414 138.012 30.3169 137.87 30.3776 137.722C30.4383 137.575 30.4869 137.421 30.516 137.265C30.5476 137.109 30.5646 136.947 30.5646 136.789C30.5646 136.63 30.5476 136.469 30.516 136.312Z" fill="white" stroke="#405CE1"/>
</svg>
