<svg width="31" height="31" viewBox="0 0 31 31" fill="none" xmlns="http://www.w3.org/2000/svg">
<path fill-rule="evenodd" clip-rule="evenodd" d="M21.5 14H17V9.5C17 8.6705 16.328 8 15.5 8C14.672 8 14 8.6705 14 9.5V15.5C14 16.3295 14.672 17 15.5 17H21.5C22.3295 17 23 16.3295 23 15.5C23 14.6705 22.3295 14 21.5 14ZM15.5 27.5C8.8835 27.5 3.5 22.1165 3.5 15.5C3.5 8.8835 8.8835 3.5 15.5 3.5C22.1165 3.5 27.5 8.8835 27.5 15.5C27.5 22.1165 22.1165 27.5 15.5 27.5ZM15.5 0.5C7.229 0.5 0.5 7.229 0.5 15.5C0.5 23.771 7.229 30.5 15.5 30.5C23.771 30.5 30.5 23.771 30.5 15.5C30.5 7.229 23.771 0.5 15.5 0.5Z" fill="white"/>
<path d="M17 14H16.5V14.5H17V14ZM21.5 13.5H17V14.5H21.5V13.5ZM17.5 14V9.5H16.5V14H17.5ZM17.5 9.5C17.5 8.39403 16.6038 7.5 15.5 7.5V8.5C16.0522 8.5 16.5 8.94697 16.5 9.5H17.5ZM15.5 7.5C14.3962 7.5 13.5 8.39403 13.5 9.5H14.5C14.5 8.94697 14.9478 8.5 15.5 8.5V7.5ZM13.5 9.5V15.5H14.5V9.5H13.5ZM13.5 15.5C13.5 16.606 14.3962 17.5 15.5 17.5V16.5C14.9478 16.5 14.5 16.053 14.5 15.5H13.5ZM15.5 17.5H21.5V16.5H15.5V17.5ZM21.5 17.5C22.6056 17.5 23.5 16.6056 23.5 15.5H22.5C22.5 16.0534 22.0534 16.5 21.5 16.5V17.5ZM23.5 15.5C23.5 14.3944 22.6056 13.5 21.5 13.5V14.5C22.0534 14.5 22.5 14.9466 22.5 15.5H23.5ZM15.5 27C9.15964 27 4 21.8404 4 15.5H3C3 22.3926 8.60736 28 15.5 28V27ZM4 15.5C4 9.15964 9.15964 4 15.5 4V3C8.60736 3 3 8.60736 3 15.5H4ZM15.5 4C21.8404 4 27 9.15964 27 15.5H28C28 8.60736 22.3926 3 15.5 3V4ZM27 15.5C27 21.8404 21.8404 27 15.5 27V28C22.3926 28 28 22.3926 28 15.5H27ZM15.5 0C6.95286 0 0 6.95286 0 15.5H1C1 7.50514 7.50514 1 15.5 1V0ZM0 15.5C0 24.0471 6.95286 31 15.5 31V30C7.50514 30 1 23.4949 1 15.5H0ZM15.5 31C24.0471 31 31 24.0471 31 15.5H30C30 23.4949 23.4949 30 15.5 30V31ZM31 15.5C31 6.95286 24.0471 0 15.5 0V1C23.4949 1 30 7.50514 30 15.5H31Z" fill="#3D5ECF"/>
</svg>
