<svg width="25" height="31" viewBox="0 0 25 31" fill="none" xmlns="http://www.w3.org/2000/svg">
<path fill-rule="evenodd" clip-rule="evenodd" d="M12.5 13.9992C11.2595 13.9992 10.25 12.9897 10.25 11.7492C10.25 10.5087 11.2595 9.49925 12.5 9.49925C13.7405 9.49925 14.75 10.5087 14.75 11.7492C14.75 12.9897 13.7405 13.9992 12.5 13.9992ZM12.5 6.49925C9.605 6.49925 7.25 8.85425 7.25 11.7492C7.25 14.6442 9.605 16.9992 12.5 16.9992C15.395 16.9992 17.75 14.6442 17.75 11.7492C17.75 8.85425 15.395 6.49925 12.5 6.49925ZM12.5 26.969C9.9875 24.593 3.5 17.9225 3.5 12.383C3.5 7.4855 7.5365 3.5 12.5 3.5C17.4635 3.5 21.5 7.4855 21.5 12.383C21.5 17.9225 15.0125 24.593 12.5 26.969ZM12.5 0.5C5.8835 0.5 0.5 5.8295 0.5 12.383C0.5 20.5955 11.0735 29.7515 11.5235 30.137C11.8055 30.3785 12.152 30.5 12.5 30.5C12.848 30.5 13.1945 30.3785 13.4765 30.137C13.9265 29.7515 24.5 20.5955 24.5 12.383C24.5 5.8295 19.1165 0.5 12.5 0.5Z" fill="white"/>
<path d="M11.5235 30.137L11.1982 30.5167L11.1983 30.5168L11.5235 30.137ZM13.4765 30.137L13.8017 30.5168L13.8018 30.5167L13.4765 30.137ZM12.5 13.4992C11.5356 13.4992 10.75 12.7136 10.75 11.7492H9.75C9.75 13.2659 10.9834 14.4992 12.5 14.4992V13.4992ZM10.75 11.7492C10.75 10.7849 11.5356 9.99925 12.5 9.99925V8.99925C10.9834 8.99925 9.75 10.2326 9.75 11.7492H10.75ZM12.5 9.99925C13.4644 9.99925 14.25 10.7849 14.25 11.7492H15.25C15.25 10.2326 14.0166 8.99925 12.5 8.99925V9.99925ZM14.25 11.7492C14.25 12.7136 13.4644 13.4992 12.5 13.4992V14.4992C14.0166 14.4992 15.25 13.2659 15.25 11.7492H14.25ZM12.5 5.99925C9.32886 5.99925 6.75 8.57811 6.75 11.7492H7.75C7.75 9.13039 9.88114 6.99925 12.5 6.99925V5.99925ZM6.75 11.7492C6.75 14.9204 9.32886 17.4992 12.5 17.4992V16.4992C9.88114 16.4992 7.75 14.3681 7.75 11.7492H6.75ZM12.5 17.4992C15.6711 17.4992 18.25 14.9204 18.25 11.7492H17.25C17.25 14.3681 15.1189 16.4992 12.5 16.4992V17.4992ZM18.25 11.7492C18.25 8.57811 15.6711 5.99925 12.5 5.99925V6.99925C15.1189 6.99925 17.25 9.13039 17.25 11.7492H18.25ZM12.8435 26.6057C11.5977 25.4275 9.37224 23.1898 7.46193 20.5679C5.53678 17.9256 4 14.9842 4 12.383H3C3 15.3213 4.70697 18.4849 6.6537 21.1567C8.61526 23.849 10.8898 26.1345 12.1565 27.3323L12.8435 26.6057ZM4 12.383C4 7.76774 7.80651 4 12.5 4V3C7.26649 3 3 7.20326 3 12.383H4ZM12.5 4C17.1935 4 21 7.76774 21 12.383H22C22 7.20326 17.7335 3 12.5 3V4ZM21 12.383C21 14.9842 19.4632 17.9256 17.5381 20.5679C15.6278 23.1898 13.4023 25.4275 12.1565 26.6057L12.8435 27.3323C14.1102 26.1345 16.3847 23.849 18.3463 21.1567C20.293 18.4849 22 15.3213 22 12.383H21ZM12.5 0C5.61203 0 0 5.54871 0 12.383H1C1 6.11029 6.15497 1 12.5 1V0ZM0 12.383C0 16.6737 2.74478 21.1336 5.45305 24.5081C8.18041 27.9064 10.9625 30.3148 11.1982 30.5167L11.8488 29.7573C11.6345 29.5737 8.90484 27.2114 6.23295 23.8822C3.54197 20.5292 1 16.3048 1 12.383H0ZM11.1983 30.5168C11.5725 30.8373 12.0349 31 12.5 31V30C12.2691 30 12.0385 29.9197 11.8487 29.7572L11.1983 30.5168ZM12.5 31C12.9651 31 13.4275 30.8373 13.8017 30.5168L13.1513 29.7572C12.9615 29.9197 12.7309 30 12.5 30V31ZM13.8018 30.5167C14.0375 30.3148 16.8196 27.9064 19.5469 24.5081C22.2552 21.1336 25 16.6737 25 12.383H24C24 16.3048 21.458 20.5292 18.7671 23.8822C16.0952 27.2114 13.3655 29.5737 13.1512 29.7573L13.8018 30.5167ZM25 12.383C25 5.54871 19.388 0 12.5 0V1C18.845 1 24 6.11029 24 12.383H25Z" fill="#3C5CCD"/>
</svg>
