<svg width="30" height="29" viewBox="0 0 30 29" fill="none" xmlns="http://www.w3.org/2000/svg">
<path d="M28.916 18.8019H0.981628C0.715769 18.8019 0.5 18.5861 0.5 18.3202V2.42699C0.5 1.36452 1.36452 0.5 2.42699 0.5H27.4707C28.5331 0.5 29.3977 1.36452 29.3977 2.42699V18.3202C29.3977 18.5861 29.1819 18.8019 28.916 18.8019ZM1.46326 17.8386H28.4344V2.42699C28.4344 1.89528 28.0024 1.46326 27.4707 1.46326H2.42699C1.89528 1.46326 1.46326 1.89528 1.46326 2.42699V17.8386Z" fill="white" stroke="white"/>
<path d="M27.4707 22.6522H2.42699C1.36452 22.6522 0.5 21.7877 0.5 20.7252V18.3176C0.5 18.0517 0.715769 17.8359 0.981628 17.8359H28.916C29.1819 17.8359 29.3977 18.0517 29.3977 18.3176V20.7252C29.3977 21.7877 28.5331 22.6522 27.4707 22.6522ZM1.46326 18.7992V20.7252C1.46326 21.2569 1.89528 21.689 2.42699 21.689H27.4707C28.0024 21.689 28.4344 21.2569 28.4344 20.7252V18.7992H1.46326Z" fill="white" stroke="white"/>
<path d="M16.3939 20.725H13.5041C13.2382 20.725 13.0225 20.5092 13.0225 20.2433C13.0225 19.9775 13.2382 19.7617 13.5041 19.7617H16.3939C16.6597 19.7617 16.8755 19.9775 16.8755 20.2433C16.8755 20.5092 16.6597 20.725 16.3939 20.725Z" fill="white" stroke="white" stroke-width="0.5"/>
<path d="M21.7062 28.4351H8.10225C7.76091 28.4351 7.48389 28.1613 7.48389 27.824C7.48389 27.4867 7.76091 27.2129 8.10225 27.2129C10.154 27.2129 11.1941 25.7738 11.1941 22.9353C11.1941 22.598 11.4711 22.3242 11.8124 22.3242H17.996C18.3374 22.3242 18.6144 22.598 18.6144 22.9353C18.6144 25.7738 19.6545 27.2129 21.7062 27.2129C22.0475 27.2129 22.3245 27.4867 22.3245 27.824C22.3245 28.1613 22.0475 28.4351 21.7062 28.4351ZM11.1143 27.2129H18.6948C17.9329 26.3794 17.4846 25.1383 17.395 23.5464H12.4141C12.3238 25.1383 11.8761 26.3794 11.1143 27.2129Z" fill="white" stroke="white"/>
</svg>
