<svg width="23" height="23" viewBox="0 0 23 23" fill="none" xmlns="http://www.w3.org/2000/svg">
<mask id="path-1-outside-1_489_536" maskUnits="userSpaceOnUse" x="-0.799805" y="-0.800781" width="24" height="24" fill="black">
<rect fill="white" x="-0.799805" y="-0.800781" width="24" height="24"/>
<path fill-rule="evenodd" clip-rule="evenodd" d="M11.4012 0.199219C8.35948 0.199219 7.97774 0.212519 6.78306 0.266886C5.59072 0.321487 4.77684 0.510255 4.0647 0.787225C3.32806 1.07329 2.70319 1.45597 2.08065 2.07874C1.45764 2.70128 1.07497 3.32615 0.787968 4.06256C0.510299 4.77493 0.321297 5.58904 0.267629 6.78092C0.214195 7.9756 0.200195 8.35757 0.200195 11.3993C0.200195 14.4411 0.213729 14.8217 0.267863 16.0163C0.322697 17.2087 0.511465 18.0226 0.788202 18.7347C1.0745 19.4714 1.45718 20.0962 2.07995 20.7188C2.70225 21.3418 3.32713 21.7254 4.0633 22.0114C4.77591 22.2884 5.59002 22.4772 6.78213 22.5318C7.97681 22.5861 8.35831 22.5995 11.3998 22.5995C14.4418 22.5995 14.8224 22.5861 16.0171 22.5318C17.2094 22.4772 18.0242 22.2884 18.7369 22.0114C19.4733 21.7254 20.0972 21.3418 20.7195 20.7188C21.3425 20.0962 21.7252 19.4714 22.0122 18.7349C22.2875 18.0226 22.4765 17.2085 22.5325 16.0166C22.5862 14.8219 22.6002 14.4411 22.6002 11.3993C22.6002 8.35757 22.5862 7.97583 22.5325 6.78115C22.4765 5.58881 22.2875 4.77493 22.0122 4.06279C21.7252 3.32615 21.3425 2.70128 20.7195 2.07874C20.0965 1.45573 19.4735 1.07306 18.7362 0.787225C18.0221 0.510255 17.2078 0.321487 16.0155 0.266886C14.8208 0.212519 14.4404 0.199219 11.3977 0.199219H11.4012ZM11.028 2.21753H11.0281H11.0282L11.4015 2.21764C14.3919 2.21764 14.7464 2.22838 15.9273 2.28204C17.0193 2.33198 17.612 2.51445 18.0068 2.66775C18.5294 2.87075 18.9021 3.11342 19.2938 3.50542C19.6858 3.89743 19.9285 4.27077 20.132 4.79344C20.2853 5.18777 20.468 5.78045 20.5177 6.87246C20.5714 8.05314 20.583 8.40781 20.583 11.3968C20.583 14.3859 20.5714 14.7405 20.5177 15.9212C20.4678 17.0132 20.2853 17.6059 20.132 18.0002C19.929 18.5229 19.6858 18.8951 19.2938 19.2869C18.9018 19.6789 18.5297 19.9215 18.0068 20.1245C17.6124 20.2785 17.0193 20.4605 15.9273 20.5105C14.7466 20.5641 14.3919 20.5758 11.4015 20.5758C8.41083 20.5758 8.05639 20.5641 6.87571 20.5105C5.7837 20.4601 5.19102 20.2776 4.79599 20.1243C4.27331 19.9213 3.89998 19.6786 3.50797 19.2866C3.11597 18.8946 2.8733 18.5222 2.66983 17.9993C2.51653 17.605 2.33383 17.0123 2.28413 15.9203C2.23046 14.7396 2.21973 14.3849 2.21973 11.394C2.21973 8.40314 2.23046 8.05034 2.28413 6.86966C2.33406 5.77765 2.51653 5.18497 2.66983 4.79017C2.87283 4.2675 3.11597 3.89416 3.50797 3.50216C3.89998 3.11015 4.27331 2.86748 4.79599 2.66402C5.19079 2.51001 5.7837 2.32801 6.87571 2.27784C7.90892 2.23118 8.30932 2.21718 10.3967 2.21484V2.21764C10.5918 2.21734 10.8016 2.21743 11.028 2.21753ZM17.3801 4.07859C16.6381 4.07859 16.0361 4.6799 16.0361 5.42214C16.0361 6.16415 16.6381 6.76615 17.3801 6.76615C18.1222 6.76615 18.7242 6.16415 18.7242 5.42214C18.7242 4.68013 18.1222 4.07812 17.3801 4.07812V4.07859ZM5.64977 11.3994C5.64977 8.22308 8.22496 5.6478 11.4013 5.64768C14.5777 5.64768 17.1523 8.22301 17.1523 11.3994C17.1523 14.5758 14.5779 17.15 11.4015 17.15C8.22509 17.15 5.64977 14.5758 5.64977 11.3994ZM15.1347 11.3974C15.1347 9.33545 13.4631 7.66406 11.4013 7.66406C9.33935 7.66406 7.66797 9.33545 7.66797 11.3974C7.66797 13.4592 9.33935 15.1308 11.4013 15.1308C13.4631 15.1308 15.1347 13.4592 15.1347 11.3974Z"/>
</mask>
<path fill-rule="evenodd" clip-rule="evenodd" d="M11.4012 0.199219C8.35948 0.199219 7.97774 0.212519 6.78306 0.266886C5.59072 0.321487 4.77684 0.510255 4.0647 0.787225C3.32806 1.07329 2.70319 1.45597 2.08065 2.07874C1.45764 2.70128 1.07497 3.32615 0.787968 4.06256C0.510299 4.77493 0.321297 5.58904 0.267629 6.78092C0.214195 7.9756 0.200195 8.35757 0.200195 11.3993C0.200195 14.4411 0.213729 14.8217 0.267863 16.0163C0.322697 17.2087 0.511465 18.0226 0.788202 18.7347C1.0745 19.4714 1.45718 20.0962 2.07995 20.7188C2.70225 21.3418 3.32713 21.7254 4.0633 22.0114C4.77591 22.2884 5.59002 22.4772 6.78213 22.5318C7.97681 22.5861 8.35831 22.5995 11.3998 22.5995C14.4418 22.5995 14.8224 22.5861 16.0171 22.5318C17.2094 22.4772 18.0242 22.2884 18.7369 22.0114C19.4733 21.7254 20.0972 21.3418 20.7195 20.7188C21.3425 20.0962 21.7252 19.4714 22.0122 18.7349C22.2875 18.0226 22.4765 17.2085 22.5325 16.0166C22.5862 14.8219 22.6002 14.4411 22.6002 11.3993C22.6002 8.35757 22.5862 7.97583 22.5325 6.78115C22.4765 5.58881 22.2875 4.77493 22.0122 4.06279C21.7252 3.32615 21.3425 2.70128 20.7195 2.07874C20.0965 1.45573 19.4735 1.07306 18.7362 0.787225C18.0221 0.510255 17.2078 0.321487 16.0155 0.266886C14.8208 0.212519 14.4404 0.199219 11.3977 0.199219H11.4012ZM11.028 2.21753H11.0281H11.0282L11.4015 2.21764C14.3919 2.21764 14.7464 2.22838 15.9273 2.28204C17.0193 2.33198 17.612 2.51445 18.0068 2.66775C18.5294 2.87075 18.9021 3.11342 19.2938 3.50542C19.6858 3.89743 19.9285 4.27077 20.132 4.79344C20.2853 5.18777 20.468 5.78045 20.5177 6.87246C20.5714 8.05314 20.583 8.40781 20.583 11.3968C20.583 14.3859 20.5714 14.7405 20.5177 15.9212C20.4678 17.0132 20.2853 17.6059 20.132 18.0002C19.929 18.5229 19.6858 18.8951 19.2938 19.2869C18.9018 19.6789 18.5297 19.9215 18.0068 20.1245C17.6124 20.2785 17.0193 20.4605 15.9273 20.5105C14.7466 20.5641 14.3919 20.5758 11.4015 20.5758C8.41083 20.5758 8.05639 20.5641 6.87571 20.5105C5.7837 20.4601 5.19102 20.2776 4.79599 20.1243C4.27331 19.9213 3.89998 19.6786 3.50797 19.2866C3.11597 18.8946 2.8733 18.5222 2.66983 17.9993C2.51653 17.605 2.33383 17.0123 2.28413 15.9203C2.23046 14.7396 2.21973 14.3849 2.21973 11.394C2.21973 8.40314 2.23046 8.05034 2.28413 6.86966C2.33406 5.77765 2.51653 5.18497 2.66983 4.79017C2.87283 4.2675 3.11597 3.89416 3.50797 3.50216C3.89998 3.11015 4.27331 2.86748 4.79599 2.66402C5.19079 2.51001 5.7837 2.32801 6.87571 2.27784C7.90892 2.23118 8.30932 2.21718 10.3967 2.21484V2.21764C10.5918 2.21734 10.8016 2.21743 11.028 2.21753ZM17.3801 4.07859C16.6381 4.07859 16.0361 4.6799 16.0361 5.42214C16.0361 6.16415 16.6381 6.76615 17.3801 6.76615C18.1222 6.76615 18.7242 6.16415 18.7242 5.42214C18.7242 4.68013 18.1222 4.07812 17.3801 4.07812V4.07859ZM5.64977 11.3994C5.64977 8.22308 8.22496 5.6478 11.4013 5.64768C14.5777 5.64768 17.1523 8.22301 17.1523 11.3994C17.1523 14.5758 14.5779 17.15 11.4015 17.15C8.22509 17.15 5.64977 14.5758 5.64977 11.3994ZM15.1347 11.3974C15.1347 9.33545 13.4631 7.66406 11.4013 7.66406C9.33935 7.66406 7.66797 9.33545 7.66797 11.3974C7.66797 13.4592 9.33935 15.1308 11.4013 15.1308C13.4631 15.1308 15.1347 13.4592 15.1347 11.3974Z" fill="white"/>
<path d="M6.78306 0.266886L6.77397 0.0670929L6.77392 0.0670955L6.78306 0.266886ZM4.0647 0.787225L4.1371 0.97366L4.1372 0.973623L4.0647 0.787225ZM2.08065 2.07874L2.22202 2.22021L2.2221 2.22013L2.08065 2.07874ZM0.787968 4.06256L0.974313 4.13519L0.974316 4.13518L0.787968 4.06256ZM0.267629 6.78092L0.0678318 6.77192L0.0678291 6.77198L0.267629 6.78092ZM0.267863 16.0163L0.0680677 16.0254L0.0680739 16.0255L0.267863 16.0163ZM0.788202 18.7347L0.601782 18.8072L0.601786 18.8072L0.788202 18.7347ZM2.07995 20.7188L2.22145 20.5774L2.22134 20.5773L2.07995 20.7188ZM4.0633 22.0114L4.13576 21.825L4.13574 21.825L4.0633 22.0114ZM6.78213 22.5318L6.77298 22.7316L6.77304 22.7316L6.78213 22.5318ZM16.0171 22.5318L16.0262 22.7316L16.0262 22.7316L16.0171 22.5318ZM18.7369 22.0114L18.6644 21.825L18.6644 21.825L18.7369 22.0114ZM20.7195 20.7188L20.5781 20.5773L20.578 20.5774L20.7195 20.7188ZM22.0122 18.7349L22.1985 18.8076L22.1987 18.807L22.0122 18.7349ZM22.5325 16.0166L22.7323 16.026L22.7323 16.0256L22.5325 16.0166ZM22.5325 6.78115L22.7323 6.77218L22.7323 6.77177L22.5325 6.78115ZM22.0122 4.06279L22.1987 3.99067L22.1985 3.99019L22.0122 4.06279ZM20.7195 2.07874L20.5781 2.22016L20.5781 2.22021L20.7195 2.07874ZM18.7362 0.787225L18.6638 0.973687L18.6639 0.973703L18.7362 0.787225ZM16.0155 0.266886L16.0246 0.0670955L16.0246 0.0670929L16.0155 0.266886ZM11.028 2.21753L11.0279 2.41753H11.028V2.21753ZM11.0282 2.21753L11.0283 2.01753H11.0282V2.21753ZM11.4015 2.21764L11.4014 2.41764H11.4015V2.21764ZM15.9273 2.28204L15.9364 2.08225L15.9364 2.08225L15.9273 2.28204ZM18.0068 2.66775L18.0792 2.48132L18.0792 2.48131L18.0068 2.66775ZM19.2938 3.50542L19.1524 3.6468L19.1524 3.64685L19.2938 3.50542ZM20.132 4.79344L20.3184 4.72097L20.3184 4.72088L20.132 4.79344ZM20.5177 6.87246L20.7175 6.86338V6.86337L20.5177 6.87246ZM20.5177 15.9212L20.7175 15.9304L20.7175 15.9303L20.5177 15.9212ZM20.132 18.0002L19.9456 17.9278L19.9456 17.9278L20.132 18.0002ZM19.2938 19.2869L19.1525 19.1454L19.1524 19.1454L19.2938 19.2869ZM18.0068 20.1245L17.9344 19.9381L17.934 19.9382L18.0068 20.1245ZM15.9273 20.5105L15.9364 20.7103L15.9364 20.7103L15.9273 20.5105ZM6.87571 20.5105L6.86649 20.7103L6.86663 20.7103L6.87571 20.5105ZM4.79599 20.1243L4.72358 20.3107L4.72363 20.3108L4.79599 20.1243ZM3.50797 19.2866L3.64939 19.1452V19.1452L3.50797 19.2866ZM2.66983 17.9993L2.48342 18.0718L2.48344 18.0718L2.66983 17.9993ZM2.28413 15.9203L2.08433 15.9294L2.08433 15.9294L2.28413 15.9203ZM2.28413 6.86966L2.08434 6.86052L2.08433 6.86058L2.28413 6.86966ZM2.66983 4.79017L2.4834 4.71776L2.48339 4.71778L2.66983 4.79017ZM3.50797 3.50216L3.64939 3.64358V3.64358L3.50797 3.50216ZM4.79599 2.66402L4.86854 2.85039L4.86867 2.85034L4.79599 2.66402ZM6.87571 2.27784L6.86669 2.07805L6.86653 2.07806L6.87571 2.27784ZM10.3967 2.21484H10.5967V2.01462L10.3965 2.01484L10.3967 2.21484ZM10.3967 2.21764H10.1967V2.41796L10.3971 2.41764L10.3967 2.21764ZM17.3801 4.07859V4.27859H17.5801V4.07859H17.3801ZM17.3801 4.07812V3.87812H17.1801V4.07812H17.3801ZM11.4013 5.64768V5.44768H11.4013L11.4013 5.64768ZM6.79216 0.466679C7.98231 0.412518 8.36052 0.399219 11.4012 0.399219V-0.000781253C8.35845 -0.000781253 7.97317 0.0125199 6.77397 0.0670929L6.79216 0.466679ZM4.1372 0.973623C4.8266 0.705499 5.61872 0.520414 6.79221 0.466677L6.77392 0.0670955C5.56271 0.12256 4.72709 0.315012 3.99221 0.600826L4.1372 0.973623ZM2.2221 2.22013C2.82358 1.61842 3.42442 1.25042 4.1371 0.97366L3.9923 0.60079C3.2317 0.896164 2.58279 1.29351 1.9392 1.93734L2.2221 2.22013ZM0.974316 4.13518C1.25204 3.42257 1.62009 2.82169 2.22202 2.22021L1.93928 1.93726C1.29519 2.58087 0.897898 3.22973 0.60162 3.98993L0.974316 4.13518ZM0.467427 6.78992C0.52024 5.61701 0.705536 4.82475 0.974313 4.13519L0.601623 3.98993C0.315061 4.72512 0.122353 5.56107 0.0678318 6.77192L0.467427 6.78992ZM0.400195 11.3993C0.400195 8.35871 0.414191 7.98016 0.46743 6.78986L0.0678291 6.77198C0.0141996 7.97104 0.00019531 8.35643 0.00019531 11.3993H0.400195ZM0.467658 16.0073C0.413727 14.8171 0.400195 14.44 0.400195 11.3993H0.00019531C0.00019531 14.4422 0.0137308 14.8262 0.0680677 16.0254L0.467658 16.0073ZM0.974621 18.6623C0.706707 17.9728 0.521619 17.1807 0.467652 16.0072L0.0680739 16.0255C0.123774 17.2367 0.316223 18.0723 0.601782 18.8072L0.974621 18.6623ZM2.22134 20.5773C1.61963 19.9758 1.25162 19.375 0.974617 18.6623L0.601786 18.8072C0.897387 19.5677 1.29472 20.2166 1.93855 20.8602L2.22134 20.5773ZM4.13574 21.825C3.42364 21.5483 2.82278 21.1794 2.22145 20.5774L1.93845 20.8601C2.58173 21.5041 3.23061 21.9024 3.99086 22.1979L4.13574 21.825ZM6.79128 22.332C5.61803 22.2783 4.82565 22.0932 4.13576 21.825L3.99085 22.1979C4.72617 22.4837 5.56201 22.6761 6.77298 22.7316L6.79128 22.332ZM11.3998 22.3995C8.35935 22.3995 7.98138 22.3862 6.79122 22.332L6.77304 22.7316C7.97224 22.7861 8.35728 22.7995 11.3998 22.7995V22.3995ZM16.008 22.332C14.8178 22.3862 14.4408 22.3995 11.3998 22.3995V22.7995C14.4429 22.7995 14.827 22.7861 16.0262 22.7316L16.008 22.332ZM18.6644 21.825C17.9745 22.0932 17.1815 22.2783 16.0079 22.332L16.0262 22.7316C17.2374 22.6761 18.074 22.4837 18.8093 22.1979L18.6644 21.825ZM20.578 20.5774C19.9766 21.1795 19.3767 21.5483 18.6644 21.825L18.8093 22.1979C19.5699 21.9024 20.2178 21.5041 20.861 20.8601L20.578 20.5774ZM21.8258 18.6623C21.5481 19.3749 21.1801 19.9758 20.5781 20.5773L20.8609 20.8602C21.505 20.2166 21.9023 19.5678 22.1985 18.8076L21.8258 18.6623ZM22.3327 16.0072C22.2776 17.1803 22.0923 17.9729 21.8256 18.6628L22.1987 18.807C22.4827 18.0722 22.6754 17.2366 22.7323 16.026L22.3327 16.0072ZM22.4002 11.3993C22.4002 14.44 22.3862 14.8173 22.3327 16.0076L22.7323 16.0256C22.7862 14.8265 22.8002 14.4422 22.8002 11.3993H22.4002ZM22.3327 6.79013C22.3862 7.98041 22.4002 8.35871 22.4002 11.3993H22.8002C22.8002 8.35643 22.7862 7.97125 22.7323 6.77218L22.3327 6.79013ZM21.8256 4.13492C22.0923 4.82461 22.2776 5.61697 22.3327 6.79054L22.7323 6.77177C22.6754 5.56065 22.4827 4.72526 22.1987 3.99067L21.8256 4.13492ZM20.5781 2.22021C21.1801 2.82169 21.5481 3.42257 21.8258 4.1354L22.1985 3.99019C21.9023 3.22974 21.505 2.58087 20.8609 1.93726L20.5781 2.22021ZM18.6639 0.973703C19.377 1.25015 19.976 1.61807 20.5781 2.22016L20.8609 1.93732C20.217 1.29339 19.57 0.895969 18.8084 0.600746L18.6639 0.973703ZM16.0063 0.466677C17.1798 0.520413 17.9724 0.705495 18.6638 0.973687L18.8085 0.600762C18.0719 0.315016 17.2358 0.122561 16.0246 0.0670955L16.0063 0.466677ZM11.3977 0.399219C14.4394 0.399219 14.8162 0.412518 16.0064 0.466679L16.0246 0.0670929C14.8254 0.0125199 14.4415 -0.000781253 11.3977 -0.000781253V0.399219ZM11.4012 -0.000781253H11.3977V0.399219H11.4012V-0.000781253ZM11.0281 2.01753H11.028V2.41753H11.0281V2.01753ZM11.0282 2.01753H11.0281V2.41753H11.0282V2.01753ZM11.4015 2.01764L11.0283 2.01753L11.0281 2.41753L11.4014 2.41764L11.4015 2.01764ZM15.9364 2.08225C14.7508 2.02837 14.3927 2.01764 11.4015 2.01764V2.41764C14.3912 2.41764 14.7419 2.42838 15.9182 2.48184L15.9364 2.08225ZM18.0792 2.48131C17.6645 2.3203 17.0505 2.1332 15.9364 2.08225L15.9181 2.48184C16.9881 2.53076 17.5594 2.70859 17.9344 2.85419L18.0792 2.48131ZM19.4353 3.36404C19.0237 2.95219 18.6275 2.69427 18.0792 2.48132L17.9344 2.85418C18.4314 3.04723 18.7804 3.27465 19.1524 3.6468L19.4353 3.36404ZM20.3184 4.72088C20.105 4.17278 19.8472 3.7759 19.4353 3.364L19.1524 3.64685C19.5245 4.01896 19.752 4.36875 19.9456 4.86599L20.3184 4.72088ZM20.7175 6.86337C20.6668 5.74924 20.4794 5.13519 20.3184 4.72097L19.9456 4.8659C20.0911 5.24036 20.2692 5.81166 20.3179 6.88155L20.7175 6.86337ZM20.783 11.3968C20.783 8.40691 20.7714 8.04865 20.7175 6.86338L20.3179 6.88154C20.3714 8.05763 20.383 8.40871 20.383 11.3968H20.783ZM20.7175 15.9303C20.7714 14.745 20.783 14.3868 20.783 11.3968H20.383C20.383 14.385 20.3714 14.736 20.3179 15.9121L20.7175 15.9303ZM20.3184 18.0727C20.4794 17.6585 20.6665 17.0444 20.7175 15.9304L20.3179 15.9121C20.269 16.982 20.0911 17.5533 19.9456 17.9278L20.3184 18.0727ZM19.4352 19.4283C19.847 19.0168 20.1054 18.6211 20.3184 18.0727L19.9456 17.9278C19.7526 18.4247 19.5247 18.7733 19.1525 19.1454L19.4352 19.4283ZM18.0791 20.311C18.6278 20.098 19.0235 19.8401 19.4353 19.4283L19.1524 19.1454C18.7802 19.5177 18.4316 19.7451 17.9344 19.9381L18.0791 20.311ZM15.9364 20.7103C17.0503 20.6593 17.6649 20.4727 18.0795 20.3108L17.934 19.9382C17.5599 20.0843 16.9882 20.2617 15.9181 20.3107L15.9364 20.7103ZM11.4015 20.7758C14.3928 20.7758 14.7511 20.7641 15.9364 20.7103L15.9182 20.3107C14.7421 20.3641 14.391 20.3758 11.4015 20.3758V20.7758ZM6.86663 20.7103C8.0519 20.7641 8.40993 20.7758 11.4015 20.7758V20.3758C8.41172 20.3758 8.06088 20.3641 6.88479 20.3107L6.86663 20.7103ZM4.72363 20.3108C5.13847 20.4717 5.75244 20.6588 6.86649 20.7103L6.88493 20.3107C5.81495 20.2613 5.24358 20.0835 4.86834 19.9378L4.72363 20.3108ZM3.36655 19.428C3.77845 19.8399 4.17537 20.0978 4.72358 20.3107L4.8684 19.9379C4.37126 19.7448 4.02151 19.5173 3.64939 19.1452L3.36655 19.428ZM2.48344 18.0718C2.69686 18.6203 2.95475 19.0162 3.36655 19.428L3.64939 19.1452C3.27719 18.773 3.04974 18.4241 2.85622 17.9268L2.48344 18.0718ZM2.08433 15.9294C2.13504 17.0435 2.32239 17.6576 2.48342 18.0718L2.85624 17.9268C2.71067 17.5524 2.53261 16.9811 2.48392 15.9112L2.08433 15.9294ZM2.01973 11.394C2.01973 14.3857 2.03045 14.744 2.08433 15.9294L2.48392 15.9112C2.43047 14.7352 2.41973 14.3842 2.41973 11.394H2.01973ZM2.08433 6.86058C2.03045 8.04592 2.01973 8.40238 2.01973 11.394H2.41973C2.41973 8.40391 2.43047 8.05476 2.48392 6.87874L2.08433 6.86058ZM2.48339 4.71778C2.32238 5.13243 2.13528 5.74645 2.08434 6.86052L2.48392 6.87879C2.53284 5.80885 2.71068 5.23752 2.85627 4.86256L2.48339 4.71778ZM3.36655 3.36074C2.95473 3.77256 2.69636 4.16946 2.4834 4.71776L2.85626 4.86258C3.04931 4.36554 3.27721 4.01577 3.64939 3.64358L3.36655 3.36074ZM4.72343 2.47764C4.17533 2.69101 3.77845 2.94884 3.36655 3.36074L3.64939 3.64358C4.02151 3.27147 4.3713 3.04396 4.86854 2.85039L4.72343 2.47764ZM6.86653 2.07806C5.75261 2.12923 5.13826 2.31583 4.72331 2.47769L4.86867 2.85034C5.24332 2.7042 5.81479 2.52679 6.88489 2.47763L6.86653 2.07806ZM10.3965 2.01484C8.30717 2.01718 7.90368 2.03121 6.86669 2.07805L6.88473 2.47764C7.91416 2.43114 8.31148 2.41717 10.397 2.41484L10.3965 2.01484ZM10.5967 2.21764V2.21484H10.1967V2.21764H10.5967ZM11.0281 2.01753C10.8017 2.01743 10.5917 2.01734 10.3964 2.01764L10.3971 2.41764C10.5919 2.41734 10.8015 2.41743 11.0279 2.41753L11.0281 2.01753ZM16.2361 5.42214C16.2361 4.79047 16.7485 4.27859 17.3801 4.27859V3.87859C16.5278 3.87859 15.8361 4.56933 15.8361 5.42214H16.2361ZM17.3801 6.56615C16.7486 6.56615 16.2361 6.05369 16.2361 5.42214H15.8361C15.8361 6.2746 16.5277 6.96615 17.3801 6.96615V6.56615ZM18.5242 5.42214C18.5242 6.05369 18.0117 6.56615 17.3801 6.56615V6.96615C18.2326 6.96615 18.9242 6.2746 18.9242 5.42214H18.5242ZM17.3801 4.27812C18.0117 4.27812 18.5242 4.79059 18.5242 5.42214H18.9242C18.9242 4.56967 18.2326 3.87812 17.3801 3.87812V4.27812ZM17.5801 4.07859V4.07812H17.1801V4.07859H17.5801ZM11.4013 5.44768C8.1145 5.44781 5.44977 8.11263 5.44977 11.3994H5.84977C5.84977 8.33354 8.33543 5.8478 11.4013 5.84768L11.4013 5.44768ZM17.3523 11.3994C17.3523 8.11258 14.6881 5.44768 11.4013 5.44768V5.84768C14.4672 5.84768 16.9523 8.33343 16.9523 11.3994H17.3523ZM11.4015 17.35C14.6883 17.35 17.3523 14.6863 17.3523 11.3994H16.9523C16.9523 14.4653 14.4674 16.95 11.4015 16.95V17.35ZM5.44977 11.3994C5.44977 14.6863 8.11469 17.35 11.4015 17.35V16.95C8.3355 16.95 5.84977 14.4653 5.84977 11.3994H5.44977ZM11.4013 7.86406C13.3526 7.86406 14.9347 9.44591 14.9347 11.3974H15.3347C15.3347 9.22498 13.5735 7.46406 11.4013 7.46406V7.86406ZM7.86797 11.3974C7.86797 9.4459 9.44981 7.86406 11.4013 7.86406V7.46406C9.2289 7.46406 7.46797 9.22499 7.46797 11.3974H7.86797ZM11.4013 14.9308C9.44982 14.9308 7.86797 13.3487 7.86797 11.3974H7.46797C7.46797 13.5696 9.22889 15.3308 11.4013 15.3308V14.9308ZM14.9347 11.3974C14.9347 13.3487 13.3526 14.9308 11.4013 14.9308V15.3308C13.5736 15.3308 15.3347 13.5696 15.3347 11.3974H14.9347Z" fill="white" mask="url(#path-1-outside-1_489_536)"/>
</svg>
