<svg width="321" height="262" viewBox="0 0 321 262" fill="none" xmlns="http://www.w3.org/2000/svg">
<path opacity="0.75" d="M179.919 11.3463C162.43 1.01948 143.666 14.2707 133.828 34.6502C123.991 55.0297 120.074 72.4848 80.2686 64.7168C40.4632 56.9488 22.9744 77.9681 25.3427 112.33C27.711 146.783 68.9737 218.98 178.37 213.679C287.675 208.287 320.558 138.101 315.731 106.024C310.903 73.947 250.603 81.8977 226.829 55.3039C203.146 28.8014 192.489 18.8401 179.919 11.3463Z" fill="#EDEFF4"/>
<path d="M159.019 159.283L115.407 180.697C114.592 181.074 114 182.019 114 182.775V183.279C114 184.034 114.666 184.979 115.407 185.357L159.019 206.77C159.833 207.148 161.092 207.148 161.832 206.77L205.444 185.357C206.258 184.979 206.851 184.034 206.851 183.279V182.775C206.851 182.019 206.184 181.074 205.444 180.697L161.832 159.283C161.092 158.906 159.833 158.906 159.019 159.283Z" fill="#405CE1"/>
<path opacity="0.7" d="M159.019 159.283L115.407 180.697C114.592 181.074 114 182.019 114 182.775V183.279C114 184.034 114.666 184.979 115.407 185.357L159.019 206.77C159.833 207.148 161.092 207.148 161.832 206.77L205.444 185.357C206.258 184.979 206.851 184.034 206.851 183.279V182.775C206.851 182.019 206.184 181.074 205.444 180.697L161.832 159.283C161.092 158.906 159.833 158.906 159.019 159.283Z" fill="#FAFAFA"/>
<path d="M117.332 179.758L115.407 180.703C114.592 181.08 114 182.025 114 182.781V183.285C114 184.04 114.666 184.985 115.407 185.363L159.019 206.776C159.389 206.965 159.907 207.091 160.425 207.091V200.982L117.332 179.758Z" fill="#405CE1"/>
<path opacity="0.6" d="M117.332 179.758L115.407 180.703C114.592 181.08 114 182.025 114 182.781V183.285C114 184.04 114.666 184.985 115.407 185.363L159.019 206.776C159.389 206.965 159.907 207.091 160.425 207.091V200.982L117.332 179.758Z" fill="#FAFAFA"/>
<path d="M159.018 159.283L115.407 180.697C114.592 181.074 114.592 181.704 115.407 182.082L159.018 203.495C159.833 203.873 161.092 203.873 161.832 203.495L205.444 182.082C206.258 181.704 206.258 181.074 205.444 180.697L161.832 159.283C161.092 158.906 159.833 158.906 159.018 159.283Z" fill="#405CE1"/>
<path opacity="0.8" d="M159.018 159.283L115.407 180.697C114.592 181.074 114.592 181.704 115.407 182.082L159.018 203.495C159.833 203.873 161.092 203.873 161.832 203.495L205.444 182.082C206.258 181.704 206.258 181.074 205.444 180.697L161.832 159.283C161.092 158.906 159.833 158.906 159.018 159.283Z" fill="#FAFAFA"/>
<path fill-rule="evenodd" clip-rule="evenodd" d="M158.426 181.592L137.99 183.167C135.991 177.058 144.506 171.327 156.945 170.382C164.424 169.815 171.236 170.886 176.641 173.531L162.277 180.585C161.24 181.025 159.537 181.466 158.426 181.592Z" fill="#3C3C6D"/>
<path d="M137.99 183.793C137.694 183.793 137.398 183.604 137.25 183.352C136.584 181.148 137.028 178.944 138.657 176.928C141.767 173.087 148.579 170.379 156.798 169.749C164.424 169.182 171.384 170.253 176.863 172.961C177.086 173.087 177.234 173.276 177.234 173.528C177.234 173.779 177.086 173.968 176.863 174.094L162.499 181.148C161.462 181.652 159.611 182.156 158.427 182.282L137.99 183.793ZM160.796 170.882C159.537 170.882 158.278 170.945 156.946 171.008C149.245 171.575 142.729 174.157 139.916 177.621C138.657 179.196 138.213 180.833 138.583 182.471L158.427 180.959C159.463 180.896 161.018 180.455 161.907 180.014L175.086 173.528C170.94 171.764 166.127 170.882 160.796 170.882Z" fill="#FAFAFA"/>
<path fill-rule="evenodd" clip-rule="evenodd" d="M161.832 182.722L170.791 191.413C159.611 194.247 145.913 192.043 140.137 186.5C139.027 185.43 138.36 184.422 137.916 183.162L158.352 181.588C159.537 181.462 161.018 182.029 161.832 182.722Z" fill="#405CE1"/>
<path d="M160.499 193.238C151.984 193.238 143.766 190.908 139.545 186.94C138.36 185.743 137.62 184.673 137.176 183.35C137.102 183.161 137.176 182.972 137.25 182.846C137.398 182.72 137.546 182.594 137.768 182.594L158.204 181.02C159.537 180.894 161.314 181.524 162.202 182.343L171.162 191.034C171.31 191.223 171.384 191.412 171.31 191.601C171.236 191.79 171.014 191.978 170.792 192.041C167.608 192.797 164.054 193.238 160.499 193.238ZM138.953 183.728C139.323 184.547 139.915 185.303 140.73 186.058C146.061 191.223 158.722 193.364 169.459 191.034L161.24 183.161C160.648 182.594 159.389 182.154 158.5 182.217L138.953 183.728Z" fill="#FAFAFA"/>
<path fill-rule="evenodd" clip-rule="evenodd" d="M162.499 181.274L182.935 179.699C184.49 184.549 179.751 189.146 170.792 191.413L161.833 182.722C161.018 182.029 161.388 181.337 162.499 181.274Z" fill="#FFA200"/>
<path d="M170.792 191.978C170.57 191.978 170.348 191.915 170.2 191.789L161.24 183.098C160.722 182.594 160.5 181.964 160.722 181.46C160.944 180.956 161.536 180.641 162.351 180.578L182.787 179.004C183.157 179.004 183.453 179.193 183.601 179.445C185.304 184.672 180.344 189.585 170.94 191.915C170.94 191.978 170.866 191.978 170.792 191.978ZM162.573 181.901C162.277 181.901 162.129 181.964 162.129 182.027C162.129 182.027 162.203 182.153 162.351 182.342L171.014 190.718C178.937 188.64 183.305 184.672 182.343 180.389L162.573 181.901Z" fill="#FAFAFA"/>
<path fill-rule="evenodd" clip-rule="evenodd" d="M162.203 180.581L176.567 173.527C180.121 175.291 182.195 177.243 182.935 179.699L162.499 181.274C161.388 181.337 161.24 181.022 162.203 180.581Z" fill="#37474F"/>
<path d="M162.128 181.905C161.684 181.905 161.018 181.842 160.87 181.338C160.648 180.645 161.536 180.204 161.832 180.015L176.197 172.962C176.419 172.836 176.715 172.836 176.937 172.962C180.713 174.788 182.861 176.866 183.675 179.512C183.749 179.701 183.675 179.889 183.601 180.015C183.453 180.141 183.305 180.267 183.083 180.267L162.647 181.842C162.425 181.905 162.351 181.905 162.128 181.905ZM176.567 174.221L163.757 180.519L181.972 179.134C181.084 177.244 179.381 175.67 176.567 174.221Z" fill="#FAFAFA"/>
<path d="M211.019 138.283L167.407 159.697C166.592 160.074 166 161.019 166 161.775V162.279C166 163.034 166.666 163.979 167.407 164.357L211.019 185.77C211.833 186.148 213.092 186.148 213.832 185.77L257.444 164.357C258.258 163.979 258.851 163.034 258.851 162.279V161.775C258.851 161.019 258.184 160.074 257.444 159.697L213.832 138.283C213.092 137.906 211.833 137.906 211.019 138.283Z" fill="#405CE1"/>
<path opacity="0.7" d="M211.019 138.283L167.407 159.697C166.592 160.074 166 161.019 166 161.775V162.279C166 163.034 166.666 163.979 167.407 164.357L211.019 185.77C211.833 186.148 213.092 186.148 213.832 185.77L257.444 164.357C258.258 163.979 258.851 163.034 258.851 162.279V161.775C258.851 161.019 258.184 160.074 257.444 159.697L213.832 138.283C213.092 137.906 211.833 137.906 211.019 138.283Z" fill="#FAFAFA"/>
<path d="M169.332 158.75L167.407 159.695C166.592 160.073 166 161.017 166 161.773V162.277C166 163.033 166.666 163.977 167.407 164.355L211.019 185.768C211.389 185.957 211.907 186.083 212.425 186.083V179.974L169.332 158.75Z" fill="#405CE1"/>
<path opacity="0.6" d="M169.332 158.75L167.407 159.695C166.592 160.073 166 161.017 166 161.773V162.277C166 163.033 166.666 163.977 167.407 164.355L211.019 185.768C211.389 185.957 211.907 186.083 212.425 186.083V179.974L169.332 158.75Z" fill="#FAFAFA"/>
<path d="M211.018 138.283L167.407 159.697C166.592 160.074 166.592 160.704 167.407 161.082L211.018 182.495C211.833 182.873 213.092 182.873 213.832 182.495L257.444 161.082C258.258 160.704 258.258 160.074 257.444 159.697L213.832 138.283C213.092 137.906 211.833 137.906 211.018 138.283Z" fill="#405CE1"/>
<path opacity="0.8" d="M211.018 138.283L167.407 159.697C166.592 160.074 166.592 160.704 167.407 161.082L211.018 182.495C211.833 182.873 213.092 182.873 213.832 182.495L257.444 161.082C258.258 160.704 258.258 160.074 257.444 159.697L213.832 138.283C213.092 137.906 211.833 137.906 211.018 138.283Z" fill="#FAFAFA"/>
<path d="M192.582 153.839L201.541 152.391C202.059 152.328 202.578 152.643 202.578 153.084V154.595C202.578 155.099 203.022 155.414 203.614 155.351L218.201 153.902C218.793 153.839 219.089 154.154 218.867 154.595L216.202 161.082C216.053 161.523 216.35 161.901 216.868 161.901H228.123C228.715 161.901 229.011 162.279 228.789 162.72L225.827 170.025L212.573 176.512L179.402 160.2L192.582 153.839Z" fill="#3C3C6D"/>
<path d="M212.499 176.637L222.421 171.724L225.383 164.418C225.531 163.978 225.235 163.663 224.717 163.789L206.798 166.749C206.28 166.812 205.909 166.56 206.132 166.119L208.797 159.632C208.945 159.191 208.649 158.876 208.131 158.939L193.544 160.388C192.952 160.451 192.73 160.136 193.026 159.758L195.321 156.357C195.617 155.916 195.395 155.664 194.803 155.79L185.844 157.239L179.18 160.514L212.499 176.637Z" fill="#405CE1"/>
<path d="M149.019 130.283L105.407 151.697C104.592 152.074 104 153.019 104 153.775V154.279C104 155.034 104.666 155.979 105.407 156.357L149.019 177.77C149.833 178.148 151.092 178.148 151.832 177.77L195.444 156.357C196.258 155.979 196.851 155.034 196.851 154.279V153.775C196.851 153.019 196.184 152.074 195.444 151.697L151.832 130.283C151.018 129.906 149.759 129.906 149.019 130.283Z" fill="#405CE1"/>
<path opacity="0.7" d="M149.019 130.283L105.407 151.697C104.592 152.074 104 153.019 104 153.775V154.279C104 155.034 104.666 155.979 105.407 156.357L149.019 177.77C149.833 178.148 151.092 178.148 151.832 177.77L195.444 156.357C196.258 155.979 196.851 155.034 196.851 154.279V153.775C196.851 153.019 196.184 152.074 195.444 151.697L151.832 130.283C151.018 129.906 149.759 129.906 149.019 130.283Z" fill="#FAFAFA"/>
<path d="M107.332 150.75L105.407 151.695C104.592 152.073 104 153.017 104 153.773V154.277C104 155.033 104.666 155.977 105.407 156.355L149.019 177.768C149.389 177.957 149.907 178.083 150.425 178.083V171.974L107.332 150.75Z" fill="#405CE1"/>
<path opacity="0.6" d="M107.332 150.75L105.407 151.695C104.592 152.073 104 153.017 104 153.773V154.277C104 155.033 104.666 155.977 105.407 156.355L149.019 177.768C149.389 177.957 149.907 178.083 150.425 178.083V171.974L107.332 150.75Z" fill="#FAFAFA"/>
<path d="M149.018 130.283L105.407 151.697C104.592 152.074 104.592 152.704 105.407 153.082L149.018 174.495C149.833 174.873 151.092 174.873 151.832 174.495L195.444 153.082C196.258 152.704 196.258 152.074 195.444 151.697L151.832 130.283C151.018 129.906 149.759 129.906 149.018 130.283Z" fill="#405CE1"/>
<path opacity="0.8" d="M149.018 130.283L105.407 151.697C104.592 152.074 104.592 152.704 105.407 153.082L149.018 174.495C149.833 174.873 151.092 174.873 151.832 174.495L195.444 153.082C196.258 152.704 196.258 152.074 195.444 151.697L151.832 130.283C151.018 129.906 149.759 129.906 149.018 130.283Z" fill="#FAFAFA"/>
<path d="M120.437 149.993L142.28 139.286C142.65 139.097 143.317 139.097 143.687 139.286L147.241 141.05C147.611 141.239 147.611 141.554 147.241 141.742L125.398 152.449C125.028 152.638 124.362 152.638 123.991 152.449L120.437 150.686C120.067 150.497 120.067 150.182 120.437 149.993Z" fill="#405CE1"/>
<path d="M130.433 154.905L145.612 147.474C145.982 147.285 146.648 147.285 147.019 147.474L150.573 149.237C150.943 149.426 150.943 149.741 150.573 149.93L135.32 157.299C134.95 157.488 134.283 157.488 133.913 157.299L130.359 155.535C129.989 155.409 129.989 155.094 130.433 154.905Z" fill="#3C3C6D"/>
<path d="M140.355 159.755L165.456 147.411C165.826 147.222 166.492 147.222 166.862 147.411L170.417 149.175C170.787 149.364 170.787 149.679 170.417 149.867L145.316 162.212C144.946 162.4 144.279 162.4 143.909 162.212L140.355 160.448C139.985 160.259 139.985 159.944 140.355 159.755Z" fill="#37474F"/>
<path d="M150.277 164.67L162.124 158.876C162.494 158.687 163.16 158.687 163.531 158.876L167.085 160.64C167.455 160.828 167.455 161.143 167.085 161.332L155.238 167.126C154.867 167.315 154.201 167.315 153.831 167.126L150.277 165.363C149.906 165.174 149.906 164.859 150.277 164.67Z" fill="#FFA200"/>
<path d="M36.3322 0.458173C35.8231 0.458173 35.3139 0.458173 34.8896 0.458173C35.1442 0.373317 35.6533 0.373317 36.3322 0.458173Z" fill="url(#paint0_linear_461_3290)"/>
<path d="M254.68 198.515C250.09 200.844 247.654 204.292 255.242 205.038C262.831 205.783 272.761 215.194 291.685 211.933C310.609 208.578 296.931 195.533 268.826 193.949L254.68 198.515Z" fill="#EDEFF4"/>
<path opacity="0.75" d="M93.1426 233.935C96.7891 235.691 98.4333 239.935 96.4992 243.338C95.143 245.889 92.465 248.039 87.394 247.922C75.8702 247.541 67.538 260.471 46.5838 249.615C25.6296 238.76 61.9496 227.666 61.9496 227.666C61.9496 227.666 69.4939 222.894 93.1426 233.935Z" fill="#EDEFF4"/>
<path d="M302.523 143.77C302.523 143.77 315.631 146.445 320.301 157.848C320.301 157.848 308.474 161.351 297.099 159.185C285.724 156.956 302.523 143.77 302.523 143.77Z" fill="url(#paint1_linear_461_3290)"/>
<path d="M296.578 150.559C296.578 150.559 306.754 151.744 313.513 154.801C313.513 154.801 304.78 152.43 293.996 151.744L296.578 150.559Z" fill="#405EBF"/>
<path d="M285.41 153.245C285.41 153.245 301.947 154.433 307.46 145.807C312.973 137.181 311.797 132.931 311.797 132.931C311.797 132.931 289.085 132.556 281.294 146.87L285.41 153.245Z" fill="url(#paint2_linear_461_3290)"/>
<path d="M286.292 151.248C286.292 151.248 296.803 140.247 309.812 135.309C309.812 135.309 294.818 139.309 285.41 150.435L286.292 151.248Z" fill="#405EBF"/>
<path d="M285.41 153.245C285.41 153.245 301.947 154.433 307.46 145.807C312.973 137.181 311.797 132.931 311.797 132.931C311.797 132.931 289.085 132.556 281.294 146.87L285.41 153.245Z" fill="url(#paint3_linear_461_3290)"/>
<path d="M286.88 146.934C304.52 151.059 304.961 165.248 308.857 172.687C308.857 172.687 290.114 175.374 281.221 160.31C278.501 154.309 275.782 147.496 286.88 146.934Z" fill="url(#paint4_linear_461_3290)"/>
<path d="M285.704 152.496C285.704 152.496 296.802 158.497 301.212 167.498C301.212 167.498 291.216 155.496 283.866 153.809L285.704 152.496Z" fill="#405EBF"/>
<path d="M286.88 146.934C304.52 151.059 304.961 165.248 308.857 172.687C308.857 172.687 290.114 175.374 281.221 160.31C278.501 154.309 275.782 147.496 286.88 146.934Z" fill="url(#paint5_linear_461_3290)"/>
<path d="M279.677 127.681C279.677 127.681 287.174 118.867 308.783 120.367C308.783 120.367 305.035 121.305 301.801 128.243C298.567 135.181 291.584 141.62 279.236 139.119L279.677 127.681Z" fill="url(#paint6_linear_461_3290)"/>
<path d="M281.809 134.744C281.809 134.744 292.099 126.305 302.242 122.992C302.242 122.992 293.275 124.68 280.633 134.118L281.809 134.744Z" fill="#405EBF"/>
<path d="M279.677 127.681C279.677 127.681 287.174 118.867 308.783 120.367C308.783 120.367 305.035 121.305 301.801 128.243C298.567 135.181 291.584 141.62 279.236 139.119L279.677 127.681Z" fill="url(#paint7_linear_461_3290)"/>
<path d="M301.727 73.1732C301.727 73.1732 304.667 66.86 310.547 61.4219C310.474 61.4844 307.313 69.2978 301.727 73.1732Z" fill="url(#paint8_linear_461_3290)"/>
<path d="M298.052 76.5487C298.052 76.5487 300.551 68.5478 299.816 60.6094C299.742 60.6094 296.729 69.2353 298.052 76.5487Z" fill="url(#paint9_linear_461_3290)"/>
<path d="M316.427 72.3594C316.427 72.3594 307.828 75.9848 298.64 76.8599C298.64 76.8599 307.901 72.6719 316.427 72.3594Z" fill="url(#paint10_linear_461_3290)"/>
<path d="M312.899 78.2336C312.899 78.2336 303.712 81.734 294.083 82.1715C294.157 82.109 304.006 77.9835 312.899 78.2336Z" fill="url(#paint11_linear_461_3290)"/>
<path d="M307.68 83.9845C307.68 83.9845 298.272 87.7349 288.497 88.11C288.497 88.11 298.566 83.672 307.68 83.9845Z" fill="url(#paint12_linear_461_3290)"/>
<path d="M302.829 91.924C302.829 91.924 292.76 94.0493 283.058 92.8617C283.058 92.8617 293.936 90.1739 302.829 91.924Z" fill="url(#paint13_linear_461_3290)"/>
<path d="M293.127 81.6151C293.127 81.6151 294.744 73.4892 293.201 65.6133C293.201 65.6133 291.069 74.4893 293.127 81.6151Z" fill="url(#paint14_linear_461_3290)"/>
<path d="M287.1 87.0488C287.1 87.0488 288.57 78.1103 286.071 69.7969C285.998 69.7969 283.94 79.548 287.1 87.0488Z" fill="url(#paint15_linear_461_3290)"/>
<path d="M281.514 91.5527C281.514 91.5527 282.469 82.5517 279.382 74.3633C279.382 74.3633 277.912 84.2394 281.514 91.5527Z" fill="url(#paint16_linear_461_3290)"/>
<path d="M276.884 95.2368C276.884 95.2368 286.365 90.3613 301.359 73.6094C301.359 73.6094 286.88 91.9239 277.398 96.987L276.884 95.2368Z" fill="#192EAD"/>
<path d="M303.785 100.798C303.785 100.798 309.739 96.3597 317.897 93.7969C317.897 93.7969 310.841 99.485 303.785 100.798Z" fill="url(#paint17_linear_461_3290)"/>
<path d="M298.64 102.361C298.64 102.361 305.182 96.2352 308.783 88.8594C308.857 88.8594 301.433 95.3601 298.64 102.361Z" fill="url(#paint18_linear_461_3290)"/>
<path d="M317.309 105.798C317.309 105.798 307.68 105.673 299.081 102.86C299.007 102.86 309.518 102.735 317.309 105.798Z" fill="url(#paint19_linear_461_3290)"/>
<path d="M310.988 109.614C310.988 109.614 300.918 109.176 292.172 105.738C292.245 105.801 303.27 105.926 310.988 109.614Z" fill="url(#paint20_linear_461_3290)"/>
<path d="M303.27 112.735C303.27 112.735 292.907 112.422 283.94 108.922C283.94 108.922 295.332 108.922 303.27 112.735Z" fill="url(#paint21_linear_461_3290)"/>
<path d="M294.671 117.864C294.671 117.864 284.602 115.864 276.59 110.926C276.59 110.988 287.689 112.801 294.671 117.864Z" fill="url(#paint22_linear_461_3290)"/>
<path d="M291.584 104.923C291.584 104.923 297.464 98.2977 300.257 90.7344C300.33 90.7344 293.642 97.7352 291.584 104.923Z" fill="url(#paint23_linear_461_3290)"/>
<path d="M283.279 107.361C283.279 107.361 289.453 99.9853 291.658 91.6094C291.658 91.6094 284.528 99.4853 283.279 107.361Z" fill="url(#paint24_linear_461_3290)"/>
<path d="M275.855 109.237C275.855 109.237 281.514 101.611 283.278 93.1722C283.278 93.1097 276.663 101.298 275.855 109.237Z" fill="url(#paint25_linear_461_3290)"/>
<path d="M269.828 110.735C269.828 110.735 280.853 110.11 303.197 101.047C303.197 101.047 280.486 111.673 269.24 112.486L269.828 110.735Z" fill="#192EAD"/>
<path d="M276.884 113.865C276.884 113.865 279.53 104.051 285.63 97.8008C285.63 97.8008 303.932 117.365 280.118 129.742L276.884 113.865Z" fill="url(#paint26_linear_461_3290)"/>
<path d="M279.897 123.932C279.897 123.932 285.998 116.993 285.557 106.242C285.557 106.242 284.895 116.868 279.162 122.744L279.897 123.932Z" fill="#405EBF"/>
<path d="M276.884 113.865C276.884 113.865 279.53 104.051 285.63 97.8008C285.63 97.8008 303.932 117.365 280.118 129.742L276.884 113.865Z" fill="url(#paint27_linear_461_3290)"/>
<path d="M53.1527 156.254C53.1527 156.254 42.5028 158.507 38.708 168.109C38.708 168.109 48.3174 171.059 57.5595 169.236C66.8017 167.358 53.1527 156.254 53.1527 156.254Z" fill="url(#paint28_linear_461_3290)"/>
<path d="M57.2276 157.953C57.2276 157.953 46.6092 158.902 39.5566 161.347C39.5566 161.347 48.6695 159.451 59.9219 158.902L57.2276 157.953Z" fill="#405EBF"/>
<path d="M67.2319 164.607C67.2319 164.607 53.5663 165.606 49.0111 158.349C44.456 151.092 45.4277 147.516 45.4277 147.516C45.4277 147.516 64.1951 147.201 70.6331 159.243L67.2319 164.607Z" fill="url(#paint29_linear_461_3290)"/>
<path d="M66.5028 162.925C66.5028 162.925 57.8176 153.67 47.0674 149.516C47.0674 149.516 59.4575 152.881 67.2316 162.241L66.5028 162.925Z" fill="#405EBF"/>
<path d="M67.2319 164.607C67.2319 164.607 53.5663 165.606 49.0111 158.349C44.456 151.092 45.4277 147.516 45.4277 147.516C45.4277 147.516 64.1951 147.201 70.6331 159.243L67.2319 164.607Z" fill="url(#paint30_linear_461_3290)"/>
<path d="M66.0169 159.293C51.4403 162.764 51.0759 174.7 47.8569 180.958C47.8569 180.958 63.3445 183.219 70.6936 170.546C72.9408 165.498 75.1273 159.766 66.0169 159.293Z" fill="url(#paint31_linear_461_3290)"/>
<path d="M66.9891 163.977C66.9891 163.977 57.818 169.025 54.1738 176.597C54.1738 176.597 62.4339 166.501 68.5075 165.081L66.9891 163.977Z" fill="#405EBF"/>
<path d="M66.0169 159.293C51.4403 162.764 51.0759 174.7 47.8569 180.958C47.8569 180.958 63.3445 183.219 70.6936 170.546C72.9408 165.498 75.1273 159.766 66.0169 159.293Z" fill="url(#paint32_linear_461_3290)"/>
<path d="M71.9693 143.094C71.9693 143.094 65.7743 135.679 47.918 136.941C47.918 136.941 51.0155 137.73 53.6879 143.567C56.3602 149.404 62.1301 154.82 72.3337 152.717L71.9693 143.094Z" fill="url(#paint33_linear_461_3290)"/>
<path d="M70.2083 149.036C70.2083 149.036 61.7053 141.937 53.3237 139.15C53.3237 139.15 60.7335 140.57 71.18 148.511L70.2083 149.036Z" fill="#405EBF"/>
<path d="M71.9693 143.094C71.9693 143.094 65.7743 135.679 47.918 136.941C47.918 136.941 51.0155 137.73 53.6879 143.567C56.3602 149.404 62.1301 154.82 72.3337 152.717L71.9693 143.094Z" fill="url(#paint34_linear_461_3290)"/>
<path d="M53.7482 97.2454C53.7482 97.2454 51.3188 91.9343 46.46 87.3594C46.46 87.412 49.1323 93.9851 53.7482 97.2454Z" fill="url(#paint35_linear_461_3290)"/>
<path d="M56.7843 100.081C56.7843 100.081 54.7193 93.3502 55.3267 86.6719C55.3267 86.6719 57.8776 93.9286 56.7843 100.081Z" fill="url(#paint36_linear_461_3290)"/>
<path d="M41.6006 96.5586C41.6006 96.5586 48.7067 99.6085 56.2986 100.345C56.2986 100.345 48.6459 96.8215 41.6006 96.5586Z" fill="url(#paint37_linear_461_3290)"/>
<path d="M44.4551 101.497C44.4551 101.497 52.047 104.442 60.0034 104.81C60.0034 104.758 51.8041 101.287 44.4551 101.497Z" fill="url(#paint38_linear_461_3290)"/>
<path d="M48.7676 106.337C48.7676 106.337 56.5418 109.493 64.6196 109.808C64.6803 109.808 56.2988 106.075 48.7676 106.337Z" fill="url(#paint39_linear_461_3290)"/>
<path d="M52.8369 113.018C52.8369 113.018 61.1577 114.805 69.1748 113.806C69.1748 113.806 60.1859 111.545 52.8369 113.018Z" fill="url(#paint40_linear_461_3290)"/>
<path d="M60.854 104.341C60.854 104.341 59.5178 97.5046 60.7932 90.8789C60.7932 90.8789 62.5546 98.346 60.854 104.341Z" fill="url(#paint41_linear_461_3290)"/>
<path d="M65.8339 108.916C65.8339 108.916 64.6192 101.396 66.6842 94.4023C66.6842 94.4023 68.4456 102.606 65.8339 108.916Z" fill="url(#paint42_linear_461_3290)"/>
<path d="M70.4504 112.703C70.4504 112.703 69.6608 105.131 72.2117 98.2422C72.2117 98.2422 73.4264 106.551 70.4504 112.703Z" fill="url(#paint43_linear_461_3290)"/>
<path d="M74.2157 115.804C74.2157 115.804 66.3808 111.702 53.9907 97.6094C53.9907 97.6094 65.9557 113.017 73.7906 117.276L74.2157 115.804Z" fill="#192EAD"/>
<path d="M52.048 120.483C52.048 120.483 47.1284 116.75 40.3867 114.594C40.3867 114.594 46.1566 119.379 52.048 120.483Z" fill="url(#paint44_linear_461_3290)"/>
<path d="M56.2385 121.796C56.2385 121.796 50.833 116.643 47.8569 110.438C47.8569 110.438 53.9305 115.906 56.2385 121.796Z" fill="url(#paint45_linear_461_3290)"/>
<path d="M40.8726 124.687C40.8726 124.687 48.8289 124.582 55.935 122.215C55.935 122.215 47.2498 122.11 40.8726 124.687Z" fill="url(#paint46_linear_461_3290)"/>
<path d="M46.0352 127.897C46.0352 127.897 54.356 127.529 61.5835 124.637C61.5835 124.689 52.4731 124.794 46.0352 127.897Z" fill="url(#paint47_linear_461_3290)"/>
<path d="M52.4731 130.524C52.4731 130.524 61.0369 130.261 68.4466 127.316C68.3859 127.316 59.0326 127.316 52.4731 130.524Z" fill="url(#paint48_linear_461_3290)"/>
<path d="M59.5791 134.837C59.5791 134.837 67.8999 133.154 74.5201 129C74.5201 129.053 65.2883 130.578 59.5791 134.837Z" fill="url(#paint49_linear_461_3290)"/>
<path d="M62.1302 123.952C62.1302 123.952 57.2713 118.378 54.9634 112.016C54.9027 112.016 60.4296 117.905 62.1302 123.952Z" fill="url(#paint50_linear_461_3290)"/>
<path d="M68.9937 126.001C68.9937 126.001 63.8919 119.796 62.0698 112.75C62.0698 112.75 67.9005 119.376 68.9937 126.001Z" fill="url(#paint51_linear_461_3290)"/>
<path d="M75.0669 127.577C75.0669 127.577 70.3903 121.162 68.9326 114.063C68.9934 114.01 74.4596 120.899 75.0669 127.577Z" fill="url(#paint52_linear_461_3290)"/>
<path d="M80.1082 128.842C80.1082 128.842 70.9978 128.316 52.5342 120.691C52.5342 120.691 71.3015 129.631 80.5941 130.314L80.1082 128.842Z" fill="#192EAD"/>
<path d="M74.2774 131.475C74.2774 131.475 72.0909 123.219 67.0499 117.961C67.0499 117.961 51.9267 134.42 71.605 144.832L74.2774 131.475Z" fill="url(#paint53_linear_461_3290)"/>
<path d="M71.7263 139.94C71.7263 139.94 66.6852 134.103 67.0496 125.059C67.0496 125.059 67.5962 133.998 72.3336 138.941L71.7263 139.94Z" fill="#405EBF"/>
<path d="M74.2774 131.475C74.2774 131.475 72.0909 123.219 67.0499 117.961C67.0499 117.961 51.9267 134.42 71.605 144.832L74.2774 131.475Z" fill="url(#paint54_linear_461_3290)"/>
<path d="M265.477 76.5411C265.477 76.5411 264.888 74.5784 265.673 69.3773C266.557 64.1762 266.262 61.1341 263.416 61.7229C263.416 61.7229 264.3 56.7181 258.706 57.0125C258.706 57.0125 261.356 57.3069 261.356 59.2696C261.356 59.2696 259.491 56.1293 254.486 59.0733C249.481 62.0173 246.537 61.1341 246.537 61.1341C246.537 61.1341 247.421 61.821 248.794 62.2136C248.794 62.2136 246.635 62.7042 244.182 61.9192C244.182 61.9192 246.93 66.1389 250.659 66.2371C250.659 66.2371 249.089 66.6296 247.224 65.8445C247.224 65.8445 250.07 68.0035 253.603 67.3165L261.552 73.7933L265.477 76.5411Z" fill="#192EAD"/>
<path d="M267.931 78.9936C267.146 80.5637 265.183 83.3114 260.473 84.1946L259.982 80.4656L259.688 78.0122C259.688 78.0122 259.295 78.3066 258.706 78.6992C257.823 79.288 256.547 79.8768 255.37 79.8768C253.505 79.8768 251.641 68.8858 251.346 67.1194C251.346 66.9231 251.346 66.825 251.346 66.825C255.37 66.4325 256.94 65.0586 256.94 65.0586C257.038 65.7455 257.234 66.3343 257.43 66.825C258.608 69.4746 261.061 70.6522 261.061 70.6522C260.473 68.4933 261.748 66.3343 262.73 67.8063C263.711 69.2783 262.337 71.4373 262.337 71.4373C264.202 75.3626 267.342 78.5029 267.342 78.5029C267.538 78.7973 267.735 78.8954 267.931 78.9936Z" fill="#FFC8AF"/>
<path d="M278.529 203.133C278.529 203.133 260.178 203.623 259.295 202.838C258.215 201.857 270.188 198.226 271.954 197.637C274.898 198.128 276.664 197.833 277.449 197.539C278.725 199.011 278.529 203.133 278.529 203.133Z" fill="#242463"/>
<path d="M277.547 194.988V195.086C276.664 195.184 275.683 195.282 274.8 195.282C273.524 195.282 272.444 195.184 272.052 195.086V194.89C272.052 194.89 269.108 166.922 267.93 160.249C266.753 153.576 266.36 134.636 263.514 124.528L277.645 122.271L284.515 121.191C284.515 121.191 280.884 144.94 279.314 154.949C277.744 164.763 281.669 167.805 277.547 194.988Z" fill="url(#paint55_linear_461_3290)"/>
<path d="M277.548 197.539C276.665 197.736 274.898 198.03 272.052 197.637C272.15 197.637 272.249 197.539 272.249 197.539L272.052 195.086C272.837 195.184 275.389 195.38 277.548 195.086V197.441V197.539Z" fill="#566EEC"/>
<path d="M277.548 194.984V195.083C276.664 195.181 275.683 195.279 274.8 195.279C278.235 187.33 277.842 170.157 276.37 166.133C274.702 161.423 273.72 159.166 275.683 151.315C277.548 143.464 277.057 124.132 277.057 124.132C277.253 123.445 277.45 122.758 277.744 122.169L284.613 121.09C284.613 121.09 280.982 144.838 279.412 154.848C277.744 164.759 281.669 167.801 277.548 194.984Z" fill="url(#paint56_linear_461_3290)"/>
<path d="M241.281 74.5284L240.109 74.6445L240.603 79.6248L241.775 79.5087L241.281 74.5284Z" fill="#1B4266"/>
<path d="M241.14 76.1478L240.552 76.2459C240.159 76.2459 239.766 75.9515 239.766 75.6571L238.883 66.7269C238.883 66.3344 239.178 65.9419 239.472 65.9419L240.061 65.8438C240.453 65.8438 240.846 66.1381 240.846 66.4325L241.729 75.3627C241.827 75.7552 241.533 76.1478 241.14 76.1478Z" fill="#17177F"/>
<path d="M257.823 102.645C257.627 102.841 257.234 103.234 256.645 103.626C254.486 105.196 250.365 107.944 247.813 108.729C247.028 109.023 246.341 109.023 245.949 108.827C244.084 107.453 242.318 94.8922 241.533 89.1023V89.0042C241.435 88.5135 241.435 88.121 241.337 87.7284C241.238 86.8452 241.14 86.3546 241.14 86.3546C240.944 86.3546 240.061 86.5508 238.981 85.962C237.804 85.2751 239.668 79.0927 239.668 79.0927C239.668 79.0927 238 79.0927 238 78.5039C238 77.9151 242.71 76.1487 243.005 77.0319C243.299 77.9151 243.888 85.7658 245.851 90.5743C246.44 91.9482 246.93 93.322 247.421 94.4015C248.5 97.0511 249.089 98.7194 249.089 98.7194C249.678 98.5231 250.169 98.2287 250.757 97.9343C253.898 96.1679 256.842 92.7332 256.842 92.7332L257.332 98.425L257.823 102.645Z" fill="#FFC8AF"/>
<path d="M250.757 103.725C249.776 100.781 247.715 94.9911 247.519 94.4023C248.599 97.052 249.187 98.7202 249.187 98.7202C249.776 98.524 250.267 98.2296 250.856 97.9352C251.052 101.174 250.757 103.725 250.757 103.725Z" fill="#FDBFA3"/>
<path d="M247.814 108.731C247.029 109.025 246.342 109.025 245.949 108.829C244.085 107.455 242.318 94.8942 241.533 89.1043V89.0062C241.533 88.6136 241.435 88.123 241.337 87.7304C241.239 87.2397 241.239 86.8472 241.141 86.3566C240.846 84.5901 240.65 83.02 240.65 82.9219C242.613 86.8472 242.809 92.4408 243.692 95.7774C244.575 99.1139 245.851 99.6046 246.44 105.1C246.636 106.965 247.225 108.142 247.814 108.731Z" fill="#FDBFA3"/>
<path d="M257.823 102.644C257.627 102.84 257.234 103.233 256.645 103.625L255.173 94.6953L257.43 98.5225L257.823 102.644Z" fill="#FDBFA3"/>
<path d="M263.515 100.777C263.515 100.777 261.159 104.506 258.706 105.586C258.706 105.586 257.332 100.679 255.173 94.6928C255.173 94.6928 260.571 89.4917 261.356 84.7812L263.515 100.777Z" fill="url(#paint57_linear_461_3290)"/>
<path d="M285.3 120.314C278.234 128.361 259.785 128.459 259.785 128.459C261.355 122.571 262.729 107.851 261.65 99.3132C260.57 90.7755 260.374 84.495 260.374 84.495V84.2987C265.084 83.3174 267.047 80.5697 267.832 79.0977C274.407 83.1211 278.529 89.9905 281.08 97.0561C282.748 101.668 283.73 106.281 284.319 110.206C285.3 116.094 285.3 120.314 285.3 120.314Z" fill="#EC827D"/>
<path d="M259.981 80.5628L259.687 78.1095C259.687 78.1095 259.294 78.4039 258.706 78.7964C259.589 78.0114 260.57 76.9319 261.257 75.3618C261.355 75.2636 261.453 78.2076 259.981 80.5628Z" fill="#FDBFA3"/>
<path d="M257.43 66.9231C255.173 67.4138 252.622 67.2175 251.346 67.1194C251.346 66.9231 251.346 66.825 251.346 66.825C255.37 66.4325 256.94 65.0586 256.94 65.0586C257.038 65.8437 257.234 66.4325 257.43 66.9231Z" fill="#FDBFA3"/>
<path d="M284.417 110.2L273.132 119.915L269.992 117.069C269.992 117.069 275.585 103.527 275.095 101.466C274.604 99.503 269.207 91.6523 269.207 91.6523C273.524 91.7505 277.646 94.1057 281.081 96.9516C282.847 101.662 283.828 106.274 284.417 110.2Z" fill="#D66565"/>
<path d="M279.314 111.085C274.702 117.267 273.131 119.818 273.131 119.818C273.131 119.818 273.131 119.818 273.23 119.917C273.426 120.113 273.917 120.604 274.211 121.094C274.603 121.683 274.8 122.272 274.211 122.664C272.052 124.038 271.856 124.921 269.991 124.725C269.01 124.627 268.617 124.431 268.323 124.038C268.029 123.646 267.93 123.155 267.832 122.468C267.636 121.389 268.715 120.113 269.991 117.169C271.365 114.225 273.818 109.514 275.781 104.608C276.762 102.154 277.449 100.486 278.038 99.5048C278.038 99.4066 278.136 99.3085 278.136 99.2104V99.1122C278.234 98.8178 278.431 98.6216 278.431 98.5234V98.4253C278.431 98.4253 278.431 98.4253 278.431 98.3272C278.529 98.229 278.529 98.229 278.529 98.229L276.664 97.0514L278.529 93.813L280.884 89.6914C280.884 89.6914 285.3 93.4205 286.478 95.3832C286.576 95.4813 286.576 95.5794 286.674 95.6776C287.851 97.3458 283.828 104.902 279.314 111.085Z" fill="#FFC8AF"/>
<path d="M281.669 95.483C279.707 96.7587 278.333 99.1139 278.137 99.5064C278.137 99.4083 278.235 99.3102 278.235 99.212V99.1139C278.333 98.8195 278.529 98.6232 278.529 98.5251V98.427C278.529 98.427 278.529 98.427 278.529 98.3288C278.627 98.2307 278.627 98.2307 278.627 98.2307L276.763 97.0531C276.763 96.9549 277.646 93.7166 278.627 93.8147C278.823 93.8147 279.02 93.9128 279.118 94.1091C280.59 95.6792 281.669 95.483 281.669 95.483Z" fill="#FDBFA3"/>
<path d="M274.309 122.66C272.15 124.034 271.954 124.917 270.089 124.721C269.108 124.623 268.715 124.426 268.421 124.034C269.108 124.623 271.561 124.525 272.641 123.053C273.033 122.464 273.72 121.777 274.309 121.09C274.603 121.679 274.8 122.366 274.309 122.66Z" fill="url(#paint58_linear_461_3290)"/>
<path d="M279.314 111.085C274.702 117.268 273.132 119.819 273.132 119.819C273.132 119.819 273.132 119.819 273.23 119.917C272.15 120.702 271.463 121.389 271.463 121.389C272.837 119.034 276.763 112.066 278.038 109.417C279.314 106.669 280.099 105.001 284.024 100.094C285.693 97.9352 286.478 96.3651 286.87 95.1875C286.969 95.2856 286.969 95.3838 287.067 95.4819C287.852 97.3464 283.828 104.903 279.314 111.085Z" fill="#FDBFA3"/>
<path d="M281.964 89.1985C281.964 89.1985 272.445 81.7404 268.618 83.1142C264.791 84.4881 265.87 89.1004 268.618 91.2593C271.365 93.4183 273.524 95.1847 276.959 98.8156C276.959 98.8156 281.964 93.1239 281.964 89.1985Z" fill="url(#paint59_linear_461_3290)"/>
<path d="M61.2013 25.5972C61.2013 24.0814 58.3409 22.755 54.1457 22.1866C53.7643 18.018 52.4295 15.1758 50.904 15.1758C49.3785 15.1758 48.0436 18.018 47.4716 22.1866C43.2764 22.5655 40.416 23.8919 40.416 25.4077C40.416 26.9236 43.2764 28.2499 47.4716 28.8184C47.8529 32.9869 49.1878 35.8291 50.7133 35.8291C52.2388 35.8291 53.5737 32.9869 54.1457 28.8184C58.1502 28.2499 61.2013 27.113 61.2013 25.5972Z" fill="#9FADF0"/>
<path d="M27.7137 152.63C27.7137 150.608 23.8999 148.84 18.3063 148.082C17.7978 142.524 16.018 138.734 13.984 138.734C11.9499 138.734 10.1702 142.524 9.40739 148.082C3.81381 148.587 0 150.356 0 152.377C0 154.398 3.81381 156.167 9.40739 156.924C9.9159 162.483 11.6957 166.272 13.7297 166.272C15.7637 166.272 17.5435 162.483 18.3063 156.924C23.6456 156.167 27.7137 154.651 27.7137 152.63Z" fill="#9FADF0"/>
<path d="M292.148 46.3913C292.148 44.3702 288.334 42.6017 282.741 41.8438C282.232 36.2857 280.453 32.4961 278.419 32.4961C276.385 32.4961 274.605 36.2857 273.842 41.8438C268.248 42.3491 264.435 44.1175 264.435 46.1387C264.435 48.1598 268.248 49.9283 273.842 50.6862C274.35 56.2443 276.13 60.0339 278.164 60.0339C280.198 60.0339 281.978 56.2443 282.741 50.6862C288.08 49.9283 292.148 48.4125 292.148 46.3913Z" fill="#FFE48F"/>
<rect x="227" y="22.3828" width="10.4402" height="10.4402" transform="rotate(-45 227 22.3828)" fill="#E02287" fill-opacity="0.6"/>
<path d="M173.73 125.236L174.147 124.997C174.803 124.639 175.28 123.745 175.28 123.03V82.5001C175.28 81.7849 174.743 80.8909 174.147 80.5332L139.041 60.2682C138.386 59.9106 137.372 59.9106 136.776 60.2682L136.359 60.5066C135.703 60.8642 135.227 61.7583 135.227 62.4735V103.004C135.227 103.719 135.763 104.613 136.359 104.97L171.465 125.236C172.121 125.593 173.134 125.593 173.73 125.236Z" fill="#405CE1"/>
<path opacity="0.7" d="M173.73 125.236L174.147 124.997C174.803 124.639 175.28 123.745 175.28 123.03V82.5001C175.28 81.7849 174.743 80.8909 174.147 80.5332L139.041 60.2682C138.386 59.9106 137.372 59.9106 136.776 60.2682L136.359 60.5066C135.703 60.8642 135.227 61.7583 135.227 62.4735V103.004C135.227 103.719 135.763 104.613 136.359 104.97L171.465 125.236C172.121 125.593 173.134 125.593 173.73 125.236Z" fill="#FAFAFA"/>
<path d="M175.279 102.761V82.4957C175.279 82.1381 175.16 81.7209 174.922 81.3633L169.915 84.2242V124.277L171.465 125.172C172.12 125.529 173.134 125.529 173.73 125.172L174.147 124.933C174.802 124.575 175.279 123.681 175.279 122.966V102.761Z" fill="#405CE1"/>
<path opacity="0.6" d="M175.279 102.761V82.4957C175.279 82.1381 175.16 81.7209 174.922 81.3633L169.915 84.2242V124.277L171.465 125.172C172.12 125.529 173.134 125.529 173.73 125.172L174.147 124.933C174.802 124.575 175.279 123.681 175.279 122.966V102.761Z" fill="#FAFAFA"/>
<path d="M136.419 61.8195L171.525 82.0845C172.181 82.4422 172.657 83.3362 172.657 84.0514V124.582C172.657 125.297 172.121 125.595 171.525 125.237L136.419 104.972C135.763 104.614 135.286 103.72 135.286 103.005V62.4751C135.227 61.7599 135.763 61.4619 136.419 61.8195Z" fill="#405CE1"/>
<path opacity="0.8" d="M136.419 61.8195L171.525 82.0845C172.181 82.4422 172.657 83.3362 172.657 84.0514V124.582C172.657 125.297 172.121 125.595 171.525 125.237L136.419 104.972C135.763 104.614 135.286 103.72 135.286 103.005V62.4751C135.227 61.7599 135.763 61.4619 136.419 61.8195Z" fill="#FAFAFA"/>
<path opacity="0.5" d="M139.28 98.8269C140.353 99.4826 142.022 99.6018 143.333 96.5024C144.584 93.4031 145.717 90.9593 147.267 91.9726C148.339 92.6878 148.22 93.7011 149.174 94.2375C150.664 95.1315 151.856 91.317 152.392 87.8004C153.167 82.7937 153.883 81.4825 155.253 82.2573C157.28 83.3898 157.101 86.7275 157.101 89.7673C157.101 92.509 157.101 93.9395 158.591 94.5355C159.545 94.9527 160.498 92.5686 160.916 90.7209C161.333 88.8732 162.167 88.0388 163.061 88.5156C163.955 88.9924 164.909 90.2441 164.909 95.0719C164.969 99.3634 165.028 105.502 165.088 106.873C165.267 110.092 167.114 111.701 168.664 112.595V117.423L139.28 100.496V98.8269Z" fill="#FAFAFA"/>
<path d="M168.485 112.835C166.161 111.524 164.909 109.497 164.79 106.875C164.73 105.444 164.671 98.8878 164.611 95.0732C164.552 90.3646 163.658 89.2321 162.883 88.7553C162.704 88.6361 162.465 88.6361 162.287 88.6957C161.81 88.8745 161.393 89.6494 161.154 90.7222C160.856 92.2719 160.141 94.1792 159.187 94.656C158.949 94.7752 158.651 94.8348 158.412 94.7156C156.744 94.06 156.744 92.5103 156.744 89.6494V88.9937C156.744 86.252 156.744 83.391 155.075 82.4374C154.657 82.199 154.479 82.2586 154.359 82.3182C153.525 82.7354 153.048 85.4176 152.691 87.7421C152.452 89.1129 151.677 93.6428 150.068 94.4176C149.71 94.5964 149.353 94.5964 148.995 94.358C148.459 94.06 148.22 93.5832 147.982 93.1659C147.744 92.7487 147.565 92.3911 147.088 92.0931C146.79 91.9143 146.551 91.8547 146.313 91.9143C145.3 92.2123 144.287 94.656 143.571 96.4441C142.975 97.9342 142.141 98.8878 141.247 99.1859C140.591 99.4243 139.816 99.3051 139.101 98.8878L139.399 98.3514C139.816 98.5898 140.412 98.8282 141.008 98.5898C141.783 98.3514 142.439 97.517 142.975 96.1461C144.048 93.5832 144.942 91.6163 146.075 91.2587C146.492 91.1394 146.909 91.199 147.326 91.4971C147.922 91.9143 148.22 92.3911 148.399 92.8083C148.578 93.1659 148.757 93.5236 149.174 93.762C149.353 93.8812 149.532 93.8812 149.71 93.8216C150.545 93.4044 151.499 90.901 151.975 87.5633C152.571 83.7487 153.108 82.0798 154.002 81.6626C154.359 81.4838 154.777 81.5434 155.313 81.7818C157.34 82.9142 157.34 85.954 157.34 88.8745V89.5302C157.34 92.2719 157.34 93.464 158.651 94.0004C158.71 94.0004 158.77 94.06 158.949 94.0004C159.485 93.7024 160.201 92.1527 160.618 90.4242C160.916 89.1129 161.393 88.2189 162.048 87.9209C162.406 87.7421 162.823 87.8017 163.181 87.9805C164.134 88.5169 165.148 89.7686 165.207 94.7752C165.267 98.5898 165.326 105.146 165.386 106.517C165.505 108.961 166.638 110.749 168.783 112.001L168.485 112.835Z" fill="#3C3C6D"/>
<path opacity="0.4" d="M139.28 91.9766C139.28 93.0494 141.366 98.5329 146.015 98.8309C150.664 99.1289 152.392 93.9435 154.657 95.1951C156.922 96.4468 156.505 100.142 158.591 101.453C160.677 102.765 162.942 95.6124 165.505 96.7448C168.068 97.8773 167.174 105.626 168.664 107.056V117.487L139.28 100.559V91.9766Z" fill="#FAFAFA"/>
<path d="M168.425 107.231C167.71 106.575 167.472 104.787 167.233 102.761C166.935 100.317 166.637 97.5157 165.326 96.9793C164.253 96.5025 163.061 97.9926 161.988 99.423C160.856 100.913 159.664 102.463 158.412 101.688C157.28 101.032 156.862 99.7211 156.386 98.4694C155.968 97.2177 155.492 96.0257 154.478 95.4296C153.644 94.9528 152.929 95.5488 151.677 96.6217C150.306 97.8138 148.578 99.3038 145.955 99.125C141.246 98.827 138.981 93.2839 138.922 91.9727H139.518C139.518 92.8667 141.425 98.231 145.955 98.529C148.339 98.6482 149.948 97.2773 151.26 96.1449C152.452 95.1316 153.525 94.2376 154.717 94.8932C155.968 95.6084 156.445 96.9197 156.922 98.231C157.339 99.423 157.756 100.555 158.65 101.092C159.425 101.569 160.439 100.317 161.452 98.9462C162.644 97.3965 164.015 95.668 165.505 96.3237C167.114 97.0389 167.472 99.8403 167.77 102.582C167.949 104.31 168.187 106.158 168.723 106.695L168.425 107.231Z" fill="#405CE1"/>
<path d="M141.544 68.5502C142.081 68.8482 142.498 69.623 142.498 70.2191C142.498 70.8151 142.081 71.1131 141.544 70.7555C141.008 70.4575 140.591 69.6826 140.591 69.0866C140.591 68.4906 141.008 68.2522 141.544 68.5502Z" fill="#405CE1"/>
<path d="M143.273 70.4573C143.273 70.8745 143.571 71.4109 143.988 71.6494L150.545 75.4639C150.962 75.7024 151.26 75.5236 151.26 75.1063C151.26 74.6891 150.962 74.1527 150.545 73.9143L143.988 70.0997C143.571 69.8613 143.273 69.9805 143.273 70.4573Z" fill="#405CE1"/>
<path d="M141.544 73.2014C142.081 73.4994 142.498 74.2742 142.498 74.8703C142.498 75.4663 142.081 75.7643 141.544 75.4067C141.008 75.1087 140.591 74.3338 140.591 73.7378C140.591 73.1418 141.008 72.8438 141.544 73.2014Z" fill="#3C3C6D"/>
<path d="M143.273 75.0503C143.273 75.4676 143.571 76.004 143.988 76.2424L150.545 80.057C150.962 80.2954 151.26 80.1166 151.26 79.6994C151.26 79.2822 150.962 78.7457 150.545 78.5073L143.988 74.6927C143.571 74.4543 143.273 74.6331 143.273 75.0503Z" fill="#405CE1"/>
<path d="M184.75 118.649L184.279 118.379C183.538 117.976 183 116.966 183 116.159V70.4019C183 69.5944 183.606 68.585 184.279 68.1813L223.912 45.3028C224.652 44.8991 225.796 44.8991 226.469 45.3028L226.94 45.572C227.68 45.9757 228.219 46.985 228.219 47.7925V93.5495C228.219 94.357 227.613 95.3664 226.94 95.7701L187.307 118.649C186.634 119.052 185.49 119.052 184.75 118.649Z" fill="#405CE1"/>
<path opacity="0.7" d="M184.75 118.649L184.279 118.379C183.538 117.976 183 116.966 183 116.159V70.4019C183 69.5944 183.606 68.585 184.279 68.1813L223.912 45.3028C224.652 44.8991 225.796 44.8991 226.469 45.3028L226.94 45.572C227.68 45.9757 228.219 46.985 228.219 47.7925V93.5495C228.219 94.357 227.613 95.3664 226.94 95.7701L187.307 118.649C186.634 119.052 185.49 119.052 184.75 118.649Z" fill="#FAFAFA"/>
<path d="M183 93.2781V70.3996C183 69.9959 183.135 69.5248 183.404 69.1211L189.056 72.351V117.57L187.307 118.579C186.566 118.983 185.422 118.983 184.75 118.579L184.279 118.31C183.538 117.906 183 116.897 183 116.089V93.2781Z" fill="#405CE1"/>
<path opacity="0.6" d="M183 93.2781V70.3996C183 69.9959 183.135 69.5248 183.404 69.1211L189.056 72.351V117.57L187.307 118.579C186.566 118.983 185.422 118.983 184.75 118.579L184.279 118.31C183.538 117.906 183 116.897 183 116.089V93.2781Z" fill="#FAFAFA"/>
<path d="M226.939 47.05L187.306 69.9285C186.566 70.3322 186.027 71.3416 186.027 72.1491V117.906C186.027 118.714 186.633 119.05 187.306 118.646L226.939 95.7677C227.68 95.364 228.218 94.3547 228.218 93.5472V47.7902C228.218 46.9827 227.68 46.6462 226.939 47.05Z" fill="#405CE1"/>
<path opacity="0.8" d="M226.939 47.05L187.306 69.9285C186.566 70.3322 186.027 71.3416 186.027 72.1491V117.906C186.027 118.714 186.633 119.05 187.306 118.646L226.939 95.7677C227.68 95.364 228.218 94.3547 228.218 93.5472V47.7902C228.218 46.9827 227.68 46.6462 226.939 47.05Z" fill="#FAFAFA"/>
<path d="M200.092 90.3876C200.092 85.2063 203.254 79.1502 207.157 76.9297V71.2773C203.658 73.296 200.563 77.0643 198.342 81.9091C194.439 90.6568 195.18 99.6736 200.025 102.163L202.716 96.1745C201.101 95.3671 200.092 93.3484 200.092 90.3876Z" fill="#405CE1"/>
<path d="M207.158 71.2742V76.9265C211.06 74.7059 214.223 77.0611 214.223 82.2424C214.223 87.4237 211.06 93.4798 207.158 95.7003C205.475 96.6424 203.928 96.777 202.716 96.1714L200.025 102.16C202.178 103.237 204.399 102.968 207.158 101.42C213.416 97.7863 218.462 88.1639 218.462 79.82C218.462 71.476 213.348 67.6405 207.158 71.2742Z" fill="#3C3C6D"/>
<path d="M207.158 101.35C213.416 97.7164 218.462 88.0939 218.462 79.75L214.223 82.2397C214.223 87.421 211.06 93.4098 207.158 95.6304C205.475 96.5724 203.928 96.707 202.716 96.1014L200.025 102.09C202.178 103.234 204.399 102.965 207.158 101.35Z" fill="#FFA200"/>
<path d="M189.056 72.8988C188.451 73.2352 187.979 74.11 187.979 74.7829C187.979 75.4558 188.451 75.7922 189.056 75.3885C189.662 75.052 190.133 74.1773 190.133 73.5044C190.133 72.8315 189.662 72.5623 189.056 72.8988Z" fill="#405CE1"/>
<path d="M200.025 67.9149C200.025 68.3859 199.688 68.9916 199.217 69.2607L191.815 73.5673C191.344 73.8364 191.008 73.6345 191.008 73.1635C191.008 72.6925 191.344 72.0869 191.815 71.8177L199.217 67.5112C199.688 67.242 200.025 67.4439 200.025 67.9149Z" fill="#405CE1"/>
<path d="M201.773 65.5589C201.168 65.8954 200.697 66.7701 200.697 67.443C200.697 68.1159 201.168 68.4524 201.773 68.0486C202.379 67.7122 202.85 66.8374 202.85 66.1645C202.85 65.4916 202.379 65.2225 201.773 65.5589Z" fill="#3C3C6D"/>
<path d="M212.742 60.5751C212.742 61.0461 212.405 61.6517 211.934 61.9209L204.533 66.2274C204.062 66.4966 203.725 66.2947 203.725 65.8237C203.725 65.3526 204.062 64.747 204.533 64.4779L211.934 60.1713C212.338 59.9022 212.742 60.104 212.742 60.5751Z" fill="#405CE1"/>
<path d="M214.424 58.1568C213.819 58.4932 213.348 59.368 213.348 60.0409C213.348 60.7138 213.819 61.0502 214.424 60.6465C215.03 60.31 215.501 59.4353 215.501 58.7624C215.568 58.1568 215.03 57.8203 214.424 58.1568Z" fill="#37474F"/>
<path d="M225.393 53.1782C225.393 53.6492 225.056 54.2548 224.585 54.524L217.183 58.8305C216.712 59.0997 216.376 58.8978 216.376 58.4268C216.376 57.9557 216.712 57.3501 217.183 57.081L224.585 52.7744C225.056 52.5726 225.393 52.7071 225.393 53.1782Z" fill="#405CE1"/>
<path d="M122.713 98.7025V94.7612L119.346 94.1107C119.193 94.0724 119.078 94.1107 118.963 94.1872L117.279 95.1439L119.46 95.5648L122.713 98.7025Z" fill="#EBEBEB"/>
<path d="M145.71 121.012L145.978 120.859C146.36 120.63 146.705 120.056 146.705 119.596V99.5075C146.705 99.0483 146.36 98.4743 145.978 98.2447L123.44 85.2347C123.019 85.0051 122.368 85.0051 121.986 85.2347L121.718 85.3878C121.297 85.6173 120.991 86.1913 120.991 86.6505V106.739C120.991 107.199 121.335 107.773 121.718 108.002L144.256 121.012C144.677 121.242 145.327 121.242 145.71 121.012Z" fill="#EBEBEB"/>
<path d="M146.705 112.522V99.5122C146.705 99.2826 146.628 99.0147 146.475 98.7852L143.261 100.66V120.443L144.256 121.017C144.677 121.247 145.327 121.247 145.71 121.017L145.978 120.864C146.36 120.634 146.705 120.06 146.705 119.601V112.522Z" fill="#E0E0E0"/>
<path d="M121.717 86.234L144.255 99.244C144.676 99.4736 144.982 100.048 144.982 100.507V120.596C144.982 121.055 144.638 121.246 144.255 121.017L121.717 108.007C121.297 107.777 120.99 107.203 120.99 106.744V86.6549C120.99 86.1957 121.335 86.0044 121.717 86.234Z" fill="#F0F0F0"/>
<path d="M120.99 99.66L117.164 95.9483C116.781 95.5657 117.125 94.9535 117.623 95.03L120.99 95.6805V99.66Z" fill="#F0F0F0"/>
<path d="M142.457 114.051V107.392C142.457 106.13 141.768 104.943 140.659 104.293C139.702 103.757 138.516 104.37 138.401 105.479C138.324 106.321 137.368 106.818 136.641 106.398C135.799 105.9 135.302 105.02 135.263 104.063L134.957 98.2472C134.919 97.2523 134.345 96.3339 133.465 95.7982C132.393 95.1477 131.016 95.913 130.939 97.1375L130.748 100.39C130.71 101.117 129.906 101.576 129.256 101.194C128.376 100.696 127.802 99.7777 127.687 98.7829L127.534 97.5967C127.419 96.5635 126.807 95.6069 125.888 95.0712C124.855 94.4972 123.592 95.2242 123.592 96.4104V103.107L142.457 114.051Z" fill="#405CE1"/>
<path d="M140.391 104.592C140.468 104.592 140.506 104.554 140.506 104.477V104.248C140.506 104.171 140.468 104.133 140.391 104.133C140.315 104.133 140.276 104.171 140.276 104.248V104.477C140.276 104.515 140.315 104.592 140.391 104.592Z" fill="#FAFAFA"/>
<path d="M140.391 112.248C140.467 112.248 140.505 112.209 140.505 112.133V111.635C140.505 111.559 140.467 111.521 140.391 111.521C140.314 111.521 140.276 111.559 140.276 111.635V112.133C140.276 112.209 140.314 112.248 140.391 112.248ZM140.391 111.291C140.467 111.291 140.505 111.253 140.505 111.176V110.679C140.505 110.602 140.467 110.564 140.391 110.564C140.314 110.564 140.276 110.602 140.276 110.679V111.176C140.276 111.253 140.314 111.291 140.391 111.291ZM140.391 110.334C140.467 110.334 140.505 110.296 140.505 110.22V109.722C140.505 109.646 140.467 109.607 140.391 109.607C140.314 109.607 140.276 109.646 140.276 109.722V110.22C140.276 110.296 140.314 110.334 140.391 110.334ZM140.391 109.378C140.467 109.378 140.505 109.339 140.505 109.263V108.765C140.505 108.689 140.467 108.651 140.391 108.651C140.314 108.651 140.276 108.689 140.276 108.765V109.263C140.276 109.339 140.314 109.378 140.391 109.378ZM140.391 108.421C140.467 108.421 140.505 108.383 140.505 108.306V107.809C140.505 107.732 140.467 107.694 140.391 107.694C140.314 107.694 140.276 107.732 140.276 107.809V108.306C140.276 108.383 140.314 108.421 140.391 108.421ZM140.391 107.464C140.467 107.464 140.505 107.426 140.505 107.35V106.852C140.505 106.776 140.467 106.737 140.391 106.737C140.314 106.737 140.276 106.776 140.276 106.852V107.35C140.276 107.388 140.314 107.464 140.391 107.464ZM140.391 106.508C140.467 106.508 140.505 106.47 140.505 106.393V105.896C140.505 105.819 140.467 105.781 140.391 105.781C140.314 105.781 140.276 105.819 140.276 105.896V106.393C140.276 106.431 140.314 106.508 140.391 106.508ZM140.391 105.551C140.467 105.551 140.505 105.513 140.505 105.436V104.939C140.505 104.862 140.467 104.824 140.391 104.824C140.314 104.824 140.276 104.862 140.276 104.939V105.436C140.276 105.475 140.314 105.551 140.391 105.551Z" fill="#FAFAFA"/>
<path d="M140.391 112.971C140.468 112.971 140.506 112.933 140.506 112.856V112.627C140.506 112.55 140.468 112.512 140.391 112.512C140.315 112.512 140.276 112.55 140.276 112.627V112.856C140.276 112.933 140.315 112.971 140.391 112.971Z" fill="#FAFAFA"/>
<path d="M140.391 103.792C140.582 103.907 140.735 104.175 140.735 104.404C140.735 104.634 140.582 104.71 140.391 104.595C140.2 104.481 140.047 104.213 140.047 103.983C140.047 103.792 140.2 103.677 140.391 103.792Z" fill="#37474F"/>
<path d="M133.006 95.9045C133.082 95.9045 133.121 95.8662 133.121 95.7897V95.5601C133.121 95.4836 133.082 95.4453 133.006 95.4453C132.929 95.4453 132.891 95.4836 132.891 95.5601V95.7897C132.891 95.8662 132.929 95.9045 133.006 95.9045Z" fill="#FAFAFA"/>
<path d="M133.006 107.958C133.082 107.958 133.121 107.92 133.121 107.843V107.346C133.121 107.269 133.082 107.231 133.006 107.231C132.929 107.231 132.891 107.269 132.891 107.346V107.843C132.891 107.92 132.929 107.958 133.006 107.958ZM133.006 106.963C133.082 106.963 133.121 106.925 133.121 106.849V106.351C133.121 106.275 133.082 106.236 133.006 106.236C132.929 106.236 132.891 106.275 132.891 106.351V106.849C132.891 106.925 132.929 106.963 133.006 106.963ZM133.006 105.968C133.082 105.968 133.121 105.93 133.121 105.854V105.356C133.121 105.28 133.082 105.241 133.006 105.241C132.929 105.241 132.891 105.28 132.891 105.356V105.854C132.891 105.93 132.929 105.968 133.006 105.968ZM133.006 104.974C133.082 104.974 133.121 104.935 133.121 104.859V104.361C133.121 104.285 133.082 104.247 133.006 104.247C132.929 104.247 132.891 104.285 132.891 104.361V104.859C132.891 104.897 132.929 104.974 133.006 104.974ZM133.006 103.94C133.082 103.94 133.121 103.902 133.121 103.826V103.328C133.121 103.252 133.082 103.213 133.006 103.213C132.929 103.213 132.891 103.252 132.891 103.328V103.826C132.891 103.902 132.929 103.94 133.006 103.94ZM133.006 102.946C133.082 102.946 133.121 102.907 133.121 102.831V102.333C133.121 102.257 133.082 102.219 133.006 102.219C132.929 102.219 132.891 102.257 132.891 102.333V102.831C132.891 102.907 132.929 102.946 133.006 102.946ZM133.006 101.951C133.082 101.951 133.121 101.912 133.121 101.836V101.338C133.121 101.262 133.082 101.224 133.006 101.224C132.929 101.224 132.891 101.262 132.891 101.338V101.836C132.891 101.912 132.929 101.951 133.006 101.951ZM133.006 100.956C133.082 100.956 133.121 100.918 133.121 100.841V100.344C133.121 100.267 133.082 100.229 133.006 100.229C132.929 100.229 132.891 100.267 132.891 100.344V100.841C132.891 100.879 132.929 100.956 133.006 100.956ZM133.006 99.9226C133.082 99.9226 133.121 99.8844 133.121 99.8078V99.3104C133.121 99.2339 133.082 99.1956 133.006 99.1956C132.929 99.1956 132.891 99.2339 132.891 99.3104V99.8078C132.891 99.8844 132.929 99.9226 133.006 99.9226ZM133.006 98.9277C133.082 98.9277 133.121 98.8895 133.121 98.8129V98.3155C133.121 98.239 133.082 98.2007 133.006 98.2007C132.929 98.2007 132.891 98.239 132.891 98.3155V98.8129C132.891 98.8895 132.929 98.9277 133.006 98.9277ZM133.006 97.9329C133.082 97.9329 133.121 97.8946 133.121 97.8181V97.3206C133.121 97.2441 133.082 97.2058 133.006 97.2058C132.929 97.2058 132.891 97.2441 132.891 97.3206V97.8181C132.891 97.8946 132.929 97.9329 133.006 97.9329ZM133.006 96.938C133.082 96.938 133.121 96.8997 133.121 96.8232V96.3257C133.121 96.2492 133.082 96.2109 133.006 96.2109C132.929 96.2109 132.891 96.2492 132.891 96.3257V96.8232C132.891 96.8614 132.929 96.938 133.006 96.938Z" fill="#FAFAFA"/>
<path d="M133.006 108.737C133.082 108.737 133.121 108.698 133.121 108.622V108.392C133.121 108.316 133.082 108.277 133.006 108.277C132.929 108.277 132.891 108.316 132.891 108.392V108.622C132.891 108.698 132.929 108.737 133.006 108.737Z" fill="#FAFAFA"/>
<path d="M133.006 95.1474C133.197 95.2622 133.35 95.53 133.35 95.7596C133.35 95.9892 133.197 96.0657 133.006 95.9509C132.814 95.8361 132.661 95.5683 132.661 95.3387C132.661 95.1474 132.814 95.0326 133.006 95.1474Z" fill="#37474F"/>
<path d="M125.62 95.3732C125.696 95.3732 125.734 95.335 125.734 95.2584V95.0289C125.734 94.9523 125.696 94.9141 125.62 94.9141C125.543 94.9141 125.505 94.9523 125.505 95.0289V95.2584C125.505 95.2967 125.543 95.3732 125.62 95.3732Z" fill="#FAFAFA"/>
<path d="M125.621 103.752C125.698 103.752 125.736 103.714 125.736 103.637V103.178C125.736 103.101 125.698 103.063 125.621 103.063C125.545 103.063 125.506 103.101 125.506 103.178V103.637C125.506 103.675 125.545 103.752 125.621 103.752ZM125.621 102.834C125.698 102.834 125.736 102.795 125.736 102.719V102.26C125.736 102.183 125.698 102.145 125.621 102.145C125.545 102.145 125.506 102.183 125.506 102.26V102.719C125.506 102.757 125.545 102.834 125.621 102.834ZM125.621 101.877C125.698 101.877 125.736 101.839 125.736 101.762V101.303C125.736 101.226 125.698 101.188 125.621 101.188C125.545 101.188 125.506 101.226 125.506 101.303V101.762C125.506 101.839 125.545 101.877 125.621 101.877ZM125.621 100.959C125.698 100.959 125.736 100.92 125.736 100.844V100.385C125.736 100.308 125.698 100.27 125.621 100.27C125.545 100.27 125.506 100.308 125.506 100.385V100.844C125.506 100.882 125.545 100.959 125.621 100.959ZM125.621 100.002C125.698 100.002 125.736 99.9637 125.736 99.8872V99.428C125.736 99.3515 125.698 99.3132 125.621 99.3132C125.545 99.3132 125.506 99.3515 125.506 99.428V99.8872C125.506 99.9637 125.545 100.002 125.621 100.002ZM125.621 99.0837C125.698 99.0837 125.736 99.0454 125.736 98.9689V98.5097C125.736 98.4332 125.698 98.3949 125.621 98.3949C125.545 98.3949 125.506 98.4332 125.506 98.5097V98.9689C125.506 99.0454 125.545 99.0837 125.621 99.0837ZM125.621 98.1653C125.698 98.1653 125.736 98.127 125.736 98.0505V97.5913C125.736 97.5148 125.698 97.4765 125.621 97.4765C125.545 97.4765 125.506 97.5148 125.506 97.5913V98.0505C125.506 98.0888 125.545 98.1653 125.621 98.1653ZM125.621 97.2087C125.698 97.2087 125.736 97.1704 125.736 97.0939V96.6347C125.736 96.5582 125.698 96.5199 125.621 96.5199C125.545 96.5199 125.506 96.5582 125.506 96.6347V97.0939C125.506 97.1704 125.545 97.2087 125.621 97.2087ZM125.621 96.2903C125.698 96.2903 125.736 96.2521 125.736 96.1755V95.7164C125.736 95.6398 125.698 95.6016 125.621 95.6016C125.545 95.6016 125.506 95.6398 125.506 95.7164V96.1755C125.506 96.2521 125.545 96.2903 125.621 96.2903Z" fill="#FAFAFA"/>
<path d="M125.621 104.44C125.697 104.44 125.735 104.401 125.735 104.325V104.095C125.735 104.019 125.697 103.98 125.621 103.98C125.544 103.98 125.506 104.019 125.506 104.095V104.325C125.506 104.401 125.544 104.44 125.621 104.44Z" fill="#FAFAFA"/>
<path d="M125.62 94.5692C125.812 94.684 125.965 94.9519 125.965 95.1815C125.965 95.4111 125.812 95.4876 125.62 95.3728C125.429 95.258 125.276 94.9902 125.276 94.7606C125.238 94.5692 125.429 94.4544 125.62 94.5692Z" fill="#37474F"/>
<path d="M142.457 116.877C142.533 116.877 142.572 116.839 142.61 116.763C142.648 116.686 142.648 116.571 142.533 116.495L123.669 105.589C123.592 105.551 123.478 105.551 123.401 105.666C123.363 105.742 123.363 105.857 123.478 105.934L142.342 116.839C142.38 116.839 142.419 116.877 142.457 116.877Z" fill="#3C3C6D"/>
<path d="M220.742 107.452V102.41L225.049 101.578C225.245 101.529 225.392 101.578 225.539 101.676L227.693 102.899L224.903 103.487L220.742 107.452Z" fill="#EBEBEB"/>
<path d="M191.273 135.99L190.93 135.794C190.391 135.501 190 134.766 190 134.179V108.479C190 107.892 190.44 107.158 190.93 106.864L219.763 90.2203C220.301 89.9266 221.133 89.9266 221.623 90.2203L221.965 90.4161C222.504 90.7098 222.896 91.4441 222.896 92.0315V117.731C222.896 118.319 222.455 119.053 221.965 119.347L193.133 135.99C192.643 136.333 191.811 136.333 191.273 135.99Z" fill="#EBEBEB"/>
<path d="M190.049 125.171V108.528C190.049 108.234 190.147 107.891 190.343 107.598L194.455 109.947V135.304L193.182 136.039C192.643 136.332 191.811 136.332 191.322 136.039L190.979 135.843C190.441 135.549 190.049 134.815 190.049 134.227V125.171Z" fill="#E0E0E0"/>
<path d="M221.965 91.5424L193.133 108.186C192.594 108.48 192.203 109.214 192.203 109.801V135.501C192.203 136.089 192.643 136.333 193.133 136.04L221.965 119.396C222.504 119.102 222.896 118.368 222.896 117.781V92.0809C222.896 91.4935 222.504 91.2487 221.965 91.5424Z" fill="#F0F0F0"/>
<path d="M222.896 108.725L227.791 103.976C228.28 103.487 227.84 102.703 227.203 102.801L222.896 103.634V108.725Z" fill="#F0F0F0"/>
<path d="M208.112 113.083C208.014 113.181 208.014 113.377 208.014 113.377C208.014 117.391 205.126 122.237 201.699 124.293C198.126 126.447 195.286 124.831 195.384 120.67C195.482 116.901 197.93 112.3 201.112 110.097L200.916 109.999V109.656C197.538 112.055 194.895 116.901 194.895 120.915C194.895 125.223 197.93 126.985 201.699 124.831C205.468 122.677 208.552 117.391 208.503 113.034C208.454 112.936 208.21 112.985 208.112 113.083Z" fill="#FFA200"/>
<path d="M209.14 112.743C209.14 108.043 205.811 106.085 201.748 108.484C199.937 109.512 198.224 111.274 196.902 113.379L198.028 114.211C199.056 112.547 200.378 111.225 201.797 110.442C204.93 108.631 207.525 110.099 207.525 113.722C207.525 117.344 204.979 121.799 201.797 123.61C198.664 125.421 196.07 123.953 196.07 120.33L194.357 121.309C194.357 126.009 197.685 127.967 201.748 125.568C205.811 123.219 209.14 117.491 209.14 112.743Z" fill="#405CE1"/>
<path d="M201.748 112.053C199.349 113.423 197.44 116.752 197.44 119.494C197.44 122.235 199.349 123.361 201.748 121.99C204.147 120.619 206.056 117.291 206.056 114.549C206.056 111.808 204.147 110.682 201.748 112.053Z" fill="#3C3C6D"/>
<path d="M218.734 99.1861L211.392 103.445C211 103.69 210.706 104.179 210.706 104.571C210.706 104.962 211 105.109 211.392 104.864L218.734 100.606C219.126 100.361 219.42 99.8714 219.42 99.4798C219.469 99.0882 219.126 98.9413 218.734 99.1861Z" fill="#E0E0E0"/>
<path d="M218.734 102.81L211.392 107.069C211 107.314 210.706 107.803 210.706 108.195C210.706 108.587 211 108.734 211.392 108.489L218.734 104.23C219.126 103.985 219.42 103.496 219.42 103.104C219.469 102.761 219.126 102.615 218.734 102.81Z" fill="#E0E0E0"/>
<path d="M218.734 106.479L211.392 110.738C211 110.983 210.706 111.472 210.706 111.864C210.706 112.255 211 112.402 211.392 112.157L218.734 107.899C219.126 107.654 219.42 107.164 219.42 106.773C219.469 106.381 219.126 106.234 218.734 106.479Z" fill="#E0E0E0"/>
<path d="M218.734 110.098L211.392 114.357C211 114.601 210.706 115.091 210.706 115.483C210.706 115.874 211 116.021 211.392 115.776L218.734 111.518C219.126 111.273 219.42 110.783 219.42 110.392C219.469 110 219.126 109.902 218.734 110.098Z" fill="#E0E0E0"/>
<path d="M218.734 113.772L211.392 118.031C211 118.276 210.706 118.765 210.706 119.157C210.706 119.548 211 119.695 211.392 119.45L218.734 115.192C219.126 114.947 219.42 114.457 219.42 114.066C219.469 113.674 219.126 113.527 218.734 113.772Z" fill="#E0E0E0"/>
<path d="M57.1517 237.386C57.1517 237.386 55.74 240.814 56.0425 243.839C56.0425 243.839 59.4711 244.747 63.6056 243.537C66.2275 242.831 72.3788 242.327 72.6813 240.512C74.0931 232.545 69.2527 241.117 63.2022 236.68L57.1517 237.386Z" fill="#242463"/>
<path d="M82.765 237.386C82.765 237.386 81.3533 240.814 81.6558 243.839C81.6558 243.839 85.0844 244.747 89.2189 243.537C91.8407 242.831 98.6979 243.436 99.5047 241.722C102.732 234.965 94.7651 241.117 88.8155 236.68L82.765 237.386Z" fill="#242463"/>
<path d="M95.3704 143.301C95.3704 169.318 92.2444 199.671 90.2275 234.26C90.1267 235.369 90.1267 236.377 90.0258 237.487H82.6644L82.5636 234.26L81.8577 192.814L80.0426 168.007L79.3367 158.226L79.2358 158.831L64.6139 234.159L64.0088 237.386H57.0508C57.0508 236.277 57.0508 235.268 57.1516 234.159C57.6558 214.697 59.9752 191.705 63.4038 166.898L64.513 146.125C64.513 146.125 80.5468 139.671 90.8326 141.486C92.5469 141.889 94.0595 142.494 95.3704 143.301Z" fill="url(#paint60_linear_461_3290)"/>
<path d="M79.3367 158.935L64.7147 234.263L64.1097 237.49H61.2861C62.0929 226.196 65.6223 206.936 68.9501 197.557C71.2694 190.801 70.1602 182.734 71.9753 172.549C73.6896 162.263 78.7317 149.859 78.7317 149.859L79.3367 158.935Z" fill="url(#paint61_linear_461_3290)"/>
<path d="M95.3707 143.301C95.3707 169.318 92.2446 199.671 90.2278 234.26C90.1269 235.369 90.1269 236.377 90.0261 237.487H88.3118C87.3034 225.991 89.421 205.016 90.9336 186.663C91.8412 176.377 91.337 164.074 90.9336 156.41C90.732 151.973 90.732 145.923 90.8328 141.688C92.5471 141.889 94.0597 142.494 95.3707 143.301Z" fill="url(#paint62_linear_461_3290)"/>
<path d="M73.8917 90.6649C73.8917 90.6649 69.253 95.0011 66.8328 90.1607C64.3118 85.4212 57.1521 76.3455 62.5975 74.6312C62.5975 74.6312 61.1857 72.7152 62.6983 70.5975C62.6983 70.5975 62.1941 72.0093 63.4042 73.7236C63.4042 73.7236 61.6899 68.6816 69.6564 67.8748C77.6228 67.0681 77.522 63.2361 77.522 63.2361C77.522 63.2361 78.0262 64.5471 77.6228 66.3622C77.6228 66.3622 78.3287 65.6563 78.6313 62.9336C78.6313 62.9336 80.8498 66.1605 79.2363 71.0009C79.2363 71.0009 79.9422 69.69 80.3456 68.379C80.3456 68.379 80.4464 74.5303 78.0262 77.0514L78.6313 86.2279L73.8917 90.6649Z" fill="#192EAD"/>
<path d="M80.3452 91.567C80.3452 91.6679 80.2444 91.6679 80.2444 91.7687C79.4376 92.5755 77.0174 91.567 77.0174 91.567L78.1267 96.0041V96.1049L76.6141 96.4074L76.009 96.5083L69.3535 97.8192L69.9586 92.5755C76.5132 91.8696 76.5132 84.004 76.5132 84.004C74.2947 84.7099 73.0846 78.8611 74.7989 78.9619C76.5132 79.0627 77.5216 83.2981 77.5216 83.2981C77.6225 81.8863 77.5217 80.2728 77.32 79.1636C77.2191 78.3569 77.0174 77.8526 77.0174 77.8526C78.7317 76.9451 79.5385 74.7266 79.5385 74.7266C79.6393 75.0291 79.7402 75.2308 79.841 75.5333C82.5637 83.9031 80.9503 90.4578 80.3452 91.567Z" fill="#FFC8AF"/>
<path d="M77.0174 91.5707L78.1267 96.0077C77.5216 96.2094 77.0174 96.3102 76.7149 96.411C76.3115 96.5119 76.1099 96.5119 76.1099 96.5119L76.7149 88.3438C77.6225 91.5707 78.9334 91.369 80.3452 91.7724C79.4376 92.4782 77.0174 91.5707 77.0174 91.5707Z" fill="#FDBFA3"/>
<path d="M79.7401 75.338C79.2358 76.9514 77.9249 78.3632 77.219 78.9683C77.1182 78.1615 76.9165 77.6573 76.9165 77.6573C78.6308 76.7498 79.4375 74.5312 79.4375 74.5312C79.5384 74.8338 79.6392 75.1363 79.7401 75.338Z" fill="#4864D8"/>
<path d="M94.0601 104.375C94.0601 104.375 99.3038 99.3332 99.808 97.9214C100.312 96.5096 101.522 93.8877 103.237 93.4844L102.732 96.4088C102.732 96.4088 104.144 95.9046 104.346 95.602C104.548 95.4004 104.749 93.5852 104.951 93.5852C105.153 93.5852 105.858 96.3079 105.153 97.0138C104.548 97.7197 103.136 99.0306 101.724 99.3332L100.716 102.963L98.3962 108.005L94.0601 104.375Z" fill="#FFC8AF"/>
<path d="M115.236 75.8403C115.236 75.8403 119.269 76.7479 121.286 76.5462C123.303 76.3445 129.253 71.4033 130.261 69.7898C131.27 68.1764 119.37 70.294 119.37 70.294L115.236 75.8403Z" fill="#1D1D6D"/>
<path d="M151.211 48.9978C156.81 32.0196 148.958 14.1694 133.672 9.1284C118.386 4.08736 101.456 13.7644 95.8565 30.7426C90.2573 47.7208 98.1098 65.5709 113.395 70.612C128.681 75.653 145.612 65.976 151.211 48.9978Z" fill="#1D1D6D"/>
<path d="M80.3449 98.3274L78.7315 95.3022C78.7315 95.3022 72.8827 94.3946 67.5381 97.5207V101.453L80.3449 98.3274Z" fill="url(#paint63_linear_461_3290)"/>
<path d="M128.144 7.6697C112.413 4.14026 96.2785 15.3336 91.9424 32.6783C88.6146 46.0902 93.455 59.4012 103.136 66.2584L103.64 68.7794C104.043 70.6954 105.253 72.3089 107.069 73.2165C107.674 73.519 108.379 73.8215 108.985 74.124L92.6482 130.998L94.9676 144.309L115.136 75.7375C115.338 75.7375 115.64 75.7375 115.842 75.8383C117.556 75.9392 119.27 75.435 120.581 74.4266L126.934 69.687C137.119 66.3593 145.792 57.3844 148.716 45.3843C153.153 28.1405 143.876 11.1991 128.144 7.6697Z" fill="#1F1F84"/>
<path d="M116.144 77.9577C115.842 80.3779 115.842 82.3947 115.64 82.7981C114.934 84.2099 114.531 85.1174 113.32 86.8317C113.018 87.336 112.715 88.1427 112.514 89.2519C112.11 91.9747 112.11 97.1176 111.606 100.143C111.304 102.563 110.799 105.588 110.396 108.109C110.295 108.916 110.194 109.723 110.094 110.429C109.892 112.042 109.69 113.151 109.69 113.151L102.833 109.521C103.035 108.815 103.136 108.109 103.337 107.504C103.438 107.303 103.438 107.101 103.539 106.899C103.841 105.992 104.043 105.185 104.346 104.479C105.152 102.361 105.757 100.445 106.665 97.6218C107.875 93.5881 108.48 87.941 108.48 87.941C107.169 85.1175 107.371 80.1762 107.371 79.2687C107.371 78.1594 107.472 77.151 107.875 77.4535C108.883 78.1594 108.883 79.5712 108.883 79.5712C108.883 79.5712 108.783 81.6889 109.589 82.0922C109.69 82.1931 109.69 82.1931 110.497 82.0922C112.715 81.9914 113.825 81.2855 113.825 81.2855L115.136 77.0502C115.236 76.9493 116.245 77.2518 116.144 77.9577Z" fill="#FFC8AF"/>
<path d="M110.396 108.009C110.295 108.816 110.194 109.623 110.093 110.329L103.337 107.404C103.438 107.202 103.438 107.001 103.539 106.799C103.841 105.892 104.043 105.085 104.345 104.379L110.396 108.009Z" fill="#FDBFA3"/>
<path d="M109.992 111.939C109.992 111.939 108.883 116.376 107.673 119.3C107.27 120.41 106.765 121.317 106.463 121.519C105.051 122.628 93.656 115.267 93.656 115.267L93.8576 118.09L95.2694 140.074L95.4711 143.301C95.4711 143.301 82.7651 151.065 64.7145 147.032L64.9162 144.41L65.5213 135.233L65.6221 133.317L65.723 131.502V131.401C65.723 131.401 65.7229 131.401 65.6221 131.301C64.9162 130.695 60.4792 126.763 59.4708 123.435C57.7565 117.082 56.143 105.283 58.2607 103.872C59.4708 103.065 60.7817 102.359 62.1935 101.653C72.9835 96.3086 88.3114 94.8968 89.9248 96.6111C90.1265 96.8128 90.2274 96.9137 90.429 97.1154C97.2862 104.275 102.328 110.729 102.328 110.729L103.538 108.107L109.992 111.939Z" fill="url(#paint64_linear_461_3290)"/>
<path d="M107.774 119.2C107.371 120.309 106.867 121.217 106.564 121.418C105.153 122.528 93.6567 115.065 93.6567 115.065C93.6567 115.065 92.9508 110.729 91.9424 105.082C94.06 110.729 94.4634 112.847 97.7912 114.057C102.329 115.872 103.438 121.015 107.774 119.2Z" fill="url(#paint65_linear_461_3290)"/>
<path d="M65.5219 128.779C65.421 128.678 65.1185 128.477 64.816 128.174C64.2109 126.359 63.505 123.939 63.4042 123.132C63.3034 121.821 63.4042 108.812 63.4042 108.812C65.6227 116.577 65.5219 125.451 65.5219 128.779Z" fill="url(#paint66_linear_461_3290)"/>
<path d="M95.1684 139.974C93.9583 140.579 92.7483 141.083 91.5382 141.588C79.8406 146.226 70.3615 145.621 64.7144 144.31L65.3195 135.134C65.4203 134.529 65.4203 133.924 65.4203 133.218C65.4203 132.512 65.4203 131.907 65.4203 131.201C65.5211 118.697 63.4035 107.705 61.9917 101.554C72.7817 96.209 88.1096 94.7972 89.723 96.5115C89.9247 96.7132 90.0255 96.8141 90.2272 97.0157C91.2356 100.747 92.0424 104.881 92.6474 108.915C93.1516 112.041 93.4541 115.167 93.7567 117.991L95.1684 139.974Z" fill="url(#paint67_linear_461_3290)"/>
<path d="M145.187 42.3611C145.086 43.067 144.884 43.8737 144.682 44.5796C142.161 54.7646 134.901 62.4285 126.228 65.2521C123.506 66.1596 120.581 66.563 117.657 66.3613C116.346 66.2605 115.136 66.1596 113.825 65.8571C111.606 65.3529 109.489 64.5462 107.573 63.4369C98.0938 57.9915 93.0517 45.8905 96.1778 33.4871C99.808 18.6634 113.623 9.08353 127.035 12.1088C129.556 12.7138 131.876 13.7222 133.993 15.0332C139.943 18.7643 143.976 25.2181 145.187 32.5795C145.691 35.8064 145.691 39.0334 145.187 42.3611Z" fill="#EFF4F4"/>
<path d="M132.48 14.2271C131.875 14.0255 131.169 13.8238 130.564 13.7229C117.152 10.6977 103.337 20.2776 99.7066 35.1013C96.5806 47.8073 101.925 60.2107 111.908 65.4545C99.7066 61.5217 92.7486 47.7064 96.1772 33.5886C99.8075 18.765 113.623 9.18509 127.035 12.2103C128.951 12.7145 130.867 13.3196 132.48 14.2271Z" fill="#1D1D6D"/>
<path d="M101.724 109.115L103.438 106.09L110.396 109.115L110.295 114.46L101.724 109.115Z" fill="#DBE1E3"/>
<path d="M126.127 65.3512L145.086 42.3594C144.985 43.0653 144.783 43.872 144.581 44.5779C142.161 54.7628 134.901 62.5276 126.127 65.3512Z" fill="url(#paint68_linear_461_3290)"/>
<path d="M145.186 32.6792L117.555 66.461C116.244 66.3601 115.034 66.2593 113.723 65.9568C111.505 65.4525 109.387 64.6458 107.471 63.5366L133.892 15.1328C139.942 18.8639 143.976 25.3178 145.186 32.6792Z" fill="url(#paint69_linear_461_3290)"/>
<path d="M91.5386 141.587C92.3453 127.973 91.8411 107.301 91.8411 107.301L92.6478 108.914C93.152 112.04 93.4546 115.166 93.7571 117.99L95.1689 139.973C93.9588 140.578 92.6478 141.083 91.5386 141.587Z" fill="url(#paint70_linear_461_3290)"/>
<defs>
<linearGradient id="paint0_linear_461_3290" x1="35.562" y1="0.304161" x2="35.5813" y2="0.532506" gradientUnits="userSpaceOnUse">
<stop stop-color="#7763F7"/>
<stop offset="0.248" stop-color="#6F72F7"/>
<stop offset="0.3371" stop-color="#6C79F7"/>
<stop offset="0.7628" stop-color="#5B9EF8"/>
<stop offset="1" stop-color="#50B5F8"/>
</linearGradient>
<linearGradient id="paint1_linear_461_3290" x1="301.58" y1="152.026" x2="326.67" y2="163.75" gradientUnits="userSpaceOnUse">
<stop stop-color="#4F6AD9"/>
<stop offset="1" stop-color="#658BFD"/>
</linearGradient>
<linearGradient id="paint2_linear_461_3290" x1="287.73" y1="148.582" x2="307.468" y2="134.495" gradientUnits="userSpaceOnUse">
<stop stop-color="#4869D8"/>
<stop offset="1" stop-color="#658BFD"/>
</linearGradient>
<linearGradient id="paint3_linear_461_3290" x1="309.517" y1="154.033" x2="300.171" y2="141.08" gradientUnits="userSpaceOnUse">
<stop stop-color="#8DAEFF"/>
<stop offset="1" stop-color="#8DAEFF" stop-opacity="0"/>
</linearGradient>
<linearGradient id="paint4_linear_461_3290" x1="277.524" y1="155.184" x2="305.737" y2="166.478" gradientUnits="userSpaceOnUse">
<stop stop-color="#546AEA"/>
<stop offset="1" stop-color="#658BFD"/>
</linearGradient>
<linearGradient id="paint5_linear_461_3290" x1="293.669" y1="175.149" x2="293.769" y2="164.65" gradientUnits="userSpaceOnUse">
<stop stop-color="#8DAEFF"/>
<stop offset="1" stop-color="#8DAEFF" stop-opacity="0"/>
</linearGradient>
<linearGradient id="paint6_linear_461_3290" x1="281.439" y1="135.318" x2="300.614" y2="119.535" gradientUnits="userSpaceOnUse">
<stop stop-color="#546AEA"/>
<stop offset="1" stop-color="#658BFD"/>
</linearGradient>
<linearGradient id="paint7_linear_461_3290" x1="301.192" y1="137.44" x2="295.126" y2="128.457" gradientUnits="userSpaceOnUse">
<stop stop-color="#8DAEFF"/>
<stop offset="1" stop-color="#8DAEFF" stop-opacity="0"/>
</linearGradient>
<linearGradient id="paint8_linear_461_3290" x1="300.433" y1="68.4196" x2="311.555" y2="65.4646" gradientUnits="userSpaceOnUse">
<stop stop-color="#546AEA"/>
<stop offset="1" stop-color="#658BFD"/>
</linearGradient>
<linearGradient id="paint9_linear_461_3290" x1="296.055" y1="69.1415" x2="301.646" y2="67.6562" gradientUnits="userSpaceOnUse">
<stop stop-color="#546AEA"/>
<stop offset="1" stop-color="#658BFD"/>
</linearGradient>
<linearGradient id="paint10_linear_461_3290" x1="298.459" y1="76.2716" x2="316.2" y2="71.558" gradientUnits="userSpaceOnUse">
<stop stop-color="#546AEA"/>
<stop offset="1" stop-color="#658BFD"/>
</linearGradient>
<linearGradient id="paint11_linear_461_3290" x1="294.072" y1="81.8764" x2="312.589" y2="76.9565" gradientUnits="userSpaceOnUse">
<stop stop-color="#546AEA"/>
<stop offset="1" stop-color="#658BFD"/>
</linearGradient>
<linearGradient id="paint12_linear_461_3290" x1="288.405" y1="87.7895" x2="307.375" y2="82.7492" gradientUnits="userSpaceOnUse">
<stop stop-color="#546AEA"/>
<stop offset="1" stop-color="#658BFD"/>
</linearGradient>
<linearGradient id="paint13_linear_461_3290" x1="283.406" y1="94.2031" x2="302.123" y2="89.23" gradientUnits="userSpaceOnUse">
<stop stop-color="#546AEA"/>
<stop offset="1" stop-color="#658BFD"/>
</linearGradient>
<linearGradient id="paint14_linear_461_3290" x1="291.102" y1="74.0234" x2="295.144" y2="72.9496" gradientUnits="userSpaceOnUse">
<stop stop-color="#546AEA"/>
<stop offset="1" stop-color="#658BFD"/>
</linearGradient>
<linearGradient id="paint15_linear_461_3290" x1="284.694" y1="78.762" x2="288.18" y2="77.8358" gradientUnits="userSpaceOnUse">
<stop stop-color="#546AEA"/>
<stop offset="1" stop-color="#658BFD"/>
</linearGradient>
<linearGradient id="paint16_linear_461_3290" x1="278.891" y1="83.2623" x2="281.68" y2="82.5213" gradientUnits="userSpaceOnUse">
<stop stop-color="#546AEA"/>
<stop offset="1" stop-color="#658BFD"/>
</linearGradient>
<linearGradient id="paint17_linear_461_3290" x1="305.21" y1="96.0535" x2="316.183" y2="99.4134" gradientUnits="userSpaceOnUse">
<stop stop-color="#546AEA"/>
<stop offset="1" stop-color="#658BFD"/>
</linearGradient>
<linearGradient id="paint18_linear_461_3290" x1="300.932" y1="94.9864" x2="306.447" y2="96.6752" gradientUnits="userSpaceOnUse">
<stop stop-color="#546AEA"/>
<stop offset="1" stop-color="#658BFD"/>
</linearGradient>
<linearGradient id="paint19_linear_461_3290" x1="299.218" y1="102.259" x2="316.72" y2="107.619" gradientUnits="userSpaceOnUse">
<stop stop-color="#546AEA"/>
<stop offset="1" stop-color="#658BFD"/>
</linearGradient>
<linearGradient id="paint20_linear_461_3290" x1="292.294" y1="105.53" x2="310.562" y2="111.124" gradientUnits="userSpaceOnUse">
<stop stop-color="#546AEA"/>
<stop offset="1" stop-color="#658BFD"/>
</linearGradient>
<linearGradient id="paint21_linear_461_3290" x1="284.068" y1="108.566" x2="302.783" y2="114.297" gradientUnits="userSpaceOnUse">
<stop stop-color="#546AEA"/>
<stop offset="1" stop-color="#658BFD"/>
</linearGradient>
<linearGradient id="paint22_linear_461_3290" x1="276.165" y1="112.315" x2="294.631" y2="117.969" gradientUnits="userSpaceOnUse">
<stop stop-color="#546AEA"/>
<stop offset="1" stop-color="#658BFD"/>
</linearGradient>
<linearGradient id="paint23_linear_461_3290" x1="293.898" y1="97.3864" x2="297.885" y2="98.6072" gradientUnits="userSpaceOnUse">
<stop stop-color="#546AEA"/>
<stop offset="1" stop-color="#658BFD"/>
</linearGradient>
<linearGradient id="paint24_linear_461_3290" x1="285.645" y1="99.098" x2="289.084" y2="100.151" gradientUnits="userSpaceOnUse">
<stop stop-color="#546AEA"/>
<stop offset="1" stop-color="#658BFD"/>
</linearGradient>
<linearGradient id="paint25_linear_461_3290" x1="278.062" y1="100.828" x2="280.813" y2="101.67" gradientUnits="userSpaceOnUse">
<stop stop-color="#546AEA"/>
<stop offset="1" stop-color="#658BFD"/>
</linearGradient>
<linearGradient id="paint26_linear_461_3290" x1="282.998" y1="123.927" x2="285.418" y2="103.825" gradientUnits="userSpaceOnUse">
<stop stop-color="#566DEC"/>
<stop offset="1" stop-color="#658BFD"/>
</linearGradient>
<linearGradient id="paint27_linear_461_3290" x1="294.346" y1="120.418" x2="286.04" y2="113.831" gradientUnits="userSpaceOnUse">
<stop stop-color="#8DAEFF"/>
<stop offset="1" stop-color="#8DAEFF" stop-opacity="0"/>
</linearGradient>
<linearGradient id="paint28_linear_461_3290" x1="53.8998" y1="163.207" x2="33.2586" y2="172.513" gradientUnits="userSpaceOnUse">
<stop stop-color="#4F6AD9"/>
<stop offset="1" stop-color="#658BFD"/>
</linearGradient>
<linearGradient id="paint29_linear_461_3290" x1="65.2961" y1="160.683" x2="48.7898" y2="149.112" gradientUnits="userSpaceOnUse">
<stop stop-color="#4869D8"/>
<stop offset="1" stop-color="#658BFD"/>
</linearGradient>
<linearGradient id="paint30_linear_461_3290" x1="47.2927" y1="165.269" x2="55.1981" y2="154.506" gradientUnits="userSpaceOnUse">
<stop stop-color="#8DAEFF"/>
<stop offset="1" stop-color="#8DAEFF" stop-opacity="0"/>
</linearGradient>
<linearGradient id="paint31_linear_461_3290" x1="73.7295" y1="166.234" x2="50.3023" y2="175.445" gradientUnits="userSpaceOnUse">
<stop stop-color="#546AEA"/>
<stop offset="1" stop-color="#658BFD"/>
</linearGradient>
<linearGradient id="paint32_linear_461_3290" x1="60.3881" y1="183.029" x2="60.3021" y2="174.197" gradientUnits="userSpaceOnUse">
<stop stop-color="#8DAEFF"/>
<stop offset="1" stop-color="#8DAEFF" stop-opacity="0"/>
</linearGradient>
<linearGradient id="paint33_linear_461_3290" x1="70.4944" y1="149.519" x2="54.4209" y2="136.523" gradientUnits="userSpaceOnUse">
<stop stop-color="#546AEA"/>
<stop offset="1" stop-color="#658BFD"/>
</linearGradient>
<linearGradient id="paint34_linear_461_3290" x1="54.1717" y1="151.304" x2="59.3085" y2="143.833" gradientUnits="userSpaceOnUse">
<stop stop-color="#8DAEFF"/>
<stop offset="1" stop-color="#8DAEFF" stop-opacity="0"/>
</linearGradient>
<linearGradient id="paint35_linear_461_3290" x1="54.7988" y1="93.2464" x2="45.587" y2="90.8423" gradientUnits="userSpaceOnUse">
<stop stop-color="#546AEA"/>
<stop offset="1" stop-color="#658BFD"/>
</linearGradient>
<linearGradient id="paint36_linear_461_3290" x1="58.4149" y1="93.8497" x2="53.7846" y2="92.6412" gradientUnits="userSpaceOnUse">
<stop stop-color="#546AEA"/>
<stop offset="1" stop-color="#658BFD"/>
</linearGradient>
<linearGradient id="paint37_linear_461_3290" x1="56.4291" y1="99.8498" x2="41.7355" y2="96.0151" gradientUnits="userSpaceOnUse">
<stop stop-color="#546AEA"/>
<stop offset="1" stop-color="#658BFD"/>
</linearGradient>
<linearGradient id="paint38_linear_461_3290" x1="60.0542" y1="104.562" x2="44.7174" y2="100.559" gradientUnits="userSpaceOnUse">
<stop stop-color="#546AEA"/>
<stop offset="1" stop-color="#658BFD"/>
</linearGradient>
<linearGradient id="paint39_linear_461_3290" x1="64.7369" y1="109.538" x2="49.0249" y2="105.438" gradientUnits="userSpaceOnUse">
<stop stop-color="#546AEA"/>
<stop offset="1" stop-color="#658BFD"/>
</linearGradient>
<linearGradient id="paint40_linear_461_3290" x1="68.8678" y1="114.935" x2="53.3654" y2="110.889" gradientUnits="userSpaceOnUse">
<stop stop-color="#546AEA"/>
<stop offset="1" stop-color="#658BFD"/>
</linearGradient>
<linearGradient id="paint41_linear_461_3290" x1="62.5084" y1="97.9541" x2="59.1609" y2="97.0804" gradientUnits="userSpaceOnUse">
<stop stop-color="#546AEA"/>
<stop offset="1" stop-color="#658BFD"/>
</linearGradient>
<linearGradient id="paint42_linear_461_3290" x1="67.8034" y1="101.944" x2="64.9163" y2="101.191" gradientUnits="userSpaceOnUse">
<stop stop-color="#546AEA"/>
<stop offset="1" stop-color="#658BFD"/>
</linearGradient>
<linearGradient id="paint43_linear_461_3290" x1="72.5989" y1="105.729" x2="70.289" y2="105.126" gradientUnits="userSpaceOnUse">
<stop stop-color="#546AEA"/>
<stop offset="1" stop-color="#658BFD"/>
</linearGradient>
<linearGradient id="paint44_linear_461_3290" x1="50.8514" y1="116.492" x2="41.7569" y2="119.227" gradientUnits="userSpaceOnUse">
<stop stop-color="#546AEA"/>
<stop offset="1" stop-color="#658BFD"/>
</linearGradient>
<linearGradient id="paint45_linear_461_3290" x1="54.3862" y1="115.592" x2="49.8151" y2="116.967" gradientUnits="userSpaceOnUse">
<stop stop-color="#546AEA"/>
<stop offset="1" stop-color="#658BFD"/>
</linearGradient>
<linearGradient id="paint46_linear_461_3290" x1="55.8032" y1="121.71" x2="41.2967" y2="126.073" gradientUnits="userSpaceOnUse">
<stop stop-color="#546AEA"/>
<stop offset="1" stop-color="#658BFD"/>
</linearGradient>
<linearGradient id="paint47_linear_461_3290" x1="61.5247" y1="124.461" x2="46.383" y2="129.016" gradientUnits="userSpaceOnUse">
<stop stop-color="#546AEA"/>
<stop offset="1" stop-color="#658BFD"/>
</linearGradient>
<linearGradient id="paint48_linear_461_3290" x1="68.3221" y1="127.017" x2="52.8102" y2="131.683" gradientUnits="userSpaceOnUse">
<stop stop-color="#546AEA"/>
<stop offset="1" stop-color="#658BFD"/>
</linearGradient>
<linearGradient id="paint49_linear_461_3290" x1="74.8524" y1="130.169" x2="59.5469" y2="134.772" gradientUnits="userSpaceOnUse">
<stop stop-color="#546AEA"/>
<stop offset="1" stop-color="#658BFD"/>
</linearGradient>
<linearGradient id="paint50_linear_461_3290" x1="60.199" y1="117.612" x2="56.8945" y2="118.606" gradientUnits="userSpaceOnUse">
<stop stop-color="#546AEA"/>
<stop offset="1" stop-color="#658BFD"/>
</linearGradient>
<linearGradient id="paint51_linear_461_3290" x1="67.0195" y1="119.05" x2="64.1694" y2="119.907" gradientUnits="userSpaceOnUse">
<stop stop-color="#546AEA"/>
<stop offset="1" stop-color="#658BFD"/>
</linearGradient>
<linearGradient id="paint52_linear_461_3290" x1="73.285" y1="120.503" x2="71.0047" y2="121.189" gradientUnits="userSpaceOnUse">
<stop stop-color="#546AEA"/>
<stop offset="1" stop-color="#658BFD"/>
</linearGradient>
<linearGradient id="paint53_linear_461_3290" x1="69.2063" y1="139.94" x2="67.1342" y2="123.037" gradientUnits="userSpaceOnUse">
<stop stop-color="#566DEC"/>
<stop offset="1" stop-color="#658BFD"/>
</linearGradient>
<linearGradient id="paint54_linear_461_3290" x1="59.8286" y1="136.988" x2="66.787" y2="131.568" gradientUnits="userSpaceOnUse">
<stop stop-color="#8DAEFF"/>
<stop offset="1" stop-color="#8DAEFF" stop-opacity="0"/>
</linearGradient>
<linearGradient id="paint55_linear_461_3290" x1="273.703" y1="112.794" x2="275.481" y2="171.785" gradientUnits="userSpaceOnUse">
<stop stop-color="#24247F"/>
<stop offset="1" stop-color="#2D2D96"/>
</linearGradient>
<linearGradient id="paint56_linear_461_3290" x1="280.452" y1="109.353" x2="278.081" y2="188.503" gradientUnits="userSpaceOnUse">
<stop stop-color="#242463"/>
<stop offset="1" stop-color="#242463" stop-opacity="0"/>
</linearGradient>
<linearGradient id="paint57_linear_461_3290" x1="267.75" y1="88.4751" x2="257.078" y2="97.9611" gradientUnits="userSpaceOnUse">
<stop stop-color="#E1E1E1"/>
<stop offset="1" stop-color="white"/>
</linearGradient>
<linearGradient id="paint58_linear_461_3290" x1="268.383" y1="122.976" x2="274.6" y2="122.976" gradientUnits="userSpaceOnUse">
<stop stop-color="#EF6F6F"/>
<stop offset="1" stop-color="#EF6F6F" stop-opacity="0"/>
</linearGradient>
<linearGradient id="paint59_linear_461_3290" x1="270.275" y1="71.935" x2="275.907" y2="95.9466" gradientUnits="userSpaceOnUse">
<stop stop-color="#E1E1E1"/>
<stop offset="1" stop-color="white"/>
</linearGradient>
<linearGradient id="paint60_linear_461_3290" x1="97.2324" y1="133.568" x2="69.4401" y2="214.788" gradientUnits="userSpaceOnUse">
<stop stop-color="#24247F"/>
<stop offset="1" stop-color="#2D2D96"/>
</linearGradient>
<linearGradient id="paint61_linear_461_3290" x1="79.0329" y1="145.082" x2="59.9278" y2="256.607" gradientUnits="userSpaceOnUse">
<stop stop-color="#242463"/>
<stop offset="1" stop-color="#242463" stop-opacity="0"/>
</linearGradient>
<linearGradient id="paint62_linear_461_3290" x1="99.2763" y1="137.838" x2="78.9563" y2="256.456" gradientUnits="userSpaceOnUse">
<stop stop-color="#242463"/>
<stop offset="1" stop-color="#242463" stop-opacity="0"/>
</linearGradient>
<linearGradient id="paint63_linear_461_3290" x1="67.5319" y1="98.3752" x2="80.3239" y2="98.3752" gradientUnits="userSpaceOnUse">
<stop stop-color="#E1E1E1"/>
<stop offset="1" stop-color="white"/>
</linearGradient>
<linearGradient id="paint64_linear_461_3290" x1="79.072" y1="155.557" x2="85.0418" y2="94.186" gradientUnits="userSpaceOnUse">
<stop stop-color="#E1E1E1"/>
<stop offset="1" stop-color="white"/>
</linearGradient>
<linearGradient id="paint65_linear_461_3290" x1="86.5501" y1="129.897" x2="107.056" y2="102.99" gradientUnits="userSpaceOnUse">
<stop stop-color="#BCCACE"/>
<stop offset="1" stop-color="#BCCACE" stop-opacity="0"/>
</linearGradient>
<linearGradient id="paint66_linear_461_3290" x1="72.4852" y1="118.39" x2="44.7045" y2="119.878" gradientUnits="userSpaceOnUse">
<stop stop-color="#BCCACE"/>
<stop offset="1" stop-color="#BCCACE" stop-opacity="0"/>
</linearGradient>
<linearGradient id="paint67_linear_461_3290" x1="81.4838" y1="152.722" x2="71.5654" y2="57.0399" gradientUnits="userSpaceOnUse">
<stop stop-color="#F4BA38"/>
<stop offset="1" stop-color="#FFD349"/>
</linearGradient>
<linearGradient id="paint68_linear_461_3290" x1="161.963" y1="87.6926" x2="111.456" y2="22.6564" gradientUnits="userSpaceOnUse">
<stop stop-color="white"/>
<stop offset="1" stop-color="white" stop-opacity="0"/>
</linearGradient>
<linearGradient id="paint69_linear_461_3290" x1="160.457" y1="89.2663" x2="108.904" y2="22.8833" gradientUnits="userSpaceOnUse">
<stop stop-color="white"/>
<stop offset="1" stop-color="white" stop-opacity="0"/>
</linearGradient>
<linearGradient id="paint70_linear_461_3290" x1="94.8598" y1="150.172" x2="87.6369" y2="83.8117" gradientUnits="userSpaceOnUse">
<stop stop-color="#FF911E"/>
<stop offset="1" stop-color="#FE931E" stop-opacity="0"/>
</linearGradient>
</defs>
</svg>
