<svg width="329" height="238" viewBox="0 0 329 238" fill="none" xmlns="http://www.w3.org/2000/svg">
<path d="M78.7835 77.5934C89.8929 75.8112 97.955 71.2447 99.6332 59.5249C101.111 49.2038 94.9151 40.8164 85.5943 37.4099C70.8802 32.0322 62.2854 41.659 47.2428 41.5279C32.3781 41.3983 25.8901 35.2747 12.9578 41.0538C-0.292645 46.9751 -3.32527 60.3292 8.64713 68.5939C20.6598 76.8864 27.5826 70.7079 40.7337 70.6908C54.2725 70.6731 63.1354 80.1037 78.7835 77.5934Z" fill="#F1F3F7"/>
<path opacity="0.75" d="M186.85 46.4114C168.703 36.6954 149.233 49.1628 139.026 68.3367C128.818 87.5106 124.754 103.933 83.4518 96.6247C42.1493 89.3162 24.0026 109.092 26.46 141.421C28.9174 173.836 71.7321 241.762 185.243 236.775C298.66 231.702 332.779 165.668 327.77 135.488C322.761 105.309 260.192 112.789 235.524 87.7686C210.951 62.8339 199.893 53.4619 186.85 46.4114Z" fill="#EDEFF4"/>
<path d="M36.2308 48.1874C35.7313 48.1874 35.2317 48.1874 34.8154 48.1874C35.0652 48.1042 35.5648 48.1042 36.2308 48.1874Z" fill="url(#paint0_linear_1124_319)"/>
<path d="M282.698 192.727C282.698 192.727 295.559 195.352 300.141 206.54C300.141 206.54 288.537 209.978 277.376 207.852C266.215 205.665 282.698 192.727 282.698 192.727Z" fill="url(#paint1_linear_1124_319)"/>
<path d="M276.864 199.387C276.864 199.387 286.849 200.55 293.481 203.55C293.481 203.55 284.912 201.223 274.331 200.55L276.864 199.387Z" fill="#405EBF"/>
<path d="M265.907 202.023C265.907 202.023 282.133 203.189 287.542 194.725C292.951 186.261 291.797 182.091 291.797 182.091C291.797 182.091 269.513 181.723 261.868 195.768L265.907 202.023Z" fill="url(#paint2_linear_1124_319)"/>
<path d="M266.772 200.061C266.772 200.061 277.085 189.267 289.85 184.422C289.85 184.422 275.138 188.347 265.907 199.264L266.772 200.061Z" fill="#405EBF"/>
<path d="M265.907 202.023C265.907 202.023 282.133 203.189 287.542 194.725C292.951 186.261 291.797 182.091 291.797 182.091C291.797 182.091 269.513 181.723 261.868 195.768L265.907 202.023Z" fill="url(#paint3_linear_1124_319)"/>
<path d="M267.349 195.832C284.657 199.88 285.09 213.802 288.912 221.101C288.912 221.101 270.522 223.738 261.796 208.957C259.127 203.069 256.459 196.384 267.349 195.832Z" fill="url(#paint4_linear_1124_319)"/>
<path d="M266.195 201.289C266.195 201.289 277.085 207.177 281.412 216.009C281.412 216.009 271.604 204.233 264.392 202.577L266.195 201.289Z" fill="#405EBF"/>
<path d="M267.349 195.832C284.657 199.88 285.09 213.802 288.912 221.101C288.912 221.101 270.522 223.738 261.796 208.957C259.127 203.069 256.459 196.384 267.349 195.832Z" fill="url(#paint5_linear_1124_319)"/>
<path d="M260.281 176.938C260.281 176.938 267.637 168.29 288.84 169.762C288.84 169.762 285.162 170.682 281.989 177.49C278.816 184.298 271.964 190.615 259.849 188.162L260.281 176.938Z" fill="url(#paint6_linear_1124_319)"/>
<path d="M262.373 183.87C262.373 183.87 272.469 175.59 282.421 172.34C282.421 172.34 273.623 173.996 261.219 183.257L262.373 183.87Z" fill="#405EBF"/>
<path d="M260.281 176.938C260.281 176.938 267.637 168.29 288.84 169.762C288.84 169.762 285.162 170.682 281.989 177.49C278.816 184.298 271.964 190.615 259.849 188.162L260.281 176.938Z" fill="url(#paint7_linear_1124_319)"/>
<path d="M281.917 123.46C281.917 123.46 284.802 117.266 290.571 111.93C290.499 111.991 287.398 119.657 281.917 123.46Z" fill="url(#paint8_linear_1124_319)"/>
<path d="M278.311 126.772C278.311 126.772 280.763 118.922 280.042 111.133C279.97 111.133 277.013 119.597 278.311 126.772Z" fill="url(#paint9_linear_1124_319)"/>
<path d="M296.34 122.664C296.34 122.664 287.902 126.221 278.888 127.08C278.888 127.08 287.975 122.971 296.34 122.664Z" fill="url(#paint10_linear_1124_319)"/>
<path d="M292.879 128.429C292.879 128.429 283.864 131.863 274.417 132.293C274.489 132.231 284.152 128.183 292.879 128.429Z" fill="url(#paint11_linear_1124_319)"/>
<path d="M287.758 134.07C287.758 134.07 278.527 137.75 268.936 138.118C268.936 138.118 278.816 133.763 287.758 134.07Z" fill="url(#paint12_linear_1124_319)"/>
<path d="M282.998 141.858C282.998 141.858 273.118 143.943 263.599 142.778C263.599 142.778 274.272 140.141 282.998 141.858Z" fill="url(#paint13_linear_1124_319)"/>
<path d="M273.479 131.74C273.479 131.74 275.066 123.767 273.551 116.039C273.551 116.039 271.46 124.748 273.479 131.74Z" fill="url(#paint14_linear_1124_319)"/>
<path d="M267.565 137.076C267.565 137.076 269.008 128.306 266.556 120.148C266.484 120.148 264.464 129.716 267.565 137.076Z" fill="url(#paint15_linear_1124_319)"/>
<path d="M262.084 141.491C262.084 141.491 263.022 132.659 259.993 124.625C259.993 124.625 258.551 134.315 262.084 141.491Z" fill="url(#paint16_linear_1124_319)"/>
<path d="M257.541 145.111C257.541 145.111 266.844 140.327 281.556 123.891C281.556 123.891 267.349 141.861 258.046 146.829L257.541 145.111Z" fill="#192EAD"/>
<path d="M283.936 150.564C283.936 150.564 289.778 146.21 297.783 143.695C297.783 143.695 290.859 149.276 283.936 150.564Z" fill="url(#paint17_linear_1124_319)"/>
<path d="M278.888 152.099C278.888 152.099 285.306 146.089 288.84 138.852C288.912 138.852 281.628 145.23 278.888 152.099Z" fill="url(#paint18_linear_1124_319)"/>
<path d="M297.205 155.473C297.205 155.473 287.758 155.35 279.32 152.591C279.248 152.591 289.561 152.468 297.205 155.473Z" fill="url(#paint19_linear_1124_319)"/>
<path d="M291.004 159.213C291.004 159.213 281.124 158.783 272.542 155.41C272.614 155.471 283.431 155.594 291.004 159.213Z" fill="url(#paint20_linear_1124_319)"/>
<path d="M283.431 162.28C283.431 162.28 273.262 161.974 264.464 158.539C264.464 158.539 275.642 158.539 283.431 162.28Z" fill="url(#paint21_linear_1124_319)"/>
<path d="M274.993 167.308C274.993 167.308 265.113 165.345 257.252 160.5C257.252 160.561 268.142 162.34 274.993 167.308Z" fill="url(#paint22_linear_1124_319)"/>
<path d="M271.964 154.614C271.964 154.614 277.734 148.113 280.474 140.691C280.546 140.691 273.984 147.561 271.964 154.614Z" fill="url(#paint23_linear_1124_319)"/>
<path d="M263.815 157.006C263.815 157.006 269.873 149.769 272.036 141.551C272.036 141.551 265.041 149.279 263.815 157.006Z" fill="url(#paint24_linear_1124_319)"/>
<path d="M256.531 158.845C256.531 158.845 262.084 151.362 263.815 143.082C263.815 143.021 257.325 151.055 256.531 158.845Z" fill="url(#paint25_linear_1124_319)"/>
<path d="M250.617 160.319C250.617 160.319 261.435 159.706 283.359 150.812C283.359 150.812 261.075 161.239 250.041 162.036L250.617 160.319Z" fill="#192EAD"/>
<path d="M257.541 163.387C257.541 163.387 260.137 153.758 266.123 147.625C266.123 147.625 284.08 166.822 260.714 178.965L257.541 163.387Z" fill="url(#paint26_linear_1124_319)"/>
<path d="M260.498 173.263C260.498 173.263 266.484 166.455 266.051 155.906C266.051 155.906 265.402 166.333 259.777 172.098L260.498 173.263Z" fill="#405EBF"/>
<path d="M257.541 163.387C257.541 163.387 260.137 153.758 266.123 147.625C266.123 147.625 284.08 166.822 260.714 178.965L257.541 163.387Z" fill="url(#paint27_linear_1124_319)"/>
<path d="M52.735 201.051C52.735 201.051 42.2854 203.261 38.562 212.683C38.562 212.683 47.9907 215.578 57.059 213.788C66.1273 211.946 52.735 201.051 52.735 201.051Z" fill="url(#paint28_linear_1124_319)"/>
<path d="M56.7337 202.715C56.7337 202.715 46.3149 203.645 39.395 206.045C39.395 206.045 48.3365 204.184 59.3772 203.645L56.7337 202.715Z" fill="#405EBF"/>
<path d="M66.5496 209.246C66.5496 209.246 53.1411 210.226 48.6716 203.106C44.2021 195.986 45.1556 192.477 45.1556 192.477C45.1556 192.477 63.57 192.168 69.8869 203.983L66.5496 209.246Z" fill="url(#paint29_linear_1124_319)"/>
<path d="M65.8346 207.595C65.8346 207.595 57.3127 198.514 46.7646 194.438C46.7646 194.438 58.9217 197.74 66.5497 206.924L65.8346 207.595Z" fill="#405EBF"/>
<path d="M66.5496 209.246C66.5496 209.246 53.1411 210.226 48.6716 203.106C44.2021 195.986 45.1556 192.477 45.1556 192.477C45.1556 192.477 63.57 192.168 69.8869 203.983L66.5496 209.246Z" fill="url(#paint30_linear_1124_319)"/>
<path d="M65.3575 204.031C51.0551 207.437 50.6975 219.149 47.5391 225.289C47.5391 225.289 62.7354 227.507 69.9462 215.073C72.1512 210.12 74.2965 204.496 65.3575 204.031Z" fill="url(#paint31_linear_1124_319)"/>
<path d="M66.311 208.625C66.311 208.625 57.3124 213.578 53.7368 221.008C53.7368 221.008 61.8415 211.102 67.8009 209.709L66.311 208.625Z" fill="#405EBF"/>
<path d="M65.3575 204.031C51.0551 207.437 50.6975 219.149 47.5391 225.289C47.5391 225.289 62.7354 227.507 69.9462 215.073C72.1512 210.12 74.2965 204.496 65.3575 204.031Z" fill="url(#paint32_linear_1124_319)"/>
<path d="M71.1976 188.14C71.1976 188.14 65.1191 180.865 47.5986 182.103C47.5986 182.103 50.6379 182.877 53.26 188.604C55.8821 194.331 61.5435 199.646 71.5552 197.582L71.1976 188.14Z" fill="url(#paint33_linear_1124_319)"/>
<path d="M69.4693 193.97C69.4693 193.97 61.1262 187.004 52.9023 184.27C52.9023 184.27 60.1727 185.663 70.4228 193.454L69.4693 193.97Z" fill="#405EBF"/>
<path d="M71.1976 188.14C71.1976 188.14 65.1191 180.865 47.5986 182.103C47.5986 182.103 50.6379 182.877 53.26 188.604C55.8821 194.331 61.5435 199.646 71.5552 197.582L71.1976 188.14Z" fill="url(#paint34_linear_1124_319)"/>
<path d="M53.3197 143.149C53.3197 143.149 50.9359 137.938 46.1685 133.449C46.1685 133.501 48.7906 139.95 53.3197 143.149Z" fill="url(#paint35_linear_1124_319)"/>
<path d="M56.2992 145.934C56.2992 145.934 54.273 139.33 54.869 132.777C54.869 132.777 57.3719 139.898 56.2992 145.934Z" fill="url(#paint36_linear_1124_319)"/>
<path d="M41.4009 142.477C41.4009 142.477 48.3733 145.469 55.8225 146.191C55.8225 146.191 48.3137 142.735 41.4009 142.477Z" fill="url(#paint37_linear_1124_319)"/>
<path d="M44.2017 147.329C44.2017 147.329 51.6508 150.219 59.4576 150.58C59.4576 150.528 51.4125 147.123 44.2017 147.329Z" fill="url(#paint38_linear_1124_319)"/>
<path d="M48.4326 152.076C48.4326 152.076 56.0606 155.171 63.9865 155.481C64.0461 155.481 55.8222 151.818 48.4326 152.076Z" fill="url(#paint39_linear_1124_319)"/>
<path d="M52.4258 158.625C52.4258 158.625 60.5901 160.38 68.4564 159.399C68.4564 159.399 59.6366 157.181 52.4258 158.625Z" fill="url(#paint40_linear_1124_319)"/>
<path d="M60.2922 150.115C60.2922 150.115 58.9811 143.407 60.2326 136.906C60.2326 136.906 61.9608 144.233 60.2922 150.115Z" fill="url(#paint41_linear_1124_319)"/>
<path d="M65.1788 154.604C65.1788 154.604 63.9869 147.226 66.0131 140.363C66.0131 140.363 67.7413 148.412 65.1788 154.604Z" fill="url(#paint42_linear_1124_319)"/>
<path d="M69.708 158.318C69.708 158.318 68.9333 150.888 71.4362 144.129C71.4362 144.129 72.6281 152.281 69.708 158.318Z" fill="url(#paint43_linear_1124_319)"/>
<path d="M73.4027 161.36C73.4027 161.36 65.7152 157.336 53.5581 143.508C53.5581 143.508 65.298 158.625 72.9856 162.805L73.4027 161.36Z" fill="#192EAD"/>
<path d="M51.6509 165.958C51.6509 165.958 46.8239 162.295 40.209 160.18C40.209 160.18 45.8704 164.875 51.6509 165.958Z" fill="url(#paint44_linear_1124_319)"/>
<path d="M55.763 167.246C55.763 167.246 50.4591 162.19 47.5391 156.102C47.5391 156.102 53.4984 161.468 55.763 167.246Z" fill="url(#paint45_linear_1124_319)"/>
<path d="M40.6855 170.086C40.6855 170.086 48.4923 169.983 55.4647 167.661C55.4647 167.661 46.9429 167.558 40.6855 170.086Z" fill="url(#paint46_linear_1124_319)"/>
<path d="M45.751 173.23C45.751 173.23 53.9153 172.869 61.0069 170.031C61.0069 170.083 52.0679 170.186 45.751 173.23Z" fill="url(#paint47_linear_1124_319)"/>
<path d="M52.0679 175.811C52.0679 175.811 60.4705 175.553 67.7409 172.664C67.6814 172.664 58.504 172.664 52.0679 175.811Z" fill="url(#paint48_linear_1124_319)"/>
<path d="M59.0405 180.044C59.0405 180.044 67.2048 178.393 73.7005 174.316C73.7005 174.368 64.6423 175.864 59.0405 180.044Z" fill="url(#paint49_linear_1124_319)"/>
<path d="M61.5433 169.363C61.5433 169.363 56.7758 163.894 54.5112 157.65C54.4516 157.65 59.8746 163.429 61.5433 169.363Z" fill="url(#paint50_linear_1124_319)"/>
<path d="M68.2775 171.373C68.2775 171.373 63.2717 165.285 61.4839 158.371C61.4839 158.371 67.2049 164.872 68.2775 171.373Z" fill="url(#paint51_linear_1124_319)"/>
<path d="M74.2367 172.921C74.2367 172.921 69.648 166.626 68.2178 159.66C68.2774 159.609 73.6408 166.368 74.2367 172.921Z" fill="url(#paint52_linear_1124_319)"/>
<path d="M79.1829 174.161C79.1829 174.161 70.2439 173.646 52.1274 166.164C52.1274 166.164 70.5418 174.935 79.6596 175.606L79.1829 174.161Z" fill="#192EAD"/>
<path d="M73.4619 176.741C73.4619 176.741 71.3165 168.64 66.3703 163.48C66.3703 163.48 51.5315 179.63 70.8398 189.846L73.4619 176.741Z" fill="url(#paint53_linear_1124_319)"/>
<path d="M70.9588 185.047C70.9588 185.047 66.0125 179.32 66.3701 170.445C66.3701 170.445 66.9064 179.217 71.5547 184.067L70.9588 185.047Z" fill="#405EBF"/>
<path d="M73.4619 176.741C73.4619 176.741 71.3165 168.64 66.3703 163.48C66.3703 163.48 51.5315 179.63 70.8398 189.846L73.4619 176.741Z" fill="url(#paint54_linear_1124_319)"/>
<path d="M212.377 183.191H70.6796C69.191 183.191 67.9151 184.388 67.9151 185.937V215.79C67.9151 217.269 69.1201 218.536 70.6796 218.536H212.377V183.191Z" fill="#407BFF"/>
<path opacity="0.2" d="M212.377 183.191H70.6796C69.191 183.191 67.9151 184.388 67.9151 185.937V215.79C67.9151 217.269 69.1201 218.536 70.6796 218.536H212.377V183.191Z" fill="black"/>
<path opacity="0.2" d="M177.669 218.539H155.978V183.264H177.669V218.539Z" fill="black"/>
<path opacity="0.2" d="M146.628 218.539H135.641V183.264H146.628V218.539Z" fill="black"/>
<path d="M212.377 183.191H259.373C260.933 183.191 262.138 184.388 262.138 185.937V215.72C262.138 217.269 260.933 218.466 259.373 218.466H212.448V183.191H212.377Z" fill="#407BFF"/>
<path opacity="0.9" d="M221.025 186.992H262.138V214.733H221.096C219.111 214.733 217.481 213.114 217.481 211.142V190.583C217.41 188.612 219.04 186.992 221.025 186.992Z" fill="white"/>
<path opacity="0.2" d="M87.7625 210.934C82.1642 210.934 77.626 206.426 77.626 200.865C77.626 195.305 82.1642 190.797 87.7625 190.797C93.3607 190.797 97.8989 195.305 97.8989 200.865C97.8989 206.426 93.3607 210.934 87.7625 210.934Z" fill="black"/>
<path d="M202.17 157.562H60.4731C58.9845 157.562 57.7086 158.759 57.7086 160.308V180.516C57.7086 181.994 58.9136 183.262 60.4731 183.262H202.17V157.562Z" fill="#263238"/>
<path opacity="0.2" d="M202.17 157.562H60.4731C58.9845 157.562 57.7086 158.759 57.7086 160.308V180.516C57.7086 181.994 58.9136 183.262 60.4731 183.262H202.17V157.562Z" fill="black"/>
<path d="M202.17 157.562H249.095C250.655 157.562 251.86 158.759 251.86 160.308V180.445C251.86 181.994 250.655 183.191 249.095 183.191H202.17V157.562Z" fill="#263238"/>
<path opacity="0.9" d="M210.818 161.363H251.86V179.388H210.818C208.833 179.388 207.203 177.768 207.203 175.797V164.954C207.203 162.983 208.833 161.363 210.818 161.363Z" fill="white"/>
<path opacity="0.3" d="M172.47 177.135H73.3027C71.6724 177.135 70.3256 175.798 70.3256 174.178V166.645C70.3256 165.025 71.6724 163.688 73.3027 163.688H172.47C174.1 163.688 175.447 165.025 175.447 166.645V174.178C175.447 175.798 174.1 177.135 172.47 177.135Z" fill="#407BFF"/>
<path opacity="0.3" d="M196.74 183.246H192.983V157.617H196.74V183.246Z" fill="#407BFF"/>
<path opacity="0.3" d="M189.871 183.246H186.114V157.617H189.871V183.246Z" fill="#407BFF"/>
<path d="M217.835 131.16H76.1381C74.6495 131.16 73.3736 132.357 73.3736 133.906V154.888C73.3736 156.366 74.5787 157.634 76.1381 157.634H217.835V131.16Z" fill="#FF7A00"/>
<path opacity="0.9" d="M183.035 157.59H133.841V131.187H183.035V157.59Z" fill="white"/>
<path opacity="0.9" d="M112.746 157.59H87.7944V131.187H112.746V157.59Z" fill="white"/>
<path d="M217.835 131.16H264.76C266.32 131.16 267.525 132.357 267.525 133.906V154.817C267.525 156.366 266.32 157.563 264.76 157.563H217.835V131.16Z" fill="#FFA200"/>
<path opacity="0.9" d="M226.483 134.961H267.525V153.83H226.483C224.498 153.83 222.868 152.211 222.868 150.24V138.552C222.868 136.58 224.498 134.961 226.483 134.961Z" fill="white"/>
<path d="M207.557 113.625H65.8593C64.3707 113.625 63.0948 114.822 63.0948 116.371V128.411C63.0948 129.889 64.2999 131.157 65.8593 131.157H207.557V113.625Z" fill="#407BFF"/>
<path opacity="0.3" d="M207.557 113.625H65.8593C64.3707 113.625 63.0948 114.822 63.0948 116.371V128.411C63.0948 129.889 64.2999 131.157 65.8593 131.157H207.557V113.625Z" fill="white"/>
<path opacity="0.2" d="M207.557 113.625H65.8593C64.3707 113.625 63.0948 114.822 63.0948 116.371V128.411C63.0948 129.889 64.2999 131.157 65.8593 131.157H207.557V113.625Z" fill="black"/>
<path d="M207.557 113.625H254.482C256.042 113.625 257.247 114.822 257.247 116.371V128.411C257.247 129.96 256.042 131.157 254.482 131.157H207.557V113.625Z" fill="#407BFF"/>
<path opacity="0.3" d="M207.557 113.625H254.482C256.042 113.625 257.247 114.822 257.247 116.371V128.411C257.247 129.96 256.042 131.157 254.482 131.157H207.557V113.625Z" fill="white"/>
<path opacity="0.9" d="M216.205 117.426H257.247V127.353H216.205C214.22 127.353 212.59 125.734 212.59 123.763V120.946C212.59 119.045 214.22 117.426 216.205 117.426Z" fill="white"/>
<path opacity="0.4" d="M194.88 126.508L130.659 126.508V118.2H194.88V126.508Z" fill="#263238"/>
<g clip-path="url(#clip0_1124_319)">
<path d="M243.002 154.555C243.633 156.375 243.633 158.335 243.212 160.225C242.792 162.115 241.88 163.795 240.828 165.405C240.758 165.475 240.687 165.615 240.758 165.685C240.758 165.755 240.828 165.825 240.898 165.895C243.563 167.855 246.299 169.885 249.525 170.515C249.104 168.975 248.894 167.435 248.894 165.825C248.894 163.585 249.315 161.345 250.647 159.525" fill="#FFC8AF"/>
<path d="M256.609 146.156C257.24 146.786 257.31 147.766 257.24 148.676C257.17 149.586 256.889 150.426 257.029 151.336C257.17 152.526 258.011 153.506 258.783 154.486C258.362 155.046 257.45 154.906 256.889 155.326C256.609 155.536 256.468 155.886 256.328 156.236C255.627 157.776 254.785 159.246 253.663 160.576C253.522 160.716 253.382 160.926 253.172 160.996C252.891 161.136 252.611 160.996 252.33 160.856C249.244 159.666 246.158 158.266 243.843 155.816C241.599 153.436 240.266 149.796 241.388 146.716" fill="#FFC8AF"/>
<path d="M250.437 150.705C251.699 149.655 252.541 148.045 252.541 146.365C254.084 148.045 256.679 148.605 258.923 147.975C261.098 147.345 262.921 145.525 263.763 143.425C262.36 143.915 260.747 143.845 259.414 143.145C260.396 142.375 261.098 141.255 261.308 139.995C260.046 140.765 258.503 140.765 257.03 140.415C255.557 140.065 254.294 139.435 252.962 138.875C251.629 138.315 250.156 137.965 248.683 138.175C247.21 138.385 245.807 139.295 245.387 140.695C243.914 140.485 242.371 140.765 241.248 141.675C240.547 142.235 240.126 143.075 239.705 143.845C239.004 145.105 238.443 146.575 238.793 147.975C239.004 148.675 239.355 149.235 239.775 149.795C239.846 149.935 239.986 150.145 239.986 150.285C239.986 150.425 239.916 150.565 239.846 150.705C239.635 151.265 239.775 151.895 239.846 152.455C240.056 153.435 240.266 154.485 240.757 155.395C241.178 156.305 242.511 157.565 243.493 157.985C243.493 157.985 246.579 157.705 247.701 153.085" fill="#192EAD"/>
<path d="M250.366 150.917C250.226 150.147 250.086 149.727 249.665 149.307C249.384 149.027 249.174 148.747 248.823 148.537C248.613 148.397 248.332 148.257 248.052 148.187C247.771 148.117 247.42 148.117 247.14 148.257C246.509 148.537 246.228 149.307 246.228 150.077C246.228 151.757 247.42 153.297 248.963 153.857" fill="#FFC8AF"/>
<path d="M279.825 152.736L274.003 148.116C273.863 147.976 273.582 148.046 273.582 148.256L271.548 161.836L276.739 164.986" fill="#E83C4C"/>
<path d="M279.474 152.805L273.863 148.535L271.689 162.885L276.949 166.035" fill="white"/>
<path d="M279.825 152.734L268.252 154.974C267.831 155.044 267.48 155.394 267.41 155.884L265.306 175.344L277.651 173.664L279.825 152.734Z" fill="#E83C4C"/>
<path d="M277.65 173.664L279.825 152.734L279.123 152.874L276.668 173.804L277.65 173.664Z" fill="#D52248"/>
<path d="M274.354 175.133C274.284 174.083 273.793 173.313 273.232 172.403C272.53 171.423 271.689 170.303 271.268 169.253C271.198 169.113 271.128 168.903 271.268 168.833C271.338 168.763 271.549 168.763 271.689 168.833C272.881 169.393 273.021 170.233 274.074 171.003C273.372 169.463 272.04 166.313 272.881 166.663C274.003 167.083 274.003 168.833 275.126 169.323C275.336 168.203 274.494 167.013 275.056 166.033C275.546 165.263 276.458 168.833 277.019 170.303C277.23 170.863 277.37 171.353 277.44 171.983C277.58 173.453 276.949 174.923 276.318 176.323" fill="#FFC8AF"/>
<path d="M273.372 176.676C270.566 177.656 268.462 180.036 266.709 182.416C263.973 186.196 261.729 190.326 259.975 194.666C259.765 195.156 259.625 195.786 260.045 196.066C260.186 196.206 260.396 196.206 260.607 196.276C261.518 196.346 262.43 195.996 263.272 195.576C269.304 192.566 273.652 186.896 276.879 180.946" fill="#EC827D"/>
<path d="M284.243 213.214C284.734 214.264 284.945 215.454 284.945 216.644C284.874 218.604 284.173 220.564 284.804 222.384C284.804 222.454 284.874 222.524 284.945 222.594C285.015 222.664 285.085 222.664 285.225 222.664C286.347 222.594 287.399 222.594 288.522 222.524C290.135 222.454 291.678 222.384 293.221 221.964C294.133 221.684 294.974 221.334 295.816 220.914C297.079 220.354 298.271 219.794 299.533 219.234C297.85 218.954 296.167 218.534 294.483 217.974C293.151 217.554 291.818 216.924 291.047 215.804C290.696 215.314 290.556 214.754 290.345 214.264C289.854 212.724 289.363 211.114 288.942 209.574" fill="#FFC8AF"/>
<path d="M284.384 219.723C284.033 221.263 284.173 222.873 284.734 224.273C284.804 224.413 284.875 224.553 285.015 224.623C285.225 224.763 285.436 224.693 285.646 224.693C291.047 223.853 296.377 222.383 301.427 220.283C302.199 219.933 303.111 219.513 303.391 218.673C303.461 218.533 303.461 218.393 303.391 218.253C303.321 218.183 303.251 218.113 303.181 218.043C302.479 217.623 301.497 217.693 300.656 217.833C299.113 218.113 297.57 218.533 295.956 218.323C295.255 218.183 294.624 217.973 293.993 217.763C293.852 217.693 293.642 217.623 293.431 217.693C293.291 217.693 293.151 217.833 293.081 217.903C292.52 218.463 292.099 219.093 291.888 219.863C291.818 220.003 291.818 220.143 291.748 220.213C291.608 220.283 291.468 220.283 291.327 220.283C288.943 220.283 286.418 220.143 284.524 218.743" fill="#100C56"/>
<path d="M303.461 206.356C304.373 207.126 305.075 208.106 305.495 209.226C306.267 210.976 306.407 213.146 307.74 214.546C307.81 214.616 307.81 214.686 307.95 214.686C308.02 214.686 308.161 214.686 308.231 214.616C309.213 214.126 310.195 213.636 311.177 213.146C312.579 212.446 314.052 211.746 315.245 210.696C315.946 210.066 316.577 209.436 317.139 208.736C318.05 207.686 318.892 206.706 319.804 205.656C318.12 206.076 316.437 206.426 314.684 206.566C313.281 206.706 311.808 206.706 310.616 206.006C310.125 205.726 309.704 205.306 309.353 204.886C308.231 203.696 307.179 202.436 306.127 201.176" fill="#FFC8AF"/>
<path d="M306.337 212.237C306.617 213.777 307.389 215.177 308.581 216.227C308.722 216.367 308.862 216.437 309.002 216.437C309.213 216.437 309.423 216.367 309.563 216.227C314.122 213.217 318.401 209.717 322.118 205.657C322.679 205.027 323.31 204.257 323.24 203.417C323.24 203.277 323.17 203.137 323.1 203.067C323.03 202.997 322.89 202.997 322.82 202.927C321.978 202.787 321.136 203.277 320.435 203.767C319.172 204.677 317.91 205.727 316.367 206.077C315.735 206.217 315.034 206.287 314.333 206.357C314.122 206.357 313.982 206.357 313.772 206.497C313.631 206.567 313.561 206.707 313.561 206.847C313.281 207.547 313.14 208.387 313.281 209.157C313.281 209.297 313.351 209.437 313.281 209.577C313.21 209.717 313.07 209.787 312.93 209.857C310.756 210.837 308.441 211.747 306.126 211.257" fill="#100C56"/>
<path d="M285.716 180.523L289.995 212.093L283.191 213.353C283.191 213.353 276.107 195.993 276.739 189.273" fill="#28288A"/>
<path d="M254.715 204.395C254.715 204.395 276.879 172.685 282.841 174.715C288.802 176.745 307.95 202.575 307.95 202.575L303.321 208.105C303.321 208.105 286.137 196.765 282.49 189.625C282.49 189.625 265.376 236.665 242.3 219.375" fill="#28288A"/>
<path d="M242.441 162.535C240.056 164.145 239.004 166.805 238.232 169.605C237.461 172.405 236.83 174.925 236.269 179.055C235.848 182.275 236.269 184.375 236.269 187.665C236.269 192.845 237.18 198.375 237.251 203.555C237.321 208.735 238.723 217.555 242.651 219.655C246.088 217.275 245.807 213.565 249.455 211.465C252.19 209.925 252.12 208.035 253.873 206.215C255.416 204.605 256.118 203.065 256.258 202.715C257.17 200.615 257.24 198.725 257.17 198.445C256.188 189.555 257.941 185.845 254.575 177.585C253.382 174.645 251.559 171.985 250.857 168.905C250.787 168.555 250.717 168.135 250.507 167.855C250.296 167.575 249.314 166.245 248.964 166.105C246.719 164.985 244.545 163.655 242.441 162.535Z" fill="#EC827D"/>
<path d="M241.95 171.494C243.914 166.244 248.824 167.434 251.91 168.484C254.996 169.534 257.801 171.284 260.958 172.054C263.623 172.684 266.429 172.614 269.164 172.824C271.899 173.104 274.705 173.804 276.669 175.764C277.51 176.604 278.212 178.074 277.44 179.124C277.23 179.404 276.949 179.614 276.669 179.754C273.022 181.924 268.322 183.044 264.324 182.344C260.326 181.714 258.503 181.294 254.505 180.944C252.822 180.804 249.525 178.914 247.842 178.564C246.229 178.284 244.615 177.654 243.423 176.394C242.231 175.134 241.529 173.314 241.95 171.494Z" fill="#EC827D"/>
</g>
<path d="M91.2867 161.351L86.728 159.011L90.3888 147.797L94.9475 150.067L91.2867 161.351Z" fill="#FFC3BD"/>
<path d="M87.1424 157.291L92.7371 158.461C92.9443 158.53 93.0825 158.667 93.0134 158.874L92.3227 163.346C92.2536 163.827 91.701 164.171 91.2866 164.034C89.3526 163.621 88.4547 163.277 85.9682 162.795C84.4486 162.451 79.1992 161.419 77.1962 160.731C75.1931 160.043 75.9529 158.048 76.8508 158.186C80.9951 158.667 84.5177 158.254 86.1754 157.429C86.5207 157.222 86.797 157.222 87.1424 157.291Z" fill="#263238"/>
<path d="M141.156 93.168C141.156 93.168 102.062 96.952 98.8155 111.125C94.1187 131.49 87.7642 150.892 87.7642 150.892L96.5362 152.405C97.8485 146.626 107.864 126.261 112.492 112.57C123.059 110.987 151.378 116.973 155.592 108.923C159.045 102.387 158.976 95.7824 158.976 95.7824L141.156 93.168Z" fill="#272786"/>
<path opacity="0.3" d="M141.156 93.168C141.156 93.168 102.062 96.952 98.8155 111.125C94.1187 131.49 87.7642 150.892 87.7642 150.892L96.5362 152.405C97.8485 146.626 107.864 126.261 112.492 112.57C123.059 110.987 151.378 116.973 155.592 108.923C159.045 102.387 158.976 95.7824 158.976 95.7824L141.156 93.168Z" fill="black"/>
<path d="M145.369 57.5296C145.162 60.0752 144.748 62.4833 144.333 64.9601C143.919 67.4369 143.435 69.845 142.745 72.3218C142.123 74.7986 141.363 77.2066 140.327 79.6835C139.774 80.9219 139.222 82.1603 138.393 83.4675C137.979 84.0867 137.495 84.7747 136.943 85.3939C136.321 86.0131 135.63 86.7011 134.663 87.2515L134.387 87.3892L134.249 87.458C132.384 88.146 130.864 87.8708 129.621 87.5956C128.378 87.3203 127.342 86.8387 126.375 86.2883C125.408 85.7379 124.51 85.1875 123.681 84.5683C123.267 84.2243 122.852 83.9491 122.507 83.6051C122.092 83.2611 121.747 82.9171 121.333 82.5043L123.474 79.3395C124.303 79.6147 125.131 79.9587 125.96 80.1651C126.789 80.4403 127.618 80.6467 128.447 80.8531C129.207 81.0595 130.035 81.1283 130.588 81.1283C131.21 81.1283 131.624 80.9907 131.555 80.9219L131.141 81.1283C131.279 80.9907 131.831 80.3715 132.315 79.6147C132.729 78.7891 133.213 77.8946 133.558 76.8626C134.318 74.8674 134.87 72.6658 135.423 70.3954C135.906 68.1249 136.39 65.8545 136.735 63.5153C137.15 61.2449 137.426 58.8368 137.771 56.5664L145.369 57.5296Z" fill="#FFC3BD"/>
<path d="M138.531 53.7442C133.765 57.8722 134.042 67.9171 134.042 67.9171L146.612 72.458C149.306 68.33 150.55 60.4179 150.342 57.0466C149.997 51.8178 144.195 48.8593 138.531 53.7442Z" fill="#F9C53F"/>
<path opacity="0.2" d="M150.342 57.2547C148.063 56.1539 145.024 56.4979 141.915 59.1811C139.153 61.5891 138.048 65.9924 137.702 69.2948L146.612 72.4596C149.237 68.4004 150.549 60.6947 150.342 57.2547Z" fill="black"/>
<path d="M73.2588 149.31L71.7393 144.425L82.3071 138.715L83.8267 143.6L73.2588 149.31Z" fill="#FFC3BD"/>
<path d="M72.0849 144.014L75.8838 148.211C76.0219 148.348 76.0219 148.555 75.8838 148.692L72.7065 151.926C72.3611 152.27 71.7395 152.201 71.4632 151.857C70.1509 150.344 69.5983 149.587 67.9406 147.729C66.9045 146.56 63.2438 142.776 61.8624 141.262C60.4809 139.748 62.0696 138.303 62.7603 138.854C66.1448 141.262 69.4602 143.257 71.256 143.532C71.6014 143.601 71.8776 143.808 72.0849 144.014Z" fill="#263238"/>
<path d="M149.997 94.6133C149.997 94.6133 123.197 98.1909 117.671 105.484C108.071 118.212 77.6104 139.196 77.6104 139.196L80.3732 148.071C80.3732 148.071 121.885 130.665 129.206 116.079C142.744 115.047 164.778 119.45 168.3 111.125C170.58 105.553 169.475 97.2277 169.475 97.2277L149.997 94.6133Z" fill="#272786"/>
<path opacity="0.2" d="M149.997 94.6133C149.997 94.6133 123.197 98.1909 117.671 105.484C108.071 118.212 77.6104 139.196 77.6104 139.196L80.3732 148.071C80.3732 148.071 121.885 130.665 129.206 116.079C142.744 115.047 164.778 119.45 168.3 111.125C170.58 105.553 169.475 97.2277 169.475 97.2277L149.997 94.6133Z" fill="black"/>
<path d="M124.855 80.3709L120.78 76.4492L118.017 81.9533C118.017 81.9533 122.921 84.6365 124.164 83.3981L124.855 80.3709Z" fill="#FFC3BD"/>
<path d="M115.392 76.4492L114.702 80.9213L118.017 81.9533L120.78 76.4492H115.392Z" fill="#FFC3BD"/>
<path d="M169.268 50.3746C168.784 49.0674 167.817 47.6914 166.436 47.6914C166.159 47.6914 164.364 47.6914 164.018 47.7602C162.361 47.829 160.288 47.8978 158.285 48.173C154.832 48.5858 149.859 49.3426 146.889 50.1682C145.162 50.6498 143.504 51.2002 142.192 51.7506C142.192 51.7506 142.192 51.7506 142.123 51.7506C140.603 52.3699 139.636 53.8835 139.774 55.5347C140.465 62.8276 142.192 82.9862 141.156 93.4439L169.475 97.1591C171.202 91.7927 171.823 79.4774 171.892 69.4324C171.892 63.3092 171.34 55.8099 169.268 50.3746Z" fill="#F9C53F"/>
<path opacity="0.2" d="M171.754 64.2031L171.202 64.2719L167.61 67.368L163.88 80.0961L151.102 82.2977C154.21 83.8801 163.189 84.1553 168.577 82.7793C170.373 82.2977 171.616 80.7153 171.685 78.8577C171.823 75.6929 171.892 72.4592 171.892 69.432C171.892 67.712 171.823 65.9919 171.754 64.2031Z" fill="black"/>
<path d="M125.891 68.3317C125.891 68.3317 128.378 66.9557 133.074 68.2629C137.771 69.5701 141.018 68.0565 141.018 68.0565L142.744 71.2901L126.858 71.8405L125.891 68.3317Z" fill="#272786"/>
<path opacity="0.8" d="M125.891 68.3317C125.891 68.3317 128.378 66.9557 133.074 68.2629C137.771 69.5701 141.018 68.0565 141.018 68.0565L142.744 71.2901L126.858 71.8405L125.891 68.3317Z" fill="white"/>
<path d="M125.891 68.3326C125.891 68.3326 125.822 67.3005 122.783 67.2317C116.705 67.0253 114.149 65.5117 114.149 65.5117L113.873 67.0941L126.858 71.9102L125.891 68.3326Z" fill="#272786"/>
<path opacity="0.8" d="M125.891 68.3326C125.891 68.3326 125.822 67.3005 122.783 67.2317C116.705 67.0253 114.149 65.5117 114.149 65.5117L113.873 67.0941L126.858 71.9102L125.891 68.3326Z" fill="white"/>
<path d="M131.002 91.5891L119.813 88.4242C119.537 88.3554 119.329 88.0802 119.191 87.805L113.458 67.0272C113.32 66.5456 113.666 66.2016 114.149 66.3392L124.855 69.3664L131.002 91.5891Z" fill="#272786"/>
<path d="M148.477 92.5522L133.696 91.7266L127.549 69.5039L142.537 70.3295C142.883 70.3295 143.159 70.6047 143.297 70.9487L149.099 91.7954C149.168 92.2082 148.892 92.5522 148.477 92.5522Z" fill="#272786"/>
<path d="M131.002 91.5898L133.696 91.7274L127.549 69.5048L124.855 69.3672L131.002 91.5898Z" fill="#272786"/>
<path opacity="0.3" d="M131.002 91.5898L133.696 91.7274L127.549 69.5048L124.855 69.3672L131.002 91.5898Z" fill="black"/>
<path d="M170.649 55.3984C170.787 56.3616 170.926 57.2561 170.926 58.1505C170.995 59.0449 171.064 59.9393 171.064 60.8337C171.133 62.6225 171.133 64.4113 170.995 66.2002C170.787 69.7778 170.235 73.4242 168.992 77.0019C168.992 77.0707 168.853 77.3459 168.784 77.5523C168.715 77.7587 168.577 77.9651 168.439 78.1715C168.232 78.5843 167.955 78.9283 167.679 79.2723C167.127 79.8915 166.505 80.3731 165.952 80.7171C164.847 81.4051 163.811 81.7491 162.844 82.0243C160.91 82.5747 159.045 82.7811 157.249 82.8499C153.658 83.0563 150.204 82.7811 146.682 82.2307L146.889 78.4467C150.135 78.1027 153.451 77.6899 156.559 77.0707C158.078 76.7955 159.598 76.3827 160.841 75.8323C161.463 75.5571 162.015 75.2819 162.292 75.0067C162.43 74.8691 162.499 74.8003 162.499 74.8003C162.499 74.8003 162.43 74.8003 162.43 74.8691L162.361 74.9379C162.292 75.0755 162.361 74.9379 162.361 74.9379C162.706 73.493 162.913 72.0482 163.121 70.4658C163.259 68.9522 163.397 67.3698 163.397 65.7874C163.397 64.2049 163.397 62.6225 163.328 61.0401C163.328 60.2833 163.259 59.4577 163.19 58.7009L163.121 57.5313L163.051 56.4304L170.649 55.3984Z" fill="#FFC3BD"/>
<path d="M170.649 49.3437C167.264 46.7981 162.637 46.8669 160.772 53.6094C159.528 58.0126 160.219 66.8879 160.219 66.8879L173.619 66.6127C175.069 59.5262 174.033 51.8893 170.649 49.3437Z" fill="#F9C53F"/>
<path d="M156.904 36.8906L154.072 40.1931L150.204 44.6651C150.411 45.2155 150.619 45.8347 150.826 46.4539C151.517 48.862 149.306 49.3436 147.372 50.5132C147.372 50.5132 144.402 54.4348 151.517 53.2652C158.562 52.1644 159.598 48.4492 159.598 48.4492C156.49 46.3163 156.697 41.0187 156.904 36.8906Z" fill="#FFC3BD"/>
<path d="M153.727 52.8516C153.105 53.058 152.345 53.1956 151.516 53.3332C150.273 53.5396 149.306 53.5396 148.615 53.5396L148.477 54.3652C148.201 54.5716 148.132 55.5348 149.789 56.6356C151.447 56.2228 154.141 54.778 153.727 52.8516Z" fill="#F2F2F2"/>
<path d="M158.423 47.2773C158.423 47.2773 157.111 50.855 152.207 52.1622C152.898 54.0886 151.792 56.2214 151.792 56.2214C151.792 56.2214 158.561 53.8822 160.012 51.6118C161.462 49.2726 160.841 47.9654 160.841 47.9654C160.081 47.5525 159.321 47.3461 158.423 47.2773Z" fill="white"/>
<path d="M148.823 56.0147C148.823 56.0147 148.892 53.0562 149.72 52.093C149.237 50.7858 149.513 50.029 150.204 48.8594C149.168 49.1346 147.51 49.685 146.543 51.2674C145.576 52.781 146.198 56.0835 148.823 56.0147Z" fill="white"/>
<path opacity="0.2" d="M150.273 44.7338C150.48 45.2842 150.687 45.9034 150.895 46.5226C152.483 45.9034 154.417 43.7018 154.348 41.9817C154.348 41.2937 154.21 40.6745 154.141 40.2617L150.273 44.7338Z" fill="black"/>
<path d="M140.88 29.0474C139.567 31.8683 140.672 38.4731 147.027 35.7899C153.381 33.1755 143.09 24.5066 140.88 29.0474Z" fill="#263238"/>
<path d="M154.763 34.8247C154.21 36.0632 154.694 38.884 157.387 37.7832C160.15 36.6136 155.73 32.8295 154.763 34.8247Z" fill="#263238"/>
<path d="M155.522 36.7539C154.624 37.7859 154.348 40.6755 157.249 40.2627C160.219 39.9187 156.973 35.1026 155.522 36.7539Z" fill="#263238"/>
<path d="M156.213 29.1845C157.387 34.4822 158.285 37.5782 156.42 41.0871C153.589 46.3847 146.543 45.9719 143.85 41.1559C141.432 36.8214 139.982 28.8405 144.471 25.1253C148.892 21.5477 155.108 23.8869 156.213 29.1845Z" fill="#FFC3BD"/>
<path d="M155.315 22.9921C154.21 18.2449 147.856 19.8961 144.609 22.7857C141.294 25.6754 140.534 27.877 137.771 29.597C142.814 30.285 149.997 28.2898 151.309 26.5698C151.171 28.2898 152.484 30.285 153.52 30.9042C153.382 32.4178 153.52 35.3763 153.52 35.3763L155.799 34.2067L158.493 33.1059C162.43 26.4322 160.081 22.3041 155.315 22.9921Z" fill="#263238"/>
<path d="M159.46 33.3106C159.114 34.8242 158.147 35.9938 157.18 36.6818C155.661 37.7138 154.487 36.4066 154.556 34.6866C154.625 33.1041 155.454 30.6273 157.111 30.3521C158.769 30.0081 159.805 31.5905 159.46 33.3106Z" fill="#FFC3BD"/>
<path d="M142.862 36.0352C142.862 36.0352 142.793 38.3744 142.241 39.7504C143.07 40.0944 144.037 39.4064 144.037 39.4064L142.862 36.0352Z" fill="#FFC3BD"/>
<path d="M148.27 78.6506L143.918 76.793L144.057 82.297C144.057 82.297 148.339 84.017 149.03 81.7466L148.27 78.6506Z" fill="#FFC3BD"/>
<path d="M138.531 78.0329L139.498 81.9545L144.126 82.2985L143.919 76.8633L138.531 78.0329Z" fill="#FFC3BD"/>
<ellipse cx="274.24" cy="84.5014" rx="22" ry="12.5" transform="rotate(20.275 274.24 84.5014)" fill="#F1F3F7"/>
<path d="M209.307 45.31C182.146 40.2799 170.504 30.374 174.779 16.7491C177.729 7.35039 200.412 6.49475 223.678 12.3676C237.512 15.8596 261.54 10.4413 277.713 7.69248C290.923 5.44725 325.245 14.096 321.203 26.6203C317.161 39.1445 292.068 50.8894 274.707 52.2784C257.347 53.6674 229.354 49.0229 209.307 45.31Z" fill="#F1F3F7"/>
<path d="M36.4316 64H33.1094V55.4702H24.5269V64H21.1914V44.8047H24.5269V52.7939H33.1094V44.8047H36.4316V64ZM51.9087 59.5308H44.4731L42.9174 64H39.4502L46.7011 44.8047H49.6938L56.958 64H53.4775L51.9087 59.5308ZM45.4091 56.8413H50.9726L48.1909 48.8784L45.4091 56.8413ZM59.6864 64V44.8047H65.3554C67.0517 44.8047 68.5546 45.1826 69.8642 45.9385C71.1825 46.6943 72.2021 47.7666 72.9228 49.1553C73.6435 50.5439 74.0038 52.1348 74.0038 53.9277V54.8901C74.0038 56.7095 73.6391 58.3091 72.9096 59.689C72.1889 61.0688 71.1562 62.1323 69.8114 62.8794C68.4755 63.6265 66.9418 64 65.2104 64H59.6864ZM63.0219 47.4941V61.3369H65.1972C66.9462 61.3369 68.2865 60.792 69.2182 59.7021C70.1586 58.6035 70.6376 57.0303 70.6552 54.9824V53.9146C70.6552 51.8315 70.2026 50.2407 69.2973 49.1421C68.392 48.0435 67.078 47.4941 65.3554 47.4941H63.0219ZM81.3861 64H78.0638V44.8047H81.3861V64Z" fill="#F7707C"/>
<path d="M184.283 87.5156L189.615 101.684L194.935 87.5156H199.086V106H195.887V99.9062L196.204 91.7559L190.745 106H188.447L183.001 91.7686L183.318 99.9062V106H180.119V87.5156H184.283ZM209.927 101.976L214.624 87.5156H218.154L211.501 106H208.391L201.764 87.5156H205.281L209.927 101.976ZM223.98 99.1318V106H220.769V87.5156H227.84C229.905 87.5156 231.543 88.0531 232.753 89.1279C233.972 90.2028 234.581 91.6247 234.581 93.3936C234.581 95.2048 233.984 96.6139 232.791 97.6211C231.606 98.6283 229.943 99.1318 227.802 99.1318H223.98ZM223.98 96.5547H227.84C228.982 96.5547 229.854 96.2881 230.455 95.7549C231.056 95.2132 231.356 94.4346 231.356 93.4189C231.356 92.4202 231.052 91.6247 230.442 91.0322C229.833 90.4313 228.995 90.1224 227.929 90.1055H223.98V96.5547Z" fill="#5573C1"/>
<path d="M206.224 35.0562C206.224 34.2124 205.925 33.562 205.328 33.105C204.739 32.6479 203.671 32.1865 202.124 31.7207C200.577 31.2549 199.347 30.7363 198.433 30.165C196.684 29.0664 195.809 27.6338 195.809 25.8672C195.809 24.3203 196.438 23.0459 197.694 22.0439C198.96 21.042 200.599 20.541 202.612 20.541C203.948 20.541 205.139 20.7871 206.185 21.2793C207.23 21.7715 208.052 22.4746 208.65 23.3887C209.248 24.2939 209.546 25.3003 209.546 26.4077H206.224C206.224 25.4058 205.908 24.6235 205.275 24.061C204.651 23.4897 203.754 23.2041 202.585 23.2041C201.496 23.2041 200.647 23.437 200.041 23.9028C199.443 24.3687 199.145 25.019 199.145 25.854C199.145 26.5571 199.47 27.146 200.12 27.6206C200.771 28.0864 201.843 28.5435 203.337 28.9917C204.831 29.4312 206.031 29.9365 206.936 30.5078C207.841 31.0703 208.505 31.7207 208.927 32.459C209.349 33.1885 209.56 34.0454 209.56 35.0298C209.56 36.6294 208.944 37.9038 207.714 38.853C206.492 39.7935 204.831 40.2637 202.73 40.2637C201.342 40.2637 200.063 40.0088 198.894 39.499C197.734 38.9805 196.829 38.2686 196.178 37.3633C195.537 36.458 195.216 35.4033 195.216 34.1992H198.551C198.551 35.2891 198.912 36.1328 199.632 36.7305C200.353 37.3281 201.386 37.627 202.73 37.627C203.891 37.627 204.761 37.394 205.341 36.9282C205.93 36.4536 206.224 35.8296 206.224 35.0562ZM217.351 20.8047L222.888 35.5176L228.412 20.8047H232.723V40H229.4V33.6719L229.73 25.208L224.061 40H221.675L216.019 25.2212L216.349 33.6719V40H213.026V20.8047H217.351ZM248.2 35.5308H240.764L239.208 40H235.741L242.992 20.8047H245.985L253.249 40H249.768L248.2 35.5308ZM241.7 32.8413H247.264L244.482 24.8784L241.7 32.8413ZM263.031 32.604H259.313V40H255.977V20.8047H262.727C264.942 20.8047 266.652 21.3013 267.856 22.2944C269.06 23.2876 269.662 24.7246 269.662 26.6055C269.662 27.8887 269.35 28.9653 268.726 29.8354C268.111 30.6968 267.249 31.3604 266.142 31.8262L270.453 39.8286V40H266.88L263.031 32.604ZM259.313 29.9277H262.741C263.866 29.9277 264.745 29.6465 265.377 29.084C266.01 28.5127 266.327 27.7349 266.327 26.7505C266.327 25.7222 266.032 24.9268 265.443 24.3643C264.863 23.8018 263.993 23.5117 262.833 23.4941H259.313V29.9277ZM286.576 23.4941H280.591V40H277.282V23.4941H271.349V20.8047H286.576V23.4941Z" fill="#5A85E8"/>
<path d="M123.241 18.0249C123.241 16.7122 120.764 15.5636 117.131 15.0713C116.8 11.4613 115.644 9 114.323 9C113.002 9 111.846 11.4613 111.351 15.0713C107.718 15.3995 105.241 16.5481 105.241 17.8608C105.241 19.1736 107.718 20.3222 111.351 20.8145C111.681 24.4244 112.837 26.8858 114.158 26.8858C115.479 26.8858 116.635 24.4244 117.131 20.8145C120.599 20.3222 123.241 19.3377 123.241 18.0249Z" fill="#9FADF0"/>
<path d="M318.241 64.0332C318.241 62.283 314.938 60.7514 310.094 60.0951C309.654 55.2818 308.112 52 306.351 52C304.589 52 303.048 55.2818 302.388 60.0951C297.543 60.5327 294.241 62.0642 294.241 63.8144C294.241 65.5647 297.543 67.0963 302.388 67.7526C302.828 72.5659 304.369 75.8477 306.131 75.8477C307.892 75.8477 309.433 72.5659 310.094 67.7526C314.718 67.0963 318.241 65.7835 318.241 64.0332Z" fill="#9FADF0"/>
<path d="M44.2407 107.033C44.2407 105.283 40.938 103.751 36.0939 103.095C35.6536 98.2818 34.1123 95 32.3508 95C30.5893 95 29.0481 98.2818 28.3875 103.095C23.5435 103.533 20.2407 105.064 20.2407 106.814C20.2407 108.565 23.5435 110.096 28.3875 110.753C28.8279 115.566 30.3692 118.848 32.1306 118.848C33.8921 118.848 35.4334 115.566 36.0939 110.753C40.7178 110.096 44.2407 108.784 44.2407 107.033Z" fill="#FFE48F"/>
<rect x="201.241" y="60.3945" width="9.04116" height="9.04116" transform="rotate(-45 201.241 60.3945)" fill="#E02287" fill-opacity="0.6"/>
<defs>
<linearGradient id="paint0_linear_1124_319" x1="35.4751" y1="48.0363" x2="35.4941" y2="48.2604" gradientUnits="userSpaceOnUse">
<stop stop-color="#7763F7"/>
<stop offset="0.248" stop-color="#6F72F7"/>
<stop offset="0.3371" stop-color="#6C79F7"/>
<stop offset="0.7628" stop-color="#5B9EF8"/>
<stop offset="1" stop-color="#50B5F8"/>
</linearGradient>
<linearGradient id="paint1_linear_1124_319" x1="281.773" y1="200.828" x2="306.39" y2="212.332" gradientUnits="userSpaceOnUse">
<stop stop-color="#4F6AD9"/>
<stop offset="1" stop-color="#658BFD"/>
</linearGradient>
<linearGradient id="paint2_linear_1124_319" x1="268.183" y1="197.448" x2="287.55" y2="183.625" gradientUnits="userSpaceOnUse">
<stop stop-color="#4869D8"/>
<stop offset="1" stop-color="#658BFD"/>
</linearGradient>
<linearGradient id="paint3_linear_1124_319" x1="289.56" y1="202.796" x2="280.39" y2="190.087" gradientUnits="userSpaceOnUse">
<stop stop-color="#8DAEFF"/>
<stop offset="1" stop-color="#8DAEFF" stop-opacity="0"/>
</linearGradient>
<linearGradient id="paint4_linear_1124_319" x1="258.168" y1="203.928" x2="285.851" y2="215.009" gradientUnits="userSpaceOnUse">
<stop stop-color="#546AEA"/>
<stop offset="1" stop-color="#658BFD"/>
</linearGradient>
<linearGradient id="paint5_linear_1124_319" x1="274.01" y1="223.516" x2="274.108" y2="213.215" gradientUnits="userSpaceOnUse">
<stop stop-color="#8DAEFF"/>
<stop offset="1" stop-color="#8DAEFF" stop-opacity="0"/>
</linearGradient>
<linearGradient id="paint6_linear_1124_319" x1="262.01" y1="184.432" x2="280.825" y2="168.945" gradientUnits="userSpaceOnUse">
<stop stop-color="#546AEA"/>
<stop offset="1" stop-color="#658BFD"/>
</linearGradient>
<linearGradient id="paint7_linear_1124_319" x1="281.392" y1="186.514" x2="275.44" y2="177.7" gradientUnits="userSpaceOnUse">
<stop stop-color="#8DAEFF"/>
<stop offset="1" stop-color="#8DAEFF" stop-opacity="0"/>
</linearGradient>
<linearGradient id="paint8_linear_1124_319" x1="280.647" y1="118.796" x2="291.56" y2="115.896" gradientUnits="userSpaceOnUse">
<stop stop-color="#546AEA"/>
<stop offset="1" stop-color="#658BFD"/>
</linearGradient>
<linearGradient id="paint9_linear_1124_319" x1="276.352" y1="119.504" x2="281.838" y2="118.047" gradientUnits="userSpaceOnUse">
<stop stop-color="#546AEA"/>
<stop offset="1" stop-color="#658BFD"/>
</linearGradient>
<linearGradient id="paint10_linear_1124_319" x1="278.71" y1="126.503" x2="296.117" y2="121.878" gradientUnits="userSpaceOnUse">
<stop stop-color="#546AEA"/>
<stop offset="1" stop-color="#658BFD"/>
</linearGradient>
<linearGradient id="paint11_linear_1124_319" x1="274.406" y1="132.003" x2="292.575" y2="127.176" gradientUnits="userSpaceOnUse">
<stop stop-color="#546AEA"/>
<stop offset="1" stop-color="#658BFD"/>
</linearGradient>
<linearGradient id="paint12_linear_1124_319" x1="268.846" y1="137.804" x2="287.459" y2="132.858" gradientUnits="userSpaceOnUse">
<stop stop-color="#546AEA"/>
<stop offset="1" stop-color="#658BFD"/>
</linearGradient>
<linearGradient id="paint13_linear_1124_319" x1="263.941" y1="144.094" x2="282.306" y2="139.215" gradientUnits="userSpaceOnUse">
<stop stop-color="#546AEA"/>
<stop offset="1" stop-color="#658BFD"/>
</linearGradient>
<linearGradient id="paint14_linear_1124_319" x1="271.492" y1="124.291" x2="275.458" y2="123.237" gradientUnits="userSpaceOnUse">
<stop stop-color="#546AEA"/>
<stop offset="1" stop-color="#658BFD"/>
</linearGradient>
<linearGradient id="paint15_linear_1124_319" x1="265.204" y1="128.945" x2="268.625" y2="128.036" gradientUnits="userSpaceOnUse">
<stop stop-color="#546AEA"/>
<stop offset="1" stop-color="#658BFD"/>
</linearGradient>
<linearGradient id="paint16_linear_1124_319" x1="259.511" y1="133.357" x2="262.247" y2="132.63" gradientUnits="userSpaceOnUse">
<stop stop-color="#546AEA"/>
<stop offset="1" stop-color="#658BFD"/>
</linearGradient>
<linearGradient id="paint17_linear_1124_319" x1="285.334" y1="145.909" x2="296.101" y2="149.206" gradientUnits="userSpaceOnUse">
<stop stop-color="#546AEA"/>
<stop offset="1" stop-color="#658BFD"/>
</linearGradient>
<linearGradient id="paint18_linear_1124_319" x1="281.137" y1="144.863" x2="286.548" y2="146.52" gradientUnits="userSpaceOnUse">
<stop stop-color="#546AEA"/>
<stop offset="1" stop-color="#658BFD"/>
</linearGradient>
<linearGradient id="paint19_linear_1124_319" x1="279.454" y1="152.001" x2="296.627" y2="157.26" gradientUnits="userSpaceOnUse">
<stop stop-color="#546AEA"/>
<stop offset="1" stop-color="#658BFD"/>
</linearGradient>
<linearGradient id="paint20_linear_1124_319" x1="272.661" y1="155.206" x2="290.586" y2="160.695" gradientUnits="userSpaceOnUse">
<stop stop-color="#546AEA"/>
<stop offset="1" stop-color="#658BFD"/>
</linearGradient>
<linearGradient id="paint21_linear_1124_319" x1="264.589" y1="158.19" x2="282.953" y2="163.813" gradientUnits="userSpaceOnUse">
<stop stop-color="#546AEA"/>
<stop offset="1" stop-color="#658BFD"/>
</linearGradient>
<linearGradient id="paint22_linear_1124_319" x1="256.836" y1="161.863" x2="274.954" y2="167.411" gradientUnits="userSpaceOnUse">
<stop stop-color="#546AEA"/>
<stop offset="1" stop-color="#658BFD"/>
</linearGradient>
<linearGradient id="paint23_linear_1124_319" x1="274.235" y1="147.218" x2="278.147" y2="148.416" gradientUnits="userSpaceOnUse">
<stop stop-color="#546AEA"/>
<stop offset="1" stop-color="#658BFD"/>
</linearGradient>
<linearGradient id="paint24_linear_1124_319" x1="266.137" y1="148.899" x2="269.511" y2="149.932" gradientUnits="userSpaceOnUse">
<stop stop-color="#546AEA"/>
<stop offset="1" stop-color="#658BFD"/>
</linearGradient>
<linearGradient id="paint25_linear_1124_319" x1="258.697" y1="150.594" x2="261.396" y2="151.421" gradientUnits="userSpaceOnUse">
<stop stop-color="#546AEA"/>
<stop offset="1" stop-color="#658BFD"/>
</linearGradient>
<linearGradient id="paint26_linear_1124_319" x1="263.54" y1="173.26" x2="265.915" y2="153.536" gradientUnits="userSpaceOnUse">
<stop stop-color="#566DEC"/>
<stop offset="1" stop-color="#658BFD"/>
</linearGradient>
<linearGradient id="paint27_linear_1124_319" x1="274.675" y1="169.817" x2="266.525" y2="163.354" gradientUnits="userSpaceOnUse">
<stop stop-color="#8DAEFF"/>
<stop offset="1" stop-color="#8DAEFF" stop-opacity="0"/>
</linearGradient>
<linearGradient id="paint28_linear_1124_319" x1="53.4681" y1="207.873" x2="33.2151" y2="217.004" gradientUnits="userSpaceOnUse">
<stop stop-color="#4F6AD9"/>
<stop offset="1" stop-color="#658BFD"/>
</linearGradient>
<linearGradient id="paint29_linear_1124_319" x1="64.6503" y1="205.397" x2="48.4545" y2="194.043" gradientUnits="userSpaceOnUse">
<stop stop-color="#4869D8"/>
<stop offset="1" stop-color="#658BFD"/>
</linearGradient>
<linearGradient id="paint30_linear_1124_319" x1="46.9855" y1="209.896" x2="54.7423" y2="199.336" gradientUnits="userSpaceOnUse">
<stop stop-color="#8DAEFF"/>
<stop offset="1" stop-color="#8DAEFF" stop-opacity="0"/>
</linearGradient>
<linearGradient id="paint31_linear_1124_319" x1="72.925" y1="210.842" x2="49.9384" y2="219.88" gradientUnits="userSpaceOnUse">
<stop stop-color="#546AEA"/>
<stop offset="1" stop-color="#658BFD"/>
</linearGradient>
<linearGradient id="paint32_linear_1124_319" x1="59.8345" y1="227.321" x2="59.7502" y2="218.655" gradientUnits="userSpaceOnUse">
<stop stop-color="#8DAEFF"/>
<stop offset="1" stop-color="#8DAEFF" stop-opacity="0"/>
</linearGradient>
<linearGradient id="paint33_linear_1124_319" x1="69.7505" y1="194.444" x2="53.9792" y2="181.693" gradientUnits="userSpaceOnUse">
<stop stop-color="#546AEA"/>
<stop offset="1" stop-color="#658BFD"/>
</linearGradient>
<linearGradient id="paint34_linear_1124_319" x1="53.7347" y1="196.195" x2="58.775" y2="188.864" gradientUnits="userSpaceOnUse">
<stop stop-color="#8DAEFF"/>
<stop offset="1" stop-color="#8DAEFF" stop-opacity="0"/>
</linearGradient>
<linearGradient id="paint35_linear_1124_319" x1="54.3505" y1="139.225" x2="45.3119" y2="136.867" gradientUnits="userSpaceOnUse">
<stop stop-color="#546AEA"/>
<stop offset="1" stop-color="#658BFD"/>
</linearGradient>
<linearGradient id="paint36_linear_1124_319" x1="57.8992" y1="139.82" x2="53.3559" y2="138.634" gradientUnits="userSpaceOnUse">
<stop stop-color="#546AEA"/>
<stop offset="1" stop-color="#658BFD"/>
</linearGradient>
<linearGradient id="paint37_linear_1124_319" x1="55.9505" y1="145.706" x2="41.5332" y2="141.943" gradientUnits="userSpaceOnUse">
<stop stop-color="#546AEA"/>
<stop offset="1" stop-color="#658BFD"/>
</linearGradient>
<linearGradient id="paint38_linear_1124_319" x1="59.5074" y1="150.336" x2="44.459" y2="146.409" gradientUnits="userSpaceOnUse">
<stop stop-color="#546AEA"/>
<stop offset="1" stop-color="#658BFD"/>
</linearGradient>
<linearGradient id="paint39_linear_1124_319" x1="64.1016" y1="155.216" x2="48.6851" y2="151.193" gradientUnits="userSpaceOnUse">
<stop stop-color="#546AEA"/>
<stop offset="1" stop-color="#658BFD"/>
</linearGradient>
<linearGradient id="paint40_linear_1124_319" x1="68.1552" y1="160.507" x2="52.9443" y2="156.537" gradientUnits="userSpaceOnUse">
<stop stop-color="#546AEA"/>
<stop offset="1" stop-color="#658BFD"/>
</linearGradient>
<linearGradient id="paint41_linear_1124_319" x1="61.9154" y1="143.848" x2="58.6309" y2="142.991" gradientUnits="userSpaceOnUse">
<stop stop-color="#546AEA"/>
<stop offset="1" stop-color="#658BFD"/>
</linearGradient>
<linearGradient id="paint42_linear_1124_319" x1="67.1112" y1="147.763" x2="64.2785" y2="147.024" gradientUnits="userSpaceOnUse">
<stop stop-color="#546AEA"/>
<stop offset="1" stop-color="#658BFD"/>
</linearGradient>
<linearGradient id="paint43_linear_1124_319" x1="71.8161" y1="151.475" x2="69.5496" y2="150.883" gradientUnits="userSpaceOnUse">
<stop stop-color="#546AEA"/>
<stop offset="1" stop-color="#658BFD"/>
</linearGradient>
<linearGradient id="paint44_linear_1124_319" x1="50.4768" y1="162.042" x2="41.5534" y2="164.726" gradientUnits="userSpaceOnUse">
<stop stop-color="#546AEA"/>
<stop offset="1" stop-color="#658BFD"/>
</linearGradient>
<linearGradient id="paint45_linear_1124_319" x1="53.9455" y1="161.159" x2="49.4604" y2="162.508" gradientUnits="userSpaceOnUse">
<stop stop-color="#546AEA"/>
<stop offset="1" stop-color="#658BFD"/>
</linearGradient>
<linearGradient id="paint46_linear_1124_319" x1="55.3354" y1="167.165" x2="41.1017" y2="171.446" gradientUnits="userSpaceOnUse">
<stop stop-color="#546AEA"/>
<stop offset="1" stop-color="#658BFD"/>
</linearGradient>
<linearGradient id="paint47_linear_1124_319" x1="60.9492" y1="169.859" x2="46.0923" y2="174.328" gradientUnits="userSpaceOnUse">
<stop stop-color="#546AEA"/>
<stop offset="1" stop-color="#658BFD"/>
</linearGradient>
<linearGradient id="paint48_linear_1124_319" x1="67.6187" y1="172.37" x2="52.3986" y2="176.948" gradientUnits="userSpaceOnUse">
<stop stop-color="#546AEA"/>
<stop offset="1" stop-color="#658BFD"/>
</linearGradient>
<linearGradient id="paint49_linear_1124_319" x1="74.0266" y1="175.463" x2="59.009" y2="179.98" gradientUnits="userSpaceOnUse">
<stop stop-color="#546AEA"/>
<stop offset="1" stop-color="#658BFD"/>
</linearGradient>
<linearGradient id="paint50_linear_1124_319" x1="59.6484" y1="163.141" x2="56.406" y2="164.117" gradientUnits="userSpaceOnUse">
<stop stop-color="#546AEA"/>
<stop offset="1" stop-color="#658BFD"/>
</linearGradient>
<linearGradient id="paint51_linear_1124_319" x1="66.3405" y1="164.553" x2="63.544" y2="165.394" gradientUnits="userSpaceOnUse">
<stop stop-color="#546AEA"/>
<stop offset="1" stop-color="#658BFD"/>
</linearGradient>
<linearGradient id="paint52_linear_1124_319" x1="72.4883" y1="165.98" x2="70.2509" y2="166.653" gradientUnits="userSpaceOnUse">
<stop stop-color="#546AEA"/>
<stop offset="1" stop-color="#658BFD"/>
</linearGradient>
<linearGradient id="paint53_linear_1124_319" x1="68.4862" y1="185.046" x2="66.453" y2="168.461" gradientUnits="userSpaceOnUse">
<stop stop-color="#566DEC"/>
<stop offset="1" stop-color="#658BFD"/>
</linearGradient>
<linearGradient id="paint54_linear_1124_319" x1="59.2848" y1="182.15" x2="66.1124" y2="176.832" gradientUnits="userSpaceOnUse">
<stop stop-color="#8DAEFF"/>
<stop offset="1" stop-color="#8DAEFF" stop-opacity="0"/>
</linearGradient>
<clipPath id="clip0_1124_319">
<rect width="101" height="91" fill="white" transform="translate(222.241 138.035)"/>
</clipPath>
</defs>
</svg>
