<svg width="358" height="259" viewBox="0 0 358 259" fill="none" xmlns="http://www.w3.org/2000/svg">
<path fill-rule="evenodd" clip-rule="evenodd" d="M68.7265 152.609C78.7568 150.818 89.0727 149.389 98.6743 147.055C110.761 143.989 120.923 139.779 134.591 138.534C143.65 137.729 153.401 138.263 162.884 138.088C173.134 137.869 183.393 137.477 193.776 137.612C194.386 137.645 195 137.592 195.609 137.625C198.813 137.714 202.017 137.803 205.221 137.891C205.831 137.924 206.44 137.958 207.05 137.991C207.659 138.024 208.268 138.058 208.878 138.091C209.487 138.124 210.249 138.166 210.858 138.199C250.321 140.272 291.838 146.702 323.393 162.034C328.007 164.28 332.602 166.871 335.032 169.95C337.027 172.573 337.476 175.544 338.387 178.453C339.431 181.717 334.087 168.906 338.386 171.307C344.324 174.492 340.5 177.5 343.5 186.447C339.5 204.5 320.418 222.013 297.364 230.025C265.129 241.087 226.188 246.236 188.055 247.79C166.77 248.618 145.094 248.213 123.646 246.433C118.475 245.977 113.457 245.529 108.296 244.9C103.44 244.287 98.6029 243.33 93.723 243.149C81.521 242.742 68.6424 240.737 57.0203 238.108C49.3214 236.387 37.8186 234.371 34.7317 229.35C33.7503 227.736 32.6072 226.287 30.7023 224.796C28.0687 222.659 23.6648 222.158 20.2222 220.843C16.3321 219.33 12.9226 217.411 10.2938 215.187C6.49818 211.946 4.55911 208.287 3.69593 204.514C2.18444 198.625 1.62956 192.008 4.53143 186.448C7.43802 180.8 12.7586 175.718 19.2648 171.308C30.6923 163.527 44.9341 157.374 61.9287 153.97C64.0993 153.396 66.413 153.002 68.7265 152.609Z" fill="#F1F3F7"/>
<path fill-rule="evenodd" clip-rule="evenodd" d="M23.9929 207.89C15.1778 194.053 11.8341 177.749 13.3539 161.994C14.1139 153.774 16.3936 145.28 20.0413 137.745C23.5369 130.621 28.2485 123.908 27.9445 115.688C27.4885 107.604 22.3211 99.6583 25.0568 92.1232C30.3763 78.149 53.934 77.738 66.5487 72.2579C84.483 64.5858 88.7386 49.1046 98.1617 34.9935C107.585 20.8823 121.871 9.23712 139.046 3.62005C156.22 -1.99702 176.13 -1.17501 192.089 6.77109C199.84 10.7441 204.855 15.6762 208.807 22.8003C211.847 28.2804 214.734 34.1714 220.206 37.3225C227.045 41.5695 235.708 40.1995 243.611 40.8845C261.394 42.2546 279.176 47.8716 292.551 58.6948C299.086 63.9008 304.102 70.3399 307.597 77.601C310.941 84.5881 312.765 92.6712 317.78 99.1103C322.796 105.138 330.547 108.974 335.259 115.276C341.338 123.497 336.17 132.539 337.538 141.581C339.666 155.966 352.737 175.831 341.49 189.531C336.93 195.012 330.243 194.464 323.404 194.327C314.437 194.327 304.71 193.779 296.046 191.175C288.599 188.983 281.304 186.38 273.553 186.106C267.777 185.832 262.002 185.558 256.074 185.421C252.275 185.421 248.475 186.38 244.675 186.654C236.924 187.339 228.869 188.161 221.118 188.846C203.639 190.49 186.161 192.134 168.683 193.779C135.398 196.93 101.961 200.081 68.5246 203.232C57.7336 204.191 46.9427 205.287 36.1517 206.246C35.2398 206.794 24.4488 208.438 23.9929 207.89Z" fill="#F1F3F7"/>
<path fill-rule="evenodd" clip-rule="evenodd" d="M68.3527 25.8574C65.0371 31.4883 68.0513 36.6747 74.8332 36.971C81.1631 37.4156 88.0957 32.6738 91.2606 27.4874C93.0692 24.5238 94.2748 18.8929 90.6578 16.6702C89.4521 15.9292 87.945 15.9292 86.4379 16.0774C79.656 16.3738 71.9697 19.782 68.3527 25.8574Z" fill="#EDEEF7"/>
<path fill-rule="evenodd" clip-rule="evenodd" d="M221.882 3C222.459 3 222.892 3 223.469 3.16036C227.222 4.44321 226.356 10.0557 223.758 12.3007C222.17 13.5836 220.582 12.9422 219.283 11.6593C216.541 8.77287 218.562 3.32071 221.882 3Z" fill="#EDEEF7"/>
<path d="M257.947 133.516H255.391V208.542H257.947V133.516Z" fill="#3C3C6D"/>
<path d="M176.717 156.535H171.354V163.901H176.717V156.535Z" fill="#303030"/>
<path d="M176.273 158.555H171.603V194.341H176.273V158.555Z" fill="#56585E"/>
<path d="M199.355 201.124L177 189.242V194.643L193.034 201.124V202.31H199.355V201.124Z" fill="#0A2126"/>
<path d="M177 194.644H170.946V189.243V184.887H177V194.644Z" fill="#0A2126"/>
<path d="M148.592 201.124L170.946 189.242V194.643L154.93 201.124V202.31H148.592V201.124Z" fill="#0A2126"/>
<path d="M171.94 189.242V202.31H170.431V203.231H177.001V202.31H175.616L176.06 189.242H171.94Z" fill="#0A2126"/>
<path d="M183.748 138.508H161.536L155.445 100.827C154.345 94.0625 159.582 87.918 166.454 87.918H178.829C185.701 87.918 190.939 94.0625 189.838 100.827L183.748 138.508Z" fill="#004555"/>
<path d="M158.517 119.809L149.391 123.421L155.001 146.671L157.452 146.317L154.753 126.059L159.6 123.97L158.517 119.809Z" fill="#282859"/>
<path d="M186.18 119.809L193.975 125.209L192.679 147.875L189.536 147.291L190.637 127.742L184.387 124.094L186.18 119.809Z" fill="#282859"/>
<path d="M196.318 150.425H154.753V146.316H192.199C194.472 146.316 196.318 148.158 196.318 150.425Z" fill="#56548C"/>
<path d="M182.487 72.4957C182.487 72.4957 181.599 82.3234 184.316 85.0326C187.033 87.7418 187.405 87.671 188.346 87.4054C188.346 87.4054 187.725 89.0699 186.003 89.1761C185.878 89.1761 185.772 89.1761 185.63 89.1761C183.624 89.0522 185.79 90.6813 186.837 91.0531C187.885 91.425 184.742 91.8322 182.558 91.3187C181.209 91 167.146 91.1771 164.963 89.2293C163.595 88.0252 169.561 81.9692 169.845 78.9235C170.573 70.9729 182.487 72.4957 182.487 72.4957Z" fill="#606BF1"/>
<path d="M210.754 71.6445C210.754 71.6445 209.44 74.4069 208.872 77.5765C208.304 80.7462 209.174 86.3594 210.754 88.7145C212.334 91.0696 212.494 91.9373 213.932 91.9373C215.37 91.9373 221.105 89.4228 221.62 83.597C222.135 77.7713 211.162 71.6445 211.162 71.6445H210.754Z" fill="#FFBC9D"/>
<path d="M270.039 121.457C270.039 121.457 266.346 119.774 265.21 118.641C264.073 117.508 260.469 114.551 258.658 114.551C256.847 114.551 247.738 118.623 249.017 119.084C250.295 119.544 257.291 117.455 257.291 117.455C257.291 117.455 249.105 120.819 250.561 121.457C252.017 122.094 256.474 120.359 256.474 120.359C256.474 120.359 254.201 121.457 254.201 122.271C254.201 123.086 257.539 121.457 259.457 121.457C261.392 121.457 266.488 124.626 266.488 124.626L270.039 121.457Z" fill="#FFC8AF"/>
<path d="M290.37 171.356C289.677 172.082 288.417 172.542 286.996 172.489C285.576 172.436 284.351 171.887 283.711 171.126C284.404 170.4 285.665 169.939 287.085 169.992C288.505 170.046 289.731 170.594 290.37 171.356Z" fill="#AF9BE2"/>
<path d="M305.834 200.963C304.893 194.5 304.45 187.966 304.556 181.431C304.592 178.173 304.769 174.915 305.018 171.657C305.266 168.417 305.657 165.176 306.119 161.953C307.042 155.508 308.356 149.115 309.971 142.812C310.788 139.66 311.694 136.525 312.67 133.427C313.665 130.328 314.712 127.247 315.937 124.219L316.328 124.378C315.156 127.388 314.144 130.487 313.185 133.586C312.244 136.685 311.374 139.819 310.611 142.971C309.066 149.275 307.841 155.649 307.006 162.077C306.598 165.282 306.243 168.505 306.03 171.745C305.817 174.968 305.675 178.209 305.692 181.449C305.657 187.912 306.172 194.376 307.202 200.75L305.834 200.963Z" fill="#AF9BE2"/>
<path d="M317.855 111.273C316.009 112.389 314.535 114.744 314.127 117.613C313.718 120.499 314.482 123.155 315.938 124.731C317.784 123.616 319.258 121.26 319.666 118.392C320.075 115.523 319.311 112.867 317.855 111.273Z" fill="#AF9BE2"/>
<path d="M306.971 121.189C306.74 122.853 307.468 124.907 309.013 126.554C310.575 128.218 312.564 129.051 314.251 128.944C314.482 127.28 313.754 125.226 312.209 123.579C310.647 121.932 308.658 121.082 306.971 121.189Z" fill="#AF9BE2"/>
<path d="M314.411 129.884C315.831 130.805 317.979 131.017 320.146 130.327C322.312 129.618 323.928 128.184 324.549 126.608C323.129 125.687 320.98 125.475 318.814 126.166C316.63 126.874 315.014 128.308 314.411 129.884Z" fill="#AF9BE2"/>
<path d="M312.458 136.009C313.878 136.93 316.026 137.142 318.192 136.452C320.359 135.761 321.974 134.309 322.596 132.733C321.175 131.812 319.027 131.6 316.861 132.291C314.677 132.999 313.061 134.433 312.458 136.009Z" fill="#AF9BE2"/>
<path d="M310.238 143.322C311.658 144.242 313.807 144.455 315.973 143.764C318.139 143.074 319.755 141.622 320.376 140.046C318.956 139.125 316.807 138.912 314.641 139.603C312.475 140.311 310.841 141.763 310.238 143.322Z" fill="#AF9BE2"/>
<path d="M308.765 150.142C310.185 151.063 312.334 151.275 314.5 150.585C316.666 149.894 318.282 148.442 318.903 146.866C317.483 145.945 315.334 145.733 313.168 146.423C310.984 147.132 309.368 148.566 308.765 150.142Z" fill="#AF9BE2"/>
<path d="M309.368 148.759C307.947 149.68 305.799 149.892 303.633 149.202C301.467 148.511 299.851 147.059 299.229 145.483C300.65 144.562 302.798 144.35 304.964 145.041C307.148 145.749 308.764 147.201 309.368 148.759Z" fill="#AF9BE2"/>
<path d="M304.982 127.688C304.752 129.352 305.48 131.406 307.024 133.053C308.587 134.718 310.575 135.55 312.262 135.444C312.493 133.779 311.765 131.725 310.22 130.078C308.658 128.414 306.669 127.564 304.982 127.688Z" fill="#AF9BE2"/>
<path d="M302.71 135.051C302.479 136.715 303.207 138.769 304.752 140.416C306.314 142.081 308.303 142.913 309.99 142.807C310.22 141.142 309.492 139.088 307.948 137.441C306.385 135.777 304.397 134.927 302.71 135.051Z" fill="#AF9BE2"/>
<path d="M347.542 141.309C344.701 142.867 342.056 144.708 339.481 146.639C336.907 148.586 334.456 150.676 332.095 152.889C329.751 155.103 327.514 157.44 325.401 159.866C323.288 162.31 321.317 164.877 319.471 167.516C315.778 172.81 312.706 178.547 310.22 184.515C307.805 190.518 305.994 196.768 304.858 203.143L306.225 203.373C307.255 197.069 308.924 190.889 311.214 184.922C313.576 178.99 316.523 173.271 320.11 167.958C321.903 165.302 323.821 162.735 325.863 160.273C327.922 157.812 330.106 155.475 332.414 153.226C334.723 150.995 337.137 148.87 339.659 146.886C342.198 144.921 344.825 143.044 347.613 141.45L347.542 141.309Z" fill="#AF9BE2"/>
<path d="M358 134.027C357.84 136.17 356.42 138.56 354.041 140.225C351.661 141.889 348.927 142.438 346.85 141.854C347.009 139.711 348.43 137.338 350.809 135.656C353.206 133.992 355.923 133.443 358 134.027Z" fill="#AF9BE2"/>
<path d="M341.949 132.223C343.547 133.675 344.523 136.278 344.346 139.164C344.186 142.068 342.908 144.529 341.168 145.787C339.57 144.335 338.593 141.732 338.771 138.828C338.931 135.941 340.209 133.48 341.949 132.223Z" fill="#AF9BE2"/>
<path d="M332.468 136.949C334.386 137.923 336.019 140.172 336.641 143.005C337.262 145.838 336.694 148.565 335.344 150.247C333.427 149.274 331.793 147.025 331.172 144.192C330.568 141.358 331.119 138.631 332.468 136.949Z" fill="#AF9BE2"/>
<path d="M326.076 142.832C327.993 143.806 329.627 146.055 330.248 148.888C330.87 151.721 330.302 154.448 328.952 156.13C327.035 155.156 325.401 152.908 324.78 150.074C324.176 147.223 324.726 144.497 326.076 142.832Z" fill="#AF9BE2"/>
<path d="M318.725 148.852C320.838 149.312 322.986 151.065 324.318 153.65C325.632 156.236 325.792 159.016 324.922 160.981C322.809 160.521 320.66 158.785 319.329 156.182C317.997 153.597 317.855 150.817 318.725 148.852Z" fill="#AF9BE2"/>
<path d="M313.541 156.396C315.458 156.307 317.731 157.334 319.453 159.282C321.175 161.23 321.939 163.585 321.619 165.48C319.702 165.568 317.429 164.541 315.707 162.594C313.984 160.663 313.239 158.291 313.541 156.396Z" fill="#AF9BE2"/>
<path d="M309.776 161.138C311.694 161.05 313.967 162.077 315.689 164.024C317.411 165.972 318.175 168.327 317.855 170.222C315.938 170.311 313.665 169.284 311.943 167.336C310.22 165.406 309.475 163.033 309.776 161.138Z" fill="#AF9BE2"/>
<path d="M307.628 168.133C309.279 168.062 311.214 168.947 312.688 170.612C314.162 172.276 314.819 174.295 314.552 175.924C312.901 175.995 310.966 175.11 309.492 173.445C308.018 171.781 307.361 169.762 307.628 168.133Z" fill="#AF9BE2"/>
<path d="M305.55 175.446C306.758 174.773 308.533 174.684 310.291 175.357C312.049 176.03 313.309 177.287 313.736 178.598C312.528 179.27 310.753 179.359 308.995 178.686C307.255 177.996 305.976 176.738 305.55 175.446Z" fill="#AF9BE2"/>
<path d="M304.716 181.451C305.462 180.636 306.793 180.123 308.285 180.176C309.794 180.246 311.072 180.866 311.729 181.752C310.983 182.566 309.652 183.08 308.16 183.027C306.651 182.973 305.373 182.336 304.716 181.451Z" fill="#AF9BE2"/>
<path d="M354.04 150.018C352.212 151.152 349.442 151.382 346.672 150.426C343.92 149.469 341.878 147.592 341.15 145.556C342.979 144.423 345.749 144.193 348.518 145.149C351.271 146.105 353.295 148 354.04 150.018Z" fill="#AF9BE2"/>
<path d="M348.217 154.784C346.388 155.917 343.618 156.147 340.848 155.191C338.096 154.235 336.054 152.358 335.326 150.322C337.155 149.188 339.925 148.958 342.695 149.914C345.447 150.888 347.489 152.765 348.217 154.784Z" fill="#AF9BE2"/>
<path d="M342.02 160.679C340.192 161.812 337.422 162.042 334.652 161.086C331.9 160.13 329.858 158.253 329.13 156.216C330.959 155.083 333.729 154.853 336.498 155.809C339.251 156.765 341.275 158.66 342.02 160.679Z" fill="#AF9BE2"/>
<path d="M335.025 164.594C333.533 165.514 331.278 165.709 329.041 164.93C326.804 164.151 325.153 162.628 324.549 160.981C326.04 160.061 328.295 159.866 330.532 160.645C332.77 161.406 334.421 162.947 335.025 164.594Z" fill="#AF9BE2"/>
<path d="M329.769 168.331C328.544 169.11 326.715 169.305 324.904 168.667C323.093 168.048 321.761 166.773 321.3 165.409C322.525 164.63 324.354 164.435 326.165 165.073C327.976 165.693 329.308 166.968 329.769 168.331Z" fill="#AF9BE2"/>
<path d="M326.644 173.147C325.419 173.927 323.59 174.121 321.779 173.484C319.968 172.864 318.636 171.589 318.174 170.226C319.399 169.447 321.228 169.252 323.039 169.889C324.85 170.509 326.182 171.784 326.644 173.147Z" fill="#AF9BE2"/>
<path d="M323.217 177.501C322.223 178.333 320.572 178.74 318.796 178.457C317.021 178.174 315.582 177.271 314.908 176.155C315.902 175.323 317.553 174.916 319.329 175.199C321.104 175.482 322.543 176.385 323.217 177.501Z" fill="#AF9BE2"/>
<path d="M319.897 182.969C318.778 183.288 317.304 183.005 315.99 182.102C314.677 181.216 313.878 179.941 313.771 178.79C314.89 178.472 316.363 178.755 317.677 179.658C318.973 180.561 319.79 181.836 319.897 182.969Z" fill="#AF9BE2"/>
<path d="M316.203 186.248C315.316 186.319 314.25 185.911 313.398 185.044C312.546 184.194 312.12 183.114 312.191 182.246C313.079 182.157 314.144 182.582 314.996 183.45C315.848 184.3 316.274 185.38 316.203 186.248Z" fill="#AF9BE2"/>
<path d="M313.753 187.117C313.167 187.205 312.493 186.975 311.96 186.444C311.427 185.912 311.196 185.24 311.285 184.655C311.871 184.567 312.546 184.797 313.078 185.328C313.611 185.859 313.842 186.532 313.753 187.117Z" fill="#AF9BE2"/>
<path d="M312.954 188.73C312.368 188.818 311.694 188.588 311.161 188.057C310.628 187.526 310.398 186.853 310.486 186.268C311.072 186.18 311.747 186.41 312.28 186.941C312.812 187.473 313.043 188.163 312.954 188.73Z" fill="#AF9BE2"/>
<path d="M284.546 135.887C286.57 138.1 288.346 140.508 290.032 142.97C291.719 145.449 293.246 148.016 294.649 150.655C296.051 153.293 297.312 156.002 298.448 158.782C299.567 161.563 300.526 164.396 301.36 167.264C303.012 173.019 304.006 178.969 304.396 184.954C304.734 190.939 304.432 196.96 303.526 202.909L302.248 202.697C303.225 196.853 303.615 190.921 303.367 185.007C303.065 179.093 302.177 173.196 300.632 167.477C299.851 164.608 298.946 161.793 297.88 159.013C296.797 156.25 295.59 153.523 294.24 150.885C292.891 148.247 291.399 145.661 289.766 143.164C288.132 140.685 286.375 138.26 284.404 136.028L284.546 135.887Z" fill="#CFC3EE"/>
<path d="M277.533 126.379C277.018 128.309 277.568 130.823 279.166 133.001C280.764 135.18 283.001 136.472 284.99 136.578C285.505 134.648 284.954 132.134 283.356 129.956C281.776 127.778 279.539 126.485 277.533 126.379Z" fill="#CFC3EE"/>
<path d="M292.18 129.566C290.352 130.363 288.718 132.364 287.99 134.949C287.262 137.552 287.653 140.085 288.807 141.714C290.636 140.917 292.269 138.916 292.997 136.331C293.725 133.728 293.335 131.178 292.18 129.566Z" fill="#CFC3EE"/>
<path d="M299.088 136.543C297.099 136.826 295.004 138.314 293.619 140.633C292.234 142.953 291.914 145.503 292.589 147.38C294.56 147.097 296.673 145.609 298.058 143.29C299.461 140.97 299.762 138.42 299.088 136.543Z" fill="#CFC3EE"/>
<path d="M302.941 143.59C300.952 143.873 298.857 145.361 297.472 147.68C296.087 150 295.768 152.55 296.442 154.427C298.431 154.143 300.526 152.656 301.911 150.336C303.314 148.017 303.633 145.467 302.941 143.59Z" fill="#CFC3EE"/>
<path d="M307.61 151.082C305.622 150.852 303.207 151.755 301.272 153.632C299.336 155.509 298.378 157.899 298.555 159.883C300.544 160.113 302.958 159.21 304.894 157.333C306.829 155.456 307.788 153.065 307.61 151.082Z" fill="#CFC3EE"/>
<path d="M309.901 159.245C308.232 158.608 305.941 158.838 303.846 160.025C301.751 161.211 300.384 163.07 300.082 164.823C301.751 165.461 304.041 165.231 306.137 164.044C308.25 162.858 309.617 160.998 309.901 159.245Z" fill="#CFC3EE"/>
<path d="M311.783 164.538C310.114 163.901 307.823 164.131 305.728 165.318C303.633 166.504 302.266 168.363 301.964 170.116C303.633 170.754 305.923 170.524 308.018 169.337C310.131 168.133 311.499 166.291 311.783 164.538Z" fill="#CFC3EE"/>
<path d="M311.588 171.319C310.167 170.77 308.196 170.965 306.403 171.992C304.61 173.019 303.438 174.595 303.171 176.1C304.592 176.649 306.563 176.454 308.356 175.427C310.149 174.4 311.339 172.824 311.588 171.319Z" fill="#CFC3EE"/>
<path d="M311.232 178.349C310.38 177.392 308.835 176.79 307.095 176.861C305.355 176.932 303.864 177.658 303.1 178.667C303.952 179.623 305.497 180.226 307.237 180.155C308.977 180.084 310.469 179.358 311.232 178.349Z" fill="#CFC3EE"/>
<path d="M310.167 183.875C309.758 182.937 308.746 182.087 307.415 181.697C306.083 181.307 304.769 181.485 303.917 182.051C304.325 182.99 305.337 183.84 306.669 184.229C308.001 184.636 309.332 184.459 310.167 183.875Z" fill="#CFC3EE"/>
<path d="M276.236 141.605C277.515 143.146 279.876 144.173 282.575 144.155C285.274 144.137 287.635 143.093 288.878 141.534C287.6 139.994 285.238 138.967 282.54 138.985C279.841 138.985 277.497 140.047 276.236 141.605Z" fill="#CFC3EE"/>
<path d="M279.93 147.523C281.208 149.064 283.57 150.091 286.268 150.073C288.967 150.055 291.329 149.011 292.572 147.452C291.293 145.912 288.932 144.885 286.233 144.903C283.534 144.92 281.173 145.965 279.93 147.523Z" fill="#CFC3EE"/>
<path d="M283.605 154.535C284.883 156.076 287.245 157.103 289.944 157.085C292.642 157.067 295.004 156.022 296.247 154.464C294.968 152.924 292.607 151.897 289.908 151.914C287.209 151.932 284.866 152.977 283.605 154.535Z" fill="#CFC3EE"/>
<path d="M288.594 160.057C289.624 161.314 291.559 162.146 293.743 162.129C295.945 162.111 297.863 161.261 298.875 159.986C297.845 158.729 295.909 157.897 293.726 157.914C291.524 157.932 289.606 158.8 288.594 160.057Z" fill="#CFC3EE"/>
<path d="M292.074 164.91C292.909 165.954 294.471 166.663 296.247 166.663C298.022 166.645 299.567 165.937 300.402 164.874C299.567 163.829 298.005 163.121 296.229 163.121C294.453 163.121 292.891 163.847 292.074 164.91Z" fill="#CFC3EE"/>
<path d="M293.388 170.062C294.223 171.107 295.785 171.815 297.561 171.815C299.336 171.797 300.881 171.089 301.715 170.026C300.881 168.982 299.319 168.273 297.543 168.273C295.767 168.273 294.205 168.999 293.388 170.062Z" fill="#CFC3EE"/>
<path d="M295.11 174.898C295.732 175.925 297.063 176.775 298.715 177.059C300.366 177.342 301.893 176.97 302.816 176.191C302.195 175.164 300.863 174.314 299.212 174.031C297.561 173.765 296.016 174.137 295.11 174.898Z" fill="#CFC3EE"/>
<path d="M296.371 180.705C297.259 181.307 298.644 181.501 300.064 181.112C301.485 180.722 302.568 179.837 303.012 178.863C302.124 178.261 300.739 178.066 299.319 178.456C297.898 178.845 296.815 179.731 296.371 180.705Z" fill="#CFC3EE"/>
<path d="M298.644 184.69C299.389 185.026 300.455 184.973 301.467 184.477C302.479 183.981 303.171 183.167 303.367 182.37C302.621 182.034 301.555 182.087 300.543 182.583C299.531 183.078 298.839 183.893 298.644 184.69Z" fill="#CFC3EE"/>
<path d="M300.543 186.159C301.023 186.407 301.698 186.407 302.319 186.106C302.94 185.805 303.349 185.273 303.438 184.742C302.958 184.494 302.283 184.494 301.662 184.795C301.041 185.096 300.632 185.628 300.543 186.159Z" fill="#CFC3EE"/>
<path d="M300.756 187.827C301.236 188.075 301.91 188.075 302.532 187.774C303.153 187.473 303.562 186.941 303.65 186.41C303.171 186.162 302.496 186.162 301.875 186.463C301.253 186.764 300.845 187.296 300.756 187.827Z" fill="#CFC3EE"/>
<path d="M327.426 129.318C325.366 131.797 323.573 134.489 321.886 137.234C320.217 139.978 318.69 142.829 317.323 145.751C315.956 148.673 314.731 151.647 313.665 154.693C312.6 157.739 311.712 160.838 310.966 163.99C309.475 170.276 308.729 176.721 308.623 183.184C308.569 189.648 309.209 196.129 310.505 202.468L311.872 202.184C310.505 195.951 309.777 189.577 309.724 183.202C309.724 176.81 310.381 170.417 311.748 164.167C312.44 161.05 313.275 157.951 314.269 154.906C315.281 151.86 316.453 148.885 317.767 145.963C319.081 143.042 320.554 140.191 322.17 137.411C323.804 134.648 325.561 131.939 327.568 129.442L327.426 129.318Z" fill="#8475AA"/>
<path d="M334.456 118.73C335.113 120.785 334.652 123.511 333.054 125.955C331.456 128.381 329.112 129.886 326.964 130.099C326.307 128.045 326.768 125.318 328.366 122.874C329.982 120.448 332.308 118.943 334.456 118.73Z" fill="#8475AA"/>
<path d="M318.868 122.91C320.892 123.672 322.756 125.743 323.662 128.488C324.567 131.25 324.301 134.013 323.147 135.819C321.14 135.057 319.258 132.986 318.353 130.241C317.429 127.479 317.696 124.716 318.868 122.91Z" fill="#8475AA"/>
<path d="M311.801 130.789C313.949 131.002 316.293 132.489 317.908 134.897C319.524 137.323 320.004 140.05 319.364 142.104C317.216 141.892 314.872 140.404 313.257 137.996C311.623 135.57 311.161 132.843 311.801 130.789Z" fill="#8475AA"/>
<path d="M308.001 138.582C310.149 138.795 312.493 140.282 314.109 142.69C315.725 145.116 316.204 147.843 315.565 149.897C313.417 149.685 311.073 148.197 309.457 145.789C307.841 143.381 307.362 140.636 308.001 138.582Z" fill="#8475AA"/>
<path d="M303.385 146.887C305.515 146.533 308.161 147.383 310.345 149.295C312.529 151.225 313.683 153.74 313.594 155.9C311.463 156.254 308.818 155.404 306.634 153.492C304.45 151.562 303.296 149.03 303.385 146.887Z" fill="#8475AA"/>
<path d="M301.343 155.81C303.101 155.031 305.586 155.155 307.912 156.323C310.238 157.492 311.801 159.422 312.209 161.299C310.451 162.078 307.966 161.954 305.64 160.786C303.314 159.599 301.751 157.687 301.343 155.81Z" fill="#8475AA"/>
<path d="M299.585 161.603C301.343 160.824 303.829 160.948 306.154 162.116C308.48 163.285 310.043 165.215 310.451 167.092C308.693 167.871 306.208 167.747 303.882 166.578C301.574 165.392 299.993 163.48 299.585 161.603Z" fill="#8475AA"/>
<path d="M300.171 168.899C301.68 168.226 303.811 168.332 305.799 169.342C307.788 170.351 309.137 171.998 309.492 173.609C307.983 174.282 305.853 174.176 303.864 173.166C301.858 172.139 300.508 170.51 300.171 168.899Z" fill="#8475AA"/>
<path d="M300.917 176.439C301.787 175.377 303.421 174.651 305.285 174.633C307.167 174.615 308.8 175.324 309.688 176.368C308.818 177.431 307.185 178.157 305.32 178.175C303.438 178.192 301.805 177.502 300.917 176.439Z" fill="#8475AA"/>
<path d="M302.337 182.354C302.728 181.327 303.775 180.353 305.196 179.857C306.616 179.361 308.036 179.485 308.977 180.052C308.587 181.079 307.539 182.053 306.119 182.548C304.716 183.044 303.296 182.92 302.337 182.354Z" fill="#8475AA"/>
<path d="M336.659 135.038C335.363 136.756 332.877 137.995 329.965 138.119C327.053 138.243 324.461 137.234 323.022 135.623C324.319 133.905 326.804 132.665 329.716 132.542C332.646 132.418 335.22 133.427 336.659 135.038Z" fill="#8475AA"/>
<path d="M333.001 141.609C331.705 143.326 329.219 144.566 326.307 144.69C323.395 144.814 320.803 143.804 319.382 142.193C320.678 140.475 323.164 139.236 326.076 139.112C328.988 138.988 331.58 139.997 333.001 141.609Z" fill="#8475AA"/>
<path d="M329.396 149.362C328.1 151.08 325.614 152.32 322.702 152.444C319.791 152.568 317.198 151.558 315.778 149.947C317.074 148.229 319.56 146.99 322.472 146.866C325.384 146.742 327.976 147.751 329.396 149.362Z" fill="#8475AA"/>
<path d="M324.336 155.562C323.288 156.961 321.264 157.971 318.885 158.059C316.524 158.165 314.411 157.333 313.239 156.023C314.286 154.624 316.31 153.615 318.69 153.526C321.069 153.438 323.164 154.252 324.336 155.562Z" fill="#8475AA"/>
<path d="M320.839 160.965C319.986 162.151 318.353 162.983 316.435 163.054C314.518 163.143 312.813 162.434 311.872 161.337C312.724 160.15 314.358 159.318 316.258 159.247C318.193 159.176 319.897 159.867 320.839 160.965Z" fill="#8475AA"/>
<path d="M319.684 166.578C318.832 167.764 317.198 168.597 315.281 168.668C313.363 168.756 311.659 168.048 310.718 166.95C311.57 165.764 313.204 164.931 315.103 164.86C317.039 164.79 318.743 165.48 319.684 166.578Z" fill="#8475AA"/>
<path d="M318.104 171.89C317.5 173.041 316.097 174.015 314.34 174.405C312.582 174.794 310.913 174.475 309.865 173.696C310.469 172.545 311.872 171.571 313.629 171.182C315.387 170.792 317.074 171.111 318.104 171.89Z" fill="#8475AA"/>
<path d="M317.038 178.208C316.115 178.916 314.641 179.182 313.097 178.828C311.552 178.473 310.327 177.588 309.812 176.561C310.735 175.853 312.209 175.587 313.754 175.941C315.298 176.295 316.506 177.181 317.038 178.208Z" fill="#8475AA"/>
<path d="M314.801 182.601C314.002 182.991 312.848 182.991 311.748 182.513C310.629 182.034 309.848 181.185 309.599 180.352C310.398 179.963 311.534 179.963 312.653 180.441C313.772 180.919 314.553 181.751 314.801 182.601Z" fill="#8475AA"/>
<path d="M312.831 184.301C312.333 184.602 311.605 184.638 310.931 184.337C310.256 184.036 309.777 183.487 309.652 182.92C310.167 182.619 310.877 182.584 311.552 182.885C312.245 183.186 312.706 183.735 312.831 184.301Z" fill="#8475AA"/>
<path d="M312.688 186.09C312.191 186.391 311.463 186.427 310.789 186.126C310.114 185.825 309.635 185.276 309.51 184.709C310.025 184.408 310.735 184.373 311.41 184.674C312.103 184.975 312.564 185.524 312.688 186.09Z" fill="#8475AA"/>
<path d="M297.454 181.13C294.4 176.686 291.204 172.33 287.777 168.151L287.831 168.098C291.346 172.206 294.631 176.491 297.774 180.882C300.916 185.292 303.864 189.825 306.527 194.535C307.166 195.686 307.788 196.837 308.391 198.006C308.161 198.129 307.912 198.271 307.681 198.413C307.095 197.226 306.492 196.058 305.87 194.889C303.349 190.179 300.49 185.593 297.454 181.13Z" fill="#AF9BE2"/>
<path d="M284.422 162.484C285.54 162.591 286.712 163.334 287.44 164.556C288.168 165.778 288.292 167.159 287.848 168.186C286.73 168.08 285.558 167.336 284.83 166.114C284.102 164.893 283.978 163.529 284.422 162.484Z" fill="#AF9BE2"/>
<path d="M292.767 165.086C293.228 165.971 293.246 167.317 292.731 168.645C292.216 169.973 291.293 170.947 290.352 171.301C289.89 170.416 289.872 169.07 290.387 167.742C290.902 166.414 291.826 165.44 292.767 165.086Z" fill="#AF9BE2"/>
<path d="M293.051 174.882C292.287 175.537 290.991 175.855 289.571 175.661C288.15 175.466 286.996 174.793 286.446 173.961C287.209 173.306 288.505 172.987 289.926 173.182C291.329 173.376 292.483 174.049 293.051 174.882Z" fill="#AF9BE2"/>
<path d="M296.424 179.218C295.661 179.873 294.365 180.191 292.944 179.997C291.524 179.802 290.37 179.129 289.819 178.297C290.583 177.642 291.879 177.323 293.299 177.518C294.702 177.712 295.856 178.385 296.424 179.218Z" fill="#AF9BE2"/>
<path d="M298.715 182.671C297.951 183.326 296.655 183.645 295.235 183.45C293.814 183.255 292.66 182.582 292.11 181.75C292.873 181.095 294.17 180.776 295.59 180.971C296.993 181.166 298.147 181.838 298.715 182.671Z" fill="#AF9BE2"/>
<path d="M301.253 186.479C300.49 187.134 299.194 187.453 297.773 187.258C296.353 187.064 295.199 186.391 294.648 185.558C295.412 184.903 296.708 184.585 298.129 184.779C299.531 184.992 300.685 185.665 301.253 186.479Z" fill="#AF9BE2"/>
<path d="M295.696 168.805C296.158 169.69 296.176 171.036 295.661 172.364C295.146 173.692 294.223 174.666 293.282 175.02C292.82 174.135 292.802 172.789 293.317 171.461C293.85 170.133 294.755 169.159 295.696 168.805Z" fill="#AF9BE2"/>
<path d="M298.502 172.633C298.963 173.518 298.981 174.864 298.466 176.192C297.951 177.52 297.028 178.494 296.087 178.848C295.625 177.963 295.607 176.617 296.122 175.289C296.637 173.961 297.56 172.987 298.502 172.633Z" fill="#AF9BE2"/>
<path d="M301.165 176.508C301.627 177.393 301.644 178.739 301.13 180.067C300.615 181.395 299.691 182.369 298.75 182.723C298.289 181.838 298.271 180.492 298.786 179.164C299.318 177.818 300.242 176.844 301.165 176.508Z" fill="#AF9BE2"/>
<path d="M303.757 180.281C304.219 181.167 304.237 182.512 303.722 183.84C303.207 185.169 302.284 186.142 301.343 186.497C300.881 185.611 300.863 184.265 301.378 182.937C301.893 181.609 302.816 180.635 303.757 180.281Z" fill="#AF9BE2"/>
<path d="M295.448 191.324H315.671C319.027 193.042 321.158 195.574 321.158 198.425C321.158 201.471 318.725 204.162 314.979 205.862H296.158C292.394 204.162 289.979 201.471 289.979 198.425C289.943 195.574 292.092 193.024 295.448 191.324Z" fill="#405CE1"/>
<path d="M297.348 192.921C295.359 192.691 292.678 194.196 292.003 197.207C291.062 203.156 297.028 204.892 300.295 203.386C297.454 202.678 294.347 201.386 294.258 198.446C294.098 196.906 295.022 195.436 295.022 195.4C295.146 195.223 295.412 194.781 295.874 194.249C296.282 193.754 296.797 193.329 297.348 192.921Z" fill="#F8F0A1"/>
<path d="M294.504 191.848H316.841V190.449H294.504V191.848Z" fill="#6B9FC5"/>
<path d="M66.4371 167.704C65.7446 168.43 64.484 168.89 63.0636 168.837C61.6431 168.784 60.418 168.235 59.7788 167.473C60.4713 166.747 61.7319 166.287 63.1523 166.34C64.5728 166.376 65.7979 166.924 66.4371 167.704Z" fill="#AF9BE2"/>
<path d="M81.9023 197.385C80.9613 190.921 80.5174 184.387 80.6239 177.853C80.6594 174.595 80.837 171.337 81.0856 168.079C81.3341 164.838 81.7247 161.598 82.1864 158.375C83.1097 151.93 84.4236 145.537 86.0393 139.233C86.8561 136.082 87.7616 132.947 88.7382 129.848C89.7325 126.75 90.78 123.669 92.0052 120.641L92.3958 120.8C91.2239 123.81 90.2119 126.909 89.2531 130.008C88.312 133.107 87.4598 136.241 86.6785 139.393C85.1338 145.697 83.9087 152.071 83.0742 158.499C82.6658 161.704 82.3107 164.927 82.0976 168.167C81.8845 171.39 81.7425 174.631 81.7603 177.871C81.7247 184.334 82.2397 190.798 83.2695 197.172L81.9023 197.385Z" fill="#AF9BE2"/>
<path d="M93.9225 107.695C92.076 108.811 90.6023 111.166 90.1939 114.035C89.7855 116.921 90.549 119.577 92.005 121.153C93.8515 120.037 95.3252 117.682 95.7336 114.814C96.142 111.945 95.3963 109.271 93.9225 107.695Z" fill="#AF9BE2"/>
<path d="M83.0385 117.61C82.8077 119.275 83.5357 121.329 85.0804 122.976C86.6429 124.64 88.6315 125.473 90.3183 125.366C90.5491 123.702 89.8211 121.648 88.2764 120.001C86.7139 118.354 84.7253 117.504 83.0385 117.61Z" fill="#AF9BE2"/>
<path d="M90.478 125.915C91.8985 126.836 94.0469 127.049 96.213 126.358C98.3792 125.65 99.9949 124.215 100.616 122.639C99.1959 121.719 97.0475 121.506 94.8814 122.197C92.6975 122.905 91.0817 124.357 90.478 125.915Z" fill="#AF9BE2"/>
<path d="M88.5254 132.431C89.9458 133.352 92.0942 133.564 94.2604 132.874C96.4266 132.165 98.0423 130.731 98.6638 129.155C97.2433 128.234 95.0949 128.022 92.9287 128.712C90.7448 129.421 89.1291 130.855 88.5254 132.431Z" fill="#AF9BE2"/>
<path d="M86.3057 139.743C87.7261 140.664 89.8745 140.877 92.0407 140.186C94.2068 139.478 95.8226 138.044 96.444 136.468C95.0236 135.547 92.8752 135.334 90.709 136.025C88.5428 136.733 86.9271 138.185 86.3057 139.743Z" fill="#AF9BE2"/>
<path d="M84.832 146.564C86.2525 147.485 88.4009 147.697 90.5671 147.006C92.7332 146.298 94.349 144.864 94.9704 143.288C93.55 142.367 91.4016 142.155 89.2354 142.845C87.0515 143.553 85.4357 144.988 84.832 146.564Z" fill="#AF9BE2"/>
<path d="M85.4533 145.181C84.0329 146.102 81.8845 146.314 79.7183 145.624C77.5521 144.915 75.9364 143.481 75.3149 141.905C76.7354 140.984 78.8838 140.772 81.05 141.462C83.2161 142.171 84.8319 143.605 85.4533 145.181Z" fill="#AF9BE2"/>
<path d="M81.0502 124.095C80.8194 125.759 81.5474 127.813 83.0921 129.46C84.6546 131.125 86.6432 131.957 88.3299 131.851C88.5608 130.186 87.8328 128.132 86.2881 126.485C84.7434 124.839 82.737 123.989 81.0502 124.095Z" fill="#AF9BE2"/>
<path d="M78.7773 131.458C78.5465 133.123 79.2744 135.177 80.8192 136.823C82.3816 138.488 84.3703 139.32 86.057 139.214C86.2878 137.549 85.5599 135.495 84.0151 133.849C82.4527 132.202 80.464 131.352 78.7773 131.458Z" fill="#AF9BE2"/>
<path d="M123.628 137.727C120.787 139.285 118.141 141.126 115.567 143.057C112.992 145.004 110.542 147.094 108.18 149.307C105.819 151.521 103.6 153.858 101.469 156.302C99.3559 158.745 97.3851 161.313 95.5385 163.951C91.8454 169.246 88.7737 174.983 86.2879 180.95C83.8732 186.953 82.0621 193.204 80.9258 199.579L82.293 199.809C83.3228 193.505 84.9918 187.325 87.2822 181.358C89.6437 175.426 92.5911 169.706 96.1777 164.394C97.971 161.738 99.8886 159.17 101.93 156.709C103.99 154.248 106.174 151.91 108.482 149.661C110.79 147.43 113.205 145.305 115.726 143.322C118.266 141.357 120.893 139.48 123.681 137.886L123.628 137.727Z" fill="#AF9BE2"/>
<path d="M134.068 130.449C133.908 132.592 132.488 134.964 130.108 136.647C127.729 138.311 124.995 138.86 122.917 138.276C123.077 136.133 124.498 133.76 126.877 132.078C129.274 130.414 131.991 129.865 134.068 130.449Z" fill="#AF9BE2"/>
<path d="M118.017 128.625C119.615 130.077 120.591 132.68 120.414 135.584C120.254 138.488 118.976 140.949 117.236 142.207C115.638 140.755 114.661 138.152 114.839 135.248C114.998 132.361 116.277 129.9 118.017 128.625Z" fill="#AF9BE2"/>
<path d="M108.553 133.371C110.471 134.345 112.104 136.594 112.726 139.427C113.347 142.26 112.779 144.987 111.43 146.669C109.512 145.695 107.879 143.447 107.257 140.613C106.636 137.763 107.204 135.053 108.553 133.371Z" fill="#AF9BE2"/>
<path d="M102.161 139.25C104.079 140.224 105.712 142.473 106.334 145.306C106.955 148.157 106.387 150.866 105.038 152.548C103.12 151.574 101.487 149.326 100.865 146.492C100.244 143.641 100.812 140.914 102.161 139.25Z" fill="#AF9BE2"/>
<path d="M94.7927 145.27C96.9056 145.73 99.054 147.465 100.386 150.068C101.7 152.654 101.859 155.434 100.989 157.399C98.8764 156.939 96.728 155.186 95.3964 152.6C94.0647 149.997 93.9227 147.235 94.7927 145.27Z" fill="#AF9BE2"/>
<path d="M89.6084 152.814C91.526 152.725 93.7987 153.752 95.521 155.7C97.2433 157.648 98.0068 160.003 97.6872 161.898C95.7696 161.986 93.4969 160.959 91.7746 159.011C90.0523 157.064 89.3066 154.709 89.6084 152.814Z" fill="#AF9BE2"/>
<path d="M85.8617 157.56C87.7793 157.471 90.052 158.498 91.7742 160.446C93.4965 162.394 94.26 164.749 93.9404 166.644C92.0228 166.732 89.7501 165.705 88.0278 163.758C86.3055 161.81 85.5421 159.455 85.8617 157.56Z" fill="#AF9BE2"/>
<path d="M83.7132 164.551C85.3645 164.48 87.2998 165.365 88.7735 167.03C90.2472 168.694 90.9042 170.713 90.6378 172.342C88.9866 172.413 87.0512 171.528 85.5775 169.863C84.0861 168.199 83.4469 166.18 83.7132 164.551Z" fill="#AF9BE2"/>
<path d="M81.6182 171.848C82.8255 171.175 84.6011 171.087 86.3589 171.759C88.1167 172.432 89.3773 173.69 89.8034 175C88.5961 175.673 86.8205 175.761 85.0627 175.088C83.3227 174.416 82.0621 173.158 81.6182 171.848Z" fill="#AF9BE2"/>
<path d="M80.7837 177.869C81.5294 177.054 82.8611 176.54 84.3525 176.594C85.8618 176.664 87.1402 177.284 87.7971 178.17C87.0514 178.984 85.7197 179.498 84.2283 179.445C82.7368 179.374 81.4406 178.754 80.7837 177.869Z" fill="#AF9BE2"/>
<path d="M130.108 146.44C128.279 147.574 125.51 147.804 122.74 146.847C119.988 145.891 117.946 144.014 117.218 141.978C119.047 140.845 121.816 140.614 124.586 141.571C127.338 142.527 129.363 144.404 130.108 146.44Z" fill="#AF9BE2"/>
<path d="M124.285 151.202C122.456 152.335 119.686 152.565 116.916 151.609C114.164 150.653 112.122 148.776 111.394 146.74C113.223 145.606 115.993 145.376 118.763 146.332C121.515 147.289 123.557 149.183 124.285 151.202Z" fill="#AF9BE2"/>
<path d="M118.088 157.096C116.259 158.23 113.489 158.46 110.719 157.504C107.967 156.548 105.925 154.671 105.197 152.634C107.026 151.501 109.796 151.271 112.566 152.227C115.318 153.183 117.342 155.078 118.088 157.096Z" fill="#AF9BE2"/>
<path d="M111.092 161.012C109.601 161.932 107.346 162.127 105.109 161.348C102.872 160.569 101.22 159.046 100.617 157.399C102.108 156.478 104.363 156.284 106.6 157.063C108.837 157.824 110.489 159.365 111.092 161.012Z" fill="#AF9BE2"/>
<path d="M105.854 164.749C104.629 165.528 102.8 165.723 100.989 165.085C99.1781 164.466 97.8464 163.191 97.3848 161.827C98.6099 161.048 100.439 160.853 102.25 161.491C104.043 162.111 105.375 163.386 105.854 164.749Z" fill="#AF9BE2"/>
<path d="M102.712 169.565C101.486 170.345 99.6576 170.539 97.8466 169.902C96.0355 169.282 94.7038 168.007 94.2422 166.644C95.4673 165.865 97.2961 165.67 99.1072 166.307C100.918 166.927 102.25 168.202 102.712 169.565Z" fill="#AF9BE2"/>
<path d="M99.2851 173.919C98.2908 174.751 96.6396 175.158 94.864 174.875C93.0885 174.592 91.6503 173.689 90.9756 172.573C91.9699 171.741 93.6211 171.334 95.3967 171.617C97.1722 171.9 98.6104 172.803 99.2851 173.919Z" fill="#AF9BE2"/>
<path d="M95.9645 179.395C94.8459 179.714 93.3722 179.43 92.0583 178.527C90.7444 177.642 89.9454 176.367 89.8389 175.216C90.9575 174.897 92.4312 175.181 93.7451 176.084C95.059 176.987 95.858 178.244 95.9645 179.395Z" fill="#AF9BE2"/>
<path d="M92.2718 182.666C91.3841 182.754 90.3187 182.329 89.4665 181.462C88.6142 180.612 88.1881 179.532 88.2591 178.664C89.1469 178.575 90.2122 179 91.0645 179.868C91.9345 180.718 92.3606 181.798 92.2718 182.666Z" fill="#AF9BE2"/>
<path d="M89.8211 183.538C89.2352 183.627 88.5605 183.397 88.0278 182.866C87.5129 182.334 87.2644 181.661 87.3531 181.077C87.9391 180.989 88.6138 181.219 89.1464 181.75C89.6791 182.281 89.9099 182.954 89.8211 183.538Z" fill="#AF9BE2"/>
<path d="M89.0222 185.148C88.4363 185.236 87.7615 185.006 87.2289 184.475C86.6962 183.944 86.4654 183.271 86.5542 182.686C87.1401 182.598 87.8148 182.828 88.3475 183.359C88.8801 183.891 89.1287 184.563 89.0222 185.148Z" fill="#AF9BE2"/>
<path d="M60.6137 132.309C62.6378 134.522 64.4134 136.93 66.1002 139.392C67.7692 141.871 69.3139 144.438 70.7166 147.077C72.1193 149.715 73.3799 152.424 74.5162 155.204C75.6348 157.984 76.5936 160.818 77.4281 163.686C79.0971 169.441 80.0737 175.391 80.4643 181.376C80.8017 187.361 80.4998 193.382 79.5943 199.331L78.3159 199.119C79.2925 193.275 79.6831 187.343 79.4345 181.429C79.1327 175.515 78.2449 169.618 76.7002 163.899C75.9189 161.03 75.0134 158.215 73.9481 155.435C72.865 152.672 71.6576 149.945 70.3082 147.307C68.9588 144.668 67.4673 142.083 65.8338 139.586C64.2003 137.107 62.4425 134.681 60.4717 132.45L60.6137 132.309Z" fill="#CFC3EE"/>
<path d="M53.6176 122.801C53.1027 124.731 53.6531 127.245 55.2511 129.423C56.8491 131.601 59.0863 132.894 61.0749 133C61.5898 131.07 61.0394 128.556 59.4414 126.378C57.8434 124.2 55.6062 122.907 53.6176 122.801Z" fill="#CFC3EE"/>
<path d="M68.2484 125.973C66.4195 126.769 64.786 128.77 64.0581 131.356C63.3301 133.959 63.7207 136.491 64.8748 138.12C66.7036 137.323 68.3371 135.322 69.0651 132.737C69.7931 130.152 69.4202 127.602 68.2484 125.973Z" fill="#CFC3EE"/>
<path d="M75.1551 132.965C73.1665 133.248 71.0713 134.736 69.6864 137.055C68.3015 139.375 67.9819 141.925 68.6566 143.802C70.6452 143.518 72.7403 142.031 74.1253 139.711C75.5279 137.392 75.8475 134.842 75.1551 132.965Z" fill="#CFC3EE"/>
<path d="M79.0262 140.012C77.0376 140.295 74.9424 141.782 73.5575 144.102C72.1726 146.422 71.853 148.972 72.5277 150.849C74.5163 150.565 76.6114 149.078 77.9964 146.758C79.3813 144.439 79.7009 141.889 79.0262 140.012Z" fill="#CFC3EE"/>
<path d="M83.6778 147.504C81.6891 147.274 79.2744 148.177 77.339 150.054C75.4037 151.931 74.4449 154.321 74.6224 156.305C76.6111 156.535 79.0258 155.632 80.9612 153.755C82.8965 151.878 83.8553 149.487 83.6778 147.504Z" fill="#CFC3EE"/>
<path d="M85.9682 155.667C84.2992 155.03 82.0087 155.26 79.9136 156.446C77.8184 157.633 76.4513 159.492 76.1494 161.245C77.8184 161.883 80.1089 161.652 82.204 160.466C84.3169 159.28 85.6841 157.42 85.9682 155.667Z" fill="#CFC3EE"/>
<path d="M87.8681 160.96C86.1991 160.323 83.9086 160.553 81.8135 161.739C79.7183 162.926 78.3512 164.785 78.0493 166.538C79.7183 167.176 82.0088 166.945 84.1039 165.759C86.1991 164.555 87.5662 162.713 87.8681 160.96Z" fill="#CFC3EE"/>
<path d="M87.6553 167.741C86.2349 167.192 84.2641 167.387 82.4708 168.414C80.6775 169.441 79.5056 171.017 79.2393 172.522C80.6597 173.071 82.6306 172.876 84.4239 171.849C86.2349 170.822 87.4068 169.246 87.6553 167.741Z" fill="#CFC3EE"/>
<path d="M87.3 174.77C86.4477 173.814 84.903 173.212 83.1629 173.283C81.4229 173.354 79.9315 174.08 79.168 175.089C80.0202 176.045 81.565 176.647 83.305 176.577C85.045 176.506 86.5365 175.78 87.3 174.77Z" fill="#CFC3EE"/>
<path d="M86.2524 180.297C85.844 179.358 84.8319 178.508 83.5003 178.119C82.1686 177.729 80.8369 177.906 80.0024 178.473C80.4108 179.412 81.4229 180.261 82.7545 180.651C84.0862 181.041 85.4001 180.881 86.2524 180.297Z" fill="#CFC3EE"/>
<path d="M52.3218 138.012C53.6002 139.552 55.9617 140.579 58.6605 140.561C61.3593 140.544 63.7208 139.499 64.9637 137.941C63.6853 136.4 61.3238 135.373 58.625 135.391C55.9261 135.409 53.5647 136.471 52.3218 138.012Z" fill="#CFC3EE"/>
<path d="M55.9971 143.945C57.2755 145.486 59.6369 146.513 62.3358 146.495C65.0346 146.477 67.3961 145.415 68.639 143.874C67.3606 142.334 64.9991 141.307 62.3003 141.324C59.6014 141.342 57.2577 142.387 55.9971 143.945Z" fill="#CFC3EE"/>
<path d="M59.6904 150.957C60.9688 152.497 63.3303 153.524 66.0291 153.507C68.728 153.489 71.0894 152.427 72.3323 150.886C71.0539 149.345 68.6925 148.318 65.9936 148.336C63.2948 148.354 60.9333 149.399 59.6904 150.957Z" fill="#CFC3EE"/>
<path d="M64.6616 156.479C65.6914 157.736 67.6268 158.568 69.8107 158.551C72.0124 158.533 73.93 157.683 74.942 156.408C73.9122 155.151 71.9769 154.319 69.7929 154.336C67.5913 154.354 65.6737 155.222 64.6616 156.479Z" fill="#CFC3EE"/>
<path d="M68.1421 161.331C68.9766 162.376 70.5391 163.084 72.3146 163.084C74.0902 163.067 75.6349 162.358 76.4517 161.296C75.6171 160.251 74.0547 159.543 72.2791 159.543C70.5213 159.543 68.9766 160.269 68.1421 161.331Z" fill="#CFC3EE"/>
<path d="M69.4561 166.484C70.2906 167.528 71.853 168.237 73.6286 168.237C75.4041 168.219 76.9489 167.511 77.7834 166.448C76.9489 165.404 75.3864 164.695 73.6108 164.695C71.8353 164.695 70.2906 165.421 69.4561 166.484Z" fill="#CFC3EE"/>
<path d="M71.1782 171.32C71.7997 172.347 73.1313 173.197 74.7826 173.481C76.4338 173.764 77.9608 173.392 78.8841 172.613C78.2626 171.586 76.931 170.736 75.2797 170.453C73.6285 170.187 72.1015 170.559 71.1782 171.32Z" fill="#CFC3EE"/>
<path d="M72.4565 177.127C73.3443 177.729 74.7292 177.923 76.1497 177.534C77.5701 177.144 78.6532 176.259 79.0971 175.285C78.2093 174.683 76.8244 174.488 75.404 174.878C73.9835 175.267 72.8827 176.153 72.4565 177.127Z" fill="#CFC3EE"/>
<path d="M74.7114 181.092C75.4572 181.429 76.5225 181.375 77.5345 180.88C78.5466 180.384 79.2391 179.569 79.4344 178.772C78.6887 178.436 77.6233 178.489 76.6113 178.985C75.5992 179.481 74.9067 180.295 74.7114 181.092Z" fill="#CFC3EE"/>
<path d="M76.6113 182.581C77.0907 182.829 77.7654 182.829 78.3869 182.528C79.0083 182.227 79.4167 181.695 79.5054 181.164C79.0261 180.916 78.3513 180.916 77.7299 181.217C77.1085 181.518 76.7001 182.05 76.6113 182.581Z" fill="#CFC3EE"/>
<path d="M76.8242 184.249C77.3036 184.497 77.9783 184.497 78.5998 184.196C79.2212 183.895 79.6296 183.363 79.7183 182.832C79.239 182.584 78.5642 182.584 77.9428 182.885C77.3214 183.186 76.913 183.7 76.8242 184.249Z" fill="#CFC3EE"/>
<path d="M103.493 125.742C101.433 128.221 99.6402 130.913 97.9534 133.657C96.2844 136.402 94.7574 139.253 93.3903 142.175C92.0231 145.096 90.798 148.071 89.7326 151.117C88.6673 154.163 87.7795 157.261 87.0338 160.413C85.5424 166.699 84.7966 173.145 84.6901 179.608C84.6368 186.071 85.276 192.552 86.5722 198.892L87.9393 198.608C86.5722 192.375 85.8442 186.001 85.7909 179.626C85.7909 173.234 86.4479 166.841 87.8151 160.59C88.5075 157.474 89.342 154.375 90.3363 151.329C91.3484 148.284 92.5203 145.309 93.8342 142.387C95.1481 139.465 96.6218 136.597 98.2375 133.834C99.871 131.072 101.629 128.363 103.635 125.866L103.493 125.742Z" fill="#8475AA"/>
<path d="M110.542 115.133C111.199 117.187 110.737 119.914 109.139 122.357C107.541 124.783 105.198 126.289 103.049 126.501C102.392 124.447 102.854 121.72 104.452 119.276C106.05 116.868 108.394 115.363 110.542 115.133Z" fill="#8475AA"/>
<path d="M94.935 119.328C96.9591 120.09 98.8234 122.161 99.7289 124.906C100.634 127.668 100.368 130.431 99.214 132.237C97.2077 131.475 95.3256 129.404 94.4201 126.659C93.4968 123.897 93.7631 121.134 94.935 119.328Z" fill="#8475AA"/>
<path d="M87.8678 127.207C90.0162 127.42 92.3599 128.907 93.9756 131.315C95.5914 133.741 96.0708 136.468 95.4316 138.522C93.2832 138.31 90.9395 136.822 89.3237 134.414C87.708 131.988 87.2286 129.261 87.8678 127.207Z" fill="#8475AA"/>
<path d="M84.0862 135C86.2346 135.212 88.5783 136.7 90.1941 139.108C91.8098 141.534 92.2892 144.261 91.65 146.315C89.5016 146.103 87.1579 144.615 85.5422 142.207C83.9087 139.799 83.447 137.054 84.0862 135Z" fill="#8475AA"/>
<path d="M79.452 143.305C81.5827 142.951 84.2283 143.801 86.4122 145.713C88.5961 147.643 89.7502 150.158 89.6614 152.318C87.5308 152.672 84.8852 151.822 82.7013 149.91C80.5174 147.98 79.3633 145.448 79.452 143.305Z" fill="#8475AA"/>
<path d="M77.4102 152.228C79.1679 151.449 81.6537 151.573 83.9797 152.741C86.3056 153.91 87.8681 155.84 88.2765 157.717C86.5187 158.496 84.0329 158.372 81.707 157.203C79.3988 156.017 77.8185 154.105 77.4102 152.228Z" fill="#8475AA"/>
<path d="M75.6523 158.021C77.4101 157.242 79.8959 157.365 82.2219 158.534C84.5478 159.703 86.1103 161.633 86.5187 163.51C84.7609 164.289 82.2751 164.165 79.9492 162.979C77.641 161.81 76.0607 159.898 75.6523 158.021Z" fill="#8475AA"/>
<path d="M76.2383 165.317C77.7475 164.644 79.8782 164.75 81.8668 165.76C83.8554 166.769 85.2048 168.416 85.5599 170.027C84.0507 170.7 81.92 170.594 79.9314 169.584C77.9428 168.557 76.5934 166.911 76.2383 165.317Z" fill="#8475AA"/>
<path d="M76.9839 172.861C77.8539 171.799 79.4874 171.073 81.3517 171.055C83.2338 171.037 84.8673 171.746 85.7551 172.79C84.8851 173.853 83.2516 174.579 81.3872 174.597C79.5052 174.614 77.8717 173.924 76.9839 172.861Z" fill="#8475AA"/>
<path d="M78.4219 178.756C78.8125 177.729 79.8601 176.755 81.2805 176.259C82.7009 175.763 84.1214 175.887 85.0624 176.454C84.6718 177.481 83.6242 178.455 82.2038 178.951C80.7833 179.446 79.3629 179.34 78.4219 178.756Z" fill="#8475AA"/>
<path d="M112.726 131.46C111.43 133.178 108.944 134.417 106.032 134.541C103.12 134.665 100.528 133.656 99.1074 132.044C100.404 130.327 102.889 129.087 105.801 128.963C108.713 128.839 111.305 129.849 112.726 131.46Z" fill="#8475AA"/>
<path d="M109.068 138.03C107.772 139.748 105.286 140.988 102.374 141.112C99.4621 141.235 96.8698 140.226 95.4316 138.615C96.7278 136.897 99.2136 135.658 102.125 135.534C105.055 135.41 107.647 136.419 109.068 138.03Z" fill="#8475AA"/>
<path d="M105.481 145.783C104.185 147.501 101.699 148.74 98.7874 148.864C95.8755 148.988 93.2832 147.979 91.8628 146.368C93.1589 144.65 95.6447 143.41 98.5566 143.286C101.451 143.145 104.043 144.172 105.481 145.783Z" fill="#8475AA"/>
<path d="M100.403 151.984C99.3557 153.383 97.3316 154.393 94.9524 154.481C92.5909 154.587 90.478 153.755 89.3062 152.445C90.3537 151.046 92.3779 150.037 94.7571 149.948C97.1363 149.859 99.2315 150.674 100.403 151.984Z" fill="#8475AA"/>
<path d="M96.9055 157.381C96.0532 158.568 94.4197 159.4 92.5021 159.471C90.5845 159.559 88.88 158.851 87.939 157.753C88.7912 156.567 90.4247 155.735 92.3423 155.664C94.2599 155.575 95.9644 156.283 96.9055 157.381Z" fill="#8475AA"/>
<path d="M95.7692 162.997C94.917 164.183 93.2835 165.015 91.3659 165.104C89.4483 165.192 87.7438 164.484 86.8027 163.386C87.655 162.2 89.2885 161.368 91.1883 161.297C93.1237 161.208 94.8104 161.899 95.7692 162.997Z" fill="#8475AA"/>
<path d="M94.1712 168.308C93.5675 169.459 92.1648 170.433 90.407 170.823C88.6492 171.212 86.9802 170.893 85.9326 170.114C86.5363 168.963 87.939 167.989 89.6968 167.6C91.4546 167.21 93.1413 167.529 94.1712 168.308Z" fill="#8475AA"/>
<path d="M93.1059 174.63C92.1826 175.338 90.7089 175.604 89.1642 175.249C87.6194 174.895 86.3943 174.01 85.8794 172.983C86.8027 172.275 88.2764 172.009 89.8211 172.363C91.3658 172.7 92.5732 173.603 93.1059 174.63Z" fill="#8475AA"/>
<path d="M90.8689 179.023C90.0699 179.413 88.9335 179.413 87.8149 178.934C86.6963 178.456 85.9151 177.606 85.6665 176.774C86.4655 176.385 87.6019 176.385 88.7204 176.863C89.839 177.341 90.6203 178.173 90.8689 179.023Z" fill="#8475AA"/>
<path d="M88.9155 180.723C88.4006 181.024 87.6904 181.042 87.0157 180.758C86.341 180.457 85.8616 179.909 85.7373 179.342C86.2522 179.041 86.9624 179.005 87.6371 179.306C88.3119 179.59 88.7735 180.139 88.9155 180.723Z" fill="#8475AA"/>
<path d="M88.7734 182.508C88.2585 182.809 87.5483 182.845 86.8736 182.544C86.1989 182.243 85.7195 181.694 85.5952 181.127C86.1101 180.826 86.8203 180.791 87.495 181.092C88.1698 181.393 88.6314 181.942 88.7734 182.508Z" fill="#8475AA"/>
<path d="M73.5215 177.552C70.4675 173.108 67.2715 168.752 63.8447 164.573L63.898 164.52C67.4136 168.628 70.7161 172.913 73.8588 177.304C77.0015 181.713 79.9489 186.247 82.6123 190.957C83.2515 192.108 83.8729 193.259 84.4766 194.427C84.2458 194.551 83.9972 194.693 83.7664 194.835C83.1804 193.648 82.5768 192.48 81.9553 191.329C79.4163 186.583 76.5576 182.014 73.5215 177.552Z" fill="#AF9BE2"/>
<path d="M60.4715 158.906C61.59 159.012 62.7619 159.756 63.4899 160.978C64.2179 162.2 64.3421 163.581 63.8983 164.608C62.7797 164.502 61.6078 163.758 60.8798 162.536C60.1519 161.314 60.0453 159.951 60.4715 158.906Z" fill="#AF9BE2"/>
<path d="M68.8345 161.508C69.2961 162.393 69.3139 163.739 68.799 165.067C68.2841 166.395 67.3608 167.369 66.4198 167.723C65.9581 166.838 65.9404 165.492 66.4553 164.164C66.9879 162.836 67.8935 161.862 68.8345 161.508Z" fill="#AF9BE2"/>
<path d="M69.1182 171.303C68.3547 171.959 67.0586 172.277 65.6381 172.083C64.2177 171.888 63.0636 171.215 62.5132 170.383C63.2767 169.728 64.5728 169.409 65.9933 169.604C67.3959 169.798 68.5678 170.471 69.1182 171.303Z" fill="#AF9BE2"/>
<path d="M72.4918 175.639C71.7283 176.295 70.4321 176.613 69.0117 176.419C67.5912 176.224 66.4371 175.551 65.8867 174.719C66.6502 174.063 67.9464 173.745 69.3668 173.939C70.7695 174.134 71.9236 174.807 72.4918 175.639Z" fill="#AF9BE2"/>
<path d="M74.7823 179.093C74.0188 179.748 72.7227 180.066 71.3022 179.872C69.8818 179.677 68.7277 179.004 68.1772 178.172C68.9407 177.517 70.2369 177.198 71.6573 177.393C73.06 177.587 74.2141 178.26 74.7823 179.093Z" fill="#AF9BE2"/>
<path d="M77.3213 182.901C76.5579 183.556 75.2617 183.875 73.8413 183.68C72.4208 183.485 71.2667 182.813 70.7163 181.98C71.4798 181.325 72.7759 181.006 74.1964 181.201C75.5991 181.414 76.7532 182.069 77.3213 182.901Z" fill="#AF9BE2"/>
<path d="M71.7642 165.227C72.2259 166.112 72.2436 167.458 71.7287 168.786C71.2138 170.114 70.2905 171.088 69.3495 171.442C68.8878 170.556 68.8701 169.211 69.385 167.883C69.9176 166.555 70.8409 165.581 71.7642 165.227Z" fill="#AF9BE2"/>
<path d="M74.5694 169.055C75.031 169.94 75.0488 171.286 74.5339 172.614C74.019 173.942 73.0957 174.916 72.1546 175.27C71.693 174.385 71.6752 173.039 72.1901 171.711C72.7228 170.383 73.6283 169.409 74.5694 169.055Z" fill="#AF9BE2"/>
<path d="M77.25 172.914C77.7117 173.799 77.7294 175.145 77.2145 176.473C76.6996 177.801 75.7763 178.775 74.8353 179.129C74.3737 178.244 74.3559 176.898 74.8708 175.57C75.3857 174.242 76.309 173.268 77.25 172.914Z" fill="#AF9BE2"/>
<path d="M79.8247 176.703C80.2864 177.588 80.3041 178.934 79.7892 180.262C79.2743 181.59 78.351 182.564 77.41 182.918C76.9484 182.033 76.9306 180.687 77.4455 179.359C77.9782 178.031 78.8837 177.057 79.8247 176.703Z" fill="#AF9BE2"/>
<path d="M71.5157 187.75H91.7391C95.0949 189.468 97.2255 192 97.2255 194.851C97.2255 197.896 94.793 200.588 91.0466 202.288H72.2259C68.4617 200.588 66.047 197.896 66.047 194.851C66.0292 192 68.1599 189.45 71.5157 187.75Z" fill="#405CE1"/>
<path d="M73.4152 189.344C71.4266 189.113 68.7455 190.601 68.053 193.629C67.112 199.578 73.0778 201.314 76.3448 199.809C73.504 199.1 70.3968 197.808 70.308 194.868C70.1482 193.328 71.0715 191.858 71.0715 191.823C71.1958 191.645 71.4443 191.203 71.9237 190.672C72.3676 190.176 72.8648 189.751 73.4152 189.344Z" fill="#F8F0A1"/>
<path d="M70.5621 188.262H92.8984V186.863H70.5621V188.262Z" fill="#6B9FC5"/>
<path d="M310.687 102.78V15.0039L224.307 15.0039V102.78L310.687 102.78Z" fill="#290096"/>
<path d="M309.03 16.6484H225.97V101.113H309.03V16.6484Z" fill="#F1ECFF"/>
<path d="M243.388 81.082H239.73V94.9115H243.388V81.082Z" fill="#D7CEEE"/>
<path d="M250.029 78.5859H246.371V94.9122H250.029V78.5859Z" fill="#D7CEEE"/>
<path d="M256.651 76.0898H252.994V94.9128H256.651V76.0898Z" fill="#D7CEEE"/>
<path d="M263.292 73.5898H259.634V94.9096H263.292V73.5898Z" fill="#D7CEEE"/>
<path d="M269.914 71.0781H266.257V94.8946H269.914V71.0781Z" fill="#D7CEEE"/>
<path d="M276.555 68.582H272.897V94.8953H276.555V68.582Z" fill="#D7CEEE"/>
<path d="M283.178 66.082H279.521V94.892H283.178V66.082Z" fill="#D7CEEE"/>
<path d="M289.819 63.5898H286.161V94.8966H289.819V63.5898Z" fill="#D7CEEE"/>
<path d="M296.459 61.0898H292.801V94.8934H296.459V61.0898Z" fill="#D7CEEE"/>
<path d="M303.082 58.5938H299.424V94.9117H303.082V58.5938Z" fill="#D7CEEE"/>
<path d="M304.041 44.4102C303.721 44.4633 294.95 46.0215 294.63 46.0215L297.631 46.8361C296.459 47.2788 290.191 49.6516 288.647 50.2359C288.185 52.29 287.848 53.7243 287.581 54.8753C286.161 54.7336 283.497 54.5034 281.189 54.2732C280.319 55.0523 273.608 61.0729 272.738 61.852C270.625 61.5864 267.997 61.2499 266.115 61.0197C264.304 62.5603 255.586 69.962 253.846 71.4317C252.106 70.8474 249.638 70.0151 248.129 69.5016C247.489 69.9443 236.374 77.647 235.7 78.0897L236.321 78.9751L248.288 70.688C250.064 71.29 252.39 72.0692 254.077 72.6358C255.533 71.3963 265.121 63.2509 266.452 62.1353C268.565 62.4009 271.175 62.7374 273.093 62.9853C273.572 62.5603 281.26 55.6544 281.562 55.3888C282.752 55.495 286.676 55.8669 288.433 56.0262C288.735 54.7336 289.446 51.6348 289.588 50.9973L298.11 47.1017L297.453 50.0234L304.041 44.4102Z" fill="#ECB2CD"/>
<path d="M117.378 158.559H112.708V194.328H117.378V158.559Z" fill="#56585E"/>
<path d="M118.106 194.646H112.051V189.227V184.871H118.106V194.646Z" fill="#0A2126"/>
<path d="M89.6973 201.108L112.051 189.227V194.645L96.0182 201.108V202.295H89.6973V201.108Z" fill="#0A2126"/>
<path d="M140.442 201.108L118.106 189.227V194.645L134.121 201.108V202.295H140.442V201.108Z" fill="#0A2126"/>
<path d="M113.046 189.227V202.295H111.537V203.215H118.106V202.295H116.721L117.147 189.227H113.046Z" fill="#0A2126"/>
<path d="M118.142 156.539H112.123V163.905H118.142V156.539Z" fill="#303030"/>
<path d="M99.6225 119.812L92.2007 123.903L98.1843 150.978L101.096 150.429L97.6694 125.284L101.7 123.549L99.6225 119.812Z" fill="#282859"/>
<path d="M127.268 119.812L135.08 125.922L133.784 151.597L130.624 150.924L131.725 128.79L125.475 124.664L127.268 119.812Z" fill="#282859"/>
<path d="M124.853 138.51H102.641L96.5329 100.846C95.432 94.082 100.67 87.9375 107.541 87.9375H119.935C126.806 87.9375 132.044 94.082 130.943 100.846L124.853 138.51Z" fill="#56548C"/>
<path d="M136.483 153.651H94.9175C94.9175 151.385 96.764 149.543 99.0367 149.543H132.364C134.636 149.543 136.483 151.385 136.483 153.651Z" fill="#56548C"/>
<path d="M126.77 92.3459L128.848 90.947C128.848 90.947 123.397 82.0224 123.965 74.3197C124.267 70.2647 117.591 64.2796 115.815 65.2003C115.709 65.1649 109.885 65.3243 109.37 78.5872L108.127 94.1166L114.412 99.6767C114.412 99.6767 118.372 92.8948 123.414 95.8696C128.457 98.8445 126.557 97.5695 126.557 97.5695C126.557 97.5695 126.77 93.7624 126.77 92.3459Z" fill="#002B32"/>
<path d="M104.061 92.6996C104.061 92.6996 104.008 107.485 105.517 110.62C107.026 113.754 106.352 132.435 106.352 132.435L123.681 132.949C123.681 132.949 125.901 115.525 125.901 110.761C125.901 105.998 127.641 92.6465 127.641 92.6465C127.641 92.6465 115.851 89.6362 104.061 92.6996Z" fill="#746C87"/>
<path d="M120.964 82.1658C121.231 82.4314 120.165 89.5321 121.195 91.6039C121.195 91.6039 118.425 106.903 116.561 107.133C114.945 107.328 114.075 94.3131 113.738 92.8257C113.294 90.8248 114.253 80.8555 114.253 80.8555L120.964 82.1658Z" fill="#FFC8AF"/>
<path d="M120.858 85.2823C118.372 87.5135 115.904 86.4687 114.022 83.6532C114.057 82.2367 114.253 80.944 114.271 80.8555L120.964 82.1658C121.071 82.2721 120.964 83.6001 120.858 85.2823Z" fill="#FFBC9D"/>
<path d="M119.97 65.7317C119.97 65.7317 123.024 66.3161 123.379 68.9191C123.734 71.5221 124.249 73.7001 123.734 76.7458C123.22 79.7915 121.409 83.8464 118.426 84.5016C115.443 85.1568 112.318 80.2341 112.318 77.5426C112.318 74.8688 111.235 70.3711 113.259 67.6087C115.336 64.8641 119.97 65.7317 119.97 65.7317Z" fill="#FFC8AF"/>
<path d="M108.518 131.409L105.251 132.932C105.251 132.932 101.557 137.023 100.741 144.229C99.9239 151.454 109.743 154.978 109.743 154.978L129.132 153.614C129.132 153.614 136.305 134.03 124.391 131.675C112.974 129.444 108.518 131.409 108.518 131.409Z" fill="#001542"/>
<path d="M119.438 142.211C119.438 142.211 119.544 145.628 119.722 145.699C121.355 146.337 128.475 145.54 129.256 149.595C130.126 154.128 115.691 187.188 116.65 192.093C117.609 196.998 118.905 201.23 119.686 202.009C120.467 202.788 120.485 203.461 119.81 204.134C119.136 204.807 116.224 204.028 115.407 203.213C114.59 202.399 113.614 196.077 112.14 194.607C110.666 193.138 110.098 192.217 111.803 188.746C113.507 185.275 117.946 158.378 118.497 155.598C119.047 152.8 118.159 151.578 118.159 151.578L111.394 147.293L119.438 142.211Z" fill="#FFC8AF"/>
<path d="M124.906 139.216C124.906 139.216 122.385 137.517 117.325 139.216C112.264 140.916 108.855 145.131 108.305 147.114C107.755 149.079 105.5 187.416 102.499 193.685C99.4983 199.953 99.3208 200.307 97.9891 201.635C96.6752 202.946 97.2789 206.204 97.9891 206.912C98.7171 207.62 104.275 206.168 104.914 203.99C105.553 201.812 106.92 196.73 107.471 195.19C108.021 193.649 111.874 179.058 115.532 172.152C119.207 165.246 120.396 150 120.396 148.725C120.396 147.45 126.842 146.972 126.842 146.972C126.842 146.972 128.227 139.96 124.906 139.216Z" fill="#FFC8AF"/>
<path d="M127.64 92.6484C127.64 92.6484 130.002 94.0119 130.321 95.7472C131.653 102.706 132.825 120.325 132.274 124.787C131.6 130.365 129.416 130.365 129.416 130.365L103.333 127.249L104.434 120.307C104.434 120.307 122.189 121.405 123.965 121.405C125.74 121.405 125.865 107.965 125.865 107.965L127.64 92.6484Z" fill="#4D475B"/>
<path d="M104.061 92.6992C104.061 92.6992 97.8645 92.6461 96.4973 100.544C95.1302 108.441 95.9469 130.345 98.8233 130.345C101.682 130.345 117.538 121.173 119.722 121.173C119.136 121.049 118.692 120.571 118.585 119.986L117.839 115.772C117.839 115.772 105.517 115.914 103.333 118.092C103.333 118.092 105.659 109.521 105.659 106.387C105.659 103.271 107.896 92.6992 104.061 92.6992Z" fill="#998DB6"/>
<path d="M125.172 118.323C125.172 118.323 118.265 116.021 118.07 117.101C117.573 119.969 119.189 121.28 119.189 121.28C119.189 121.28 123.876 121.988 124.622 121.227C125.368 120.483 125.172 118.323 125.172 118.323Z" fill="#FFC8AF"/>
<path d="M184.014 118.803L183.659 129.905C183.659 129.905 188.932 130.897 190.388 130.348C191.187 130.047 191.347 124.505 191.098 118.112C188.328 117.882 186.624 117.864 184.014 118.803Z" fill="#FFBC9D"/>
<path d="M191.098 118.11C190.885 112.975 190.423 107.291 189.82 103.289C188.453 94.2938 183.002 89.6367 183.002 89.6367L182.842 117.296L182.966 119.137C185.576 118.199 188.328 117.88 191.098 118.11Z" fill="white"/>
<path d="M163.346 90.1707C163.346 93.8008 163.968 111.915 165.069 117.706C166.17 123.496 157.452 133.572 157.452 138.441C157.452 143.328 163.826 150.411 163.826 150.411H185.132C185.132 150.411 191.684 138.512 189.323 132.934C186.961 127.356 183.676 131.535 185.31 123.532C186.943 115.546 187.103 104.602 186.198 96.9704C185.292 89.3385 181.155 87.0188 174.053 87.0188C166.933 87.0542 163.346 86.5407 163.346 90.1707Z" fill="#FBD15B"/>
<path d="M182.842 135.072C182.842 135.072 172.811 132.009 167.999 136.79C163.205 141.571 163.809 150.407 163.809 150.407H185.115C185.115 150.424 192.04 140.703 182.842 135.072Z" fill="#D29F10"/>
<path d="M178.421 141.465C176.93 137.835 175.278 137.145 173.911 137.145C171.425 137.145 167.501 138.508 165.815 142.811C164.021 147.362 157.115 175.162 155.907 180.298C155.037 183.963 153.35 186.495 151.557 188.585C147.775 194.269 148.876 197.917 151.433 200.626C151.433 200.962 154.185 201.67 157.257 193.153C157.949 191.258 158.251 190.09 159.085 185.964C159.884 181.838 179.913 145.095 178.421 141.465Z" fill="#FFBC9D"/>
<path d="M156.901 194.093C155.889 194.73 153.474 196.182 152.498 196.182C151.557 196.182 150.261 193.42 149.71 192.109C148.325 195.97 149.426 198.838 151.432 200.945C151.805 201.388 153.972 201.636 156.901 194.093Z" fill="#292959"/>
<path d="M188.559 143.609C188.648 139.643 186.18 138.793 184.245 138.456C181.794 138.013 178.598 140.811 175.953 144.937C173.307 149.063 167.253 177.289 166.045 182.424C165.193 186.089 163.489 188.621 161.695 190.711C157.913 196.395 159.014 200.113 161.571 202.823C161.571 203.159 164.323 203.814 167.395 195.297C168.087 193.402 168.389 192.234 169.224 188.108C170.04 183.982 188.488 147.54 188.559 143.609Z" fill="#FFC8AF"/>
<path d="M166.56 197.423C165.353 197.83 164.11 198.096 163.116 197.937C161.163 197.618 160.808 194.377 160.808 192.182C158.126 197.087 159.245 200.61 161.589 203.089C161.997 203.337 163.844 203.745 166.56 197.423Z" fill="#292959"/>
<path d="M176.645 119.385L181.475 128.274C181.51 128.345 181.493 128.434 181.422 128.469C181.351 128.505 181.262 128.487 181.226 128.416L176.113 119.686C176.024 119.545 176.077 119.35 176.219 119.261C176.379 119.173 176.557 119.226 176.645 119.385C176.645 119.368 176.645 119.368 176.645 119.385Z" fill="#99CEDC"/>
<path d="M179.113 122.273C178.066 121.228 176.468 122.645 175.012 123.105C173.556 123.566 159.902 123.459 157.984 123.017C157.274 122.857 157.612 120.679 158.322 117.74C156.102 117.014 153.688 116.801 151.433 117.067C150.687 124.221 150.438 130.56 151.433 131.197C153.617 132.632 171.798 126.735 173.627 126.735C175.456 126.735 174.55 127.585 177.285 127.585C178.9 127.585 180.019 127.284 180.658 127.036C181.049 126.895 181.244 126.452 181.084 126.062C180.694 125.018 179.859 123.034 179.113 122.273Z" fill="#FFC8AF"/>
<path d="M158.073 118.8C158.144 118.464 158.233 118.092 158.322 117.72C156.102 116.994 153.688 116.782 151.433 117.047C151.344 117.951 151.255 118.836 151.184 119.686C152.533 119.438 155.889 118.836 158.073 118.8Z" fill="#FFBC9D"/>
<path d="M158.322 117.739C160.594 112.799 164.27 104.529 164.572 101.218C165.033 95.959 163.879 87.9375 163.879 87.9375C163.879 87.9375 157.665 91.78 155.658 96.2246C154.558 98.6505 151.166 109.08 150.261 117.739C152.533 117.474 156.102 116.995 158.322 117.739Z" fill="white"/>
<path d="M172.188 129.619H185.292C185.292 129.619 176.29 126.715 172.188 129.619Z" fill="#CEF2FA"/>
<path d="M197.845 129.619H185.274C185.274 129.619 190.122 128.609 193.389 128.609C196.656 128.609 197.845 129.619 197.845 129.619Z" fill="#5DB9F4"/>
<path d="M195.626 125.583C195.626 125.583 189.518 125.406 185.292 129.62C185.292 129.62 187.299 128.186 190.584 127.354C193.868 126.504 196.106 126.557 196.106 126.557L195.626 125.583Z" fill="#5DB9F4"/>
<path d="M171.319 129.617H185.292L172.082 129.316L171.319 129.617Z" fill="#00485C"/>
<path d="M196.23 115.08C195.254 108.741 196.053 101.339 196.053 101.339C196.053 101.339 197.757 99.8696 200.03 100.472C202.302 101.074 203.51 101.446 203.279 100.808C203.066 100.171 200.101 99.1436 200.101 99.1436C200.101 99.1436 202.942 99.1082 204.398 99.8519C205.854 100.596 206.191 99.1613 202.143 98.4353C198.094 97.727 199.426 97.3375 200.101 97.1073C200.776 96.8771 204.824 97.9218 205.889 97.1604C206.883 96.4521 200.42 95.7438 198.521 95.974C206.795 93.6366 204.22 92.6096 196.372 95.3011C194.117 96.0625 192.111 99.427 192.058 99.4978C191.862 99.7634 189.643 109.998 189.519 117.807C191.649 116.816 194.259 116.32 196.23 115.08Z" fill="#FFBC9D"/>
<path d="M190.743 102.207C190.14 102.809 183.126 128.945 187.121 129.99C191.116 131.035 195.999 126.041 195.999 126.041L196.958 104.474L190.743 102.207Z" fill="#333A6A"/>
<path d="M246.265 100.936C247.081 99.0767 250.526 98.5986 251.627 98.2444C252.728 97.8903 253.74 95.6946 254.485 95.4644C255.213 95.2342 255 97.6955 253.882 98.333C252.763 98.9704 254.201 99.9443 255.054 99.9443C255.924 99.9443 259.066 99.7141 259.777 98.0851C260.505 96.456 261.836 95.4998 262.014 96.0664C262.191 96.633 260.345 99.0944 260.345 99.0944C260.345 99.0944 263.328 96.3851 263.541 97.058C263.754 97.7309 261.037 99.6787 261.037 99.6787C261.037 99.6787 262.866 98.8465 263.399 99.1475C263.931 99.4662 259.049 102.477 258.072 102.778C257.113 103.079 253.296 102.884 251.414 102.689C250.633 102.6 250.224 106.478 248.875 111.543C248.182 110.303 244.826 109.241 243.868 108.214C245.483 104.778 245.927 101.68 246.265 100.936Z" fill="#FFC8AF"/>
<path d="M243.957 104.652L237.795 130.505C237.795 130.505 243.584 131.355 246.016 130.505C248.449 129.655 251.485 112.514 251.485 105.024L243.957 104.652Z" fill="#333A6A"/>
<path d="M291.755 152.358L278.882 154.837L270.714 151.597L278.882 143.168L291.755 152.358Z" fill="#47405C"/>
<path d="M297.898 94.8594C297.898 94.8594 295.803 96.1166 293.299 102.208C290.796 108.299 290.796 120.907 288.345 122.058C286.197 123.067 268.974 125.174 264.713 125.67C264.109 125.741 263.577 126.078 263.257 126.591L261.038 130.133L272.596 130.504C272.596 130.504 285.735 137.038 289.091 134.807C292.447 132.576 302.195 114.143 303.455 108.707C304.716 103.27 297.898 94.8594 297.898 94.8594Z" fill="#28288A"/>
<path d="M272.579 120.287C272.028 120.287 266.577 119.012 266.577 119.012L265.299 124.643L270.945 126.998L272.579 120.287Z" fill="white"/>
<path d="M261.659 196.164C261.659 196.164 259.741 201.972 254.361 203.424C252.337 203.973 243.104 208.506 244.827 208.506C245.484 208.506 264.624 208.577 264.624 208.577C264.624 208.577 266.044 206.063 265.512 203.796C264.961 201.529 267.607 196.164 267.607 196.164H261.659Z" fill="#292959"/>
<path d="M48.9839 62.4922C48.9839 62.4922 50.5996 72.1073 55.6422 78.5705C59.4241 83.4047 67.3253 88.7877 67.3253 88.7877L62.8509 93.675L50.5109 83.5286L48.9839 62.4922Z" fill="#FFCF52"/>
<path d="M42.2194 53.4961H32.3296L32.6492 85.9538L45.7882 86.8392L42.2194 53.4961Z" fill="#260E0D"/>
<path d="M53.3167 209.002C58.8919 209.002 58.7499 211.286 58.7499 211.286H42.4326C42.4326 211.286 43.2494 204.256 43.3737 202.609H47.2088C47.635 204.628 49.0376 209.002 53.3167 209.002Z" fill="#292959"/>
<path d="M26.0439 209.832C31.122 209.832 32.1518 203.705 32.2938 202.59H35.9515C35.9515 202.891 35.9515 203.086 35.9515 203.121C35.9515 203.882 36.9103 212.116 36.9103 212.116C36.9103 212.116 32.8265 212.116 30.1099 212.116C27.3933 212.116 20.593 212.116 20.593 212.116C20.593 212.116 20.4687 209.832 26.0439 209.832Z" fill="#292959"/>
<path d="M27.5002 165.654L22.2979 121.739L23.7716 108.742H52.4466L52.6597 120.199L55.6604 164.839C55.6604 164.839 48.1853 202.007 48.3096 202.609H42.8764C42.8942 202.468 44.4034 161.865 44.4034 161.865L38.2245 125.67L35.8098 163.635C35.8098 163.635 36.9106 197.864 36.9284 202.592H31.8325C31.8503 202.485 27.5002 165.654 27.5002 165.654Z" fill="#2F1954"/>
<path d="M23.5757 110.442L23.771 108.742H52.4461L52.4816 110.247L46.4625 112.284C41.562 113.948 36.3419 114.072 31.3703 112.673L23.5757 110.442Z" fill="#0E0E0E"/>
<path d="M21.7825 62.1367C24.9075 58.6484 32.1162 53.0705 40.0706 54.4163L48.3802 58.0994L50.8304 75.984L52.9966 110.053L23.3627 110.39L20.5574 77.2235C20.5574 77.2235 18.6575 65.6251 21.7825 62.1367Z" fill="white"/>
<path d="M41.0651 46.3769C41.0651 46.3769 41.1538 53.3714 41.8285 56.9306C42.0949 58.3117 41.4557 59.7106 40.2838 60.2241C39.4138 60.596 38.2775 60.8262 36.8393 60.5429C33.1106 59.8346 32.9863 55.6556 32.9863 55.6556L34.247 42.9062L41.0651 46.3769Z" fill="#FFC8AF"/>
<path d="M34.247 42.9219L41.0829 46.3925C41.0829 46.3925 41.1184 48.9778 41.2959 51.7933C39.5204 51.8818 37.2655 50.8725 34.904 47.8268C34.5489 47.3664 34.2293 46.9238 33.9097 46.4811L34.247 42.9219Z" fill="#FFBC9D"/>
<path d="M40.6211 28.4737C40.6211 28.4737 42.9648 30.4569 43.9768 33.7859C44.9889 37.1149 45.8767 39.5231 45.8767 39.5231L44.7936 40.2314C44.7936 40.2314 45.6459 44.8708 44.9889 46.4644C43.9768 48.8727 39.7155 50.8205 34.8683 45.402C30.0388 39.9658 29.6304 35.2025 30.4472 32.8651C31.2817 30.5278 38.739 27.2696 40.6211 28.4737Z" fill="#FFC8AF"/>
<path d="M33.3593 33.6442C33.3593 33.6442 35.5077 31.661 38.5972 32.5109C41.6866 33.3609 42.7342 32.0505 42.1305 31.3776C42.1305 31.3776 44.8471 31.4485 45.8591 28.9694C46.8712 26.4904 46.6226 18.9824 41.8109 20.399C36.9992 21.8156 37.9757 25.2154 37.9757 25.2154C37.9757 25.2154 36.431 23.5864 34.975 24.4363C33.5191 25.2863 33.7144 26.4904 33.7144 26.4904C33.7144 26.4904 32.3827 29.2527 30.5539 29.6069C28.7251 29.961 28.9027 34.0692 28.9027 34.0692C28.9027 34.0692 27.8196 34.9191 28.5831 37.894C29.3466 40.8688 33.8032 45.4905 33.8032 46.9071C33.8032 46.9071 34.904 45.0478 34.0162 42.1438C33.1285 39.2397 33.1285 37.5398 34.0873 37.5398C35.0638 37.5398 33.3593 33.6442 33.3593 33.6442Z" fill="#121841"/>
<path d="M34.7263 39.471C34.7263 39.471 34.4244 37.0273 33.732 37.0273C33.0395 37.0273 32.4003 37.293 32.5779 38.6741C32.7377 40.0553 33.4479 41.5959 34.3534 40.9584C35.2412 40.3209 34.7263 39.471 34.7263 39.471Z" fill="#FFC8AF"/>
<path d="M26.5945 33.8383C26.6655 33.6258 26.8253 33.4133 27.0206 33.3071C27.6598 33.006 28.5298 33.6612 29.0802 34.1216L29.169 33.9976C28.7784 33.555 28.3877 33.1123 27.8196 32.829C26.9851 32.4394 26.2393 32.829 25.9375 33.5904L26.5945 33.8383Z" fill="#121841"/>
<path d="M26.541 36.9936C26.4877 36.6395 26.4877 36.2322 26.5588 35.8604C26.9671 34.0188 28.9735 34.1782 29.0623 34.125V34.0188C29.009 34.0365 26.1681 33.4167 25.7598 36.3916C25.7243 36.6572 25.7065 36.8697 25.7243 37.1884L26.541 36.9936Z" fill="#121841"/>
<path d="M43.2134 54.7344L45.4151 120.872H59.1578L55.1095 90.8399L52.4462 72.5835C52.4462 72.5835 51.1501 60.2945 48.3625 58.1165C45.5749 55.9031 43.2134 54.7344 43.2134 54.7344Z" fill="#F9C53F"/>
<path d="M32.1872 54.3828L33.6431 120.874H18.9061C18.9061 120.874 18.3557 68.1769 19.9892 62.6699C21.6049 57.1452 32.1872 54.3828 32.1872 54.3828Z" fill="#F9C53F"/>
<path d="M48.5579 57.197L42.2192 53.4961L44.2789 86.3788L47.7412 67.7329L46.5161 66.8829L48.5579 57.197Z" fill="#FFCF52"/>
<path d="M32.8798 86.0601L32.3293 53.4961L26.6831 56.0637L29.7548 66.8652L28.9913 67.4673L32.8798 86.0601Z" fill="#FFCF52"/>
<path d="M58.7494 95.7278L79.1682 80.1629L57.5421 78.1797L41.207 95.7278H58.7494Z" fill="#1E3340"/>
<path d="M47.3859 89.1211C47.3859 89.1211 45.1665 89.6346 44.3497 90.52C43.3021 91.6533 40.8164 93.5125 39.7688 93.5125C38.7212 93.5125 34.2824 93.9552 34.2824 93.9552L33.5366 98.931C33.5366 98.931 50.1202 95.0708 50.9015 94.2031C51.6827 93.3532 47.013 94.8406 47.013 94.451C47.013 94.0792 52.6415 93.6365 52.3397 92.6803C52.0556 91.7241 47.1551 93.9729 46.7112 93.4948C46.285 93.0167 52.6237 92.2376 52.6237 91.2106C52.6237 90.2012 46.3028 92.6803 46.3028 92.6803C46.3028 92.6803 46.1785 92.1668 47.9008 91.3522C49.6053 90.5377 51.2743 89.8648 50.8837 89.4575C50.5108 89.0503 46.1252 91.671 45.5571 91.0335L47.3859 89.1211Z" fill="#FFC8AF"/>
<path d="M24.0376 61.3758C24.0376 61.3758 26.4523 65.8735 25.9729 72.3367C25.4935 78.7999 24.6767 88.7161 26.0262 91.9565C27.3756 95.197 37.2654 91.9565 37.2654 91.9565V99.6061C37.2654 99.6061 22.9367 105.538 18.7819 103.59C14.6094 101.642 15.0178 84.9444 15.0178 76.7458C15.0178 68.565 21.392 55.4969 24.0376 61.3758Z" fill="#FFCF52"/>
<path d="M64.7687 88.9257C64.7687 88.9257 65.0528 89.2798 65.5145 90.3777C65.9583 91.4401 64.7155 92.538 64.4846 92.7682C64.023 93.2109 63.1885 93.7952 62.6736 94.0963C62.1587 94.3973 61.8213 94.5567 61.3242 94.6629C60.5962 94.8223 58.9627 92.1839 59.1935 91.9182C59.3533 91.7412 59.5309 91.6172 59.6907 91.6703C59.8682 91.7235 61.6793 93.1755 61.6793 93.1755C61.6793 93.1755 60.0458 91.086 60.2233 90.4662C60.4009 89.8465 60.756 89.9173 60.898 90.0767C61.0401 90.236 63.1175 92.1839 63.1175 92.1839C63.1175 92.1839 61.7148 89.7048 61.8391 89.2975C61.9634 88.8903 62.5315 88.607 63.1707 89.6163C63.5258 90.1829 64.4846 91.086 64.4846 91.086C64.4846 91.086 63.7034 89.209 63.881 88.607C64.0763 88.0226 64.7687 88.9257 64.7687 88.9257Z" fill="#FFC8AF"/>
<path d="M220.697 203.691C220.697 203.691 220.75 203.939 220.874 204.329C221.265 205.498 222.33 207.906 224.798 208.508C228.083 209.305 230.675 208.437 231.261 209.039C231.847 209.623 232.078 211.465 232.078 211.465L212.352 212.386L213.523 204.347L220.697 203.691Z" fill="#292959"/>
<path d="M204.664 155.296L212.227 206.258L222.366 204.646L220.715 154.941L204.664 155.296Z" fill="#EC827D"/>
<path d="M211.215 201.902C211.215 201.902 208.712 204.027 208.712 206.258L200.047 212.633H196.993C196.993 212.633 203.385 204.665 204.663 202.664C205.942 200.663 205.995 198.715 205.995 198.715L211.215 201.902Z" fill="#4C3D65"/>
<path d="M238.612 154.145C235.807 145.699 228.065 149.612 228.065 149.612C223.236 150.515 216.063 167.125 215.05 172.313C214.323 176.049 207.203 193.049 203.296 202.239C206.013 200.769 209.6 201.619 211.162 204.169C219.454 190.499 239.535 156.925 238.612 154.145Z" fill="#EC827D"/>
<path d="M205.534 203.23C205.534 203.23 207.895 203.92 208.659 205.478C209.422 207.037 205.534 210.082 205.534 211.464C205.534 212.845 206.563 214.013 205.534 214.527C204.504 215.04 196.106 215.129 196.567 213.447C197.029 211.765 200.331 209.888 201.681 207.78C203.03 205.691 204.22 202.663 205.534 203.23Z" fill="#292959"/>
<path d="M229.219 152.354C229.219 152.354 241.915 148.707 237.795 157.348C236.996 159.012 200.402 161.527 200.402 158.481C200.402 155.418 202.728 152.372 202.728 152.372H229.219V152.354Z" fill="#EC827D"/>
<path d="M201.219 97.6561C201.219 97.6561 205.534 95.903 210.754 95.4603C213.612 95.2124 216.471 96.1332 219.702 96.1332C228.811 96.1332 237.582 98.5414 238.541 102.951C239.5 107.377 227.515 150.424 230.249 153.151C232.983 155.878 206.137 157.596 202.764 154.231C199.408 150.867 191.4 101.463 201.219 97.6561Z" fill="#000945"/>
<path d="M213.488 87.2437L210.771 96.3985C210.771 96.3985 217.891 99.1962 222.668 96.3985L221.158 86.2344L213.488 87.2437Z" fill="#FFC8AF"/>
<path d="M201.219 97.6562C201.219 97.6562 193.567 107.909 191.933 112.796C190.3 117.701 185.825 126.024 186.198 128.184C186.571 130.344 189.234 132.487 193.691 131.424C198.148 130.362 197.828 126.059 197.828 126.059L201.219 97.6562Z" fill="#000945"/>
<path d="M238.31 102.207C238.31 102.207 247.916 128.609 246.016 130.504C244.116 132.398 237.795 130.504 237.795 130.504L230.853 117.01L238.31 102.207Z" fill="#000945"/>
<path d="M296.158 64.7598C296.158 64.7598 292.589 69.4346 292.039 72.6219C291.488 75.8978 290.813 81.1215 290.813 81.1215H292.269C292.269 81.1215 293.477 84.0255 293.477 85.9556C293.477 87.8857 296.548 86.6816 298.324 86.6816C300.1 86.6816 304.059 85.1588 305.604 79.5987C307.149 74.0208 309.989 64.1224 296.158 64.7598Z" fill="#FFC8AF"/>
<path d="M300.366 91.2148L298.182 92.8262L297.418 95.7656L300.526 94.3491L300.366 91.2148Z" fill="#28288A"/>
<path d="M304.006 79.5078L309.421 91.9207C309.421 91.9207 299.034 95.3383 299.567 94.8247C300.099 94.2935 298.892 85.1565 298.892 85.1565L304.006 79.5078Z" fill="#FFC8AF"/>
<path d="M291.31 61.375C291.151 61.6583 288.345 67.3424 293.175 69.5205C298.022 71.6985 299.212 68.5642 300.508 70.4944C301.804 72.4245 299.389 75.5587 300.437 77.3294L302.052 77.6305C302.052 77.6305 302.372 76.6743 303.029 76.6743C303.686 76.6743 303.864 81.5615 304.893 81.5615C305.941 81.5615 307.947 77.4003 308.924 75.4702C309.9 73.54 311.907 67.006 308.196 65.3238C304.485 63.6239 302.869 64.9165 302.869 63.3051C302.869 61.6938 301.253 63.3937 301.253 63.3937C301.253 63.3937 300.366 62.1896 300.934 60.8084C301.502 59.4449 296.974 58.9491 295.927 61.6938C294.879 64.4384 293.104 58.4002 291.31 61.375Z" fill="#2D1175"/>
<path d="M311.712 172.312H307.042V206.771H311.712V172.312Z" fill="#56585E"/>
<path d="M312.44 207.055H306.385V201.849V197.652H312.44V207.055Z" fill="#0A2126"/>
<path d="M284.049 213.287L306.385 201.848V207.054L290.37 213.287V214.42H284.049V213.287Z" fill="#0A2126"/>
<path d="M334.794 213.287L312.44 201.848V207.054L328.473 213.287V214.42H334.794V213.287Z" fill="#0A2126"/>
<path d="M307.38 201.848V214.42H305.888V215.305H312.44V214.42H311.055L311.499 201.848H307.38Z" fill="#0A2126"/>
<path d="M312.368 165.02H306.385V177.061H312.368V165.02Z" fill="#303030"/>
<path d="M245.252 174.281C245.252 174.281 240.902 178.637 239.446 180.089C237.99 181.541 229.858 182.285 231.474 183.896C233.09 185.508 237.262 187.597 239.162 187.597C241.062 187.597 248.342 185.968 248.342 185.968C248.342 185.968 249.176 178.69 250.171 177.699L245.252 174.281Z" fill="#292959"/>
<path d="M270.945 136.863C264.748 136.863 243.086 172.278 243.086 172.278L245.253 174.279L251.076 178.6C252.071 177.608 274.727 149.613 274.727 149.613C274.727 149.613 283.516 153.19 290.263 153.19C296.992 153.19 305.071 139.307 305.071 139.307C304.29 138.528 277.124 136.863 270.945 136.863Z" fill="#28288A"/>
<path d="M315.795 136.541C315.813 136.417 315.813 136.293 315.831 136.17C316.292 130.91 317.713 89.1562 310.344 89.1562C310.344 89.1562 301.839 90.6791 296.424 97.5496C295.518 98.7006 295.341 99.7453 294.95 101.321C292.251 111.857 290.476 131.371 290.724 138.773C299.016 142.066 308.338 141.854 315.795 136.541Z" fill="white"/>
<path d="M307.503 85.5625C306.776 85.5625 299.336 92.7163 299.336 92.7163L298.697 96.8244L310.344 91.406L307.503 85.5625Z" fill="white"/>
<path d="M299.247 93.2148L297.436 93.9586L295.536 97.8896L296.619 97.5532L298.821 95.9064L299.247 93.2148Z" fill="#EC827D"/>
<path d="M296.619 97.5547C296.619 97.5547 292.216 119.848 291.186 139.45L288.345 141.983C288.345 141.983 288.7 138.902 288.7 134.457C288.7 130.012 293.317 101.096 295.536 97.8911L296.619 97.5547Z" fill="#EC827D"/>
<path d="M310.326 89.1406C310.326 89.1406 308.107 89.5479 305.195 90.8405C304.378 94.1341 299.815 101.713 297.791 109.823C296.282 115.879 292.731 123.776 292.145 128.805C291.648 133.144 290.831 136.845 290.529 139.394C289.837 145.521 287.031 155.951 287.031 155.951L313.522 152.339C313.522 152.339 315.351 141.413 315.795 136.154C316.275 130.913 317.713 89.1406 310.326 89.1406Z" fill="#28288A"/>
<path d="M306.917 146.85L301.768 146.266C299.78 146.036 298.341 144.247 298.572 142.264L299.709 132.312L312.084 133.711L310.948 143.663C310.717 145.664 308.906 147.081 306.917 146.85Z" fill="#3C3C6D"/>
<path d="M306.598 88.043L299.531 94.0281L292.429 128.257C292.429 128.257 300.561 114.055 300.348 112.585C300.135 111.116 298.874 109.823 298.874 109.823C298.874 109.823 306.598 90.5751 306.598 88.043Z" fill="#28288A"/>
<path d="M308.977 86.3789L306.598 88.0434L305.71 91.5495L311.338 89.4423L308.977 86.3789Z" fill="#28288A"/>
<path d="M311.783 165.404H306.065C304.538 165.404 303.295 164.164 303.295 162.642V157.152H314.552V162.642C314.552 164.164 313.327 165.404 311.783 165.404Z" fill="#303030"/>
<path d="M318.37 131.356C318.37 131.356 292.394 131.179 291.577 132.985C290.76 134.792 291.986 155.97 291.986 155.97L295.075 155.421C295.075 155.421 293.797 137.465 295.714 135.553C297.632 133.641 318.654 136.545 318.921 136.261C319.187 135.996 318.37 131.356 318.37 131.356Z" fill="#282859"/>
<path d="M291.24 132.432C289.855 133.884 291.506 149.608 291.754 151.574C291.95 142.685 291.683 135.248 292.127 133.282C293.565 132.397 304.414 132.025 313.203 131.352C310.202 131.175 293.299 130.573 291.24 132.432ZM292.11 133.264C292.11 133.247 292.11 133.247 292.11 133.264C292.127 133.247 292.127 133.247 292.11 133.264Z" fill="#282859"/>
<path d="M330.391 157.314H284.155C284.155 154.569 286.375 152.355 289.127 152.355H330.391V157.314Z" fill="#56548C"/>
<path d="M326.023 99.2148C326.023 99.2148 315.103 104.439 315.103 121.792C315.103 139.145 321.477 152.337 321.477 152.337H330.39C330.39 152.337 318.92 127.883 324.194 117.436C329.467 107.024 338.398 101.216 326.023 99.2148Z" fill="#56548C"/>
<path d="M324.194 117.473C329.236 107.504 337.599 101.766 327.567 99.5352C334.989 102.032 327.319 107.681 322.578 117.03C317.305 127.46 328.775 151.931 328.775 151.931V156.89H284.173C284.155 157.031 284.155 157.191 284.155 157.332H330.391V152.374C330.391 152.356 318.92 127.902 324.194 117.473Z" fill="#084F60"/>
<path d="M307.841 92.4897C304.538 93.2688 300.597 95.677 298.431 102.211C296.264 108.745 294.063 117.847 291.151 119.175C288.239 120.503 269.294 118.998 269.294 118.998L268.814 127.48C268.814 127.48 289.482 133.536 295.022 132.933C300.561 132.331 310.291 112.694 313.256 105.611C318.974 91.9408 311.321 91.6752 307.841 92.4897Z" fill="#28288A"/>
<path d="M278.456 159.371C275.952 171.376 268.157 199.425 268.157 199.425L258.658 196.68C258.658 196.68 264.589 151.721 269.4 146.94C274.194 142.159 280.959 147.383 278.456 159.371Z" fill="#28288A"/>
<path d="M264.855 126.557C264.855 126.557 267.483 126.15 268.832 127.513C270.182 128.859 270.732 130.435 270.732 130.435L261.038 130.152C261.02 130.134 262.529 126.451 264.855 126.557Z" fill="#313B3D"/>
<path d="M261.02 130.134C261.02 130.134 262.529 126.433 264.837 126.539C264.837 126.539 267.465 126.132 268.815 127.496C269.045 127.726 269.258 127.974 269.454 128.222C269.205 127.814 268.921 127.389 268.584 126.982C267.234 125.353 265.512 125.76 264.606 125.831C262.298 126.044 260.789 130.169 260.789 130.169L261.02 130.134Z" fill="white"/>
<path d="M264.73 126.557C264.73 126.557 263.417 126.433 262.937 126.893C262.458 127.354 262.156 127.69 261.996 127.849C261.836 127.991 261.978 129.886 264.162 130.364C266.346 130.842 265.956 129.815 266.595 130.063C267.216 130.328 267.944 130.736 268.246 130.417C268.566 130.116 268.974 130.86 269.436 130.417C269.897 129.974 268.637 127.177 267.926 126.486C267.216 125.795 266.684 126.043 266.115 126.043C265.529 126.043 264.73 126.557 264.73 126.557Z" fill="#FFC8AF"/>
<path d="M271.779 134.773H269.223V209.8H271.779V134.773Z" fill="#3C3C6D"/>
<path d="M70.6813 134.312H68.1245V209.339H70.6813V134.312Z" fill="#3C3C6D"/>
<path d="M94.4733 132.438H91.9165V207.464H94.4733V132.438Z" fill="#3C3C6D"/>
<path d="M280.693 129.621H60.8623V134.827H280.693V129.621Z" fill="#878CF0"/>
<path d="M226.148 160.041H197.295L189.359 116.977C187.938 109.239 194.739 102.227 203.67 102.227H219.756C228.687 102.227 229.362 112.621 228.918 120.961L227.71 137.996L226.148 160.041Z" fill="#46467C"/>
<path d="M192.359 120.658C190.939 112.92 197.739 105.908 206.67 105.908H222.756C224.639 105.908 226.148 106.368 227.355 107.165C226.006 104.208 223.68 102.207 219.774 102.207H203.687C194.756 102.207 187.956 109.219 189.376 116.957L197.295 160.04H199.603L192.359 120.658Z" fill="#56548C"/>
<path d="M218.175 167.125H213.505V212.244H218.175V167.125Z" fill="#666E9E"/>
<path d="M218.903 212.58H212.849V206.648V201.867H218.903V212.58Z" fill="#371C45"/>
<path d="M190.512 219.681L212.849 206.648V212.58L196.833 219.681V220.991H190.512V219.681Z" fill="#371C45"/>
<path d="M241.257 219.681L218.903 206.648V212.58L234.936 219.681V220.991H241.257V219.681Z" fill="#371C45"/>
<path d="M213.843 206.648V220.991H212.352V222.001H218.903V220.991H217.518L217.962 206.648H213.843Z" fill="#371C45"/>
<path d="M218.85 163.141H212.831V167.727H218.85V163.141Z" fill="#303030"/>
<path d="M241.915 163.14H189.855C189.855 159.935 192.466 157.332 195.679 157.332H236.073C239.304 157.314 241.915 159.917 241.915 163.14Z" fill="#3C3C6D"/>
<path d="M210.399 93.3711C210.399 93.3711 218.779 96.7001 222.65 93.619L223.822 96.3105C223.822 96.3105 222.49 98.6302 217.11 99.0375C211.73 99.4448 209.103 95.6377 209.103 95.6377L210.399 93.3711Z" fill="#333A6A"/>
<path d="M211.535 80.3604C211.535 80.3604 209.617 78.9083 209.617 79.9708C209.617 81.0509 209.404 84.8403 211.198 83.7779C212.991 82.7332 211.535 80.3604 211.535 80.3604Z" fill="#FFC8AF"/>
<path d="M213.737 69.7502C213.737 69.7502 210.097 68.5638 209.102 72.2469C208.108 75.9301 210.754 79.7195 210.754 81.561C210.754 83.4026 211.748 85.5098 213.47 87.2451C215.21 88.9805 219.259 90.7866 219.259 90.7866C219.259 90.7866 223.768 88.0065 225.313 84.9432C226.858 81.8798 225.935 79.8257 226.538 75.2395C227.16 70.6355 223.999 69.1127 222.65 69.1127C221.318 69.095 216.702 64.1015 213.737 69.7502Z" fill="#170053"/>
<path d="M243.086 141.979L227.763 137.375L227.479 141.359L237.795 143.661L235.274 157.508L238.203 157.721L243.086 141.979Z" fill="#282859"/>
<path d="M179.397 88.3252C179.397 87.2097 178.51 86.8555 177.427 86.6076C173.698 85.7754 168.886 85.6337 169.241 86.9263C169.703 88.6085 173.272 90.9282 175.722 90.9282C178.154 90.9282 179.309 88.945 179.309 88.945L179.397 88.3252Z" fill="#4B2847"/>
<path d="M176.646 83.083L177.427 92.043C177.427 92.043 174.16 93.6544 170.094 91.7597L171.727 77.0625L176.646 83.083Z" fill="#FFC8AF"/>
<path d="M176.645 83.0844L176.983 86.9446C176.61 86.9269 176.237 86.8206 175.846 86.6258C172.721 84.9436 172.26 80.322 172.207 77.6836L176.645 83.0844Z" fill="#FFBC9D"/>
<path d="M182.274 67.6458C182.274 67.6458 183.712 68.7614 184.031 70.7978C184.351 72.8341 183.002 75.1007 183.002 76.8183C183.002 78.5359 179.823 86.6813 175.846 84.7512C171.887 82.8211 172.206 76.6235 172.206 75.2423C172.206 73.8611 174.142 69.0447 176.485 67.9291C178.847 66.7959 182.274 67.6458 182.274 67.6458Z" fill="#FFC8AF"/>
<path opacity="0.53" d="M182.274 67.6409C182.274 67.6409 183.712 68.7564 184.032 70.7928C184.351 72.8291 184.689 76.4946 183.002 76.8133C182.025 76.9904 178.634 71.3948 179.593 67.3398C181.066 67.3398 182.274 67.6409 182.274 67.6409Z" fill="#FFBC9D"/>
<path d="M169.241 86.9258L168.247 91.3172C169.383 93.088 175.189 102.207 176.734 104.651C177.693 106.174 178.776 95.9035 179.397 88.3247C175.154 89.6704 172.775 90.3433 169.241 86.9258Z" fill="white"/>
<path d="M301.644 74.9212C301.644 74.9212 301.573 78.1085 302.337 78.1085C303.1 78.1085 304.787 76.3023 304.503 74.3899C304.219 72.4598 301.999 72.69 301.644 74.9212Z" fill="#FFC8AF"/>
<path d="M302.177 74.5645C302.177 74.5645 301.786 75.8217 302.372 76.4061C302.94 76.9727 304.059 75.6093 303.455 74.5645C302.834 73.5375 302.301 73.8385 302.177 74.5645Z" fill="#FFBC9D"/>
<path d="M289.18 67.1836C289.145 67.4492 289.411 67.9096 289.571 68.1221C290.423 69.2199 292.074 69.3793 293.175 69.521C293.033 69.521 291.559 69.822 290.317 69.4678C288.985 69.1137 288.186 68.246 287.955 67.3607L289.18 67.1836Z" fill="#2D1175"/>
<path d="M100.297 204.45C99.6224 204.45 99.143 201.953 98.93 200.59C98.6636 200.944 98.3796 201.245 98.0067 201.599C96.6928 202.91 97.2965 206.168 98.0067 206.876C98.7347 207.584 104.292 206.132 104.931 203.954C105.02 203.636 105.127 203.281 105.251 202.856C103.813 203.423 100.972 204.45 100.297 204.45Z" fill="#292959"/>
<path d="M112.051 188.02C112.051 188.02 110.027 191.366 110.027 192.924C110.027 194.5 111.039 203.336 111.039 203.336L112.388 203.39C112.388 203.39 111.394 197.334 112.246 197.121C113.099 196.891 114.483 205.16 114.483 205.16L121.444 205.638C121.444 205.638 121.568 203.336 119.419 201.707C117.289 200.078 117.182 200.61 116.152 197.121C115.158 193.633 112.051 188.02 112.051 188.02Z" fill="#292959"/>
<path d="M110.542 148.604C110.542 148.604 110.382 150.941 111.074 151.632C111.767 152.322 115.14 151.88 115.14 150.109C115.14 148.356 111.589 147.559 110.542 148.604Z" fill="#FFC8AF"/>
<path d="M180.481 143.45C177.746 144.495 181.102 147.54 183.251 147.186C185.399 146.814 183.854 142.139 180.481 143.45Z" fill="#FFC8AF"/>
<path d="M172.597 142.263C172.597 142.263 171.408 141.112 168.957 141.448C166.489 141.785 170.715 145.946 172.651 145.486C174.586 145.025 172.597 142.263 172.597 142.263Z" fill="#FFC8AF"/>
<path d="M153.652 127.479C154.647 127.372 155.801 127.39 155.801 128.045C155.801 129.196 152.196 130.046 152.196 129.125C152.214 129.055 152.232 127.62 153.652 127.479Z" fill="#FFC8AF"/>
<path d="M107.079 116.714C107.079 116.714 106.707 113.279 106.298 112.819C105.872 112.358 102.161 107.772 101.7 108.268C101.238 108.764 104.452 112.394 104.452 112.394C104.452 112.394 100.652 108.852 100.457 109.649C100.244 110.464 103.937 113.846 103.937 113.846C103.937 113.846 100.048 110.906 100.048 111.544C100.048 111.544 103.688 115.333 103.812 115.475C103.937 115.616 104.274 117.511 104.274 117.511L107.079 116.714Z" fill="#FFC8AF"/>
<path d="M104.203 108.707C104.203 108.707 105.996 109.557 105.996 110.23C105.996 110.903 106.529 114.072 106.529 114.072L104.984 113.417L105.286 110.566C105.304 110.584 103.582 108.707 104.203 108.707Z" fill="#FFC8AF"/>
<path d="M117.289 63.5349C115.07 63.7828 111.536 63.2515 109.903 66.8639C108.926 68.9179 106.955 72.8844 106.955 79.9319C106.955 90.4325 96.7993 95.0718 96.7993 95.0718L101.256 97.2144L103.919 95.0718L102.108 98.932L109.406 99.658L109.725 94.6291L111.235 100.349L114.608 99.6403C114.608 99.6403 113.259 82.4641 113.117 75.9832C113.134 76.0186 113.152 76.0186 113.152 76.0186C113.152 76.0186 113.117 75.1864 113.117 74.1062C113.134 73.7875 113.134 73.4687 113.117 73.1323C113.134 72.1053 113.188 71.0074 113.33 70.2814C113.649 68.5106 114.306 67.6076 115.904 66.8461C117.502 66.0847 123.219 68.245 123.219 68.245C123.042 64.9692 119.509 63.2692 117.289 63.5349Z" fill="#1B2B80"/>
<path d="M120.254 64.1222C123.06 64.742 123.894 69.0272 126.185 71.3114C128.475 73.5957 127.889 76.8893 126.806 79.0673C125.723 81.2453 123.965 79.8287 123.965 79.8287C123.965 79.8287 124.871 80.3422 125.457 78.5184C126.042 76.7122 125.013 75.2956 121.941 74.2863C118.851 73.2769 115.904 66.8668 115.904 66.8668C115.833 65.6096 117.467 63.5201 120.254 64.1222Z" fill="#2F499F"/>
<path d="M123.965 79.8251C125.031 80.4449 126.522 77.8596 125.439 76.1597C124.64 74.8493 122.9 74.3004 121.515 73.7338C119.313 72.4765 117.2 68.9882 115.904 66.8633C116.828 69.3954 118.798 72.9192 121.178 74.3358L121.746 74.5837C122.332 74.8139 124.125 75.292 124.995 76.4607C125.688 77.3815 125.368 78.7804 124.889 79.4533C124.711 79.7366 124.356 79.9668 123.965 79.8251Z" fill="#023135"/>
<path d="M113.738 76.3528C113.738 76.3528 112.956 72.9884 111.66 73.803C110.364 74.6175 111.749 78.3361 112.956 78.3361C114.164 78.3361 113.738 76.3528 113.738 76.3528Z" fill="#FFC8AF"/>
<path d="M182.558 67.8398C185.736 68.6367 186.979 71.7355 185.399 74.126C185.133 74.5333 184.76 74.9051 184.28 74.9405V74.2499C184.458 74.2854 184.795 73.9135 184.902 73.7718C186.482 71.7709 185.506 68.8315 182.558 67.8398Z" fill="#606BF1"/>
<path d="M180.214 65.6758C180.214 65.6758 182.451 65.6758 184.085 67.3226C185.736 68.9694 185.239 75.4326 184.085 76.3888C182.931 77.345 187.014 78.2481 184.564 78.2481C182.132 78.2658 178.03 65.906 180.214 65.6758Z" fill="#606BF1"/>
<path d="M183.055 68.6527C183.091 68.5465 181.795 65.0758 178.634 64.5623C174.852 63.9425 170.378 66.758 169.011 70.5651C167.643 74.3722 166.418 78.7106 162.672 79.7907C158.926 80.8709 158.251 86.3602 159.423 89.8131C160.595 93.2661 164.181 92.3807 164.181 92.3807C164.181 92.3807 161.997 90.486 162.565 89.9017C162.565 89.9017 164.234 93.1244 166.116 92.487C167.999 91.8495 168.762 90.8047 168.762 90.8047C168.762 90.8047 165.513 90.3089 167.643 88.5028C169.135 87.2455 169.898 86.0946 171.656 83.9697C173.343 81.9333 172.455 76.4971 173.929 72.6015C174.124 72.7609 174.408 72.9025 174.852 72.9379C176.859 73.1504 175.935 71.6984 177.853 69.5204C181.138 67.6788 182.842 68.6704 183.055 68.6527Z" fill="#606BF1"/>
<path d="M169.916 72.9766C170.431 74.4463 170.804 76.3764 170.733 77.8815C170.484 82.6802 165.371 80.1835 163.95 80.272C163.08 80.3074 162.334 81.1043 162.654 82.2021C162.903 83.0875 163.489 83.3708 163.79 83.725C164.252 84.2739 164.003 84.9291 163.471 85.177C162.423 85.7082 161.109 84.5041 160.701 85.9384C160.381 86.93 160.683 88.1164 161.482 88.8778C160.594 88.2227 160.133 86.9831 160.381 85.8499C160.648 84.6812 161.447 84.7343 162.583 84.8228C163.275 84.876 163.524 84.5395 163.471 84.327C163.417 83.9021 162.459 83.7427 162.05 82.3969C161.713 81.423 162.104 80.396 162.991 79.8825C165.335 78.5367 170.555 83.3885 170.342 76.2524C170.307 75.1369 170.129 74.0567 169.916 72.9766Z" fill="#606BF1"/>
<path d="M174.302 73.985C174.302 73.985 174.373 72.1435 173.414 72.2851C172.455 72.4445 171.763 73.7017 172.242 74.9412C172.704 76.1807 174.426 75.6318 174.302 73.985Z" fill="#FFC8AF"/>
<path d="M84.6719 44.5938C84.4427 47.0208 83.5469 48.9167 81.9844 50.2812C80.4219 51.6354 78.3438 52.3125 75.75 52.3125C73.9375 52.3125 72.3385 51.8854 70.9531 51.0312C69.5781 50.1667 68.5156 48.9427 67.7656 47.3594C67.0156 45.776 66.625 43.9375 66.5938 41.8438V39.7188C66.5938 37.5729 66.974 35.6823 67.7344 34.0469C68.4948 32.4115 69.5833 31.151 71 30.2656C72.4271 29.3802 74.0729 28.9375 75.9375 28.9375C78.4479 28.9375 80.4688 29.6198 82 30.9844C83.5312 32.349 84.4219 34.276 84.6719 36.7656H80.7344C80.5469 35.1302 80.0677 33.9531 79.2969 33.2344C78.5365 32.5052 77.4167 32.1406 75.9375 32.1406C74.2188 32.1406 72.8958 32.7708 71.9688 34.0312C71.0521 35.2812 70.5833 37.1198 70.5625 39.5469V41.5625C70.5625 44.0208 71 45.8958 71.875 47.1875C72.7604 48.4792 74.0521 49.125 75.75 49.125C77.3021 49.125 78.4688 48.776 79.25 48.0781C80.0312 47.3802 80.526 46.2188 80.7344 44.5938H84.6719ZM98.7337 50.3438C97.6192 51.6562 96.0358 52.3125 93.9837 52.3125C92.1504 52.3125 90.7598 51.776 89.8119 50.7031C88.8744 49.6302 88.4056 48.0781 88.4056 46.0469V35.0938H92.2025V46C92.2025 48.1458 93.0931 49.2188 94.8744 49.2188C96.7181 49.2188 97.9629 48.5573 98.6087 47.2344V35.0938H102.406V52H98.8275L98.7337 50.3438ZM116.389 47.4062C116.389 46.7292 116.108 46.2135 115.546 45.8594C114.994 45.5052 114.072 45.1927 112.78 44.9219C111.488 44.651 110.41 44.3073 109.546 43.8906C107.65 42.974 106.702 41.6458 106.702 39.9062C106.702 38.4479 107.316 37.2292 108.546 36.25C109.775 35.2708 111.337 34.7812 113.233 34.7812C115.254 34.7812 116.884 35.2812 118.124 36.2812C119.374 37.2812 119.999 38.5781 119.999 40.1719H116.202C116.202 39.4427 115.931 38.8385 115.389 38.3594C114.848 37.8698 114.129 37.625 113.233 37.625C112.4 37.625 111.717 37.8177 111.186 38.2031C110.665 38.5885 110.405 39.1042 110.405 39.75C110.405 40.3333 110.65 40.7865 111.139 41.1094C111.629 41.4323 112.619 41.7604 114.108 42.0938C115.598 42.4167 116.764 42.8073 117.608 43.2656C118.462 43.7135 119.092 44.2552 119.499 44.8906C119.915 45.526 120.124 46.2969 120.124 47.2031C120.124 48.724 119.494 49.9583 118.233 50.9062C116.973 51.8438 115.322 52.3125 113.28 52.3125C111.895 52.3125 110.66 52.0625 109.577 51.5625C108.494 51.0625 107.65 50.375 107.046 49.5C106.441 48.625 106.139 47.6823 106.139 46.6719H109.827C109.879 47.5677 110.217 48.2604 110.842 48.75C111.467 49.2292 112.296 49.4688 113.327 49.4688C114.327 49.4688 115.087 49.2812 115.608 48.9062C116.129 48.5208 116.389 48.0208 116.389 47.4062ZM128.842 30.9844V35.0938H131.826V37.9062H128.842V47.3438C128.842 47.9896 128.967 48.4583 129.217 48.75C129.477 49.0312 129.936 49.1719 130.592 49.1719C131.029 49.1719 131.472 49.1198 131.92 49.0156V51.9531C131.055 52.1927 130.222 52.3125 129.42 52.3125C126.503 52.3125 125.045 50.7031 125.045 47.4844V37.9062H122.264V35.0938H125.045V30.9844H128.842ZM135.747 52V29.25H142.466C144.477 29.25 146.258 29.6979 147.81 30.5938C149.372 31.4896 150.581 32.7604 151.435 34.4062C152.289 36.0521 152.716 37.9375 152.716 40.0625V41.2031C152.716 43.3594 152.284 45.2552 151.419 46.8906C150.565 48.526 149.341 49.7865 147.747 50.6719C146.164 51.5573 144.346 52 142.294 52H135.747ZM139.701 32.4375V48.8438H142.279C144.352 48.8438 145.94 48.1979 147.044 46.9062C148.159 45.6042 148.727 43.7396 148.747 41.3125V40.0469C148.747 37.5781 148.211 35.6927 147.138 34.3906C146.065 33.0885 144.508 32.4375 142.466 32.4375H139.701ZM164.372 52.3125C161.966 52.3125 160.012 51.5573 158.512 50.0469C157.023 48.526 156.278 46.5052 156.278 43.9844V43.5156C156.278 41.8281 156.601 40.3229 157.247 39C157.903 37.6667 158.82 36.6302 159.997 35.8906C161.174 35.151 162.486 34.7812 163.934 34.7812C166.236 34.7812 168.012 35.5156 169.262 36.9844C170.523 38.4531 171.153 40.5312 171.153 43.2188V44.75H160.106C160.221 46.1458 160.684 47.25 161.497 48.0625C162.32 48.875 163.351 49.2812 164.591 49.2812C166.33 49.2812 167.747 48.5781 168.841 47.1719L170.887 49.125C170.21 50.1354 169.304 50.9219 168.169 51.4844C167.044 52.0365 165.778 52.3125 164.372 52.3125ZM163.919 37.8281C162.877 37.8281 162.033 38.1927 161.387 38.9219C160.752 39.651 160.346 40.6667 160.169 41.9688H167.403V41.6875C167.32 40.4167 166.981 39.4583 166.387 38.8125C165.794 38.1562 164.971 37.8281 163.919 37.8281ZM180.496 47.1875L184.074 35.0938H187.996L182.137 52H178.84L172.934 35.0938H176.871L180.496 47.1875Z" fill="#F7707C"/>
<path d="M254.672 25.9375V37.1055C254.672 38.3711 254.402 39.4688 253.863 40.3984C253.324 41.3203 252.551 42.0234 251.543 42.5078C250.535 42.9922 249.344 43.2344 247.969 43.2344C245.891 43.2344 244.254 42.6953 243.059 41.6172C241.863 40.5391 241.254 39.0625 241.23 37.1875V25.9375H245.367V37.2695C245.414 39.1367 246.281 40.0703 247.969 40.0703C248.82 40.0703 249.465 39.8359 249.902 39.3672C250.34 38.8984 250.559 38.1367 250.559 37.082V25.9375H254.672ZM271.98 43H267.89L261.843 32.3828V43H257.73V25.9375H261.843L267.878 36.5547V25.9375H271.98V43ZM279.444 43H275.343V25.9375H279.444V43ZM295.827 29.1133H290.706V43H286.592V29.1133H281.565V25.9375H295.827V29.1133Z" fill="#3362CC"/>
</svg>
