<svg width="241" height="144" viewBox="0 0 241 144" fill="none" xmlns="http://www.w3.org/2000/svg">
<path d="M204.389 0.75V89.623H34.6108V0.75H204.389Z" stroke="white" stroke-width="1.5" stroke-miterlimit="10"/>
<path d="M119.466 70.8945L120.653 74.4148H124.277L121.703 76.3599L122.409 80.1298L119.466 77.9953L116.513 80.0782L117.228 76.3599L114.68 74.3976H118.304L119.466 70.8945Z" fill="white"/>
<path d="M119.466 9.77734L120.653 13.289H124.277L121.703 15.2342L122.409 19.0126L119.466 16.8695L116.513 18.9524L117.228 15.2342L114.68 13.2804H118.304L119.466 9.77734Z" fill="white"/>
<path d="M134.192 13.7031L135.38 17.2234H139.004L136.43 19.1686L137.136 22.9384L134.192 20.7953L131.231 22.8868L131.946 19.1686L129.407 17.2062H133.022L134.192 13.7031Z" fill="white"/>
<path d="M104.034 13.7031L105.221 17.2234H108.845L106.271 19.1686L106.977 22.9384L104.034 20.7953L101.081 22.8868L101.796 19.1686L99.248 17.2062H102.872L104.034 13.7031Z" fill="white"/>
<path d="M134.192 66.7637L135.38 70.2839H139.004L136.43 72.2291L137.136 76.0076L134.192 73.8644L131.231 75.9473L131.946 72.2291L129.407 70.2667H133.022L134.192 66.7637Z" fill="white"/>
<path d="M104.034 66.7637L105.221 70.2839H108.845L106.271 72.2291L106.977 76.0076L104.034 73.8644L101.081 75.9473L101.796 72.2291L99.248 70.2667H102.872L104.034 66.7637Z" fill="white"/>
<path d="M92.7581 25.2363L93.9459 28.7566H97.5694L94.9959 30.7017L95.7017 34.4802L92.7581 32.3371L89.7973 34.42L90.5203 30.7017L87.9727 28.7394H91.5876L92.7581 25.2363Z" fill="white"/>
<path d="M145.837 25.2363L147.025 28.7566H150.649L148.075 30.7017L148.781 34.4802L145.837 32.3371L142.876 34.42L143.599 30.7017L141.052 28.7394H144.667L145.837 25.2363Z" fill="white"/>
<path d="M92.7581 55.748L93.9459 59.2683L97.5694 59.2597L94.9959 61.2049L95.7017 64.9833L92.7581 62.8402L89.7973 64.9317L90.5203 61.2049L87.9727 59.2511H91.5876L92.7581 55.748Z" fill="white"/>
<path d="M145.837 55.748L147.025 59.2683L150.649 59.2597L148.075 61.2049L148.781 64.9833L145.837 62.8402L142.876 64.9317L143.599 61.2049L141.052 59.2511H144.667L145.837 55.748Z" fill="white"/>
<path d="M89.2552 40.375L90.443 43.8953H94.0665L91.493 45.8404L92.1988 49.6189L89.2552 47.4758L86.2944 49.5586L87.0174 45.8404L84.4697 43.878H88.0847L89.2552 40.375Z" fill="white"/>
<path d="M149.719 40.375L150.907 43.8953H154.53L151.957 45.8404L152.663 49.6189L149.719 47.4758L146.767 49.5586L147.481 45.8404L144.934 43.878H148.557L149.719 40.375Z" fill="white"/>
<path d="M2.09556 107.941H3.67956V116.581L10.3036 107.941H11.7756V119.141H10.2076V110.517L3.56756 119.141H2.09556V107.941ZM15.0114 110.661H16.5474V114.261H21.3794V110.661H22.9154V119.141H21.3794V115.589H16.5474V119.141H15.0114V110.661ZM25.9021 110.661H27.4381V116.837L32.6381 110.661H34.0301V119.141H32.4941V112.965L27.3101 119.141H25.9021V110.661ZM46.0674 117.797V121.173H44.6114V119.141H37.0114V110.661H38.5474V117.797H43.1874V110.661H44.7234V117.797H46.0674ZM48.0583 110.661H49.5943V116.837L54.7943 110.661H56.1863V119.141H54.6503V112.965L49.4663 119.141H48.0583V110.661ZM62.1917 110.581C63.365 110.581 64.261 110.869 64.8797 111.445C65.509 112.021 65.8237 112.879 65.8237 114.021V119.141H64.3677V118.021C64.1117 118.415 63.7437 118.719 63.2637 118.933C62.7944 119.135 62.2344 119.237 61.5837 119.237C60.6344 119.237 59.8717 119.007 59.2957 118.549C58.7304 118.09 58.4477 117.487 58.4477 116.741C58.4477 115.994 58.7197 115.397 59.2637 114.949C59.8077 114.49 60.6717 114.261 61.8557 114.261H64.2877V113.957C64.2877 113.295 64.0957 112.789 63.7117 112.437C63.3277 112.085 62.7624 111.909 62.0157 111.909C61.5144 111.909 61.0237 111.994 60.5437 112.165C60.0637 112.325 59.6584 112.543 59.3277 112.821L58.6877 111.669C59.125 111.317 59.6477 111.05 60.2557 110.869C60.8637 110.677 61.509 110.581 62.1917 110.581ZM61.8397 118.053C62.4264 118.053 62.933 117.925 63.3597 117.669C63.7864 117.402 64.0957 117.029 64.2877 116.549V115.365H61.9197C60.6184 115.365 59.9677 115.802 59.9677 116.677C59.9677 117.103 60.133 117.439 60.4637 117.685C60.7944 117.93 61.253 118.053 61.8397 118.053ZM74.9096 112.005H71.8056V119.141H70.2696V112.005H67.1656V110.661H74.9096V112.005ZM76.4802 110.661H78.0162V116.837L83.2162 110.661H84.6082V119.141H83.0722V112.965L77.8882 119.141H76.4802V110.661ZM93.3656 114.741C94.4642 115.018 95.0136 115.706 95.0136 116.805C95.0136 117.551 94.7309 118.127 94.1656 118.533C93.6109 118.938 92.7789 119.141 91.6696 119.141H87.5896V110.661H91.5256C92.5282 110.661 93.3122 110.853 93.8776 111.237C94.4429 111.61 94.7256 112.143 94.7256 112.837C94.7256 113.285 94.6029 113.674 94.3576 114.005C94.1229 114.325 93.7922 114.57 93.3656 114.741ZM89.0936 114.309H91.3976C91.9842 114.309 92.4269 114.202 92.7256 113.989C93.0349 113.775 93.1896 113.466 93.1896 113.061C93.1896 112.25 92.5922 111.845 91.3976 111.845H89.0936V114.309ZM91.5576 117.957C92.1976 117.957 92.6776 117.855 92.9976 117.653C93.3176 117.45 93.4776 117.135 93.4776 116.709C93.4776 116.271 93.3282 115.946 93.0296 115.733C92.7416 115.519 92.2829 115.413 91.6536 115.413H89.0936V117.957H91.5576ZM100.442 110.581C101.615 110.581 102.511 110.869 103.13 111.445C103.759 112.021 104.074 112.879 104.074 114.021V119.141H102.618V118.021C102.362 118.415 101.994 118.719 101.514 118.933C101.044 119.135 100.484 119.237 99.8337 119.237C98.8844 119.237 98.1217 119.007 97.5457 118.549C96.9804 118.09 96.6977 117.487 96.6977 116.741C96.6977 115.994 96.9697 115.397 97.5137 114.949C98.0577 114.49 98.9217 114.261 100.106 114.261H102.538V113.957C102.538 113.295 102.346 112.789 101.962 112.437C101.578 112.085 101.012 111.909 100.266 111.909C99.7644 111.909 99.2737 111.994 98.7937 112.165C98.3137 112.325 97.9084 112.543 97.5777 112.821L96.9377 111.669C97.375 111.317 97.8977 111.05 98.5057 110.869C99.1137 110.677 99.759 110.581 100.442 110.581ZM100.09 118.053C100.676 118.053 101.183 117.925 101.61 117.669C102.036 117.402 102.346 117.029 102.538 116.549V115.365H100.17C98.8684 115.365 98.2177 115.802 98.2177 116.677C98.2177 117.103 98.383 117.439 98.7137 117.685C99.0444 117.93 99.503 118.053 100.09 118.053ZM121.84 114.885C121.84 116.197 121.403 117.231 120.528 117.989C119.654 118.746 118.422 119.167 116.832 119.253V122.245H115.328V119.253C113.739 119.167 112.507 118.751 111.632 118.005C110.768 117.247 110.336 116.207 110.336 114.885C110.336 113.573 110.768 112.549 111.632 111.813C112.496 111.077 113.728 110.666 115.328 110.581V107.269H116.832V110.581C118.422 110.666 119.654 111.082 120.528 111.829C121.403 112.565 121.84 113.583 121.84 114.885ZM111.856 114.885C111.856 115.791 112.144 116.501 112.72 117.013C113.307 117.525 114.176 117.818 115.328 117.893V111.941C114.166 112.015 113.296 112.303 112.72 112.805C112.144 113.306 111.856 113.999 111.856 114.885ZM116.832 117.909C119.158 117.727 120.32 116.719 120.32 114.885C120.32 113.989 120.027 113.295 119.44 112.805C118.854 112.303 117.984 112.015 116.832 111.941V117.909ZM124.011 110.661H125.547V116.837L130.747 110.661H132.139V119.141H130.603V112.965L125.419 119.141H124.011V110.661ZM135.121 110.661H136.657V114.261H141.489V110.661H143.025V119.141H141.489V115.589H136.657V119.141H135.121V110.661ZM149.035 110.581C150.209 110.581 151.105 110.869 151.723 111.445C152.353 112.021 152.667 112.879 152.667 114.021V119.141H151.211V118.021C150.955 118.415 150.587 118.719 150.107 118.933C149.638 119.135 149.078 119.237 148.427 119.237C147.478 119.237 146.715 119.007 146.139 118.549C145.574 118.09 145.291 117.487 145.291 116.741C145.291 115.994 145.563 115.397 146.107 114.949C146.651 114.49 147.515 114.261 148.699 114.261H151.131V113.957C151.131 113.295 150.939 112.789 150.555 112.437C150.171 112.085 149.606 111.909 148.859 111.909C148.358 111.909 147.867 111.994 147.387 112.165C146.907 112.325 146.502 112.543 146.171 112.821L145.531 111.669C145.969 111.317 146.491 111.05 147.099 110.869C147.707 110.677 148.353 110.581 149.035 110.581ZM148.683 118.053C149.27 118.053 149.777 117.925 150.203 117.669C150.63 117.402 150.939 117.029 151.131 116.549V115.365H148.763C147.462 115.365 146.811 115.802 146.811 116.677C146.811 117.103 146.977 117.439 147.307 117.685C147.638 117.93 148.097 118.053 148.683 118.053ZM155.433 110.661H156.969V114.261H161.801V110.661H163.337V119.141H161.801V115.589H156.969V119.141H155.433V110.661ZM170.02 119.237C169.156 119.237 168.383 119.05 167.7 118.677C167.028 118.303 166.5 117.791 166.116 117.141C165.732 116.479 165.54 115.733 165.54 114.901C165.54 114.069 165.732 113.327 166.116 112.677C166.5 112.015 167.028 111.503 167.7 111.141C168.383 110.767 169.156 110.581 170.02 110.581C170.788 110.581 171.471 110.735 172.068 111.045C172.676 111.354 173.145 111.802 173.476 112.389L172.308 113.141C172.041 112.735 171.711 112.431 171.316 112.229C170.921 112.026 170.484 111.925 170.004 111.925C169.449 111.925 168.948 112.047 168.5 112.293C168.063 112.538 167.716 112.89 167.46 113.349C167.215 113.797 167.092 114.314 167.092 114.901C167.092 115.498 167.215 116.026 167.46 116.485C167.716 116.933 168.063 117.279 168.5 117.525C168.948 117.77 169.449 117.893 170.004 117.893C170.484 117.893 170.921 117.791 171.316 117.589C171.711 117.386 172.041 117.082 172.308 116.677L173.476 117.413C173.145 117.999 172.676 118.453 172.068 118.773C171.471 119.082 170.788 119.237 170.02 119.237ZM175.465 110.661H177.001V116.837L182.201 110.661H183.593V119.141H182.057V112.965L176.873 119.141H175.465V110.661ZM191.07 110.581C191.891 110.581 192.627 110.762 193.278 111.125C193.929 111.487 194.435 111.994 194.798 112.645C195.171 113.295 195.358 114.047 195.358 114.901C195.358 115.754 195.171 116.511 194.798 117.173C194.435 117.823 193.929 118.33 193.278 118.693C192.627 119.055 191.891 119.237 191.07 119.237C190.462 119.237 189.902 119.119 189.39 118.885C188.889 118.65 188.462 118.309 188.11 117.861V122.245H186.574V110.661H188.046V112.005C188.387 111.535 188.819 111.183 189.342 110.949C189.865 110.703 190.441 110.581 191.07 110.581ZM190.942 117.893C191.486 117.893 191.971 117.77 192.398 117.525C192.835 117.269 193.177 116.917 193.422 116.469C193.678 116.01 193.806 115.487 193.806 114.901C193.806 114.314 193.678 113.797 193.422 113.349C193.177 112.89 192.835 112.538 192.398 112.293C191.971 112.047 191.486 111.925 190.942 111.925C190.409 111.925 189.923 112.053 189.486 112.309C189.059 112.554 188.718 112.901 188.462 113.349C188.217 113.797 188.094 114.314 188.094 114.901C188.094 115.487 188.217 116.01 188.462 116.469C188.707 116.917 189.049 117.269 189.486 117.525C189.923 117.77 190.409 117.893 190.942 117.893ZM204.923 110.661L200.811 119.989C200.449 120.853 200.022 121.461 199.531 121.813C199.051 122.165 198.47 122.341 197.787 122.341C197.371 122.341 196.966 122.271 196.571 122.133C196.187 122.005 195.867 121.813 195.611 121.557L196.267 120.405C196.705 120.821 197.211 121.029 197.787 121.029C198.161 121.029 198.47 120.927 198.715 120.725C198.971 120.533 199.201 120.197 199.403 119.717L199.675 119.125L195.931 110.661H197.531L200.491 117.445L203.419 110.661H204.923ZM213.925 114.949C213.925 115.066 213.915 115.221 213.893 115.413H207.013C207.109 116.159 207.435 116.762 207.989 117.221C208.555 117.669 209.253 117.893 210.085 117.893C211.099 117.893 211.915 117.551 212.533 116.869L213.381 117.861C212.997 118.309 212.517 118.65 211.941 118.885C211.376 119.119 210.741 119.237 210.037 119.237C209.141 119.237 208.347 119.055 207.653 118.693C206.96 118.319 206.421 117.802 206.037 117.141C205.664 116.479 205.477 115.733 205.477 114.901C205.477 114.079 205.659 113.338 206.021 112.677C206.395 112.015 206.901 111.503 207.541 111.141C208.192 110.767 208.923 110.581 209.733 110.581C210.544 110.581 211.264 110.767 211.893 111.141C212.533 111.503 213.029 112.015 213.381 112.677C213.744 113.338 213.925 114.095 213.925 114.949ZM209.733 111.877C208.997 111.877 208.379 112.101 207.877 112.549C207.387 112.997 207.099 113.583 207.013 114.309H212.453C212.368 113.594 212.075 113.013 211.573 112.565C211.083 112.106 210.469 111.877 209.733 111.877ZM222.269 112.005H219.165V119.141H217.629V112.005H214.525V110.661H222.269V112.005ZM227.161 119.237C226.297 119.237 225.523 119.05 224.841 118.677C224.169 118.303 223.641 117.791 223.257 117.141C222.873 116.479 222.681 115.733 222.681 114.901C222.681 114.069 222.873 113.327 223.257 112.677C223.641 112.015 224.169 111.503 224.841 111.141C225.523 110.767 226.297 110.581 227.161 110.581C227.929 110.581 228.611 110.735 229.209 111.045C229.817 111.354 230.286 111.802 230.617 112.389L229.449 113.141C229.182 112.735 228.851 112.431 228.457 112.229C228.062 112.026 227.625 111.925 227.145 111.925C226.59 111.925 226.089 112.047 225.641 112.293C225.203 112.538 224.857 112.89 224.601 113.349C224.355 113.797 224.233 114.314 224.233 114.901C224.233 115.498 224.355 116.026 224.601 116.485C224.857 116.933 225.203 117.279 225.641 117.525C226.089 117.77 226.59 117.893 227.145 117.893C227.625 117.893 228.062 117.791 228.457 117.589C228.851 117.386 229.182 117.082 229.449 116.677L230.617 117.413C230.286 117.999 229.817 118.453 229.209 118.773C228.611 119.082 227.929 119.237 227.161 119.237ZM239.14 110.661V119.141H237.764V116.453H235.3H235.124L233.268 119.141H231.62L233.684 116.245C233.044 116.053 232.553 115.738 232.212 115.301C231.87 114.853 231.7 114.298 231.7 113.637C231.7 112.666 232.03 111.93 232.692 111.429C233.353 110.917 234.265 110.661 235.428 110.661H239.14ZM233.268 113.685C233.268 114.25 233.444 114.671 233.796 114.949C234.158 115.215 234.697 115.349 235.412 115.349H237.764V112.005H235.476C234.004 112.005 233.268 112.565 233.268 113.685ZM36.5283 137.749V139.141H28.4003V127.941H36.3043V129.333H30.0003V132.773H35.6163V134.133H30.0003V137.749H36.5283ZM44.5609 134.741C45.6595 135.018 46.2089 135.706 46.2089 136.805C46.2089 137.551 45.9262 138.127 45.3609 138.533C44.8062 138.938 43.9742 139.141 42.8649 139.141H38.7849V130.661H42.7209C43.7235 130.661 44.5075 130.853 45.0729 131.237C45.6382 131.61 45.9209 132.143 45.9209 132.837C45.9209 133.285 45.7982 133.674 45.5529 134.005C45.3182 134.325 44.9875 134.57 44.5609 134.741ZM40.2889 134.309H42.5929C43.1795 134.309 43.6222 134.202 43.9209 133.989C44.2302 133.775 44.3849 133.466 44.3849 133.061C44.3849 132.25 43.7875 131.845 42.5929 131.845H40.2889V134.309ZM42.7529 137.957C43.3929 137.957 43.8729 137.855 44.1929 137.653C44.5129 137.45 44.6729 137.135 44.6729 136.709C44.6729 136.271 44.5235 135.946 44.2249 135.733C43.9369 135.519 43.4782 135.413 42.8489 135.413H40.2889V137.957H42.7529ZM53.109 130.581C53.9303 130.581 54.6663 130.762 55.317 131.125C55.9677 131.487 56.4743 131.994 56.837 132.645C57.2103 133.295 57.397 134.047 57.397 134.901C57.397 135.754 57.2103 136.511 56.837 137.173C56.4743 137.823 55.9677 138.33 55.317 138.693C54.6663 139.055 53.9303 139.237 53.109 139.237C52.501 139.237 51.941 139.119 51.429 138.885C50.9277 138.65 50.501 138.309 50.149 137.861V142.245H48.613V130.661H50.085V132.005C50.4263 131.535 50.8583 131.183 51.381 130.949C51.9037 130.703 52.4797 130.581 53.109 130.581ZM52.981 137.893C53.525 137.893 54.0103 137.77 54.437 137.525C54.8743 137.269 55.2157 136.917 55.461 136.469C55.717 136.01 55.845 135.487 55.845 134.901C55.845 134.314 55.717 133.797 55.461 133.349C55.2157 132.89 54.8743 132.538 54.437 132.293C54.0103 132.047 53.525 131.925 52.981 131.925C52.4477 131.925 51.9623 132.053 51.525 132.309C51.0983 132.554 50.757 132.901 50.501 133.349C50.2557 133.797 50.133 134.314 50.133 134.901C50.133 135.487 50.2557 136.01 50.501 136.469C50.7463 136.917 51.0877 137.269 51.525 137.525C51.9623 137.77 52.4477 137.893 52.981 137.893ZM63.2606 139.237C62.418 139.237 61.6606 139.05 60.9886 138.677C60.3166 138.303 59.7886 137.791 59.4046 137.141C59.0313 136.479 58.8446 135.733 58.8446 134.901C58.8446 134.069 59.0313 133.327 59.4046 132.677C59.7886 132.015 60.3166 131.503 60.9886 131.141C61.6606 130.767 62.418 130.581 63.2606 130.581C64.1033 130.581 64.8553 130.767 65.5166 131.141C66.1886 131.503 66.7113 132.015 67.0846 132.677C67.4686 133.327 67.6606 134.069 67.6606 134.901C67.6606 135.733 67.4686 136.479 67.0846 137.141C66.7113 137.791 66.1886 138.303 65.5166 138.677C64.8553 139.05 64.1033 139.237 63.2606 139.237ZM63.2606 137.893C63.8046 137.893 64.29 137.77 64.7166 137.525C65.154 137.269 65.4953 136.917 65.7406 136.469C65.986 136.01 66.1086 135.487 66.1086 134.901C66.1086 134.314 65.986 133.797 65.7406 133.349C65.4953 132.89 65.154 132.538 64.7166 132.293C64.29 132.047 63.8046 131.925 63.2606 131.925C62.7166 131.925 62.226 132.047 61.7886 132.293C61.362 132.538 61.0206 132.89 60.7646 133.349C60.5193 133.797 60.3966 134.314 60.3966 134.901C60.3966 135.487 60.5193 136.01 60.7646 136.469C61.0206 136.917 61.362 137.269 61.7886 137.525C62.226 137.77 62.7166 137.893 63.2606 137.893ZM77.7346 130.661V139.141H76.1986V132.005H71.4146V139.141H69.8786V130.661H77.7346ZM88.3708 134.949C88.3708 135.066 88.3601 135.221 88.3388 135.413H81.4588C81.5548 136.159 81.8801 136.762 82.4348 137.221C83.0001 137.669 83.6988 137.893 84.5308 137.893C85.5441 137.893 86.3601 137.551 86.9788 136.869L87.8268 137.861C87.4428 138.309 86.9628 138.65 86.3868 138.885C85.8214 139.119 85.1868 139.237 84.4828 139.237C83.5868 139.237 82.7921 139.055 82.0988 138.693C81.4054 138.319 80.8668 137.802 80.4828 137.141C80.1094 136.479 79.9228 135.733 79.9228 134.901C79.9228 134.079 80.1041 133.338 80.4668 132.677C80.8401 132.015 81.3468 131.503 81.9868 131.141C82.6374 130.767 83.3681 130.581 84.1788 130.581C84.9894 130.581 85.7094 130.767 86.3388 131.141C86.9788 131.503 87.4748 132.015 87.8268 132.677C88.1894 133.338 88.3708 134.095 88.3708 134.949ZM84.1788 131.877C83.4428 131.877 82.8241 132.101 82.3228 132.549C81.8321 132.997 81.5441 133.583 81.4588 134.309H86.8988C86.8134 133.594 86.5201 133.013 86.0188 132.565C85.5281 132.106 84.9148 131.877 84.1788 131.877ZM90.7536 130.661H92.2896V136.837L97.4896 130.661H98.8816V139.141H97.3456V132.965L92.1616 139.141H90.7536V130.661ZM94.7216 129.557C93.9323 129.557 93.319 129.37 92.8816 128.997C92.4443 128.613 92.2203 128.063 92.2096 127.349H93.2496C93.2603 127.743 93.3936 128.063 93.6496 128.309C93.9163 128.543 94.2683 128.661 94.7056 128.661C95.143 128.661 95.495 128.543 95.7616 128.309C96.0283 128.063 96.167 127.743 96.1776 127.349H97.2496C97.239 128.063 97.0096 128.613 96.5616 128.997C96.1136 129.37 95.5003 129.557 94.7216 129.557ZM105.559 139.237C104.695 139.237 103.922 139.05 103.239 138.677C102.567 138.303 102.039 137.791 101.655 137.141C101.271 136.479 101.079 135.733 101.079 134.901C101.079 134.069 101.271 133.327 101.655 132.677C102.039 132.015 102.567 131.503 103.239 131.141C103.922 130.767 104.695 130.581 105.559 130.581C106.327 130.581 107.01 130.735 107.607 131.045C108.215 131.354 108.684 131.802 109.015 132.389L107.847 133.141C107.58 132.735 107.25 132.431 106.855 132.229C106.46 132.026 106.023 131.925 105.543 131.925C104.988 131.925 104.487 132.047 104.039 132.293C103.602 132.538 103.255 132.89 102.999 133.349C102.754 133.797 102.631 134.314 102.631 134.901C102.631 135.498 102.754 136.026 102.999 136.485C103.255 136.933 103.602 137.279 104.039 137.525C104.487 137.77 104.988 137.893 105.543 137.893C106.023 137.893 106.46 137.791 106.855 137.589C107.25 137.386 107.58 137.082 107.847 136.677L109.015 137.413C108.684 137.999 108.215 138.453 107.607 138.773C107.01 139.082 106.327 139.237 105.559 139.237ZM114.3 135.557H112.54V139.141H111.004V130.661H112.54V134.245H114.332L117.084 130.661H118.732L115.516 134.741L118.956 139.141H117.148L114.3 135.557ZM120.566 130.661H122.102V136.837L127.302 130.661H128.694V139.141H127.158V132.965L121.974 139.141H120.566V130.661ZM141.452 130.661V139.141H140.06V132.949L136.892 138.181H136.22L133.084 132.933V139.141H131.676V130.661H133.26L136.588 136.389L140.012 130.661H141.452ZM153.938 139.269C152.818 139.269 151.805 139.023 150.898 138.533C150.002 138.031 149.298 137.349 148.786 136.485C148.274 135.61 148.018 134.629 148.018 133.541C148.018 132.453 148.274 131.477 148.786 130.613C149.298 129.738 150.007 129.055 150.914 128.565C151.821 128.063 152.834 127.813 153.954 127.813C154.829 127.813 155.629 127.962 156.354 128.261C157.079 128.549 157.698 128.981 158.21 129.557L157.17 130.565C156.327 129.679 155.277 129.237 154.018 129.237C153.186 129.237 152.434 129.423 151.762 129.797C151.09 130.17 150.562 130.687 150.178 131.349C149.805 131.999 149.618 132.73 149.618 133.541C149.618 134.351 149.805 135.087 150.178 135.749C150.562 136.399 151.09 136.911 151.762 137.285C152.434 137.658 153.186 137.845 154.018 137.845C155.266 137.845 156.317 137.397 157.17 136.501L158.21 137.509C157.698 138.085 157.074 138.522 156.338 138.821C155.613 139.119 154.813 139.269 153.938 139.269ZM163.573 139.237C162.73 139.237 161.973 139.05 161.301 138.677C160.629 138.303 160.101 137.791 159.717 137.141C159.344 136.479 159.157 135.733 159.157 134.901C159.157 134.069 159.344 133.327 159.717 132.677C160.101 132.015 160.629 131.503 161.301 131.141C161.973 130.767 162.73 130.581 163.573 130.581C164.416 130.581 165.168 130.767 165.829 131.141C166.501 131.503 167.024 132.015 167.397 132.677C167.781 133.327 167.973 134.069 167.973 134.901C167.973 135.733 167.781 136.479 167.397 137.141C167.024 137.791 166.501 138.303 165.829 138.677C165.168 139.05 164.416 139.237 163.573 139.237ZM163.573 137.893C164.117 137.893 164.602 137.77 165.029 137.525C165.466 137.269 165.808 136.917 166.053 136.469C166.298 136.01 166.421 135.487 166.421 134.901C166.421 134.314 166.298 133.797 166.053 133.349C165.808 132.89 165.466 132.538 165.029 132.293C164.602 132.047 164.117 131.925 163.573 131.925C163.029 131.925 162.538 132.047 162.101 132.293C161.674 132.538 161.333 132.89 161.077 133.349C160.832 133.797 160.709 134.314 160.709 134.901C160.709 135.487 160.832 136.01 161.077 136.469C161.333 136.917 161.674 137.269 162.101 137.525C162.538 137.77 163.029 137.893 163.573 137.893ZM177.695 130.581C178.516 130.581 179.252 130.767 179.903 131.141C180.554 131.503 181.066 132.015 181.439 132.677C181.812 133.327 181.999 134.069 181.999 134.901C181.999 135.733 181.812 136.479 181.439 137.141C181.066 137.791 180.554 138.303 179.903 138.677C179.252 139.05 178.516 139.237 177.695 139.237C176.948 139.237 176.271 139.082 175.663 138.773C175.055 138.463 174.554 138.031 174.159 137.477C173.775 136.911 173.535 136.271 173.439 135.557H171.727V139.141H170.191V130.661H171.727V134.133H173.455C173.562 133.429 173.807 132.81 174.191 132.277C174.586 131.733 175.082 131.317 175.679 131.029C176.287 130.73 176.959 130.581 177.695 130.581ZM177.695 137.893C178.218 137.893 178.687 137.77 179.103 137.525C179.53 137.279 179.866 136.933 180.111 136.485C180.356 136.026 180.479 135.498 180.479 134.901C180.479 134.314 180.356 133.797 180.111 133.349C179.866 132.89 179.53 132.538 179.103 132.293C178.687 132.047 178.218 131.925 177.695 131.925C177.172 131.925 176.698 132.047 176.271 132.293C175.844 132.538 175.508 132.89 175.263 133.349C175.028 133.797 174.911 134.314 174.911 134.901C174.911 135.498 175.028 136.026 175.263 136.485C175.508 136.933 175.844 137.279 176.271 137.525C176.698 137.77 177.172 137.893 177.695 137.893ZM188.705 134.725C189.27 134.874 189.708 135.114 190.017 135.445C190.326 135.775 190.481 136.186 190.481 136.677C190.481 137.178 190.31 137.626 189.969 138.021C189.628 138.405 189.153 138.709 188.545 138.933C187.948 139.146 187.276 139.253 186.529 139.253C185.9 139.253 185.281 139.173 184.673 139.013C184.076 138.842 183.542 138.602 183.073 138.293L183.537 137.125C183.942 137.381 184.406 137.583 184.929 137.733C185.452 137.871 185.98 137.941 186.513 137.941C187.238 137.941 187.814 137.818 188.241 137.573C188.678 137.317 188.897 136.975 188.897 136.549C188.897 136.154 188.721 135.85 188.369 135.637C188.028 135.423 187.542 135.317 186.913 135.317H185.361V134.213H186.801C187.377 134.213 187.83 134.111 188.161 133.909C188.492 133.706 188.657 133.429 188.657 133.077C188.657 132.693 188.46 132.394 188.065 132.181C187.681 131.967 187.158 131.861 186.497 131.861C185.654 131.861 184.764 132.079 183.825 132.517L183.409 131.333C184.444 130.81 185.526 130.549 186.657 130.549C187.34 130.549 187.953 130.645 188.497 130.837C189.041 131.029 189.468 131.301 189.777 131.653C190.086 132.005 190.241 132.405 190.241 132.853C190.241 133.269 190.102 133.642 189.825 133.973C189.548 134.303 189.174 134.554 188.705 134.725ZM196.448 139.237C195.605 139.237 194.848 139.05 194.176 138.677C193.504 138.303 192.976 137.791 192.592 137.141C192.219 136.479 192.032 135.733 192.032 134.901C192.032 134.069 192.219 133.327 192.592 132.677C192.976 132.015 193.504 131.503 194.176 131.141C194.848 130.767 195.605 130.581 196.448 130.581C197.291 130.581 198.043 130.767 198.704 131.141C199.376 131.503 199.899 132.015 200.272 132.677C200.656 133.327 200.848 134.069 200.848 134.901C200.848 135.733 200.656 136.479 200.272 137.141C199.899 137.791 199.376 138.303 198.704 138.677C198.043 139.05 197.291 139.237 196.448 139.237ZM196.448 137.893C196.992 137.893 197.477 137.77 197.904 137.525C198.341 137.269 198.683 136.917 198.928 136.469C199.173 136.01 199.296 135.487 199.296 134.901C199.296 134.314 199.173 133.797 198.928 133.349C198.683 132.89 198.341 132.538 197.904 132.293C197.477 132.047 196.992 131.925 196.448 131.925C195.904 131.925 195.413 132.047 194.976 132.293C194.549 132.538 194.208 132.89 193.952 133.349C193.707 133.797 193.584 134.314 193.584 134.901C193.584 135.487 193.707 136.01 193.952 136.469C194.208 136.917 194.549 137.269 194.976 137.525C195.413 137.77 195.904 137.893 196.448 137.893ZM212.842 130.661V139.141H211.45V132.949L208.282 138.181H207.61L204.474 132.933V139.141H203.066V130.661H204.65L207.978 136.389L211.402 130.661H212.842Z" fill="white"/>
</svg>
