<svg width="136" height="113" viewBox="0 0 136 113" fill="none" xmlns="http://www.w3.org/2000/svg">
<path d="M105.2 29C104.7 29.5 104.3 30.1 104 30.7L103.5 30.5L93.6 25.8C93.6 25.7 93.6 25.6 93.6 25.5C93.6 24.8 93.6 24.2 93.5 23.5L104.7 28.9L104.9 29H105.2Z" fill="#2F5ED1"/>
<path d="M89.4 91.9001C89.4 91.9001 89.4 92.0001 89.4 91.9001C89.3 92.0001 89.3 92.1001 89.2 92.1001C88.9 92.4001 88.4 92.5001 88 92.4001L86.9 91.9001L86.7 91.8001L86.5 91.7001L76.3 86.8001L76.1 86.7001L75.9 86.6001L74.7 86.0001C74.4 85.9001 74.3 85.7001 74.2 85.4001C74.1 85.1001 74.1 84.9001 74.2 84.6001C74.5 84.1001 75.1 83.9001 75.6 84.1001L76.2 84.4001L76.4 84.5001L76.6 84.6001L87.7 89.9001L87.9 90.0001L88.2 90.1001L88.9 90.4001C89.2 90.5001 89.3 90.7001 89.4 91.0001C89.5 91.4001 89.5 91.7001 89.4 91.9001Z" fill="#2F5ED1"/>
<path d="M66.3 53.0992C66.3 53.3992 66.3001 53.5992 66.1001 53.8992C65.8001 54.2992 65.1001 54.3992 64.6001 54.0992L63.9001 53.4992L63.7001 53.2992L63.5001 53.0992L56.4001 47.5992L56.2001 47.3992L56.0001 47.1992L54.5001 45.9992C54.3001 45.7992 54.1001 45.5992 54.1001 45.2992V45.1992C54.1001 44.9992 54.2 44.7992 54.3 44.5992C54.5 44.2992 54.8001 44.1992 55.1001 44.1992C55.3001 44.1992 55.5001 44.2992 55.7001 44.3992L56.1001 44.6992L56.4001 44.8992L56.7001 45.0992L64.9001 51.3992L65.1001 51.5992L65.3 51.7992L66.0001 52.3992C66.1001 52.4992 66.3 52.7992 66.3 53.0992Z" fill="#2F5ED1"/>
<path d="M62.2999 25.4008C62.2999 25.7008 62.0999 26.0008 61.8999 26.2008L60.2999 27.5008L60.0999 27.7008L59.8999 27.9008L52.3999 34.2008L52.1999 34.4008L51.9999 34.6008L51.1999 35.3008C50.7999 35.7008 50.0999 35.6008 49.6999 35.2008C49.4999 35.0008 49.3999 34.7008 49.3999 34.4008C49.3999 34.1008 49.4999 33.9008 49.7999 33.7008L50.4999 33.1008L50.6999 32.9008L50.8999 32.7008L59.6999 25.3008L59.9999 25.1008L60.2999 24.9008L60.6999 24.6008C60.8999 24.4008 61.0999 24.3008 61.3999 24.3008C61.6999 24.3008 61.9999 24.4008 62.1999 24.7008C62.1999 24.9008 62.2999 25.1008 62.2999 25.4008Z" fill="#2F5ED1"/>
<path d="M96.1998 50.0016C96.1998 50.3016 95.9998 50.5016 95.7998 50.7016C95.2998 51.0016 94.6998 50.9016 94.2998 50.5016L93.2998 49.2016L93.0999 49.0016L92.8998 48.8016L85.8998 39.5016L85.6998 39.3016L85.5999 39.1016L85.4998 39.0016L85.2998 38.7016L84.9998 38.3016C84.7998 38.1016 84.7998 37.8016 84.7998 37.5016C84.7998 37.2016 84.9998 37.0016 85.1998 36.8016L85.2998 36.7016C85.3998 36.6016 85.4999 36.6016 85.5999 36.6016C85.6999 36.6016 85.7998 36.6016 85.8998 36.6016C86.1998 36.6016 86.4998 36.7016 86.6998 37.0016L87.2998 37.8016L87.4998 38.0016L87.5999 38.2016L95.2998 48.4016L95.4998 48.6016L95.6998 48.8016L95.9998 49.2016C96.1998 49.5016 96.2998 49.8016 96.1998 50.0016Z" fill="#2F5ED1"/>
<path d="M83.3999 70.5984L81.7999 70.3984L81.2999 70.7984L81.0999 70.9984L80.8999 71.1984L74.6999 75.7984L74.2999 76.0984L73.2999 76.8984C73.0999 77.0984 72.8999 77.2984 72.8999 77.5984C72.8999 77.7984 72.8999 77.8984 72.8999 78.0984V78.1984C72.8999 78.2984 72.9999 78.2984 72.9999 78.3984C73.2999 78.7984 73.9999 78.8984 74.4999 78.5984L75.0999 78.0984L75.4999 77.7984L81.5999 73.1984L81.7999 72.9984L81.9999 72.7984L82.9999 71.9984C83.1999 71.7984 83.3999 71.5984 83.3999 71.2984C83.5999 71.0984 83.4999 70.7984 83.3999 70.5984Z" fill="#2F5ED1"/>
<path d="M45.3 83.5C45.3 84.1 44.8 84.5 44.3 84.5H33.5C32.9 84.5 32.5 84 32.5 83.5C32.5 82.9 33 82.5 33.5 82.5H44.2C44.8 82.5 45.3 83 45.3 83.5Z" fill="#2F5ED1"/>
<path d="M40.6001 19.3019V30.0019C40.6001 30.6019 40.1001 31.0019 39.6001 31.0019C39.0001 31.0019 38.6001 30.5019 38.6001 30.0019V19.3019C38.6001 18.7019 39.1001 18.3019 39.6001 18.3019C40.1001 18.2019 40.6001 18.7019 40.6001 19.3019Z" fill="#2F5ED1"/>
<path d="M109.1 27.3984C107.9 27.3984 106.8 27.7984 105.8 28.3984C105.7 28.4984 105.7 28.4984 105.6 28.5984C105.5 28.5984 105.5 28.6984 105.4 28.7984C105.3 28.7984 105.3 28.8984 105.2 28.9984C104.7 29.4984 104.3 30.0984 104 30.6984C104 30.7984 103.9 30.8984 103.9 30.8984C103.9 30.9984 103.8 30.9984 103.8 31.0984C103.8 31.1984 103.7 31.2984 103.7 31.2984C103.5 31.7984 103.4 32.3984 103.4 32.9984C103.4 36.0984 105.9 38.5984 109.1 38.5984C112.3 38.5984 114.8 36.0984 114.8 32.9984C114.8 29.9984 112.2 27.3984 109.1 27.3984ZM109.1 36.5984C107.1 36.5984 105.5 34.9984 105.5 32.9984C105.5 32.5984 105.6 32.2984 105.7 31.8984C105.7 31.7984 105.8 31.6984 105.8 31.5984C105.8 31.4984 105.9 31.3984 105.9 31.2984C106.1 30.8984 106.4 30.5984 106.7 30.2984C106.8 30.1984 106.9 30.0984 107 30.0984C107.1 29.9984 107.2 29.9984 107.3 29.8984C107.8 29.5984 108.5 29.3984 109.2 29.3984C111.2 29.3984 112.8 30.9984 112.8 32.9984C112.7 34.9984 111.1 36.5984 109.1 36.5984Z" fill="#2F5ED1"/>
<path d="M34.3 82.5008C34.3 82.4008 34.3 82.3008 34.3 82.2008C34.3 82.1008 34.3 82.0008 34.2 81.9008C33.5 79.6008 31.3 77.8008 28.7 77.8008C25.6 77.8008 23 80.3008 23 83.4008C23 86.5008 25.5 89.0008 28.7 89.0008C31.3 89.0008 33.5 87.3008 34.2 84.9008C34.2 84.8008 34.2 84.7008 34.3 84.7008C34.3 84.6008 34.3 84.5008 34.4 84.4008C34.5 84.1008 34.5 83.7008 34.5 83.4008C34.4 83.2008 34.4 82.8008 34.3 82.5008ZM32.3 83.6008C32.3 83.8008 32.3 84.0008 32.2 84.3008C32.2 84.4008 32.2 84.5008 32.1 84.6008C31.7 86.1008 30.3 87.2008 28.6 87.2008C26.6 87.2008 25 85.6008 25 83.6008C25 81.6008 26.6 80.0008 28.6 80.0008C30.2 80.0008 31.6 81.1008 32.1 82.6008C32.1 82.7008 32.2 82.8008 32.2 82.9008C32.3 83.1008 32.3 83.3008 32.3 83.6008Z" fill="#2F5ED1"/>
<path d="M92.1 88.6016C90.8 88.6016 89.6 89.1016 88.6 89.8016C88.5 89.8016 88.5 89.9016 88.4 90.0016C88.3 90.0016 88.3 90.1016 88.2 90.2016C87.7 90.7016 87.3 91.2016 87 91.9016C87 92.0016 86.9 92.1016 86.9 92.1016C86.9 92.2016 86.8 92.3016 86.8 92.3016C86.6 92.9016 86.5 93.5016 86.5 94.2016C86.5 97.3016 89 99.8016 92.2 99.8016C95.4 99.8016 97.9 97.3016 97.9 94.2016C97.9 91.1016 95.2 88.6016 92.1 88.6016ZM92.1 97.8016C90.1 97.8016 88.5 96.2016 88.5 94.2016C88.5 93.7016 88.6 93.3016 88.8 92.9016C88.8 92.8016 88.9 92.7016 88.9 92.6016C89 92.4016 89.1 92.3016 89.2 92.1016L89.3 92.0016C89.4 91.9016 89.5 91.7016 89.7 91.6016C89.8 91.5016 89.9 91.4016 90 91.4016C90.6 91.0016 91.3 90.7016 92.1 90.7016C94.1 90.7016 95.7 92.3016 95.7 94.3016C95.7 96.2016 94.1 97.8016 92.1 97.8016Z" fill="#2F5ED1"/>
<path d="M68.9002 50.3984C67.6002 50.3984 66.5002 50.7984 65.5002 51.4984L65.3002 51.5984C65.2002 51.5984 65.2002 51.6984 65.1002 51.7984C64.6002 52.2984 64.1002 52.7984 63.8002 53.3984C63.7002 53.4984 63.7002 53.5984 63.7002 53.5984C63.7002 53.6984 63.6002 53.7984 63.6002 53.7984C63.3002 54.3984 63.2002 55.1984 63.2002 55.8984C63.2002 58.9984 65.7002 61.4984 68.9002 61.4984C72.1002 61.4984 74.6002 58.9984 74.6002 55.8984C74.6002 52.8984 72.1002 50.3984 68.9002 50.3984ZM68.9002 59.5984C66.9002 59.5984 65.3002 57.9984 65.3002 55.9984C65.3002 55.4984 65.4002 55.0984 65.6002 54.6984C65.7002 54.5984 65.7002 54.4984 65.8002 54.3984C65.9002 54.1984 66.0002 53.9984 66.1002 53.8984C66.2002 53.6984 66.4002 53.5984 66.5002 53.3984C66.6002 53.2984 66.7002 53.1984 66.8002 53.1984C67.4002 52.7984 68.1002 52.4984 68.9002 52.4984C70.9002 52.4984 72.5002 54.0984 72.5002 56.0984C72.5002 57.9984 70.9002 59.5984 68.9002 59.5984Z" fill="#2F5ED1"/>
<path d="M96.8 55C95.4 55 94 55.5 93 56.4C92.1 57.1 91.5 58.2 91.2 59.3C91.1 59.7 91 60.1 91 60.6C91 63.7 93.5 66.2 96.7 66.2C99.8 66.2 102.4 63.7 102.4 60.6C102.4 57.5 99.9 55 96.8 55ZM100.3 61C100.1 62.8 98.6 64.2 96.7 64.2C96.2 64.2 95.6 64.1 95.2 63.8C94 63.2 93.1 62 93.1 60.6C93.1 58.6 94.7 57 96.7 57C98.7 57 100.3 58.6 100.3 60.6C100.3 60.7 100.3 60.9 100.3 61Z" fill="#FFA200"/>
<path d="M101.2 70.3008H92.1999C89.7999 70.3008 87.8999 72.1008 87.8999 74.4008V78.4008C87.8999 78.8008 88.0999 79.1008 88.3999 79.3008C88.6999 79.5008 88.9999 79.6008 89.2999 79.8008C89.8999 80.1008 90.5999 80.4008 91.2999 80.6008C91.5999 80.7008 91.9999 80.8008 92.2999 80.9008C92.5999 81.0008 92.8999 81.1008 93.2999 81.1008C93.5999 81.2008 93.7999 81.2008 94.0999 81.2008C94.2999 81.2008 94.4999 81.3008 94.7999 81.3008C94.9999 81.3008 95.0999 81.3008 95.2999 81.3008C95.4999 81.3008 95.5999 81.3008 95.7999 81.3008H95.9999C96.2999 81.3008 96.4999 81.3008 96.6999 81.3008C96.8999 81.3008 97.1999 81.3008 97.3999 81.3008H97.5999C97.7999 81.3008 97.8999 81.3008 98.0999 81.3008C98.2999 81.3008 98.3999 81.3008 98.5999 81.3008C98.7999 81.3008 98.9999 81.2008 99.1999 81.2008C99.4999 81.2008 99.7999 81.1008 99.9999 81.1008C100.7 81.0008 101.3 80.8008 102 80.6008C103 80.3008 104 79.8008 105 79.3008C105.3 79.1008 105.5 78.8008 105.5 78.4008V74.4008C105.5 72.1008 103.6 70.3008 101.2 70.3008ZM103.4 77.8008H103.3V77.9008C102.7 78.2008 102.1 78.4008 101.5 78.7008C101.3 78.8008 101 78.9008 100.8 78.9008C100.5 79.0008 100.3 79.1008 99.9999 79.1008C99.5999 79.2008 99.1999 79.3008 98.7999 79.3008C98.3999 79.4008 97.9999 79.4008 97.5999 79.4008C97.2999 79.4008 97.0999 79.4008 96.7999 79.4008C96.4999 79.4008 96.2999 79.4008 95.9999 79.4008C95.5999 79.4008 95.1999 79.3008 94.7999 79.3008C94.3999 79.2008 93.9999 79.2008 93.5999 79.1008C93.0999 79.0008 92.5999 78.8008 92.0999 78.7008C91.3999 78.5008 90.7999 78.2008 90.1999 77.9008V74.5008C90.1999 73.4008 91.1999 72.4008 92.3999 72.4008H101.4C102.6 72.4008 103.6 73.3008 103.6 74.5008V77.8008H103.4Z" fill="#FFA200"/>
<path d="M59.7 73.3008C56.6 73.3008 54 75.8008 54 78.9008C54 82.0008 56.6 84.5008 59.7 84.5008C62.8 84.5008 65.4 82.0008 65.4 78.9008C65.4 75.8008 62.8 73.3008 59.7 73.3008ZM59.7 82.5008C57.7 82.5008 56.1 80.9008 56.1 78.9008C56.1 76.9008 57.7 75.3008 59.7 75.3008C61.7 75.3008 63.3 76.9008 63.3 78.9008C63.3 80.9008 61.6 82.5008 59.7 82.5008Z" fill="#FFA200"/>
<path d="M64.0999 88.6016H55.0999C52.6999 88.6016 50.7998 90.4016 50.7998 92.7016V96.7016C50.7998 97.1016 50.9998 97.4016 51.2998 97.6016C51.5998 97.8016 51.8998 97.9016 52.1998 98.1016C52.4998 98.2016 52.7999 98.4016 53.0999 98.5016H53.1998C53.4998 98.6016 53.8998 98.8016 54.1998 98.9016C54.4998 99.0016 54.8998 99.1016 55.1998 99.2016C55.7998 99.4016 56.4998 99.5016 57.1998 99.6016C57.2998 99.6016 57.2998 99.6016 57.3998 99.6016C57.6998 99.6016 58.0998 99.7016 58.3998 99.7016C58.7998 99.7016 59.0998 99.7016 59.4998 99.7016C59.8998 99.7016 60.1999 99.7016 60.5999 99.7016C60.8999 99.7016 61.2999 99.7016 61.5999 99.6016H61.6998C62.7998 99.5016 63.7998 99.2016 64.7998 98.9016C65.0998 98.8016 65.4998 98.7016 65.7998 98.5016C66.0998 98.4016 66.4998 98.2016 66.7998 98.1016C67.0998 97.9016 67.3998 97.8016 67.6998 97.6016C67.9998 97.4016 68.1998 97.1016 68.1998 96.7016V92.7016C68.3998 90.5016 66.4999 88.6016 64.0999 88.6016ZM66.1998 96.2016C66.0998 96.2016 66.0998 96.3016 65.9998 96.3016C65.6998 96.4016 65.4998 96.5016 65.1998 96.6016C63.4998 97.3016 61.5999 97.8016 59.5999 97.8016C57.6999 97.8016 55.7999 97.4016 54.0999 96.7016C53.7999 96.6016 53.4998 96.4016 53.1998 96.3016C53.0998 96.3016 52.9998 96.2016 52.8998 96.2016V92.8016C52.8998 91.7016 53.8999 90.8016 55.0999 90.8016H64.0999C65.2999 90.8016 66.2998 91.7016 66.2998 92.8016L66.1998 96.2016C66.2998 96.2016 66.2998 96.2016 66.1998 96.2016Z" fill="#FFA200"/>
<path d="M39.5999 35.1016C37.7999 35.1016 36.1999 35.9016 35.0999 37.2016C34.6999 37.6016 34.4999 38.1016 34.2999 38.7016C33.9999 39.3016 33.8999 40.0016 33.8999 40.7016C33.8999 43.8016 36.3999 46.3016 39.5999 46.3016C42.6999 46.3016 45.2999 43.8016 45.2999 40.7016C45.2999 37.6016 42.6999 35.1016 39.5999 35.1016ZM40.3999 44.2016C40.0999 44.3016 39.8999 44.3016 39.5999 44.3016C39.2999 44.3016 39.0999 44.3016 38.7999 44.2016C37.1999 43.8016 35.9999 42.4016 35.9999 40.7016C35.9999 38.7016 37.5999 37.1016 39.5999 37.1016C41.5999 37.1016 43.1999 38.7016 43.1999 40.7016C43.1999 42.4016 41.9999 43.8016 40.3999 44.2016Z" fill="#FFA200"/>
<path d="M44.0999 50.3984H35.0999C32.6999 50.3984 30.7998 52.2984 30.7998 54.4984V58.4984C30.7998 58.8984 30.9998 59.1984 31.2998 59.3984C31.2998 59.3984 31.3998 59.3984 31.3998 59.4984C31.6998 59.5984 31.9998 59.7984 32.2998 59.8984C32.4998 59.9984 32.5998 60.0984 32.7998 60.0984C32.9998 60.1984 33.0998 60.1984 33.2998 60.2984C33.5998 60.3984 33.9998 60.5984 34.2998 60.6984C35.2998 60.9984 36.2998 61.2984 37.3998 61.3984H37.4998C37.7998 61.3984 38.1998 61.4984 38.4998 61.4984C38.8998 61.4984 39.1999 61.4984 39.5999 61.4984C39.9999 61.4984 40.2998 61.4984 40.6998 61.4984C40.9998 61.4984 41.3998 61.4984 41.6998 61.3984C41.7998 61.3984 41.7998 61.3984 41.8998 61.3984C42.5998 61.2984 43.2998 61.1984 43.8998 60.9984C44.1998 60.8984 44.5998 60.7984 44.8998 60.6984C45.1998 60.5984 45.5998 60.3984 45.8998 60.2984H45.9998C46.2998 60.1984 46.6998 59.9984 46.9998 59.7984C47.1998 59.6984 47.4998 59.5984 47.6998 59.3984C47.7998 59.3984 47.8998 59.2984 47.8998 59.2984C48.1998 59.0984 48.3998 58.7984 48.3998 58.4984V54.4984C48.2998 52.1984 46.3999 50.3984 44.0999 50.3984ZM46.0999 57.9984C45.9999 57.9984 45.9998 58.0984 45.8998 58.0984C45.5998 58.1984 45.2998 58.3984 44.9998 58.4984C43.2998 59.1984 41.3998 59.5984 39.4998 59.5984C37.4998 59.5984 35.5998 59.1984 33.8998 58.4984C33.5998 58.3984 33.3999 58.2984 33.0999 58.0984C32.9999 58.0984 32.8998 57.9984 32.7998 57.9984V54.5984C32.7998 53.4984 33.7998 52.4984 34.9998 52.4984H43.9998C45.1998 52.4984 46.1998 53.3984 46.1998 54.5984V57.9984C46.1998 57.8984 46.1999 57.9984 46.0999 57.9984Z" fill="#FFA200"/>
<path d="M76.8 15.1992C73.7 15.1992 71.1001 17.6992 71.1001 20.7992C71.1001 23.8992 73.7 26.3992 76.8 26.3992C79.9 26.3992 82.5001 23.8992 82.5001 20.7992C82.5001 17.6992 79.9 15.1992 76.8 15.1992ZM76.8 24.3992C74.8 24.3992 73.2001 22.7992 73.2001 20.7992C73.2001 18.7992 74.8 17.1992 76.8 17.1992C78.8 17.1992 80.4001 18.7992 80.4001 20.7992C80.4001 22.7992 78.8 24.3992 76.8 24.3992Z" fill="#FFA200"/>
<path d="M39.5999 9.10156C36.4999 9.10156 33.8999 11.6016 33.8999 14.7016C33.8999 17.3016 35.6999 19.5016 37.9999 20.1016C38.0999 20.1016 38.1999 20.1016 38.2999 20.2016C38.3999 20.2016 38.4999 20.2016 38.5999 20.3016C38.8999 20.4016 39.2999 20.4016 39.5999 20.4016C39.9999 20.4016 40.2999 20.4016 40.5999 20.3016C40.6999 20.3016 40.7999 20.3016 40.8999 20.3016C40.9999 20.3016 41.0999 20.3016 41.1999 20.2016C43.5999 19.5016 45.2999 17.4016 45.2999 14.8016C45.2999 11.6016 42.6999 9.10156 39.5999 9.10156ZM40.5999 18.1016C40.4999 18.1016 40.3999 18.2016 40.2999 18.2016C40.0999 18.2016 39.8999 18.3016 39.5999 18.3016C39.2999 18.3016 39.0999 18.3016 38.8999 18.2016C38.7999 18.2016 38.6999 18.2016 38.5999 18.1016C37.0999 17.7016 35.9999 16.3016 35.9999 14.7016C35.9999 12.7016 37.5999 11.1016 39.5999 11.1016C41.5999 11.1016 43.1999 12.7016 43.1999 14.7016C43.1999 16.3016 42.0999 17.7016 40.5999 18.1016Z" fill="#2F5ED1"/>
<path d="M110 57.3008L109.9 57.4008C109.5 57.7008 109.3 58.2008 109.6 58.7008C110.6 60.6008 111.2 62.8008 111.2 65.2008C111.2 69.6008 109.2 73.5008 106.1 76.1008C106 76.2008 105.9 76.3008 105.8 76.3008C105.7 76.4008 105.6 76.4008 105.5 76.5008C104.7 77.1008 103.8 77.6008 102.9 78.1008C102.3 78.4008 101.7 78.6008 101.2 78.8008C101.1 78.8008 100.9 78.9008 100.8 78.9008C100.5 79.0008 100.3 79.1008 99.9998 79.1008C99.5998 79.2008 99.1998 79.3008 98.7998 79.3008C98.3998 79.4008 97.9999 79.4008 97.5999 79.4008C97.2999 79.4008 97.0998 79.4008 96.7998 79.4008C96.4998 79.4008 96.2998 79.4008 95.9998 79.4008C95.5998 79.4008 95.1998 79.3008 94.7998 79.3008C94.3998 79.2008 93.9999 79.2008 93.5999 79.1008C93.0999 79.0008 92.5999 78.8008 92.0999 78.7008C91.3999 78.5008 90.7998 78.2008 90.1998 77.9008C89.4998 77.5008 88.7999 77.1008 88.0999 76.6008C87.9999 76.5008 87.8998 76.5008 87.7998 76.4008C87.6998 76.3008 87.5998 76.3008 87.4998 76.2008C86.0998 75.0008 84.8998 73.5008 83.9998 71.8008C83.8998 71.7008 83.8998 71.6008 83.7998 71.5008C83.5998 71.2008 83.4998 70.8008 83.3998 70.5008C83.3998 70.4008 83.2998 70.3008 83.2998 70.2008C83.2998 70.1008 83.1998 70.0008 83.1998 69.8008C82.6998 68.4008 82.3998 66.8008 82.3998 65.2008C82.3998 58.2008 87.5998 52.3008 94.3998 51.1008C94.4998 51.1008 94.6998 51.1008 94.7998 51.0008C95.1998 50.9008 95.5999 50.9008 96.0999 50.9008C96.1999 50.9008 96.3998 50.9008 96.4998 50.9008C96.5998 50.9008 96.7998 50.9008 96.8998 50.9008C100.4 50.9008 103.6 52.2008 106.2 54.2008C106.7 54.6008 107.3 54.5008 107.6 54.0008L107.7 53.9008C108 53.5008 107.9 53.0008 107.5 52.6008C104.6 50.2008 101 48.8008 96.8998 48.8008C96.7998 48.8008 96.5998 48.8008 96.4998 48.8008C96.3998 48.8008 96.2998 48.8008 96.1998 48.8008C96.0998 48.8008 95.9998 48.8008 95.8998 48.8008C95.0998 48.8008 94.2998 49.0008 93.4998 49.1008C93.3998 49.1008 93.2998 49.1008 93.1998 49.2008C93.0998 49.2008 92.9998 49.2008 92.8998 49.3008C85.6998 51.1008 80.2998 57.5008 80.2998 65.2008C80.2998 67.0008 80.5999 68.7008 81.0999 70.3008C81.0999 70.4008 81.1998 70.5008 81.1998 70.6008C81.1998 70.7008 81.2998 70.8008 81.2998 70.9008C81.5998 71.6008 81.7998 72.2008 82.1998 72.8008C82.1998 72.9008 82.2998 73.0008 82.2998 73.0008C82.2998 73.1008 82.3998 73.1008 82.3998 73.2008C83.6998 75.4008 85.3998 77.3008 87.4998 78.7008C87.5998 78.8008 87.6998 78.8008 87.7998 78.9008C87.9998 79.0008 88.1998 79.2008 88.4998 79.3008C88.7998 79.5008 89.0998 79.6008 89.3998 79.8008C89.9998 80.1008 90.6998 80.4008 91.3998 80.6008C91.6998 80.7008 92.0998 80.8008 92.3998 80.9008C92.6998 81.0008 92.9998 81.0008 93.1998 81.1008C93.4998 81.1008 93.8999 81.2008 94.0999 81.3008L94.7998 81.4008C94.9998 81.4008 95.0998 81.4008 95.2998 81.4008C95.4998 81.4008 95.5998 81.4008 95.7998 81.4008H95.9998C96.2998 81.4008 96.4998 81.4008 96.6998 81.4008C96.8998 81.4008 97.1998 81.4008 97.3998 81.4008H97.5999C97.7999 81.4008 97.8999 81.4008 98.0999 81.4008C98.2999 81.4008 98.3999 81.4008 98.5999 81.4008C98.7999 81.4008 98.9998 81.3008 99.1998 81.3008C99.4998 81.3008 99.7998 81.2008 99.9998 81.2008C100.7 81.1008 101.3 80.9008 102 80.7008C103 80.4008 104 79.9008 105 79.4008C105.2 79.3008 105.5 79.1008 105.7 79.0008C105.8 78.9008 105.9 78.9008 106 78.8008C110.4 75.9008 113.3 70.9008 113.3 65.3008C113.3 62.6008 112.6 60.1008 111.5 57.9008C111.2 57.2008 110.5 57.0008 110 57.3008Z" fill="#2F5ED1"/>
<path d="M81.6999 30.5H72.6999C70.2999 30.5 68.3999 32.3 68.3999 34.6V38.6C68.3999 39 68.5999 39.3 68.8999 39.5C69.1999 39.7 69.4999 39.8 69.7999 40C70.3999 40.3 71.0999 40.6 71.7999 40.8C72.0999 40.9 72.4999 41 72.7999 41.1C73.0999 41.2 73.3999 41.3 73.7999 41.3C74.0999 41.4 74.2999 41.4 74.5999 41.4C74.7999 41.4 74.9999 41.5 75.2999 41.5C75.4999 41.5 75.5999 41.5 75.7999 41.5C75.9999 41.5 76.0999 41.5 76.2999 41.5H76.4999C76.7999 41.5 76.9999 41.5 77.1999 41.5C77.3999 41.5 77.6999 41.5 77.8999 41.5H78.0999C78.2999 41.5 78.3999 41.5 78.5999 41.5C78.7999 41.5 78.8999 41.5 79.0999 41.5C79.2999 41.5 79.4999 41.4 79.6999 41.4C79.9999 41.4 80.2999 41.3 80.4999 41.3C81.1999 41.2 81.7999 41 82.4999 40.8C83.4999 40.5 84.4999 40 85.4999 39.5C85.7999 39.3 85.9999 39 85.9999 38.6V34.6C85.8999 32.3 83.9999 30.5 81.6999 30.5ZM83.8999 38H83.7999V38.1C83.1999 38.4 82.5999 38.6 81.9999 38.9C81.7999 39 81.4999 39.1 81.2999 39.1C80.9999 39.2 80.7999 39.3 80.4999 39.3C80.0999 39.4 79.6999 39.5 79.2999 39.5C78.8999 39.6 78.4999 39.6 78.0999 39.6C77.7999 39.6 77.5999 39.6 77.2999 39.6C76.9999 39.6 76.7999 39.6 76.4999 39.6C76.0999 39.6 75.6999 39.5 75.2999 39.5C74.8999 39.4 74.4999 39.4 74.0999 39.3C73.5999 39.2 73.0999 39 72.5999 38.9C71.8999 38.7 71.2999 38.4 70.6999 38.1V34.7C70.6999 33.6 71.6999 32.6 72.8999 32.6H81.8999C83.0999 32.6 84.0999 33.5 84.0999 34.7V38H83.8999Z" fill="#FFA200"/>
<path d="M89.8 16.5C89.3 16.8 89.1001 17.4 89.4001 17.9C90.7001 20.1 91.5001 22.6 91.5001 25.3C91.5001 29.7 89.5001 33.6 86.4001 36.2C86.3001 36.3 86.2001 36.3 86.1001 36.4C86.0001 36.5 85.9 36.5 85.8 36.6C85 37.2 84.1001 37.7 83.2001 38.2C82.6001 38.5 82.0001 38.7 81.5001 38.9C81.4001 38.9 81.2001 39 81.1001 39C80.8001 39.1 80.6 39.2 80.3 39.2C79.9 39.3 79.5001 39.4 79.1001 39.4C78.7001 39.4 78.3001 39.5 77.9001 39.5C77.6001 39.5 77.4001 39.5 77.1001 39.5C76.8001 39.5 76.6 39.5 76.3 39.5C75.9 39.5 75.5001 39.4 75.1001 39.4C74.7001 39.3 74.3001 39.3 73.9001 39.2C73.4001 39.1 72.9001 38.9 72.4001 38.8C71.7001 38.6 71.1001 38.3 70.5001 38C69.8001 37.6 69.1001 37.2 68.4001 36.7C68.3001 36.6 68.2001 36.6 68.1001 36.5C68.0001 36.4 67.9 36.4 67.8 36.3C66.4 35.1 65.2 33.6 64.3 31.9C64.2 31.8 64.2001 31.7 64.1001 31.6C63.9001 31.3 63.8001 30.9 63.6001 30.6C63.6001 30.5 63.5001 30.4 63.5001 30.3C63.5001 30.2 63.4001 30.1 63.4001 30C62.9001 28.6 62.6001 27 62.6001 25.4C62.6001 18.4 67.8001 12.5 74.6001 11.3C74.7001 11.3 74.9001 11.3 75.0001 11.2C75.4001 11.2 75.8 11.1 76.3 11.1C76.4 11.1 76.6001 11.1 76.7001 11.1C76.8001 11.1 77.0001 11.1 77.1001 11.1C80.4001 11.1 83.4 12.2 85.8 14C86.3 14.4 87 14.2 87.3 13.7C87.6 13.3 87.5001 12.7 87.1001 12.3C84.3001 10.2 80.9001 9 77.2001 9C77.1001 9 76.9 9 76.8 9C76.7 9 76.6001 9 76.5001 9C76.4001 9 76.3001 9 76.2001 9C75.4001 9 74.6 9.2 73.8 9.3C73.7 9.3 73.6001 9.3 73.5001 9.4C73.4001 9.4 73.3001 9.4 73.2001 9.5C66.0001 11.3 60.6001 17.7 60.6001 25.4C60.6001 27.2 60.9001 28.9 61.4001 30.5C61.4001 30.6 61.4001 30.7 61.5001 30.8C61.5001 30.9 61.6001 31 61.6001 31.1C61.9001 31.8 62.1001 32.4 62.5001 33C62.5001 33.1 62.6001 33.2 62.6001 33.2C62.6001 33.3 62.7001 33.4 62.7001 33.4C64.0001 35.6 65.7 37.5 67.8 38.9C67.9 39 68.0001 39 68.1001 39.1C68.3001 39.2 68.5 39.4 68.8 39.5C68.8 39.5 68.8001 39.5 68.9001 39.5C69.2001 39.7 69.5 39.8 69.8 40C70.4 40.3 71.1 40.6 71.8 40.8C72.1 40.9 72.5 41 72.8 41.1C73.1 41.2 73.4001 41.2 73.6001 41.3C73.9001 41.3 74.3001 41.4 74.5001 41.5L75.2001 41.6C75.4001 41.6 75.5001 41.6 75.7001 41.6C75.9001 41.6 76.0001 41.6 76.2001 41.6H76.4001C76.7001 41.6 76.9001 41.6 77.1001 41.6C77.3001 41.6 77.6 41.6 77.8 41.6H78.0001C78.2001 41.6 78.3001 41.6 78.5001 41.6C78.7001 41.6 78.8001 41.6 79.0001 41.6C79.2001 41.6 79.4001 41.6 79.6001 41.5C79.9001 41.5 80.2001 41.4 80.4001 41.4C81.1001 41.3 81.7001 41.1 82.4001 40.9C83.4001 40.6 84.4001 40.1 85.4001 39.6C85.6001 39.5 85.9001 39.3 86.1001 39.2C86.2001 39.1 86.3001 39.1 86.4001 39C90.8001 36.1 93.7001 31.1 93.7001 25.5C93.7001 22.4 92.8 19.5 91.3 17C91 16.4 90.3 16.2 89.8 16.5Z" fill="#2F5ED1"/>
<path d="M75.3 78.3984C75.3 78.2984 75.3001 78.1984 75.2001 78.0984C75.2001 77.9984 75.1001 77.8984 75.1001 77.7984C74.8001 77.0984 74.6001 76.4984 74.2001 75.8984C74.2001 75.7984 74.1001 75.6984 74.1001 75.6984C74.1001 75.5984 74.0001 75.4984 74.0001 75.4984C73.5001 74.5984 72.9 73.7984 72.3 72.9984C72 72.5984 71.4001 72.5984 71.0001 72.7984L70.9001 72.8984C70.4001 73.1984 70.3001 73.8984 70.7001 74.3984C71.4001 75.1984 71.9001 75.9984 72.4001 76.9984C72.5001 77.0984 72.5001 77.1984 72.6001 77.2984C72.7001 77.4984 72.8001 77.6984 72.9001 77.8984V77.9984C73.0001 78.1984 73.1001 78.3984 73.2001 78.5984C73.2001 78.6984 73.3 78.7984 73.3 78.8984C73.8 80.2984 74.1001 81.8984 74.1001 83.4984C74.1001 83.5984 74.1001 83.7984 74.1001 83.8984C74.1001 83.9984 74.1001 84.1984 74.1001 84.2984C74.1001 84.6984 74.0001 85.0984 74.0001 85.4984C74.0001 85.5984 74.0001 85.7984 73.9001 85.8984C73.3001 89.2984 71.5001 92.2984 69.0001 94.3984C68.9001 94.4984 68.8001 94.5984 68.7001 94.5984C68.6001 94.6984 68.5001 94.6984 68.4001 94.7984C67.7001 95.2984 67 95.6984 66.3 96.0984C66.3 96.0984 66.2001 96.0984 66.2001 96.1984C66.1001 96.1984 66.1001 96.2984 66.0001 96.2984C65.7001 96.3984 65.5001 96.4984 65.2001 96.5984C63.5001 97.2984 61.6001 97.7984 59.6001 97.7984C57.7001 97.7984 55.8001 97.3984 54.1001 96.6984C53.8001 96.5984 53.5001 96.3984 53.2001 96.2984C53.1001 96.2984 53.0001 96.1984 52.9001 96.1984C52.2001 95.7984 51.5 95.3984 50.8 94.8984C50.7 94.7984 50.6001 94.7984 50.5001 94.6984C50.4001 94.5984 50.3001 94.5984 50.2001 94.4984C47.3001 92.0984 45.4001 88.5984 45.1001 84.6984C45.1001 84.5984 45.1001 84.4984 45.1001 84.3984C45.1001 84.1984 45.1001 83.8984 45.1001 83.6984C45.1001 83.4984 45.1001 83.1984 45.1001 82.9984C45.1001 82.8984 45.1001 82.7984 45.1001 82.6984C45.7001 75.2984 51.9001 69.4984 59.5001 69.4984C61.8001 69.4984 64.0001 70.0984 66.0001 70.9984C66.5001 71.1984 67 71.0984 67.3 70.6984V70.5984C67.6 70.0984 67.4001 69.4984 66.9001 69.1984C64.7001 68.0984 62.1001 67.3984 59.5001 67.3984C50.9001 67.3984 43.9001 73.8984 43.1001 82.1984C43.1001 82.2984 43.1001 82.3984 43.1001 82.4984C43.1001 82.5984 43.1001 82.6984 43.1001 82.7984C43.1001 83.0984 43.1001 83.4984 43.1001 83.7984C43.1001 84.0984 43.1001 84.4984 43.1001 84.7984C43.1001 84.8984 43.1001 84.9984 43.1001 85.0984C43.1001 85.1984 43.1001 85.2984 43.1001 85.2984C43.6001 90.2984 46.3 94.5984 50.3 97.2984C50.4 97.3984 50.5001 97.3984 50.6001 97.4984C50.8001 97.5984 51 97.7984 51.3 97.8984C51.6 98.0984 51.9001 98.1984 52.2001 98.3984C52.5001 98.4984 52.8001 98.6984 53.1001 98.7984H53.2001C53.5001 98.8984 53.9001 99.0984 54.2001 99.1984C54.5001 99.2984 54.9001 99.3984 55.2001 99.4984C55.8001 99.6984 56.5001 99.7984 57.2001 99.8984C57.3001 99.8984 57.3001 99.8984 57.4001 99.8984C57.7001 99.8984 58.1001 99.9984 58.4001 99.9984C58.8001 99.9984 59.1001 99.9984 59.5001 99.9984C59.9001 99.9984 60.2001 99.9984 60.6001 99.9984C60.9001 99.9984 61.3001 99.9984 61.6001 99.8984H61.7001C62.8001 99.7984 63.8 99.4984 64.8 99.1984C65.1 99.0984 65.5 98.9984 65.8 98.7984C66.1 98.6984 66.5 98.4984 66.8 98.3984C67.1 98.1984 67.4001 98.0984 67.7001 97.8984C67.9001 97.7984 68.2001 97.5984 68.4001 97.4984C68.5001 97.3984 68.6001 97.3984 68.7001 97.2984C72.1001 94.9984 74.6001 91.4984 75.6001 87.2984C75.6001 87.1984 75.6001 87.0984 75.7001 86.9984C75.7001 86.8984 75.7001 86.7984 75.7001 86.6984C75.8001 85.9984 75.9001 85.2984 76.0001 84.4984C76.0001 84.3984 76.0001 84.2984 76.0001 84.1984V83.8984C76.0001 83.7984 76.0001 83.6984 76.0001 83.5984C76.2001 81.7984 75.9 79.9984 75.3 78.3984Z" fill="#2F5ED1"/>
<path d="M54 37.5984C54 37.4984 53.9 37.4984 53.9 37.3984C53.9 37.2984 53.8 37.2984 53.8 37.1984C53.6 36.8984 53.4 36.5984 53.3 36.2984C53.1 35.9984 52.9 35.6984 52.7 35.3984C52.6 35.2984 52.6 35.2984 52.5 35.1984C52.4 35.0984 52.4 35.0984 52.3 34.9984C51.6 34.0984 50.9 33.3984 50 32.6984C49.6 32.3984 49 32.3984 48.6 32.7984C48.4 32.9984 48.3 33.2984 48.3 33.4984C48.3 33.6984 48.4 33.8984 48.5 34.0984C48.6 34.1984 48.8 34.2984 48.9 34.3984C49 34.4984 49.1 34.4984 49.2 34.5984C49.6 34.8984 49.9 35.2984 50.2 35.5984C50.3 35.6984 50.4 35.7984 50.4 35.8984C52.4 38.1984 53.6 40.9984 53.8 44.0984C53.8 44.1984 53.8 44.2984 53.8 44.4984C53.8 44.6984 53.8 44.9984 53.8 45.1984C53.8 45.3984 53.8 45.6984 53.8 45.8984C53.8 45.9984 53.8 46.0984 53.8 46.2984C53.6 48.2984 53.1 50.1984 52.1 51.8984C52 52.0984 51.9 52.1984 51.8 52.3984C51 53.7984 49.9 55.0984 48.6 56.0984C48.5 56.1984 48.4 56.2984 48.3 56.2984L48.2 56.3984C47.5 56.8984 46.7 57.3984 45.9 57.7984C45.9 57.7984 45.9 57.7984 45.8 57.7984C45.7 57.7984 45.7 57.8984 45.6 57.8984C45.3 57.9984 45 58.1984 44.7 58.2984C43 58.9984 41.1 59.3984 39.2 59.3984C37.2 59.3984 35.3 58.9984 33.6 58.2984C33.3 58.1984 33.1 58.0984 32.8 57.8984C32.7 57.8984 32.6 57.7984 32.5 57.7984C32.3 57.6984 32.2 57.5984 32 57.4984C31.4 57.1984 30.9 56.7984 30.4 56.3984C30.3 56.2984 30.2 56.2984 30.1 56.1984C30 56.0984 29.9 56.0984 29.8 55.9984C27.2 53.5984 25.2 49.6984 25.2 45.2984C25.2 42.8984 25.8 40.5984 26.9 38.5984C27 38.2984 27.2 38.0984 27.4 37.7984C29.8 33.9984 33.8 31.3984 38.5 31.0984C38.6 31.0984 38.7 31.0984 38.9 31.0984C39.1 31.0984 39.4 31.0984 39.6 31.0984C39.9 31.0984 40.1 31.0984 40.3 31.0984C40.4 31.0984 40.5 31.0984 40.7 31.0984C41.7 31.1984 42.8 31.3984 43.7 31.5984C43.8 31.5984 43.9 31.5984 43.9 31.5984C44.4 31.5984 44.8 31.2984 45 30.7984C45 30.6984 45 30.5984 45 30.4984C45 30.0984 44.7 29.6984 44.3 29.4984C43.3 29.1984 42.2 28.9984 41.1 28.8984C41 28.8984 40.9 28.8984 40.8 28.8984C40.7 28.8984 40.6 28.8984 40.5 28.8984C40.2 28.8984 39.8 28.8984 39.5 28.8984C39.2 28.8984 38.8 28.8984 38.5 28.8984C38.4 28.8984 38.3 28.8984 38.2 28.8984C38.1 28.8984 38 28.8984 37.9 28.8984C32.4 29.3984 27.7 32.5984 25.1 37.0984C25 37.2984 24.9 37.4984 24.8 37.6984C23.6 39.8984 23 42.4984 23 45.1984C23 50.7984 25.9 55.7984 30.3 58.6984C30.4 58.7984 30.5 58.7984 30.6 58.8984C30.9 59.0984 31.1 59.1984 31.4 59.3984C31.5 59.3984 31.6 59.4984 31.6 59.4984C31.8 59.5984 32 59.6984 32.2 59.7984C32.2 59.7984 32.2 59.7984 32.3 59.7984C32.5 59.8984 32.6 59.9984 32.8 59.9984C33 60.0984 33.1 60.0984 33.3 60.1984C33.6 60.2984 34 60.4984 34.3 60.5984C35.3 60.8984 36.3 61.1984 37.4 61.2984H37.5C37.8 61.2984 38.2 61.3984 38.5 61.3984C38.9 61.3984 39.2 61.3984 39.6 61.3984C40 61.3984 40.3 61.3984 40.7 61.3984C41 61.3984 41.4 61.3984 41.7 61.2984C41.8 61.2984 41.8 61.2984 41.9 61.2984C42.6 61.1984 43.3 61.0984 43.9 60.8984C44.2 60.7984 44.6 60.6984 44.9 60.5984C45.2 60.4984 45.6 60.2984 45.9 60.1984H46C46.3 60.0984 46.7 59.8984 47 59.6984C47.5 59.3984 48 59.1984 48.5 58.8984C48.6 58.7984 48.7 58.7984 48.8 58.6984C50.9 57.2984 52.6 55.4984 53.8 53.2984C53.9 53.1984 54 52.9984 54 52.8984C56.5 48.2984 56.6 42.4984 54 37.5984Z" fill="#2F5ED1"/>
<path d="M135.115 101.276C135.115 99.9394 132.593 98.7703 128.896 98.2693C128.559 94.595 127.383 92.0898 126.038 92.0898C124.694 92.0898 123.517 94.595 123.013 98.2693C119.315 98.6033 116.794 99.7724 116.794 101.109C116.794 102.445 119.315 103.614 123.013 104.115C123.349 107.789 124.526 110.294 125.87 110.294C127.215 110.294 128.391 107.789 128.896 104.115C132.425 103.614 135.115 102.612 135.115 101.276Z" fill="#FFE48F"/>
<path d="M13.7405 66.8893C13.7405 65.8872 11.8496 65.0104 9.07627 64.6346C8.82415 61.8789 7.94173 60 6.93326 60C5.92479 60 5.04237 61.8789 4.66419 64.6346C1.89089 64.8851 0 65.7619 0 66.764C0 67.7661 1.89089 68.6429 4.66419 69.0187C4.91631 71.7744 5.79873 73.6533 6.8072 73.6533C7.81567 73.6533 8.69809 71.7744 9.07627 69.0187C11.7235 68.6429 13.7405 67.8913 13.7405 66.8893Z" fill="#9FADF0"/>
<circle cx="47.1797" cy="105.949" r="5" stroke="#E02287" stroke-opacity="0.6" stroke-width="3"/>
<path d="M116.321 9.18569C116.321 7.84959 113.799 6.68049 110.102 6.17946C109.766 2.50518 108.589 0 107.244 0C105.9 0 104.723 2.50518 104.219 6.17946C100.521 6.51348 98 7.68256 98 9.01866C98 10.3548 100.521 11.5239 104.219 12.0249C104.555 15.6992 105.732 18.2043 107.076 18.2043C108.421 18.2043 109.597 15.6992 110.102 12.0249C113.631 11.5239 116.321 10.5218 116.321 9.18569Z" fill="#9FADF0"/>
<rect x="14" y="18.4609" width="6.90165" height="6.90165" transform="rotate(-45 14 18.4609)" fill="#E02287" fill-opacity="0.6"/>
</svg>
