<svg width="109" height="107" viewBox="0 0 109 107" fill="none" xmlns="http://www.w3.org/2000/svg">
<path d="M64.0999 65.4008C71.3999 59.8008 75.5999 51.4008 75.5999 42.3008C75.5999 35.5008 73.1999 29.0008 68.8999 23.8008C68.6999 23.6008 68.4999 23.5008 68.1999 23.5008C67.9999 23.5008 67.7999 23.6008 67.5999 23.7008C67.3999 23.9008 67.2999 24.1008 67.2999 24.3008C67.2999 24.5008 67.2999 24.8008 67.4999 24.9008C71.5999 29.8008 73.7999 36.0008 73.7999 42.3008C73.7999 50.8008 69.8999 58.7008 62.9999 64.0008C61.2999 65.3008 60.2999 67.3008 60.2999 69.4008V72.6008H32.0999V69.4008C32.0999 67.3008 31.0999 65.3008 29.3999 64.0008C22.4999 58.7008 18.4999 50.7008 18.5999 42.0008C18.6999 34.6008 21.6999 27.6008 27.0999 22.5008C32.1999 17.6008 38.9999 15.0008 46.0999 15.0008C46.3999 15.0008 46.7999 15.0008 47.0999 15.0008C53.1999 15.2008 58.8999 17.3008 63.5999 21.1008C63.7999 21.2008 63.9999 21.3008 64.1999 21.3008C64.4999 21.3008 64.6999 21.2008 64.8999 21.0008C65.0999 20.8008 65.0999 20.6008 65.0999 20.4008C65.0999 20.2008 64.9999 19.9008 64.7999 19.8008C59.7999 15.7008 53.6999 13.5008 47.2999 13.3008C46.9999 13.3008 46.5999 13.3008 46.2999 13.3008C38.6999 13.3008 31.3999 16.2008 25.9999 21.4008C20.1999 26.8008 16.9999 34.2008 16.8999 42.1008C16.8999 46.8008 17.8999 51.2008 19.8999 55.4008C21.8999 59.4008 24.7999 62.9008 28.2999 65.5008C29.5999 66.5008 30.2999 68.0008 30.2999 69.5008V72.8008L30.0999 72.9008H29.9999C28.3999 73.4008 27.2999 74.9008 27.2999 76.6008C27.2999 78.3008 28.3999 79.7008 29.9999 80.3008H30.0999L30.2999 80.4008V91.7008C30.2999 95.0008 32.7999 97.8008 35.9999 98.3008H36.0999H36.2999V98.5008V98.6008C36.8999 101.901 39.6999 104.201 43.0999 104.201H49.0999C52.4999 104.201 55.2999 101.801 55.8999 98.6008V98.5008V98.2008H56.1999H56.2999C59.5999 97.7008 61.9999 94.9008 61.9999 91.6008V80.2008L62.1999 80.1008H62.2999C63.8999 79.6008 64.9999 78.1008 64.9999 76.4008C64.9999 74.7008 63.8999 73.2008 62.2999 72.7008H62.1999L61.9999 72.6008V69.3008C62.0999 67.8008 62.7999 66.3008 64.0999 65.4008ZM53.7999 98.6008C53.1999 100.501 51.3999 101.901 49.1999 101.901H43.1999C40.9999 101.901 39.1999 100.501 38.5999 98.6008L38.4999 98.4008H53.7999V98.6008ZM59.7999 92.7008C59.2999 94.6008 57.4999 96.1008 55.3999 96.1008H36.9999C34.8999 96.1008 33.0999 94.7008 32.5999 92.7008L32.4999 92.5008H59.8999L59.7999 92.7008ZM59.9999 90.1008H32.3999V86.6008H59.9999V90.1008ZM62.9999 76.4008C62.9999 77.4008 62.1999 78.2008 61.1999 78.2008H41.0999C40.3999 78.2008 39.8999 78.7008 39.8999 79.4008C39.8999 80.1008 40.3999 80.6008 41.0999 80.6008H59.9999V84.1008H32.3999V80.6008H35.6999C36.3999 80.6008 36.8999 80.1008 36.8999 79.4008C36.8999 78.7008 36.3999 78.2008 35.6999 78.2008H31.1999C30.1999 78.2008 29.3999 77.4008 29.3999 76.4008C29.3999 75.4008 30.1999 74.6008 31.1999 74.6008H61.1999C62.1999 74.7008 62.9999 75.5008 62.9999 76.4008Z" fill="#2F5ED1"/>
<path d="M11.2 42.3019C11.2 42.9019 10.7 43.3019 10.1 43.3019H4.10001C3.50001 43.3019 3 42.8019 3 42.3019C3 41.7019 3.50001 41.3019 4.10001 41.3019H10.1C10.8 41.2019 11.2 41.7019 11.2 42.3019Z" fill="#FFA200"/>
<path d="M15.9002 59.6016C15.7002 59.3016 15.3002 59.1016 15.0002 59.1016C14.8002 59.1016 14.6002 59.1016 14.5002 59.2016L9.30021 62.2016C9.00021 62.3016 8.90021 62.6016 8.80021 62.8016C8.70021 63.1016 8.80022 63.3016 8.90022 63.6016C9.10022 63.9016 9.40021 64.1016 9.80021 64.1016C10.0002 64.1016 10.2002 64.1016 10.3002 64.0016L15.5002 61.0016C15.7002 60.9016 15.9002 60.6016 16.0002 60.4016C16.1002 60.2016 16.1002 59.8016 15.9002 59.6016Z" fill="#FFA200"/>
<path d="M83.5002 63.6016C83.2002 64.1016 82.5002 64.3016 82.0002 64.0016L76.8002 61.0016C76.5002 60.9016 76.4002 60.6016 76.3002 60.4016C76.2002 60.1016 76.3002 59.9016 76.4002 59.6016C76.6002 59.3016 76.9002 59.1016 77.3002 59.1016C77.5002 59.1016 77.7002 59.1016 77.8002 59.2016L83.0002 62.2016C83.3002 62.3016 83.4002 62.6016 83.5002 62.8016C83.7002 63.1016 83.6002 63.3016 83.5002 63.6016Z" fill="#FFA200"/>
<path d="M67.3998 6.59955C67.3998 6.79955 67.3998 6.99955 67.2998 7.09955L64.2998 12.1995C63.9998 12.6995 63.3998 12.8995 62.8998 12.5995C62.5998 12.4995 62.4998 12.1995 62.3998 11.9995C62.2998 11.6995 62.3998 11.4995 62.4998 11.1995L65.4998 6.09955C65.7998 5.59955 66.3998 5.39955 66.9998 5.69955C67.1998 5.89955 67.3998 6.19955 67.3998 6.59955Z" fill="#FFA200"/>
<path d="M89.2 42.3019C89.2 42.9019 88.7 43.3019 88.1 43.3019H82.1C81.5 43.3019 81 42.8019 81 42.3019C81 41.7019 81.5 41.3019 82.1 41.3019H88.1C88.8 41.2019 89.2 41.7019 89.2 42.3019Z" fill="#FFA200"/>
<path d="M46.4002 1V7C46.4002 7.6 45.9002 8 45.3002 8C44.7002 8 44.2002 7.5 44.2002 7V1C44.2002 0.4 44.7002 0 45.3002 0C45.9002 0 46.4002 0.5 46.4002 1Z" fill="#FFA200"/>
<path d="M83.5998 21.6984C83.4998 21.9984 83.2998 22.1984 83.0998 22.2984L77.8998 25.2984C77.6998 25.3984 77.5998 25.3984 77.3998 25.3984C76.9998 25.3984 76.6998 25.1984 76.4998 24.8984C76.3998 24.6984 76.2998 24.3984 76.3998 24.0984C76.4998 23.7984 76.6998 23.5984 76.8998 23.4984L82.0998 20.4984C82.2998 20.3984 82.3998 20.3984 82.5998 20.3984C82.9998 20.3984 83.2998 20.5984 83.4998 20.8984C83.5998 21.1984 83.6998 21.4984 83.5998 21.6984Z" fill="#FFA200"/>
<path d="M28.3998 11.7992C28.3998 12.1992 28.1998 12.4992 27.8998 12.6992C27.3998 12.9992 26.7998 12.7992 26.4998 12.2992L23.4998 7.19922C23.3998 6.99922 23.2998 6.69922 23.3998 6.39922C23.4998 6.09922 23.6998 5.89922 23.8998 5.79922C24.0998 5.69922 24.1998 5.69922 24.3998 5.69922C24.7998 5.69922 25.0998 5.89922 25.2998 6.19922L28.2998 11.2992C28.3998 11.3992 28.3998 11.5992 28.3998 11.7992Z" fill="#FFA200"/>
<path d="M16.0002 24.2C15.9002 23.9 15.7002 23.7 15.5002 23.6L10.3002 20.6C10.1002 20.5 10.0002 20.5 9.80021 20.5C9.40021 20.5 9.10022 20.7 8.90022 21C8.80022 21.2 8.70021 21.5 8.80021 21.8C8.90021 22.1 9.00021 22.3 9.30021 22.4L14.5002 25.4C14.7002 25.5 14.8002 25.5 15.0002 25.5C15.4002 25.5 15.7002 25.3 15.9002 25C16.1002 24.7 16.1002 24.4 16.0002 24.2Z" fill="#FFA200"/>
<path d="M37.1001 33.1094C41.1612 29.1257 42.6034 24.0105 40.3215 21.6843C38.0396 19.358 32.8976 20.7017 28.8366 24.6853C24.7755 28.669 23.3333 33.7842 25.6152 36.1104C27.8971 38.4367 33.0391 37.093 37.1001 33.1094Z" fill="#FFE2B0"/>
<path d="M25.3206 97.1583C25.3206 95.8222 22.7994 94.6531 19.1017 94.1521C18.7655 90.4778 17.589 87.9727 16.2443 87.9727C14.8997 87.9727 13.7232 90.4778 13.2189 94.1521C9.52118 94.4861 7 95.6552 7 96.9913C7 98.3274 9.52118 99.4965 13.2189 99.9975C13.5551 103.672 14.7316 106.177 16.0763 106.177C17.4209 106.177 18.5975 103.672 19.1017 99.9975C22.6313 99.4965 25.3206 98.4944 25.3206 97.1583Z" fill="#9FADF0"/>
<rect x="74.9385" y="79.8789" width="6.90165" height="6.90165" transform="rotate(-45 74.9385 79.8789)" fill="#E02287" fill-opacity="0.6"/>
<path d="M108.352 29.6193C108.352 28.2832 105.831 27.1141 102.133 26.613C101.797 22.9388 100.62 20.4336 99.2756 20.4336C97.931 20.4336 96.7544 22.9388 96.2502 26.613C92.5524 26.9471 90.0312 28.1162 90.0312 29.4523C90.0312 30.7884 92.5524 31.9574 96.2502 32.4585C96.5863 36.1328 97.7629 38.6379 99.1075 38.6379C100.452 38.6379 101.629 36.1328 102.133 32.4585C105.663 31.9574 108.352 30.9554 108.352 29.6193Z" fill="#FFE48F"/>
<circle cx="6.5" cy="6.5" r="5" stroke="#E02287" stroke-opacity="0.6" stroke-width="3"/>
</svg>
