<svg width="112" height="106" viewBox="0 0 112 106" fill="none" xmlns="http://www.w3.org/2000/svg">
<path d="M33.8 79.1125V79.6125H24.3V72.9125C23.8 72.4125 23.2 71.9125 22.7 71.4125V79.5125H13.2V58.3125H14C13.7 57.6125 13.4 56.8125 13.2 56.0125H12.4C12.1 56.0125 11.8 56.1125 11.5 56.4125C11.2 56.7125 11.1 57.0125 11.1 57.4125V64.7125H1.3C1 64.7125 0.6 64.8125 0.4 65.1125C0.1 65.3125 0 65.7125 0 66.0125V80.4125C0 80.8125 0.1 81.1125 0.4 81.4125C0.6 81.7125 0.9 81.8125 1.3 81.8125H42.3C39.4 81.3125 36.5 80.3125 33.8 79.1125ZM11.6 79.6125H2.1V66.9125H11.7V79.6125H11.6ZM44.9 76.6125V78.8125C45.6 78.9125 46.3 79.0125 47 79.0125V76.8125C46.3 76.8125 45.6 76.7125 44.9 76.6125ZM46.6 36.2125C46.4 35.9125 46 35.8125 45.7 35.8125H34.6C34.3 35.8125 34 35.9125 33.7 36.2125C33.4 36.5125 33.3 36.8125 33.3 37.2125V44.5125H23.5C23.2 44.5125 22.9 44.6125 22.6 44.9125C22.3 45.2125 22.2 45.5125 22.2 45.9125V54.7125C22.8 56.2125 23.5 57.6125 24.3 59.0125V46.8125H33.8V68.9125C34.3 69.2125 34.8 69.5125 35.4 69.8125V38.1125H44.9V73.2125C45.6 73.3125 46.3 73.4125 47 73.5125V37.2125C47 36.8125 46.9 36.5125 46.6 36.2125ZM33.8 72.9125V75.4125C34.3 75.7125 34.8 75.9125 35.4 76.2125V73.8125C34.9 73.4125 34.3 73.1125 33.8 72.9125ZM22.7 62.8125V66.4125C23.2 67.0125 23.7 67.6125 24.3 68.2125V64.9125C23.7 64.2125 23.2 63.5125 22.7 62.8125ZM19.1 56.0125H16.8C17.1 56.8125 17.4 57.5125 17.7 58.3125H20.1C19.7 57.5125 19.4 56.8125 19.1 56.0125Z" fill="#2F5ED1"/>
<path d="M44.8999 38.1133V73.2133C41.4999 72.6133 38.2999 71.5133 35.3999 69.9133V38.1133H44.8999Z" fill="#FFA200"/>
<path d="M35.3999 73.7109C38.3999 75.2109 41.5999 76.2109 44.8999 76.7109V78.9109C41.4999 78.4109 38.2999 77.5109 35.3999 76.1109V73.7109Z" fill="#FFA200"/>
<path d="M33.7998 46.8125V68.9125C29.8998 66.4125 26.5998 63.0125 24.2998 58.9125V46.8125H33.7998Z" fill="#FFA200"/>
<path d="M33.7998 72.9141V75.4141C30.1998 73.6141 26.9998 71.1141 24.2998 68.2141V64.9141C26.8998 68.1141 30.1998 70.8141 33.7998 72.9141Z" fill="#FFA200"/>
<path d="M24.2998 72.9141C27.0998 75.4141 30.2998 77.5141 33.7998 79.1141V79.6141H24.2998V72.9141Z" fill="#FFA200"/>
<path d="M22.7002 62.8125V66.4125C20.7002 64.0125 19.0002 61.2125 17.7002 58.3125H20.1002C20.8002 59.9125 21.7002 61.4125 22.7002 62.8125Z" fill="#FFA200"/>
<path d="M14.0002 58.3125C16.0002 63.3125 19.0002 67.8125 22.7002 71.5125V79.6125H13.2002V58.3125H14.0002Z" fill="#FFA200"/>
<path d="M11.6001 66.9141H2.1001V79.6141H11.6001V66.9141Z" fill="#FFA200"/>
<path d="M76.9998 71.3134C76.5998 71.7134 76.5998 72.2134 76.9998 72.5134C77.2998 72.8134 77.8998 72.8134 78.1998 72.5134C78.4998 72.2134 78.4998 71.6134 78.1998 71.3134C77.7998 70.9134 77.2998 70.9134 76.9998 71.3134ZM102.9 88.1134L78.6998 63.9134L79.3998 62.8134C82.8998 57.2134 84.7998 50.8134 84.7998 44.1134C84.7998 23.5134 66.8998 6.9134 45.7998 9.2134C29.8998 11.0134 16.9998 23.6134 14.9998 39.5134C14.2998 45.3134 14.9998 50.9134 16.7998 56.0134C17.0998 56.8134 17.3998 57.5134 17.6998 58.3134C18.9998 61.2134 20.6998 64.0134 22.6998 66.4134C23.1998 67.0134 23.6998 67.6134 24.2998 68.2134C26.9998 71.1134 30.2998 73.5134 33.7998 75.4134C34.2998 75.7134 34.7998 75.9134 35.3998 76.2134C38.3998 77.5134 41.5998 78.5134 44.8998 79.0134C45.5998 79.1134 46.2998 79.2134 46.9998 79.2134C47.8998 79.3134 48.7998 79.3134 49.7998 79.3134C56.3998 79.3134 62.8998 77.4134 68.4998 73.9134L69.6998 73.2134L93.7998 97.3134C94.7998 98.3134 95.9998 99.0134 97.2998 99.2134C99.4998 99.6134 101.5 98.9134 103 97.4134C104.5 95.9134 105.2 93.8134 104.8 91.7134C104.5 90.2134 103.8 89.0134 102.9 88.1134ZM69.7998 70.3134L68.9998 70.8134C68.8998 70.8134 68.8998 70.9134 68.7998 70.9134L68.5998 71.0134C63.0998 74.9134 56.5998 77.0134 49.7998 77.0134C48.8998 77.0134 47.9998 77.0134 46.9998 76.9134C46.2998 76.9134 45.5998 76.8134 44.8998 76.7134C41.4998 76.2134 38.2998 75.2134 35.3998 73.7134C34.8998 73.4134 34.3998 73.2134 33.7998 72.9134C30.0998 70.9134 26.8998 68.1134 24.2998 64.9134C23.7998 64.2134 23.1998 63.5134 22.6998 62.8134C21.6998 61.4134 20.7998 59.9134 20.0998 58.3134C19.6998 57.6134 19.3998 56.8134 19.0998 56.0134C17.1998 51.2134 16.3998 45.7134 17.0998 40.1134C18.8998 24.5134 31.9998 12.2134 47.6998 11.2134C66.7998 10.0134 82.6998 25.2134 82.6998 44.0134C82.6998 51.0134 80.4998 57.6134 76.3998 63.3134C74.4998 66.0134 72.2998 68.3134 69.7998 70.3134ZM77.4998 77.8134L71.3998 71.7134L72.7998 70.5134C73.9998 69.4134 75.1998 68.2134 76.2998 67.0134L77.4998 65.6134L83.5998 71.7134L82.3998 73.0134C81.1998 74.4134 79.8998 75.6134 78.5998 76.8134L77.4998 77.8134ZM101.5 95.8134C100.7 96.6134 99.5998 97.1134 98.4998 97.1134C97.3998 97.1134 96.2998 96.7134 95.4998 95.8134L78.9998 79.4134L80.2998 78.2134C81.4998 77.1134 82.6998 75.9134 83.7998 74.7134L84.9998 73.4134L101.4 89.8134C102.2 90.6134 102.7 91.7134 102.7 92.8134C102.7 93.9134 102.3 95.0134 101.5 95.8134Z" fill="#2F5ED1"/>
<path d="M99.2999 92.7125C99.2999 92.9125 99.2999 93.1125 98.9999 93.3125C98.7999 93.5125 98.4999 93.6125 98.3999 93.6125C98.1999 93.6125 97.8999 93.5125 97.7999 93.3125L84.4999 80.1125C84.1999 79.8125 84.1999 79.2125 84.4999 78.9125C84.7999 78.6125 85.3999 78.6125 85.6999 78.9125L98.9999 92.2125C99.1999 92.3125 99.2999 92.5125 99.2999 92.7125Z" fill="#2F5ED1"/>
<path d="M111.817 60.3302C111.817 58.9941 109.296 57.825 105.598 57.324C105.262 53.6497 104.085 51.1445 102.74 51.1445C101.396 51.1445 100.219 53.6497 99.715 57.324C96.0173 57.658 93.4961 58.8271 93.4961 60.1632C93.4961 61.4993 96.0173 62.6684 99.715 63.1694C100.051 66.8437 101.228 69.3489 102.572 69.3489C103.917 69.3489 105.094 66.8437 105.598 63.1694C109.127 62.6684 111.817 61.6663 111.817 60.3302Z" fill="#FFE48F"/>
<path d="M26.3206 96.9669C26.3206 95.6308 23.7994 94.4617 20.1017 93.9607C19.7655 90.2864 18.589 87.7812 17.2443 87.7812C15.8997 87.7812 14.7232 90.2864 14.2189 93.9607C10.5212 94.2947 8 95.4638 8 96.7999C8 98.136 10.5212 99.3051 14.2189 99.8061C14.5551 103.48 15.7316 105.986 17.0763 105.986C18.4209 105.986 19.5975 103.48 20.1017 99.8061C23.6313 99.3051 26.3206 98.303 26.3206 96.9669Z" fill="#9FADF0"/>
<rect x="20.9766" y="4.87891" width="6.90165" height="6.90165" transform="rotate(-45 20.9766 4.87891)" fill="#E02287" fill-opacity="0.6"/>
</svg>
