<svg width="116" height="105" viewBox="0 0 116 105" fill="none" xmlns="http://www.w3.org/2000/svg">
<path d="M72 23.4992C71.8 23.2992 71.5 23.1992 71.3 23.1992H65.6C65.3 23.1992 65.1 23.2992 64.9 23.4992C64.7 23.6992 64.6 23.9992 64.6 24.1992V27.4992H59.9C59.6 27.4992 59.4 27.5992 59.2 27.7992C59 27.9992 58.9 28.2992 58.9 28.4992V33.1992H54.2C53.9 33.1992 53.7 33.2992 53.5 33.4992C53.3 33.6992 53.2 33.9992 53.2 34.1992V37.4992H48.5C48.2 37.4992 48 37.5992 47.8 37.7992C47.6 37.9992 47.5 38.2992 47.5 38.4992V45.6992C47.5 45.9992 47.6 46.1992 47.8 46.3992C48 46.5992 48.3 46.6992 48.5 46.6992H71.4C71.7 46.6992 71.9 46.5992 72.1 46.3992C72.3 46.1992 72.4 45.8992 72.4 45.6992V24.1992C72.3 23.9992 72.2 23.6992 72 23.4992ZM53 44.6992H49.3V39.5992H53V44.6992ZM58.8 44.6992H55.1V35.2992H58.8V44.6992ZM64.5 44.6992H60.8V29.5992H64.5V44.6992ZM70.2 44.6992H66.5V25.2992H70.2V44.6992Z" fill="#2F5ED1"/>
<path d="M57.7001 49H55.6001V51.1H57.7001V49Z" fill="#2F5ED1"/>
<path d="M52.3998 49H50.2998V51.1H52.3998V49Z" fill="#2F5ED1"/>
<path d="M63.8002 49H61.7002V51.1H63.8002V49Z" fill="#2F5ED1"/>
<path d="M69.2001 49H67.1001V51.1H69.2001V49Z" fill="#2F5ED1"/>
<path d="M94.5 43.4C94 42.7 93.3 42.2 92.5 42L92.2 41.9V41.6C92.3 40.6 92.3 39.6 92.3 38.6C92.3 38.3 92.2 38 92 37.8C91.8 37.6 91.5 37.5 91.2 37.5H79.7C79.4 37.5 79.1 37.6 78.9 37.8C78.7 38 78.6 38.3 78.6 38.6C78.6 42.4 77.5 46 75.4 49.1C73.3 52.2 70.4 54.6 66.9 56.1C63.4 57.6 59.6 57.9 55.9 57.2C52.2 56.5 48.9 54.7 46.2 52C43.5 49.3 41.7 46 41 42.3C40.3 38.6 40.6 34.8 42.1 31.4C43.5 27.9 46 25 49.1 22.9C52.2 20.8 55.9 19.7 59.6 19.7C59.9 19.7 60.2 19.6 60.4 19.4C60.6 19.2 60.7 18.9 60.7 18.6V7.1C60.7 6.8 60.6 6.5 60.4 6.3C60.2 6.1 59.9 6 59.6 6C41.6 6 27 20.6 27 38.6C27 39.6 27 40.6 27.1 41.6V41.9L26.8 42C26 42.3 25.3 42.8 24.8 43.4C24.3 44.1 24 44.9 24 45.7V60.2C24 63 24.7 65.7 26 68.1C27.3 70.5 29.2 72.6 31.5 74.2L32.6 74.9V88.6C32.6 88.9 32.7 89.2 32.9 89.4C33.1 89.6 33.4 89.7 33.7 89.7H50.9C51.2 89.7 51.5 89.6 51.7 89.4C51.9 89.2 52 88.9 52 88.6V70.2L52.4 70.3C57 71.3 61.9 71.3 66.6 70.3L67 70.2V88.6C67 88.9 67.1 89.2 67.3 89.4C67.5 89.6 67.8 89.7 68.1 89.7H85.3C85.6 89.7 85.9 89.6 86.1 89.4C86.3 89.2 86.4 88.9 86.4 88.6V74.9L87.5 74.2C89.8 72.7 91.7 70.6 93 68.1C94.3 65.7 95 62.9 95 60.2V45.7C95.2 44.9 95 44.1 94.5 43.4ZM50.1 87.6H35.1V75.5H50.1V87.6ZM50.1 73.3H34.3L33 72.4C31 71.1 29.3 69.3 28.2 67.1C27.1 65 26.5 62.6 26.5 60.2V45.7C26.5 45.5 26.5 45.2 26.6 45C26.7 44.8 26.8 44.6 27 44.4C27.2 44.2 27.4 44.1 27.6 44C28 43.8 28.5 43.8 29 44C29.2 44.1 29.4 44.2 29.6 44.4C29.8 44.6 29.9 44.8 30 45C30.1 45.2 30.1 45.4 30.1 45.7V61.1H32.3V54.3C32.3 54.1 32.3 53.8 32.4 53.6C32.5 53.4 32.6 53.2 32.8 53C33 52.8 33.2 52.7 33.4 52.6C33.8 52.4 34.3 52.4 34.8 52.6C35 52.7 35.2 52.8 35.4 53C35.6 53.2 35.7 53.3 35.8 53.6C35.9 53.8 35.9 54 35.9 54.3V60C35.9 60.2 35.9 60.3 36 60.5C36.1 60.7 36.2 60.8 36.3 60.9C37.5 61.7 38.4 62.7 39.1 64C39.8 65.2 40.1 66.6 40.1 68.1V69.7H42.3V68.1C42.3 67.6 42.3 67.1 42.2 66.7L42.1 66L42.7 66.4C44.9 67.8 47.4 68.9 49.9 69.7L50.1 69.8V73.3ZM59.8 69C52.7 69 45.8 66.5 40.4 62L40.3 61.9C39.7 61 38.9 60.2 38.1 59.6L38 59.5V54.3C38 53.7 37.9 53 37.6 52.5C37.3 51.9 36.9 51.5 36.4 51.1C35.9 50.7 35.3 50.5 34.7 50.4C34.1 50.3 33.4 50.4 32.8 50.6L32.3 50.8V45.8C32.3 45 32.1 44.2 31.6 43.6C31.1 42.9 30.5 42.4 29.8 42.2L29.6 42.1V41.9C29.5 40.8 29.4 39.8 29.4 38.7C29.4 22.4 42.1 9.1 58.4 8.3H58.8V17.6H58.5C54.4 17.9 50.6 19.3 47.3 21.7C44 24.1 41.6 27.4 40.1 31.2C38.7 35 38.4 39.1 39.2 43.1C40.1 47.1 42 50.7 44.9 53.6C47.8 56.5 51.4 58.4 55.4 59.3C59.4 60.2 63.5 59.9 67.3 58.4C71.1 57 74.4 54.5 76.8 51.2C79.2 47.9 80.6 44.1 80.9 40V39.7H90.2V40.1C90.2 40.7 90.1 41.3 90.1 41.9V42.1L89.9 42.2C89.2 42.5 88.5 43 88.1 43.6C87.7 44.3 87.4 45 87.4 45.8V50.8L86.9 50.6C86.3 50.4 85.7 50.3 85 50.4C84.4 50.5 83.8 50.7 83.3 51.1C82.8 51.5 82.4 51.9 82.1 52.5C81.8 53.1 81.7 53.7 81.7 54.3V59.5L81.6 59.6C80.7 60.3 80 61.1 79.4 61.9L79.3 62C73.7 66.5 66.9 69 59.8 69ZM84.5 87.6H69.5V75.5H84.5V87.6ZM93.1 60.2C93.1 62.6 92.5 65 91.4 67.1C90.3 69.2 88.6 71.1 86.6 72.4L85.3 73.3H69.5V69.7L69.7 69.6C72.2 68.8 74.6 67.7 76.9 66.3L77.5 65.9L77.4 66.6C77.3 67.1 77.3 67.5 77.3 68V69.6H79.5V68C79.5 66.6 79.8 65.2 80.5 63.9C81.2 62.7 82.1 61.6 83.3 60.8C83.5 60.7 83.6 60.6 83.6 60.4C83.7 60.2 83.7 60.1 83.7 59.9V54.2C83.7 53.7 83.9 53.3 84.2 52.9C84.9 52.2 86.1 52.2 86.7 52.9C87 53.2 87.2 53.7 87.2 54.2V61H89.4V45.6C89.4 45.4 89.4 45.1 89.5 44.9C89.6 44.7 89.7 44.5 89.9 44.3C90.1 44.1 90.3 44 90.5 43.9C90.9 43.7 91.4 43.7 91.9 43.9C92.1 44 92.3 44.1 92.5 44.3C92.7 44.5 92.8 44.7 92.9 44.9C93 45.1 93 45.3 93 45.6V60.2H93.1Z" fill="#2F5ED1"/>
<path d="M94.5 43.4C94 42.7 93.3 42.2 92.5 42L92.2 41.9V41.6C92.3 40.6 92.3 39.6 92.3 38.6C92.3 38.3 92.2 38 92 37.8C91.8 37.6 91.5 37.5 91.2 37.5H79.7C79.4 37.5 79.1 37.6 78.9 37.8C78.7 38 78.6 38.3 78.6 38.6C78.6 42.4 77.5 46 75.4 49.1C73.3 52.2 70.4 54.6 66.9 56.1C63.4 57.6 59.6 57.9 55.9 57.2C52.2 56.5 48.9 54.7 46.2 52C43.5 49.3 41.7 46 41 42.3C40.3 38.6 40.6 34.8 42.1 31.4C43.5 27.9 46 25 49.1 22.9C52.2 20.8 55.9 19.7 59.6 19.7C59.9 19.7 60.2 19.6 60.4 19.4C60.6 19.2 60.7 18.9 60.7 18.6V7.1C60.7 6.8 60.6 6.5 60.4 6.3C60.2 6.1 59.9 6 59.6 6C41.6 6 27 20.6 27 38.6C27 39.6 27 40.6 27.1 41.6V41.9L26.8 42C26 42.3 25.3 42.8 24.8 43.4C24.3 44.1 24 44.9 24 45.7V60.2C24 63 24.7 65.7 26 68.1C27.3 70.5 29.2 72.6 31.5 74.2L32.6 74.9V88.6C32.6 88.9 32.7 89.2 32.9 89.4C33.1 89.6 33.4 89.7 33.7 89.7H50.9C51.2 89.7 51.5 89.6 51.7 89.4C51.9 89.2 52 88.9 52 88.6V70.2L52.4 70.3C57 71.3 61.9 71.3 66.6 70.3L67 70.2V88.6C67 88.9 67.1 89.2 67.3 89.4C67.5 89.6 67.8 89.7 68.1 89.7H85.3C85.6 89.7 85.9 89.6 86.1 89.4C86.3 89.2 86.4 88.9 86.4 88.6V74.9L87.5 74.2C89.8 72.7 91.7 70.6 93 68.1C94.3 65.7 95 62.9 95 60.2V45.7C95.2 44.9 95 44.1 94.5 43.4ZM50.1 87.6H35.1V75.5H50.1V87.6ZM50.1 73.3H34.3L33 72.4C31 71.1 29.3 69.3 28.2 67.1C27.1 65 26.5 62.6 26.5 60.2V45.7C26.5 45.5 26.5 45.2 26.6 45C26.7 44.8 26.8 44.6 27 44.4C27.2 44.2 27.4 44.1 27.6 44C28 43.8 28.5 43.8 29 44C29.2 44.1 29.4 44.2 29.6 44.4C29.8 44.6 29.9 44.8 30 45C30.1 45.2 30.1 45.4 30.1 45.7V61.1H32.3V54.3C32.3 54.1 32.3 53.8 32.4 53.6C32.5 53.4 32.6 53.2 32.8 53C33 52.8 33.2 52.7 33.4 52.6C33.8 52.4 34.3 52.4 34.8 52.6C35 52.7 35.2 52.8 35.4 53C35.6 53.2 35.7 53.3 35.8 53.6C35.9 53.8 35.9 54 35.9 54.3V60C35.9 60.2 35.9 60.3 36 60.5C36.1 60.7 36.2 60.8 36.3 60.9C37.5 61.7 38.4 62.7 39.1 64C39.8 65.2 40.1 66.6 40.1 68.1V69.7H42.3V68.1C42.3 67.6 42.3 67.1 42.2 66.7L42.1 66L42.7 66.4C44.9 67.8 47.4 68.9 49.9 69.7L50.1 69.8V73.3ZM59.8 69C52.7 69 45.8 66.5 40.4 62L40.3 61.9C39.7 61 38.9 60.2 38.1 59.6L38 59.5V54.3C38 53.7 37.9 53 37.6 52.5C37.3 51.9 36.9 51.5 36.4 51.1C35.9 50.7 35.3 50.5 34.7 50.4C34.1 50.3 33.4 50.4 32.8 50.6L32.3 50.8V45.8C32.3 45 32.1 44.2 31.6 43.6C31.1 42.9 30.5 42.4 29.8 42.2L29.6 42.1V41.9C29.5 40.8 29.4 39.8 29.4 38.7C29.4 22.4 42.1 9.1 58.4 8.3H58.8V17.6H58.5C54.4 17.9 50.6 19.3 47.3 21.7C44 24.1 41.6 27.4 40.1 31.2C38.7 35 38.4 39.1 39.2 43.1C40.1 47.1 42 50.7 44.9 53.6C47.8 56.5 51.4 58.4 55.4 59.3C59.4 60.2 63.5 59.9 67.3 58.4C71.1 57 74.4 54.5 76.8 51.2C79.2 47.9 80.6 44.1 80.9 40V39.7H90.2V40.1C90.2 40.7 90.1 41.3 90.1 41.9V42.1L89.9 42.2C89.2 42.5 88.5 43 88.1 43.6C87.7 44.3 87.4 45 87.4 45.8V50.8L86.9 50.6C86.3 50.4 85.7 50.3 85 50.4C84.4 50.5 83.8 50.7 83.3 51.1C82.8 51.5 82.4 51.9 82.1 52.5C81.8 53.1 81.7 53.7 81.7 54.3V59.5L81.6 59.6C80.7 60.3 80 61.1 79.4 61.9L79.3 62C73.7 66.5 66.9 69 59.8 69ZM84.5 87.6H69.5V75.5H84.5V87.6ZM93.1 60.2C93.1 62.6 92.5 65 91.4 67.1C90.3 69.2 88.6 71.1 86.6 72.4L85.3 73.3H69.5V69.7L69.7 69.6C72.2 68.8 74.6 67.7 76.9 66.3L77.5 65.9L77.4 66.6C77.3 67.1 77.3 67.5 77.3 68V69.6H79.5V68C79.5 66.6 79.8 65.2 80.5 63.9C81.2 62.7 82.1 61.6 83.3 60.8C83.5 60.7 83.6 60.6 83.6 60.4C83.7 60.2 83.7 60.1 83.7 59.9V54.2C83.7 53.7 83.9 53.3 84.2 52.9C84.9 52.2 86.1 52.2 86.7 52.9C87 53.2 87.2 53.7 87.2 54.2V61H89.4V45.6C89.4 45.4 89.4 45.1 89.5 44.9C89.6 44.7 89.7 44.5 89.9 44.3C90.1 44.1 90.3 44 90.5 43.9C90.9 43.7 91.4 43.7 91.9 43.9C92.1 44 92.3 44.1 92.5 44.3C92.7 44.5 92.8 44.7 92.9 44.9C93 45.1 93 45.3 93 45.6V60.2H93.1Z" fill="#2F5ED1"/>
<path d="M90.2 39.5992V39.9992C90.2 40.5992 90.1 41.1992 90.1 41.7992V41.9992L89.9 42.0992C89.2 42.3992 88.5 42.8992 88.1 43.4992C87.7 44.1992 87.4 44.8992 87.4 45.6992V50.6992L86.9 50.4992C86.3 50.2992 85.7 50.1992 85 50.2992C84.4 50.3992 83.8 50.5992 83.3 50.9992C82.8 51.3992 82.4 51.7992 82.1 52.3992C81.8 52.9992 81.7 53.5992 81.7 54.1992V59.3992L81.6 59.4992C80.7 60.1992 80 60.9992 79.4 61.7992L79.3 61.8992C73.9 66.3992 67 68.8992 59.9 68.8992C52.8 68.8992 45.9 66.3992 40.5 61.8992L40.4 61.7992C39.8 60.8992 39 60.0992 38.2 59.4992L38.1 59.3992V54.1992C38.1 53.5992 38 52.8992 37.7 52.3992C37.4 51.7992 37 51.3992 36.5 50.9992C36 50.5992 35.4 50.3992 34.8 50.2992C34.2 50.1992 33.5 50.2992 32.9 50.4992L32.4 50.6992V45.6992C32.4 44.8992 32.2 44.0992 31.7 43.4992C31.2 42.7992 30.6 42.2992 29.9 42.0992L29.7 41.9992V41.7992C29.6 40.6992 29.5 39.6992 29.5 38.5992C29.5 22.2992 42.2 8.99922 58.5 8.19922H58.9V17.4992H58.6C54.5 17.7992 50.7 19.1992 47.4 21.5992C44.1 23.9992 41.7 27.2992 40.2 31.0992C38.8 34.8992 38.5 38.9992 39.3 42.9992C40.2 46.9992 42.1 50.5992 45 53.4992C47.9 56.3992 51.5 58.2992 55.5 59.1992C59.5 60.0992 63.6 59.7992 67.4 58.2992C71.2 56.8992 74.5 54.3992 76.9 51.0992C79.3 47.7992 80.7 43.9992 81 39.8992V39.5992H90.2Z" fill="#FFA200"/>
<path d="M88.0001 30.3984H83.1001V32.4984H88.0001V30.3984Z" fill="#2F5ED1"/>
<path d="M73.6999 11.7984V13.7984H70.7999V16.6984H68.7999V13.7984H65.8999V11.7984H68.7999V8.89844H70.7999V11.7984H73.6999Z" fill="#2F5ED1"/>
<path d="M18.3206 77.8849C18.3206 76.5488 15.7994 75.3797 12.1017 74.8787C11.7655 71.2044 10.589 68.6992 9.24435 68.6992C7.89971 68.6992 6.72316 71.2044 6.21892 74.8787C2.52118 75.2127 0 76.3818 0 77.7179C0 79.054 2.52118 80.2231 6.21892 80.7241C6.55508 84.3984 7.73163 86.9036 9.07627 86.9036C10.4209 86.9036 11.5975 84.3984 12.1017 80.7241C15.6313 80.2231 18.3206 79.221 18.3206 77.8849Z" fill="#FFE48F"/>
<path d="M107.634 13.7599C107.634 12.4238 105.113 11.2547 101.415 10.7537C101.079 7.0794 99.9025 4.57422 98.5578 4.57422C97.2132 4.57422 96.0366 7.0794 95.5324 10.7537C91.8347 11.0877 89.3135 12.2568 89.3135 13.5929C89.3135 14.929 91.8347 16.0981 95.5324 16.5991C95.8686 20.2734 97.0451 22.7786 98.3897 22.7786C99.7344 22.7786 100.911 20.2734 101.415 16.5991C104.945 16.0981 107.634 15.096 107.634 13.7599Z" fill="#9FADF0"/>
<path d="M91.6814 98.5262C91.6814 97.6298 89.9899 96.8454 87.509 96.5092C87.2834 94.0441 86.4941 92.3633 85.5919 92.3633C84.6898 92.3633 83.9004 94.0441 83.5621 96.5092C81.0812 96.7333 79.3896 97.5177 79.3896 98.4141C79.3896 99.3105 81.0812 100.095 83.5621 100.431C83.7876 102.896 84.577 104.577 85.4791 104.577C86.3813 104.577 87.1707 102.896 87.509 100.431C89.8771 100.095 91.6814 99.4226 91.6814 98.5262Z" fill="#9FADF0"/>
<rect x="12.9775" y="4.87891" width="6.90165" height="6.90165" transform="rotate(-45 12.9775 4.87891)" fill="#E02287" fill-opacity="0.6"/>
<circle cx="108.638" cy="59.7188" r="5" stroke="#E02287" stroke-opacity="0.6" stroke-width="3"/>
</svg>
