<svg width="195" height="164" viewBox="0 0 195 164" fill="none" xmlns="http://www.w3.org/2000/svg">
<path d="M69.5 76.5L29 73.5L41.5 59.5L56.5 48L72.5 43L96.5 44L69.5 76.5Z" fill="#FFB800"/>
<path d="M100 145.5L97.5 104L131 79.5L130 95L129 108.5L121.5 124L100 145.5Z" fill="#FFB800"/>
<path d="M60.5 122.5L51.5 113.5L45 116.5L40 121L38.5 127V134.5L43 136.5L51.5 134.5L60.5 122.5Z" fill="#FFB800"/>
<path d="M194.848 81.0332C194.848 79.283 191.566 77.7514 186.753 77.0951C186.315 72.2818 184.784 69 183.033 69C181.283 69 179.751 72.2818 179.095 77.0951C174.282 77.5327 171 79.0642 171 80.8144C171 82.5647 174.282 84.0963 179.095 84.7526C179.533 89.5659 181.064 92.8477 182.814 92.8477C184.565 92.8477 186.096 89.5659 186.753 84.7526C191.347 84.0963 194.848 82.7835 194.848 81.0332Z" fill="#FFE48F"/>
<path d="M23.8477 100.033C23.8477 98.283 20.5659 96.7514 15.7526 96.0951C15.315 91.2818 13.7835 88 12.0332 88C10.283 88 8.75145 91.2818 8.09509 96.0951C3.28179 96.5327 0 98.0642 0 99.8144C0 101.565 3.28179 103.096 8.09509 103.753C8.53266 108.566 10.0642 111.848 11.8145 111.848C13.5648 111.848 15.0963 108.566 15.7526 103.753C20.3471 103.096 23.8477 101.784 23.8477 100.033Z" fill="#9FADF0"/>
<rect x="73" y="155.785" width="11.0114" height="11.0114" transform="rotate(-45 73 155.785)" fill="#E02287" fill-opacity="0.6"/>
<rect x="93" y="18.1094" width="7.22486" height="7.22486" transform="rotate(-45 93 18.1094)" fill="#E02287" fill-opacity="0.6"/>
<circle cx="132.5" cy="112.5" r="11" stroke="#9FADF0" stroke-width="3"/>
<path d="M27.9473 144.471C29.3519 144.471 30.4941 145.617 30.4941 147.035C30.494 148.454 29.3518 149.6 27.9473 149.6C26.5427 149.6 25.4005 148.454 25.4004 147.035C25.4004 145.617 26.5427 144.471 27.9473 144.471Z" fill="#314ED8" stroke="white" stroke-width="0.8"/>
<path d="M103.225 69.291C104.626 69.291 105.766 70.4343 105.766 71.8496C105.765 73.2648 104.626 74.4082 103.225 74.4082C101.823 74.4082 100.684 73.2648 100.684 71.8496C100.684 70.4343 101.823 69.291 103.225 69.291Z" fill="#314ED8" stroke="white" stroke-width="0.8"/>
<circle cx="132.5" cy="43.5" r="8.5" fill="#FFB800"/>
<path d="M132.891 31.0566C136.128 31.0567 139.169 32.3236 141.459 34.627C146.185 39.3807 146.185 47.1171 141.459 51.8711C139.097 54.2469 135.994 55.4354 132.891 55.4355C129.786 55.4355 126.684 54.2476 124.321 51.8711C119.596 47.1174 119.596 39.381 124.321 34.627C126.611 32.3241 129.654 31.0566 132.891 31.0566ZM132.891 36.1729C131.011 36.1729 129.242 36.91 127.914 38.2461C125.171 41.0051 125.171 45.4923 127.914 48.251C130.658 51.0109 135.123 51.0109 137.867 48.251C140.61 45.4922 140.609 41.005 137.866 38.2461C136.538 36.9101 134.77 36.173 132.891 36.1729Z" fill="#314ED8" stroke="white" stroke-width="0.8"/>
<path d="M50.5732 112.392C51.8281 111.763 53.3533 112.276 53.9795 113.541C54.6064 114.807 54.0932 116.343 52.8369 116.973L45.8018 120.496C42.6158 122.092 40.4872 125.301 40.2441 128.871L39.9658 132.969C39.9083 133.818 40.3325 134.382 40.5869 134.638C40.8413 134.894 41.4012 135.321 42.249 135.264H42.25L46.3242 134.983C49.8766 134.739 53.0662 132.596 54.6523 129.393L58.1553 122.316C58.7818 121.051 60.3067 120.539 61.5615 121.167C62.7391 121.757 63.2644 123.144 62.8086 124.358L62.7041 124.599L59.2012 131.675C56.8141 136.497 52.0114 139.721 46.6709 140.089L42.5967 140.369H42.5957C42.4313 140.381 42.2664 140.386 42.1025 140.386C40.1934 140.386 38.354 139.626 36.9941 138.258C35.517 136.772 34.7518 134.717 34.8945 132.619L35.1738 128.521C35.5399 123.146 38.746 118.315 43.5381 115.915L50.5732 112.392Z" fill="#314ED8" stroke="white" stroke-width="0.8"/>
<path d="M167.784 0.413086C169.486 0.301635 171.166 0.886077 172.44 2.02051L172.689 2.25488C173.988 3.54266 174.682 5.33214 174.592 7.16504V7.16602L174.522 8.60547C173.263 34.4687 160.878 58.4057 140.542 74.2793L133.725 79.5996L133.571 79.7197V96.1211C133.571 109.474 128.402 122.025 119.016 131.466L101.737 148.846C101.251 149.334 100.602 149.595 99.9409 149.595C99.6354 149.595 99.3269 149.54 99.0298 149.425C98.0934 149.062 97.4556 148.178 97.4038 147.167L95.5161 110.223L95.4771 109.454L94.8706 109.928L92.8657 111.492C92.4107 111.848 91.8612 112.028 91.3081 112.028C90.8928 112.028 90.4759 111.926 90.0952 111.718C89.2301 111.244 88.3768 110.751 87.5337 110.24L87.2905 110.093L87.0718 110.273C85.6506 111.45 84.1298 112.726 82.645 113.973C81.0819 115.284 79.4808 116.629 77.9907 117.861L76.5425 119.052C76.0808 119.428 75.5135 119.622 74.9419 119.622C74.5734 119.622 74.2028 119.542 73.8569 119.377H73.856C69.7964 117.444 66.1629 114.867 63.0562 111.716C60.023 108.64 57.5344 105.059 55.6587 101.072C55.2329 100.166 55.3719 99.093 56.0132 98.3271L64.686 87.9697L64.8706 87.75L64.7212 87.5049C64.0984 86.4847 63.5008 85.4479 62.9312 84.3945V84.3936C62.4692 83.5392 62.5307 82.5008 63.0757 81.7109L63.1919 81.5566L64.6831 79.71L65.1753 79.0996L64.3921 79.0596L27.8169 77.1689L27.6304 77.1523C26.7074 77.0363 25.9133 76.4186 25.5747 75.5332C25.2136 74.5889 25.4403 73.5184 26.1509 72.8037L43.4292 55.4238C52.8153 45.983 65.2924 40.7852 78.5649 40.7852C78.5906 40.7852 78.615 40.7854 78.6382 40.7861H78.6392L95.5093 41.2842L95.7075 41.29L95.8325 41.1357L102.279 33.1523C117.722 14.0275 140.6 2.15862 165.044 0.588867L167.784 0.413086ZM127.842 84.1914L100.536 105.506L100.372 105.635L100.381 105.842L102.14 140.259L102.186 141.161L102.824 140.521L115.424 127.846C123.849 119.372 128.489 108.104 128.489 96.1211V83.6875L127.842 84.1914ZM67.5024 92.5459L61.1519 100.129L60.978 100.337L61.1069 100.575C62.6094 103.36 64.4732 105.889 66.6636 108.11C68.9251 110.404 71.5123 112.349 74.3716 113.906L74.6099 114.035L74.8179 113.862C76.2798 112.653 77.8551 111.331 79.3901 110.043C80.4126 109.185 81.4516 108.312 82.4653 107.466L82.8569 107.139L82.4468 106.837C79.5936 104.736 76.9035 102.414 74.4028 99.8828L74.3911 99.8701L74.3804 99.8604L74.3755 99.8555C72.1224 97.5726 70.0363 95.1364 68.1304 92.5645L67.8286 92.1562L67.5024 92.5459ZM165.368 5.69629C142.332 7.17523 120.774 18.3598 106.222 36.3809L68.3979 83.2207L68.2251 83.4355L68.3638 83.6738C70.5319 87.3998 73.0781 90.883 75.9526 94.084L76.2358 94.3994L76.5347 94.0986L92.0718 78.4697C93.064 77.4716 94.6722 77.4718 95.6646 78.4697C96.6579 79.4692 96.6578 81.0907 95.6646 82.0898L80.1118 97.7344L79.8188 98.0283L80.1245 98.3096C83.4084 101.336 86.9975 104.008 90.8481 106.271L91.0825 106.41L91.2964 106.242L137.428 70.2344C156.591 55.277 168.261 32.7228 169.447 8.35547L169.517 6.91602V6.91504C169.542 6.39738 169.279 6.05624 169.124 5.90234C168.968 5.74806 168.622 5.48837 168.107 5.52051L165.368 5.69629ZM74.4155 99.8975L74.4204 99.9033H74.4194C74.4184 99.902 74.4168 99.8992 74.4146 99.8965L74.4136 99.8945C74.4144 99.8955 74.4149 99.8967 74.4155 99.8975ZM78.522 45.9014C66.6232 45.913 55.4361 50.5805 47.022 59.0439L34.4204 71.7188L33.7886 72.3545L34.6831 72.4004L68.9438 74.1709L69.147 74.1816L69.2749 74.0225L91.1636 46.917L91.6694 46.29L90.8638 46.2666L78.5337 45.9023V45.9014H78.522Z" fill="#314ED8" stroke="white" stroke-width="0.8"/>
</svg>
