<svg width="648" height="589" viewBox="0 0 648 589" fill="none" xmlns="http://www.w3.org/2000/svg">
<path fill-rule="evenodd" clip-rule="evenodd" d="M81.051 421.907C66.7694 396.876 61.2765 367.454 63.6934 338.91C65.0117 323.98 68.5271 308.829 74.4595 295.216C80.1721 282.262 87.8623 270.185 87.2031 255.474C86.5439 240.983 77.975 226.491 82.589 212.878C91.158 187.628 129.609 186.969 150.042 177.088C179.265 163.256 186.076 135.37 201.456 109.9C216.836 84.4304 240.126 63.3518 268.03 53.2516C295.934 43.1515 328.453 44.4689 354.379 58.9604C367.123 66.2062 375.252 74.9889 381.624 87.9435C386.458 97.8241 391.292 108.363 400.3 114.292C411.506 121.977 425.568 119.561 438.311 120.659C467.314 123.074 496.317 133.394 518.069 152.936C528.615 162.377 536.964 174.014 542.677 186.969C548.17 199.704 551.026 214.195 559.375 225.833C567.505 236.811 580.249 243.618 587.939 255.035C597.826 269.966 589.477 286.214 591.674 302.462C595.189 328.371 616.502 364.38 598.046 388.972C590.575 398.853 579.809 397.974 568.604 397.755C553.883 397.755 538.063 396.657 524.001 392.046C511.917 388.094 500.052 383.263 487.308 382.824C477.86 382.385 468.413 381.726 458.965 381.507C452.813 381.507 446.66 383.263 440.508 383.702C427.765 385.02 414.801 386.337 402.058 387.655C373.495 390.729 345.151 393.583 316.588 396.657C262.318 402.366 208.048 408.074 153.558 413.783C135.98 415.54 118.403 417.516 100.826 419.272C99.2875 419.931 81.7102 423.005 81.051 421.907Z" fill="#EDEEF7"/>
<path fill-rule="evenodd" clip-rule="evenodd" d="M499.612 505.124C483.573 511.711 466.874 517.419 451.494 525.763C432.159 536.302 416.12 549.916 394.148 555.624C379.427 559.357 363.607 559.357 348.447 561.333C331.968 563.529 315.27 566.383 298.571 567.481C297.472 567.481 296.594 567.701 295.495 567.701C290.222 567.92 285.168 568.14 279.895 568.359C278.797 568.359 277.918 568.359 276.819 568.359C275.72 568.359 274.842 568.359 273.743 568.359C272.644 568.359 271.546 568.359 270.447 568.359C206.29 568.579 138.617 556.722 86.1045 517.859C78.4144 512.15 70.7243 505.563 66.5497 497C63.0342 489.754 62.1553 481.41 60.3976 473.286C58.4201 464.064 54.6849 455.94 47.4343 449.792C37.547 441.668 32.9329 437.496 38.2061 424.103C54.4652 381.946 85.4453 346.156 122.138 319.808C173.332 283.14 235.952 262.281 297.692 251.961C332.188 246.252 367.123 244.057 402.058 245.813C410.407 246.252 418.756 246.911 427.106 247.789C435.016 248.667 442.925 250.644 450.835 250.424C470.61 249.765 491.703 253.498 510.818 259.207C523.342 262.939 542.237 266.892 547.73 280.724C549.488 285.116 551.466 289.068 554.542 293.02C558.936 298.729 566.187 299.388 571.899 302.681C578.271 306.414 583.984 311.464 588.378 317.392C594.75 325.956 598.265 336.275 600.023 346.815C603.099 363.282 604.417 382.165 600.243 398.413C596.068 414.881 587.939 430.251 577.832 443.864C560.035 467.797 537.404 487.558 510.378 500.074C507.083 502.05 503.348 503.587 499.612 505.124Z" fill="#D6D7F2"/>
<path fill-rule="evenodd" clip-rule="evenodd" d="M458.745 397.317C457.207 395.78 452.812 397.098 444.023 394.683C435.235 392.267 426.226 393.804 424.908 396C423.37 398.196 434.576 406.32 438.75 406.978C442.925 407.637 445.561 413.565 451.274 413.346C456.987 413.346 459.843 408.735 459.843 408.735L458.745 397.317Z" fill="#3C3C6D"/>
<path fill-rule="evenodd" clip-rule="evenodd" d="M211.563 478.777C211.563 478.777 228.481 482.73 233.974 482.73C239.467 482.73 244.081 486.682 240.785 490.414C237.27 494.147 231.118 497.221 223.428 497.66C215.737 498.099 204.971 498.978 200.357 498.319C197.501 493.269 197.281 482.73 197.281 482.73L211.563 478.777Z" fill="#3C3C6D"/>
<path fill-rule="evenodd" clip-rule="evenodd" d="M412.824 418.176C412.824 418.176 395.906 422.128 390.413 422.128C384.92 422.128 380.306 426.08 383.602 429.813C387.117 433.546 393.269 436.62 400.959 437.059C408.649 437.498 419.415 438.376 424.029 437.717C426.886 432.667 427.106 422.128 427.106 422.128L412.824 418.176Z" fill="#3C3C6D"/>
<path fill-rule="evenodd" clip-rule="evenodd" d="M164.543 466.263C166.081 464.726 170.476 466.043 179.264 463.628C188.053 461.213 197.062 462.75 198.6 464.945C200.138 467.141 188.932 475.265 184.757 475.924C180.583 476.582 177.946 482.511 172.234 482.291C166.521 482.291 163.665 477.68 163.665 477.68L164.543 466.263Z" fill="#3C3C6D"/>
<path fill-rule="evenodd" clip-rule="evenodd" d="M161.248 498.1C161.248 498.539 161.028 498.979 160.589 499.418C159.929 500.076 159.27 500.516 158.172 500.735C156.853 501.174 155.096 501.174 153.558 500.735L134.222 495.685C130.927 494.807 127.411 495.905 126.532 497.881L122.358 509.738C121.918 511.274 119.501 512.153 117.085 512.153C116.865 512.153 116.425 512.153 116.206 512.153C114.448 511.933 113.13 511.494 112.251 510.616C111.811 510.177 111.592 509.738 111.592 509.298C111.592 509.079 111.592 508.859 111.592 508.64L113.13 500.296L113.789 496.563C114.228 494.587 111.152 492.831 107.637 493.05L86.3241 494.368C86.1044 494.368 85.8847 494.368 85.665 494.368C84.7861 494.368 83.9072 494.148 83.2481 493.929C81.7101 493.489 80.6115 492.611 80.3918 491.513C79.9523 489.757 81.7101 488.22 84.5664 488L105.44 485.585C106.318 485.585 107.197 485.146 107.856 484.926C109.614 484.048 110.493 482.511 109.394 481.194L101.924 471.972L100.386 469.996C100.166 469.556 99.9466 469.337 99.9466 468.898V468.678C99.9466 467.58 101.045 466.482 102.803 465.824C105.44 465.165 108.516 465.604 110.054 467.141L120.6 477.9C122.358 479.657 126.532 480.096 128.949 478.778L144.549 470.435C145.648 469.776 146.966 469.556 148.284 469.556C149.603 469.556 151.141 469.776 152.239 470.435C153.338 471.093 153.997 471.972 153.777 472.85C153.777 473.509 153.338 474.167 152.459 474.826L151.141 475.704L138.177 484.048C135.761 485.585 136.42 487.781 139.496 488.878C139.496 488.878 139.496 488.878 139.715 488.878L158.172 495.026C160.369 496.124 161.248 497.003 161.248 498.1Z" fill="#3C3C6D"/>
<path fill-rule="evenodd" clip-rule="evenodd" d="M108.296 485.582L100.825 476.36C100.605 475.921 100.386 475.702 100.386 475.263V469.773C100.386 470.213 100.605 470.432 100.825 470.871L102.363 472.847L109.834 482.069C110.932 483.167 110.053 484.704 108.296 485.582Z" fill="#3C3C6D"/>
<path fill-rule="evenodd" clip-rule="evenodd" d="M114.228 497.002L113.569 500.735C112.47 499.637 110.493 498.979 108.296 499.198L86.9831 500.515C86.7634 500.515 86.5437 500.515 86.324 500.515C83.6874 500.515 81.2705 499.418 80.8311 497.881V492.172C81.0508 493.27 82.1494 493.928 83.6874 494.587C84.3465 494.807 85.2254 495.026 86.1043 495.026C86.324 495.026 86.5437 495.026 86.7634 495.026L108.076 493.709C111.591 493.27 114.668 495.026 114.228 497.002Z" fill="#3C3C6D"/>
<path fill-rule="evenodd" clip-rule="evenodd" d="M161.248 498.099V503.808C161.248 504.247 161.028 504.686 160.589 505.126C159.27 506.663 156.194 507.321 153.558 506.663L134.223 501.613C130.927 500.734 127.411 501.832 126.533 503.808L122.358 515.665C121.918 517.202 119.502 518.08 117.085 518.08C116.865 518.08 116.426 518.08 116.206 518.08C113.569 517.861 111.812 516.763 111.592 515.226C111.592 515.226 111.592 515.006 111.592 514.567V509.517C111.592 509.956 112.031 510.395 112.251 510.834C113.13 511.713 114.448 512.152 116.206 512.371C116.426 512.371 116.865 512.371 117.085 512.371C119.721 512.371 121.918 511.273 122.358 509.956L126.533 498.099C127.192 496.123 130.927 495.025 134.223 495.904L153.558 500.954C155.096 501.393 156.854 501.393 158.172 500.954C159.27 500.734 159.93 500.295 160.589 499.636C161.248 499.197 161.248 498.758 161.248 498.099Z" fill="#3C3C6D"/>
<path fill-rule="evenodd" clip-rule="evenodd" d="M154.437 473.508V478.997C154.437 479.656 153.997 480.534 153.118 481.193L140.155 489.317C137.299 488.219 136.639 486.023 138.837 484.486L151.8 476.143L153.118 475.264C153.777 474.825 154.437 474.167 154.437 473.508Z" fill="#3C3C6D"/>
<path fill-rule="evenodd" clip-rule="evenodd" d="M161.028 508.418C160.808 511.053 158.611 513.029 155.755 512.81C153.118 512.59 151.141 510.394 151.141 507.76C151.36 505.125 153.558 503.149 156.414 503.368C159.05 503.588 161.248 505.783 161.028 508.418Z" fill="#3C3C6D"/>
<path fill-rule="evenodd" clip-rule="evenodd" d="M122.138 520.496C121.918 523.131 119.721 525.107 116.865 524.888C114.228 524.668 112.25 522.473 112.25 519.838C112.47 517.203 114.667 515.227 117.524 515.446C120.38 515.666 122.357 517.862 122.138 520.496Z" fill="#3C3C6D"/>
<path fill-rule="evenodd" clip-rule="evenodd" d="M90.4986 503.149C90.2789 505.784 88.0817 507.76 85.2254 507.54C82.5888 507.321 80.6113 505.125 80.6113 502.49C80.831 499.855 83.0282 497.879 85.8845 498.099C88.7409 498.099 90.7183 500.514 90.4986 503.149Z" fill="#3C3C6D"/>
<path fill-rule="evenodd" clip-rule="evenodd" d="M108.296 482.727C108.076 485.362 105.879 487.338 103.023 487.118C100.386 486.899 98.4087 484.703 98.4087 482.068C98.6284 479.433 100.826 477.457 103.682 477.677C106.538 477.677 108.516 480.092 108.296 482.727Z" fill="#3C3C6D"/>
<path fill-rule="evenodd" clip-rule="evenodd" d="M156.194 484.926C155.974 487.561 153.777 489.537 150.921 489.318C148.284 489.098 146.307 486.902 146.307 484.267C146.526 481.633 148.724 479.656 151.58 479.876C154.216 479.876 156.194 482.291 156.194 484.926Z" fill="#3C3C6D"/>
<path fill-rule="evenodd" clip-rule="evenodd" d="M128.949 492.17C128.949 498.538 115.327 497.22 115.327 492.17V447.598H128.949V492.17Z" fill="#56548C"/>
<path fill-rule="evenodd" clip-rule="evenodd" d="M112.251 407.199C112.251 407.199 151.36 393.805 168.059 395.781C184.538 397.757 181.022 469.336 181.022 469.336C181.022 469.336 172.233 470.873 163.445 469.336C159.71 449.356 153.777 427.618 153.777 427.618C153.777 427.618 117.744 437.938 112.47 432.888C106.977 427.618 112.251 407.199 112.251 407.199Z" fill="#3C3C6D"/>
<path fill-rule="evenodd" clip-rule="evenodd" d="M112.251 407.199C112.251 407.199 151.36 393.805 168.059 395.781C184.538 397.757 181.022 469.336 181.022 469.336C179.704 471.971 168.938 477.68 163.445 469.336C159.71 449.356 153.777 427.618 153.777 427.618C153.777 427.618 117.744 437.938 112.47 432.888C106.977 427.618 112.251 407.199 112.251 407.199Z" fill="#3C3C6D"/>
<path fill-rule="evenodd" clip-rule="evenodd" d="M176.189 447.379C172.673 450.672 131.147 473.727 123.237 477.899C122.358 478.338 121.04 478.558 120.161 477.899C115.766 475.045 113.569 465.384 121.918 459.236C124.335 457.479 168.718 427.618 175.749 429.594H175.969C176.189 429.594 176.408 429.813 176.628 430.033C180.363 432.668 179.924 443.866 176.189 447.379Z" fill="#56548C"/>
<path fill-rule="evenodd" clip-rule="evenodd" d="M175.969 429.374C168.938 427.397 124.555 457.259 122.138 459.015C113.789 465.163 115.986 475.044 120.38 477.679L71.1637 449.135L69.4059 448.257C65.451 444.963 63.913 435.961 72.0425 430.032C74.4594 428.276 119.941 397.756 126.093 400.61L126.532 400.83L175.969 429.374Z" fill="#3C3C6D"/>
<path fill-rule="evenodd" clip-rule="evenodd" d="M285.388 226.931C284.07 216.392 279.236 152.936 269.788 145.691C269.788 145.691 263.416 138.884 260.56 141.738L214.419 168.306L216.617 197.07L236.611 262.721L281.433 236.812C284.29 236.372 286.047 232.42 285.388 226.931Z" fill="#3C3C6D"/>
<path fill-rule="evenodd" clip-rule="evenodd" d="M223.208 172.698C232.436 179.944 237.49 243.399 238.808 253.939C240.126 264.478 232.656 268.65 225.845 257.891C219.033 247.132 212.881 186.751 212.881 174.016C212.662 161.5 223.208 172.698 223.208 172.698Z" fill="#46467C"/>
<path fill-rule="evenodd" clip-rule="evenodd" d="M298.132 138.005C285.168 137.346 263.197 152.716 253.309 165.231C243.422 177.747 249.574 191.36 252.87 204.754C256.166 218.147 251.112 251.741 251.112 255.035C266.273 265.355 303.185 266.672 307.36 251.741C309.117 235.274 297.033 217.928 297.033 208.267C297.472 187.188 315.05 144.153 298.132 138.005Z" fill="#F9FBFC"/>
<path fill-rule="evenodd" clip-rule="evenodd" d="M286.706 140.859C293.517 170.062 291.32 201.68 289.782 213.975C288.244 226.271 288.024 267.55 288.024 267.55C297.912 262.5 302.745 253.278 302.965 248.887C303.185 244.715 299.23 208.925 299.669 206.071C299.889 203.217 304.943 175.551 304.503 160.62C304.064 145.69 298.351 143.494 298.351 143.494L285.607 137.785L286.706 140.859Z" fill="#FBD15B"/>
<path fill-rule="evenodd" clip-rule="evenodd" d="M287.805 148.324L289.562 148.983C289.343 149.861 289.123 150.739 289.123 151.837C289.123 151.618 289.123 151.398 288.903 151.398L287.805 148.324Z" fill="#FBD15B"/>
<path fill-rule="evenodd" clip-rule="evenodd" d="M268.03 143.934C277.917 165.232 273.084 184.773 272.644 202.119C272.205 219.685 263.196 268.649 263.196 268.649C245.839 264.257 243.642 252.62 240.346 246.692C232.216 205.852 242.543 172.697 250.013 160.401C255.946 150.74 268.03 143.934 268.03 143.934Z" fill="#FBD15B"/>
<path fill-rule="evenodd" clip-rule="evenodd" d="M257.044 170.943C241.005 166.991 249.134 204.976 257.044 219.907C260.999 227.592 264.295 231.983 269.129 234.398C270.667 224.078 272.205 213.539 272.644 206.293C268.47 192.68 265.394 175.115 257.044 170.943Z" fill="#EABD4E"/>
<path d="M190.69 309.27L199.698 302.902H202.774L201.456 304.878L191.789 311.466L190.69 309.27Z" fill="#3C3C6D"/>
<path fill-rule="evenodd" clip-rule="evenodd" d="M176.408 279.408C175.09 268.868 170.256 205.413 160.808 198.167C160.808 198.167 154.436 191.36 151.58 194.215L105.439 221.002L107.637 249.766L127.631 315.417L172.453 289.508C175.31 288.849 177.067 285.116 176.408 279.408Z" fill="#3C3C6D"/>
<path fill-rule="evenodd" clip-rule="evenodd" d="M114.008 225.394C123.236 232.639 128.29 296.095 129.608 306.634C130.927 317.173 123.456 321.345 116.645 310.586C109.834 299.827 103.682 239.446 103.682 226.711C103.462 214.196 114.008 225.394 114.008 225.394Z" fill="#46467C"/>
<path fill-rule="evenodd" clip-rule="evenodd" d="M466.435 66.4258C455.669 71.6954 435.894 115.17 439.19 125.49C442.486 135.59 451.714 130.101 458.086 121.098C466.655 108.803 475.443 82.0151 474.345 75.2085C473.246 68.4019 466.435 66.4258 466.435 66.4258Z" fill="#3C3C6D"/>
<path fill-rule="evenodd" clip-rule="evenodd" d="M469.071 291.922C469.071 291.922 452.373 311.244 447.979 312.561C443.584 313.879 447.539 318.49 451.055 318.709C454.57 318.929 465.336 318.49 468.412 315.416C471.488 312.342 480.497 309.048 480.497 309.048C480.497 298.948 478.08 292.581 478.08 292.581L469.071 291.922Z" fill="#56548C"/>
<path fill-rule="evenodd" clip-rule="evenodd" d="M463.139 154.693C463.139 154.693 460.942 197.729 461.821 211.781C462.7 225.833 465.995 295.876 465.995 295.876C475.004 297.852 480.936 295.876 480.936 295.876C484.012 242.301 483.792 226.712 484.671 218.807C485.55 210.903 486.649 187.628 486.649 187.628C493.021 174.454 486.429 157.108 483.133 152.937C480.057 148.765 463.139 154.693 463.139 154.693Z" fill="#3C3C6D"/>
<path fill-rule="evenodd" clip-rule="evenodd" d="M496.097 310.366C495.438 318.27 492.801 327.492 491.922 332.103C491.043 336.714 492.801 339.568 493.9 341.105C494.998 342.642 508.181 338.251 510.159 333.201C511.916 328.151 508.181 323.54 507.962 314.098C503.787 306.194 496.097 310.366 496.097 310.366Z" fill="#56548C"/>
<path fill-rule="evenodd" clip-rule="evenodd" d="M476.981 157.985C476.981 157.985 479.179 197.068 482.914 210.243C486.429 223.197 489.725 261.402 491.263 268.209C492.801 274.796 494.779 316.075 494.779 316.075C503.128 318.051 509.5 316.075 509.5 316.075C509.28 277.43 510.159 246.252 509.5 235.712C508.84 225.173 509.719 193.775 509.719 193.775C513.235 179.283 513.455 177.307 509.719 167.646C506.204 157.766 490.604 150.081 476.981 157.985Z" fill="#3C3C6D"/>
<path fill-rule="evenodd" clip-rule="evenodd" d="M469.511 65.1079C481.595 64.6688 509.28 70.8167 518.508 82.4539C527.736 94.091 514.333 114.73 511.257 127.246C508.181 139.761 512.795 170.94 512.795 173.794C498.513 183.236 464.238 184.334 460.502 170.281C458.964 154.911 462.48 136.907 462.7 127.905C461.821 108.802 453.471 70.8167 469.511 65.1079Z" fill="#F9FBFC"/>
<path fill-rule="evenodd" clip-rule="evenodd" d="M479.838 67.9638C472.147 94.9707 470.39 125.491 471.049 136.908C471.708 148.326 472.147 185.653 472.147 185.653C463.139 180.822 459.184 172.259 459.184 168.307C459.184 164.354 462.48 130.76 462.48 127.906C462.48 125.271 457.866 94.312 459.184 80.4792C460.502 66.6464 469.511 65.1094 469.511 65.1094H481.156L479.838 67.9638Z" fill="#3C3C6D"/>
<path fill-rule="evenodd" clip-rule="evenodd" d="M472.367 35.2461C467.094 37.0026 472.367 48.8593 472.367 48.8593V35.2461Z" fill="#3C3C6D"/>
<path fill-rule="evenodd" clip-rule="evenodd" d="M471.928 36.7839C471.928 36.7839 469.95 43.8101 470.61 49.2993C471.269 54.7885 471.928 65.5473 476.762 69.0604C481.595 72.5735 488.626 68.4017 493.24 64.6691C497.855 60.7168 502.688 53.4711 502.908 44.9079C502.908 36.1252 499.612 25.5859 487.088 26.025C474.345 26.6837 471.928 36.7839 471.928 36.7839Z" fill="#FFC8AF"/>
<path fill-rule="evenodd" clip-rule="evenodd" d="M496.316 56.9844C496.316 56.9844 495.438 68.1824 498.294 72.3542C498.514 75.2086 490.604 86.8457 482.694 84.8696C478.08 83.7717 478.739 78.2825 478.739 78.2825C479.179 74.1107 478.739 64.4497 478.739 64.4497L496.316 56.9844Z" fill="#FFC8AF"/>
<path fill-rule="evenodd" clip-rule="evenodd" d="M468.852 27.5618C467.094 33.9293 469.071 36.3445 474.564 38.1011C480.057 39.8576 494.559 35.6858 494.559 35.6858C493.68 42.4924 495.657 46.2251 495.657 46.2251C498.074 39.4185 500.271 42.9316 500.491 48.4208C500.711 53.91 497.635 53.6904 497.635 53.6904C497.854 58.3014 499.392 59.8383 499.392 59.8383C505.325 55.8861 513.235 28.8792 502.688 28.2205C502.468 18.779 472.807 13.7289 468.852 27.5618Z" fill="#3C3C6D"/>
<path fill-rule="evenodd" clip-rule="evenodd" d="M498.953 70.5977C489.505 90.3588 484.672 108.144 485.111 124.392C485.331 140.64 488.846 187.847 488.846 187.847C505.105 183.895 516.091 179.284 519.167 173.795C512.136 155.571 509.719 143.275 511.038 138.005C512.356 132.736 524.66 93.2132 518.288 81.3565C512.136 74.989 498.953 70.5977 498.953 70.5977Z" fill="#3C3C6D"/>
<path fill-rule="evenodd" clip-rule="evenodd" d="M496.756 67.9609C496.756 68.4001 498.733 70.5958 498.733 70.5958C498.733 70.5958 494.778 79.3785 493.24 83.3307C491.702 87.283 487.967 90.5765 487.967 90.5765L482.694 84.8677C489.945 80.9155 496.756 67.9609 496.756 67.9609Z" fill="#F9FBFC"/>
<path fill-rule="evenodd" clip-rule="evenodd" d="M479.398 70.8159C479.838 70.1572 480.936 81.7944 482.694 84.8683C479.398 87.9423 477.421 88.8206 477.421 88.8206C477.421 88.8206 475.443 75.6465 479.398 70.8159Z" fill="#F9FBFC"/>
<path fill-rule="evenodd" clip-rule="evenodd" d="M483.353 84.4297L478.959 87.2841C480.058 90.7972 480.058 93.2124 480.058 93.2124H484.232L487.308 88.8211L483.353 84.4297Z" fill="#EC827D"/>
<path fill-rule="evenodd" clip-rule="evenodd" d="M479.838 93.2117C473.686 125.488 474.345 145.469 474.345 145.469L477.421 154.471L484.232 144.591C484.232 144.591 479.179 106.605 484.012 93.4312C481.376 91.4551 479.838 93.2117 479.838 93.2117Z" fill="#EC827D"/>
<path fill-rule="evenodd" clip-rule="evenodd" d="M188.932 190.483C175.969 189.824 147.625 198.827 137.738 211.342C127.851 223.858 140.375 243.838 143.67 257.232C146.966 270.626 141.913 304.22 141.913 307.513C157.073 317.833 193.986 319.15 198.16 304.22C199.918 287.752 187.833 270.406 187.833 260.745C188.493 239.886 206.07 196.631 188.932 190.483Z" fill="#F9FBFC"/>
<path fill-rule="evenodd" clip-rule="evenodd" d="M177.727 193.336C184.538 222.538 182.341 254.156 180.803 266.452C179.265 278.748 179.045 320.027 179.045 320.027C188.932 314.977 193.766 305.755 193.986 301.363C194.205 297.192 190.25 261.402 190.69 258.548C190.91 255.693 199.698 221.88 199.259 206.949C198.819 192.018 188.932 190.262 188.932 190.262H176.408L177.727 193.336Z" fill="#56548C"/>
<path fill-rule="evenodd" clip-rule="evenodd" d="M189.372 160.184C189.372 160.184 190.47 167.649 190.69 173.578C190.91 183.239 189.152 191.143 184.098 194.876C178.825 198.608 169.158 196.193 164.324 192.021C159.49 187.85 156.414 177.969 156.194 168.747C156.194 159.306 159.93 147.888 173.332 148.547C186.955 149.205 189.372 160.184 189.372 160.184Z" fill="#FFC8AF"/>
<path fill-rule="evenodd" clip-rule="evenodd" d="M159.929 181.48C159.929 181.48 161.028 193.557 157.732 197.948C157.513 201.022 165.862 213.537 174.431 211.342C179.484 210.024 178.825 204.316 178.825 204.316C178.386 199.924 178.825 189.385 178.825 189.385L159.929 181.48Z" fill="#FFC8AF"/>
<path fill-rule="evenodd" clip-rule="evenodd" d="M188.273 150.521C180.803 139.982 152.898 148.765 155.315 158.645C144.549 162.159 151.58 190.044 164.324 192.02C164.324 192.02 170.256 186.092 169.817 184.555C168.498 185.213 166.96 184.994 166.301 181.7C164.983 175.991 168.718 172.259 172.893 178.626C172.893 178.626 173.552 173.576 170.696 166.55C170.696 166.55 185.197 165.233 189.811 161.061C192.228 159.085 192.448 156.45 188.273 150.521Z" fill="#3C3C6D"/>
<path fill-rule="evenodd" clip-rule="evenodd" d="M157.293 195.973C167.18 217.271 164.104 237.032 163.664 254.597C163.225 272.163 154.216 321.127 154.216 321.127C136.859 316.735 134.662 305.098 131.366 299.17C123.236 258.33 128.51 221.003 136.2 208.708C142.132 199.266 157.293 195.973 157.293 195.973Z" fill="#56548C"/>
<path fill-rule="evenodd" clip-rule="evenodd" d="M163.445 259.209C158.391 244.718 153.997 224.737 145.428 220.565C129.389 216.613 134.222 256.794 142.132 271.944C146.966 281.166 151.8 286.216 159.71 288.412C161.467 278.092 163.005 267.114 163.445 259.209Z" fill="#3C3C6D"/>
<path fill-rule="evenodd" clip-rule="evenodd" d="M159.49 193.336C159.49 193.775 157.292 196.19 157.292 196.19C157.292 196.19 161.687 205.851 163.225 210.023C164.763 214.195 168.937 217.708 168.937 217.708L174.65 211.56C166.74 207.388 159.49 193.336 159.49 193.336Z" fill="#F9FBFC"/>
<path fill-rule="evenodd" clip-rule="evenodd" d="M178.166 196.412C177.726 195.753 176.408 208.268 174.431 211.562C177.946 215.075 180.143 215.953 180.143 215.953C180.143 215.953 182.56 201.901 178.166 196.412Z" fill="#F9FBFC"/>
<path d="M156.414 306.417L299.889 389.195L477.421 286.656L333.946 203.879L156.414 306.417Z" fill="#83C9FF"/>
<path d="M167.18 308.831C164.764 310.149 160.809 310.149 158.392 308.831C155.975 307.514 155.975 305.098 158.392 303.781C160.809 302.464 164.764 302.464 167.18 303.781C169.597 305.318 169.597 307.514 167.18 308.831Z" fill="#83C9FF"/>
<path d="M475.444 289.288C473.027 290.605 469.072 290.605 466.655 289.288C464.238 287.971 464.238 285.555 466.655 284.238C469.072 282.921 473.027 282.921 475.444 284.238C477.861 285.555 477.861 287.751 475.444 289.288Z" fill="#83C9FF"/>
<path d="M474.345 423.884C472.587 424.982 469.731 424.982 467.973 423.884C466.215 422.786 466.215 421.249 467.973 420.152C469.731 419.054 472.587 419.054 474.345 420.152C476.103 421.249 476.103 422.786 474.345 423.884Z" fill="#878CF0"/>
<path d="M464.897 286.652L466.655 421.907H475.663L477.421 286.652H464.897Z" fill="#878CF0"/>
<path d="M303.845 387.655C301.428 388.973 297.473 388.973 295.056 387.655C292.639 386.338 292.639 383.923 295.056 382.605C297.473 381.288 301.428 381.288 303.845 382.605C306.261 384.142 306.261 386.338 303.845 387.655Z" fill="#83C9FF"/>
<path d="M302.526 522.47C300.768 523.568 297.912 523.568 296.154 522.47C294.397 521.372 294.397 519.835 296.154 518.737C297.912 517.64 300.768 517.64 302.526 518.737C304.284 519.616 304.284 521.372 302.526 522.47Z" fill="#878CF0"/>
<path d="M293.298 385.238L294.836 520.492H303.844L305.602 385.238H293.298Z" fill="#878CF0"/>
<path d="M338.12 210.026C335.704 211.344 331.749 211.344 329.332 210.026C326.915 208.709 326.915 206.294 329.332 204.976C331.749 203.659 335.704 203.659 338.12 204.976C340.537 206.513 340.537 208.709 338.12 210.026Z" fill="#83C9FF"/>
<path d="M337.022 344.841C335.264 345.939 332.408 345.939 330.65 344.841C328.892 343.743 328.892 342.206 330.65 341.109C332.408 340.011 335.264 340.011 337.022 341.109C338.779 341.987 338.779 343.743 337.022 344.841Z" fill="#83C9FF"/>
<path d="M327.574 207.609L329.332 342.864H338.34L339.878 207.609H327.574Z" fill="#83C9FF"/>
<path d="M523.562 255.477C523.562 271.066 514.114 285.777 494.998 296.755L317.467 399.074C275.061 423.447 201.017 420.373 152.02 392.268C125.873 377.118 112.031 357.795 111.592 339.352V347.476C112.031 365.92 125.873 385.242 152.02 400.392C201.017 428.716 275.061 431.79 317.467 407.198L494.998 304.879C514.114 293.901 523.562 278.97 523.562 263.381V255.477Z" fill="#A8B0F4"/>
<path d="M152.239 392.487C201.236 420.812 275.281 423.885 317.686 399.294L495.218 296.975C514.333 285.996 523.781 271.066 523.781 255.696C523.781 236.813 510.159 217.052 483.353 201.463C434.356 173.138 360.312 170.064 317.906 194.656L140.375 296.975C120.6 308.392 111.372 323.762 111.811 339.571C112.251 358.015 125.873 377.337 152.239 392.487Z" fill="#878CF0"/>
<path fill-rule="evenodd" clip-rule="evenodd" d="M469.511 285.339L442.705 269.969L397.663 296.097L394.148 296.537V297.415C394.148 297.854 394.368 298.074 394.587 298.293L421.832 314.102C422.711 314.541 424.029 314.541 425.128 313.882L470.39 287.754C471.049 287.315 471.269 286.876 471.269 286.656V285.119L469.511 285.339Z" fill="#3C3C6D"/>
<path fill-rule="evenodd" clip-rule="evenodd" d="M442.705 268.432L394.148 296.537L382.723 260.528C382.283 259.43 382.723 258.113 383.602 257.674L429.522 231.106C430.401 230.667 431.28 231.106 431.72 232.204L442.705 268.432Z" fill="#56548C"/>
<path fill-rule="evenodd" clip-rule="evenodd" d="M440.069 267.116L395.247 293.025L384.92 261.187L430.401 235.059L440.069 267.116Z" fill="#BEE1F4"/>
<path fill-rule="evenodd" clip-rule="evenodd" d="M470.17 286.437L424.908 312.566C424.03 313.225 422.491 313.225 421.613 312.786L393.928 296.757L442.486 268.652L470.17 284.681C471.269 284.9 471.269 285.779 470.17 286.437Z" fill="#56548C"/>
<path fill-rule="evenodd" clip-rule="evenodd" d="M470.17 286.437L424.908 312.566C424.03 313.225 422.491 313.225 421.613 312.786L393.928 296.757L442.486 268.652L470.17 284.681C471.269 284.9 471.269 285.779 470.17 286.437Z" fill="#56548C"/>
<path fill-rule="evenodd" clip-rule="evenodd" d="M456.108 278.974L412.165 304.224L398.982 296.759L442.925 271.289L456.108 278.974Z" fill="#112B46"/>
<path fill-rule="evenodd" clip-rule="evenodd" d="M449.956 294.782L439.409 300.929C438.75 301.369 437.871 301.369 437.432 300.929L432.379 298.075C431.939 297.856 431.939 297.197 432.598 296.977L443.145 290.829C443.804 290.39 444.683 290.39 445.122 290.829L450.176 293.684C450.615 293.903 450.615 294.342 449.956 294.782Z" fill="#3C3C6D"/>
<path d="M142.792 364.162C143.89 361.966 164.763 322.883 164.763 322.883L195.743 332.983C195.743 332.983 177.507 381.068 175.09 379.971C172.673 379.092 142.792 364.162 142.792 364.162Z" fill="#F9FBFC"/>
<path d="M208.048 281.385L233.535 262.062L279.676 266.234L253.09 285.995L208.048 281.385Z" fill="#F9FBFC"/>
<path d="M239.028 356.259H238.589C238.589 356.259 238.369 356.259 238.369 356.039L217.056 343.744C216.177 343.304 214.639 343.304 213.76 343.963L184.978 360.431C184.758 360.431 184.758 360.65 184.538 360.65H184.099V361.309C184.099 361.529 184.318 361.968 184.758 362.187L206.07 374.483C206.949 374.922 208.487 374.922 209.366 374.264L238.149 357.796C238.589 357.576 239.028 357.137 239.028 356.698V356.259Z" fill="#A5B7C6"/>
<path d="M206.29 374.043L184.977 361.747C184.099 361.308 184.318 360.429 185.197 359.771L213.98 343.303C214.859 342.644 216.397 342.644 217.276 343.083L238.588 355.379C239.467 355.818 239.248 356.697 238.369 357.355L209.586 373.823C208.707 374.482 207.169 374.482 206.29 374.043Z" fill="#56548C"/>
<path d="M208.487 372.724L187.395 360.647L215.958 344.18L236.831 356.256L208.487 372.724Z" fill="#FBD15B"/>
<path fill-rule="evenodd" clip-rule="evenodd" d="M192.667 192.02C204.752 197.509 201.896 229.566 211.124 237.69C216.397 242.301 242.104 248.229 249.135 248.229C251.991 253.938 246.938 260.306 246.938 260.306C202.994 256.792 199.918 255.695 189.811 238.129C182.341 224.296 176.628 188.287 192.667 192.02Z" fill="#56548C"/>
<path d="M248.036 250.206C248.036 250.206 259.901 248.888 262.098 249.767C264.295 250.865 269.349 253.939 270.887 255.256C272.205 256.793 276.819 260.526 273.084 261.404C271.985 261.623 265.394 259.647 263.636 258.989C261.879 258.11 258.583 257.232 258.583 258.11C258.583 258.989 266.932 261.184 265.833 262.941C264.735 264.697 262.757 263.38 256.825 261.404C250.893 259.428 245.18 258.549 245.18 258.549C243.862 254.158 245.18 251.523 248.036 250.206Z" fill="#FFC8AF"/>
<path d="M229.141 257.012L220.572 267.771C220.352 267.991 220.352 268.649 220.791 268.869C221.011 269.088 221.67 269.088 221.89 268.649L230.459 257.891C230.679 257.671 230.679 257.012 230.239 256.793C229.8 256.573 229.36 256.573 229.141 257.012Z" fill="#3C3C6D"/>
<path fill-rule="evenodd" clip-rule="evenodd" d="M213.321 262.5C217.056 264.476 223.428 263.159 223.428 264.037C223.428 264.696 222.11 266.891 219.473 266.891C216.836 266.672 213.321 262.5 213.321 262.5Z" fill="#FFC8AF"/>
<path fill-rule="evenodd" clip-rule="evenodd" d="M202.774 268.208C204.972 265.793 210.465 260.304 215.079 263.158C219.473 266.013 222.549 266.013 223.867 266.452C225.405 264.256 227.602 266.013 228.921 269.087C230.239 272.161 221.011 276.113 219.473 277.211C217.935 278.528 202.774 275.893 202.774 275.893V268.208Z" fill="#FFC8AF"/>
<path fill-rule="evenodd" clip-rule="evenodd" d="M145.428 211.562C157.512 217.491 161.028 254.817 170.256 263.6C175.529 268.65 196.402 264.698 203.433 264.698C206.289 271.065 202.335 278.531 202.335 278.531C162.126 283.361 151.8 282.263 141.693 262.941C134.222 247.791 129.388 207.39 145.428 211.562Z" fill="#56548C"/>
<path fill-rule="evenodd" clip-rule="evenodd" d="M483.793 119.561C482.694 115.609 480.277 111.876 476.981 109.681C476.102 109.022 475.004 108.583 474.125 108.144C473.686 107.924 473.246 107.705 472.807 107.705C472.367 107.705 471.708 107.485 471.269 107.705C471.049 107.924 471.049 108.144 471.269 108.363C471.708 109.242 472.587 109.9 473.466 110.339C475.004 111.218 475.663 112.535 476.102 114.072C474.564 112.535 473.246 110.998 471.488 109.681C469.731 108.583 467.753 107.705 465.776 107.046C464.897 106.826 464.018 106.387 463.139 106.607C462.041 106.826 461.601 107.705 462.26 108.363C462.919 109.022 463.798 109.461 464.677 109.9C465.776 110.559 466.655 111.218 467.753 112.096C468.193 112.535 468.632 112.974 469.072 113.413C469.291 113.852 469.511 114.511 469.95 114.731C468.852 114.292 467.753 113.633 466.655 113.194C465.776 112.755 464.677 112.535 463.798 111.876C462.919 111.437 462.26 110.779 461.381 110.339C460.942 110.12 460.503 109.9 460.063 110.12C459.843 110.339 459.624 110.779 459.624 110.998C459.624 111.437 459.843 111.657 460.063 112.096C460.503 112.974 461.162 113.413 462.041 113.852C462.7 114.292 463.359 114.731 464.018 115.17C464.897 115.829 465.776 116.268 466.435 116.926C466.874 117.146 467.314 117.585 467.533 118.024C467.753 118.244 468.193 118.903 468.632 119.122C466.874 118.244 465.336 117.146 463.798 116.268C463.139 115.829 462.48 115.389 462.041 114.95C461.381 114.292 460.722 113.852 459.843 113.852C459.624 113.852 459.404 113.852 459.184 113.852C458.965 114.072 458.965 114.292 458.965 114.511C458.965 114.731 459.184 114.95 459.404 115.17C460.283 116.487 461.381 117.805 462.7 118.903C463.798 119.781 465.336 121.318 466.655 121.537C464.677 121.098 462.919 120.22 461.381 118.903C460.722 118.244 459.843 117.585 458.965 117.366C458.745 117.366 458.305 117.366 458.086 117.585C457.866 117.805 458.086 118.244 458.305 118.463C459.404 120.22 460.942 122.416 462.919 123.294C464.018 123.733 464.897 124.611 465.995 125.27C467.094 125.929 468.193 126.587 469.291 127.246C471.928 128.783 475.004 130.32 477.86 131.198C478.739 131.418 479.618 131.638 480.497 131.418C481.376 131.418 481.815 131.198 482.474 130.54C483.573 129.442 484.452 128.124 484.891 126.587C485.331 124.831 485.111 122.855 484.671 121.098C484.232 121.098 484.012 120.22 483.793 119.561Z" fill="#FFC8AF"/>
<path fill-rule="evenodd" clip-rule="evenodd" d="M457.207 121.098C456.328 116.267 455.229 110.558 452.153 106.606C451.934 106.386 451.934 106.167 451.714 106.167C451.275 105.947 450.835 106.606 450.835 107.045C450.615 108.363 451.275 109.9 451.714 111.217C452.153 112.754 452.153 114.51 451.934 116.047C451.934 115.828 451.714 115.828 451.714 115.608C449.297 112.315 447.979 107.923 446.441 104.191C446.221 103.752 446.001 103.312 445.562 103.312C444.903 103.312 444.683 104.191 444.683 104.849C444.683 107.923 445.342 110.339 446.661 113.193C445.342 111.217 444.244 109.021 443.365 106.826C443.145 106.386 442.925 105.728 442.266 105.508C439.849 105.289 442.925 114.291 443.365 115.608C442.046 113.852 441.387 112.095 440.948 109.9C440.948 109.46 440.728 109.021 440.508 108.802C440.289 108.363 439.63 107.923 439.19 108.363C438.97 108.802 438.751 109.68 438.751 110.119C438.531 111.437 438.97 112.754 439.41 114.071C440.069 115.828 441.168 117.584 441.827 119.341C440.728 118.024 439.849 116.706 438.751 115.608C438.531 115.389 438.311 114.95 437.872 115.169C437.432 115.169 437.213 115.828 437.432 116.267C438.311 119.121 439.849 121.976 441.827 124.172C442.925 125.269 444.024 126.148 444.903 127.245C445.782 128.343 447.1 129.222 448.638 129.88C450.176 130.539 451.714 130.759 453.252 130.759C454.57 130.759 455.229 130.319 455.889 129.441C456.548 128.563 457.207 127.685 457.207 126.587C457.427 124.83 457.427 123.074 457.207 121.098Z" fill="#FFC8AF"/>
<path fill-rule="evenodd" clip-rule="evenodd" d="M484.671 118.684L504.666 125.491C502.688 99.3622 507.302 71.6965 518.288 81.5771C524.66 87.2859 524.88 136.03 520.046 143.276C515.212 150.522 494.339 140.202 479.838 132.737C479.398 126.589 484.671 118.684 484.671 118.684Z" fill="#3C3C6D"/>
<path fill-rule="evenodd" clip-rule="evenodd" d="M130.048 264.917C135.101 264.039 141.693 264.039 146.526 265.356C154.656 267.771 159.05 272.821 160.808 280.506C162.785 288.191 163.445 300.926 158.831 308.172C155.974 312.563 150.042 311.905 145.648 310.587C140.374 309.27 133.343 306.854 129.169 303.561C123.017 298.95 119.941 289.069 119.501 281.824C119.281 275.676 122.357 266.234 130.048 264.917Z" fill="#FFC8AF"/>
<path fill-rule="evenodd" clip-rule="evenodd" d="M123.676 266.233C118.842 269.527 119.281 276.773 119.501 281.823C119.941 289.068 123.017 298.949 129.169 303.56C132.464 305.975 132.684 306.414 137.079 307.732C137.518 307.512 138.397 306.854 139.715 305.975C142.132 304.219 143.45 300.925 142.571 298.071C141.693 295.216 141.473 291.703 143.231 290.825C145.867 289.288 147.625 294.558 147.625 294.558C149.163 293.899 151.58 292.142 150.262 289.068C148.943 285.995 150.262 282.701 150.262 282.701C155.095 282.701 157.292 276.333 158.831 275.455C162.126 273.699 163.225 272.82 162.566 269.966C162.126 267.99 161.467 266.014 159.929 264.477C158.171 262.94 152.678 260.744 150.262 260.085C137.079 256.792 126.752 259.207 123.676 266.233Z" fill="#56548C"/>
<path fill-rule="evenodd" clip-rule="evenodd" d="M153.338 314.319C141.473 309.927 127.631 302.023 108.296 317.392C88.9605 332.762 94.2337 395.339 99.0674 409.611C103.901 423.883 135.76 424.981 145.428 423.883C155.095 422.785 145.648 406.098 148.724 395.12C151.8 384.141 177.067 323.101 153.338 314.319Z" fill="#56548C"/>
<path fill-rule="evenodd" clip-rule="evenodd" d="M159.71 316.737C164.763 319.811 177.726 357.796 177.726 357.796L182.34 327.935C182.34 327.935 193.107 322.884 199.259 329.691C195.084 358.674 192.667 388.316 182.34 390.072C172.014 391.829 155.095 364.383 145.867 350.989C136.639 337.376 144.329 307.515 159.71 316.737Z" fill="#56548C"/>
<path d="M191.129 310.147L200.797 302.901L203.214 302.242L202.115 303.779L191.789 311.464L191.129 310.147Z" fill="#3C3C6D"/>
<path fill-rule="evenodd" clip-rule="evenodd" d="M184.537 329.691C184.537 328.813 180.802 319.591 182.34 316.297C183.878 313.004 185.636 310.808 185.636 310.808C187.174 305.539 191.568 306.197 195.084 309.491C198.599 313.004 203.433 321.348 197.061 328.374C190.689 334.083 184.537 329.691 184.537 329.691Z" fill="#FFC8AF"/>
<path fill-rule="evenodd" clip-rule="evenodd" d="M61.4959 338.691C61.4959 338.691 61.4959 338.911 61.4959 339.131C57.7607 338.691 53.3663 341.985 51.6086 346.596C48.5325 354.72 52.7072 442.767 60.1776 440.791C62.5944 443.206 115.107 472.409 115.107 472.409L118.183 371.188C118.183 371.407 81.0507 339.131 61.4959 338.691Z" fill="#46467C"/>
<path fill-rule="evenodd" clip-rule="evenodd" d="M115.107 472.409C107.637 474.385 103.242 386.338 106.538 378.214C109.834 370.09 121.039 366.137 123.017 379.531C124.994 392.925 135.101 467.578 115.107 472.409Z" fill="#EC827D"/>
<path fill-rule="evenodd" clip-rule="evenodd" d="M322.3 209.805C326.035 211.781 332.407 210.463 332.407 211.342C332.407 212.22 331.089 214.196 328.452 214.196C325.816 214.196 322.3 209.805 322.3 209.805Z" fill="#FFC8AF"/>
<path fill-rule="evenodd" clip-rule="evenodd" d="M311.754 215.732C313.951 213.317 319.444 207.827 324.058 210.682C328.452 213.536 331.528 213.536 332.847 213.975C334.385 211.78 336.582 213.536 337.9 216.61C339.219 219.684 329.99 223.636 328.452 224.734C326.914 225.832 311.754 223.417 311.754 223.417V215.732Z" fill="#FFC8AF"/>
<path fill-rule="evenodd" clip-rule="evenodd" d="M509.06 340.667C509.06 340.667 469.95 327.274 453.252 329.25C436.773 331.226 440.289 402.805 440.289 402.805C440.289 402.805 449.077 404.342 457.866 402.805C461.601 382.825 467.533 361.087 467.533 361.087C467.533 361.087 503.567 371.407 508.84 366.357C514.553 361.087 509.06 340.667 509.06 340.667Z" fill="#3C3C6D"/>
<path fill-rule="evenodd" clip-rule="evenodd" d="M460.063 431.569C460.063 432.008 460.283 432.447 460.722 432.886C461.381 433.545 462.04 433.984 463.139 434.204C464.457 434.643 466.215 434.643 467.753 434.204L487.088 429.154C490.384 428.276 493.899 429.373 494.778 431.349L498.953 443.206C499.392 444.743 501.809 445.621 504.226 445.621C504.446 445.621 504.885 445.621 505.105 445.621C506.863 445.402 508.181 444.963 509.06 444.084C509.499 443.645 509.719 443.206 509.719 442.767C509.719 442.547 509.719 442.328 509.719 442.108L508.181 433.765L507.522 430.032C507.082 428.056 510.158 426.299 513.674 426.519L534.987 427.836C535.206 427.836 535.426 427.836 535.646 427.836C536.525 427.836 537.403 427.617 538.063 427.397C539.601 426.958 540.699 426.08 540.919 424.982C541.358 423.225 539.601 421.688 536.744 421.469L515.871 419.054C514.992 419.054 514.113 418.615 513.454 418.395C511.697 417.517 510.818 415.98 511.916 414.662L519.387 405.44L520.925 403.464C521.144 403.025 521.364 402.806 521.364 402.366V402.147C521.364 401.049 520.265 399.951 518.508 399.293C515.871 398.634 512.795 399.073 511.257 400.61L500.711 411.369C498.953 413.125 494.778 413.564 492.361 412.247L476.761 403.903C475.663 403.245 474.345 403.025 473.026 403.025C471.708 403.025 470.17 403.245 469.071 403.903C467.973 404.562 467.314 405.44 467.533 406.319C467.533 406.977 467.973 407.636 468.852 408.295L470.17 409.173L483.133 417.517C485.55 419.054 484.891 421.249 481.815 422.347C481.815 422.347 481.815 422.347 481.595 422.347L463.139 428.495C461.162 429.373 460.063 430.471 460.063 431.569Z" fill="#3C3C6D"/>
<path fill-rule="evenodd" clip-rule="evenodd" d="M513.015 418.832L520.485 409.611C520.705 409.171 520.925 408.952 520.925 408.513V403.023C520.925 403.463 520.705 403.682 520.485 404.121L518.947 406.097L511.477 415.319C510.598 416.637 511.257 417.954 513.015 418.832Z" fill="#3C3C6D"/>
<path fill-rule="evenodd" clip-rule="evenodd" d="M507.302 430.252L507.962 433.985C509.06 432.887 511.038 432.229 513.235 432.448L534.547 433.765C534.767 433.765 534.987 433.765 535.207 433.765C537.843 433.765 540.26 432.668 540.699 431.131V425.422C540.48 426.52 539.381 427.178 537.843 427.837C537.184 428.057 536.305 428.276 535.426 428.276C535.207 428.276 534.987 428.276 534.767 428.276L513.455 426.959C509.719 426.739 506.863 428.276 507.302 430.252Z" fill="#3C3C6D"/>
<path fill-rule="evenodd" clip-rule="evenodd" d="M496.097 441.012V442.11C496.316 441.67 496.316 441.231 496.097 441.012Z" fill="#3C3C6D"/>
<path fill-rule="evenodd" clip-rule="evenodd" d="M460.063 431.568V437.277C460.063 437.716 460.283 438.155 460.722 438.594C462.04 440.131 465.116 440.79 467.753 440.131L487.088 435.081C490.384 434.203 493.899 435.301 494.778 437.277L498.953 449.134C499.392 450.671 501.809 451.549 504.226 451.549C504.446 451.549 504.885 451.549 505.105 451.549C507.742 451.329 509.499 450.232 509.719 448.695C509.719 448.695 509.719 448.475 509.719 448.036V442.986C509.719 443.425 509.28 443.864 509.06 444.303C508.181 445.181 506.863 445.621 505.105 445.84C504.885 445.84 504.446 445.84 504.226 445.84C501.59 445.84 499.392 444.742 498.953 443.425L494.778 431.568C494.119 429.592 490.384 428.494 487.088 429.372L467.753 434.423C466.215 434.862 464.457 434.862 463.139 434.423C462.04 434.203 461.381 433.764 460.722 433.105C460.283 432.446 460.063 432.007 460.063 431.568Z" fill="#3C3C6D"/>
<path fill-rule="evenodd" clip-rule="evenodd" d="M467.094 406.977V412.466C467.094 413.124 467.534 414.003 468.413 414.661L481.376 422.785C484.232 421.688 484.891 419.492 482.694 417.955L469.731 409.611L468.413 408.733C467.534 408.294 467.094 407.635 467.094 406.977Z" fill="#3C3C6D"/>
<path fill-rule="evenodd" clip-rule="evenodd" d="M460.502 441.891C460.722 444.526 462.919 446.502 465.776 446.282C468.412 446.063 470.39 443.867 470.39 441.232C470.17 438.597 467.973 436.621 465.117 436.841C462.26 436.841 460.283 439.256 460.502 441.891Z" fill="#3C3C6D"/>
<path fill-rule="evenodd" clip-rule="evenodd" d="M499.173 453.965C499.393 456.6 501.59 458.576 504.446 458.357C507.083 458.137 509.06 455.941 509.06 453.306C508.84 450.672 506.643 448.696 503.787 448.915C500.931 448.915 498.953 451.33 499.173 453.965Z" fill="#3C3C6D"/>
<path fill-rule="evenodd" clip-rule="evenodd" d="M530.812 436.399C531.032 439.034 533.229 441.01 536.085 440.79C538.722 440.571 540.699 438.375 540.699 435.74C540.48 433.105 538.282 431.129 535.426 431.349C532.79 431.568 530.592 433.764 530.812 436.399Z" fill="#3C3C6D"/>
<path fill-rule="evenodd" clip-rule="evenodd" d="M513.015 416.2C513.234 418.834 515.432 420.81 518.288 420.591C520.925 420.371 522.902 418.176 522.902 415.541C522.682 412.906 520.485 410.93 517.629 411.149C514.772 411.369 513.015 413.345 513.015 416.2Z" fill="#3C3C6D"/>
<path fill-rule="evenodd" clip-rule="evenodd" d="M465.336 418.176C465.556 420.811 467.753 422.787 470.609 422.568C473.246 422.348 475.223 420.152 475.223 417.517C475.004 414.883 472.806 412.906 469.95 413.126C467.094 413.346 465.116 415.541 465.336 418.176Z" fill="#3C3C6D"/>
<path fill-rule="evenodd" clip-rule="evenodd" d="M492.361 425.643C492.361 432.01 505.984 430.693 505.984 425.643V381.07H492.361V425.643Z" fill="#56548C"/>
<path fill-rule="evenodd" clip-rule="evenodd" d="M445.122 380.633C448.638 383.926 490.164 406.981 498.074 411.153C498.953 411.592 500.271 411.812 501.15 411.153C505.544 408.298 507.741 398.637 499.392 392.49C496.975 390.733 452.592 360.872 445.561 362.848H445.342C445.122 362.848 444.902 363.067 444.683 363.287C441.167 366.141 441.387 377.339 445.122 380.633Z" fill="#56548C"/>
<path fill-rule="evenodd" clip-rule="evenodd" d="M445.342 362.846C452.373 360.87 496.756 390.512 499.173 392.488C507.522 398.636 505.325 408.517 500.93 411.151L550.147 382.607L551.905 381.729C555.86 378.436 557.398 369.433 549.268 363.505C546.851 361.748 501.37 331.228 495.218 334.083L494.778 334.302L445.342 362.846Z" fill="#3C3C6D"/>
<path fill-rule="evenodd" clip-rule="evenodd" d="M420.734 294.557C420.734 294.557 419.635 291.264 417.218 289.507C414.801 287.751 411.506 285.335 409.748 286.214C408.21 287.092 413.483 291.264 413.483 291.264C407.77 289.068 402.278 288.629 399.861 288.409C397.444 288.19 390.193 291.044 391.731 293.24C393.049 295.436 398.762 298.51 401.399 299.827C403.816 301.144 411.725 303.779 417.218 303.121C422.931 302.242 420.734 294.557 420.734 294.557Z" fill="#FFC8AF"/>
<path fill-rule="evenodd" clip-rule="evenodd" d="M509.06 345.939C510.818 372.287 480.936 384.803 438.091 372.946C438.091 372.946 435.235 385.022 426.886 421.69C415.021 423.447 407.551 421.69 407.551 421.69C407.551 421.69 406.232 350.111 426.886 347.037C447.539 343.963 488.626 343.524 488.626 342.426L509.06 345.939Z" fill="#56548C"/>
<path fill-rule="evenodd" clip-rule="evenodd" d="M491.483 198.389C486.429 197.511 479.838 197.511 475.004 198.829C466.874 201.244 462.48 206.294 460.722 213.979C458.745 221.664 458.086 234.399 462.7 241.644C465.556 246.036 471.488 245.377 475.883 244.06C481.156 242.742 488.187 240.327 492.361 237.033C498.514 232.423 501.59 222.542 502.029 215.296C502.249 208.929 498.953 199.487 491.483 198.389Z" fill="#FFC8AF"/>
<path fill-rule="evenodd" clip-rule="evenodd" d="M497.635 199.705C502.468 202.999 502.029 210.245 501.809 215.295C501.37 222.541 498.294 232.421 492.142 237.032C488.846 239.447 488.626 239.887 484.232 241.204C483.792 240.984 482.914 240.326 481.595 239.447C479.178 237.691 477.86 234.397 478.739 231.543C479.618 228.689 479.837 225.175 478.08 224.297C475.443 222.76 473.685 228.03 473.685 228.03C472.147 227.371 469.73 225.615 471.049 222.541C472.367 219.467 471.049 216.173 471.049 216.173C466.215 216.173 464.018 209.806 462.48 208.927C459.184 207.171 458.085 206.293 458.745 203.438C459.184 201.462 459.843 199.486 461.381 197.949C463.139 196.412 468.632 194.216 471.049 193.777C484.452 190.264 494.559 192.679 497.635 199.705Z" fill="#EC827D"/>
<path fill-rule="evenodd" clip-rule="evenodd" d="M465.996 247.57C476.322 240.324 489.945 230.883 509.06 246.252C528.395 261.622 526.857 328.81 522.243 343.082C517.41 357.354 485.55 358.452 475.883 357.354C466.435 356.037 475.663 339.569 472.587 328.591C469.511 317.612 445.342 262.061 465.996 247.57Z" fill="#F9FBFC"/>
<path fill-rule="evenodd" clip-rule="evenodd" d="M461.821 262.061C460.722 262.72 459.404 264.916 457.866 267.99C457.646 281.164 462.26 297.192 466.435 309.708C469.731 305.097 472.807 300.047 475.663 296.094C484.671 282.701 476.981 252.839 461.821 262.061Z" fill="#DCE6EA"/>
<path fill-rule="evenodd" clip-rule="evenodd" d="M560.034 272.164C560.034 272.164 560.034 272.384 560.034 272.603C563.769 272.164 568.164 275.458 569.921 280.069C572.997 288.193 568.823 376.24 561.352 374.263C558.936 376.679 506.423 405.881 506.423 405.881L503.347 304.66C503.127 304.66 540.26 272.603 560.034 272.164Z" fill="#46467C"/>
<path fill-rule="evenodd" clip-rule="evenodd" d="M506.204 405.881C513.674 407.857 518.068 319.81 514.773 311.686C511.477 303.562 500.271 299.61 498.294 313.004C496.536 326.178 486.209 400.831 506.204 405.881Z" fill="#56548C"/>
<path fill-rule="evenodd" clip-rule="evenodd" d="M462.7 251.962C457.646 255.036 443.365 297.852 443.365 297.852L421.613 291.485C418.756 291.485 412.384 296.535 413.703 302.683C427.325 313.002 434.796 316.735 445.122 318.492C455.449 320.248 467.314 299.389 476.542 285.995C485.77 272.602 478.08 242.521 462.7 251.962Z" fill="#F9FBFC"/>
<path fill-rule="evenodd" clip-rule="evenodd" d="M365.365 345.717L338.559 330.348L293.517 356.476L290.002 356.915V357.794C290.002 358.233 290.222 358.452 290.441 358.672L317.686 374.481C318.565 374.92 319.883 374.92 320.982 374.261L366.244 348.133C366.903 347.694 367.123 347.254 367.123 347.035V345.498L365.365 345.717Z" fill="#3C3C6D"/>
<path fill-rule="evenodd" clip-rule="evenodd" d="M338.56 328.811L290.002 356.916L278.577 320.907C278.137 319.809 278.577 318.492 279.456 318.052L325.376 291.485C326.255 291.046 327.134 291.485 327.574 292.583L338.56 328.811Z" fill="#56548C"/>
<path fill-rule="evenodd" clip-rule="evenodd" d="M335.923 327.275L291.101 353.184L280.774 321.566L326.255 295.438L335.923 327.275Z" fill="#EC827D"/>
<path fill-rule="evenodd" clip-rule="evenodd" d="M366.024 346.598L320.762 372.726C319.883 373.385 318.345 373.385 317.467 372.946L289.782 356.917L338.34 328.812L366.024 344.841C367.123 345.28 366.903 346.158 366.024 346.598Z" fill="#56548C"/>
<path fill-rule="evenodd" clip-rule="evenodd" d="M366.024 346.598L320.762 372.726C319.883 373.385 318.345 373.385 317.467 372.946L289.782 356.917L338.34 328.812L366.024 344.841C367.123 345.28 366.903 346.158 366.024 346.598Z" fill="#56548C"/>
<path fill-rule="evenodd" clip-rule="evenodd" d="M351.962 339.133L308.019 364.603L294.836 357.138L338.779 331.668L351.962 339.133Z" fill="#112B46"/>
<path fill-rule="evenodd" clip-rule="evenodd" d="M345.81 354.942L335.263 361.09C334.604 361.529 333.725 361.529 333.286 361.09L328.233 358.235C327.793 358.016 327.793 357.357 328.452 357.137L338.999 350.99C339.658 350.55 340.537 350.55 340.976 350.99L346.03 353.844C346.469 354.283 346.469 354.722 345.81 354.942Z" fill="#3C3C6D"/>
<path fill-rule="evenodd" clip-rule="evenodd" d="M112.69 414.225C110.933 440.573 140.814 453.089 183.659 441.232C183.659 441.232 186.515 453.308 194.865 489.976C206.729 491.733 213.76 481.413 213.76 481.413C213.76 481.413 215.518 418.397 194.865 415.103C174.211 412.029 133.124 411.59 133.124 410.492L112.69 414.225Z" fill="#3C3C6D"/>
<path fill-rule="evenodd" clip-rule="evenodd" d="M130.048 264.917C135.102 264.039 141.693 264.039 146.527 265.356C154.656 267.771 159.051 272.821 160.808 280.506C162.786 288.191 163.445 300.926 158.831 308.172C155.975 312.563 150.042 311.905 145.648 310.587C140.375 309.27 133.344 306.854 129.169 303.561C123.017 298.95 119.941 289.069 119.502 281.824C119.282 275.676 122.358 266.234 130.048 264.917Z" fill="#FFC8AF"/>
<path fill-rule="evenodd" clip-rule="evenodd" d="M123.676 266.233C118.842 269.527 118.842 276.992 119.062 282.042C119.502 289.288 123.017 298.949 129.169 303.56C132.465 305.975 132.685 306.414 137.079 307.732C137.518 307.512 138.397 306.854 139.716 305.975C142.132 304.219 143.451 300.925 142.572 298.071C141.693 295.216 141.473 291.703 143.231 290.825C145.868 289.288 147.625 294.558 147.625 294.558C149.163 293.899 151.58 292.142 150.262 289.068C148.944 285.995 150.262 282.701 150.262 282.701C155.096 282.701 157.293 276.333 158.831 275.455C162.127 273.699 163.225 272.82 162.566 269.966C162.127 267.99 161.468 266.014 159.93 264.477C158.172 262.94 152.679 260.744 150.262 260.085C137.079 256.792 126.752 259.207 123.676 266.233Z" fill="#3C3C6D"/>
<path fill-rule="evenodd" clip-rule="evenodd" d="M153.338 314.319C141.473 309.927 127.631 302.023 108.296 317.392C88.9605 332.762 94.2337 395.339 99.0674 409.611C103.901 423.883 135.76 424.981 145.428 423.883C155.095 422.785 145.648 406.098 148.724 395.12C151.8 384.141 177.067 323.101 153.338 314.319Z" fill="#DD6F6F"/>
<path fill-rule="evenodd" clip-rule="evenodd" d="M159.71 316.737C164.763 319.811 177.726 357.796 177.726 357.796L182.34 327.935C182.34 327.935 193.107 322.884 199.259 329.691C195.084 358.674 192.667 388.316 182.34 390.072C172.014 391.829 155.095 364.383 145.867 350.989C136.639 337.376 144.329 307.515 159.71 316.737Z" fill="#EC827D"/>
<path d="M191.129 310.147L200.797 302.901L203.214 302.242L202.115 303.779L191.789 311.464L191.129 310.147Z" fill="#3C3C6D"/>
<path fill-rule="evenodd" clip-rule="evenodd" d="M184.537 329.691C184.537 328.813 180.802 319.591 182.34 316.297C183.878 313.004 185.636 310.808 185.636 310.808C187.174 305.539 191.568 306.197 195.084 309.491C198.599 313.004 203.433 321.348 197.061 328.374C190.689 334.083 184.537 329.691 184.537 329.691Z" fill="#FFC8AF"/>
<path fill-rule="evenodd" clip-rule="evenodd" d="M61.4959 338.691C61.4959 338.691 61.4959 338.911 61.4959 339.131C57.7607 338.691 53.3663 341.985 51.6086 346.596C48.5325 354.72 52.7072 442.767 60.1776 440.791C62.5944 443.206 115.107 472.409 115.107 472.409L118.183 371.188C118.183 371.407 81.0507 339.131 61.4959 338.691Z" fill="#46467C"/>
<path fill-rule="evenodd" clip-rule="evenodd" d="M115.107 472.409C107.637 474.385 103.242 386.338 106.538 378.214C109.834 370.09 121.039 366.137 123.017 379.531C124.994 392.925 135.101 467.578 115.107 472.409Z" fill="#56548C"/>
<path fill-rule="evenodd" clip-rule="evenodd" d="M422.491 519.396L405.793 517.859C405.793 517.859 395.027 520.933 388.875 521.812C382.503 522.69 378.109 521.592 376.571 524.007C376.351 524.446 376.131 524.886 376.131 525.544C375.911 528.838 378.768 531.912 380.306 533.229C383.601 535.644 387.117 536.962 397.004 536.303C399.641 535.205 404.035 534.547 405.793 537.181C408.43 538.279 418.097 539.816 422.491 537.181V534.986C425.128 532.131 422.491 519.396 422.491 519.396Z" fill="#56548C"/>
<path fill-rule="evenodd" clip-rule="evenodd" d="M429.742 366.137C435.235 394.461 415.46 425.42 417.218 448.475C419.415 479.873 420.514 493.486 423.81 519.176C423.81 519.176 411.066 526.641 401.618 518.078C391.951 468.017 387.776 459.014 389.094 367.454L429.742 366.137Z" fill="#D66565"/>
<path fill-rule="evenodd" clip-rule="evenodd" d="M352.182 235.494C346.469 242.081 351.303 269.088 359.213 275.675C367.123 282.263 373.714 279.847 380.525 274.138C387.337 268.21 391.292 253.719 389.753 242.96C387.556 227.81 368.221 216.831 352.182 235.494Z" fill="#FFC8AF"/>
<path fill-rule="evenodd" clip-rule="evenodd" d="M350.204 238.348C350.204 238.348 349.106 241.202 349.765 246.033C350.424 250.863 352.182 253.498 353.061 255.694C353.94 257.889 353.72 259.426 354.599 260.305C355.478 261.183 355.478 254.157 357.675 252.4C359.872 250.644 363.168 258.328 358.554 262.939C357.895 267.55 364.047 275.455 366.244 276.772C368.441 278.09 377.669 276.553 383.382 271.063C389.094 265.355 390.413 256.352 391.731 244.715C393.049 233.078 384.261 229.126 384.261 229.126C384.041 221.661 359.213 223.637 350.204 227.589C344.712 230.224 350.204 238.348 350.204 238.348Z" fill="#56548C"/>
<path fill-rule="evenodd" clip-rule="evenodd" d="M315.929 381.728C315.929 381.728 314.391 382.167 310.655 383.704C306.92 385.241 299.23 385.68 294.396 385.021C289.562 384.143 282.751 383.045 284.069 381.289C285.388 379.532 309.996 373.384 311.095 373.823C312.193 374.482 315.929 381.728 315.929 381.728Z" fill="#FFC8AF"/>
<path fill-rule="evenodd" clip-rule="evenodd" d="M390.633 534.545L373.934 533.008C373.934 533.008 363.168 536.082 357.016 536.96C350.644 537.838 346.25 536.74 344.712 539.156C344.492 539.595 344.272 540.034 344.272 540.693C344.053 543.986 346.909 547.06 348.447 548.378C351.743 550.793 355.258 552.11 365.145 551.452C367.782 550.354 372.176 549.695 373.934 552.33C376.571 553.428 386.238 554.965 390.633 552.33V550.134C393.049 547.28 390.633 534.545 390.633 534.545Z" fill="#56548C"/>
<path fill-rule="evenodd" clip-rule="evenodd" d="M417.218 373.164C418.976 402.147 395.246 433.765 393.928 457.039C391.95 489.096 391.95 511.712 391.95 537.841C391.95 537.841 370.638 547.941 369.759 532.351C366.683 481.192 363.167 467.798 376.57 374.481L417.218 373.164Z" fill="#EC827D"/>
<path fill-rule="evenodd" clip-rule="evenodd" d="M361.41 280.504C373.274 274.576 392.61 258.328 408.429 279.626C423.15 299.607 429.302 359.329 431.06 371.406C433.257 387.654 388.215 396.217 378.328 395.778C376.131 395.778 374.593 394.68 373.934 392.484C373.055 389.63 375.472 387.434 374.813 384.799C374.373 383.262 373.494 381.945 372.396 380.627C371.517 379.31 370.418 377.993 370.198 376.456C369.759 373.821 371.517 371.406 371.736 368.99C371.956 367.014 371.517 365.258 370.858 363.501C366.683 348.351 359.652 334.299 355.697 318.929C353.061 308.609 349.106 292.141 357.675 283.578C358.773 282.041 360.091 280.724 361.41 280.504Z" fill="#3C3C6D"/>
<path fill-rule="evenodd" clip-rule="evenodd" d="M354.159 288.408C344.711 318.489 343.832 333.639 334.385 345.496C333.725 346.374 308.019 374.04 308.019 374.04C308.019 374.04 311.534 380.188 320.542 381.944C334.824 375.796 351.303 353.181 355.477 348.35C357.894 345.496 372.176 319.587 374.373 306.193C376.351 293.019 358.114 276.551 354.159 288.408Z" fill="#3C3C6D"/>
<path fill-rule="evenodd" clip-rule="evenodd" d="M369.1 212.878L342.295 197.508L297.253 223.636L293.737 224.076V224.954C293.737 225.393 293.957 225.613 294.177 225.832L321.422 241.641C322.301 242.08 323.619 242.08 324.717 241.422L369.979 215.293C370.638 214.854 370.858 214.415 370.858 214.195V212.658L369.1 212.878Z" fill="#3C3C6D"/>
<path fill-rule="evenodd" clip-rule="evenodd" d="M369.759 213.976L324.498 240.105C323.619 240.764 322.081 240.764 321.202 240.325L293.518 224.296L342.075 196.191L369.759 212.22C370.858 212.439 370.858 213.318 369.759 213.976Z" fill="#56548C"/>
<path fill-rule="evenodd" clip-rule="evenodd" d="M369.759 213.976L324.498 240.105C323.619 240.764 322.081 240.764 321.202 240.325L293.518 224.296L342.075 196.191L369.759 212.22C370.858 212.439 370.858 213.318 369.759 213.976Z" fill="#56548C"/>
<path fill-rule="evenodd" clip-rule="evenodd" d="M367.342 213.536L323.399 238.787L310.216 231.321L354.159 205.852L367.342 213.536Z" fill="#3C3C6D"/>
<path fill-rule="evenodd" clip-rule="evenodd" d="M335.923 212.438L325.377 218.586C324.718 219.025 323.839 219.025 323.399 218.586L318.346 215.731C317.906 215.512 317.906 214.853 318.566 214.634L329.112 208.486C329.771 208.046 330.65 208.046 331.089 208.486L336.143 211.34C336.582 211.56 336.582 212.218 335.923 212.438Z" fill="#3C3C6D"/>
<path fill-rule="evenodd" clip-rule="evenodd" d="M257.044 160.841C269.129 166.77 270.227 202.12 279.455 211.123C284.729 216.173 305.602 212.22 312.633 212.22C315.489 218.588 311.534 226.053 311.534 226.053C271.765 228.029 266.931 229.127 256.824 209.805C249.134 194.655 241.005 156.67 257.044 160.841Z" fill="#FBD15B"/>
<path fill-rule="evenodd" clip-rule="evenodd" d="M337.241 202.119C326.695 196.849 324.278 192.677 319.005 188.067C309.777 179.942 306.041 147.666 298.351 143.714C293.298 142.616 290.661 145.031 289.563 149.203C289.343 150.081 289.123 150.959 289.123 152.057C288.684 157.327 290.002 164.353 292.199 171.16C293.957 176.869 296.594 182.138 299.011 186.09C300.988 189.164 302.965 192.019 305.163 194.654C310.436 201.021 317.247 206.071 332.188 211.78C332.408 211.341 339.878 207.828 337.241 202.119Z" fill="#FBD15B"/>
<path fill-rule="evenodd" clip-rule="evenodd" d="M332.847 210.243C333.067 210.902 335.264 213.098 337.022 215.293C338.78 217.489 341.856 221.002 342.734 220.124C343.613 219.246 341.856 215.733 341.856 215.733C341.856 215.733 347.348 221.002 348.227 222.539C349.106 224.296 348.667 219.246 347.348 217.05C350.864 222.32 351.743 223.637 351.963 222.32C352.182 221.002 349.326 213.756 349.765 214.415C353.72 220.563 355.258 221.222 354.819 218.587C354.379 215.733 350.425 211.122 348.008 209.804C355.039 214.415 355.478 213.756 353.72 211.78C351.963 209.804 345.591 204.754 336.802 203.656C331.529 208.487 332.847 210.243 332.847 210.243Z" fill="#FFC8AF"/>
<path fill-rule="evenodd" clip-rule="evenodd" d="M337.461 221.224C335.264 217.711 331.968 213.759 327.793 212.661C324.937 211.783 321.861 212.441 319.004 213.32C316.807 213.978 313.512 214.417 311.095 215.296C309.996 217.93 309.557 220.346 309.557 222.761C309.996 222.981 310.436 222.981 311.095 223.2C313.512 223.42 315.928 224.298 318.345 224.298C319.883 224.298 322.52 224.737 324.058 224.298C323.399 224.518 322.74 224.737 322.74 225.396C322.74 225.835 323.179 226.494 323.619 226.494C327.134 227.372 330.21 222.981 332.407 221.004C332.187 221.444 340.317 225.835 337.461 221.224Z" fill="#FFC8AF"/>
<path fill-rule="evenodd" clip-rule="evenodd" d="M299.889 108.147C299.889 108.147 299.889 108.366 300.109 108.366C301.647 110.782 301.867 113.855 301.647 116.71C301.207 121.98 297.912 128.347 300.329 133.178C301.427 135.373 303.624 136.91 304.284 139.106C305.162 142.18 302.965 145.473 300.109 147.23C296.593 149.426 292.199 150.304 288.464 148.986C284.509 147.669 281.433 144.156 280.993 140.204C280.334 135.373 283.41 130.762 286.267 126.59C287.805 124.175 290.002 121.101 290.222 118.247C290.441 115.612 288.903 113.197 289.562 110.342C290.002 108.366 291.1 106.171 293.078 105.512C295.275 104.414 298.351 105.951 299.889 108.147Z" fill="#606BF1"/>
<path fill-rule="evenodd" clip-rule="evenodd" d="M270.887 130.98C270.887 130.98 274.183 142.178 266.712 146.789C266.492 149.424 274.182 161.061 281.873 159.085C286.267 157.987 288.684 151.62 288.684 151.62C288.244 147.668 286.047 139.105 286.047 139.105L270.887 130.98Z" fill="#FFC8AF"/>
<path fill-rule="evenodd" clip-rule="evenodd" d="M297.033 108.366C297.033 108.366 299.01 115.392 298.351 120.881C297.692 126.371 297.033 137.129 292.199 140.642C287.365 144.156 280.334 139.984 275.72 136.251C271.106 132.299 266.272 125.053 266.053 116.49C266.053 107.707 269.348 97.1679 281.872 97.607C294.616 98.2657 297.033 108.366 297.033 108.366Z" fill="#FFC8AF"/>
<path fill-rule="evenodd" clip-rule="evenodd" d="M288.244 103.094C291.54 107.047 290.002 111.877 285.827 114.951C283.85 116.268 281.653 117.147 279.675 118.684C277.698 120.001 276.16 122.416 276.599 124.612C276.819 126.808 278.796 128.784 278.357 130.76C277.917 132.516 275.94 133.614 275.72 135.371C275.281 137.127 276.819 138.664 277.698 140.201C279.016 142.836 279.236 146.13 277.917 148.765C275.061 154.912 267.591 154.473 262.098 151.839C256.385 149.204 252.65 142.836 254.408 136.688C255.287 133.395 257.484 130.54 258.582 127.466C259.901 123.295 259.681 118.903 259.901 114.731C260.34 106.607 266.492 97.3855 275.061 96.0681C280.554 95.4094 284.729 98.9225 288.244 103.094Z" fill="#606BF1"/>
<path fill-rule="evenodd" clip-rule="evenodd" d="M292.419 98.2646C289.782 96.5081 279.895 93.4341 279.895 98.4842C279.895 103.534 287.365 108.584 291.32 111C293.078 111.878 294.836 112.756 296.374 114.074C298.351 115.611 298.571 118.685 300.329 120.002C303.185 117.367 302.306 110.78 301.208 107.487C299.889 103.095 296.154 100.68 292.419 98.2646Z" fill="#606BF1"/>
<path fill-rule="evenodd" clip-rule="evenodd" d="M369.759 213.978L324.498 240.107L340.537 206.513C340.976 205.415 342.075 204.098 342.954 203.658L385.359 179.067C386.238 178.628 386.458 179.067 385.799 180.165L369.759 213.978Z" fill="#56548C"/>
<path fill-rule="evenodd" clip-rule="evenodd" d="M146.307 311.467V308.832C146.307 308.832 139.716 304.66 132.904 304.441C126.093 304.221 122.797 305.978 122.578 306.636C122.358 307.515 122.138 309.71 122.138 309.71L146.307 311.467Z" fill="#DD6F6F"/>
<path fill-rule="evenodd" clip-rule="evenodd" d="M286.926 141.957C286.926 141.957 286.267 146.568 286.486 147.227C286.706 148.105 288.244 148.983 288.244 148.983H291.32L286.926 141.957Z" fill="#606BF1"/>
<path fill-rule="evenodd" clip-rule="evenodd" d="M306.92 171.16C306.701 165.012 305.602 161.06 304.503 158.645C304.503 159.303 304.503 160.182 304.723 160.84C304.943 168.964 303.624 180.601 302.306 190.043C303.405 191.58 304.284 192.897 305.382 194.215C306.261 186.091 307.14 177.527 306.92 171.16Z" fill="#EABD4E"/>
<path fill-rule="evenodd" clip-rule="evenodd" d="M199.259 208.488C199.259 217.71 196.183 232.86 193.766 244.058C194.644 245.595 195.743 246.913 196.622 248.011C198.819 237.252 201.016 224.517 200.797 216.832C200.797 213.538 200.137 210.684 199.259 208.488Z" fill="#3C3C6D"/>
<path fill-rule="evenodd" clip-rule="evenodd" d="M206.07 134.711L194.425 128.124V96.9453L206.07 103.532V134.711Z" fill="#EC827D"/>
<path fill-rule="evenodd" clip-rule="evenodd" d="M187.834 124.393L176.408 117.806V74.5508L187.834 81.3574V124.393Z" fill="#2B3BBD"/>
<path fill-rule="evenodd" clip-rule="evenodd" d="M224.087 145.253L212.662 138.666V75.2109L224.087 82.0176V145.253Z" fill="#FBD15B"/>
<path fill-rule="evenodd" clip-rule="evenodd" d="M378.548 110.777C378.548 108.582 377.01 106.386 374.154 104.849C368.441 101.556 359.213 101.556 353.5 104.849C350.644 106.606 349.326 108.582 349.326 110.777V123.952C349.326 126.147 350.864 128.343 353.72 129.88C359.433 133.173 368.661 133.173 374.374 129.88C377.23 128.123 378.548 126.147 378.548 123.952V110.777Z" fill="#3C3C6D"/>
<path fill-rule="evenodd" clip-rule="evenodd" d="M389.974 81.1372C391.951 78.0632 393.709 74.7697 394.807 71.2566C396.565 66.2065 397.664 60.9369 397.664 55.6672C397.883 45.3475 394.148 35.0278 384.7 28.6603C384.041 28.2211 383.162 27.782 382.283 27.3429C373.495 23.1711 355.698 20.9754 342.295 30.4168C334.824 33.4908 327.134 46.0062 329.771 60.0586C331.309 68.6218 334.605 76.9654 339.439 84.4307C344.053 91.6765 348.008 98.2635 349.326 106.827L349.546 107.266C349.326 109.242 350.644 111.438 353.72 112.975C359.213 115.829 368.222 115.829 373.714 112.975C376.79 111.438 378.109 109.242 377.669 107.266C378.988 100.02 382.064 94.0917 385.799 87.7242C387.337 85.5285 388.655 83.3329 389.974 81.1372Z" fill="#FBD15B"/>
<path d="M360.092 104.412L355.038 58.0833L358.334 63.1334C358.774 63.7921 359.433 63.7921 360.092 63.5726L364.267 61.1573L367.782 68.6226C368.002 69.2813 368.661 69.5009 369.32 69.2813L373.714 67.5248L367.343 108.365C367.343 109.023 367.782 109.682 368.441 109.902C369.1 109.902 369.759 109.462 369.979 108.804L376.571 65.7682C376.571 65.3291 376.571 64.89 376.131 64.6704C375.692 64.4508 375.252 64.2313 374.813 64.4508L369.54 66.427L365.805 58.9616C365.585 58.7421 365.365 58.3029 365.145 58.3029C364.706 58.3029 364.486 58.3029 364.047 58.3029L359.653 60.7182L354.16 51.9354C353.94 51.4963 353.281 51.2767 352.622 51.4963C351.962 51.7159 351.743 52.155 351.743 52.8137L357.236 104.632C357.236 105.291 357.895 105.73 358.554 105.73C359.653 105.73 360.312 105.071 360.092 104.412Z" fill="white"/>
<path fill-rule="evenodd" clip-rule="evenodd" d="M560.474 231.543C558.936 232.861 557.178 234.178 555.421 235.056C546.632 240.107 538.942 239.448 534.547 234.178L555.421 206.293L560.474 231.543Z" fill="#EC827D"/>
<path fill-rule="evenodd" clip-rule="evenodd" d="M580.248 192.021C580.248 205.854 571.679 222.322 560.254 231.544L555.201 206.513V177.749C569.043 169.845 580.248 176.212 580.248 192.021Z" fill="#FBD15B"/>
<path fill-rule="evenodd" clip-rule="evenodd" d="M555.42 177.75V206.513L534.547 234.179C531.911 231.105 530.373 226.494 530.373 220.785C530.373 204.977 541.578 185.654 555.42 177.75Z" fill="#3C3C6D"/>
<path fill-rule="evenodd" clip-rule="evenodd" d="M109.834 133.833C104.341 143.275 109.395 151.838 120.381 152.497C130.707 153.156 142.133 145.251 147.406 136.688C150.482 131.638 152.459 122.416 146.307 118.683C144.33 117.366 141.913 117.366 139.496 117.585C128.29 118.025 115.767 123.733 109.834 133.833Z" fill="#EDEEF7"/>
<path fill-rule="evenodd" clip-rule="evenodd" d="M412.385 94.0938C413.264 94.0938 414.142 94.0937 415.021 94.3133C421.393 96.2894 420.075 105.072 415.461 108.366C412.824 110.342 409.968 109.464 407.771 107.268C403.376 103.096 406.672 94.5329 412.385 94.0938Z" fill="#EDEEF7"/>
<path d="M323.179 570.555C323.179 570.555 305.822 558.04 304.284 538.937C303.185 524.446 314.83 518.956 325.816 535.863C325.816 535.863 309.777 509.954 324.498 500.952C335.483 494.145 341.196 513.687 341.196 513.687C341.196 513.687 330.21 481.191 346.25 480.312C357.675 479.654 356.137 497.219 356.137 497.219C356.137 497.219 366.464 471.09 378.548 478.336L323.179 570.555Z" fill="#878CF0"/>
<path d="M378.768 478.555C378.768 478.555 394.368 484.483 373.275 507.099C373.275 507.099 388.875 496.779 394.807 506.659C400.52 516.54 365.804 527.518 365.804 527.518C365.804 527.518 384.48 522.688 386.458 535.423C388.435 547.938 351.083 551.451 351.083 551.451C351.083 551.451 366.244 551.671 368.002 560.454C369.759 569.236 336.362 578.239 323.619 570.554L378.768 478.555Z" fill="#878CF0"/>
<path d="M344.492 562.211C341.855 562.431 339.219 562.211 336.582 561.991C334.605 561.772 332.627 561.552 330.65 561.113L343.833 538.278C346.469 538.717 349.326 539.156 352.182 539.156C355.258 539.376 358.334 539.156 361.41 538.937C364.486 538.717 367.562 538.058 370.418 537.4C373.275 536.741 376.351 535.863 379.207 534.545C376.351 535.643 373.494 536.302 370.418 536.961C367.342 537.619 364.486 538.058 361.41 538.058C358.334 538.278 355.258 538.278 352.402 538.058C349.765 537.839 347.348 537.4 344.712 536.961L355.038 519.176C357.895 518.956 360.971 518.736 363.827 518.078C365.365 517.858 366.903 517.419 368.221 516.98C369.759 516.541 371.078 516.102 372.616 515.662C375.472 514.565 378.328 513.467 380.965 512.149C383.601 510.832 386.238 509.295 388.875 507.538C386.238 509.295 383.601 510.612 380.965 511.93C378.109 513.247 375.472 514.345 372.396 515.223C370.858 515.662 369.54 516.102 368.002 516.321C366.463 516.541 365.145 516.98 363.607 517.199C360.971 517.639 358.334 517.858 355.917 517.858L375.692 483.605L354.599 517.199C353.5 515.004 352.402 512.588 351.523 510.173C350.424 507.319 349.545 504.684 348.886 501.83C348.227 498.975 347.568 496.121 347.128 493.266C346.689 490.412 346.25 487.338 346.03 484.484C346.03 487.338 346.25 490.412 346.689 493.266C347.128 496.121 347.568 499.195 348.227 502.049C348.886 504.904 349.765 507.758 350.644 510.612C351.523 513.247 352.621 515.882 353.94 518.517L342.954 536.082C341.196 534.326 339.438 532.35 338.12 530.374C336.582 527.958 335.044 525.323 333.726 522.689C332.407 520.054 331.309 517.199 330.43 514.345C329.551 511.491 328.672 508.636 328.233 505.782C328.672 508.636 329.331 511.71 330.21 514.565C331.089 517.419 331.968 520.273 333.066 522.908C334.165 525.543 335.703 528.397 337.241 530.813C338.779 533.008 340.317 535.204 342.295 537.18L328.452 559.357C326.914 557.6 325.596 555.843 324.278 553.867C322.52 551.452 320.982 549.037 319.664 546.402C318.126 543.767 316.807 541.352 315.709 538.717C314.391 536.082 313.292 533.447 312.413 530.593C313.292 533.447 314.391 536.082 315.489 538.937C316.588 541.572 317.906 544.206 319.224 546.841C320.543 549.476 322.081 551.891 323.619 554.526C324.937 556.722 326.475 558.698 328.013 560.674L311.754 586.583L315.269 588.559L330.65 561.991C332.847 562.431 335.044 562.65 337.241 562.65C339.878 562.65 342.514 562.65 345.151 562.431C347.788 562.211 350.424 561.772 353.061 561.333C355.697 560.894 358.334 560.235 360.751 559.576C358.114 560.235 355.478 560.674 353.061 560.894C349.765 561.772 347.128 561.991 344.492 562.211Z" fill="#56548C"/>
<path d="M183.439 573.19C183.439 573.19 168.499 578.899 155.755 571.872C146.087 566.603 147.625 556.942 162.786 557.161C162.786 557.161 139.935 556.503 140.375 543.548C140.594 533.887 155.315 538.278 155.315 538.278C155.315 538.278 130.268 531.691 136.42 521.372C140.814 513.906 151.141 522.25 151.141 522.25C151.141 522.25 138.837 504.904 148.504 500.293L183.439 573.19Z" fill="#878CF0"/>
<path d="M148.504 500.292C148.504 500.292 158.611 492.827 164.104 515.662C164.104 515.662 164.104 501.609 172.673 502.048C181.242 502.488 173.772 529.055 173.772 529.055C173.772 529.055 178.606 515.442 187.175 519.394C195.963 523.347 182.561 548.377 182.561 548.377C182.561 548.377 188.932 539.155 195.304 541.571C201.456 543.986 193.546 568.797 183.22 573.628L148.504 500.292Z" fill="#878CF0"/>
<path d="M186.955 556.283C185.856 558.04 184.758 559.577 183.659 561.114C182.78 562.211 181.682 563.529 180.583 564.627L171.794 546.842C173.113 545.305 174.651 543.768 175.749 542.011C177.068 540.255 178.386 538.278 179.265 536.083C180.363 534.107 181.242 531.911 182.121 529.715C183 527.52 183.659 525.324 183.879 523.128C183.439 525.324 182.561 527.52 181.901 529.715C181.023 531.911 180.144 533.887 178.825 535.863C177.727 537.839 176.409 539.815 175.09 541.572C173.992 543.109 172.673 544.646 171.355 545.963L164.544 532.13C165.642 530.154 166.741 528.178 167.4 526.202C167.84 525.104 168.279 524.006 168.499 522.909C168.718 521.811 169.158 520.713 169.378 519.615C170.037 517.419 170.476 515.224 170.696 512.808C170.916 510.613 171.135 508.198 171.135 506.002C171.135 508.198 170.916 510.613 170.476 512.808C170.037 515.004 169.597 517.2 168.938 519.395C168.718 520.493 168.279 521.591 167.84 522.689C167.4 523.787 166.961 524.885 166.521 525.763C165.642 527.52 164.764 529.276 163.665 531.033L150.482 504.465L163.006 531.472C161.028 531.252 159.271 531.033 157.293 530.594C155.096 530.154 152.899 529.496 150.921 528.837C148.724 528.178 146.747 527.3 144.769 526.422C142.792 525.543 140.814 524.446 138.837 523.348C140.814 524.446 142.572 525.543 144.769 526.641C146.747 527.52 148.724 528.617 150.921 529.276C152.899 530.154 155.096 530.813 157.293 531.252C159.271 531.911 161.468 532.13 163.665 532.35L170.256 546.402C168.499 546.842 166.521 547.061 164.544 547.061C162.347 547.061 160.149 546.842 157.952 546.622C155.755 546.183 153.558 545.744 151.361 545.305C149.164 544.646 147.186 543.987 144.989 543.109C146.966 543.987 149.164 544.865 151.141 545.524C153.338 546.183 155.535 546.842 157.733 547.061C159.93 547.5 162.127 547.72 164.324 547.72C166.302 547.72 168.279 547.5 170.476 547.061L178.606 565.066C176.848 565.285 175.09 565.505 173.333 565.505C171.135 565.505 168.938 565.505 166.741 565.285C164.544 565.066 162.347 564.846 160.149 564.627C157.952 564.407 155.755 563.968 153.778 563.309C155.975 563.968 157.952 564.407 160.149 564.846C162.347 565.285 164.544 565.505 166.741 565.724C168.938 565.944 171.135 566.164 173.333 566.164C175.31 566.164 177.068 566.164 179.045 565.944L188.713 586.803L191.349 585.486L181.023 564.846C182.121 563.529 183.22 562.431 184.099 560.894C185.197 559.357 186.296 557.6 187.175 555.844C188.054 554.087 188.932 552.331 189.811 550.574C190.69 548.818 191.349 546.842 192.008 545.085C191.349 547.061 190.47 548.818 189.592 550.574C188.932 552.99 187.834 554.746 186.955 556.283Z" fill="#56548C"/>
<path d="M583.105 433.325C583.105 433.325 567.066 431.789 558.717 419.932C552.345 410.93 558.057 403.025 571.46 409.612C571.46 409.612 551.246 399.073 557.178 387.436C561.573 378.872 572.778 389.412 572.778 389.412C572.778 389.412 553.224 372.725 563.111 365.918C570.142 361.087 576.074 373.164 576.074 373.164C576.074 373.164 572.778 352.305 583.325 352.305L583.105 433.325Z" fill="#878CF0"/>
<path d="M583.764 352.303C583.764 352.303 596.068 350.108 591.235 372.943C591.235 372.943 597.387 360.427 604.857 364.379C612.327 368.551 594.091 388.971 594.091 388.971C594.091 388.971 604.418 378.651 610.57 386.117C616.722 393.582 593.651 410.05 593.651 410.05C593.651 410.05 603.539 404.561 607.933 409.391C612.547 414.441 594.311 433.104 583.105 432.885L583.764 352.303Z" fill="#878CF0"/>
<path d="M593.651 419.709C591.894 420.807 590.356 421.685 588.598 422.563C587.28 423.222 585.742 423.881 584.423 424.32L584.204 404.559C586.181 403.9 588.158 403.022 589.916 401.924C591.894 400.826 593.871 399.509 595.629 398.191C597.387 396.874 599.144 395.337 600.902 393.8C602.44 392.263 604.198 390.506 605.516 388.75C604.198 390.506 602.44 392.263 600.682 393.58C598.925 395.117 597.167 396.435 595.409 397.752C593.432 399.07 591.674 400.167 589.477 401.265C587.719 402.144 585.961 402.802 584.204 403.461L583.984 388.091C585.742 386.774 587.499 385.456 589.257 384.139C590.136 383.48 591.015 382.602 591.674 381.724C592.553 380.845 593.212 379.967 593.871 379.089C595.409 377.332 596.727 375.576 598.046 373.6C599.364 371.624 600.463 369.647 601.342 367.671C600.243 369.647 599.144 371.624 597.826 373.6C596.508 375.576 595.189 377.332 593.651 378.869C592.992 379.748 592.113 380.406 591.235 381.285C590.356 381.943 589.477 382.821 588.598 383.48C587.06 384.798 585.522 385.895 583.764 386.993L583.544 357.352L582.885 387.213C581.347 386.115 579.59 385.237 578.271 383.919C576.513 382.602 574.975 381.065 573.437 379.528C571.899 377.991 570.361 376.234 569.043 374.697C567.725 372.941 566.187 371.184 565.088 369.428C566.187 371.404 567.505 373.16 568.823 374.917C570.142 376.674 571.68 378.43 573.218 379.967C574.756 381.504 576.294 383.041 578.052 384.578C579.59 385.895 581.347 387.213 583.105 388.311L582.666 403.9C580.908 403.461 578.93 402.802 577.392 402.144C575.415 401.265 573.437 400.167 571.68 398.85C569.922 397.533 568.164 396.215 566.406 394.678C564.649 393.141 563.111 391.604 561.573 390.067C562.891 391.824 564.429 393.361 566.187 394.898C567.725 396.435 569.483 397.972 571.24 399.289C572.998 400.607 574.975 401.704 576.953 402.802C578.711 403.681 580.688 404.339 582.666 404.998L582.226 424.759C580.688 424.1 578.93 423.661 577.392 422.783C575.415 421.905 573.437 420.807 571.46 419.709C569.483 418.611 567.725 417.513 565.967 416.196C564.209 414.878 562.452 413.561 560.694 412.244C562.232 413.781 563.99 415.098 565.747 416.415C567.505 417.733 569.263 419.05 571.24 420.148C572.998 421.246 574.975 422.344 576.953 423.442C578.711 424.32 580.249 424.979 582.006 425.637L581.567 448.692H584.643L584.423 425.637C585.961 424.979 587.499 424.32 589.037 423.442C590.795 422.563 592.553 421.466 594.091 420.148C595.629 419.05 597.387 417.733 598.705 416.415C600.243 415.098 601.781 413.781 603.099 412.244C601.781 413.561 600.243 414.878 598.705 416.196C596.947 417.294 595.189 418.611 593.651 419.709Z" fill="#56548C"/>
<path d="M572.558 463.188C572.558 463.188 561.792 470.433 550.367 467.14C541.798 464.725 541.139 456.82 553.223 454.185C553.223 454.185 534.987 457.918 532.79 447.379C531.252 439.694 543.556 440.572 543.556 440.572C543.556 440.572 522.463 439.913 525.539 430.691C527.516 424.104 537.404 428.715 537.404 428.715C537.404 428.715 524.66 417.298 531.471 411.809L572.558 463.188Z" fill="#878CF0"/>
<path d="M531.471 411.588C531.471 411.588 538.063 403.903 546.632 420.81C546.632 420.81 544.215 409.612 551.026 408.294C557.837 406.977 556.739 429.373 556.739 429.373C556.739 429.373 558.057 417.736 565.747 419.273C573.437 420.81 567.285 442.986 567.285 442.986C567.285 442.986 570.581 434.423 576.074 435.301C581.567 436.179 579.589 457.258 572.339 462.967L531.471 411.588Z" fill="#878CF0"/>
<path d="M572.338 449.134C571.899 450.671 571.24 452.208 570.581 453.525C570.141 454.623 569.482 455.721 568.823 456.819L558.496 444.303C559.375 442.766 560.034 441.229 560.693 439.692C561.353 437.936 562.012 436.179 562.451 434.423C562.891 432.666 563.33 430.69 563.55 428.933C563.77 427.177 563.989 425.201 563.77 423.444C563.77 425.201 563.55 427.177 563.33 428.933C563.11 430.69 562.671 432.666 562.012 434.423C561.572 436.179 560.913 437.936 560.034 439.692C559.375 441.229 558.716 442.547 557.837 443.864L549.927 434.203C550.367 432.446 551.026 430.69 551.246 428.933C551.465 428.055 551.465 427.177 551.685 426.079C551.685 425.201 551.905 424.322 551.905 423.225C551.905 421.468 551.905 419.492 551.685 417.735C551.465 415.979 551.246 414.003 550.806 412.246C551.246 414.003 551.465 415.979 551.465 417.735C551.685 419.492 551.685 421.468 551.465 423.225C551.465 424.103 551.246 424.981 551.246 426.079C551.026 426.957 551.026 427.835 550.806 428.714C550.586 430.251 550.147 431.788 549.488 433.325L534.108 414.661L548.829 433.983C547.291 434.203 545.753 434.423 544.215 434.423C542.457 434.423 540.699 434.423 538.722 434.203C536.964 433.983 535.206 433.764 533.448 433.325C531.691 432.886 529.933 432.446 528.175 432.007C529.933 432.666 531.691 433.105 533.448 433.544C535.206 433.983 536.964 434.203 538.722 434.642C540.479 434.862 542.237 435.081 544.215 435.081C545.972 435.081 547.73 435.081 549.488 434.862L557.178 444.962C555.86 445.621 554.322 446.06 552.784 446.499C551.026 446.938 549.268 447.158 547.51 447.377C545.753 447.597 543.995 447.597 542.018 447.377C540.26 447.377 538.502 447.157 536.525 446.938C538.282 447.377 540.04 447.597 542.018 447.597C543.775 447.816 545.753 447.816 547.51 447.816C549.268 447.816 551.246 447.597 553.003 447.158C554.541 446.718 556.079 446.279 557.617 445.621L567.505 458.356C566.186 458.795 564.868 459.234 563.55 459.673C561.792 460.112 560.034 460.551 558.277 460.771C556.519 460.99 554.761 461.21 553.003 461.429C551.246 461.649 549.488 461.649 547.73 461.649C549.488 461.649 551.246 461.649 553.003 461.649C554.761 461.649 556.519 461.429 558.277 461.21C560.034 460.99 561.792 460.771 563.55 460.332C565.088 460.112 566.406 459.673 567.944 459.014L579.369 473.945L581.347 472.408L569.482 457.916C570.141 456.819 570.8 455.501 571.24 454.184C571.899 452.647 572.339 451.11 572.778 449.573C573.217 448.036 573.657 446.499 573.877 444.742C574.096 443.205 574.316 441.449 574.536 439.912C574.316 441.449 574.096 443.205 573.657 444.742C573.217 446.06 572.778 447.597 572.338 449.134Z" fill="#56548C"/>
<path d="M239.027 467.359C240.785 471.312 245.839 473.946 252.87 476.142C254.188 481.412 256.385 486.462 256.824 491.732C257.264 489.975 257.484 487.999 257.484 486.242C257.484 483.168 257.044 480.094 256.605 477.24C259.681 478.118 262.977 478.777 266.492 479.655C268.689 485.364 269.348 491.732 269.129 497.879C269.129 502.49 268.469 506.882 267.81 511.273C268.909 509.517 270.007 507.54 270.886 505.784C271.765 503.808 272.644 501.832 273.303 499.856C273.743 497.879 273.962 495.684 273.962 493.708C273.962 489.536 273.523 485.144 272.864 480.973C276.599 481.851 280.554 482.729 284.509 483.607C284.729 484.705 284.948 485.584 285.168 486.681C286.926 497.001 285.827 507.54 282.312 517.201C282.751 516.762 282.971 516.323 283.191 515.884C284.948 513.469 286.486 511.054 288.024 508.419C288.903 506.662 289.782 504.906 290.221 502.929C291.759 497.221 290.661 491.292 290.002 485.144C294.396 486.462 298.571 487.999 302.306 489.755C302.306 493.488 302.086 497.221 301.866 500.953C301.647 502.71 301.647 504.247 301.207 506.003C300.768 508.199 299.889 510.175 299.23 512.151C296.154 520.275 292.419 528.399 287.145 535.206C288.464 534.328 289.562 533.01 290.881 531.913C301.207 521.593 307.14 507.321 308.238 492.61C311.534 494.586 314.61 497.001 317.027 499.856C318.565 501.612 319.883 503.369 321.202 505.125C321.202 509.297 320.762 513.688 320.103 517.86C319.444 521.154 318.785 524.447 317.247 527.302C316.368 529.058 315.05 530.595 313.951 532.132C307.799 539.817 300.109 546.185 292.199 552.113C304.503 548.161 315.928 540.256 322.959 529.497C324.937 526.423 326.695 523.13 328.452 520.056C332.187 532.791 330.21 545.965 320.323 556.065C304.943 571.874 283.191 566.165 283.191 566.165L239.027 467.359Z" fill="#B1B2F3"/>
<path d="M282.751 566.383C282.751 566.383 268.47 589.438 244.96 588.779C232.875 588.56 222.768 579.777 216.397 569.238C218.814 570.336 221.23 571.214 223.647 571.873C231.118 574.068 239.027 573.41 246.498 571.214C251.771 569.677 256.825 567.481 261.658 564.846C256.385 565.505 250.892 565.725 245.399 565.725C242.543 565.725 239.687 565.944 236.83 565.286C234.194 564.846 231.777 563.749 229.36 562.87C226.504 561.772 223.647 560.675 221.011 559.138C215.957 556.283 211.783 552.331 208.267 547.72C207.828 545.085 207.828 542.67 208.267 540.474C208.707 537.4 209.366 534.546 210.025 531.472C211.783 533.009 213.321 534.766 215.078 536.303C216.836 538.059 218.814 539.816 220.791 541.353C222.988 542.89 225.185 544.207 227.602 545.085C235.073 548.379 243.202 549.916 251.332 549.696C247.596 548.818 243.861 547.501 240.346 545.964C237.27 544.646 234.413 542.89 231.337 541.133C228.701 539.596 226.064 538.059 223.428 536.303C219.033 533.229 215.298 529.715 211.783 525.763C213.101 522.031 214.639 518.517 216.177 515.004C218.374 518.078 220.791 520.713 223.428 523.128C228.481 527.739 234.633 531.033 241.444 531.472C242.543 531.692 243.642 531.692 244.96 531.692C238.808 529.276 233.095 525.983 227.822 521.811C226.284 520.713 224.966 519.396 223.867 517.859C221.67 515.443 220.132 512.589 218.814 509.515C220.571 506.222 222.329 502.928 224.306 499.854C226.943 504.465 230.459 508.417 234.633 511.491C237.929 513.907 241.444 515.663 245.399 516.761C242.323 514.785 239.687 512.15 237.489 509.296C233.535 504.245 230.898 498.317 228.92 492.389C230.239 490.193 231.557 487.997 232.875 485.802C235.073 489.754 238.149 493.047 241.444 495.902C238.368 491.73 236.171 487.339 234.633 482.289C238.368 475.482 240.346 470.212 238.808 466.699L282.751 566.383Z" fill="#B1B2F3"/>
<path d="M305.163 553.428C303.185 554.525 301.208 555.404 299.23 556.282C297.253 556.941 295.056 557.819 292.858 558.258C288.904 559.136 284.729 559.576 280.554 559.356L276.38 550.354C280.994 548.597 285.388 546.401 289.343 543.767C290.442 543.108 291.54 542.23 292.639 541.571C293.737 540.693 294.616 540.034 295.715 539.156C297.692 537.399 299.45 535.643 301.208 533.666C304.723 529.714 307.36 525.323 309.557 520.712C311.754 515.881 313.292 511.051 313.732 505.781C313.072 510.831 311.534 515.881 309.337 520.492C307.14 525.103 304.284 529.495 300.768 533.227C299.011 535.203 297.253 536.96 295.275 538.497C294.396 539.375 293.298 540.034 292.199 540.912C291.101 541.571 290.002 542.449 288.904 543.108C284.729 545.743 280.335 547.719 275.94 549.475L270.887 538.277L275.501 534.764C277.039 533.447 278.797 531.91 280.335 530.593L282.532 528.397C282.971 527.958 283.411 527.738 283.63 527.299L284.729 525.982C285.388 525.103 286.047 524.445 286.926 523.566L288.904 520.932C291.32 517.418 293.298 513.466 294.616 509.514C295.935 505.342 296.813 501.17 296.154 496.779C296.374 501.17 295.495 505.342 294.177 509.294C292.639 513.247 290.661 516.979 288.244 520.492L286.267 523.127C285.608 524.005 284.949 524.664 284.07 525.542L282.971 526.64C282.532 527.079 282.092 527.299 281.873 527.738L279.456 529.934C277.918 531.251 276.16 532.569 274.402 533.886L269.788 536.96L265.833 528.397C266.932 527.079 268.03 525.762 269.129 524.445L270.667 522.249C270.887 521.81 271.326 521.59 271.546 521.151L272.205 520.053L273.743 517.638L275.061 515.223C275.281 514.784 275.501 514.344 275.721 513.905L276.16 512.588C276.38 511.71 276.819 510.831 277.039 509.953C278.357 506.44 279.016 502.927 279.236 499.194C279.456 495.462 279.456 491.948 278.577 488.435C279.236 491.948 279.236 495.681 278.797 499.194C278.357 502.707 277.478 506.22 276.16 509.734C275.94 510.612 275.501 511.49 275.061 512.149L274.622 513.466C274.402 513.905 274.182 514.344 273.963 514.564L272.644 516.979L271.106 519.175L270.447 520.273C270.228 520.712 270.008 520.932 269.568 521.371L267.811 523.566C266.932 524.664 265.833 525.762 264.735 526.86L258.583 513.466H258.802C259.681 511.051 260.34 508.636 260.78 506.22C261.219 503.805 261.659 501.39 261.659 498.755C262.098 493.925 262.098 488.874 261.659 484.044C261.878 488.874 261.659 493.925 260.999 498.755C260.78 501.17 260.34 503.586 259.681 506.001C259.242 507.977 258.583 509.953 257.923 511.71L244.74 482.727L257.484 512.368C255.067 512.149 252.65 511.49 250.233 510.612C247.597 509.514 245.18 508.197 242.983 506.44C240.785 504.683 238.808 502.707 236.831 500.731C235.073 498.535 233.315 496.34 231.777 493.925C233.095 496.34 234.853 498.755 236.611 500.951C238.369 503.146 240.346 505.123 242.543 507.099C244.74 508.855 247.157 510.392 249.794 511.71C252.43 513.027 255.287 513.686 258.143 513.905L263.856 527.299C262.318 527.519 260.56 527.519 259.022 527.519C257.045 527.519 255.287 527.299 253.309 526.86C249.574 526.201 245.839 524.884 242.543 523.347C239.028 521.81 235.732 519.834 232.436 517.858C229.36 515.662 226.284 513.466 223.428 510.831C226.064 513.466 229.14 515.881 232.216 518.297C235.293 520.492 238.588 522.469 242.104 524.225C245.619 525.982 249.354 527.299 253.09 527.958C255.067 528.397 257.045 528.616 258.802 528.836C260.56 528.836 262.318 528.836 264.295 528.616L268.03 537.399C263.856 538.936 259.461 540.034 255.067 540.034C250.453 540.254 245.619 539.595 241.005 538.277C236.391 536.96 231.997 535.203 227.822 533.008C223.648 530.812 219.693 528.177 215.957 525.103C219.473 528.177 223.428 531.032 227.602 533.447C231.777 535.862 236.171 537.838 240.785 539.156C245.4 540.473 250.233 541.351 255.067 541.351C259.681 541.351 264.295 540.473 268.47 538.936L273.304 550.354C268.909 552.769 264.076 554.965 259.022 556.282C256.385 556.941 253.749 557.38 251.112 557.599C248.476 557.819 245.619 557.819 242.983 557.599C237.49 557.16 232.216 555.843 227.163 553.867C224.746 552.769 222.109 551.671 219.912 550.134C217.495 548.817 215.298 547.06 213.321 545.304C215.298 547.06 217.495 548.817 219.912 550.354C222.329 551.891 224.746 553.208 227.163 554.306C232.216 556.502 237.49 558.039 242.983 558.478C245.619 558.697 248.476 558.697 251.332 558.478C254.188 558.258 256.825 557.819 259.461 557.16C264.515 555.843 269.349 554.086 273.963 551.671L277.918 560.673C275.061 564.406 271.766 567.7 268.03 570.554C267.152 571.432 266.053 572.091 264.954 572.75C263.856 573.408 262.977 574.067 261.878 574.726C259.681 576.043 257.484 576.922 255.067 577.8C250.453 579.556 245.4 580.215 240.566 580.435C235.512 580.435 230.678 579.776 225.845 578.239C230.459 579.995 235.512 580.654 240.566 580.874C245.619 580.874 250.673 580.215 255.287 578.678C257.704 577.8 259.901 576.922 262.318 575.824C263.416 575.385 264.515 574.506 265.614 574.067C266.712 573.408 267.811 572.75 268.69 571.871C272.425 569.237 275.721 566.163 278.577 562.65L289.782 588.998L292.419 587.9L280.554 561.991C284.509 561.991 288.464 561.552 292.419 560.454C294.616 559.795 296.813 559.136 298.791 558.258C300.768 557.38 302.965 556.502 304.723 555.184C308.678 552.989 312.194 550.134 315.27 547.06C318.565 543.986 321.422 540.693 323.839 536.74C321.422 540.473 318.346 543.767 315.05 546.621C312.633 548.597 308.898 551.232 305.163 553.428Z" fill="#56548C"/>
<path d="M519.607 443.424C520.266 445.619 519.826 448.254 519.826 450.669C519.826 453.304 519.607 455.719 520.705 458.135C521.584 460.33 525.319 459.672 525.759 457.476C526.418 454.622 525.319 451.987 524.221 449.571C523.781 448.474 523.122 447.376 522.463 446.497C521.804 445.4 520.925 444.521 520.266 443.424C520.046 442.765 519.387 442.984 519.607 443.424Z" fill="#B1B2F3"/>
<path d="M505.545 454.84C507.742 456.157 508.401 458.792 509.5 460.988C510.598 463.184 512.136 466.477 514.993 466.916C517.19 467.136 518.728 465.16 517.629 463.184C516.97 461.866 515.871 461.208 514.773 460.329C513.894 459.451 513.015 458.573 511.916 457.475C511.038 456.597 509.939 455.938 508.84 455.279C507.962 454.62 506.863 454.181 505.764 453.742C505.325 453.742 505.105 454.62 505.545 454.84Z" fill="#B1B2F3"/>
<path d="M539.601 445.18C538.502 445.4 537.843 445.839 536.964 446.717C536.085 447.596 535.426 448.693 534.767 449.572C534.108 450.45 533.229 451.548 532.35 452.646C531.471 453.963 529.713 455.28 529.494 456.817C529.054 458.794 530.592 460.989 532.789 460.331C535.646 459.452 537.843 455.5 538.502 452.646C538.722 451.548 538.722 450.45 538.941 449.352C539.161 448.474 539.161 446.717 540.04 446.059C540.479 445.619 540.04 444.961 539.601 445.18Z" fill="#B1B2F3"/>
<path d="M499.612 473.945C500.491 474.604 501.809 474.823 502.688 475.043C504.007 475.482 505.325 475.921 506.643 476.141C509.719 476.58 513.235 475.702 515.871 474.384C517.629 473.506 517.409 470.212 515.212 469.773C512.136 469.334 509.5 471.091 506.424 471.31C505.105 471.31 503.787 471.53 502.469 471.749C501.37 471.969 499.832 472.189 499.173 473.286C499.393 473.286 499.393 473.726 499.612 473.945Z" fill="#B1B2F3"/>
<path d="M545.973 468.454C544.874 468.454 543.556 467.576 542.457 467.137C541.139 466.478 540.04 465.819 538.722 465.38C537.184 464.721 536.305 464.282 534.767 463.624C533.009 462.965 530.812 463.184 530.373 465.38C529.714 469.113 535.426 470.43 538.063 470.43C539.601 470.43 540.919 470.211 542.457 469.991C543.556 469.772 544.654 469.332 545.753 468.893C546.192 468.674 546.192 468.454 545.973 468.454Z" fill="#B1B2F3"/>
<path d="M538.941 481.189C538.502 479.652 537.184 478.115 536.305 476.578C535.426 474.822 534.547 472.626 533.229 471.309C531.471 469.552 527.956 471.309 528.835 473.943C529.713 476.359 531.691 477.896 533.668 479.213C534.987 480.311 536.964 481.628 538.941 481.628C538.941 481.628 538.941 481.409 538.941 481.189Z" fill="#B1B2F3"/>
<path d="M514.773 486.899C515.212 486.241 515.871 485.802 516.53 485.143C517.409 484.265 518.068 483.386 518.947 482.508C520.485 480.752 523.122 478.336 522.683 475.921C522.243 474.384 520.266 473.506 518.947 474.384C517.849 475.043 517.19 476.36 516.53 477.458C515.871 478.556 515.212 479.654 514.553 480.752C513.674 482.508 512.576 484.704 513.674 486.68C514.114 487.119 514.553 487.119 514.773 486.899Z" fill="#B1B2F3"/>
<path d="M542.896 468.674C539.381 468.674 536.305 466.917 533.009 466.039C530.592 465.38 527.736 465.6 525.319 466.259C525.539 465.6 525.978 465.161 526.417 464.722C527.955 463.185 529.274 461.428 530.372 459.672C531.691 457.695 533.009 455.719 534.327 453.743C534.986 452.645 535.646 451.767 536.085 450.669C536.524 449.791 536.744 448.693 537.623 448.034C537.623 448.034 537.623 447.815 537.403 447.815C536.744 448.254 536.524 449.132 536.085 449.791C535.426 451.108 534.767 452.206 533.888 453.304C532.35 455.5 530.812 457.915 529.274 460.111C528.615 461.209 527.736 462.087 526.857 463.185C526.198 464.063 525.319 464.722 524.66 465.6C524.66 465.819 524.44 465.82 524.44 466.039C524.44 465.6 524.44 465.161 524.22 464.722C524.001 462.965 523.561 460.989 523.341 459.232C523.122 457.476 522.902 455.5 522.463 453.743C522.023 451.548 521.144 449.352 520.485 447.156C520.485 446.937 520.265 447.156 520.265 447.156C520.925 449.132 521.584 451.108 522.023 453.085C522.463 455.061 522.463 456.817 522.682 458.793C522.902 460.55 523.341 462.526 523.561 464.283C523.781 465.161 523.781 466.259 523.781 467.137C520.925 466.259 517.849 466.259 515.432 464.502C512.795 462.965 510.818 460.33 509.28 457.695C509.06 457.695 509.28 457.695 509.28 457.695C510.818 460.33 512.575 462.746 514.992 464.502C517.409 466.259 520.485 466.917 523.341 467.576C520.705 469.333 517.629 470.211 514.553 471.089C511.257 471.967 507.742 473.065 504.446 473.504C504.226 473.504 504.446 473.724 504.446 473.724C507.961 473.285 511.477 472.187 514.992 471.309C518.068 470.65 520.925 469.772 523.561 468.235C523.341 468.893 523.341 469.552 523.122 470.211C522.463 471.748 521.584 473.065 520.925 474.383C519.167 477.237 517.409 480.091 515.651 483.165C517.409 480.311 519.606 477.676 521.144 474.822C522.023 473.504 522.682 472.187 523.341 470.87C523.561 470.43 523.781 469.772 524.001 469.333C524.001 469.772 524.001 469.991 524.001 470.43C524.22 473.065 524.879 475.7 525.319 478.335C525.978 482.507 526.417 486.679 526.857 490.631C527.516 494.803 527.736 499.194 527.955 503.585C528.175 507.757 528.175 511.929 529.274 515.881C529.713 517.638 532.35 516.979 531.91 515.222C531.032 511.051 530.592 507.098 530.372 502.927C529.933 498.755 529.274 495.022 528.615 490.85C527.955 486.898 527.296 482.946 526.417 478.994C525.758 475.92 524.879 472.846 524.66 469.772L524.879 469.552C524.879 469.333 524.879 469.333 524.879 469.113C526.417 471.089 529.054 472.187 530.592 473.944C531.691 475.041 532.57 475.92 533.448 477.237C534.327 478.335 534.986 479.213 536.085 480.091C536.305 480.091 536.305 479.872 536.305 479.872C534.986 478.994 534.108 477.676 533.229 476.578C532.57 475.7 531.691 474.822 530.812 473.944C528.834 471.967 526.417 470.65 524.879 468.235C524.879 468.015 524.879 468.015 524.879 467.796V467.576C527.736 466.478 531.032 466.478 533.888 467.356C537.184 467.576 539.82 468.893 542.896 468.674C543.116 468.674 543.116 468.674 542.896 468.674Z" fill="#56548C"/>
<path d="M65.8477 234.033C65.8477 232.283 62.5659 230.751 57.7526 230.095C57.315 225.282 55.7835 222 54.0332 222C52.283 222 50.7515 225.282 50.0951 230.095C45.2818 230.533 42 232.064 42 233.814C42 235.565 45.2818 237.096 50.0951 237.753C50.5327 242.566 52.0642 245.848 53.8145 245.848C55.5648 245.848 57.0963 242.566 57.7526 237.753C62.3471 237.096 65.8477 235.784 65.8477 234.033Z" fill="#FFE48F"/>
<path d="M646.848 267.033C646.848 265.283 643.566 263.751 638.753 263.095C638.315 258.282 636.784 255 635.033 255C633.283 255 631.751 258.282 631.095 263.095C626.282 263.533 623 265.064 623 266.814C623 268.565 626.282 270.096 631.095 270.753C631.533 275.566 633.064 278.848 634.814 278.848C636.565 278.848 638.096 275.566 638.753 270.753C643.347 270.096 646.848 268.784 646.848 267.033Z" fill="#FFE48F"/>
<path d="M305.848 12.0332C305.848 10.283 302.566 8.75145 297.753 8.09509C297.315 3.28179 295.784 0 294.033 0C292.283 0 290.751 3.28179 290.095 8.09509C285.282 8.53266 282 10.0642 282 11.8144C282 13.5647 285.282 15.0963 290.095 15.7526C290.533 20.5659 292.064 23.8477 293.814 23.8477C295.565 23.8477 297.096 20.5659 297.753 15.7526C302.347 15.0963 305.848 13.7835 305.848 12.0332Z" fill="#405CE1" fill-opacity="0.5"/>
<path d="M457.848 558.033C457.848 556.283 454.566 554.751 449.753 554.095C449.315 549.282 447.784 546 446.033 546C444.283 546 442.751 549.282 442.095 554.095C437.282 554.533 434 556.064 434 557.814C434 559.565 437.282 561.096 442.095 561.753C442.533 566.566 444.064 569.848 445.814 569.848C447.565 569.848 449.096 566.566 449.753 561.753C454.347 561.096 457.848 559.784 457.848 558.033Z" fill="#405CE1" fill-opacity="0.5"/>
<rect x="105" y="552.109" width="7.22486" height="7.22486" transform="rotate(-45 105 552.109)" fill="#E02287" fill-opacity="0.6"/>
<rect x="418" y="16.1094" width="7.22486" height="7.22486" transform="rotate(-45 418 16.1094)" fill="#E02287" fill-opacity="0.6"/>
<circle cx="630" cy="424" r="16" stroke="#E02287" stroke-opacity="0.6" stroke-width="4"/>
<circle cx="18" cy="297" r="16" stroke="#405CE1" stroke-opacity="0.3" stroke-width="4"/>
</svg>
