<svg width="60" height="60" viewBox="0 0 60 60" fill="none" xmlns="http://www.w3.org/2000/svg">
<path fill-rule="evenodd" clip-rule="evenodd" d="M12.5 32.5H42.1625L33.08 43.4C32.195 44.46 32.34 46.0375 33.4 46.92C34.4625 47.805 36.0375 47.66 36.9225 46.6L49.4225 31.6C49.52 31.4825 49.5675 31.345 49.64 31.215C49.7 31.11 49.7725 31.02 49.8175 30.905C49.93 30.6175 49.9975 30.315 49.9975 30.01C49.9975 30.0075 50 30.0025 50 30C50 29.9975 49.9975 29.9925 49.9975 29.99C49.9975 29.685 49.93 29.3825 49.8175 29.095C49.7725 28.98 49.7 28.89 49.64 28.785C49.5675 28.655 49.52 28.5175 49.4225 28.4L36.9225 13.4C36.425 12.8075 35.715 12.5 35 12.5C34.435 12.5 33.8675 12.69 33.4 13.08C32.34 13.9625 32.195 15.54 33.08 16.6L42.1625 27.5H12.5C11.12 27.5 10 28.62 10 30C10 31.38 11.12 32.5 12.5 32.5Z" fill="#231F20"/>
<mask id="mask0_1528_0" style="mask-type:luminance" maskUnits="userSpaceOnUse" x="10" y="12" width="40" height="36">
<path fill-rule="evenodd" clip-rule="evenodd" d="M12.5 32.5H42.1625L33.08 43.4C32.195 44.46 32.34 46.0375 33.4 46.92C34.4625 47.805 36.0375 47.66 36.9225 46.6L49.4225 31.6C49.52 31.4825 49.5675 31.345 49.64 31.215C49.7 31.11 49.7725 31.02 49.8175 30.905C49.93 30.6175 49.9975 30.315 49.9975 30.01C49.9975 30.0075 50 30.0025 50 30C50 29.9975 49.9975 29.9925 49.9975 29.99C49.9975 29.685 49.93 29.3825 49.8175 29.095C49.7725 28.98 49.7 28.89 49.64 28.785C49.5675 28.655 49.52 28.5175 49.4225 28.4L36.9225 13.4C36.425 12.8075 35.715 12.5 35 12.5C34.435 12.5 33.8675 12.69 33.4 13.08C32.34 13.9625 32.195 15.54 33.08 16.6L42.1625 27.5H12.5C11.12 27.5 10 28.62 10 30C10 31.38 11.12 32.5 12.5 32.5Z" fill="white"/>
</mask>
<g mask="url(#mask0_1528_0)">
<rect width="60" height="60" fill="#607CFE"/>
</g>
</svg>
