<svg width="42" height="42" viewBox="0 0 42 42" fill="none" xmlns="http://www.w3.org/2000/svg">
<path opacity="0.2" d="M20.7847 41.5694C32.2638 41.5694 41.5694 32.2638 41.5694 20.7847C41.5694 9.30563 32.2638 0 20.7847 0C9.30563 0 0 9.30563 0 20.7847C0 32.2638 9.30563 41.5694 20.7847 41.5694Z" fill="#F0EEF4"/>
<path d="M32.8179 21.002C32.8179 19.2517 29.5361 17.7202 24.7228 17.0638C24.2853 12.2505 22.7538 8.96875 21.0035 8.96875C19.2532 8.96875 17.7217 12.2505 17.0653 17.0638C12.252 17.5014 8.97021 19.0329 8.97021 20.7832C8.97021 22.5335 12.252 24.065 17.0653 24.7214C17.5029 29.5347 19.0344 32.8164 20.7847 32.8164C22.535 32.8164 24.0665 29.5347 24.7228 24.7214C29.3173 24.065 32.8179 22.7523 32.8179 21.002Z" fill="#FFE48F"/>
</svg>
