<svg width="126" height="123" viewBox="0 0 126 123" fill="none" xmlns="http://www.w3.org/2000/svg">
<path d="M93.1992 73.4277C97.5897 73.4277 101.162 77.0011 101.162 81.3916V83.0225C101.162 84.7091 100.634 86.2733 99.7354 87.5625L99.3652 88.0938L100.012 88.1133C105.168 88.2671 109.316 92.5067 109.316 97.6992V104.379C109.316 105.174 108.672 105.818 107.877 105.818H19.79C18.995 105.818 18.3497 105.174 18.3496 104.379V97.6992C18.3497 92.5067 22.4988 88.2671 27.6553 88.1133L28.3018 88.0938L27.9316 87.5625C27.033 86.2732 26.504 84.7092 26.5039 83.0225V81.3916C26.5039 77.0011 30.0773 73.4277 34.4678 73.4277C38.8581 73.4279 42.4307 77.0012 42.4307 81.3916V83.0225C42.4306 84.7092 41.9016 86.2732 41.0029 87.5625L40.6338 88.0938L41.2803 88.1133C44.4197 88.2071 47.1855 89.8142 48.8691 92.2334L49.1562 92.6465L49.4434 92.2334C51.1271 89.8142 53.8926 88.2068 57.0322 88.1133L57.6787 88.0938L57.3086 87.5625C56.4101 86.2733 55.8819 84.7091 55.8818 83.0225V81.3916C55.8818 77.0011 59.4542 73.4277 63.8447 73.4277C68.2352 73.4277 71.8076 77.0011 71.8076 81.3916V83.0225C71.8075 84.7091 71.2794 86.2733 70.3809 87.5625L70.0107 88.0938L70.6572 88.1133C73.7903 88.2069 76.5506 89.808 78.2354 92.2188L78.5225 92.6289L78.8086 92.2188C80.4935 89.808 83.2539 88.2067 86.3867 88.1133L87.0332 88.0938L86.6631 87.5625C85.7646 86.2733 85.2364 84.7091 85.2363 83.0225V81.3916C85.2363 77.0012 88.8088 73.4278 93.1992 73.4277ZM27.9443 90.9854C24.2418 90.9854 21.2296 93.9969 21.2295 97.6992V102.938H47.7051V97.6992C47.705 93.9967 44.6926 90.9854 40.9902 90.9854H27.9443ZM57.3213 90.9854C53.6188 90.9855 50.6075 93.9969 50.6074 97.6992V102.938H77.082V97.6992C77.0819 93.9967 74.0705 90.9854 70.3682 90.9854H57.3213ZM86.6758 90.9854C82.9734 90.9856 79.962 93.997 79.9619 97.6992V102.938H106.437V97.6992C106.436 93.9967 103.425 90.9854 99.7227 90.9854H86.6758ZM34.4668 76.3076C31.6638 76.3079 29.3838 78.5886 29.3838 81.3916V83.0225C29.384 85.8253 31.664 88.1052 34.4668 88.1055C37.2698 88.1055 39.5505 85.8254 39.5508 83.0225V81.3916C39.5508 78.5884 37.27 76.3076 34.4668 76.3076ZM63.8447 76.3076C61.0415 76.3076 58.7617 78.5884 58.7617 81.3916V83.0225C58.762 85.8254 61.0417 88.1055 63.8447 88.1055C66.6478 88.1055 68.9275 85.8254 68.9277 83.0225V81.3916C68.9277 78.5884 66.6479 76.3076 63.8447 76.3076ZM93.1992 76.3076C90.3961 76.3077 88.1162 78.5885 88.1162 81.3916V83.0225C88.1164 85.8254 90.3963 88.1054 93.1992 88.1055C96.0023 88.1055 98.282 85.8254 98.2822 83.0225V81.3916C98.2822 78.5884 96.0024 76.3076 93.1992 76.3076Z" fill="#2F5ED1" stroke="white" stroke-width="0.7"/>
<path d="M51.4717 62.9824C51.8495 62.9825 52.2222 63.1371 52.4893 63.4043V63.4053C52.7566 63.6724 52.9111 64.0449 52.9111 64.4229C52.9111 64.7996 52.7573 65.1706 52.4893 65.4404C52.2221 65.7078 51.8494 65.8623 51.4717 65.8623C51.1411 65.8623 50.8143 65.744 50.5586 65.5352L50.4531 65.4404C50.1859 65.1734 50.0313 64.8006 50.0312 64.4229C50.0312 64.0436 50.186 63.6725 50.4531 63.4053L50.4541 63.4043C50.7214 63.1371 51.094 62.9824 51.4717 62.9824Z" fill="#FFA200" stroke="white" stroke-width="0.7"/>
<path d="M51.4717 14.873C57.6067 14.873 62.5984 19.8652 62.5986 26V32.4473C62.5985 35.411 61.4315 38.1056 59.5342 40.1025L58.9727 40.6943H65.6641C70.7718 40.6945 74.9277 44.8503 74.9277 49.958V64.4229C74.9275 65.2177 74.2831 65.8621 73.4883 65.8623H58.6318C57.8369 65.8623 57.1916 65.2178 57.1914 64.4229C57.1914 63.6278 57.8367 62.9824 58.6318 62.9824H72.0479V49.958C72.0478 46.4374 69.1844 43.5744 65.6641 43.5742H62.3545V52.291C62.3545 52.8321 62.0514 53.3245 61.5762 53.5703L61.4785 53.6162C61.2963 53.6938 61.1041 53.7314 60.9141 53.7314C60.549 53.7313 60.1894 53.5927 59.916 53.3301L53.5039 47.1689L52.9121 46.5996V52.8096C52.9121 53.6047 52.2668 54.25 51.4717 54.25C50.6767 54.2498 50.0322 53.6046 50.0322 52.8096V46.5996L49.4395 47.1689L43.0273 53.3301C42.6112 53.7296 41.9968 53.8421 41.4658 53.6162C40.9349 53.39 40.5898 52.8682 40.5898 52.291V43.5742H37.2803C33.7597 43.5742 30.8956 46.4373 30.8955 49.958V62.9824H44.3125C45.1075 62.9825 45.752 63.6278 45.752 64.4229C45.7518 65.2177 45.1074 65.8622 44.3125 65.8623H29.4561C28.6611 65.8623 28.0158 65.2178 28.0156 64.4229V49.958C28.0157 44.8502 32.1724 40.6943 37.2803 40.6943H43.9707L43.4092 40.1025C41.512 38.1056 40.3448 35.4108 40.3447 32.4473V26C40.3449 19.8653 45.3368 14.8732 51.4717 14.873ZM43.4697 48.9111L44.0625 48.3418L48.3975 44.1758L49.0244 43.5742H43.4697V48.9111ZM54.5459 44.1768L58.8818 48.3418L59.4746 48.9111V43.5742H53.9189L54.5459 44.1768ZM51.4717 17.7539C46.924 17.7541 43.2246 21.4533 43.2246 26.001V26.8926H46.5215C49.2508 26.8926 51.8223 25.6925 53.5752 23.6006C54.0269 23.0616 54.8019 22.928 55.4082 23.2842L59.1494 25.4814L59.7461 25.832L59.6748 25.1436C59.2446 20.997 55.7303 17.7539 51.4717 17.7539ZM59.7197 29.1562L59.5469 29.0547L55.1738 26.4863L54.9482 26.3535L54.7578 26.5312C52.5341 28.6061 49.6053 29.7724 46.5215 29.7725H43.2246V32.4473C43.2249 36.9947 46.9242 40.6941 51.4717 40.6943C56.0193 40.6943 59.7195 36.9949 59.7197 32.4473V29.1562Z" fill="#2F5ED1" stroke="white" stroke-width="0.7"/>
<path d="M78.7925 14.873H105.803C107.728 14.8732 109.293 16.4397 109.293 18.3643V37.0645C109.293 38.9889 107.727 40.5545 105.803 40.5547H83.4917L83.4204 40.5879L77.354 43.4375C77.1592 43.5289 76.9498 43.5742 76.7417 43.5742C76.4723 43.5742 76.2039 43.4986 75.9692 43.3496C75.5535 43.0854 75.3013 42.6265 75.3013 42.1338V18.3643C75.3014 16.4397 76.8681 14.8731 78.7925 14.873ZM78.7925 17.7529C78.4552 17.753 78.1812 18.027 78.1812 18.3643V39.8672L78.6802 39.6328L82.5581 37.8115C82.7496 37.7217 82.9588 37.6748 83.1704 37.6748H105.803C106.14 37.6746 106.414 37.4008 106.414 37.0635V18.3643C106.413 18.0271 106.14 17.7531 105.803 17.7529H78.7925Z" fill="#FFA200" stroke="white" stroke-width="0.7"/>
<path d="M83.7676 22.4941H100.827C101.622 22.4941 102.268 23.1395 102.268 23.9346C102.268 24.7296 101.622 25.374 100.827 25.374H83.7676C82.9724 25.374 82.3272 24.7296 82.3271 23.9346C82.3271 23.1395 82.9725 22.4941 83.7676 22.4941Z" fill="#FFA200" stroke="white" stroke-width="0.7"/>
<path d="M83.7676 29.6523H95.5371C96.332 29.6526 96.9766 30.2978 96.9766 31.0928C96.9765 31.8877 96.332 32.532 95.5371 32.5322H83.7676C82.9724 32.5322 82.3272 31.8878 82.3271 31.0928C82.3271 30.2977 82.9725 29.6523 83.7676 29.6523Z" fill="#FFA200" stroke="white" stroke-width="0.7"/>
<path d="M125.333 71.8288C125.333 70.4918 122.81 69.3219 119.11 68.8205C118.774 65.1436 117.596 62.6367 116.251 62.6367C114.905 62.6367 113.728 65.1436 113.223 68.8205C109.523 69.1547 107 70.3246 107 71.6616C107 72.9987 109.523 74.1686 113.223 74.67C113.56 78.3468 114.737 80.8537 116.083 80.8537C117.428 80.8537 118.606 78.3468 119.11 74.67C122.642 74.1686 125.333 73.1658 125.333 71.8288Z" fill="#FFE48F"/>
<path d="M18.3333 49.6764C18.3333 48.3394 15.8104 47.1695 12.1101 46.6681C11.7737 42.9913 10.5963 40.4844 9.25077 40.4844C7.9052 40.4844 6.72783 42.9913 6.22324 46.6681C2.52293 47.0024 0 48.1723 0 49.5093C0 50.8463 2.52293 52.0162 6.22324 52.5176C6.55963 56.1944 7.737 58.7014 9.08257 58.7014C10.4281 58.7014 11.6055 56.1944 12.1101 52.5176C15.6422 52.0162 18.3333 51.0135 18.3333 49.6764Z" fill="#9FADF0"/>
<path d="M73.3003 6.16718C73.3003 5.27014 71.6076 4.48522 69.125 4.14883C68.8993 1.68195 68.1093 0 67.2066 0C66.3038 0 65.5139 1.68195 65.1753 4.14883C62.6927 4.37309 61 5.158 61 6.05504C61 6.95209 62.6927 7.737 65.1753 8.0734C65.401 10.5403 66.1909 12.2222 67.0937 12.2222C67.9965 12.2222 68.7864 10.5403 69.125 8.0734C71.4947 7.737 73.3003 7.06422 73.3003 6.16718Z" fill="#9FADF0"/>
<rect x="27.5977" y="117.938" width="6.90644" height="6.90644" transform="rotate(-45 27.5977 117.938)" fill="#E02287" fill-opacity="0.6"/>
</svg>
