<svg width="139" height="95" viewBox="0 0 139 95" fill="none" xmlns="http://www.w3.org/2000/svg">
<path d="M48.3 78L47.0614 78.8461C47.3409 79.2553 47.8045 79.5 48.3 79.5V78ZM42.48 69.48L43.7186 68.6339C43.444 68.2319 42.9914 67.9882 42.5046 67.9802C42.0179 67.9722 41.5575 68.2009 41.2699 68.5937L42.48 69.48ZM36.24 78V79.5C36.7181 79.5 37.1676 79.2721 37.4501 78.8863L36.24 78ZM23.88 78L22.6858 77.0923C22.341 77.546 22.283 78.1559 22.5362 78.6665C22.7894 79.177 23.3101 79.5 23.88 79.5V78ZM36.24 61.74L37.4342 62.6477C37.8372 62.1176 37.8424 61.3851 37.4469 60.8493L36.24 61.74ZM24.24 45.48V43.98C23.6739 43.98 23.1561 44.2987 22.901 44.804C22.6459 45.3093 22.697 45.9152 23.0331 46.3707L24.24 45.48ZM37.08 45.48L38.3084 44.6192C38.0277 44.2186 37.5692 43.98 37.08 43.98V45.48ZM42.84 53.7L41.6116 54.5608C41.8894 54.9572 42.3414 55.1953 42.8255 55.1999C43.3096 55.2046 43.7662 54.9754 44.0516 54.5844L42.84 53.7ZM48.84 45.48V43.98C48.361 43.98 47.9108 44.2088 47.6284 44.5956L48.84 45.48ZM60.9 45.48L62.0956 46.3858C62.4395 45.9319 62.4967 45.3224 62.2433 44.8124C61.9898 44.3025 61.4695 43.98 60.9 43.98V45.48ZM48.9 61.32L47.7044 60.4142C47.3013 60.9462 47.2983 61.6805 47.6969 62.2158L48.9 61.32ZM61.32 78V79.5C61.8872 79.5 62.4059 79.18 62.6605 78.6731C62.915 78.1662 62.8619 77.5591 62.5231 77.1042L61.32 78ZM49.5386 77.1539L43.7186 68.6339L41.2414 70.3261L47.0614 78.8461L49.5386 77.1539ZM41.2699 68.5937L35.0299 77.1137L37.4501 78.8863L43.6902 70.3663L41.2699 68.5937ZM36.24 76.5H23.88V79.5H36.24V76.5ZM25.0742 78.9077L37.4342 62.6477L35.0458 60.8323L22.6858 77.0923L25.0742 78.9077ZM37.4469 60.8493L25.4469 44.5893L23.0331 46.3707L35.0331 62.6307L37.4469 60.8493ZM24.24 46.98H37.08V43.98H24.24V46.98ZM35.8516 46.3408L41.6116 54.5608L44.0684 52.8392L38.3084 44.6192L35.8516 46.3408ZM44.0516 54.5844L50.0516 46.3644L47.6284 44.5956L41.6284 52.8156L44.0516 54.5844ZM48.84 46.98H60.9V43.98H48.84V46.98ZM59.7044 44.5742L47.7044 60.4142L50.0956 62.2258L62.0956 46.3858L59.7044 44.5742ZM47.6969 62.2158L60.1169 78.8958L62.5231 77.1042L50.1031 60.4242L47.6969 62.2158ZM61.32 76.5H48.3V79.5H61.32V76.5Z" fill="#2F5ED1"/>
<path d="M114 65.44H115.5C115.5 64.6116 114.828 63.94 114 63.94V65.44ZM114 78V79.5C114.828 79.5 115.5 78.8284 115.5 78H114ZM70.4 78H68.9C68.9 78.8284 69.5716 79.5 70.4 79.5V78ZM70.4 68.08L69.3755 66.9844C69.0722 67.268 68.9 67.6647 68.9 68.08H70.4ZM91.36 48.48L92.3845 49.5756L92.3916 49.5689L91.36 48.48ZM95.44 43.6L96.7708 44.292C96.7745 44.285 96.7781 44.2779 96.7816 44.2708L95.44 43.6ZM83.52 35.12L84.2237 36.4447C84.2286 36.4421 84.2334 36.4395 84.2383 36.4368L83.52 35.12ZM79.28 39.12L78.5493 40.43C79.2433 40.8171 80.1188 40.5958 80.5455 39.9253L79.28 39.12ZM67.52 32.56L66.2354 31.7855C66.0255 32.1337 65.9659 32.5522 66.0703 32.9452C66.1747 33.3381 66.4342 33.6719 66.7893 33.87L67.52 32.56ZM76.72 24L77.4194 25.327L77.4194 25.327L76.72 24ZM102 22.96L101.412 24.3399L101.42 24.3433L102 22.96ZM109.68 28.96L108.448 29.8151C108.454 29.8247 108.461 29.8343 108.468 29.8438L109.68 28.96ZM110.48 46.56L109.133 45.8997L109.128 45.9109L110.48 46.56ZM102.96 55.68L101.948 54.5729L101.942 54.5784L102.96 55.68ZM92.4 65.44L91.3819 64.3384C90.9284 64.7575 90.7781 65.4117 91.0032 65.9866C91.2282 66.5616 91.7825 66.94 92.4 66.94V65.44ZM112.5 65.44V78H115.5V65.44H112.5ZM114 76.5H70.4V79.5H114V76.5ZM71.9 78V68.08H68.9V78H71.9ZM71.4245 69.1756L92.3845 49.5756L90.3355 47.3844L69.3755 66.9844L71.4245 69.1756ZM92.3916 49.5689C94.4541 47.615 95.9605 45.8504 96.7708 44.292L94.1092 42.908C93.5329 44.0163 92.3192 45.505 90.3284 47.3911L92.3916 49.5689ZM96.7816 44.2708C97.5667 42.7007 97.98 41.0858 97.98 39.44H94.98C94.98 40.5675 94.7 41.7259 94.0984 42.9292L96.7816 44.2708ZM97.98 39.44C97.98 37.2494 97.2176 35.3837 95.5953 34.0436L93.6847 36.3564C94.5157 37.043 94.98 38.0039 94.98 39.44H97.98ZM95.5953 34.0436C93.9978 32.7239 91.815 32.18 89.28 32.18V35.18C91.4383 35.18 92.8288 35.6494 93.6847 36.3564L95.5953 34.0436ZM89.28 32.18C86.9588 32.18 84.7905 32.7184 82.8017 33.8032L84.2383 36.4368C85.7695 35.6016 87.4412 35.18 89.28 35.18V32.18ZM82.8163 33.7953C80.8625 34.8332 79.2623 36.3538 78.0145 38.3147L80.5455 39.9253C81.5377 38.3661 82.7641 37.2201 84.2237 36.4447L82.8163 33.7953ZM80.0107 37.81L68.2507 31.25L66.7893 33.87L78.5493 40.43L80.0107 37.81ZM68.8046 33.3345C70.8425 29.9546 73.701 27.2867 77.4194 25.327L76.0206 22.673C71.8457 24.8733 68.5709 27.9121 66.2354 31.7855L68.8046 33.3345ZM77.4194 25.327C81.1101 23.3819 85.5269 22.38 90.72 22.38V19.38C85.1398 19.38 80.2233 20.4581 76.0206 22.673L77.4194 25.327ZM90.72 22.38C94.8254 22.38 98.3787 23.0471 101.412 24.3399L102.588 21.5801C99.1147 20.0996 95.148 19.38 90.72 19.38V22.38ZM101.42 24.3433C104.498 25.634 106.817 27.4653 108.448 29.8151L110.912 28.1049C108.916 25.2281 106.116 23.0593 102.58 21.5767L101.42 24.3433ZM108.468 29.8438C110.133 32.1269 110.98 34.7983 110.98 37.92H113.98C113.98 34.215 112.961 30.9131 110.892 28.0762L108.468 29.8438ZM110.98 37.92C110.98 40.732 110.365 43.386 109.133 45.8998L111.827 47.2202C113.261 44.294 113.98 41.188 113.98 37.92H110.98ZM109.128 45.9109C107.97 48.3237 105.626 51.2103 101.948 54.573L103.972 56.787C107.761 53.323 110.43 50.1297 111.832 47.2091L109.128 45.9109ZM101.942 54.5784L91.3819 64.3384L93.4181 66.5416L103.978 56.7816L101.942 54.5784ZM92.4 66.94H114V63.94H92.4V66.94Z" fill="#FFA200"/>
<path d="M18.3333 66.1921C18.3333 64.855 15.8104 63.6851 12.1101 63.1837C11.7737 59.5069 10.5963 57 9.25077 57C7.9052 57 6.72783 59.5069 6.22324 63.1837C2.52293 63.518 0 64.6879 0 66.0249C0 67.362 2.52293 68.5319 6.22324 69.0332C6.55963 72.7101 7.737 75.217 9.08257 75.217C10.4281 75.217 11.6055 72.7101 12.1101 69.0332C15.6422 68.5319 18.3333 67.5291 18.3333 66.1921Z" fill="#FFE48F"/>
<path d="M138.333 45.1921C138.333 43.855 135.81 42.6851 132.11 42.1837C131.774 38.5069 130.596 36 129.251 36C127.905 36 126.728 38.5069 126.223 42.1837C122.523 42.518 120 43.6879 120 45.0249C120 46.362 122.523 47.5319 126.223 48.0332C126.56 51.7101 127.737 54.217 129.083 54.217C130.428 54.217 131.606 51.7101 132.11 48.0332C135.642 47.5319 138.333 46.5291 138.333 45.1921Z" fill="#9FADF0"/>
<path d="M59.3003 17.6516C59.3003 16.7545 57.6076 15.9696 55.125 15.6332C54.8993 13.1663 54.1093 11.4844 53.2066 11.4844C52.3038 11.4844 51.5139 13.1663 51.1753 15.6332C48.6927 15.8575 47 16.6424 47 17.5394C47 18.4365 48.6927 19.2214 51.1753 19.5578C51.401 22.0246 52.1909 23.7066 53.0937 23.7066C53.9965 23.7066 54.7864 22.0246 55.125 19.5578C57.4947 19.2214 59.3003 18.5486 59.3003 17.6516Z" fill="#9FADF0"/>
<rect x="74" y="89.7031" width="6.90644" height="6.90644" transform="rotate(-45 74 89.7031)" fill="#E02287" fill-opacity="0.6"/>
</svg>
