<svg width="278" height="280" viewBox="0 0 278 280" fill="none" xmlns="http://www.w3.org/2000/svg">
<path fill-rule="evenodd" clip-rule="evenodd" d="M41.0165 205.56C34.6539 194.408 32.2067 181.3 33.2835 168.584C33.8708 161.932 35.437 155.182 38.0799 149.117C40.625 143.346 44.051 137.966 43.7573 131.412C43.4637 124.956 39.6461 118.5 41.7017 112.435C45.5193 101.185 62.6495 100.892 71.7529 96.4901C84.7718 90.3274 87.8063 77.9042 94.6584 66.557C101.51 55.2099 111.886 45.8191 124.318 41.3194C136.75 36.8196 151.237 37.4065 162.787 43.8627C168.465 47.0908 172.087 51.0036 174.925 56.775C177.079 61.1769 179.232 65.8723 183.246 68.5134C188.238 71.9371 194.503 70.8611 200.18 71.3502C213.101 72.4263 226.022 77.0238 235.713 85.7298C240.412 89.9361 244.131 95.1206 246.676 100.892C249.124 106.566 250.396 113.022 254.116 118.206C257.738 123.097 263.415 126.13 266.841 131.216C271.246 137.868 267.526 145.107 268.505 152.346C270.071 163.888 279.566 179.931 271.344 190.887C268.016 195.289 263.219 194.897 258.227 194.8C251.669 194.8 244.621 194.31 238.356 192.256C232.972 190.495 227.686 188.343 222.009 188.148C217.8 187.952 213.591 187.659 209.382 187.561C206.641 187.561 203.9 188.343 201.159 188.539C195.482 189.126 189.706 189.713 184.029 190.3C171.304 191.669 158.676 192.941 145.951 194.31C121.773 196.854 97.595 199.397 73.3191 201.94C65.4882 202.723 57.6572 203.603 49.8263 204.386C49.1411 204.679 41.3102 206.049 41.0165 205.56Z" fill="#F1F3F7"/>
<path fill-rule="evenodd" clip-rule="evenodd" d="M227.49 242.635C220.344 245.569 212.905 248.113 206.053 251.83C197.439 256.525 190.293 262.59 180.505 265.133C173.946 266.796 166.898 266.796 160.144 267.677C152.803 268.655 145.363 269.927 137.924 270.416C137.434 270.416 137.043 270.513 136.553 270.513C134.204 270.611 131.953 270.709 129.603 270.807C129.114 270.807 128.723 270.807 128.233 270.807C127.744 270.807 127.352 270.807 126.863 270.807C126.373 270.807 125.884 270.807 125.394 270.807C96.8115 270.905 66.6624 265.622 43.2675 248.308C39.8414 245.765 36.4154 242.83 34.5556 239.015C32.9894 235.787 32.5978 232.07 31.8147 228.451C30.9337 224.342 29.2697 220.723 26.0394 217.984C21.6345 214.365 19.5789 212.506 21.9282 206.539C29.1718 187.757 42.9738 171.813 59.3209 160.074C82.1285 143.738 110.026 134.445 137.532 129.848C152.901 127.304 168.464 126.326 184.028 127.109C187.748 127.304 191.468 127.598 195.188 127.989C198.711 128.38 202.235 129.261 205.759 129.163C214.569 128.87 223.966 130.532 232.482 133.076C238.062 134.739 246.48 136.5 248.927 142.662C249.71 144.619 250.591 146.379 251.962 148.14C253.92 150.683 257.15 150.977 259.695 152.444C262.534 154.107 265.079 156.357 267.036 158.998C269.875 162.813 271.441 167.411 272.224 172.106C273.595 179.443 274.182 187.855 272.322 195.094C270.462 202.43 266.841 209.278 262.338 215.343C254.409 226.005 244.327 234.809 232.287 240.385C230.818 241.265 229.154 241.95 227.49 242.635Z" fill="#F1F3F7"/>
<path fill-rule="evenodd" clip-rule="evenodd" d="M209.283 194.603C208.598 193.918 206.64 194.505 202.725 193.429C198.809 192.353 194.796 193.038 194.209 194.016C193.523 194.994 198.516 198.613 200.376 198.907C202.235 199.2 203.41 201.841 205.955 201.743C208.5 201.743 209.773 199.689 209.773 199.689L209.283 194.603Z" fill="#3C3C6D"/>
<path fill-rule="evenodd" clip-rule="evenodd" d="M99.161 230.893C99.161 230.893 106.698 232.653 109.145 232.653C111.593 232.653 113.648 234.414 112.18 236.077C110.614 237.74 107.873 239.109 104.447 239.305C101.021 239.501 96.2244 239.892 94.1688 239.599C92.8962 237.349 92.7983 232.653 92.7983 232.653L99.161 230.893Z" fill="#3C3C6D"/>
<path fill-rule="evenodd" clip-rule="evenodd" d="M188.825 203.896C188.825 203.896 181.288 205.657 178.84 205.657C176.393 205.657 174.338 207.418 175.806 209.081C177.372 210.744 180.113 212.113 183.539 212.309C186.965 212.505 191.762 212.896 193.817 212.603C195.09 210.353 195.188 205.657 195.188 205.657L188.825 203.896Z" fill="#3C3C6D"/>
<path fill-rule="evenodd" clip-rule="evenodd" d="M78.2133 225.319C78.8985 224.635 80.8563 225.222 84.7717 224.146C88.6872 223.07 92.7006 223.754 93.3858 224.733C94.071 225.711 89.0787 229.33 87.2189 229.624C85.359 229.917 84.1844 232.558 81.6394 232.46C79.0943 232.46 77.8218 230.406 77.8218 230.406L78.2133 225.319Z" fill="#3C3C6D"/>
<path fill-rule="evenodd" clip-rule="evenodd" d="M76.745 239.504C76.745 239.699 76.6472 239.895 76.4514 240.091C76.1577 240.384 75.8641 240.58 75.3746 240.678C74.7873 240.873 74.0042 240.873 73.319 240.678L64.705 238.428C63.2367 238.037 61.6705 238.526 61.2789 239.406L59.4191 244.688C59.2233 245.373 58.1466 245.764 57.0698 245.764C56.9719 245.764 56.7762 245.764 56.6783 245.764C55.8952 245.667 55.3079 245.471 54.9163 245.08C54.7205 244.884 54.6227 244.688 54.6227 244.493C54.6227 244.395 54.6227 244.297 54.6227 244.199L55.3079 240.482L55.6015 238.819C55.7973 237.939 54.4269 237.156 52.8607 237.254L43.3657 237.841C43.2678 237.841 43.1699 237.841 43.072 237.841C42.6805 237.841 42.2889 237.743 41.9953 237.645C41.3101 237.45 40.8206 237.058 40.7227 236.569C40.527 235.787 41.3101 235.102 42.5826 235.004L51.8818 233.928C52.2734 233.928 52.6649 233.732 52.9586 233.635C53.7417 233.243 54.1332 232.559 53.6438 231.972L50.3156 227.863L49.6304 226.983C49.5325 226.787 49.4347 226.689 49.4347 226.494V226.396C49.4347 225.907 49.9241 225.418 50.7072 225.124C51.8818 224.831 53.2522 225.026 53.9374 225.711L58.636 230.504C59.4191 231.287 61.2789 231.483 62.3557 230.896L69.3057 227.178C69.7951 226.885 70.3824 226.787 70.9697 226.787C71.557 226.787 72.2423 226.885 72.7317 227.178C73.2211 227.472 73.5148 227.863 73.4169 228.254C73.4169 228.548 73.2211 228.841 72.8296 229.135L72.2423 229.526L66.4669 233.243C65.3902 233.928 65.6838 234.906 67.0543 235.395C67.0543 235.395 67.0543 235.395 67.1521 235.395L75.3746 238.134C76.3535 238.623 76.745 239.015 76.745 239.504Z" fill="#3C3C6D"/>
<path fill-rule="evenodd" clip-rule="evenodd" d="M53.1538 233.928L49.8257 229.819C49.7278 229.624 49.6299 229.526 49.6299 229.33V226.885C49.6299 227.08 49.7278 227.178 49.8257 227.374L50.5109 228.254L53.839 232.363C54.3284 232.852 53.9369 233.537 53.1538 233.928Z" fill="#3C3C6D"/>
<path fill-rule="evenodd" clip-rule="evenodd" d="M55.7972 239.013L55.5036 240.676C55.0141 240.187 54.1332 239.894 53.1543 239.992L43.6593 240.579C43.5614 240.579 43.4635 240.579 43.3656 240.579C42.191 240.579 41.1142 240.089 40.9185 239.405V236.861C41.0163 237.35 41.5058 237.644 42.191 237.937C42.4846 238.035 42.8762 238.133 43.2677 238.133C43.3656 238.133 43.4635 238.133 43.5614 238.133L53.0564 237.546C54.6226 237.35 55.993 238.133 55.7972 239.013Z" fill="#3C3C6D"/>
<path fill-rule="evenodd" clip-rule="evenodd" d="M76.7449 239.503V242.047C76.7449 242.242 76.6471 242.438 76.4513 242.633C75.864 243.318 74.4935 243.612 73.3189 243.318L64.7049 241.068C63.2366 240.677 61.6704 241.166 61.2788 242.047L59.419 247.329C59.2232 248.014 58.1465 248.405 57.0697 248.405C56.9718 248.405 56.7761 248.405 56.6782 248.405C55.5035 248.307 54.7204 247.818 54.6226 247.133C54.6226 247.133 54.6226 247.035 54.6226 246.84V244.59C54.6226 244.786 54.8183 244.981 54.9162 245.177C55.3078 245.568 55.8951 245.764 56.6782 245.862C56.7761 245.862 56.9718 245.862 57.0697 245.862C58.2444 245.862 59.2232 245.372 59.419 244.786L61.2788 239.503C61.5725 238.623 63.2366 238.134 64.7049 238.525L73.3189 240.775C74.0041 240.971 74.7872 240.971 75.3745 240.775C75.864 240.677 76.1576 240.481 76.4513 240.188C76.7449 239.992 76.7449 239.797 76.7449 239.503Z" fill="#3C3C6D"/>
<path fill-rule="evenodd" clip-rule="evenodd" d="M73.7103 228.547V230.992C73.7103 231.286 73.5146 231.677 73.123 231.971L67.3477 235.59C66.0752 235.101 65.7815 234.123 66.7604 233.438L72.5357 229.721L73.123 229.329C73.4167 229.134 73.7103 228.84 73.7103 228.547Z" fill="#3C3C6D"/>
<path fill-rule="evenodd" clip-rule="evenodd" d="M76.6471 244.101C76.5492 245.275 75.5703 246.155 74.2978 246.057C73.1232 245.96 72.2422 244.981 72.2422 243.808C72.3401 242.634 73.3189 241.753 74.5915 241.851C75.7661 241.949 76.745 242.927 76.6471 244.101Z" fill="#3C3C6D"/>
<path fill-rule="evenodd" clip-rule="evenodd" d="M59.3209 249.48C59.223 250.654 58.2442 251.534 56.9716 251.436C55.797 251.339 54.916 250.36 54.916 249.186C55.0139 248.013 55.9928 247.132 57.2653 247.23C58.5378 247.328 59.4188 248.306 59.3209 249.48Z" fill="#3C3C6D"/>
<path fill-rule="evenodd" clip-rule="evenodd" d="M45.2252 241.751C45.1273 242.925 44.1485 243.806 42.8759 243.708C41.7013 243.61 40.8203 242.632 40.8203 241.458C40.9182 240.284 41.8971 239.404 43.1696 239.502C44.4421 239.502 45.3231 240.578 45.2252 241.751Z" fill="#3C3C6D"/>
<path fill-rule="evenodd" clip-rule="evenodd" d="M53.1544 232.656C53.0565 233.83 52.0777 234.71 50.8051 234.612C49.6305 234.514 48.7495 233.536 48.7495 232.362C48.8474 231.188 49.8263 230.308 51.0988 230.406C52.3713 230.406 53.2523 231.482 53.1544 232.656Z" fill="#3C3C6D"/>
<path fill-rule="evenodd" clip-rule="evenodd" d="M74.4933 233.632C74.3954 234.806 73.4165 235.687 72.144 235.589C70.9694 235.491 70.0884 234.513 70.0884 233.339C70.1863 232.165 71.1651 231.285 72.4377 231.382C73.6123 231.382 74.4933 232.458 74.4933 233.632Z" fill="#3C3C6D"/>
<path fill-rule="evenodd" clip-rule="evenodd" d="M62.3551 236.861C62.3551 239.698 56.2861 239.111 56.2861 236.861V217.004H62.3551V236.861Z" fill="#56548C"/>
<path fill-rule="evenodd" clip-rule="evenodd" d="M54.9156 199.003C54.9156 199.003 72.3394 193.036 79.7788 193.917C87.1203 194.797 85.5541 226.687 85.5541 226.687C85.5541 226.687 81.6387 227.371 77.7232 226.687C76.0591 217.785 73.4162 208.101 73.4162 208.101C73.4162 208.101 57.3628 212.698 55.0135 210.448C52.5663 208.101 54.9156 199.003 54.9156 199.003Z" fill="#3C3C6D"/>
<path fill-rule="evenodd" clip-rule="evenodd" d="M54.9156 199.003C54.9156 199.003 72.3394 193.036 79.7788 193.917C87.1203 194.797 85.5541 226.687 85.5541 226.687C84.9668 227.86 80.1704 230.404 77.7232 226.687C76.0591 217.785 73.4162 208.101 73.4162 208.101C73.4162 208.101 57.3628 212.698 55.0135 210.448C52.5663 208.101 54.9156 199.003 54.9156 199.003Z" fill="#3C3C6D"/>
<path fill-rule="evenodd" clip-rule="evenodd" d="M83.4009 216.907C81.8347 218.374 63.3341 228.645 59.8102 230.504C59.4186 230.699 58.8313 230.797 58.4398 230.504C56.482 229.232 55.5032 224.928 59.2229 222.189C60.2996 221.406 80.0727 208.103 83.2051 208.983H83.303C83.4009 208.983 83.4987 209.081 83.5966 209.179C85.2607 210.353 85.0649 215.342 83.4009 216.907Z" fill="#56548C"/>
<path fill-rule="evenodd" clip-rule="evenodd" d="M83.3034 208.885C80.171 208.004 60.3979 221.308 59.3212 222.09C55.6015 224.829 56.5803 229.231 58.5381 230.405L36.6115 217.689L35.8284 217.297C34.0664 215.83 33.3812 211.819 37.003 209.178C38.0798 208.396 58.3423 194.799 61.0831 196.07L61.2789 196.168L83.3034 208.885Z" fill="#3C3C6D"/>
<path fill-rule="evenodd" clip-rule="evenodd" d="M132.051 118.696C131.464 114 129.31 85.7301 125.101 82.502C125.101 82.502 122.262 79.4696 120.99 80.7412L100.434 92.5775L101.412 105.392L110.32 134.64L130.289 123.097C131.562 122.902 132.345 121.141 132.051 118.696Z" fill="#3C3C6D"/>
<path fill-rule="evenodd" clip-rule="evenodd" d="M104.349 94.5335C108.46 97.7616 110.711 126.032 111.299 130.727C111.886 135.422 108.558 137.281 105.523 132.488C102.489 127.695 99.7481 100.794 99.7481 95.1205C99.6502 89.5447 104.349 94.5335 104.349 94.5335Z" fill="#46467C"/>
<path fill-rule="evenodd" clip-rule="evenodd" d="M137.728 79.0775C131.953 78.784 122.164 85.6314 117.759 91.2072C113.354 96.783 116.095 102.848 117.563 108.815C119.032 114.782 116.78 129.748 116.78 131.216C123.535 135.813 139.979 136.4 141.839 129.748C142.622 122.412 137.239 114.684 137.239 110.38C137.434 100.989 145.265 81.8165 137.728 79.0775Z" fill="#F9FBFC"/>
<path fill-rule="evenodd" clip-rule="evenodd" d="M132.638 80.348C135.672 93.3581 134.693 107.444 134.008 112.922C133.323 118.4 133.225 136.79 133.225 136.79C137.63 134.541 139.784 130.432 139.881 128.476C139.979 126.617 138.217 110.672 138.413 109.401C138.511 108.129 140.762 95.8036 140.567 89.1518C140.371 82.5001 137.826 81.5218 137.826 81.5218L132.148 78.9785L132.638 80.348Z" fill="#FBD15B"/>
<path fill-rule="evenodd" clip-rule="evenodd" d="M133.127 83.6738L133.911 83.9673C133.813 84.3586 133.715 84.7498 133.715 85.2389C133.715 85.1411 133.715 85.0433 133.617 85.0433L133.127 83.6738Z" fill="#FBD15B"/>
<path fill-rule="evenodd" clip-rule="evenodd" d="M124.318 81.7188C128.723 91.2073 126.569 99.9133 126.373 107.641C126.178 115.467 122.164 137.281 122.164 137.281C114.431 135.324 113.452 130.14 111.984 127.499C108.362 109.304 112.963 94.5332 116.291 89.0553C118.934 84.7512 124.318 81.7188 124.318 81.7188Z" fill="#FBD15B"/>
<path fill-rule="evenodd" clip-rule="evenodd" d="M119.423 93.7488C112.277 91.988 115.899 108.911 119.423 115.563C121.185 118.986 122.653 120.943 124.807 122.019C125.492 117.421 126.177 112.726 126.373 109.498C124.513 103.433 123.143 95.6073 119.423 93.7488Z" fill="#EABD4E"/>
<path d="M89.8613 155.376L93.8747 152.539H95.2451L94.6578 153.419L90.3508 156.354L89.8613 155.376Z" fill="#3C3C6D"/>
<path fill-rule="evenodd" clip-rule="evenodd" d="M83.4992 142.074C82.9119 137.379 80.7584 109.109 76.5493 105.881C76.5493 105.881 73.7106 102.848 72.438 104.12L51.8818 116.054L52.8607 128.869L61.7684 158.117L81.7373 146.574C83.0098 146.281 83.7929 144.618 83.4992 142.074Z" fill="#3C3C6D"/>
<path fill-rule="evenodd" clip-rule="evenodd" d="M55.6993 118.012C59.8106 121.24 62.062 149.51 62.6493 154.206C63.2366 158.901 59.9085 160.76 56.874 155.966C53.8395 151.173 51.0987 124.273 51.0987 118.599C51.0008 113.023 55.6993 118.012 55.6993 118.012Z" fill="#46467C"/>
<path fill-rule="evenodd" clip-rule="evenodd" d="M212.709 47.1855C207.913 49.5332 199.103 68.9017 200.571 73.4992C202.039 77.999 206.151 75.5535 208.989 71.5428C212.807 66.0649 216.722 54.1308 216.233 51.0984C215.744 48.0659 212.709 47.1855 212.709 47.1855Z" fill="#3C3C6D"/>
<path fill-rule="evenodd" clip-rule="evenodd" d="M213.884 147.648C213.884 147.648 206.445 156.257 204.487 156.844C202.53 157.43 204.291 159.485 205.858 159.583C207.424 159.68 212.22 159.485 213.591 158.115C214.961 156.746 218.974 155.278 218.974 155.278C218.974 150.779 217.898 147.942 217.898 147.942L213.884 147.648Z" fill="#56548C"/>
<path fill-rule="evenodd" clip-rule="evenodd" d="M211.242 86.5116C211.242 86.5116 210.263 105.684 210.654 111.945C211.046 118.205 212.514 149.41 212.514 149.41C216.528 150.291 219.171 149.41 219.171 149.41C220.541 125.542 220.443 118.597 220.835 115.075C221.226 111.554 221.716 101.185 221.716 101.185C224.554 95.3155 221.618 87.5877 220.149 85.7291C218.779 83.8705 211.242 86.5116 211.242 86.5116Z" fill="#3C3C6D"/>
<path fill-rule="evenodd" clip-rule="evenodd" d="M225.924 155.865C225.631 159.387 224.456 163.495 224.065 165.549C223.673 167.604 224.456 168.875 224.946 169.56C225.435 170.245 231.308 168.288 232.189 166.038C232.972 163.789 231.308 161.734 231.21 157.528C229.35 154.007 225.924 155.865 225.924 155.865Z" fill="#56548C"/>
<path fill-rule="evenodd" clip-rule="evenodd" d="M217.408 87.9785C217.408 87.9785 218.387 105.391 220.051 111.26C221.617 117.031 223.086 134.052 223.771 137.084C224.456 140.019 225.337 158.409 225.337 158.409C229.057 159.29 231.895 158.409 231.895 158.409C231.798 141.193 232.189 127.302 231.895 122.607C231.602 117.912 231.993 103.923 231.993 103.923C233.559 97.467 233.657 96.5867 231.993 92.2826C230.427 87.8806 223.477 84.4569 217.408 87.9785Z" fill="#3C3C6D"/>
<path fill-rule="evenodd" clip-rule="evenodd" d="M214.08 46.5996C219.464 46.404 231.798 49.143 235.909 54.3275C240.02 59.5119 234.049 68.7071 232.679 74.2828C231.308 79.8586 233.364 93.7491 233.364 95.0208C227.001 99.227 211.731 99.7161 210.067 93.4556C209.382 86.6082 210.948 78.5869 211.046 74.5763C210.654 66.0659 206.935 49.143 214.08 46.5996Z" fill="#F9FBFC"/>
<path fill-rule="evenodd" clip-rule="evenodd" d="M218.681 47.8713C215.255 59.9032 214.472 73.5002 214.765 78.5869C215.059 83.6735 215.255 100.303 215.255 100.303C211.242 98.151 209.48 94.336 209.48 92.5752C209.48 90.8144 210.948 75.8479 210.948 74.5762C210.948 73.4024 208.892 59.6097 209.48 53.447C210.067 47.2844 214.08 46.5996 214.08 46.5996H219.268L218.681 47.8713Z" fill="#3C3C6D"/>
<path fill-rule="evenodd" clip-rule="evenodd" d="M215.353 33.2969C213.003 34.0794 215.353 39.3617 215.353 39.3617V33.2969Z" fill="#3C3C6D"/>
<path fill-rule="evenodd" clip-rule="evenodd" d="M215.157 33.9827C215.157 33.9827 214.276 37.113 214.569 39.5585C214.863 42.004 215.157 46.7972 217.31 48.3623C219.464 49.9274 222.596 48.0688 224.652 46.4059C226.707 44.6451 228.861 41.4171 228.959 37.6021C228.959 33.6892 227.49 28.9939 221.911 29.1895C216.233 29.483 215.157 33.9827 215.157 33.9827Z" fill="#FFC8AF"/>
<path fill-rule="evenodd" clip-rule="evenodd" d="M226.022 42.9805C226.022 42.9805 225.631 47.9693 226.903 49.8279C227.001 51.0996 223.477 56.284 219.953 55.4037C217.898 54.9146 218.191 52.469 218.191 52.469C218.387 50.6105 218.191 46.3064 218.191 46.3064L226.022 42.9805Z" fill="#FFC8AF"/>
<path fill-rule="evenodd" clip-rule="evenodd" d="M213.786 29.8729C213.003 32.7097 213.884 33.7857 216.332 34.5683C218.779 35.3509 225.239 33.4923 225.239 33.4923C224.848 36.5247 225.729 38.1877 225.729 38.1877C226.805 35.1552 227.784 36.7204 227.882 39.1659C227.98 41.6114 226.61 41.5136 226.61 41.5136C226.707 43.5678 227.393 44.2525 227.393 44.2525C230.036 42.4918 233.56 30.4598 228.861 30.1664C228.763 25.9601 215.548 23.7102 213.786 29.8729Z" fill="#3C3C6D"/>
<path fill-rule="evenodd" clip-rule="evenodd" d="M227.197 49.0449C222.988 57.8488 220.834 65.7722 221.03 73.0109C221.128 80.2496 222.694 101.281 222.694 101.281C229.938 99.5203 234.832 97.466 236.202 95.0205C233.07 86.9014 231.993 81.4235 232.58 79.0758C233.168 76.7281 238.649 59.1204 235.811 53.8381C233.07 51.0013 227.197 49.0449 227.197 49.0449Z" fill="#3C3C6D"/>
<path fill-rule="evenodd" clip-rule="evenodd" d="M226.218 47.8711C226.218 48.0667 227.099 49.0449 227.099 49.0449C227.099 49.0449 225.337 52.9578 224.652 54.7185C223.967 56.4793 222.303 57.9466 222.303 57.9466L219.954 55.4033C223.184 53.6425 226.218 47.8711 226.218 47.8711Z" fill="#F9FBFC"/>
<path fill-rule="evenodd" clip-rule="evenodd" d="M218.485 49.1428C218.681 48.8494 219.17 54.0339 219.953 55.4033C218.485 56.7728 217.604 57.1641 217.604 57.1641C217.604 57.1641 216.723 51.2949 218.485 49.1428Z" fill="#F9FBFC"/>
<path fill-rule="evenodd" clip-rule="evenodd" d="M220.247 55.209L218.289 56.4807C218.778 58.0458 218.778 59.1218 218.778 59.1218H220.638L222.009 57.1654L220.247 55.209Z" fill="#EC827D"/>
<path fill-rule="evenodd" clip-rule="evenodd" d="M218.681 59.1213C215.94 73.5009 216.234 82.4026 216.234 82.4026L217.604 86.4132L220.639 82.0113C220.639 82.0113 218.387 65.0884 220.541 59.2191C219.366 58.3388 218.681 59.1213 218.681 59.1213Z" fill="#EC827D"/>
<path fill-rule="evenodd" clip-rule="evenodd" d="M89.0785 102.457C83.3032 102.163 70.6758 106.174 66.2709 111.749C61.866 117.325 67.4455 126.227 68.9138 132.194C70.3821 138.161 68.1308 153.128 68.1308 154.595C74.8849 159.192 91.3299 159.779 93.1897 153.128C93.9728 145.791 88.5891 138.063 88.5891 133.759C88.8827 124.466 96.7137 105.195 89.0785 102.457Z" fill="#F9FBFC"/>
<path fill-rule="evenodd" clip-rule="evenodd" d="M84.0863 103.727C87.1208 116.737 86.142 130.823 85.4568 136.301C84.7715 141.779 84.6737 160.169 84.6737 160.169C89.0786 157.919 91.2321 153.811 91.33 151.855C91.4278 149.996 89.6659 134.051 89.8617 132.78C89.9595 131.508 93.875 116.444 93.6792 109.792C93.4835 103.14 89.0786 102.357 89.0786 102.357H83.499L84.0863 103.727Z" fill="#56548C"/>
<path fill-rule="evenodd" clip-rule="evenodd" d="M89.2745 88.9564C89.2745 88.9564 89.764 92.2823 89.8619 94.9234C89.9597 99.2275 89.1766 102.749 86.9253 104.412C84.576 106.075 80.269 104.999 78.1155 103.14C75.962 101.282 74.5915 96.8798 74.4937 92.7714C74.4937 88.5651 76.1577 83.4784 82.1288 83.7719C88.1978 84.0654 89.2745 88.9564 89.2745 88.9564Z" fill="#FFC8AF"/>
<path fill-rule="evenodd" clip-rule="evenodd" d="M76.1575 98.4453C76.1575 98.4453 76.6469 103.825 75.1786 105.782C75.0808 107.151 78.8005 112.727 82.618 111.749C84.8694 111.162 84.5758 108.619 84.5758 108.619C84.38 106.662 84.5758 101.967 84.5758 101.967L76.1575 98.4453Z" fill="#FFC8AF"/>
<path fill-rule="evenodd" clip-rule="evenodd" d="M88.7849 84.6526C85.4568 79.9573 73.0252 83.8701 74.1019 88.272C69.3055 89.8371 72.4378 102.26 78.1153 103.141C78.1153 103.141 80.7582 100.5 80.5624 99.8148C79.9751 100.108 79.2899 100.01 78.9962 98.5431C78.4089 95.9998 80.073 94.3369 81.9328 97.1737C81.9328 97.1737 82.2265 94.9238 80.954 91.7935C80.954 91.7935 87.4145 91.2066 89.4701 89.348C90.5469 88.4676 90.6448 87.2938 88.7849 84.6526Z" fill="#3C3C6D"/>
<path fill-rule="evenodd" clip-rule="evenodd" d="M74.9826 104.9C79.3875 114.389 78.0171 123.193 77.8213 131.018C77.6255 138.844 73.6122 160.658 73.6122 160.658C65.8791 158.702 64.9003 153.517 63.432 150.876C59.8101 132.681 62.1594 116.052 65.5855 110.574C68.2284 106.368 74.9826 104.9 74.9826 104.9Z" fill="#56548C"/>
<path fill-rule="evenodd" clip-rule="evenodd" d="M77.7236 133.074C75.4722 126.618 73.5145 117.716 69.6969 115.858C62.5512 114.097 64.7047 131.998 68.2286 138.747C70.3821 142.856 72.5356 145.106 76.0595 146.084C76.8426 141.486 77.5278 136.595 77.7236 133.074Z" fill="#3C3C6D"/>
<path fill-rule="evenodd" clip-rule="evenodd" d="M75.9618 103.727C75.9618 103.922 74.9829 104.998 74.9829 104.998C74.9829 104.998 76.9406 109.302 77.6259 111.161C78.3111 113.019 80.1709 114.585 80.1709 114.585L82.716 111.846C79.192 109.987 75.9618 103.727 75.9618 103.727Z" fill="#F9FBFC"/>
<path fill-rule="evenodd" clip-rule="evenodd" d="M84.2822 105.097C84.0865 104.804 83.4991 110.379 82.6182 111.847C84.1843 113.412 85.1632 113.803 85.1632 113.803C85.1632 113.803 86.24 107.543 84.2822 105.097Z" fill="#F9FBFC"/>
<path d="M74.5913 154.106L138.511 190.984L217.604 145.302L153.684 108.424L74.5913 154.106Z" fill="#83C9FF"/>
<path d="M79.3876 155.18C78.3108 155.767 76.5489 155.767 75.4721 155.18C74.3954 154.593 74.3954 153.517 75.4721 152.93C76.5489 152.344 78.3108 152.344 79.3876 152.93C80.4643 153.615 80.4643 154.593 79.3876 155.18Z" fill="#83C9FF"/>
<path d="M216.723 146.475C215.646 147.062 213.884 147.062 212.808 146.475C211.731 145.888 211.731 144.812 212.808 144.225C213.884 143.638 215.646 143.638 216.723 144.225C217.8 144.812 217.8 145.79 216.723 146.475Z" fill="#83C9FF"/>
<path d="M216.233 206.44C215.45 206.929 214.178 206.929 213.394 206.44C212.611 205.951 212.611 205.266 213.394 204.777C214.178 204.288 215.45 204.288 216.233 204.777C217.016 205.266 217.016 205.951 216.233 206.44Z" fill="#878CF0"/>
<path d="M212.024 145.301L212.807 205.558H216.82L217.603 145.301H212.024Z" fill="#878CF0"/>
<path d="M140.273 190.297C139.197 190.884 137.435 190.884 136.358 190.297C135.281 189.711 135.281 188.635 136.358 188.048C137.435 187.461 139.197 187.461 140.273 188.048C141.35 188.732 141.35 189.711 140.273 190.297Z" fill="#83C9FF"/>
<path d="M139.686 250.36C138.903 250.849 137.631 250.849 136.848 250.36C136.064 249.871 136.064 249.186 136.848 248.697C137.631 248.208 138.903 248.208 139.686 248.697C140.469 249.088 140.469 249.871 139.686 250.36Z" fill="#878CF0"/>
<path d="M135.575 189.223L136.26 249.48H140.274L141.057 189.223H135.575Z" fill="#878CF0"/>
<path d="M155.544 111.163C154.467 111.75 152.705 111.75 151.628 111.163C150.552 110.576 150.552 109.5 151.628 108.913C152.705 108.326 154.467 108.326 155.544 108.913C156.621 109.598 156.621 110.576 155.544 111.163Z" fill="#83C9FF"/>
<path d="M155.054 171.225C154.271 171.714 152.999 171.714 152.216 171.225C151.433 170.736 151.433 170.051 152.216 169.562C152.999 169.073 154.271 169.073 155.054 169.562C155.838 169.953 155.838 170.736 155.054 171.225Z" fill="#83C9FF"/>
<path d="M150.846 110.088L151.629 170.345H155.642L156.327 110.088H150.846Z" fill="#83C9FF"/>
<path d="M238.16 131.412C238.16 138.357 233.951 144.911 225.435 149.802L146.342 195.387C127.45 206.245 94.4624 204.875 72.6337 192.354C60.9852 185.605 54.8183 176.996 54.6226 168.779V172.399C54.8183 180.616 60.9852 189.224 72.6337 195.974C94.4624 208.592 127.45 209.962 146.342 199.006L225.435 153.422C233.951 148.531 238.16 141.879 238.16 134.934V131.412Z" fill="#A8B0F4"/>
<path d="M72.7322 192.452C94.5609 205.07 127.549 206.44 146.441 195.484L225.533 149.9C234.049 145.009 238.259 138.357 238.259 131.509C238.259 123.097 232.19 114.293 220.247 107.348C198.419 94.7289 165.431 93.3594 146.539 104.315L67.4463 149.9C58.6365 154.986 54.5253 161.834 54.721 168.877C54.9168 177.094 60.9858 185.702 72.7322 192.452Z" fill="#878CF0"/>
<path fill-rule="evenodd" clip-rule="evenodd" d="M214.08 144.715L202.137 137.867L182.071 149.508L180.504 149.703V150.095C180.504 150.29 180.602 150.388 180.7 150.486L192.838 157.529C193.23 157.725 193.817 157.725 194.306 157.431L214.471 145.791C214.765 145.595 214.863 145.399 214.863 145.302V144.617L214.08 144.715Z" fill="#3C3C6D"/>
<path fill-rule="evenodd" clip-rule="evenodd" d="M202.137 137.183L180.504 149.704L175.414 133.661C175.218 133.172 175.414 132.585 175.806 132.39L196.264 120.553C196.656 120.358 197.047 120.553 197.243 121.043L202.137 137.183Z" fill="#56548C"/>
<path fill-rule="evenodd" clip-rule="evenodd" d="M200.963 136.594L180.994 148.137L176.393 133.953L196.656 122.312L200.963 136.594Z" fill="#BEE1F4"/>
<path fill-rule="evenodd" clip-rule="evenodd" d="M214.373 145.205L194.208 156.845C193.817 157.139 193.132 157.139 192.74 156.943L180.406 149.802L202.039 137.281L214.373 144.422C214.862 144.52 214.862 144.911 214.373 145.205Z" fill="#56548C"/>
<path fill-rule="evenodd" clip-rule="evenodd" d="M214.373 145.205L194.208 156.845C193.817 157.139 193.132 157.139 192.74 156.943L180.406 149.802L202.039 137.281L214.373 144.422C214.862 144.52 214.862 144.911 214.373 145.205Z" fill="#56548C"/>
<path fill-rule="evenodd" clip-rule="evenodd" d="M208.109 141.881L188.531 153.13L182.658 149.804L202.236 138.457L208.109 141.881Z" fill="#112B46"/>
<path fill-rule="evenodd" clip-rule="evenodd" d="M205.367 148.921L200.669 151.66C200.375 151.856 199.984 151.856 199.788 151.66L197.536 150.388C197.341 150.291 197.341 149.997 197.634 149.899L202.333 147.16C202.626 146.965 203.018 146.965 203.214 147.16L205.465 148.432C205.661 148.53 205.661 148.726 205.367 148.921Z" fill="#3C3C6D"/>
<path d="M68.5225 179.832C69.0119 178.853 78.3111 161.441 78.3111 161.441L92.1131 165.941C92.1131 165.941 83.9885 187.364 82.9118 186.875C81.835 186.483 68.5225 179.832 68.5225 179.832Z" fill="#F9FBFC"/>
<path d="M97.5947 142.954L108.95 134.346L129.506 136.204L117.661 145.008L97.5947 142.954Z" fill="#F9FBFC"/>
<path d="M111.397 176.31H111.201C111.201 176.31 111.103 176.31 111.103 176.212L101.608 170.734C101.217 170.538 100.532 170.538 100.14 170.832L87.3168 178.168C87.219 178.168 87.219 178.266 87.1211 178.266H86.9253V178.56C86.9253 178.657 87.0232 178.853 87.219 178.951L96.714 184.429C97.1055 184.624 97.7907 184.625 98.1823 184.331L111.005 176.995C111.201 176.897 111.397 176.701 111.397 176.505V176.31Z" fill="#A5B7C6"/>
<path d="M96.8117 184.234L87.3166 178.756C86.9251 178.56 87.023 178.169 87.4145 177.875L100.238 170.539C100.629 170.245 101.314 170.245 101.706 170.441L111.201 175.919C111.593 176.115 111.495 176.506 111.103 176.799L98.2799 184.136C97.8884 184.429 97.2032 184.429 96.8117 184.234Z" fill="#56548C"/>
<path d="M97.7907 183.648L88.3936 178.268L101.119 170.932L110.418 176.312L97.7907 183.648Z" fill="#FBD15B"/>
<path fill-rule="evenodd" clip-rule="evenodd" d="M90.7423 103.142C96.126 105.587 94.8535 119.869 98.9648 123.488C101.314 125.543 112.767 128.184 115.899 128.184C117.172 130.727 114.92 133.564 114.92 133.564C95.343 131.999 93.9725 131.51 89.4698 123.684C86.1416 117.521 83.5966 101.479 90.7423 103.142Z" fill="#56548C"/>
<path d="M115.41 129.063C115.41 129.063 120.696 128.476 121.675 128.867C122.653 129.356 124.905 130.726 125.59 131.312C126.177 131.997 128.233 133.66 126.569 134.051C126.079 134.149 123.143 133.269 122.36 132.975C121.577 132.584 120.108 132.193 120.108 132.584C120.108 132.975 123.828 133.954 123.339 134.736C122.849 135.519 121.968 134.932 119.325 134.051C116.682 133.171 114.137 132.78 114.137 132.78C113.55 130.823 114.137 129.649 115.41 129.063Z" fill="#FFC8AF"/>
<path d="M106.992 132.096L103.174 136.889C103.076 136.987 103.076 137.28 103.272 137.378C103.37 137.476 103.664 137.476 103.761 137.28L107.579 132.487C107.677 132.389 107.677 132.096 107.481 131.998C107.285 131.9 107.09 131.9 106.992 132.096Z" fill="#3C3C6D"/>
<path fill-rule="evenodd" clip-rule="evenodd" d="M99.9438 134.541C101.608 135.421 104.447 134.834 104.447 135.226C104.447 135.519 103.859 136.497 102.685 136.497C101.51 136.4 99.9438 134.541 99.9438 134.541Z" fill="#FFC8AF"/>
<path fill-rule="evenodd" clip-rule="evenodd" d="M95.2451 137.084C96.224 136.008 98.6712 133.563 100.727 134.834C102.685 136.106 104.055 136.106 104.642 136.302C105.327 135.323 106.306 136.106 106.894 137.475C107.481 138.845 103.37 140.606 102.685 141.095C101.999 141.682 95.2451 140.508 95.2451 140.508V137.084Z" fill="#FFC8AF"/>
<path fill-rule="evenodd" clip-rule="evenodd" d="M69.6969 111.847C75.0807 114.488 76.6469 131.117 80.7581 135.03C83.1074 137.28 92.4066 135.519 95.539 135.519C96.8115 138.356 95.0496 141.682 95.0496 141.682C77.1363 143.834 72.5356 143.345 68.0329 134.737C64.7047 127.987 62.5512 109.988 69.6969 111.847Z" fill="#56548C"/>
<path fill-rule="evenodd" clip-rule="evenodd" d="M220.442 70.8586C219.953 69.0978 218.876 67.4349 217.408 66.4567C217.016 66.1632 216.527 65.9676 216.135 65.7719C215.939 65.6741 215.743 65.5763 215.548 65.5763C215.352 65.5763 215.058 65.4785 214.862 65.5763C214.765 65.6741 214.765 65.7719 214.862 65.8698C215.058 66.2611 215.45 66.5545 215.841 66.7502C216.527 67.1414 216.82 67.7284 217.016 68.4131C216.331 67.7284 215.743 67.0436 214.96 66.4567C214.177 65.9676 213.296 65.5763 212.415 65.2828C212.024 65.185 211.632 64.9894 211.241 65.0872C210.751 65.185 210.555 65.5763 210.849 65.8698C211.143 66.1632 211.534 66.3589 211.926 66.5545C212.415 66.848 212.807 67.1414 213.296 67.5327C213.492 67.7284 213.688 67.924 213.884 68.1196C213.981 68.3153 214.079 68.6087 214.275 68.7066C213.786 68.5109 213.296 68.2175 212.807 68.0218C212.415 67.8262 211.926 67.7284 211.534 67.4349C211.143 67.2393 210.849 66.9458 210.458 66.7502C210.262 66.6523 210.066 66.5545 209.87 66.6523C209.772 66.7502 209.674 66.9458 209.674 67.0436C209.674 67.2393 209.772 67.3371 209.87 67.5327C210.066 67.924 210.36 68.1196 210.751 68.3153C211.045 68.5109 211.339 68.7066 211.632 68.9022C212.024 69.1957 212.415 69.3913 212.709 69.6848C212.905 69.7826 213.101 69.9782 213.198 70.1739C213.296 70.2717 213.492 70.5651 213.688 70.663C212.905 70.2717 212.22 69.7826 211.534 69.3913C211.241 69.1957 210.947 69 210.751 68.8044C210.458 68.5109 210.164 68.3153 209.772 68.3153C209.674 68.3153 209.577 68.3153 209.479 68.3153C209.381 68.4131 209.381 68.5109 209.381 68.6087C209.381 68.7066 209.479 68.8044 209.577 68.9022C209.968 69.4891 210.458 70.076 211.045 70.5652C211.534 70.9564 212.22 71.6412 212.807 71.739C211.926 71.5434 211.143 71.1521 210.458 70.5652C210.164 70.2717 209.772 69.9782 209.381 69.8804C209.283 69.8804 209.087 69.8804 208.989 69.9782C208.891 70.0761 208.989 70.2717 209.087 70.3695C209.577 71.1521 210.262 72.1303 211.143 72.5216C211.632 72.7172 212.024 73.1085 212.513 73.4019C213.003 73.6954 213.492 73.9889 213.982 74.2823C215.156 74.9671 216.527 75.6518 217.799 76.0431C218.191 76.1409 218.582 76.2387 218.974 76.1409C219.365 76.1409 219.561 76.0431 219.855 75.7496C220.344 75.2605 220.736 74.6736 220.931 73.9889C221.127 73.2063 221.029 72.3259 220.834 71.5434C220.638 71.5434 220.54 71.1521 220.442 70.8586Z" fill="#FFC8AF"/>
<path fill-rule="evenodd" clip-rule="evenodd" d="M208.598 71.5465C208.207 69.3945 207.717 66.8511 206.347 65.0904C206.249 64.9925 206.249 64.8947 206.151 64.8947C205.955 64.7969 205.759 65.0904 205.759 65.286C205.662 65.8729 205.955 66.5577 206.151 67.1446C206.347 67.8293 206.347 68.6119 206.249 69.2966C206.249 69.1988 206.151 69.1988 206.151 69.101C205.074 67.6337 204.487 65.6773 203.802 64.0143C203.704 63.8187 203.606 63.623 203.41 63.623C203.117 63.623 203.019 64.0143 203.019 64.3078C203.019 65.6773 203.312 66.7533 203.9 68.025C203.312 67.1446 202.823 66.1664 202.431 65.1882C202.333 64.9925 202.236 64.6991 201.942 64.6013C200.865 64.5034 202.236 68.5141 202.431 69.101C201.844 68.3184 201.55 67.5359 201.355 66.5577C201.355 66.362 201.257 66.1664 201.159 66.0686C201.061 65.8729 200.767 65.6773 200.571 65.8729C200.474 66.0686 200.376 66.4598 200.376 66.6555C200.278 67.2424 200.474 67.8293 200.669 68.4162C200.963 69.1988 201.452 69.9814 201.746 70.7639C201.257 70.177 200.865 69.5901 200.376 69.101C200.278 69.0032 200.18 68.8075 199.984 68.9053C199.788 68.9053 199.691 69.1988 199.788 69.3945C200.18 70.6661 200.865 71.9378 201.746 72.916C202.236 73.4051 202.725 73.7964 203.117 74.2855C203.508 74.7746 204.095 75.1659 204.781 75.4593C205.466 75.7528 206.151 75.8506 206.836 75.8506C207.424 75.8506 207.717 75.655 208.011 75.2637C208.305 74.8724 208.598 74.4811 208.598 73.992C208.696 73.2094 208.696 72.4269 208.598 71.5465Z" fill="#FFC8AF"/>
<path fill-rule="evenodd" clip-rule="evenodd" d="M220.834 70.4683L229.742 73.5007C228.861 61.8601 230.916 49.5347 235.811 53.9366C238.649 56.48 238.747 78.1961 236.594 81.4242C234.44 84.6523 225.141 80.0547 218.681 76.7288C218.485 73.9898 220.834 70.4683 220.834 70.4683Z" fill="#3C3C6D"/>
<path fill-rule="evenodd" clip-rule="evenodd" d="M62.845 135.618C65.0964 135.227 68.033 135.227 70.1865 135.814C73.8083 136.89 75.7661 139.14 76.5492 142.564C77.4301 145.987 77.7238 151.661 75.6682 154.889C74.3957 156.845 71.7527 156.552 69.795 155.965C67.4457 155.378 64.3133 154.302 62.4535 152.835C59.7127 150.781 58.3422 146.379 58.1465 143.151C58.0486 140.412 59.419 136.205 62.845 135.618Z" fill="#FFC8AF"/>
<path fill-rule="evenodd" clip-rule="evenodd" d="M60.0062 136.206C57.8527 137.674 58.0485 140.902 58.1464 143.152C58.3421 146.38 59.7125 150.782 62.4534 152.836C63.9217 153.912 64.0196 154.108 65.9773 154.695C66.1731 154.597 66.5646 154.303 67.1519 153.912C68.2287 153.129 68.816 151.662 68.4245 150.39C68.0329 149.119 67.935 147.554 68.7181 147.162C69.8928 146.478 70.6758 148.825 70.6758 148.825C71.3611 148.532 72.4378 147.749 71.8505 146.38C71.2632 145.01 71.8505 143.543 71.8505 143.543C74.004 143.543 74.9829 140.706 75.6681 140.315C77.1364 139.532 77.6258 139.141 77.3321 137.869C77.1364 136.989 76.8427 136.109 76.1575 135.424C75.3744 134.739 72.9272 133.761 71.8505 133.467C65.9773 132 61.3766 133.076 60.0062 136.206Z" fill="#56548C"/>
<path fill-rule="evenodd" clip-rule="evenodd" d="M73.2213 157.626C67.9354 155.67 61.7685 152.149 53.1545 158.996C44.5405 165.843 46.8897 193.722 49.0433 200.081C51.1968 206.439 65.3903 206.928 69.6973 206.439C74.0044 205.95 69.7952 198.515 71.1656 193.624C72.5361 188.733 83.793 161.539 73.2213 157.626Z" fill="#56548C"/>
<path fill-rule="evenodd" clip-rule="evenodd" d="M76.0598 158.703C78.3112 160.073 84.0865 176.996 84.0865 176.996L86.1421 163.692C86.1421 163.692 90.9386 161.442 93.6794 164.475C91.8196 177.387 90.7428 190.593 86.1421 191.375C81.5415 192.158 74.0042 179.93 69.893 173.963C65.7817 167.898 69.2077 154.595 76.0598 158.703Z" fill="#56548C"/>
<path d="M90.0576 155.768L94.3646 152.54L95.4414 152.246L94.952 152.931L90.3513 156.355L90.0576 155.768Z" fill="#3C3C6D"/>
<path fill-rule="evenodd" clip-rule="evenodd" d="M87.1204 164.475C87.1204 164.083 85.4564 159.975 86.1416 158.508C86.8268 157.04 87.6099 156.062 87.6099 156.062C88.2951 153.714 90.2528 154.008 91.819 155.475C93.3852 157.04 95.5387 160.758 92.7 163.888C89.8613 166.431 87.1204 164.475 87.1204 164.475Z" fill="#FFC8AF"/>
<path fill-rule="evenodd" clip-rule="evenodd" d="M32.3042 168.484C32.3042 168.484 32.3042 168.582 32.3042 168.68C30.6402 168.484 28.6824 169.952 27.8993 172.006C26.5289 175.625 28.3888 214.851 31.7169 213.971C32.7937 215.047 56.1886 228.057 56.1886 228.057L57.559 182.962C57.559 183.06 41.0161 168.68 32.3042 168.484Z" fill="#46467C"/>
<path fill-rule="evenodd" clip-rule="evenodd" d="M56.189 228.057C52.8608 228.937 50.9031 189.711 52.3714 186.092C53.8397 182.473 58.8319 180.712 59.7129 186.679C60.5939 192.646 65.0966 225.905 56.189 228.057Z" fill="#EC827D"/>
<path fill-rule="evenodd" clip-rule="evenodd" d="M148.496 111.066C150.16 111.947 152.998 111.36 152.998 111.751C152.998 112.142 152.411 113.023 151.236 113.023C150.062 113.023 148.496 111.066 148.496 111.066Z" fill="#FFC8AF"/>
<path fill-rule="evenodd" clip-rule="evenodd" d="M143.797 113.707C144.776 112.631 147.223 110.186 149.279 111.457C151.236 112.729 152.607 112.729 153.194 112.925C153.879 111.946 154.858 112.729 155.445 114.098C156.033 115.468 151.921 117.229 151.236 117.718C150.551 118.207 143.797 117.131 143.797 117.131V113.707Z" fill="#FFC8AF"/>
<path fill-rule="evenodd" clip-rule="evenodd" d="M231.7 169.365C231.7 169.365 214.276 163.398 206.836 164.278C199.495 165.158 201.061 197.048 201.061 197.048C201.061 197.048 204.976 197.733 208.892 197.048C210.556 188.146 213.199 178.462 213.199 178.462C213.199 178.462 229.252 183.06 231.602 180.81C234.147 178.462 231.7 169.365 231.7 169.365Z" fill="#3C3C6D"/>
<path fill-rule="evenodd" clip-rule="evenodd" d="M209.871 209.863C209.871 210.059 209.968 210.254 210.164 210.45C210.458 210.744 210.752 210.939 211.241 211.037C211.828 211.233 212.611 211.233 213.297 211.037L221.911 208.787C223.379 208.396 224.945 208.885 225.337 209.765L227.197 215.048C227.392 215.732 228.469 216.124 229.546 216.124C229.644 216.124 229.839 216.124 229.937 216.124C230.72 216.026 231.308 215.83 231.699 215.439C231.895 215.243 231.993 215.048 231.993 214.852C231.993 214.754 231.993 214.656 231.993 214.559L231.308 210.841L231.014 209.178C230.818 208.298 232.189 207.516 233.755 207.613L243.25 208.2C243.348 208.2 243.446 208.2 243.544 208.2C243.935 208.2 244.327 208.102 244.62 208.005C245.306 207.809 245.795 207.418 245.893 206.929C246.089 206.146 245.306 205.461 244.033 205.363L234.734 204.287C234.342 204.287 233.951 204.092 233.657 203.994C232.874 203.603 232.482 202.918 232.972 202.331L236.3 198.223L236.985 197.342C237.083 197.147 237.181 197.049 237.181 196.853V196.755C237.181 196.266 236.692 195.777 235.908 195.484C234.734 195.19 233.363 195.386 232.678 196.071L227.98 200.864C227.197 201.646 225.337 201.842 224.26 201.255L217.31 197.538C216.821 197.244 216.233 197.147 215.646 197.147C215.059 197.147 214.373 197.244 213.884 197.538C213.395 197.831 213.101 198.223 213.199 198.614C213.199 198.907 213.395 199.201 213.786 199.494L214.373 199.886L220.149 203.603C221.225 204.287 220.932 205.266 219.561 205.755C219.561 205.755 219.561 205.755 219.463 205.755L211.241 208.494C210.36 208.885 209.871 209.374 209.871 209.863Z" fill="#3C3C6D"/>
<path fill-rule="evenodd" clip-rule="evenodd" d="M233.461 204.19L236.79 200.081C236.887 199.885 236.985 199.788 236.985 199.592V197.146C236.985 197.342 236.887 197.44 236.79 197.636L236.104 198.516L232.776 202.624C232.385 203.211 232.678 203.798 233.461 204.19Z" fill="#3C3C6D"/>
<path fill-rule="evenodd" clip-rule="evenodd" d="M230.916 209.275L231.21 210.938C231.699 210.449 232.58 210.155 233.559 210.253L243.054 210.84C243.152 210.84 243.25 210.84 243.348 210.84C244.523 210.84 245.599 210.351 245.795 209.666V207.123C245.697 207.612 245.208 207.906 244.523 208.199C244.229 208.297 243.837 208.395 243.446 208.395C243.348 208.395 243.25 208.395 243.152 208.395L233.657 207.808C231.993 207.71 230.721 208.395 230.916 209.275Z" fill="#3C3C6D"/>
<path fill-rule="evenodd" clip-rule="evenodd" d="M225.924 214.068V214.557C226.022 214.362 226.022 214.166 225.924 214.068Z" fill="#3C3C6D"/>
<path fill-rule="evenodd" clip-rule="evenodd" d="M209.871 209.865V212.408C209.871 212.604 209.968 212.799 210.164 212.995C210.752 213.68 212.122 213.973 213.297 213.68L221.911 211.43C223.379 211.038 224.945 211.528 225.337 212.408L227.197 217.69C227.392 218.375 228.469 218.766 229.546 218.766C229.644 218.766 229.839 218.766 229.937 218.766C231.112 218.668 231.895 218.179 231.993 217.495C231.993 217.495 231.993 217.397 231.993 217.201V214.951C231.993 215.147 231.797 215.343 231.699 215.538C231.308 215.929 230.72 216.125 229.937 216.223C229.839 216.223 229.644 216.223 229.546 216.223C228.371 216.223 227.392 215.734 227.197 215.147L225.337 209.865C225.043 208.984 223.379 208.495 221.911 208.886L213.297 211.136C212.611 211.332 211.828 211.332 211.241 211.136C210.752 211.038 210.458 210.843 210.164 210.549C209.968 210.256 209.871 210.06 209.871 209.865Z" fill="#3C3C6D"/>
<path fill-rule="evenodd" clip-rule="evenodd" d="M213.003 198.908V201.354C213.003 201.647 213.199 202.038 213.59 202.332L219.366 205.951C220.638 205.462 220.932 204.484 219.953 203.799L214.178 200.082L213.59 199.691C213.199 199.495 213.003 199.202 213.003 198.908Z" fill="#3C3C6D"/>
<path fill-rule="evenodd" clip-rule="evenodd" d="M210.066 214.46C210.164 215.634 211.143 216.515 212.415 216.417C213.59 216.319 214.471 215.341 214.471 214.167C214.373 212.993 213.394 212.113 212.122 212.211C210.849 212.211 209.968 213.287 210.066 214.46Z" fill="#3C3C6D"/>
<path fill-rule="evenodd" clip-rule="evenodd" d="M227.295 219.841C227.392 221.015 228.371 221.895 229.644 221.798C230.818 221.7 231.699 220.722 231.699 219.548C231.602 218.374 230.623 217.494 229.35 217.591C228.078 217.591 227.197 218.667 227.295 219.841Z" fill="#3C3C6D"/>
<path fill-rule="evenodd" clip-rule="evenodd" d="M241.391 212.013C241.488 213.187 242.467 214.067 243.74 213.97C244.914 213.872 245.795 212.894 245.795 211.72C245.698 210.546 244.719 209.665 243.446 209.763C242.272 209.861 241.293 210.839 241.391 212.013Z" fill="#3C3C6D"/>
<path fill-rule="evenodd" clip-rule="evenodd" d="M233.461 203.017C233.559 204.191 234.538 205.071 235.811 204.973C236.985 204.876 237.866 203.897 237.866 202.724C237.768 201.55 236.79 200.669 235.517 200.767C234.245 200.865 233.461 201.745 233.461 203.017Z" fill="#3C3C6D"/>
<path fill-rule="evenodd" clip-rule="evenodd" d="M212.22 203.898C212.318 205.072 213.297 205.952 214.569 205.854C215.744 205.757 216.625 204.778 216.625 203.604C216.527 202.431 215.548 201.55 214.275 201.648C213.003 201.746 212.122 202.724 212.22 203.898Z" fill="#3C3C6D"/>
<path fill-rule="evenodd" clip-rule="evenodd" d="M224.26 207.223C224.26 210.06 230.329 209.473 230.329 207.223V187.365H224.26V207.223Z" fill="#56548C"/>
<path fill-rule="evenodd" clip-rule="evenodd" d="M203.215 187.166C204.781 188.634 223.281 198.905 226.805 200.763C227.197 200.959 227.784 201.057 228.176 200.763C230.133 199.492 231.112 195.188 227.393 192.449C226.316 191.666 206.543 178.363 203.41 179.243H203.312C203.215 179.243 203.117 179.341 203.019 179.439C201.453 180.71 201.55 185.699 203.215 187.166Z" fill="#56548C"/>
<path fill-rule="evenodd" clip-rule="evenodd" d="M203.312 179.244C206.445 178.364 226.218 191.569 227.295 192.45C231.014 195.189 230.036 199.591 228.078 200.765L250.004 188.048L250.788 187.657C252.549 186.189 253.235 182.179 249.613 179.538C248.536 178.755 228.274 165.158 225.533 166.43L225.337 166.527L203.312 179.244Z" fill="#3C3C6D"/>
<path fill-rule="evenodd" clip-rule="evenodd" d="M192.349 148.824C192.349 148.824 191.86 147.356 190.783 146.574C189.706 145.791 188.238 144.715 187.455 145.106C186.769 145.498 189.119 147.356 189.119 147.356C186.574 146.378 184.127 146.182 183.05 146.085C181.973 145.987 178.743 147.259 179.428 148.237C180.015 149.215 182.56 150.584 183.735 151.171C184.812 151.758 188.336 152.932 190.783 152.639C193.328 152.247 192.349 148.824 192.349 148.824Z" fill="#FFC8AF"/>
<path fill-rule="evenodd" clip-rule="evenodd" d="M231.699 171.712C232.483 183.45 219.17 189.026 200.082 183.744C200.082 183.744 198.81 189.124 195.09 205.46C189.804 206.242 186.476 205.46 186.476 205.46C186.476 205.46 185.888 173.57 195.09 172.201C204.291 170.831 222.596 170.636 222.596 170.146L231.699 171.712Z" fill="#56548C"/>
<path fill-rule="evenodd" clip-rule="evenodd" d="M223.868 105.976C221.617 105.585 218.68 105.585 216.527 106.171C212.905 107.247 210.947 109.497 210.164 112.921C209.283 116.345 208.99 122.018 211.045 125.246C212.318 127.203 214.961 126.909 216.918 126.322C219.268 125.736 222.4 124.66 224.26 123.192C227.001 121.138 228.371 116.736 228.567 113.508C228.665 110.671 227.196 106.465 223.868 105.976Z" fill="#FFC8AF"/>
<path fill-rule="evenodd" clip-rule="evenodd" d="M226.609 106.564C228.763 108.031 228.567 111.259 228.469 113.509C228.274 116.737 226.903 121.139 224.162 123.193C222.694 124.269 222.596 124.465 220.638 125.052C220.443 124.954 220.051 124.661 219.464 124.269C218.387 123.487 217.8 122.019 218.191 120.748C218.583 119.476 218.681 117.911 217.898 117.52C216.723 116.835 215.94 119.183 215.94 119.183C215.255 118.889 214.178 118.107 214.765 116.737C215.352 115.368 214.765 113.9 214.765 113.9C212.612 113.9 211.633 111.064 210.948 110.672C209.479 109.89 208.99 109.498 209.283 108.227C209.479 107.346 209.773 106.466 210.458 105.781C211.241 105.096 213.688 104.118 214.765 103.923C220.736 102.357 225.239 103.434 226.609 106.564Z" fill="#EC827D"/>
<path fill-rule="evenodd" clip-rule="evenodd" d="M212.514 127.89C217.115 124.662 223.183 120.455 231.7 127.303C240.314 134.15 239.628 164.083 237.573 170.442C235.419 176.8 221.226 177.289 216.919 176.8C212.71 176.213 216.821 168.877 215.45 163.986C214.08 159.095 203.312 134.346 212.514 127.89Z" fill="#F9FBFC"/>
<path fill-rule="evenodd" clip-rule="evenodd" d="M210.654 134.344C210.165 134.638 209.577 135.616 208.892 136.985C208.794 142.855 210.85 149.995 212.71 155.571C214.178 153.517 215.548 151.267 216.821 149.506C220.834 143.539 217.408 130.236 210.654 134.344Z" fill="#DCE6EA"/>
<path fill-rule="evenodd" clip-rule="evenodd" d="M254.408 138.846C254.408 138.846 254.408 138.944 254.408 139.041C256.073 138.846 258.03 140.313 258.813 142.367C260.184 145.987 258.324 185.213 254.996 184.332C253.919 185.408 230.524 198.418 230.524 198.418L229.154 153.323C229.056 153.323 245.599 139.041 254.408 138.846Z" fill="#46467C"/>
<path fill-rule="evenodd" clip-rule="evenodd" d="M230.426 198.416C233.755 199.297 235.712 160.071 234.244 156.451C232.776 152.832 227.783 151.071 226.902 157.038C226.119 162.908 221.519 196.167 230.426 198.416Z" fill="#56548C"/>
<path fill-rule="evenodd" clip-rule="evenodd" d="M211.045 129.846C208.794 131.215 202.431 150.29 202.431 150.29L192.741 147.454C191.468 147.454 188.629 149.703 189.217 152.442C195.286 157.04 198.614 158.703 203.214 159.485C207.815 160.268 213.101 150.975 217.212 145.008C221.324 139.041 217.897 125.64 211.045 129.846Z" fill="#F9FBFC"/>
<path fill-rule="evenodd" clip-rule="evenodd" d="M167.681 171.613L155.739 164.766L135.672 176.406L134.106 176.602V176.993C134.106 177.189 134.204 177.287 134.302 177.384L146.44 184.428C146.831 184.623 147.419 184.623 147.908 184.33L168.073 172.689C168.366 172.493 168.464 172.298 168.464 172.2V171.515L167.681 171.613Z" fill="#3C3C6D"/>
<path fill-rule="evenodd" clip-rule="evenodd" d="M155.739 164.083L134.106 176.604L129.016 160.562C128.82 160.073 129.016 159.486 129.408 159.29L149.866 147.454C150.258 147.258 150.649 147.454 150.845 147.943L155.739 164.083Z" fill="#56548C"/>
<path fill-rule="evenodd" clip-rule="evenodd" d="M154.565 163.399L134.596 174.942L129.995 160.855L150.258 149.215L154.565 163.399Z" fill="#EC827D"/>
<path fill-rule="evenodd" clip-rule="evenodd" d="M167.975 172.007L147.81 183.648C147.419 183.942 146.734 183.942 146.342 183.746L134.008 176.605L155.641 164.084L167.975 171.225C168.464 171.421 168.367 171.812 167.975 172.007Z" fill="#56548C"/>
<path fill-rule="evenodd" clip-rule="evenodd" d="M167.975 172.007L147.81 183.648C147.419 183.942 146.734 183.942 146.342 183.746L134.008 176.605L155.641 164.084L167.975 171.225C168.464 171.421 168.367 171.812 167.975 172.007Z" fill="#56548C"/>
<path fill-rule="evenodd" clip-rule="evenodd" d="M161.71 168.683L142.133 180.03L136.26 176.705L155.837 165.357L161.71 168.683Z" fill="#112B46"/>
<path fill-rule="evenodd" clip-rule="evenodd" d="M158.969 175.724L154.27 178.463C153.977 178.658 153.585 178.658 153.389 178.463L151.138 177.191C150.942 177.093 150.942 176.8 151.236 176.702L155.934 173.963C156.228 173.767 156.62 173.767 156.815 173.963L159.067 175.235C159.262 175.43 159.263 175.626 158.969 175.724Z" fill="#3C3C6D"/>
<path fill-rule="evenodd" clip-rule="evenodd" d="M55.1119 202.136C54.3288 213.874 67.6414 219.45 86.7293 214.168C86.7293 214.168 88.0018 219.548 91.7215 235.884C97.0074 236.666 100.14 232.069 100.14 232.069C100.14 232.069 100.923 203.994 91.7215 202.527C82.5202 201.157 64.2154 200.962 64.2154 200.473L55.1119 202.136Z" fill="#3C3C6D"/>
<path fill-rule="evenodd" clip-rule="evenodd" d="M62.845 135.618C65.0964 135.227 68.033 135.227 70.1865 135.814C73.8083 136.89 75.7661 139.14 76.5492 142.564C77.4301 145.987 77.7238 151.661 75.6682 154.889C74.3957 156.845 71.7527 156.552 69.795 155.965C67.4457 155.378 64.3133 154.302 62.4535 152.835C59.7127 150.781 58.3422 146.379 58.1465 143.151C58.0486 140.412 59.419 136.205 62.845 135.618Z" fill="#FFC8AF"/>
<path fill-rule="evenodd" clip-rule="evenodd" d="M60.0064 136.206C57.8529 137.674 57.8529 141 57.9508 143.25C58.1466 146.478 59.7128 150.782 62.4536 152.836C63.9219 153.912 64.0198 154.108 65.9775 154.695C66.1733 154.597 66.5648 154.303 67.1522 153.912C68.2289 153.129 68.8162 151.662 68.4247 150.39C68.0331 149.119 67.9353 147.554 68.7183 147.162C69.893 146.478 70.6761 148.825 70.6761 148.825C71.3613 148.532 72.438 147.749 71.8507 146.38C71.2634 145.01 71.8507 143.543 71.8507 143.543C74.0042 143.543 74.9831 140.706 75.6683 140.315C77.1366 139.532 77.626 139.141 77.3324 137.869C77.1366 136.989 76.8429 136.109 76.1577 135.424C75.3746 134.739 72.9275 133.761 71.8507 133.467C65.9775 132 61.3768 133.076 60.0064 136.206Z" fill="#3C3C6D"/>
<path fill-rule="evenodd" clip-rule="evenodd" d="M73.2213 157.626C67.9354 155.67 61.7685 152.149 53.1545 158.996C44.5405 165.843 46.8897 193.722 49.0433 200.081C51.1968 206.439 65.3903 206.928 69.6973 206.439C74.0044 205.95 69.7952 198.515 71.1656 193.624C72.5361 188.733 83.793 161.539 73.2213 157.626Z" fill="#DD6F6F"/>
<path fill-rule="evenodd" clip-rule="evenodd" d="M76.0598 158.703C78.3112 160.073 84.0865 176.996 84.0865 176.996L86.1421 163.692C86.1421 163.692 90.9386 161.442 93.6794 164.475C91.8196 177.387 90.7428 190.593 86.1421 191.375C81.5415 192.158 74.0042 179.93 69.893 173.963C65.7817 167.898 69.2077 154.595 76.0598 158.703Z" fill="#EC827D"/>
<path d="M90.0576 155.768L94.3646 152.54L95.4414 152.246L94.952 152.931L90.3513 156.355L90.0576 155.768Z" fill="#3C3C6D"/>
<path fill-rule="evenodd" clip-rule="evenodd" d="M87.1204 164.475C87.1204 164.083 85.4564 159.975 86.1416 158.508C86.8268 157.04 87.6099 156.062 87.6099 156.062C88.2951 153.714 90.2528 154.008 91.819 155.475C93.3852 157.04 95.5387 160.758 92.7 163.888C89.8613 166.431 87.1204 164.475 87.1204 164.475Z" fill="#FFC8AF"/>
<path fill-rule="evenodd" clip-rule="evenodd" d="M32.3042 168.484C32.3042 168.484 32.3042 168.582 32.3042 168.68C30.6402 168.484 28.6824 169.952 27.8993 172.006C26.5289 175.625 28.3888 214.851 31.7169 213.971C32.7937 215.047 56.1886 228.057 56.1886 228.057L57.559 182.962C57.559 183.06 41.0161 168.68 32.3042 168.484Z" fill="#46467C"/>
<path fill-rule="evenodd" clip-rule="evenodd" d="M56.189 228.057C52.8608 228.937 50.9031 189.711 52.3714 186.092C53.8397 182.473 58.8319 180.712 59.7129 186.679C60.5939 192.646 65.0966 225.905 56.189 228.057Z" fill="#56548C"/>
<path fill-rule="evenodd" clip-rule="evenodd" d="M193.133 248.989L185.693 248.305C185.693 248.305 180.897 249.674 178.156 250.065C175.317 250.457 173.359 249.968 172.674 251.044C172.576 251.239 172.478 251.435 172.478 251.728C172.381 253.196 173.653 254.565 174.338 255.152C175.807 256.228 177.373 256.815 181.778 256.522C182.952 256.033 184.91 255.739 185.693 256.913C186.868 257.402 191.175 258.087 193.133 256.913V255.935C194.307 254.663 193.133 248.989 193.133 248.989Z" fill="#56548C"/>
<path fill-rule="evenodd" clip-rule="evenodd" d="M196.363 180.709C198.81 193.328 190 207.121 190.783 217.392C191.762 231.38 192.251 237.445 193.72 248.89C193.72 248.89 188.042 252.216 183.833 248.401C179.526 226.098 177.666 222.087 178.254 181.296L196.363 180.709Z" fill="#D66565"/>
<path fill-rule="evenodd" clip-rule="evenodd" d="M161.809 122.506C159.264 125.441 161.417 137.473 164.941 140.407C168.465 143.342 171.402 142.266 174.436 139.723C177.471 137.082 179.233 130.625 178.547 125.832C177.568 119.083 168.954 114.192 161.809 122.506Z" fill="#FFC8AF"/>
<path fill-rule="evenodd" clip-rule="evenodd" d="M160.927 123.779C160.927 123.779 160.438 125.051 160.732 127.203C161.025 129.355 161.808 130.529 162.2 131.507C162.592 132.485 162.494 133.17 162.885 133.561C163.277 133.952 163.277 130.822 164.256 130.039C165.234 129.257 166.703 132.681 164.647 134.735C164.354 136.789 167.094 140.311 168.073 140.898C169.052 141.484 173.163 140.8 175.708 138.354C178.253 135.811 178.841 131.8 179.428 126.616C180.015 121.431 176.1 119.67 176.1 119.67C176.002 116.345 164.941 117.225 160.927 118.986C158.48 120.16 160.927 123.779 160.927 123.779Z" fill="#56548C"/>
<path fill-rule="evenodd" clip-rule="evenodd" d="M145.657 187.655C145.657 187.655 144.972 187.85 143.308 188.535C141.644 189.22 138.218 189.415 136.064 189.122C133.911 188.731 130.876 188.241 131.464 187.459C132.051 186.676 143.014 183.937 143.504 184.133C143.993 184.426 145.657 187.655 145.657 187.655Z" fill="#FFC8AF"/>
<path fill-rule="evenodd" clip-rule="evenodd" d="M178.939 255.739L171.499 255.055C171.499 255.055 166.703 256.424 163.962 256.815C161.123 257.207 159.166 256.718 158.48 257.794C158.383 257.989 158.285 258.185 158.285 258.478C158.187 259.946 159.459 261.315 160.144 261.902C161.613 262.978 163.179 263.565 167.584 263.272C168.759 262.783 170.716 262.489 171.499 263.663C172.674 264.152 176.981 264.837 178.939 263.663V262.685C180.015 261.413 178.939 255.739 178.939 255.739Z" fill="#56548C"/>
<path fill-rule="evenodd" clip-rule="evenodd" d="M190.783 183.842C191.567 196.754 180.995 210.84 180.407 221.209C179.526 235.491 179.526 245.567 179.526 257.207C179.526 257.207 170.031 261.707 169.64 254.762C168.269 231.969 166.703 226.002 172.674 184.429L190.783 183.842Z" fill="#EC827D"/>
<path fill-rule="evenodd" clip-rule="evenodd" d="M165.92 142.56C171.206 139.919 179.82 132.68 186.868 142.168C193.426 151.07 196.167 177.677 196.95 183.057C197.929 190.296 177.862 194.111 173.457 193.915C172.478 193.915 171.793 193.426 171.499 192.448C171.108 191.176 172.185 190.198 171.891 189.024C171.695 188.34 171.304 187.753 170.814 187.166C170.423 186.579 169.933 185.992 169.835 185.307C169.64 184.133 170.423 183.057 170.521 181.981C170.618 181.101 170.423 180.318 170.129 179.536C168.269 172.786 165.137 166.526 163.375 159.678C162.2 155.081 160.438 147.744 164.256 143.929C164.745 143.244 165.333 142.658 165.92 142.56Z" fill="#3C3C6D"/>
<path fill-rule="evenodd" clip-rule="evenodd" d="M162.69 146.081C158.48 159.483 158.089 166.232 153.88 171.515C153.586 171.906 142.133 184.231 142.133 184.231C142.133 184.231 143.699 186.97 147.713 187.753C154.075 185.014 161.417 174.938 163.277 172.786C164.354 171.515 170.716 159.972 171.695 154.005C172.576 148.135 164.451 140.799 162.69 146.081Z" fill="#3C3C6D"/>
<path fill-rule="evenodd" clip-rule="evenodd" d="M169.346 112.435L157.403 105.588L137.337 117.229L135.771 117.424V117.815C135.771 118.011 135.868 118.109 135.966 118.207L148.104 125.25C148.496 125.445 149.083 125.445 149.573 125.152L169.737 113.511C170.031 113.316 170.129 113.12 170.129 113.022V112.337L169.346 112.435Z" fill="#3C3C6D"/>
<path fill-rule="evenodd" clip-rule="evenodd" d="M169.639 112.923L149.474 124.564C149.083 124.858 148.398 124.858 148.006 124.662L135.672 117.521L157.305 105L169.639 112.141C170.128 112.239 170.128 112.63 169.639 112.923Z" fill="#56548C"/>
<path fill-rule="evenodd" clip-rule="evenodd" d="M169.639 112.923L149.474 124.564C149.083 124.858 148.398 124.858 148.006 124.662L135.672 117.521L157.305 105L169.639 112.141C170.128 112.239 170.128 112.63 169.639 112.923Z" fill="#56548C"/>
<path fill-rule="evenodd" clip-rule="evenodd" d="M168.562 112.728L148.985 123.978L143.112 120.652L162.689 109.305L168.562 112.728Z" fill="#3C3C6D"/>
<path fill-rule="evenodd" clip-rule="evenodd" d="M154.565 112.238L149.866 114.977C149.572 115.172 149.181 115.172 148.985 114.977L146.734 113.705C146.538 113.607 146.538 113.314 146.831 113.216L151.53 110.477C151.824 110.281 152.215 110.281 152.411 110.477L154.662 111.748C154.858 111.846 154.858 112.14 154.565 112.238Z" fill="#3C3C6D"/>
<path fill-rule="evenodd" clip-rule="evenodd" d="M119.423 89.2491C124.807 91.8902 125.297 107.639 129.408 111.65C131.757 113.9 141.056 112.139 144.189 112.139C145.461 114.976 143.699 118.302 143.699 118.302C125.982 119.182 123.828 119.671 119.326 111.063C115.9 104.313 112.278 87.3905 119.423 89.2491Z" fill="#FBD15B"/>
<path fill-rule="evenodd" clip-rule="evenodd" d="M155.152 107.64C150.453 105.292 149.377 103.434 147.027 101.379C142.916 97.7601 141.252 83.3805 137.826 81.6198C135.575 81.1307 134.4 82.2067 133.911 84.0653C133.813 84.4566 133.715 84.8478 133.715 85.3369C133.519 87.6846 134.106 90.8149 135.085 93.8473C135.868 96.3906 137.043 98.7383 138.12 100.499C139.001 101.869 139.882 103.14 140.86 104.314C143.21 107.151 146.244 109.401 152.901 111.944C152.998 111.748 156.327 110.183 155.152 107.64Z" fill="#FBD15B"/>
<path fill-rule="evenodd" clip-rule="evenodd" d="M153.194 111.259C153.292 111.552 154.271 112.53 155.054 113.509C155.837 114.487 157.208 116.052 157.599 115.661C157.991 115.269 157.208 113.704 157.208 113.704C157.208 113.704 159.655 116.052 160.046 116.737C160.438 117.519 160.242 115.269 159.655 114.291C161.221 116.639 161.612 117.226 161.71 116.639C161.808 116.052 160.536 112.824 160.731 113.117C162.493 115.856 163.179 116.15 162.983 114.976C162.787 113.704 161.025 111.65 159.948 111.063C163.081 113.117 163.276 112.824 162.493 111.944C161.71 111.063 158.872 108.813 154.956 108.324C152.607 110.476 153.194 111.259 153.194 111.259Z" fill="#FFC8AF"/>
<path fill-rule="evenodd" clip-rule="evenodd" d="M155.25 116.15C154.271 114.585 152.803 112.824 150.943 112.335C149.67 111.944 148.3 112.237 147.027 112.629C146.049 112.922 144.58 113.118 143.504 113.509C143.014 114.683 142.818 115.759 142.818 116.835C143.014 116.933 143.21 116.933 143.504 117.031C144.58 117.128 145.657 117.52 146.734 117.52C147.419 117.52 148.594 117.715 149.279 117.52C148.985 117.617 148.692 117.715 148.692 118.009C148.692 118.204 148.887 118.498 149.083 118.498C150.649 118.889 152.02 116.933 152.999 116.052C152.901 116.248 156.522 118.204 155.25 116.15Z" fill="#FFC8AF"/>
<path fill-rule="evenodd" clip-rule="evenodd" d="M138.512 65.7752C138.512 65.7752 138.512 65.873 138.61 65.873C139.295 66.9491 139.393 68.3185 139.295 69.5902C139.099 71.9379 137.631 74.7747 138.707 76.9267C139.197 77.9049 140.176 78.5897 140.469 79.5679C140.861 80.9374 139.882 82.4047 138.61 83.1873C137.043 84.1655 135.086 84.5567 133.422 83.9698C131.66 83.3829 130.289 81.8178 130.093 80.057C129.8 77.9049 131.17 75.8507 132.443 73.9921C133.128 72.9161 134.107 71.5466 134.205 70.275C134.303 69.1011 133.617 68.0251 133.911 66.7534C134.107 65.873 134.596 64.8948 135.477 64.6014C136.456 64.1123 137.826 64.797 138.512 65.7752Z" fill="#606BF1"/>
<path fill-rule="evenodd" clip-rule="evenodd" d="M125.59 75.9473C125.59 75.9473 127.059 80.9361 123.731 82.9903C123.633 84.1642 127.059 89.3487 130.485 88.4683C132.442 87.9792 133.519 85.1424 133.519 85.1424C133.323 83.3816 132.345 79.5666 132.345 79.5666L125.59 75.9473Z" fill="#FFC8AF"/>
<path fill-rule="evenodd" clip-rule="evenodd" d="M137.239 65.8694C137.239 65.8694 138.12 68.9997 137.826 71.4452C137.532 73.8907 137.239 78.6839 135.085 80.249C132.932 81.8142 129.799 79.9556 127.744 78.2926C125.688 76.5319 123.534 73.3038 123.437 69.4888C123.437 65.576 124.905 60.8806 130.484 61.0762C136.162 61.3697 137.239 65.8694 137.239 65.8694Z" fill="#FFC8AF"/>
<path fill-rule="evenodd" clip-rule="evenodd" d="M133.324 63.5252C134.792 65.286 134.107 67.438 132.247 68.8075C131.366 69.3944 130.387 69.7857 129.506 70.4704C128.625 71.0574 127.94 72.1334 128.136 73.1116C128.234 74.0898 129.115 74.9702 128.919 75.8506C128.723 76.6331 127.842 77.1222 127.744 77.9048C127.548 78.6874 128.234 79.3721 128.625 80.0568C129.212 81.2307 129.31 82.698 128.723 83.8718C127.45 86.6108 124.122 86.4152 121.675 85.2413C119.13 84.0675 117.466 81.2307 118.249 78.4917C118.641 77.0244 119.62 75.7527 120.109 74.3833C120.696 72.5247 120.598 70.5683 120.696 68.7097C120.892 65.0903 123.633 60.9819 127.45 60.3949C129.898 60.1015 131.757 61.6666 133.324 63.5252Z" fill="#606BF1"/>
<path fill-rule="evenodd" clip-rule="evenodd" d="M135.183 61.3725C134.008 60.5899 129.604 59.2205 129.604 61.4703C129.604 63.7202 132.932 65.9701 134.694 67.0461C135.477 67.4374 136.26 67.8287 136.945 68.4156C137.826 69.1003 137.924 70.4698 138.707 71.0567C139.98 69.8829 139.588 66.9483 139.099 65.481C138.511 63.5246 136.847 62.4485 135.183 61.3725Z" fill="#606BF1"/>
<path fill-rule="evenodd" clip-rule="evenodd" d="M169.639 112.923L149.475 124.564L156.62 109.597C156.816 109.108 157.306 108.521 157.697 108.326L176.589 97.3699C176.981 97.1743 177.079 97.3699 176.785 97.859L169.639 112.923Z" fill="#56548C"/>
<path fill-rule="evenodd" clip-rule="evenodd" d="M70.0883 156.354V155.18C70.0883 155.18 67.1517 153.321 64.1172 153.223C61.0828 153.125 59.6145 153.908 59.5166 154.201C59.4187 154.593 59.3208 155.571 59.3208 155.571L70.0883 156.354Z" fill="#DD6F6F"/>
<path fill-rule="evenodd" clip-rule="evenodd" d="M132.736 80.8379C132.736 80.8379 132.443 82.8921 132.54 83.1856C132.638 83.5769 133.324 83.9681 133.324 83.9681H134.694L132.736 80.8379Z" fill="#606BF1"/>
<path fill-rule="evenodd" clip-rule="evenodd" d="M141.644 93.8492C141.546 91.1102 141.056 89.3495 140.567 88.2734C140.567 88.5669 140.567 88.9582 140.665 89.2516C140.763 92.871 140.175 98.0555 139.588 102.262C140.077 102.946 140.469 103.533 140.958 104.12C141.35 100.501 141.741 96.686 141.644 93.8492Z" fill="#EABD4E"/>
<path fill-rule="evenodd" clip-rule="evenodd" d="M93.6791 110.477C93.6791 114.585 92.3087 121.335 91.2319 126.323C91.6235 127.008 92.1129 127.595 92.5045 128.084C93.4833 123.291 94.4622 117.617 94.3643 114.194C94.3643 112.726 94.0707 111.455 93.6791 110.477Z" fill="#3C3C6D"/>
<path fill-rule="evenodd" clip-rule="evenodd" d="M173.555 66.9467C173.555 65.9685 172.87 64.9903 171.597 64.3056C169.052 62.8383 164.941 62.8383 162.396 64.3056C161.123 65.0881 160.536 65.9685 160.536 66.9467V72.8159C160.536 73.7941 161.221 74.7723 162.494 75.4571C165.039 76.9244 169.15 76.9244 171.695 75.4571C172.968 74.6745 173.555 73.7941 173.555 72.8159V66.9467Z" fill="#3C3C6D"/>
<path fill-rule="evenodd" clip-rule="evenodd" d="M178.645 53.7416C179.526 52.3721 180.309 50.9048 180.799 49.3396C181.582 47.0898 182.071 44.7421 182.071 42.3944C182.169 37.7968 180.505 33.1993 176.296 30.3625C176.002 30.1668 175.611 29.9712 175.219 29.7756C171.304 27.917 163.375 26.9388 157.404 31.145C154.076 32.5145 150.65 38.0903 151.824 44.3508C152.509 48.1658 153.978 51.883 156.131 55.2089C158.187 58.4369 159.949 61.3716 160.536 65.1866L160.634 65.3822C160.536 66.2626 161.123 67.2408 162.494 67.9255C164.941 69.1972 168.954 69.1972 171.402 67.9255C172.772 67.2408 173.359 66.2626 173.163 65.3822C173.751 62.1541 175.121 59.513 176.785 56.6762C177.47 55.698 178.058 54.7198 178.645 53.7416Z" fill="#FBD15B"/>
<path d="M165.332 64.1092L163.081 43.4691L164.549 45.719C164.745 46.0124 165.039 46.0124 165.332 45.9146L167.192 44.8386L168.759 48.1645C168.856 48.4579 169.15 48.5557 169.444 48.4579L171.401 47.6754L168.563 65.87C168.563 66.1634 168.759 66.4569 169.052 66.5547C169.346 66.5547 169.639 66.3591 169.737 66.0656L172.674 46.8928C172.674 46.6972 172.674 46.5015 172.478 46.4037C172.282 46.3059 172.087 46.2081 171.891 46.3059L169.542 47.1863L167.878 43.8604C167.78 43.7625 167.682 43.5669 167.584 43.5669C167.388 43.5669 167.29 43.5669 167.094 43.5669L165.137 44.6429L162.69 40.7301C162.592 40.5345 162.298 40.4366 162.004 40.5345C161.711 40.6323 161.613 40.8279 161.613 41.1214L164.06 64.207C164.06 64.5005 164.354 64.6961 164.647 64.6961C165.137 64.6961 165.43 64.4027 165.332 64.1092Z" fill="white"/>
<path fill-rule="evenodd" clip-rule="evenodd" d="M120.343 25.9396C117.896 30.1458 120.148 33.9608 125.042 34.2543C129.643 34.5478 134.733 31.0262 137.082 27.2112C138.452 24.9613 139.333 20.8529 136.593 19.1899C135.712 18.603 134.635 18.603 133.558 18.7008C128.566 18.8965 122.986 21.4398 120.343 25.9396Z" fill="#EDEEF7"/>
<path fill-rule="evenodd" clip-rule="evenodd" d="M188.629 59.5137C189.021 59.5137 189.412 59.5137 189.804 59.6115C192.642 60.4919 192.055 64.4047 189.999 65.872C188.825 66.7524 187.552 66.3611 186.573 65.3829C184.616 63.5243 186.084 59.7093 188.629 59.5137Z" fill="#EDEEF7"/>
<path d="M148.887 271.783C148.887 271.783 141.154 266.207 140.469 257.697C139.98 251.241 145.168 248.795 150.062 256.327C150.062 256.327 142.916 244.785 149.475 240.774C154.369 237.742 156.914 246.448 156.914 246.448C156.914 246.448 152.02 231.97 159.166 231.579C164.256 231.285 163.57 239.111 163.57 239.111C163.57 239.111 168.171 227.47 173.555 230.699L148.887 271.783Z" fill="#878CF0"/>
<path d="M173.653 230.797C173.653 230.797 180.603 233.438 171.206 243.514C171.206 243.514 178.156 238.916 180.799 243.318C183.344 247.72 167.878 252.611 167.878 252.611C167.878 252.611 176.198 250.459 177.079 256.132C177.96 261.708 161.319 263.273 161.319 263.273C161.319 263.273 168.073 263.371 168.857 267.284C169.64 271.197 154.761 275.207 149.083 271.784L173.653 230.797Z" fill="#878CF0"/>
<path d="M158.382 268.067C157.208 268.164 156.033 268.067 154.859 267.969C153.978 267.871 153.097 267.773 152.216 267.577L158.089 257.404C159.263 257.6 160.536 257.795 161.809 257.795C163.179 257.893 164.549 257.795 165.92 257.698C167.29 257.6 168.661 257.306 169.933 257.013C171.206 256.719 172.576 256.328 173.849 255.741C172.576 256.23 171.304 256.524 169.933 256.817C168.563 257.111 167.29 257.306 165.92 257.306C164.549 257.404 163.179 257.404 161.906 257.306C160.732 257.208 159.655 257.013 158.48 256.817L163.081 248.894C164.354 248.796 165.724 248.698 166.997 248.405C167.682 248.307 168.367 248.111 168.954 247.916C169.639 247.72 170.227 247.524 170.912 247.329C172.184 246.84 173.457 246.35 174.632 245.764C175.806 245.177 176.981 244.492 178.156 243.709C176.981 244.492 175.806 245.079 174.632 245.666C173.359 246.253 172.184 246.742 170.814 247.133C170.129 247.329 169.542 247.524 168.856 247.622C168.171 247.72 167.584 247.916 166.899 248.013C165.724 248.209 164.549 248.307 163.473 248.307L172.282 233.047L162.885 248.013C162.396 247.035 161.906 245.959 161.515 244.883C161.025 243.611 160.634 242.438 160.34 241.166C160.047 239.894 159.753 238.623 159.557 237.351C159.361 236.079 159.166 234.71 159.068 233.438C159.068 234.71 159.166 236.079 159.361 237.351C159.557 238.623 159.753 239.992 160.047 241.264C160.34 242.535 160.732 243.807 161.123 245.079C161.515 246.253 162.004 247.426 162.592 248.6L157.697 256.426C156.914 255.643 156.131 254.763 155.544 253.883C154.859 252.807 154.173 251.633 153.586 250.459C152.999 249.285 152.509 248.013 152.118 246.742C151.726 245.47 151.335 244.198 151.139 242.927C151.335 244.198 151.628 245.568 152.02 246.84C152.411 248.111 152.803 249.383 153.292 250.557C153.782 251.731 154.467 253.002 155.152 254.078C155.837 255.056 156.523 256.035 157.404 256.915L151.237 266.795C150.552 266.012 149.964 265.23 149.377 264.349C148.594 263.273 147.909 262.197 147.321 261.023C146.636 259.85 146.049 258.774 145.559 257.6C144.972 256.426 144.483 255.252 144.091 253.98C144.483 255.252 144.972 256.426 145.461 257.698C145.951 258.871 146.538 260.045 147.126 261.219C147.713 262.393 148.398 263.469 149.083 264.643C149.671 265.621 150.356 266.501 151.041 267.382L143.797 278.925L145.364 279.805L152.216 267.969C153.194 268.164 154.173 268.262 155.152 268.262C156.327 268.262 157.501 268.262 158.676 268.164C159.851 268.067 161.025 267.871 162.2 267.675C163.375 267.48 164.549 267.186 165.626 266.893C164.451 267.186 163.277 267.382 162.2 267.48C160.732 267.871 159.557 267.969 158.382 268.067Z" fill="#56548C"/>
<path d="M86.6315 272.957C86.6315 272.957 79.9752 275.5 74.2978 272.37C69.9908 270.022 70.676 265.718 77.4302 265.816C77.4302 265.816 67.2499 265.522 67.4457 259.751C67.5436 255.447 74.102 257.403 74.102 257.403C74.102 257.403 62.9429 254.469 65.6838 249.871C67.6415 246.545 72.2422 250.263 72.2422 250.263C72.2422 250.263 66.7605 242.535 71.0675 240.48L86.6315 272.957Z" fill="#878CF0"/>
<path d="M71.0674 240.481C71.0674 240.481 75.5702 237.155 78.0173 247.328C78.0173 247.328 78.0173 241.068 81.8349 241.263C85.6525 241.459 82.3244 253.295 82.3244 253.295C82.3244 253.295 84.4779 247.23 88.2954 248.991C92.2109 250.752 86.2398 261.903 86.2398 261.903C86.2398 261.903 89.0785 257.795 91.9173 258.871C94.6581 259.947 91.1342 271.001 86.5335 273.153L71.0674 240.481Z" fill="#878CF0"/>
<path d="M88.1974 265.425C87.708 266.208 87.2186 266.893 86.7291 267.578C86.3376 268.067 85.8481 268.654 85.3587 269.143L81.4432 261.219C82.0306 260.534 82.7158 259.85 83.2052 259.067C83.7925 258.285 84.3798 257.404 84.7714 256.426C85.2608 255.546 85.6524 254.567 86.0439 253.589C86.4355 252.611 86.7291 251.633 86.827 250.655C86.6312 251.633 86.2397 252.611 85.946 253.589C85.5545 254.567 85.1629 255.448 84.5756 256.328C84.0862 257.209 83.4989 258.089 82.9115 258.871C82.4221 259.556 81.8348 260.241 81.2475 260.828L78.213 254.665C78.7024 253.785 79.1919 252.904 79.4855 252.024C79.6813 251.535 79.8771 251.046 79.9749 250.557C80.0728 250.068 80.2686 249.579 80.3665 249.089C80.6602 248.111 80.8559 247.133 80.9538 246.057C81.0517 245.079 81.1496 244.003 81.1496 243.025C81.1496 244.003 81.0517 245.079 80.8559 246.057C80.6602 247.035 80.4644 248.013 80.1707 248.992C80.0728 249.481 79.8771 249.97 79.6813 250.459C79.4855 250.948 79.2897 251.437 79.094 251.828C78.7024 252.611 78.3109 253.394 77.8214 254.176L71.9482 242.34L77.5278 254.372C76.6468 254.274 75.8637 254.176 74.9827 253.98C74.0039 253.785 73.025 253.491 72.144 253.198C71.1652 252.904 70.2842 252.513 69.4032 252.122C68.5222 251.731 67.6412 251.241 66.7603 250.752C67.6412 251.241 68.4243 251.731 69.4032 252.22C70.2842 252.611 71.1652 253.1 72.144 253.394C73.025 253.785 74.0039 254.078 74.9827 254.274C75.8637 254.567 76.8426 254.665 77.8214 254.763L80.758 261.024C79.9749 261.219 79.094 261.317 78.213 261.317C77.2341 261.317 76.2553 261.219 75.2764 261.121C74.2975 260.926 73.3187 260.73 72.3398 260.534C71.3609 260.241 70.4799 259.948 69.5011 259.556C70.3821 259.948 71.3609 260.339 72.2419 260.632C73.2208 260.926 74.1996 261.219 75.1785 261.317C76.1574 261.513 77.1362 261.61 78.1151 261.61C78.9961 261.61 79.8771 261.513 80.8559 261.317L84.4777 269.338C83.6946 269.436 82.9115 269.534 82.1284 269.534C81.1496 269.534 80.1707 269.534 79.1919 269.436C78.213 269.338 77.2341 269.24 76.2553 269.143C75.2764 269.045 74.2975 268.849 73.4165 268.556C74.3954 268.849 75.2764 269.045 76.2553 269.24C77.2341 269.436 78.213 269.534 79.1919 269.632C80.1707 269.73 81.1496 269.827 82.1284 269.827C83.0094 269.827 83.7925 269.827 84.6735 269.73L88.9805 279.023L90.1552 278.436L85.5545 269.24C86.0439 268.654 86.5333 268.164 86.9249 267.48C87.4143 266.795 87.9038 266.012 88.2953 265.23C88.6869 264.447 89.0784 263.665 89.4699 262.882C89.8615 262.1 90.1552 261.219 90.4488 260.437C90.1552 261.317 89.7636 262.1 89.3721 262.882C89.0784 263.958 88.589 264.741 88.1974 265.425Z" fill="#56548C"/>
<path d="M264.687 210.647C264.687 210.647 257.541 209.962 253.822 204.679C250.983 200.669 253.528 197.147 259.499 200.082C259.499 200.082 250.494 195.387 253.137 190.202C255.094 186.387 260.087 191.082 260.087 191.082C260.087 191.082 251.375 183.648 255.779 180.616C258.912 178.464 261.555 183.844 261.555 183.844C261.555 183.844 260.086 174.551 264.785 174.551L264.687 210.647Z" fill="#878CF0"/>
<path d="M264.981 174.551C264.981 174.551 270.462 173.573 268.309 183.746C268.309 183.746 271.05 178.17 274.378 179.931C277.706 181.79 269.581 190.887 269.581 190.887C269.581 190.887 274.182 186.289 276.923 189.615C279.664 192.941 269.386 200.278 269.386 200.278C269.386 200.278 273.79 197.832 275.748 199.984C277.804 202.234 269.679 210.549 264.687 210.451L264.981 174.551Z" fill="#878CF0"/>
<path d="M269.386 204.582C268.603 205.071 267.918 205.462 267.135 205.853C266.547 206.147 265.862 206.44 265.275 206.636L265.177 197.832C266.058 197.539 266.939 197.147 267.722 196.658C268.603 196.169 269.484 195.582 270.267 194.995C271.05 194.408 271.833 193.724 272.616 193.039C273.302 192.354 274.085 191.572 274.672 190.789C274.085 191.572 273.302 192.354 272.518 192.941C271.735 193.626 270.952 194.213 270.169 194.8C269.288 195.387 268.505 195.876 267.526 196.365C266.743 196.756 265.96 197.05 265.177 197.343L265.079 190.496C265.862 189.909 266.645 189.322 267.428 188.735C267.82 188.441 268.211 188.05 268.505 187.659C268.897 187.268 269.19 186.876 269.484 186.485C270.169 185.702 270.757 184.92 271.344 184.039C271.931 183.159 272.421 182.279 272.812 181.398C272.323 182.279 271.833 183.159 271.246 184.039C270.659 184.92 270.071 185.702 269.386 186.387C269.092 186.778 268.701 187.072 268.309 187.463C267.918 187.757 267.526 188.148 267.135 188.441C266.45 189.028 265.764 189.517 264.981 190.007L264.883 176.801L264.59 190.104C263.904 189.615 263.121 189.224 262.534 188.637C261.751 188.05 261.066 187.365 260.381 186.681C259.695 185.996 259.01 185.213 258.423 184.529C257.835 183.746 257.15 182.963 256.661 182.181C257.15 183.061 257.738 183.844 258.325 184.626C258.912 185.409 259.597 186.192 260.283 186.876C260.968 187.561 261.653 188.246 262.436 188.931C263.121 189.517 263.904 190.104 264.688 190.593L264.492 197.539C263.709 197.343 262.828 197.05 262.143 196.756C261.262 196.365 260.381 195.876 259.597 195.289C258.814 194.702 258.031 194.115 257.248 193.43C256.465 192.746 255.78 192.061 255.095 191.376C255.682 192.159 256.367 192.843 257.15 193.528C257.835 194.213 258.619 194.898 259.402 195.484C260.185 196.071 261.066 196.561 261.947 197.05C262.73 197.441 263.611 197.734 264.492 198.028L264.296 206.832C263.611 206.538 262.828 206.343 262.143 205.951C261.262 205.56 260.381 205.071 259.5 204.582C258.619 204.093 257.835 203.604 257.052 203.017C256.269 202.43 255.486 201.843 254.703 201.256C255.388 201.941 256.171 202.528 256.955 203.114C257.738 203.701 258.521 204.288 259.402 204.777C260.185 205.267 261.066 205.756 261.947 206.245C262.73 206.636 263.415 206.929 264.198 207.223L264.002 217.494H265.373L265.275 207.223C265.96 206.929 266.645 206.636 267.331 206.245C268.114 205.853 268.897 205.364 269.582 204.777C270.267 204.288 271.05 203.701 271.638 203.114C272.323 202.528 273.008 201.941 273.595 201.256C273.008 201.843 272.323 202.43 271.638 203.017C270.854 203.506 270.071 204.093 269.386 204.582Z" fill="#56548C"/>
<path d="M259.989 223.952C259.989 223.952 255.192 227.181 250.102 225.713C246.284 224.637 245.991 221.116 251.375 219.942C251.375 219.942 243.25 221.605 242.271 216.909C241.586 213.486 247.068 213.877 247.068 213.877C247.068 213.877 237.67 213.584 239.041 209.475C239.922 206.54 244.327 208.595 244.327 208.595C244.327 208.595 238.649 203.508 241.684 201.062L259.989 223.952Z" fill="#878CF0"/>
<path d="M241.684 200.963C241.684 200.963 244.621 197.539 248.438 205.071C248.438 205.071 247.362 200.083 250.396 199.496C253.43 198.909 252.941 208.886 252.941 208.886C252.941 208.886 253.528 203.702 256.954 204.387C260.38 205.071 257.64 214.951 257.64 214.951C257.64 214.951 259.108 211.136 261.555 211.528C264.002 211.919 263.121 221.31 259.891 223.853L241.684 200.963Z" fill="#878CF0"/>
<path d="M259.891 217.69C259.695 218.374 259.401 219.059 259.107 219.646C258.912 220.135 258.618 220.624 258.324 221.113L253.724 215.538C254.115 214.853 254.409 214.168 254.703 213.483C254.996 212.701 255.29 211.918 255.486 211.136C255.681 210.353 255.877 209.473 255.975 208.69C256.073 207.908 256.171 207.027 256.073 206.245C256.073 207.027 255.975 207.908 255.877 208.69C255.779 209.473 255.584 210.353 255.29 211.136C255.094 211.918 254.8 212.701 254.409 213.483C254.115 214.168 253.822 214.755 253.43 215.342L249.906 211.038C250.102 210.255 250.396 209.473 250.493 208.69C250.591 208.299 250.591 207.908 250.689 207.419C250.689 207.027 250.787 206.636 250.787 206.147C250.787 205.364 250.787 204.484 250.689 203.701C250.591 202.919 250.493 202.038 250.298 201.256C250.493 202.038 250.591 202.919 250.591 203.701C250.689 204.484 250.689 205.364 250.591 206.147C250.591 206.538 250.493 206.929 250.493 207.419C250.396 207.81 250.396 208.201 250.298 208.592C250.2 209.277 250.004 209.962 249.71 210.647L242.858 202.332L249.417 210.94C248.731 211.038 248.046 211.136 247.361 211.136C246.578 211.136 245.795 211.136 244.914 211.038C244.131 210.94 243.348 210.842 242.565 210.647C241.782 210.451 240.998 210.255 240.215 210.06C240.998 210.353 241.782 210.549 242.565 210.744C243.348 210.94 244.131 211.038 244.914 211.234C245.697 211.331 246.48 211.429 247.361 211.429C248.144 211.429 248.927 211.429 249.71 211.331L253.136 215.831C252.549 216.125 251.864 216.32 251.179 216.516C250.396 216.711 249.612 216.809 248.829 216.907C248.046 217.005 247.263 217.005 246.382 216.907C245.599 216.907 244.816 216.809 243.935 216.711C244.718 216.907 245.501 217.005 246.382 217.005C247.165 217.103 248.046 217.103 248.829 217.103C249.612 217.103 250.493 217.005 251.277 216.809C251.962 216.614 252.647 216.418 253.332 216.125L257.737 221.798C257.15 221.994 256.562 222.189 255.975 222.385C255.192 222.581 254.409 222.776 253.626 222.874C252.843 222.972 252.06 223.07 251.277 223.168C250.493 223.265 249.71 223.265 248.927 223.265C249.71 223.265 250.493 223.265 251.277 223.265C252.06 223.265 252.843 223.168 253.626 223.07C254.409 222.972 255.192 222.874 255.975 222.679C256.66 222.581 257.248 222.385 257.933 222.092L263.023 228.743L263.904 228.059L258.618 221.603C258.912 221.113 259.205 220.526 259.401 219.94C259.695 219.255 259.891 218.57 260.086 217.885C260.282 217.201 260.478 216.516 260.576 215.733C260.674 215.049 260.772 214.266 260.869 213.581C260.772 214.266 260.674 215.049 260.478 215.733C260.282 216.32 260.086 217.005 259.891 217.69Z" fill="#56548C"/>
<path d="M111.397 225.805C112.18 227.565 114.431 228.739 117.564 229.718C118.151 232.065 119.13 234.315 119.326 236.663C119.522 235.88 119.619 235 119.619 234.217C119.619 232.848 119.424 231.478 119.228 230.207C120.598 230.598 122.067 230.891 123.633 231.283C124.612 233.826 124.905 236.663 124.807 239.402C124.807 241.456 124.514 243.412 124.22 245.369C124.71 244.586 125.199 243.706 125.591 242.923C125.982 242.043 126.374 241.163 126.667 240.282C126.863 239.402 126.961 238.424 126.961 237.543C126.961 235.685 126.765 233.728 126.472 231.87C128.136 232.261 129.898 232.652 131.66 233.043C131.757 233.533 131.855 233.924 131.953 234.413C132.736 239.01 132.247 243.706 130.681 248.01C130.876 247.814 130.974 247.619 131.072 247.423C131.855 246.347 132.54 245.271 133.226 244.097C133.617 243.315 134.009 242.532 134.205 241.652C134.89 239.108 134.4 236.467 134.107 233.728C136.064 234.315 137.924 235 139.588 235.782C139.588 237.445 139.49 239.108 139.393 240.771C139.295 241.554 139.295 242.239 139.099 243.021C138.903 243.999 138.512 244.88 138.218 245.76C136.848 249.379 135.183 252.999 132.834 256.031C133.421 255.64 133.911 255.053 134.498 254.564C139.099 249.966 141.742 243.608 142.231 237.054C143.7 237.934 145.07 239.01 146.147 240.282C146.832 241.065 147.419 241.847 148.007 242.63C148.007 244.488 147.811 246.445 147.517 248.303C147.223 249.771 146.93 251.238 146.245 252.51C145.853 253.292 145.266 253.977 144.776 254.662C142.036 258.085 138.609 260.922 135.086 263.563C140.567 261.803 145.657 258.281 148.79 253.488C149.671 252.118 150.454 250.651 151.237 249.282C152.901 254.955 152.02 260.824 147.615 265.324C140.763 272.367 131.072 269.824 131.072 269.824L111.397 225.805Z" fill="#B1B2F3"/>
<path d="M130.876 269.924C130.876 269.924 124.514 280.195 114.04 279.902C108.656 279.804 104.153 275.891 101.315 271.196C102.391 271.685 103.468 272.076 104.545 272.37C107.873 273.348 111.397 273.054 114.725 272.076C117.074 271.391 119.326 270.413 121.479 269.239C119.13 269.533 116.683 269.631 114.236 269.631C112.963 269.631 111.691 269.729 110.418 269.435C109.243 269.239 108.167 268.75 107.09 268.359C105.817 267.87 104.545 267.381 103.37 266.696C101.119 265.424 99.2589 263.664 97.6927 261.609C97.497 260.436 97.497 259.36 97.6927 258.381C97.8885 257.012 98.1822 255.74 98.4758 254.371C99.2589 255.055 99.9441 255.838 100.727 256.523C101.51 257.305 102.391 258.088 103.272 258.773C104.251 259.457 105.23 260.044 106.307 260.436C109.635 261.903 113.257 262.588 116.879 262.49C115.214 262.099 113.55 261.512 111.984 260.827C110.614 260.24 109.341 259.457 107.971 258.675C106.796 257.99 105.622 257.305 104.447 256.523C102.489 255.153 100.825 253.588 99.2589 251.827C99.8462 250.164 100.531 248.599 101.217 247.034C102.196 248.404 103.272 249.578 104.447 250.654C106.698 252.708 109.439 254.175 112.474 254.371C112.963 254.469 113.452 254.469 114.04 254.469C111.299 253.393 108.754 251.925 106.405 250.067C105.719 249.578 105.132 248.991 104.643 248.306C103.664 247.23 102.979 245.958 102.391 244.589C103.174 243.121 103.957 241.654 104.838 240.285C106.013 242.339 107.579 244.1 109.439 245.469C110.907 246.545 112.474 247.328 114.236 247.817C112.865 246.936 111.691 245.763 110.712 244.491C108.95 242.241 107.775 239.6 106.894 236.959C107.481 235.98 108.069 235.002 108.656 234.024C109.635 235.785 111.005 237.252 112.474 238.524C111.103 236.665 110.124 234.709 109.439 232.459C111.103 229.426 111.984 227.079 111.299 225.514L130.876 269.924Z" fill="#B1B2F3"/>
<path d="M140.861 264.152C139.98 264.642 139.099 265.033 138.218 265.424C137.337 265.718 136.358 266.109 135.379 266.305C133.617 266.696 131.758 266.891 129.898 266.794L128.038 262.783C130.093 262 132.051 261.022 133.813 259.848C134.303 259.555 134.792 259.164 135.281 258.87C135.771 258.479 136.162 258.185 136.652 257.794C137.533 257.012 138.316 256.229 139.099 255.349C140.665 253.588 141.84 251.631 142.819 249.577C143.798 247.425 144.483 245.273 144.679 242.925C144.385 245.175 143.7 247.425 142.721 249.479C141.742 251.534 140.469 253.49 138.903 255.153C138.12 256.033 137.337 256.816 136.456 257.501C136.065 257.892 135.575 258.185 135.086 258.577C134.596 258.87 134.107 259.261 133.617 259.555C131.758 260.729 129.8 261.609 127.842 262.392L125.591 257.403L127.646 255.838C128.331 255.251 129.115 254.566 129.8 253.979L130.779 253.001C130.974 252.805 131.17 252.707 131.268 252.512L131.758 251.925C132.051 251.534 132.345 251.24 132.736 250.849L133.617 249.675C134.694 248.11 135.575 246.349 136.162 244.588C136.75 242.73 137.141 240.871 136.848 238.915C136.945 240.871 136.554 242.73 135.967 244.491C135.281 246.251 134.4 247.914 133.324 249.479L132.443 250.653C132.149 251.045 131.855 251.338 131.464 251.729L130.974 252.218C130.779 252.414 130.583 252.512 130.485 252.707L129.408 253.686C128.723 254.273 127.94 254.86 127.157 255.446L125.101 256.816L123.339 253.001C123.829 252.414 124.318 251.827 124.808 251.24L125.493 250.262C125.591 250.066 125.786 249.969 125.884 249.773L126.178 249.284L126.863 248.208L127.45 247.132C127.548 246.936 127.646 246.74 127.744 246.545L127.94 245.958C128.038 245.567 128.234 245.175 128.331 244.784C128.919 243.219 129.212 241.654 129.31 239.991C129.408 238.328 129.408 236.763 129.017 235.198C129.31 236.763 129.31 238.426 129.115 239.991C128.919 241.556 128.527 243.121 127.94 244.686C127.842 245.077 127.646 245.469 127.45 245.762L127.255 246.349C127.157 246.545 127.059 246.74 126.961 246.838L126.374 247.914L125.689 248.892L125.395 249.382C125.297 249.577 125.199 249.675 125.003 249.871L124.22 250.849C123.829 251.338 123.339 251.827 122.85 252.316L120.109 246.349H120.207C120.598 245.273 120.892 244.197 121.088 243.121C121.284 242.045 121.479 240.969 121.479 239.795C121.675 237.643 121.675 235.393 121.479 233.241C121.577 235.393 121.479 237.643 121.186 239.795C121.088 240.871 120.892 241.947 120.598 243.023C120.403 243.904 120.109 244.784 119.815 245.567L113.942 232.654L119.62 245.86C118.543 245.762 117.466 245.469 116.389 245.077C115.215 244.588 114.138 244.001 113.159 243.219C112.18 242.436 111.299 241.556 110.418 240.676C109.635 239.697 108.852 238.719 108.167 237.643C108.754 238.719 109.537 239.795 110.32 240.773C111.103 241.752 111.984 242.632 112.963 243.512C113.942 244.295 115.019 244.98 116.194 245.567C117.368 246.154 118.641 246.447 119.913 246.545L122.458 252.512C121.773 252.61 120.99 252.61 120.305 252.61C119.424 252.61 118.641 252.512 117.76 252.316C116.096 252.023 114.432 251.436 112.963 250.751C111.397 250.066 109.929 249.186 108.46 248.306C107.09 247.327 105.72 246.349 104.447 245.175C105.622 246.349 106.992 247.425 108.363 248.501C109.733 249.479 111.201 250.36 112.767 251.142C114.334 251.925 115.998 252.512 117.662 252.805C118.543 253.001 119.424 253.099 120.207 253.197C120.99 253.197 121.773 253.197 122.654 253.099L124.318 257.012C122.458 257.696 120.501 258.185 118.543 258.185C116.487 258.283 114.334 257.99 112.278 257.403C110.222 256.816 108.265 256.033 106.405 255.055C104.545 254.077 102.783 252.903 101.119 251.534C102.685 252.903 104.447 254.175 106.307 255.251C108.167 256.327 110.125 257.207 112.18 257.794C114.236 258.381 116.389 258.772 118.543 258.772C120.598 258.772 122.654 258.381 124.514 257.696L126.667 262.783C124.71 263.859 122.556 264.837 120.305 265.424C119.13 265.718 117.955 265.913 116.781 266.011C115.606 266.109 114.334 266.109 113.159 266.011C110.712 265.815 108.363 265.229 106.111 264.348C105.034 263.859 103.86 263.37 102.881 262.685C101.804 262.098 100.825 261.316 99.9443 260.533C100.825 261.316 101.804 262.098 102.881 262.783C103.958 263.468 105.034 264.055 106.111 264.544C108.363 265.522 110.712 266.207 113.159 266.402C114.334 266.5 115.606 266.5 116.879 266.402C118.151 266.305 119.326 266.109 120.501 265.815C122.752 265.229 124.905 264.446 126.961 263.37L128.723 267.381C127.45 269.044 125.982 270.511 124.318 271.782C123.927 272.174 123.437 272.467 122.948 272.761C122.458 273.054 122.067 273.348 121.577 273.641C120.598 274.228 119.62 274.619 118.543 275.011C116.487 275.793 114.236 276.087 112.082 276.184C109.831 276.184 107.677 275.891 105.524 275.206C107.579 275.989 109.831 276.282 112.082 276.38C114.334 276.38 116.585 276.087 118.641 275.402C119.717 275.011 120.696 274.619 121.773 274.13C122.263 273.935 122.752 273.543 123.241 273.348C123.731 273.054 124.22 272.761 124.612 272.369C126.276 271.196 127.744 269.826 129.017 268.261L134.009 279.999L135.184 279.51L129.898 267.967C131.66 267.967 133.422 267.772 135.184 267.283C136.162 266.989 137.141 266.696 138.022 266.305C138.903 265.913 139.882 265.522 140.665 264.935C142.427 263.957 143.993 262.685 145.364 261.316C146.832 259.946 148.105 258.479 149.181 256.718C148.105 258.381 146.734 259.848 145.266 261.12C144.189 262 142.525 263.174 140.861 264.152Z" fill="#56548C"/>
<path d="M236.398 215.144C236.691 216.122 236.496 217.296 236.496 218.372C236.496 219.546 236.398 220.622 236.887 221.698C237.279 222.676 238.943 222.383 239.138 221.405C239.432 220.133 238.943 218.959 238.453 217.883C238.257 217.394 237.964 216.905 237.67 216.514C237.376 216.025 236.985 215.633 236.691 215.144C236.593 214.851 236.3 214.949 236.398 215.144Z" fill="#B1B2F3"/>
<path d="M230.134 220.229C231.112 220.816 231.406 221.99 231.896 222.968C232.385 223.947 233.07 225.414 234.343 225.609C235.322 225.707 236.007 224.827 235.517 223.947C235.224 223.36 234.734 223.066 234.245 222.675C233.853 222.284 233.462 221.892 232.972 221.403C232.581 221.012 232.091 220.718 231.602 220.425C231.21 220.132 230.721 219.936 230.231 219.74C230.036 219.74 229.938 220.132 230.134 220.229Z" fill="#B1B2F3"/>
<path d="M245.306 215.928C244.816 216.025 244.523 216.221 244.131 216.612C243.74 217.004 243.446 217.493 243.152 217.884C242.859 218.275 242.467 218.764 242.076 219.254C241.684 219.84 240.901 220.427 240.803 221.112C240.607 221.992 241.292 222.971 242.271 222.677C243.544 222.286 244.523 220.525 244.816 219.254C244.914 218.764 244.914 218.275 245.012 217.786C245.11 217.395 245.11 216.612 245.502 216.319C245.697 216.123 245.502 215.83 245.306 215.928Z" fill="#B1B2F3"/>
<path d="M227.49 228.741C227.882 229.035 228.469 229.133 228.861 229.231C229.448 229.426 230.035 229.622 230.623 229.72C231.993 229.915 233.559 229.524 234.734 228.937C235.517 228.546 235.419 227.078 234.44 226.883C233.07 226.687 231.895 227.47 230.525 227.568C229.937 227.568 229.35 227.665 228.763 227.763C228.273 227.861 227.588 227.959 227.294 228.448C227.392 228.448 227.392 228.644 227.49 228.741Z" fill="#B1B2F3"/>
<path d="M248.144 226.298C247.655 226.298 247.067 225.906 246.578 225.711C245.991 225.417 245.501 225.124 244.914 224.928C244.229 224.635 243.837 224.439 243.152 224.146C242.369 223.852 241.39 223.95 241.194 224.928C240.901 226.591 243.446 227.178 244.62 227.178C245.306 227.178 245.893 227.08 246.578 226.982C247.067 226.885 247.557 226.689 248.046 226.493C248.242 226.395 248.242 226.298 248.144 226.298Z" fill="#B1B2F3"/>
<path d="M245.012 231.969C244.816 231.284 244.229 230.599 243.837 229.915C243.446 229.132 243.054 228.154 242.467 227.567C241.684 226.784 240.118 227.567 240.509 228.741C240.901 229.817 241.782 230.502 242.663 231.089C243.25 231.578 244.131 232.165 245.012 232.165C245.012 232.165 245.012 232.067 245.012 231.969Z" fill="#B1B2F3"/>
<path d="M234.245 234.512C234.44 234.219 234.734 234.023 235.028 233.73C235.419 233.339 235.713 232.947 236.104 232.556C236.79 231.773 237.964 230.697 237.768 229.621C237.573 228.937 236.692 228.545 236.104 228.937C235.615 229.23 235.321 229.817 235.028 230.306C234.734 230.795 234.44 231.284 234.147 231.773C233.755 232.556 233.266 233.534 233.755 234.415C233.951 234.61 234.147 234.61 234.245 234.512Z" fill="#B1B2F3"/>
<path d="M246.774 226.394C245.208 226.394 243.838 225.611 242.369 225.22C241.293 224.926 240.02 225.024 238.943 225.318C239.041 225.024 239.237 224.828 239.433 224.633C240.118 223.948 240.705 223.165 241.195 222.383C241.782 221.503 242.369 220.622 242.957 219.742C243.25 219.253 243.544 218.861 243.74 218.372C243.936 217.981 244.033 217.492 244.425 217.198C244.425 217.198 244.425 217.101 244.327 217.101C244.033 217.296 243.936 217.688 243.74 217.981C243.446 218.568 243.152 219.057 242.761 219.546C242.076 220.524 241.39 221.6 240.705 222.579C240.412 223.068 240.02 223.459 239.629 223.948C239.335 224.339 238.943 224.633 238.65 225.024C238.65 225.122 238.552 225.122 238.552 225.22C238.552 225.024 238.552 224.828 238.454 224.633C238.356 223.85 238.16 222.97 238.062 222.187C237.964 221.405 237.867 220.524 237.671 219.742C237.475 218.764 237.083 217.785 236.79 216.807C236.79 216.709 236.692 216.807 236.692 216.807C236.986 217.688 237.279 218.568 237.475 219.448C237.671 220.329 237.671 221.111 237.769 221.992C237.867 222.774 238.062 223.655 238.16 224.437C238.258 224.828 238.258 225.318 238.258 225.709C236.986 225.318 235.615 225.318 234.538 224.535C233.364 223.85 232.483 222.676 231.798 221.503C231.7 221.503 231.798 221.503 231.798 221.503C232.483 222.676 233.266 223.752 234.343 224.535C235.419 225.318 236.79 225.611 238.062 225.904C236.888 226.687 235.517 227.078 234.147 227.47C232.679 227.861 231.112 228.35 229.644 228.546C229.546 228.546 229.644 228.643 229.644 228.643C231.21 228.448 232.776 227.959 234.343 227.567C235.713 227.274 236.986 226.883 238.16 226.198C238.062 226.491 238.062 226.785 237.964 227.078C237.671 227.763 237.279 228.35 236.986 228.937C236.202 230.209 235.419 231.48 234.636 232.85C235.419 231.578 236.398 230.404 237.083 229.133C237.475 228.546 237.769 227.959 238.062 227.372C238.16 227.176 238.258 226.883 238.356 226.687C238.356 226.883 238.356 226.98 238.356 227.176C238.454 228.35 238.748 229.524 238.943 230.698C239.237 232.556 239.433 234.415 239.629 236.176C239.922 238.034 240.02 239.991 240.118 241.947C240.216 243.806 240.216 245.664 240.705 247.425C240.901 248.207 242.076 247.914 241.88 247.131C241.488 245.273 241.293 243.512 241.195 241.654C240.999 239.795 240.705 238.132 240.412 236.273C240.118 234.513 239.824 232.752 239.433 230.991C239.139 229.622 238.748 228.252 238.65 226.883L238.748 226.785C238.748 226.687 238.748 226.687 238.748 226.589C239.433 227.47 240.607 227.959 241.293 228.741C241.782 229.23 242.174 229.622 242.565 230.209C242.957 230.698 243.25 231.089 243.74 231.48C243.838 231.48 243.838 231.382 243.838 231.382C243.25 230.991 242.859 230.404 242.467 229.915C242.174 229.524 241.782 229.133 241.39 228.741C240.509 227.861 239.433 227.274 238.748 226.198C238.748 226.1 238.748 226.1 238.748 226.002V225.904C240.02 225.415 241.488 225.415 242.761 225.807C244.229 225.904 245.404 226.491 246.774 226.394C246.872 226.394 246.872 226.394 246.774 226.394Z" fill="#56548C"/>
<path d="M268.976 88.7652C268.976 87.3985 266.398 86.2026 262.615 85.6901C262.271 81.9317 261.068 79.3691 259.692 79.3691C258.317 79.3691 257.113 81.9317 256.598 85.6901C252.815 86.0318 250.236 87.2276 250.236 88.5943C250.236 89.961 252.815 91.1569 256.598 91.6694C256.942 95.4278 258.145 97.9904 259.52 97.9904C260.896 97.9904 262.099 95.4278 262.615 91.6694C266.226 91.1569 268.976 90.1319 268.976 88.7652Z" fill="#FFE48F"/>
<path d="M19.8425 103.65C19.8425 102.203 17.1119 100.937 13.107 100.394C12.7429 96.4145 11.4686 93.7012 10.0123 93.7012C8.55595 93.7012 7.28166 96.4145 6.73553 100.394C2.73062 100.756 0 102.022 0 103.469C0 104.916 2.73062 106.182 6.73553 106.725C7.09962 110.704 8.37391 113.418 9.83024 113.418C11.2866 113.418 12.5609 110.704 13.107 106.725C16.9299 106.182 19.8425 105.097 19.8425 103.65Z" fill="#9FADF0"/>
<path d="M207.244 13.265C207.244 11.3355 203.603 9.64727 198.264 8.92372C197.778 3.61772 196.079 0 194.137 0C192.196 0 190.496 3.61772 189.768 8.92372C184.428 9.40608 180.788 11.0943 180.788 13.0238C180.788 14.9533 184.428 16.6415 189.768 17.3651C190.254 22.6711 191.953 26.2888 193.895 26.2888C195.836 26.2888 197.535 22.6711 198.264 17.3651C203.361 16.6415 207.244 15.1945 207.244 13.265Z" fill="#9FADF0"/>
<rect x="23.1494" y="134.922" width="9.96664" height="9.96664" transform="rotate(-45 23.1494 134.922)" fill="#E02287" fill-opacity="0.6"/>
</svg>
