<svg width="308" height="304" viewBox="0 0 308 304" fill="none" xmlns="http://www.w3.org/2000/svg">
<path fill-rule="evenodd" clip-rule="evenodd" d="M217.269 273.333C209.388 274.694 201.278 275.689 193.553 277.738C183.837 280.333 175.374 284.274 164.852 284.921C157.811 285.321 150.576 284.277 143.478 284.003C135.76 283.722 127.887 283.668 120.159 282.97C119.656 282.897 119.236 282.92 118.734 282.848C116.304 282.58 113.974 282.328 111.545 282.06C111.042 281.988 110.64 281.93 110.138 281.857C109.635 281.785 109.233 281.727 108.731 281.655C108.229 281.582 107.726 281.51 107.224 281.437C77.8633 277.285 47.8954 268.467 27.0978 250.731C24.0536 248.127 21.0821 245.201 19.882 241.781C18.8744 238.888 19.1634 235.766 19.0324 232.666C18.8918 229.149 17.8563 225.92 15.0494 223.184C11.2004 219.548 9.43567 217.711 12.9566 213.141C23.8842 198.732 41.0169 187.632 59.9804 180.377C86.4307 170.289 116.797 166.76 145.888 167.043C162.138 167.222 178.297 168.72 194.129 171.67C197.911 172.382 201.675 173.175 205.421 174.048C208.965 174.893 212.419 176.14 216.055 176.581C225.153 177.644 234.491 180.406 242.761 183.764C248.179 185.961 256.494 188.658 257.86 194.101C258.3 195.829 258.877 197.411 259.957 199.065C261.494 201.452 264.755 202.172 267.095 203.758C269.7 205.549 271.895 207.781 273.413 210.248C275.618 213.813 276.371 217.834 276.302 221.821C276.345 228.071 275.384 235.093 272.129 240.784C268.856 246.556 263.865 251.664 258.116 255.996C247.994 263.611 236.007 269.375 222.611 272.189C220.94 272.697 219.104 273.015 217.269 273.333Z" fill="#F1F3F7"/>
<path fill-rule="evenodd" clip-rule="evenodd" d="M273.411 237.294C280.827 222.716 283.679 205.581 282.424 188.957C281.74 180.261 279.915 171.438 276.834 163.509C273.868 155.965 269.875 148.932 270.217 140.364C270.559 131.924 275.009 123.484 272.613 115.556C268.163 100.85 248.198 100.466 237.588 94.7121C222.414 86.6558 218.877 70.4156 210.891 55.5819C202.905 40.7483 190.811 28.4722 176.322 22.5899C161.833 16.7076 144.948 17.4748 131.485 25.9147C124.868 30.1346 120.647 35.2496 117.339 42.7943C114.829 48.5487 112.319 54.6868 107.641 58.1395C101.822 62.6151 94.5208 61.2085 87.9037 61.8479C72.844 63.2545 57.7844 69.2647 46.4896 80.6457C41.0134 86.1443 36.678 92.9218 33.7117 100.466C30.8595 107.883 29.3763 116.323 25.041 123.101C20.8197 129.494 14.2026 133.459 10.2095 140.108C5.0755 148.804 9.41089 158.267 8.26999 167.729C6.44458 182.819 -4.62201 203.79 4.96143 218.113C8.84042 223.867 14.4308 223.355 20.2493 223.228C27.8932 223.228 36.1076 222.588 43.4092 219.903C49.6841 217.601 55.8449 214.788 62.462 214.532C67.3678 214.276 72.2736 213.893 77.1794 213.765C80.3739 213.765 83.5684 214.788 86.7628 215.044C93.38 215.811 100.111 216.578 106.728 217.345C121.56 219.136 136.277 220.798 151.109 222.588C179.289 225.913 207.468 229.238 235.762 232.563C244.889 233.586 254.016 234.736 263.144 235.759C263.942 236.143 273.069 237.933 273.411 237.294Z" fill="#F1F3F7"/>
<path d="M170.919 247.672C170.919 257.487 190.281 265.42 214.08 265.42C237.879 265.42 257.241 257.487 257.241 247.672C257.241 237.857 237.879 229.924 214.08 229.924C190.281 229.924 170.919 237.857 170.919 247.672Z" fill="white"/>
<path d="M170.919 247.672C170.919 257.487 190.281 265.42 214.08 265.42C237.879 265.42 257.241 257.487 257.241 247.672C257.241 237.857 237.879 229.924 214.08 229.924C190.281 229.924 170.919 237.857 170.919 247.672Z" fill="white"/>
<path opacity="0.9" d="M214.08 266.762C188.312 266.762 167.423 258.214 167.423 247.669C167.423 237.124 188.312 228.576 214.08 228.576C239.847 228.576 260.736 237.124 260.736 247.669C260.736 258.214 239.847 266.762 214.08 266.762Z" fill="white"/>
<path d="M258.047 231.94C257.778 221.586 249.308 213.25 238.82 213.25C228.467 213.25 219.862 221.586 219.593 231.94C219.593 232.074 219.593 232.343 219.593 232.477C219.593 232.612 219.593 232.881 219.593 233.015C219.862 235.704 221.744 238.259 225.24 240.276C232.769 244.578 244.871 244.578 252.4 240.276C255.896 238.259 257.778 235.57 258.047 233.015C258.047 232.881 258.047 232.612 258.047 232.477C258.047 232.343 258.047 232.074 258.047 231.94Z" fill="white"/>
<path opacity="0.8" d="M258.047 231.94C257.778 221.586 249.308 213.25 238.82 213.25C228.467 213.25 219.862 221.586 219.593 231.94C219.593 232.074 219.593 232.343 219.593 232.477C219.593 232.612 219.593 232.881 219.593 233.015C219.862 235.704 221.744 238.259 225.24 240.276C232.769 244.578 244.871 244.578 252.4 240.276C255.896 238.259 257.778 235.57 258.047 233.015C258.047 232.881 258.047 232.612 258.047 232.477C258.047 232.343 258.047 232.074 258.047 231.94Z" fill="white"/>
<path opacity="0.3" d="M247.156 215.269C244.601 214.059 241.777 213.387 238.819 213.387C228.466 213.387 219.861 221.723 219.592 232.076C219.592 232.211 219.592 232.48 219.592 232.614C219.592 232.749 219.592 233.017 219.592 233.152C219.861 235.841 221.743 238.396 225.239 240.413C227.928 242.026 231.29 242.967 234.92 243.371C229.945 242.564 226.718 236.917 228.197 230.866C229.945 223.605 237.206 213.387 247.156 215.269Z" fill="white"/>
<path opacity="0.1" d="M258.047 233.017C258.047 232.882 258.047 232.613 258.047 232.479C258.047 232.344 258.047 232.075 258.047 231.941C257.913 226.428 255.358 221.453 251.593 218.092C253.61 220.243 258.316 228.311 253.341 234.496C249.98 238.529 234.248 244.311 221.341 236.916C222.282 238.126 223.626 239.336 225.374 240.412C232.904 244.714 245.005 244.714 252.535 240.412C255.896 238.26 257.778 235.706 258.047 233.017Z" fill="white"/>
<path opacity="0.5" d="M238.685 217.686C239.492 219.703 237.878 222.258 235.055 223.468C232.097 224.678 229.138 224.14 228.197 222.258C227.391 220.241 229.004 217.686 231.828 216.476C234.786 215.132 237.744 215.669 238.685 217.686Z" fill="white"/>
<path opacity="0.5" d="M227.525 225.622C227.928 226.697 227.256 227.908 226.046 228.445C224.836 228.983 223.491 228.58 222.953 227.639C222.55 226.563 223.222 225.353 224.432 224.815C225.777 224.143 227.121 224.546 227.525 225.622Z" fill="white"/>
<path d="M177.911 231.673C178.18 222.933 185.306 215.807 194.18 215.807C203.055 215.807 210.181 222.798 210.45 231.673C210.45 231.807 210.45 231.941 210.45 232.076C210.45 232.21 210.45 232.345 210.45 232.479C210.315 234.765 208.702 236.916 205.744 238.664C199.424 242.295 189.071 242.295 182.752 238.664C179.794 236.916 178.18 234.765 178.046 232.479C178.046 232.345 178.046 232.21 178.046 232.076C177.777 231.941 177.777 231.807 177.911 231.673Z" fill="white"/>
<path opacity="0.8" d="M177.911 231.673C178.18 222.933 185.306 215.807 194.18 215.807C203.055 215.807 210.181 222.798 210.45 231.673C210.45 231.807 210.45 231.941 210.45 232.076C210.45 232.21 210.45 232.345 210.45 232.479C210.315 234.765 208.702 236.916 205.744 238.664C199.424 242.295 189.071 242.295 182.752 238.664C179.794 236.916 178.18 234.765 178.046 232.479C178.046 232.345 178.046 232.21 178.046 232.076C177.777 231.941 177.777 231.807 177.911 231.673Z" fill="white"/>
<path opacity="0.3" d="M187.054 217.42C189.206 216.344 191.626 215.807 194.18 215.807C203.055 215.807 210.181 222.798 210.45 231.673C210.45 231.807 210.45 231.941 210.45 232.076C210.45 232.21 210.45 232.345 210.45 232.479C210.315 234.765 208.702 236.916 205.744 238.664C203.458 240.009 200.634 240.816 197.542 241.219C201.71 240.547 204.534 235.841 203.189 230.597C201.576 224.681 195.525 215.941 187.054 217.42Z" fill="white"/>
<path opacity="0.1" d="M177.911 232.612C177.911 232.477 177.911 232.343 177.911 232.208C177.911 232.074 177.911 231.939 177.911 231.805C178.045 227.099 180.197 222.931 183.424 219.973C181.676 221.855 177.777 228.712 181.945 233.822C184.768 237.318 198.08 242.158 209.105 235.839C208.298 236.914 207.223 237.855 205.609 238.797C199.29 242.427 188.936 242.427 182.617 238.797C179.659 237.049 178.045 234.763 177.911 232.612Z" fill="white"/>
<path opacity="0.5" d="M194.315 219.437C193.643 221.051 194.987 223.336 197.407 224.412C199.828 225.488 202.382 225.084 203.189 223.336C203.861 221.723 202.517 219.437 200.097 218.361C197.542 217.42 194.987 217.824 194.315 219.437Z" fill="white"/>
<path opacity="0.5" d="M203.727 226.296C203.323 227.103 203.861 228.178 204.937 228.716C206.013 229.12 207.223 228.851 207.492 228.044C207.895 227.237 207.357 226.162 206.281 225.624C205.34 225.086 204.13 225.355 203.727 226.296Z" fill="white"/>
<path d="M161.911 233.554C162.046 227.772 166.886 223.066 172.668 223.066C178.449 223.066 183.29 227.772 183.424 233.554C183.424 233.689 183.424 233.689 183.424 233.823C183.424 233.957 183.424 233.957 183.424 234.092C183.29 235.571 182.214 237.05 180.332 238.126C176.164 240.546 169.306 240.546 165.138 238.126C163.121 236.915 162.18 235.571 162.046 234.092C162.046 233.957 162.046 233.957 162.046 233.823C161.911 233.689 161.911 233.689 161.911 233.554Z" fill="white"/>
<path opacity="0.9" d="M161.911 233.554C162.046 227.772 166.886 223.066 172.668 223.066C178.449 223.066 183.29 227.772 183.424 233.554C183.424 233.689 183.424 233.689 183.424 233.823C183.424 233.957 183.424 233.957 183.424 234.092C183.29 235.571 182.214 237.05 180.332 238.126C176.164 240.546 169.306 240.546 165.138 238.126C163.121 236.915 162.18 235.571 162.046 234.092C162.046 233.957 162.046 233.957 162.046 233.823C161.911 233.689 161.911 233.689 161.911 233.554Z" fill="white"/>
<path opacity="0.5" d="M168.096 224.142C169.575 223.47 171.054 223.066 172.802 223.066C178.583 223.066 183.424 227.772 183.558 233.554C183.558 233.689 183.558 233.689 183.558 233.823C183.558 233.957 183.558 233.957 183.558 234.092C183.424 235.571 182.348 237.05 180.466 238.126C178.987 239.067 177.104 239.605 175.087 239.874C177.911 239.336 179.659 236.243 178.852 232.882C177.642 228.848 173.608 223.066 168.096 224.142Z" fill="white"/>
<path opacity="0.1" d="M161.911 234.094C161.911 233.96 161.911 233.96 161.911 233.825C161.911 233.691 161.911 233.691 161.911 233.556C162.045 230.464 163.39 227.64 165.541 225.758C164.331 226.968 161.776 231.539 164.6 234.901C166.482 237.187 175.222 240.414 182.617 236.245C182.079 236.918 181.273 237.59 180.331 238.128C176.163 240.548 169.306 240.548 165.138 238.128C163.121 237.052 162.045 235.573 161.911 234.094Z" fill="white"/>
<path opacity="0.5" d="M172.802 225.488C172.264 226.564 173.205 228.043 174.819 228.715C176.432 229.387 178.18 229.118 178.583 228.043C179.121 226.967 178.18 225.488 176.567 224.816C174.953 224.143 173.34 224.412 172.802 225.488Z" fill="white"/>
<path opacity="0.5" d="M179.121 229.925C178.852 230.462 179.255 231.269 179.928 231.538C180.6 231.807 181.407 231.673 181.676 231C181.944 230.462 181.541 229.656 180.869 229.387C180.062 229.118 179.255 229.387 179.121 229.925Z" fill="white"/>
<path d="M139.053 238.258C139.322 230.325 145.776 224.006 153.708 224.006C161.641 224.006 168.095 230.325 168.364 238.258C168.364 238.393 168.364 238.527 168.364 238.662C168.364 238.796 168.364 238.931 168.364 239.065C168.23 241.082 166.751 243.099 164.062 244.578C158.414 247.939 149.137 247.939 143.355 244.578C140.666 242.964 139.187 241.082 139.053 239.065C139.053 238.931 139.053 238.796 139.053 238.662C139.053 238.527 139.053 238.393 139.053 238.258Z" fill="white"/>
<path opacity="0.7" d="M139.053 238.258C139.322 230.325 145.776 224.006 153.708 224.006C161.641 224.006 168.095 230.325 168.364 238.258C168.364 238.393 168.364 238.527 168.364 238.662C168.364 238.796 168.364 238.931 168.364 239.065C168.23 241.082 166.751 243.099 164.062 244.578C158.414 247.939 149.137 247.939 143.355 244.578C140.666 242.964 139.187 241.082 139.053 239.065C139.053 238.931 139.053 238.796 139.053 238.662C139.053 238.527 139.053 238.393 139.053 238.258Z" fill="white"/>
<path opacity="0.3" d="M147.255 225.485C149.138 224.544 151.289 224.006 153.575 224.006C161.508 224.006 167.962 230.325 168.23 238.258C168.23 238.393 168.23 238.527 168.23 238.662C168.23 238.796 168.23 238.931 168.23 239.065C168.096 241.082 166.617 243.099 163.928 244.578C161.777 245.788 159.222 246.595 156.533 246.864C160.297 246.191 162.852 242.023 161.642 237.317C160.432 231.939 154.919 224.006 147.255 225.485Z" fill="white"/>
<path opacity="0.1" d="M139.052 239.068C139.052 238.933 139.052 238.799 139.052 238.664C139.052 238.53 139.052 238.395 139.052 238.261C139.187 234.093 141.069 230.328 144.027 227.639C142.414 229.252 138.918 235.437 142.683 240.143C145.238 243.236 157.204 247.673 167.02 242.026C166.347 242.967 165.272 243.908 163.927 244.715C158.28 248.076 149.002 248.076 143.221 244.715C140.666 243.101 139.187 241.084 139.052 239.068Z" fill="white"/>
<path opacity="0.5" d="M153.843 227.235C153.171 228.714 154.381 230.73 156.666 231.672C158.818 232.613 161.238 232.21 161.91 230.731C162.583 229.251 161.372 227.235 159.087 226.293C156.801 225.352 154.381 225.756 153.843 227.235Z" fill="white"/>
<path opacity="0.5" d="M162.314 233.418C161.91 234.225 162.448 235.166 163.389 235.569C164.33 235.973 165.406 235.704 165.675 234.897C166.078 234.09 165.541 233.149 164.599 232.746C163.658 232.342 162.583 232.611 162.314 233.418Z" fill="white"/>
<path d="M196.6 182.458C196.6 187.836 199.02 192.542 202.785 195.769C205.34 197.921 206.953 201.013 206.953 204.374V246.325C206.953 247.401 207.625 248.476 209.104 249.283C209.911 249.686 210.852 250.09 211.794 250.224C213.407 250.493 215.155 250.493 216.634 250.224C217.575 249.955 218.516 249.686 219.323 249.283C220.668 248.476 221.474 247.401 221.474 246.325V204.374C221.474 201.013 223.088 197.921 225.643 195.769C229.407 192.542 231.828 187.702 231.828 182.324C231.693 173.18 224.433 165.516 215.289 164.979C204.936 164.441 196.6 172.508 196.6 182.458Z" fill="white"/>
<path opacity="0.5" d="M196.6 182.458C196.6 187.836 199.02 192.542 202.785 195.769C205.34 197.921 206.953 201.013 206.953 204.374V246.325C206.953 247.401 207.625 248.476 209.104 249.283C209.911 249.686 210.852 250.09 211.794 250.224C213.407 250.493 215.155 250.493 216.634 250.224C217.575 249.955 218.516 249.686 219.323 249.283C220.668 248.476 221.474 247.401 221.474 246.325V204.374C221.474 201.013 223.088 197.921 225.643 195.769C229.407 192.542 231.828 187.702 231.828 182.324C231.693 173.18 224.433 165.516 215.289 164.979C204.936 164.441 196.6 172.508 196.6 182.458Z" fill="white"/>
<path d="M204.264 182.46C204.264 185.687 205.877 188.645 208.432 190.393C210.449 191.872 211.659 194.292 211.659 196.847V247.403C211.659 248.747 212.735 249.957 214.079 249.957C215.424 249.957 216.499 248.747 216.499 247.403V196.847C216.499 194.292 217.71 191.872 219.726 190.528C222.281 188.78 223.895 185.687 223.895 182.326C223.76 177.216 219.592 173.048 214.483 172.779C208.835 172.51 204.264 176.947 204.264 182.46Z" fill="white"/>
<path opacity="0.7" d="M204.264 182.46C204.264 185.687 205.877 188.645 208.432 190.393C210.449 191.872 211.659 194.292 211.659 196.847V247.403C211.659 248.747 212.735 249.957 214.079 249.957C215.424 249.957 216.499 248.747 216.499 247.403V196.847C216.499 194.292 217.71 191.872 219.726 190.528C222.281 188.78 223.895 185.687 223.895 182.326C223.76 177.216 219.592 173.048 214.483 172.779C208.835 172.51 204.264 176.947 204.264 182.46Z" fill="#FFE175"/>
<path opacity="0.8" d="M205.205 194.694C203.126 194.694 201.441 193.008 201.441 190.929C201.441 188.85 203.126 187.164 205.205 187.164C207.285 187.164 208.97 188.85 208.97 190.929C208.97 193.008 207.285 194.694 205.205 194.694Z" fill="white"/>
<path opacity="0.7" d="M209.507 179.906C209.507 178.427 208.297 177.082 206.684 177.082C205.205 177.082 203.86 178.292 203.86 179.906C203.86 181.385 205.07 182.729 206.684 182.729C208.297 182.729 209.507 181.385 209.507 179.906Z" fill="white"/>
<path opacity="0.8" d="M214.886 175.464C214.886 174.657 214.213 174.119 213.541 174.119C212.734 174.119 212.197 174.791 212.197 175.464C212.197 176.27 212.869 176.808 213.541 176.808C214.213 176.808 214.886 176.27 214.886 175.464Z" fill="white"/>
<path opacity="0.7" d="M225.912 177.079C225.912 175.062 224.299 173.314 222.147 173.314C220.13 173.314 218.383 174.928 218.383 177.079C218.383 179.231 219.996 180.844 222.147 180.844C224.164 180.844 225.912 179.231 225.912 177.079Z" fill="white"/>
<path opacity="0.8" d="M226.45 183.938C226.45 184.88 225.643 185.686 224.702 185.686C223.761 185.686 222.954 184.88 222.954 183.938C222.954 182.997 223.761 182.19 224.702 182.19C225.777 182.056 226.45 182.863 226.45 183.938Z" fill="white"/>
<path opacity="0.7" d="M226.314 190.525C226.314 188.643 224.835 187.164 222.953 187.164C221.071 187.164 219.592 188.643 219.592 190.525C219.592 192.408 221.071 193.887 222.953 193.887C224.835 194.021 226.314 192.542 226.314 190.525Z" fill="white"/>
<path opacity="0.7" d="M217.845 195.635C217.845 194.291 216.769 193.35 215.559 193.35C214.214 193.35 213.273 194.425 213.273 195.635C213.273 196.98 214.349 197.921 215.559 197.921C216.769 197.921 217.845 196.845 217.845 195.635Z" fill="white"/>
<path opacity="0.7" d="M229.811 179.903C229.811 179.231 229.273 178.693 228.601 178.693C227.929 178.693 227.391 179.231 227.391 179.903C227.391 180.576 227.929 181.114 228.601 181.114C229.273 181.114 229.811 180.576 229.811 179.903Z" fill="white"/>
<path opacity="0.8" d="M203.727 174.928C203.727 174.121 203.054 173.314 202.113 173.314C201.306 173.314 200.5 173.987 200.5 174.928C200.5 175.735 201.172 176.541 202.113 176.541C203.054 176.541 203.727 175.869 203.727 174.928Z" fill="white"/>
<path opacity="0.7" d="M202.248 182.727C202.248 181.786 201.575 181.113 200.634 181.113C199.693 181.113 199.021 181.786 199.021 182.727C199.021 183.668 199.693 184.34 200.634 184.34C201.441 184.206 202.248 183.534 202.248 182.727Z" fill="white"/>
<path opacity="0.8" d="M217.038 184.207C217.038 183.266 216.365 182.594 215.424 182.594C214.483 182.594 213.811 183.266 213.811 184.207C213.811 185.148 214.483 185.821 215.424 185.821C216.365 185.821 217.038 185.148 217.038 184.207Z" fill="white"/>
<path d="M122.515 240.812C122.649 235.972 126.549 232.072 131.389 232.072C136.229 232.072 140.129 235.972 140.263 240.812C140.263 240.946 140.263 240.946 140.263 241.081C140.263 241.215 140.263 241.215 140.263 241.35C140.129 242.56 139.322 243.77 137.708 244.711C134.213 246.728 128.565 246.728 125.07 244.711C123.456 243.77 122.515 242.56 122.515 241.35C122.515 241.215 122.515 241.215 122.515 241.081C122.515 240.946 122.515 240.812 122.515 240.812Z" fill="#FBFBFB"/>
<path opacity="0.5" d="M122.515 240.812C122.649 235.972 126.549 232.072 131.389 232.072C136.229 232.072 140.129 235.972 140.263 240.812C140.263 240.946 140.263 240.946 140.263 241.081C140.263 241.215 140.263 241.215 140.263 241.35C140.129 242.56 139.322 243.77 137.708 244.711C134.213 246.728 128.565 246.728 125.07 244.711C123.456 243.77 122.515 242.56 122.515 241.35C122.515 241.215 122.515 241.215 122.515 241.081C122.515 240.946 122.515 240.812 122.515 240.812Z" fill="#FBFBFB"/>
<path opacity="0.5" d="M127.49 233.013C128.7 232.476 129.91 232.072 131.389 232.072C136.229 232.072 140.129 235.972 140.263 240.812C140.263 240.946 140.263 240.946 140.263 241.081C140.263 241.215 140.263 241.215 140.263 241.35C140.129 242.56 139.322 243.77 137.708 244.711C136.498 245.383 134.885 245.921 133.271 246.056C135.557 245.652 137.036 243.098 136.364 240.274C135.557 236.913 132.196 232.072 127.49 233.013Z" fill="#FBFBFB"/>
<path opacity="0.2" d="M122.515 241.212C122.515 241.078 122.515 241.078 122.515 240.944C122.515 240.809 122.515 240.809 122.515 240.675C122.515 238.12 123.725 235.834 125.608 234.221C124.666 235.162 122.515 238.927 124.801 241.885C126.28 243.767 133.675 246.456 139.726 242.96C139.322 243.498 138.65 244.036 137.843 244.574C134.347 246.591 128.7 246.591 125.204 244.574C123.456 243.633 122.65 242.423 122.515 241.212Z" fill="#FBFBFB"/>
<path opacity="0.5" d="M131.523 234.087C131.12 235.028 131.927 236.238 133.271 236.776C134.616 237.314 136.095 237.045 136.364 236.238C136.767 235.297 135.96 234.087 134.616 233.549C133.271 232.877 131.927 233.146 131.523 234.087Z" fill="#FBFBFB"/>
<path opacity="0.5" d="M136.633 237.852C136.364 238.39 136.767 238.928 137.305 239.197C137.843 239.466 138.515 239.331 138.784 238.793C139.053 238.256 138.65 237.718 138.112 237.449C137.574 237.18 136.902 237.314 136.633 237.852Z" fill="#FBFBFB"/>
<path d="M135.826 248.074C135.961 241.486 141.473 236.107 148.062 236.107C154.785 236.107 160.163 241.486 160.297 248.074C160.297 248.209 160.297 248.343 160.297 248.477C160.297 248.612 160.297 248.746 160.297 248.881C160.163 250.629 158.953 252.242 156.667 253.587C151.827 256.41 144.028 256.41 139.322 253.587C137.036 252.242 135.826 250.629 135.692 248.881C135.692 248.746 135.692 248.612 135.692 248.477C135.826 248.343 135.826 248.209 135.826 248.074Z" fill="#FBFBFB"/>
<path opacity="0.6" d="M135.826 248.074C135.961 241.486 141.473 236.107 148.062 236.107C154.785 236.107 160.163 241.486 160.297 248.074C160.297 248.209 160.297 248.343 160.297 248.477C160.297 248.612 160.297 248.746 160.297 248.881C160.163 250.629 158.953 252.242 156.667 253.587C151.827 256.41 144.028 256.41 139.322 253.587C137.036 252.242 135.826 250.629 135.692 248.881C135.692 248.746 135.692 248.612 135.692 248.477C135.826 248.343 135.826 248.209 135.826 248.074Z" fill="#FBFBFB"/>
<path opacity="0.5" d="M142.817 237.318C144.431 236.511 146.179 236.107 148.196 236.107C154.918 236.107 160.297 241.486 160.431 248.074C160.431 248.209 160.431 248.343 160.431 248.477C160.431 248.612 160.431 248.746 160.431 248.881C160.297 250.629 159.087 252.242 156.801 253.587C155.053 254.662 152.902 255.2 150.616 255.469C153.843 254.931 155.86 251.301 154.918 247.402C153.843 242.83 149.137 236.242 142.817 237.318Z" fill="#FBFBFB"/>
<path opacity="0.1" d="M135.826 248.745C135.826 248.611 135.826 248.476 135.826 248.342C135.826 248.208 135.826 248.073 135.826 247.939C135.96 244.443 137.573 241.216 139.994 239.064C138.649 240.409 135.691 245.653 138.918 249.552C141.069 252.107 151.154 255.872 159.355 251.031C158.818 251.838 157.876 252.645 156.801 253.182C151.96 256.006 144.162 256.006 139.456 253.182C137.17 252.107 135.96 250.493 135.826 248.745Z" fill="#FBFBFB"/>
<path opacity="0.3" d="M148.195 238.932C147.658 240.142 148.733 241.89 150.616 242.696C152.498 243.503 154.38 243.1 154.918 241.89C155.456 240.679 154.38 238.932 152.498 238.125C150.75 237.318 148.868 237.721 148.195 238.932Z" fill="#FBFBFB"/>
<path opacity="0.3" d="M155.322 244.044C155.053 244.716 155.456 245.523 156.263 245.926C157.07 246.33 157.876 246.061 158.28 245.388C158.549 244.716 158.145 243.909 157.339 243.506C156.532 243.103 155.591 243.371 155.322 244.044Z" fill="#FBFBFB"/>
<path d="M157.608 254.122C157.877 245.92 164.6 239.332 172.801 239.332C181.003 239.332 187.861 245.92 187.995 254.122C187.995 254.257 187.995 254.391 187.995 254.526C187.995 254.66 187.995 254.795 187.995 254.929C187.861 257.08 186.382 259.097 183.558 260.711C177.642 264.207 167.961 264.207 162.045 260.711C159.221 259.097 157.742 257.08 157.608 254.929C157.608 254.795 157.608 254.66 157.608 254.526C157.608 254.391 157.608 254.257 157.608 254.122Z" fill="#FBFBFB"/>
<path opacity="0.8" d="M157.608 254.122C157.877 245.92 164.6 239.332 172.801 239.332C181.003 239.332 187.861 245.92 187.995 254.122C187.995 254.257 187.995 254.391 187.995 254.526C187.995 254.66 187.995 254.795 187.995 254.929C187.861 257.08 186.382 259.097 183.558 260.711C177.642 264.207 167.961 264.207 162.045 260.711C159.221 259.097 157.742 257.08 157.608 254.929C157.608 254.795 157.608 254.66 157.608 254.526C157.608 254.391 157.608 254.257 157.608 254.122Z" fill="#FBFBFB"/>
<path opacity="0.3" d="M166.213 240.811C168.23 239.87 170.516 239.332 172.801 239.332C181.003 239.332 187.861 245.92 187.995 254.122C187.995 254.257 187.995 254.391 187.995 254.526C187.995 254.66 187.995 254.795 187.995 254.929C187.861 257.08 186.382 259.097 183.558 260.711C181.407 261.921 178.718 262.728 175.894 263.131C179.793 262.459 182.348 258.022 181.138 253.181C179.928 247.534 174.146 239.332 166.213 240.811Z" fill="#FBFBFB"/>
<path opacity="0.1" d="M157.608 254.93C157.608 254.795 157.608 254.661 157.608 254.526C157.608 254.392 157.608 254.258 157.608 254.123C157.742 249.686 159.759 245.787 162.717 243.098C161.104 244.846 157.339 251.165 161.373 256.14C164.062 259.367 176.566 263.938 186.785 258.022C185.978 258.964 184.903 259.905 183.558 260.712C177.642 264.207 167.961 264.207 162.045 260.712C159.356 259.098 157.742 257.081 157.608 254.93Z" fill="#FBFBFB"/>
<path opacity="0.3" d="M173.07 242.694C172.398 244.307 173.743 246.324 176.028 247.4C178.314 248.476 180.734 247.938 181.407 246.459C182.079 244.845 180.734 242.828 178.449 241.753C176.163 240.677 173.743 241.08 173.07 242.694Z" fill="#FBFBFB"/>
<path opacity="0.3" d="M181.81 249.016C181.407 249.823 181.944 250.898 183.02 251.302C183.961 251.705 185.037 251.436 185.44 250.629C185.844 249.823 185.306 248.747 184.23 248.344C183.289 247.94 182.213 248.209 181.81 249.016Z" fill="#FBFBFB"/>
<path d="M212.197 251.028C212.332 244.171 217.979 238.658 224.971 238.658C231.828 238.658 237.475 244.171 237.744 251.028C237.744 251.163 237.744 251.297 237.744 251.432C237.744 251.566 237.744 251.701 237.744 251.835C237.61 253.583 236.4 255.331 233.979 256.675C229.004 259.499 220.937 259.499 215.962 256.675C213.676 255.331 212.332 253.583 212.197 251.835C212.197 251.701 212.197 251.566 212.197 251.432C212.197 251.297 212.197 251.163 212.197 251.028Z" fill="#FBFBFB"/>
<path opacity="0.8" d="M212.197 251.028C212.332 244.171 217.979 238.658 224.971 238.658C231.828 238.658 237.475 244.171 237.744 251.028C237.744 251.163 237.744 251.297 237.744 251.432C237.744 251.566 237.744 251.701 237.744 251.835C237.61 253.583 236.4 255.331 233.979 256.675C229.004 259.499 220.937 259.499 215.962 256.675C213.676 255.331 212.332 253.583 212.197 251.835C212.197 251.701 212.197 251.566 212.197 251.432C212.197 251.297 212.197 251.163 212.197 251.028Z" fill="#FBFBFB"/>
<path opacity="0.3" d="M219.323 240.003C220.936 239.196 222.819 238.793 224.835 238.793C231.693 238.793 237.34 244.306 237.609 251.163C237.609 251.297 237.609 251.432 237.609 251.566C237.609 251.701 237.609 251.835 237.609 251.97C237.474 253.718 236.264 255.466 233.844 256.81C231.962 257.886 229.81 258.558 227.39 258.827C230.752 258.289 232.903 254.524 231.827 250.491C230.752 245.516 226.046 238.793 219.323 240.003Z" fill="#FBFBFB"/>
<path opacity="0.1" d="M212.197 251.836C212.197 251.702 212.197 251.567 212.197 251.433C212.197 251.298 212.197 251.164 212.197 251.029C212.332 247.399 213.945 244.038 216.5 241.752C215.155 243.231 212.063 248.609 215.424 252.643C217.576 255.332 228.063 259.231 236.668 254.256C235.996 255.063 235.189 255.87 233.979 256.542C229.004 259.366 220.937 259.366 215.962 256.542C213.542 255.332 212.332 253.584 212.197 251.836Z" fill="#FBFBFB"/>
<path opacity="0.3" d="M225.105 241.617C224.567 242.961 225.643 244.709 227.525 245.516C229.408 246.323 231.425 246.054 232.097 244.709C232.635 243.365 231.559 241.617 229.677 240.81C227.66 239.869 225.643 240.272 225.105 241.617Z" fill="#FBFBFB"/>
<path opacity="0.3" d="M232.5 246.86C232.232 247.532 232.635 248.339 233.442 248.743C234.248 249.146 235.19 248.877 235.459 248.205C235.727 247.532 235.324 246.726 234.517 246.322C233.711 245.919 232.769 246.188 232.5 246.86Z" fill="#FBFBFB"/>
<path d="M190.953 253.719C191.088 247.669 196.062 242.828 202.113 242.828C208.164 242.828 213.138 247.669 213.273 253.719C213.273 253.854 213.273 253.988 213.273 253.988V254.257C213.138 255.87 212.063 257.349 210.046 258.56C205.743 261.114 198.617 261.114 194.18 258.56C192.163 257.349 191.088 255.87 190.953 254.257C190.953 254.123 190.953 253.988 190.953 253.988C190.953 253.988 190.953 253.854 190.953 253.719Z" fill="#FBFBFB"/>
<path opacity="0.8" d="M190.953 253.719C191.088 247.669 196.062 242.828 202.113 242.828C208.164 242.828 213.138 247.669 213.273 253.719C213.273 253.854 213.273 253.988 213.273 253.988V254.257C213.138 255.87 212.063 257.349 210.046 258.56C205.743 261.114 198.617 261.114 194.18 258.56C192.163 257.349 191.088 255.87 190.953 254.257C190.953 254.123 190.953 253.988 190.953 253.988C190.953 253.988 190.953 253.854 190.953 253.719Z" fill="#FBFBFB"/>
<path opacity="0.3" d="M197.273 243.904C198.752 243.231 200.365 242.828 202.113 242.828C208.164 242.828 213.138 247.669 213.273 253.719C213.273 253.854 213.273 253.988 213.273 253.988V254.257C213.138 255.87 212.063 257.349 210.046 258.56C208.432 259.501 206.55 260.039 204.399 260.308C207.357 259.77 209.239 256.543 208.298 253.047C207.357 248.879 203.189 242.828 197.273 243.904Z" fill="#FBFBFB"/>
<path opacity="0.1" d="M190.953 254.39C190.953 254.256 190.953 254.121 190.953 254.121V253.853C191.088 250.626 192.432 247.802 194.718 245.785C193.508 246.995 190.819 251.701 193.777 255.332C195.659 257.752 204.937 261.113 212.466 256.676C211.928 257.348 211.122 258.155 210.046 258.693C205.743 261.248 198.617 261.248 194.18 258.693C192.163 257.483 191.088 255.869 190.953 254.39Z" fill="#FBFBFB"/>
<path opacity="0.3" d="M202.248 245.381C201.71 246.457 202.651 248.071 204.399 248.743C206.147 249.55 207.895 249.146 208.298 248.071C208.836 246.995 207.895 245.381 206.147 244.709C204.533 243.902 202.785 244.171 202.248 245.381Z" fill="#FBFBFB"/>
<path opacity="0.3" d="M208.836 249.958C208.567 250.496 208.97 251.302 209.642 251.571C210.315 251.84 211.121 251.706 211.39 251.033C211.659 250.496 211.256 249.689 210.584 249.42C209.777 249.151 208.97 249.42 208.836 249.958Z" fill="#FBFBFB"/>
<path d="M114.985 242.826C115.12 239.868 117.405 237.582 120.363 237.582C123.321 237.582 125.742 239.868 125.742 242.826V242.96V243.095C125.742 243.902 125.204 244.574 124.128 245.112C121.977 246.322 118.615 246.322 116.464 245.112C115.523 244.574 114.985 243.767 114.851 243.095V242.96C114.985 242.96 114.985 242.826 114.985 242.826Z" fill="#FBFBFB"/>
<path opacity="0.2" d="M114.985 242.826C115.12 239.868 117.405 237.582 120.363 237.582C123.321 237.582 125.742 239.868 125.742 242.826V242.96V243.095C125.742 243.902 125.204 244.574 124.128 245.112C121.977 246.322 118.615 246.322 116.464 245.112C115.523 244.574 114.985 243.767 114.851 243.095V242.96C114.985 242.96 114.985 242.826 114.985 242.826Z" fill="#FBFBFB"/>
<path opacity="0.5" d="M117.944 238.12C118.617 237.717 119.423 237.582 120.23 237.582C123.188 237.582 125.608 239.868 125.608 242.826V242.96V243.095C125.608 243.902 125.071 244.574 123.995 245.112C123.188 245.515 122.247 245.784 121.306 245.918C122.65 245.649 123.592 244.17 123.188 242.422C122.785 240.54 120.768 237.582 117.944 238.12Z" fill="#FBFBFB"/>
<path opacity="0.05" d="M114.985 243.094V242.959V242.825C114.985 241.212 115.792 239.867 116.868 238.926C116.33 239.464 114.985 241.749 116.33 243.497C117.271 244.573 121.708 246.321 125.338 244.17C125.069 244.573 124.666 244.842 124.128 245.111C121.977 246.321 118.616 246.321 116.464 245.111C115.523 244.573 114.985 243.901 114.985 243.094Z" fill="#FBFBFB"/>
<path opacity="0.3" d="M120.363 238.792C120.094 239.33 120.632 240.136 121.439 240.405C122.246 240.809 123.052 240.54 123.321 240.002C123.59 239.464 123.052 238.657 122.246 238.388C121.439 238.119 120.632 238.254 120.363 238.792Z" fill="#FBFBFB"/>
<path opacity="0.3" d="M123.456 241.079C123.321 241.348 123.456 241.752 123.859 241.886C124.263 242.021 124.531 241.886 124.666 241.617C124.8 241.348 124.666 240.945 124.263 240.811C123.994 240.676 123.59 240.811 123.456 241.079Z" fill="#FBFBFB"/>
<path d="M299.863 236.24C299.729 231.399 295.83 227.5 290.989 227.5C286.149 227.5 282.249 231.399 282.115 236.24C282.115 236.374 282.115 236.374 282.115 236.509C282.115 236.643 282.115 236.643 282.115 236.778C282.249 237.988 283.056 239.198 284.67 240.139C288.166 242.156 293.813 242.156 297.309 240.139C298.922 239.198 299.863 237.988 299.863 236.778C299.863 236.643 299.863 236.643 299.863 236.509C299.863 236.374 299.863 236.24 299.863 236.24Z" fill="#FBFBFB"/>
<path opacity="0.5" d="M299.863 236.24C299.729 231.399 295.83 227.5 290.989 227.5C286.149 227.5 282.249 231.399 282.115 236.24C282.115 236.374 282.115 236.374 282.115 236.509C282.115 236.643 282.115 236.643 282.115 236.778C282.249 237.988 283.056 239.198 284.67 240.139C288.166 242.156 293.813 242.156 297.309 240.139C298.922 239.198 299.863 237.988 299.863 236.778C299.863 236.643 299.863 236.643 299.863 236.509C299.863 236.374 299.863 236.24 299.863 236.24Z" fill="#FBFBFB"/>
<path opacity="0.5" d="M294.754 228.441C293.544 227.903 292.334 227.5 290.855 227.5C286.014 227.5 282.115 231.399 281.98 236.24C281.98 236.374 281.98 236.374 281.98 236.509C281.98 236.643 281.98 236.643 281.98 236.778C282.115 237.988 282.922 239.198 284.535 240.139C285.745 240.811 287.359 241.349 288.972 241.484C286.686 241.08 285.207 238.525 285.88 235.702C286.821 232.34 290.182 227.634 294.754 228.441Z" fill="#FBFBFB"/>
<path opacity="0.2" d="M299.863 236.644C299.863 236.51 299.863 236.51 299.863 236.375C299.863 236.241 299.863 236.241 299.863 236.106C299.863 233.552 298.653 231.266 296.771 229.652C297.712 230.594 299.863 234.358 297.578 237.316C296.098 239.199 288.703 241.888 282.653 238.392C283.056 238.93 283.728 239.468 284.535 240.006C288.031 242.022 293.678 242.022 297.174 240.006C298.922 239.199 299.729 237.989 299.863 236.644Z" fill="#FBFBFB"/>
<path opacity="0.3" d="M290.854 229.516C291.258 230.458 290.451 231.668 289.106 232.206C287.762 232.743 286.283 232.475 286.014 231.668C285.61 230.727 286.417 229.516 287.762 228.979C288.972 228.441 290.451 228.575 290.854 229.516Z" fill="#FBFBFB"/>
<path opacity="0.3" d="M285.745 233.282C286.014 233.82 285.611 234.358 285.073 234.627C284.535 234.895 283.863 234.761 283.594 234.223C283.325 233.685 283.729 233.148 284.266 232.879C284.804 232.61 285.477 232.744 285.745 233.282Z" fill="#FBFBFB"/>
<path d="M280.77 239.6C280.636 232.608 274.854 226.961 267.862 226.961C260.87 226.961 255.089 232.608 254.954 239.6C254.954 239.734 254.954 239.869 254.954 240.003C254.954 240.138 254.954 240.272 254.954 240.407C255.089 242.155 256.299 243.903 258.719 245.382C263.828 248.34 272.03 248.34 277.005 245.382C279.425 244.037 280.636 242.289 280.77 240.407C280.77 240.272 280.77 240.138 280.77 240.003C280.77 239.869 280.77 239.734 280.77 239.6Z" fill="#FBFBFB"/>
<path opacity="0.7" d="M280.77 239.6C280.636 232.608 274.854 226.961 267.862 226.961C260.87 226.961 255.089 232.608 254.954 239.6C254.954 239.734 254.954 239.869 254.954 240.003C254.954 240.138 254.954 240.272 254.954 240.407C255.089 242.155 256.299 243.903 258.719 245.382C263.828 248.34 272.03 248.34 277.005 245.382C279.425 244.037 280.636 242.289 280.77 240.407C280.77 240.272 280.77 240.138 280.77 240.003C280.77 239.869 280.77 239.734 280.77 239.6Z" fill="#FBFBFB"/>
<path opacity="0.3" d="M273.375 228.306C271.627 227.499 269.745 226.961 267.728 226.961C260.736 226.961 254.954 232.608 254.82 239.6C254.82 239.734 254.82 239.869 254.82 240.003C254.82 240.138 254.82 240.272 254.82 240.407C254.954 242.155 256.165 243.903 258.585 245.382C260.467 246.457 262.753 247.129 265.039 247.398C261.677 246.861 259.526 243.096 260.602 238.928C261.812 233.953 266.652 227.095 273.375 228.306Z" fill="#FBFBFB"/>
<path opacity="0.1" d="M280.77 240.277C280.77 240.143 280.77 240.008 280.77 239.874C280.77 239.739 280.77 239.605 280.77 239.471C280.636 235.706 279.022 232.479 276.333 230.059C277.678 231.538 280.904 236.916 277.409 241.084C275.123 243.773 264.635 247.672 255.895 242.698C256.568 243.504 257.375 244.311 258.585 244.983C263.694 247.941 271.896 247.941 276.871 244.983C279.291 243.908 280.636 242.16 280.77 240.277Z" fill="#FBFBFB"/>
<path opacity="0.5" d="M267.728 229.921C268.266 231.265 267.19 233.013 265.308 233.82C263.291 234.627 261.274 234.358 260.736 233.013C260.198 231.669 261.274 229.921 263.156 229.114C265.039 228.307 267.055 228.576 267.728 229.921Z" fill="#FBFBFB"/>
<path opacity="0.5" d="M260.198 235.298C260.467 235.97 260.063 236.777 259.257 237.18C258.45 237.583 257.509 237.315 257.24 236.642C256.971 235.97 257.374 235.163 258.181 234.76C258.988 234.356 259.929 234.625 260.198 235.298Z" fill="#FBFBFB"/>
<path d="M292.065 247.265C291.93 240.677 286.418 235.299 279.829 235.299C273.106 235.299 267.728 240.677 267.594 247.265C267.594 247.4 267.594 247.534 267.594 247.669C267.594 247.803 267.594 247.938 267.594 248.072C267.728 249.82 268.938 251.434 271.224 252.778C276.064 255.602 283.863 255.602 288.569 252.778C290.855 251.434 292.065 249.82 292.199 248.072C292.199 247.938 292.199 247.803 292.199 247.669C292.199 247.4 292.199 247.265 292.065 247.265Z" fill="#FBFBFB"/>
<path opacity="0.6" d="M292.065 247.265C291.93 240.677 286.418 235.299 279.829 235.299C273.106 235.299 267.728 240.677 267.594 247.265C267.594 247.4 267.594 247.534 267.594 247.669C267.594 247.803 267.594 247.938 267.594 248.072C267.728 249.82 268.938 251.434 271.224 252.778C276.064 255.602 283.863 255.602 288.569 252.778C290.855 251.434 292.065 249.82 292.199 248.072C292.199 247.938 292.199 247.803 292.199 247.669C292.199 247.4 292.199 247.265 292.065 247.265Z" fill="#FBFBFB"/>
<path opacity="0.5" d="M285.207 236.509C283.594 235.702 281.846 235.299 279.829 235.299C273.106 235.299 267.728 240.677 267.593 247.265C267.593 247.4 267.593 247.534 267.593 247.669C267.593 247.803 267.593 247.938 267.593 248.072C267.728 249.82 268.938 251.434 271.224 252.778C272.971 253.854 275.123 254.392 277.409 254.661C274.182 254.123 272.165 250.492 273.106 246.593C274.182 241.887 278.753 235.299 285.207 236.509Z" fill="#FBFBFB"/>
<path opacity="0.15" d="M292.064 247.937C292.064 247.802 292.064 247.668 292.064 247.533C292.064 247.399 292.064 247.264 292.064 247.13C291.93 243.634 290.317 240.407 287.896 238.256C289.241 239.6 292.199 244.844 288.972 248.744C286.821 251.298 276.736 255.063 268.534 250.223C269.072 251.029 270.014 251.836 271.089 252.374C275.93 255.197 283.728 255.197 288.434 252.374C290.72 251.298 291.93 249.55 292.064 247.937Z" fill="#FBFBFB"/>
<path opacity="0.3" d="M279.695 237.99C280.232 239.2 279.157 240.948 277.274 241.755C275.392 242.562 273.51 242.158 272.972 240.948C272.434 239.738 273.51 237.99 275.392 237.183C277.274 236.377 279.157 236.78 279.695 237.99Z" fill="#FBFBFB"/>
<path opacity="0.3" d="M272.569 243.097C272.838 243.77 272.434 244.576 271.628 244.98C270.821 245.383 270.014 245.114 269.611 244.442C269.342 243.77 269.745 242.963 270.552 242.56C271.493 242.291 272.3 242.425 272.569 243.097Z" fill="#FBFBFB"/>
<path d="M266.114 252.642C265.845 244.44 259.122 237.852 250.92 237.852C242.718 237.852 235.861 244.44 235.727 252.642C235.727 252.776 235.727 252.911 235.727 253.045C235.727 253.18 235.727 253.314 235.727 253.449C235.861 255.6 237.34 257.617 240.164 259.23C246.08 262.726 255.761 262.726 261.677 259.23C264.5 257.617 265.979 255.6 266.114 253.449C266.114 253.314 266.114 253.18 266.114 253.045C266.114 252.911 266.114 252.776 266.114 252.642Z" fill="#FBFBFB"/>
<path opacity="0.8" d="M266.114 252.642C265.845 244.44 259.122 237.852 250.92 237.852C242.718 237.852 235.861 244.44 235.727 252.642C235.727 252.776 235.727 252.911 235.727 253.045C235.727 253.18 235.727 253.314 235.727 253.449C235.861 255.6 237.34 257.617 240.164 259.23C246.08 262.726 255.761 262.726 261.677 259.23C264.5 257.617 265.979 255.6 266.114 253.449C266.114 253.314 266.114 253.18 266.114 253.045C266.114 252.911 266.114 252.776 266.114 252.642Z" fill="#FBFBFB"/>
<path opacity="0.3" d="M257.509 239.331C255.492 238.389 253.207 237.852 250.921 237.852C242.719 237.852 235.862 244.44 235.727 252.642C235.727 252.776 235.727 252.911 235.727 253.045C235.727 253.18 235.727 253.314 235.727 253.449C235.862 255.6 237.341 257.617 240.164 259.23C242.316 260.44 245.005 261.247 247.828 261.65C243.929 260.978 241.374 256.541 242.585 251.701C243.795 246.053 249.576 237.852 257.509 239.331Z" fill="#FBFBFB"/>
<path opacity="0.1" d="M266.114 253.453C266.114 253.319 266.114 253.184 266.114 253.05C266.114 252.915 266.114 252.781 266.114 252.647C265.98 248.209 263.963 244.31 261.005 241.621C262.618 243.369 266.383 249.689 262.349 254.663C259.66 257.89 247.156 262.462 236.937 256.546C237.744 257.487 238.819 258.428 240.164 259.235C246.08 262.731 255.761 262.731 261.677 259.235C264.366 257.621 265.845 255.605 266.114 253.453Z" fill="#FBFBFB"/>
<path opacity="0.3" d="M250.652 241.213C251.324 242.827 249.979 244.844 247.694 245.919C245.408 246.995 242.988 246.457 242.315 244.978C241.643 243.365 242.988 241.348 245.274 240.272C247.559 239.197 249.979 239.6 250.652 241.213Z" fill="#FBFBFB"/>
<path opacity="0.3" d="M241.912 247.533C242.316 248.34 241.778 249.416 240.702 249.819C239.761 250.223 238.685 249.954 238.282 249.147C237.879 248.34 238.417 247.264 239.492 246.861C240.433 246.458 241.509 246.727 241.912 247.533Z" fill="#FBFBFB"/>
<path d="M184.365 262.729C184.499 255.199 190.684 249.148 198.214 249.148C205.744 249.148 211.929 255.199 212.063 262.729C212.063 262.863 212.063 262.997 212.063 263.132C212.063 263.266 212.063 263.401 212.063 263.535C211.929 265.418 210.584 267.3 208.029 268.779C202.651 271.872 193.777 271.872 188.399 268.779C185.844 267.3 184.499 265.418 184.365 263.535C184.365 263.401 184.365 263.266 184.365 263.132C184.365 262.997 184.365 262.863 184.365 262.729Z" fill="#FBFBFB"/>
<path opacity="0.9" d="M184.365 262.729C184.499 255.199 190.684 249.148 198.214 249.148C205.744 249.148 211.929 255.199 212.063 262.729C212.063 262.863 212.063 262.997 212.063 263.132C212.063 263.266 212.063 263.401 212.063 263.535C211.929 265.418 210.584 267.3 208.029 268.779C202.651 271.872 193.777 271.872 188.399 268.779C185.844 267.3 184.499 265.418 184.365 263.535C184.365 263.401 184.365 263.266 184.365 263.132C184.365 262.997 184.365 262.863 184.365 262.729Z" fill="#FBFBFB"/>
<path opacity="0.5" d="M192.298 250.493C194.181 249.552 196.197 249.148 198.349 249.148C205.878 249.148 212.063 255.199 212.198 262.729C212.198 262.863 212.198 262.997 212.198 263.132C212.198 263.266 212.198 263.401 212.198 263.535C212.063 265.418 210.719 267.3 208.164 268.779C206.147 269.989 203.727 270.662 201.172 270.93C204.803 270.258 207.088 266.224 206.013 261.787C204.668 256.678 199.559 249.148 192.298 250.493Z" fill="#FBFBFB"/>
<path opacity="0.1" d="M184.365 263.405C184.365 263.27 184.365 263.136 184.365 263.001C184.365 262.867 184.365 262.732 184.365 262.598C184.5 258.564 186.248 255.068 189.071 252.514C187.592 254.127 184.231 259.909 187.861 264.346C190.281 267.304 201.71 271.472 211.122 266.094C210.45 267.035 209.509 267.842 208.164 268.649C202.786 271.741 193.912 271.741 188.533 268.649C185.979 267.304 184.5 265.422 184.365 263.405Z" fill="#FBFBFB"/>
<path opacity="0.5" d="M198.483 252.242C197.811 253.721 199.021 255.603 201.172 256.544C203.324 257.486 205.475 257.082 206.147 255.603C206.819 254.124 205.609 252.242 203.458 251.301C201.307 250.494 199.021 250.897 198.483 252.242Z" fill="#FBFBFB"/>
<path opacity="0.5" d="M206.55 258.025C206.282 258.698 206.685 259.639 207.626 260.042C208.567 260.446 209.508 260.177 209.912 259.37C210.181 258.698 209.777 257.756 208.836 257.353C207.895 257.084 206.819 257.353 206.55 258.025Z" fill="#FBFBFB"/>
<path d="M242.451 264.207C242.316 257.08 236.4 251.299 229.274 251.299C222.148 251.299 216.231 257.08 216.097 264.207C216.097 264.341 216.097 264.476 216.097 264.61C216.097 264.745 216.097 264.879 216.097 265.013C216.231 266.896 217.576 268.644 219.996 269.988C225.106 272.946 233.576 272.946 238.686 269.988C241.106 268.644 242.451 266.761 242.585 265.013C242.585 264.879 242.585 264.745 242.585 264.61C242.451 264.476 242.451 264.341 242.451 264.207Z" fill="#FBFBFB"/>
<path opacity="0.9" d="M242.451 264.207C242.316 257.08 236.4 251.299 229.274 251.299C222.148 251.299 216.231 257.08 216.097 264.207C216.097 264.341 216.097 264.476 216.097 264.61C216.097 264.745 216.097 264.879 216.097 265.013C216.231 266.896 217.576 268.644 219.996 269.988C225.106 272.946 233.576 272.946 238.686 269.988C241.106 268.644 242.451 266.761 242.585 265.013C242.585 264.879 242.585 264.745 242.585 264.61C242.451 264.476 242.451 264.341 242.451 264.207Z" fill="#FBFBFB"/>
<path opacity="0.5" d="M235.055 252.643C233.307 251.837 231.425 251.299 229.274 251.299C222.147 251.299 216.231 257.08 216.097 264.207C216.097 264.341 216.097 264.476 216.097 264.61C216.097 264.745 216.097 264.879 216.097 265.013C216.231 266.896 217.576 268.644 219.996 269.988C221.878 271.064 224.164 271.736 226.584 272.005C223.089 271.467 220.937 267.568 222.013 263.4C223.223 258.425 228.198 251.433 235.055 252.643Z" fill="#FBFBFB"/>
<path opacity="0.1" d="M242.45 264.881C242.45 264.746 242.45 264.612 242.45 264.477C242.45 264.343 242.45 264.208 242.45 264.074C242.316 260.309 240.568 256.813 238.013 254.527C239.492 256.006 242.585 261.519 239.223 265.822C236.937 268.645 226.046 272.545 217.172 267.435C217.845 268.242 218.786 269.049 219.996 269.855C225.105 272.813 233.576 272.813 238.685 269.855C241.106 268.511 242.316 266.763 242.45 264.881Z" fill="#FBFBFB"/>
<path opacity="0.5" d="M229.139 254.257C229.677 255.602 228.601 257.35 226.584 258.291C224.568 259.232 222.551 258.829 221.878 257.484C221.341 256.14 222.416 254.392 224.433 253.45C226.45 252.509 228.601 252.913 229.139 254.257Z" fill="#FBFBFB"/>
<path opacity="0.5" d="M221.475 259.772C221.744 260.445 221.341 261.386 220.534 261.789C219.727 262.192 218.786 261.924 218.383 261.251C218.114 260.579 218.517 259.638 219.324 259.234C220.265 258.831 221.206 259.1 221.475 259.772Z" fill="#FBFBFB"/>
<path d="M208.164 268.777C208.298 265.819 210.584 263.533 213.542 263.533C216.5 263.533 218.92 265.819 218.92 268.777V268.911V269.046C218.92 269.853 218.383 270.525 217.307 271.063C215.156 272.273 211.794 272.273 209.643 271.063C208.702 270.525 208.164 269.718 208.029 269.046V268.911C208.164 268.911 208.164 268.911 208.164 268.777Z" fill="#FBFBFB"/>
<path opacity="0.9" d="M208.164 268.777C208.298 265.819 210.584 263.533 213.542 263.533C216.5 263.533 218.92 265.819 218.92 268.777V268.911V269.046C218.92 269.853 218.383 270.525 217.307 271.063C215.156 272.273 211.794 272.273 209.643 271.063C208.702 270.525 208.164 269.718 208.029 269.046V268.911C208.164 268.911 208.164 268.911 208.164 268.777Z" fill="#FBFBFB"/>
<path opacity="0.6" d="M211.256 264.071C211.929 263.668 212.735 263.533 213.542 263.533C216.5 263.533 218.92 265.819 218.92 268.777V268.911V269.046C218.92 269.853 218.383 270.525 217.307 271.063C216.5 271.466 215.559 271.735 214.618 271.87C215.962 271.601 216.904 270.122 216.5 268.374C216.097 266.491 214.08 263.533 211.256 264.071Z" fill="#FBFBFB"/>
<path opacity="0.1" d="M208.163 269.178V269.043V268.909C208.163 267.296 208.97 265.951 210.046 265.01C209.508 265.548 208.163 267.833 209.508 269.581C210.449 270.657 214.886 272.405 218.517 270.254C218.248 270.657 217.844 270.926 217.306 271.195C215.155 272.405 211.794 272.405 209.642 271.195C208.701 270.657 208.163 269.85 208.163 269.178Z" fill="#FBFBFB"/>
<path opacity="0.5" d="M213.677 264.743C213.408 265.281 213.945 266.087 214.752 266.356C215.559 266.76 216.366 266.491 216.635 265.953C216.904 265.415 216.366 264.608 215.559 264.34C214.752 264.071 213.811 264.205 213.677 264.743Z" fill="#FBFBFB"/>
<path opacity="0.5" d="M216.768 267.029C216.634 267.298 216.768 267.701 217.172 267.835C217.575 267.97 217.844 267.835 217.978 267.567C218.113 267.298 217.978 266.894 217.575 266.76C217.306 266.625 216.903 266.76 216.768 267.029Z" fill="#FBFBFB"/>
<path d="M307.393 238.256C307.258 235.297 304.973 233.012 302.015 233.012C299.057 233.012 296.636 235.297 296.636 238.256V238.39V238.524C296.636 239.331 297.174 240.003 298.25 240.541C300.401 241.751 303.763 241.751 305.914 240.541C306.855 240.003 307.393 239.197 307.527 238.524V238.39C307.393 238.39 307.393 238.39 307.393 238.256Z" fill="#FBFBFB"/>
<path opacity="0.2" d="M307.393 238.256C307.258 235.297 304.973 233.012 302.015 233.012C299.057 233.012 296.636 235.297 296.636 238.256V238.39V238.524C296.636 239.331 297.174 240.003 298.25 240.541C300.401 241.751 303.763 241.751 305.914 240.541C306.855 240.003 307.393 239.197 307.527 238.524V238.39C307.393 238.39 307.393 238.39 307.393 238.256Z" fill="#FBFBFB"/>
<path opacity="0.5" d="M304.301 233.55C303.628 233.146 302.822 233.012 302.015 233.012C299.057 233.012 296.637 235.297 296.637 238.256V238.39V238.524C296.637 239.331 297.175 240.003 298.25 240.541C299.057 240.945 299.998 241.214 300.939 241.348C299.595 241.079 298.654 239.6 299.057 237.852C299.595 235.97 301.612 233.012 304.301 233.55Z" fill="#FBFBFB"/>
<path opacity="0.05" d="M307.393 238.66V238.526V238.391C307.393 236.778 306.586 235.433 305.51 234.492C306.048 235.03 307.393 237.316 306.048 239.064C305.107 240.139 300.67 241.887 297.039 239.736C297.308 240.139 297.712 240.408 298.25 240.677C300.401 241.887 303.762 241.887 305.914 240.677C306.855 240.139 307.393 239.333 307.393 238.66Z" fill="#FBFBFB"/>
<path opacity="0.3" d="M302.015 234.223C302.283 234.761 301.746 235.568 300.939 235.837C300.132 236.24 299.325 235.971 299.056 235.434C298.788 234.896 299.325 234.089 300.132 233.82C300.804 233.551 301.746 233.686 302.015 234.223Z" fill="#FBFBFB"/>
<path opacity="0.3" d="M298.788 236.509C298.922 236.778 298.788 237.181 298.385 237.316C297.981 237.45 297.712 237.316 297.578 237.047C297.443 236.778 297.578 236.375 297.981 236.24C298.385 236.106 298.654 236.24 298.788 236.509Z" fill="#FBFBFB"/>
<path d="M196.466 161.214L198.751 151.398H229.542L231.828 161.214C232.366 164.172 230.752 167.264 226.719 169.55C219.861 173.584 208.567 173.584 201.71 169.55C197.541 167.264 195.928 164.172 196.466 161.214Z" fill="#555BCB"/>
<path d="M214.079 161.617C205.54 161.617 198.617 157.584 198.617 152.608C198.617 147.633 205.54 143.6 214.079 143.6C222.619 143.6 229.542 147.633 229.542 152.608C229.542 157.584 222.619 161.617 214.079 161.617Z" fill="#6A70E3"/>
<path d="M231.693 161.212C232.23 164.17 230.617 167.263 226.583 169.549C219.726 173.582 208.432 173.582 201.574 169.549C197.541 167.263 195.927 164.17 196.465 161.212L197.137 158.389C196.465 161.078 198.078 164.036 201.709 166.187C208.566 170.086 219.592 170.086 226.449 166.187C230.079 164.036 231.693 161.212 231.02 158.523L231.693 161.212Z" fill="#0C1F77"/>
<path d="M230.213 155.027C230.885 157.716 229.272 160.539 225.776 162.556C219.322 166.321 208.835 166.321 202.246 162.556C198.616 160.539 197.137 157.716 197.809 155.027L198.616 151.262C197.944 153.951 199.423 156.774 203.053 158.791C209.103 162.287 218.919 162.287 224.969 158.791C228.465 156.774 229.944 153.951 229.406 151.262L230.213 155.027Z" fill="#0C1F77"/>
<path opacity="0.1" d="M202.515 151.395H204.801C203.994 154.756 201.977 163.63 201.708 165.647C201.439 168.202 206.952 172.37 221.608 171.563C215.02 173.445 206.952 172.773 201.439 169.546C199.96 168.605 198.75 167.664 197.809 166.588L202.515 151.395Z" fill="white"/>
<path d="M214.079 161.617C205.54 161.617 198.617 157.584 198.617 152.608C198.617 147.633 205.54 143.6 214.079 143.6C222.619 143.6 229.542 147.633 229.542 152.608C229.542 157.584 222.619 161.617 214.079 161.617Z" fill="#6A70E3"/>
<path d="M183.155 79.8674C183.155 41.5472 199.29 8.60524 211.391 0.941199C211.525 0.806742 211.66 0.806742 211.66 0.672285C212.466 0.268914 213.139 0 214.08 0C214.887 0 215.693 0.268914 216.366 0.672285C216.5 0.672285 216.635 0.806742 216.635 0.941199C228.601 8.60524 244.871 41.6817 244.871 79.8674C244.871 116.709 234.517 149.247 233.576 152.34C233.576 152.474 233.576 152.474 233.442 152.609C232.635 154.76 230.887 156.777 228.063 158.39C220.265 162.827 207.626 162.827 199.962 158.39C197.004 156.642 195.122 154.491 194.449 152.34C193.508 149.247 183.155 116.709 183.155 79.8674Z" fill="#878CF0"/>
<path d="M202.516 10.0843C205.474 5.78165 208.567 2.68914 211.256 0.941199C211.391 0.806742 211.525 0.806742 211.525 0.672285C212.466 0.268914 213.138 0 214.08 0C214.886 0 215.693 0.268914 216.365 0.672285C216.5 0.806742 216.634 0.806742 216.634 0.941199C219.458 2.68914 222.416 5.91611 225.374 10.0843C227.122 12.639 228.87 15.4625 230.483 18.6895C229.946 20.7064 228.332 22.5888 225.777 24.0678C219.189 27.8326 208.567 27.8326 201.979 24.0678C199.289 22.5888 197.81 20.7064 197.273 18.6895C199.02 15.4625 200.768 12.5045 202.516 10.0843Z" fill="#6A70E3"/>
<path opacity="0.15" d="M244.871 79.8676C244.871 116.709 234.517 149.247 233.576 152.34C233.576 152.474 233.576 152.474 233.442 152.609C232.635 154.76 230.887 156.777 228.063 158.39C226.719 159.197 225.24 159.735 223.761 160.273C228.736 142.121 234.652 111.465 234.652 80.8088C234.652 38.4549 224.164 8.33654 216.635 0.941406C228.736 8.47099 244.871 41.5474 244.871 79.8676Z" fill="#041B86"/>
<path opacity="0.35" d="M183.155 79.8676C183.155 116.709 193.508 149.247 194.45 152.34C194.45 152.474 194.45 152.474 194.584 152.609C195.391 154.76 197.139 156.777 199.962 158.39C194.181 137.012 187.458 111.465 187.458 80.8088C187.458 38.4549 203.727 8.33654 211.391 0.941406C199.29 8.47099 183.155 41.5474 183.155 79.8676Z" fill="white"/>
<path d="M179.255 133.781L190.415 113.209L193.373 114.957L198.482 147.361L193.641 151.26C187.188 156.504 182.75 163.63 181.003 171.698L177.776 186.488C177.776 186.488 176.431 177.076 174.818 165.647C173.473 155.428 173.473 143.731 179.255 133.781Z" fill="#6A70E3"/>
<path d="M198.482 147.228L193.373 114.824L182.213 135.396C176.431 145.346 175.356 156.64 176.297 168.069L177.776 186.355L181.003 171.565C182.751 163.498 187.188 156.237 193.642 151.128L198.482 147.228Z" fill="#555BCB"/>
<path d="M248.904 133.781L237.744 113.209L234.786 114.957L229.677 147.361L234.517 151.26C240.971 156.504 245.408 163.63 247.156 171.698L250.383 186.488C250.383 186.488 251.728 177.076 253.341 165.647C254.551 155.428 254.551 143.731 248.904 133.781Z" fill="#6A70E3"/>
<path d="M229.543 147.228L234.652 114.824L245.812 135.396C251.593 145.346 252.669 156.64 251.728 168.069L250.249 186.355L247.022 171.565C245.274 163.498 240.837 156.237 234.383 151.128L229.543 147.228Z" fill="#555BCB"/>
<path d="M200.542 60.6164C199.923 53.1417 205.481 46.5809 212.956 45.9623C220.43 45.3437 226.991 50.9016 227.61 58.3762C228.228 65.8508 222.671 72.4116 215.196 73.0302C207.721 73.6489 201.161 68.091 200.542 60.6164Z" fill="#555BCB"/>
<path d="M214.08 70.1869C208.139 70.1869 203.323 65.3711 203.323 59.4304C203.323 53.4897 208.139 48.6738 214.08 48.6738C220.021 48.6738 224.836 53.4897 224.836 59.4304C224.836 65.3711 220.021 70.1869 214.08 70.1869Z" fill="#878CF0"/>
<path opacity="0.7" d="M214.08 70.1869C208.139 70.1869 203.323 65.3711 203.323 59.4304C203.323 53.4897 208.139 48.6738 214.08 48.6738C220.021 48.6738 224.836 53.4897 224.836 59.4304C224.836 65.3711 220.021 70.1869 214.08 70.1869Z" fill="white"/>
<path d="M204.399 91.8332C204.399 97.2115 208.702 101.514 214.08 101.514C219.459 101.514 223.761 97.2115 223.761 91.8332C223.761 86.455 219.459 82.1523 214.08 82.1523C208.702 82.2868 204.399 86.5894 204.399 91.8332Z" fill="#555BCB"/>
<path d="M207.295 93.534C206.407 89.7761 208.734 86.0103 212.492 85.1229C216.25 84.2356 220.016 86.5627 220.904 90.3206C221.791 94.0786 219.464 97.8443 215.706 98.7317C211.948 99.6191 208.182 97.292 207.295 93.534Z" fill="#878CF0"/>
<path opacity="0.7" d="M207.295 93.534C206.407 89.7761 208.734 86.0103 212.492 85.1229C216.25 84.2356 220.016 86.5627 220.904 90.3206C221.791 94.0786 219.464 97.8443 215.706 98.7317C211.948 99.6191 208.182 97.292 207.295 93.534Z" fill="white"/>
<path d="M151.144 164.168L179.213 262.922L155.07 164.168H151.144Z" fill="#511954"/>
<path d="M123.656 164.168L95.5859 262.922L119.729 164.168H123.656Z" fill="#511954"/>
<path d="M192.449 40.2539H79.4419V163.005H192.449V40.2539Z" fill="white"/>
<path d="M136.019 79.666H113.185L133.255 90.574C134.855 87.2289 135.873 83.5929 136.019 79.666Z" fill="#606BF1"/>
<path d="M86.8594 79.666C87.0048 88.6833 92.0952 96.3916 99.3672 100.609L110.711 79.666H86.8594Z" fill="#606BF1"/>
<path d="M111.875 79.959V103.811C120.892 103.666 128.601 98.7207 132.818 91.3033L111.875 79.959Z" fill="#606BF1"/>
<path d="M86.8594 78.7947H109.693L89.6227 67.8867C88.0229 71.2318 87.0048 74.8678 86.8594 78.7947Z" fill="#606BF1"/>
<path d="M123.51 57.8516L112.166 78.7949H136.018C135.873 69.7776 130.782 62.0693 123.51 57.8516Z" fill="#FBD15B"/>
<path d="M111.002 78.5045V54.6523C101.985 54.7978 94.2768 59.7427 90.0591 67.1602L111.002 78.5045Z" fill="#606BF1"/>
<path d="M112.166 54.0703V76.9044L123.074 56.6882C119.729 55.0884 116.093 54.0703 112.166 54.0703Z" fill="#FFF7CF"/>
<path d="M111.003 80.9766L100.095 101.047C103.294 102.793 107.076 103.665 111.003 103.811V80.9766Z" fill="#606BF1"/>
<path d="M95.5864 139.152H90.2051V159.514H95.5864V139.152Z" fill="#878CF0"/>
<path d="M105.185 135.516H99.8042V159.513H105.185V135.516Z" fill="#878CF0"/>
<path d="M114.93 131.881H109.549V159.514H114.93V131.881Z" fill="#878CF0"/>
<path d="M124.674 128.1H119.293V159.515H124.674V128.1Z" fill="#878CF0"/>
<path d="M134.419 124.463H129.038V159.514H134.419V124.463Z" fill="#878CF0"/>
<path d="M144.164 120.828H138.782V159.515H144.164V120.828Z" fill="#878CF0"/>
<path d="M153.908 117.191H148.526V159.514H153.908V117.191Z" fill="#878CF0"/>
<path d="M163.652 113.41H158.271V159.515H163.652V113.41Z" fill="#878CF0"/>
<path d="M173.396 109.775H168.015V159.516H173.396V109.775Z" fill="#878CF0"/>
<path d="M183.141 106.139H177.76V159.515H183.141V106.139Z" fill="#878CF0"/>
<path d="M184.45 85.1953C184.013 85.3408 171.069 87.5223 170.633 87.5223L174.996 88.6859C173.251 89.2676 164.088 92.7582 161.761 93.6308C161.034 96.6851 160.597 98.7212 160.161 100.466C158.125 100.321 154.198 99.8847 150.708 99.5939C149.399 100.757 139.509 109.629 138.345 110.793C135.291 110.356 131.364 109.92 128.601 109.484C125.983 111.811 113.184 122.573 110.566 124.755C108.094 123.882 104.458 122.719 102.131 121.992C101.258 122.573 84.8233 133.918 83.9507 134.645L84.8233 135.954L102.422 123.737C105.039 124.609 108.385 125.773 110.857 126.646C113.039 124.755 127.001 112.829 129.037 111.229C132.091 111.665 136.018 112.102 138.781 112.538C139.509 111.956 150.708 101.775 151.144 101.339C152.889 101.485 158.707 102.066 161.179 102.212C161.616 100.321 162.634 95.8124 162.924 94.7943L175.432 89.1222L174.414 93.4854L184.45 85.1953Z" fill="#CD3179"/>
<path d="M197.976 163.006H76.9697V165.333H197.976V163.006Z" fill="#241145"/>
<path d="M187.795 48.8359H144.163V52.0356H187.795V48.8359Z" fill="#C5C8EA"/>
<path d="M187.795 60.9043H144.163V64.104H187.795V60.9043Z" fill="#C5C8EA"/>
<path d="M188.086 66.7227H144.454V69.9223H188.086V66.7227Z" fill="#C5C8EA"/>
<path d="M165.979 55.5254H144.163V57.8524H165.979V55.5254Z" fill="#C5C8EA"/>
<path d="M187.795 55.5254H170.633V57.8524H187.795V55.5254Z" fill="#C5C8EA"/>
<path d="M35.5808 255.359C35.5808 255.359 32.5265 260.013 29.7632 261.032C26.9998 261.904 24.5273 261.904 24.5273 262.486C24.5273 263.068 24.5273 263.359 24.5273 263.359H40.0894L39.5076 255.359H35.5808Z" fill="#3C3C6D"/>
<path d="M63.9419 255.795L64.5237 263.358H79.9403C79.9403 263.358 79.9403 261.903 77.4678 261.903C74.9953 261.903 68.1596 257.395 67.5779 255.795H63.9419Z" fill="#3C3C6D"/>
<path d="M55.0699 134.354L48.816 194.857C48.816 194.857 37.4717 250.561 34.4175 256.088H40.9623L57.2515 213.474V204.456L69.0321 155.443L67.8686 198.784L65.9779 205.62L61.9056 256.088H69.0321L78.6312 201.111L82.4126 134.209H55.0699V134.354Z" fill="#363666"/>
<path d="M60.3055 34.4375C60.16 31.6742 55.6514 30.0743 53.6152 33.7103L54.197 34.1466C56.0877 31.3833 59.4328 32.1105 60.3055 34.4375Z" fill="#3C3C6D"/>
<path d="M60.8877 64.3983L63.0693 49.418L69.4686 53.054L72.8138 64.1074C72.8138 64.1074 72.9592 77.197 60.8877 64.3983Z" fill="#FFC8AF"/>
<path d="M63.0691 49.418L69.4684 53.054L71.9409 60.9077C68.8867 60.9077 64.9598 58.8716 62.7782 54.7992C62.6327 54.6538 62.6327 54.5084 62.4873 54.3629L63.0691 49.418Z" fill="#FFC8AF"/>
<path d="M69.759 32.9855C69.759 32.9855 75.1403 35.1671 75.1403 39.6757C75.1403 44.0389 77.3219 55.0923 75.1403 57.2739C72.9587 59.4555 65.8321 58.1465 62.6325 52.7653C59.4328 47.384 60.0145 36.0397 61.0326 35.0216C61.9053 34.149 67.7229 31.0947 69.759 32.9855Z" fill="#FFC8AF"/>
<path d="M65.8328 34.7282V35.1645C65.8328 35.1645 67.1417 40.5458 72.0867 41.5638C77.0316 42.4365 77.6134 39.8186 77.6134 39.8186C77.6134 39.8186 82.8492 42.0002 83.1401 36.7643C83.5764 31.5285 79.0678 30.365 79.0678 30.365C79.0678 30.365 80.5222 33.8555 78.6315 33.5647C76.7407 33.1283 78.486 30.2195 76.4499 29.4923C74.4137 28.7651 72.523 29.9287 72.523 29.9287C72.523 29.9287 69.3233 29.6378 67.1417 28.4743C64.9601 27.3107 60.4515 28.3288 59.8697 30.2195C59.7243 31.9648 59.5789 33.2738 59.5789 33.2738C59.5789 32.8375 58.2699 33.4192 58.1245 33.4192C53.7613 35.8917 56.9609 42.7274 59.1425 47.236C59.7243 48.545 60.4515 49.8539 61.1787 51.1629C61.615 51.7446 62.0513 52.4718 62.4877 52.9082C62.4877 52.9082 60.0152 46.5088 60.8878 44.4726C61.615 42.291 62.6331 44.6181 63.0694 42.4365C63.5057 40.2549 61.7605 39.964 61.7605 38.2187C61.7605 36.1826 65.8328 34.7282 65.8328 34.7282Z" fill="#3C3C6D"/>
<path d="M62.9231 44.4695C62.9231 44.4695 61.0324 41.2698 59.8689 42.2879C58.7054 43.4514 60.7415 49.9962 61.9051 49.4145C63.0686 48.8327 62.9231 44.4695 62.9231 44.4695Z" fill="#FFC8AF"/>
<path d="M62.1967 44.7635C62.1967 44.7635 60.7423 42.8728 60.4514 43.8909C60.0151 44.909 61.6149 49.1267 62.1967 48.5449C62.7784 47.9632 62.1967 44.7635 62.1967 44.7635Z" fill="#FFC8AF"/>
<path d="M83.43 68.7624L83.7209 129.265L59.1416 131.156L50.7061 71.2349L60.7414 64.2538L68.4497 65.4173L73.6855 63.9629L83.43 68.7624Z" fill="#F5F5F5"/>
<path d="M70.9221 67.5996L70.0495 70.9447H67.7225L66.2681 67.5996L68.4497 65.418L70.9221 67.5996Z" fill="#3C3C6D"/>
<path d="M70.9217 69.1975L68.4492 65.4161L73.9759 63.5254L77.0302 65.5615L70.9217 69.1975Z" fill="white"/>
<path d="M66.4135 69.1987L68.4496 65.4173L60.7413 63.9629L57.8325 65.999L66.4135 69.1987Z" fill="white"/>
<path d="M70.0491 70.9434H67.722L66.4131 106.14L69.9036 111.23L72.9579 105.558L70.0491 70.9434Z" fill="#3C3C6D"/>
<path d="M77.0306 65.5605L70.6312 98.8663L57.1053 67.1604L50.5605 71.0873L54.4874 124.609L52.0149 136.39L85.3207 135.372L84.0117 119.519L84.5935 67.8876L77.0306 65.5605Z" fill="#3C3C6D"/>
<path d="M77.0307 65.5605L70.6313 98.8663L79.0669 82.1407L78.6305 80.5408L80.5213 77.4866L81.8302 66.2877L77.0307 65.5605Z" fill="#3C3C6D"/>
<path d="M57.5419 66.4355L70.6315 98.8686L58.2691 81.5613V79.5251L55.6512 77.7799L53.1787 67.7445L57.5419 66.4355Z" fill="#3C3C6D"/>
<path d="M73.8309 135.084L70.6312 98.8691L72.9582 134.356L54.6328 136.102L73.8309 135.084Z" fill="#3C3C6D"/>
<path d="M71.7954 96.1043C71.7954 96.1043 66.4142 95.5225 64.5234 96.1043C62.6327 96.686 59.1422 100.758 59.1422 100.758L58.2695 104.103H63.069L67.8686 100.177L71.7954 96.1043Z" fill="#FFC8AF"/>
<path d="M59.2875 100.759C54.9243 96.3957 51.4338 70.362 50.7066 71.0892C43.1437 78.652 39.2168 115.012 54.7789 116.321C64.9597 117.048 73.9769 108.758 79.2128 102.795C78.0493 101.195 76.5949 99.5954 76.1585 97.5592C70.4864 100.177 62.1963 103.668 59.2875 100.759Z" fill="#3C3C6D"/>
<path d="M84.5939 67.8867C84.5939 67.8867 89.3934 68.6139 93.9021 86.2121C98.5561 103.81 93.3203 114.718 84.1576 110.355C76.7402 106.719 69.3228 101.338 69.3228 101.338L72.6679 95.8112C72.6679 95.8112 78.6309 98.8654 83.8667 97.7019C85.3211 97.411 83.1395 95.084 83.4304 91.8843C84.1576 82.867 83.4304 75.1587 84.5939 67.8867Z" fill="#3C3C6D"/>
<path d="M93.0292 94.5036C93.0292 94.2127 90.4113 94.2127 88.2297 94.2127C90.4113 94.0673 92.7383 93.7764 92.4474 93.4855C92.1566 92.9038 85.03 93.3401 85.03 93.0492C85.03 92.7583 91.8657 93.4855 91.8657 92.6129C91.8657 91.7402 84.0119 91.7402 84.0119 91.7402L83.4302 92.1766L80.0851 94.9399L77.1763 97.267C79.6487 97.8487 81.394 98.4305 84.1574 98.4305C85.03 97.8487 85.7572 97.267 85.9027 97.1215C85.9027 97.1215 91.5748 95.8126 91.5748 95.2308C91.5748 94.649 86.6299 95.958 86.4844 95.6671C86.339 95.6671 93.0292 95.0854 93.0292 94.5036Z" fill="#FFC8AF"/>
<path d="M70.1958 95.2324L68.0142 100.032L69.614 101.05L72.3774 96.3959L70.1958 95.2324Z" fill="#FFF7CF"/>
<path d="M151.332 138.257L143.173 119L129.791 134.993L108.901 136.952L119.999 154.577L115.429 174.976L129.138 171.549C128.975 172.528 128.975 173.508 128.811 174.324C127.179 195.05 129.301 217.734 138.766 234.706L139.093 234.543C137.298 228.668 136.155 222.63 135.992 215.286C135.992 212.022 135.992 208.758 136.155 205.657C136.808 196.029 138.766 186.563 141.541 177.261C141.704 176.935 141.704 176.608 141.867 176.282C141.867 175.956 142.03 175.792 142.03 175.466C142.03 175.14 142.193 174.976 142.193 174.65C142.193 174.487 142.357 174.324 142.357 174.16L153.291 180.688L154.76 159.962L170.426 146.254L151.332 138.257Z" fill="#FBD15B"/>
<path d="M158.676 198.639L156.881 187.379L147.579 193.907L136.318 192.112L139.745 203.046L134.523 213.164L144.315 213.327V213.49C144.315 213.654 144.315 213.817 144.315 213.98C144.315 214.47 144.152 214.959 144.152 215.286C144.152 215.449 144.152 215.449 144.152 215.612C143.172 222.629 140.072 229.157 134.523 233.89L134.686 234.216C141.051 231.279 145.783 226.22 149.047 220.018C149.211 219.855 149.211 219.692 149.374 219.365C149.7 218.876 149.863 218.386 150.027 217.897C150.027 217.897 150.027 217.897 150.027 217.733C150.027 217.57 150.19 217.407 150.19 217.244L153.943 220.997L157.534 210.226L167.652 205.167L158.676 198.639Z" fill="#FFC41D"/>
<path d="M125.711 205.496C125.711 205.333 125.711 205.333 125.711 205.17C125.711 205.006 125.548 204.68 125.548 204.517L133.218 205.496L129.465 194.725L134.361 184.444L122.937 184.607L114.777 176.773L111.513 187.708L101.558 193.093L110.86 199.621L112.819 210.882L118.531 206.638C118.857 207.454 119.183 208.27 119.51 209.086V209.25C124.406 220.021 132.239 232.587 140.725 236.503L140.888 236.177C133.055 230.465 128.159 216.104 125.711 205.496Z" fill="#FFC41D"/>
<path d="M146.274 236.501C146.274 241.886 141.867 246.293 136.482 246.293C131.096 246.293 126.69 241.886 126.69 236.501C126.69 231.115 131.096 226.709 136.482 226.709C141.867 226.709 146.274 230.952 146.274 236.501Z" fill="#FFC41D"/>
<path d="M107.433 246.131V276.485H154.597H167.816V246.131H107.433Z" fill="#7A2B02"/>
<path d="M174.343 281.543H100.905V280.727C100.905 278.443 102.863 276.484 105.148 276.484H170.263C172.548 276.484 174.506 278.443 174.506 280.727V281.543H174.343Z" fill="#FFC41D"/>
<path d="M130.443 254.455H128.975H126.2H125.221H121.631H120.978V256.25V260.167V261.473V268.653H126.69H127.669H130.933H132.891H136.482H137.461H140.235H141.704H153.617V254.455H130.443Z" fill="#FBD15B"/>
<path d="M163.899 238.623H110.86V246.293H163.899V238.623Z" fill="#FBD15B"/>
<path d="M154.597 230.949H154.27H148.722H120.652C117.225 230.949 114.287 233.724 114.287 237.314V238.619H155.249H160.798V237.64V237.314C160.961 233.724 158.024 230.949 154.597 230.949Z" fill="#FFC41D"/>
</svg>
