<svg width="18" height="18" viewBox="0 0 18 18" fill="none" xmlns="http://www.w3.org/2000/svg">
<path fill-rule="evenodd" clip-rule="evenodd" d="M4.33412 1.99941C4.30912 0.864452 3.49751 0 2.17956 0C0.861624 0 0 0.864452 0 1.99941C0 3.11086 0.836158 4.0002 2.12956 4.0002H2.15418C3.49751 4.0002 4.33412 3.11086 4.33412 1.99941ZM4.0806 5.58203H0.228027V17.1574H4.0806V5.58203ZM13.5385 5.30833C16.0736 5.30833 17.9742 6.9631 17.9742 10.5186L17.9741 17.1555H14.1217V10.9627C14.1217 9.40718 13.5642 8.34575 12.1695 8.34575C11.1052 8.34575 10.4712 9.06131 10.1928 9.75244C10.0909 10.0001 10.0659 10.3452 10.0659 10.6912V17.1558H6.21287C6.21287 17.1558 6.26365 6.66663 6.21287 5.58045H10.0659V7.22001C10.5772 6.43184 11.493 5.30833 13.5385 5.30833Z" fill="white"/>
</svg>
