<svg width="75" height="147" viewBox="0 0 75 147" fill="none" xmlns="http://www.w3.org/2000/svg">
<g clip-path="url(#clip0_461_1037)">
<path fill-rule="evenodd" clip-rule="evenodd" d="M11.613 34.521C11.2097 33.1434 11.1291 31.6847 11.2097 30.3071C11.2904 29.4157 11.613 28.6053 11.7743 27.957C11.7743 28.0381 11.613 28.7674 11.7743 29.8209C11.8549 30.3071 12.1775 30.8743 12.3388 31.5226C12.5807 32.333 13.1452 33.0623 13.4678 33.8727C13.7904 34.7641 13.9517 35.8176 14.113 36.4659C14.4355 37.5193 14.5968 38.1676 14.5968 38.0866C14.5968 37.5193 14.4355 37.0331 14.3549 36.4659C14.2743 35.4934 14.5162 34.602 15.0001 33.3865C15.3226 32.6571 15.7259 32.1709 16.1291 31.4416C16.5323 30.6312 17.1775 29.9019 17.1775 29.0915C17.1775 29.4967 17.2581 29.9019 17.2581 30.3071C17.1775 32.1709 16.6936 33.6296 16.2904 35.0072C15.9678 36.0607 15.4033 37.1141 15.4033 38.6538C15.4033 39.9504 15.5646 40.8418 15.4033 40.5987C15.3226 40.3556 14.6775 39.4642 14.0323 38.6538C12.9839 37.2762 12.1775 36.3848 11.613 34.521Z" fill="white"/>
<path fill-rule="evenodd" clip-rule="evenodd" d="M12.6614 28.6057C12.5807 27.9574 12.4194 27.3092 12.4194 26.5798C12.4194 25.7695 12.5807 24.716 12.8227 24.0677C12.9839 23.6625 14.0323 21.3935 14.4356 21.1504C14.3549 21.3935 14.113 21.9608 14.0323 22.6901C13.9517 23.3384 13.9517 24.0677 13.9517 24.635C13.9517 25.5264 14.1936 26.4178 14.2743 27.3092C14.3549 28.6057 14.2743 29.7402 14.1936 30.7937C14.1936 30.7937 14.3549 29.6592 14.9194 28.6057C15.242 27.9574 15.6452 27.3902 16.1291 26.904C17.0969 26.0126 17.984 24.9591 18.6291 24.4729C18.6291 24.5539 18.4678 25.9315 17.8227 27.2281C17.2581 28.4437 16.2098 29.5782 16.1291 29.6592C15.8872 29.9023 15.6452 30.3885 15.3227 30.8748C15.0001 31.361 14.6775 31.9282 14.5162 32.4145C14.1936 33.1438 14.113 33.711 14.113 33.711C13.7904 32.9007 13.7904 32.1713 13.5485 31.442C13.3872 30.5506 12.9033 29.7402 12.6614 28.6057Z" fill="white"/>
<path fill-rule="evenodd" clip-rule="evenodd" d="M13.7904 42.7053C12.5808 41.3277 11.613 39.9501 11.2904 38.0863C11.1291 37.3569 11.2904 36.6276 11.2904 35.8172C11.5324 36.4655 11.7743 37.438 12.5001 38.4104C13.3872 39.626 14.9195 40.7605 15.8066 41.895C16.2098 42.4622 16.5324 43.0295 16.7743 43.4347C17.0162 43.8398 17.3388 44.083 17.5001 44.245C17.742 44.5692 16.5324 42.9484 16.4517 41.0846C16.3711 39.626 16.9356 37.8432 16.9356 37.1949C17.0162 35.9793 17.0969 35.0069 17.1775 35.4931C17.2582 35.6552 17.5808 36.5466 17.8227 37.7621C18.0646 39.0587 18.2259 40.7605 18.2259 41.2467C18.2259 42.4622 18.3872 43.7588 18.7098 44.8933C18.8711 45.5416 19.1937 46.1899 19.5162 46.6761C19.6775 47.0003 14.9195 43.9209 13.7904 42.7053Z" fill="white"/>
<path fill-rule="evenodd" clip-rule="evenodd" d="M15.0807 27.2283C15.0807 26.499 14.9194 25.3645 14.9194 23.4196C14.9194 22.2851 15.0807 21.1506 15.484 20.2592C15.7259 19.773 15.9678 19.3678 16.4517 18.9626C17.0969 18.3143 17.8227 17.7471 18.5485 17.666C17.9839 17.9091 17.5001 18.7195 17.0969 19.854C16.9356 20.2592 16.8549 20.9075 16.6936 21.3127C16.5323 21.8799 16.4517 22.5282 16.2904 23.0144C16.1291 23.8248 15.8872 24.4731 15.7259 25.0403C15.8065 24.7972 16.2098 23.9869 16.9356 23.1765C17.2581 22.7713 17.8227 22.3661 18.3065 21.9609C18.6291 21.7178 19.0323 21.5558 19.2743 21.3127C19.6775 20.8264 20.4033 20.2592 20.8065 19.773C21.0485 19.4488 21.1291 19.2057 21.1291 19.1247C21.1291 19.4488 21.1291 20.0971 20.8872 20.6644C20.7259 21.1506 20.4033 21.5558 20.242 21.7989C19.7581 22.5282 19.4356 22.8523 18.871 23.3386C17.9033 24.1489 17.0969 24.8783 16.8549 25.0403C16.2098 25.5265 15.6452 26.2559 15.3227 26.7421C15.0807 27.1473 15.0807 27.3904 15.0807 27.2283Z" fill="white"/>
<path fill-rule="evenodd" clip-rule="evenodd" d="M17.2578 21.8803C17.5804 20.8268 17.9836 18.7199 19.1127 17.5854C19.8385 16.775 20.8062 16.2888 21.7739 15.8026C22.3385 15.4784 22.903 15.1543 23.3868 15.1543C22.2578 16.4509 21.8546 17.0181 20.7256 18.5578C19.9997 19.5303 19.1127 20.3406 18.4675 20.9889C17.7417 21.6372 17.2578 22.0424 17.2578 21.8803Z" fill="white"/>
<path fill-rule="evenodd" clip-rule="evenodd" d="M19.5163 49.8377C18.1453 49.4325 16.9356 48.6221 15.2421 47.0014C13.7098 45.5428 12.9034 42.7065 12.984 42.7875C13.226 42.9496 13.7098 44.0841 15.2421 45.2996C15.8066 45.7048 16.6131 45.9479 17.3389 46.3531C18.3873 46.8393 19.1937 47.3256 20.0002 47.8118C20.484 48.1359 20.9679 48.5411 21.5324 48.9463C21.855 49.1894 22.1776 49.3515 22.3389 49.4325C21.9356 49.1084 21.2905 48.379 20.8066 47.5687C20.484 47.0824 20.1614 46.5152 19.9195 45.8669C19.5969 44.8134 19.5969 43.5979 19.355 42.4634C19.1937 41.653 18.9518 41.0047 18.7098 40.2754C19.1937 40.7616 19.4356 41.2478 19.7582 41.653C20.2421 42.3013 20.726 42.9496 21.0485 43.5979C21.6131 44.7324 21.9356 46.029 22.5002 47.3256C22.7421 47.8928 23.1453 48.8652 23.5485 49.4325C24.1131 50.1618 24.5969 50.648 24.5969 50.648C24.5969 50.648 24.355 50.486 23.6292 50.3239C21.855 50.2429 20.6453 50.1618 19.5163 49.8377Z" fill="white"/>
<path fill-rule="evenodd" clip-rule="evenodd" d="M24.0322 53.4836C22.1773 53.4026 20.4031 52.9164 19.0322 51.7819C17.9031 50.8905 17.4193 49.9991 17.0967 49.5939C17.258 49.756 18.7096 50.7284 20.5644 51.2146C21.6935 51.4577 22.9031 51.4577 24.2741 51.5388C24.758 51.6198 25.3225 51.5388 25.7257 51.6198C26.6128 51.7819 27.3386 51.944 28.0644 51.944C28.0644 51.944 26.3709 51.5388 25.2418 50.4853C23.7902 49.1077 23.1451 46.8387 22.7418 45.9473C23.4676 46.5145 24.4354 47.3249 25.5644 48.3784C26.1289 48.8646 26.5322 49.4318 27.0967 49.9991C27.5805 50.4853 28.2257 50.8905 28.7096 51.2146C29.5967 51.8629 30.4031 51.944 31.2096 52.106C31.3709 52.106 30.9676 52.1871 30.2418 52.4302C29.516 52.6733 28.4676 52.9974 27.016 53.2405C26.0483 53.3216 24.9999 53.4836 24.0322 53.4836Z" fill="white"/>
<path fill-rule="evenodd" clip-rule="evenodd" d="M50.8066 54.6997C51.7743 54.5376 52.7421 54.2945 53.7904 53.7273C53.3066 54.2135 52.9033 54.6187 52.4195 54.9428C48.5485 57.617 45.4033 56.0773 43.2259 54.5376C42.2582 53.8893 41.7743 53.4031 41.0485 53.079C40.7259 52.9169 40.4034 52.8359 39.8388 52.7548C39.5163 52.7548 39.0324 52.7548 38.6292 52.8359C39.113 52.9979 39.5969 53.2411 40.1614 53.5652C40.8066 53.9704 41.613 54.3756 42.2582 54.9428C43.0646 55.5911 43.7904 56.4015 44.5969 56.9687C44.5969 56.9687 43.4679 57.9412 43.4679 57.8601C42.8227 57.1308 41.7743 55.9963 40.6453 55.1049C39.4356 54.1325 38.2259 53.4031 37.984 53.3221C37.8227 53.2411 37.7421 53.16 37.5808 53.16C37.4195 53.2411 37.2582 53.2411 37.1775 53.3221C37.0163 53.4031 35.7259 54.1325 34.5163 55.1049C33.3872 56.0773 32.2582 57.2118 31.6937 57.8601C31.613 57.9412 30.484 56.9687 30.5646 56.9687C31.3711 56.3204 32.0969 55.5911 32.9034 54.9428C33.5485 54.4566 34.355 53.9704 35.0001 53.5652C35.5646 53.2411 36.0485 52.9979 36.5324 52.8359C36.0485 52.7548 35.6453 52.6738 35.3227 52.7548C34.7582 52.8359 34.4356 52.9169 34.113 53.079C33.3872 53.4031 32.9033 53.8893 31.9356 54.5376C29.6775 56.0773 26.5324 57.617 22.6614 54.9428C22.1775 54.6187 21.855 54.2135 21.3711 53.7273C22.4195 54.2135 23.3872 54.5376 24.355 54.6997C25.2421 54.8618 26.2098 54.2945 27.0969 54.4566L31.9356 52.4307C33.1453 51.9445 34.5163 52.0255 35.8066 52.1065C36.5324 52.1876 37.0969 52.3497 37.6614 52.5117C38.2259 52.3497 38.7904 52.1876 39.5163 52.1065C40.8066 52.0255 42.0969 51.8634 43.3872 52.4307L48.2259 54.4566C48.9517 54.3756 50.0001 54.8618 50.8066 54.6997Z" fill="white"/>
<path fill-rule="evenodd" clip-rule="evenodd" d="M38.3873 16.6931C38.226 16.5311 38.226 16.2069 38.468 16.2069C38.8712 16.2069 39.0325 15.8017 39.4357 15.8017C40.1615 15.7207 40.4034 15.6397 41.0486 15.8828C41.7744 16.2069 41.6131 16.369 41.0486 16.6121C40.8067 16.6931 40.0809 16.6931 39.7583 16.6931C39.7583 16.8552 38.8712 17.0173 38.3873 16.6931Z" fill="white"/>
<path fill-rule="evenodd" clip-rule="evenodd" d="M45.8873 18.3153C45.6453 18.0722 45.726 17.9102 46.0485 17.9102C46.2098 17.9102 46.2098 17.9912 46.3711 17.9912C46.6937 18.0722 46.855 18.1533 46.7743 18.2343C46.6937 18.4774 46.7743 18.7205 46.7743 18.8826C46.7743 19.0447 46.1292 18.6395 45.8873 18.3153Z" fill="white"/>
<path fill-rule="evenodd" clip-rule="evenodd" d="M44.1934 20.5015L44.274 19.0429V18.7998C44.274 18.7187 44.5159 18.7187 44.5966 18.7187C44.9192 18.6377 45.3224 18.5566 45.5643 18.5566C45.8063 18.6377 45.8869 18.7187 45.9676 18.7187C46.1288 18.7998 46.2095 18.9618 46.2095 18.9618C46.4514 19.0429 46.6934 19.286 46.9353 19.5291C47.0159 19.6911 47.1772 19.6911 47.3385 19.9343C47.5805 20.4205 47.8224 21.0688 48.145 21.636C48.3063 21.8791 48.5482 22.2033 48.7095 22.3653C49.5966 23.2567 49.9192 23.6619 50.3224 24.3913C50.5643 24.7964 50.9676 25.1206 51.1288 26.2551C51.1288 26.4982 51.1288 26.6603 51.1288 26.7413C51.0482 26.9034 50.8063 26.8223 50.403 26.6603C50.1611 26.5792 49.9998 26.7413 49.8385 26.6603C49.5159 26.5792 49.4353 26.3361 49.274 26.012C49.1127 25.6878 48.7095 25.1206 48.4676 25.1206C47.9837 25.2016 47.6611 24.8775 47.4192 24.5533C47.2579 24.3102 47.1772 24.0671 46.9353 24.0671C46.5321 23.9861 46.2095 23.905 46.1288 23.6619C46.1288 23.5809 46.0482 23.4999 46.0482 23.4188C46.0482 23.2567 46.2095 23.0947 46.2095 22.8516C46.2095 22.6895 45.8869 22.2033 45.7256 22.2033C45.645 22.2033 45.5643 22.0412 45.403 22.0412C45.1611 22.1222 44.7579 22.5274 44.7579 22.4464C44.6772 22.2843 44.7579 22.1222 44.7579 21.8791C44.7579 21.636 44.5966 21.3929 44.5966 21.2308C44.5966 21.1498 44.6772 20.9877 44.6772 20.9877C44.5966 20.8257 44.1934 20.8257 44.1934 20.5015Z" fill="white"/>
<path fill-rule="evenodd" clip-rule="evenodd" d="M45.5647 39.6276C45.484 39.7897 45.8066 39.9517 45.1614 39.8707C45.0001 39.8707 44.9195 39.7897 44.8389 39.7086C44.5163 39.4655 44.5163 39.1414 44.355 39.1414C45.0808 38.1689 44.7582 38.1689 45.0808 38.0879C45.0808 38.0879 45.1614 38.1689 45.2421 38.331C45.2421 38.412 45.2421 38.6551 45.3227 38.7362C45.4034 38.8172 45.5647 38.7362 45.7259 38.7362C45.8872 38.8172 45.9679 38.9793 46.2098 38.9793C46.2098 39.2224 45.6453 39.3845 45.5647 39.6276Z" fill="white"/>
<path fill-rule="evenodd" clip-rule="evenodd" d="M47.6613 40.9227C47.8225 41.3279 47.9838 41.733 47.5806 41.733C47.3387 41.733 47.258 42.0572 47.1774 42.2193C47.1774 42.3003 47.0967 42.3003 47.0161 42.3003C46.7742 42.3003 46.7742 42.1382 46.6935 42.0572C46.5322 41.8951 46.5322 41.733 46.5322 41.4899C46.5322 41.3279 46.6129 41.0037 46.6935 40.7606C46.6935 40.5985 46.7742 40.2744 46.8548 40.0313C46.9354 39.7071 47.0967 39.6261 47.4193 40.1933C47.5 40.5175 47.5806 40.7606 47.6613 40.9227Z" fill="white"/>
<path fill-rule="evenodd" clip-rule="evenodd" d="M37.1774 32.6576C37.0968 32.5766 37.0161 32.4956 36.9355 32.4956H36.8549C36.6936 32.4145 36.2097 32.3335 35.9678 32.4956C35.8871 32.4956 35.8871 32.5766 35.8065 32.5766C35.7258 32.6576 35.8065 32.9008 35.7258 33.0628C35.7258 33.3059 35.4032 33.6301 35.1613 33.7922C35.0807 33.8732 34.9194 33.7922 34.8387 33.8732C34.7581 34.1163 34.9194 34.4404 35.1613 34.6836C35.5645 35.1698 36.2097 35.4939 35.9678 34.8456C35.9678 34.7646 35.6452 34.6025 35.8065 34.5215C35.9678 34.5215 36.5323 34.6025 36.6936 34.5215C36.8549 34.3594 36.8549 34.0353 37.0161 33.7922C37.1774 33.549 37.3387 33.2249 37.3387 33.0628C37.3387 32.9008 37.2581 32.7387 37.1774 32.6576ZM48.2258 34.0353C48.1452 34.0353 47.9032 34.2784 47.8226 34.4404C47.8226 34.4404 47.8226 34.5215 47.742 34.5215C47.742 34.3594 47.4194 34.0353 47.0968 33.6301C46.8549 33.387 46.7742 33.1439 46.5323 32.8197C46.4516 32.7387 46.2903 32.7387 46.2903 32.6576C46.2903 32.5766 46.2903 32.4956 46.2903 32.4145C46.4516 32.0904 46.9355 31.7662 46.8549 31.28C46.8549 31.199 46.8549 31.199 46.8549 31.118H46.9355C47.2581 31.118 47.5807 30.8748 47.9032 30.4697C48.0645 30.2266 48.2258 29.9834 48.3065 29.7403C48.4678 29.3352 48.3065 28.93 48.3065 28.4438C48.3065 28.3627 48.4678 28.0386 48.4678 27.9575C48.4678 27.7144 48.3065 27.3092 48.1452 27.1472C48.0645 26.9851 47.9032 27.0661 47.742 26.9041C47.6613 26.742 47.9839 26.4989 47.9839 26.4178C47.9032 26.2558 47.6613 26.4178 47.5807 26.1747C47.5807 26.0937 47.8226 25.9316 47.8226 25.7696C47.8226 25.6885 47.5807 25.6885 47.5 25.6075C47.4194 25.5264 47.0161 25.8506 46.9355 25.8506C46.7742 25.7696 46.8549 25.4454 46.6936 25.3644C46.2903 24.9592 45.8871 24.473 45.6452 23.9868C45.6452 23.9057 45.5645 23.9057 45.5645 23.8247C45.4839 23.6626 45.1613 22.9333 45.0807 22.7712C45 22.6902 45 22.5281 45 22.4471C44.7581 22.204 44.5968 22.366 44.4355 22.204C44.3549 22.1229 44.1936 21.8798 44.0323 21.7177C43.9516 21.6367 43.4678 21.0694 43.5484 21.1505L43.9516 22.4471C44.0323 22.6902 43.9516 23.2574 43.9516 23.3385V23.4195C43.9516 23.5005 43.871 23.5005 43.9516 23.5816C44.3549 24.2299 44.4355 23.9868 44.7581 24.3919C44.8387 24.473 45 24.554 45.0807 24.554H45.1613L45.242 24.635C45.242 24.635 45.242 24.635 45.242 24.7161C45.4032 24.8782 45.4839 25.1213 45.4839 25.2023C45.4839 25.2833 46.0484 25.8506 46.371 26.4178C46.5323 26.742 46.129 27.0661 46.2097 27.3092C46.2903 27.5524 46.6936 27.7144 46.7742 27.7144C47.0161 27.9575 47.4194 28.2817 47.5807 28.6869C47.6613 28.93 47.5807 29.2541 47.5807 29.4972C47.5 30.1455 46.8549 30.5507 46.8549 30.7128C46.7742 30.5507 46.6129 30.5507 46.6129 30.0645C46.6129 29.5783 46.5323 29.4162 46.8549 29.3352C47.2581 29.1731 47.0968 28.93 47.2581 28.6869C47.3387 28.6058 46.9355 28.2817 46.4516 28.1196C46.2903 28.0386 46.0484 28.3627 45.8871 28.3627C45.7258 28.3627 45.6452 28.1196 45.6452 28.0386C45.6452 27.7955 45.6452 27.4713 45.3226 27.3092C45.242 27.2282 45.0807 26.9851 44.8387 26.9851C44.4355 26.9041 43.9516 27.0661 43.3871 26.9041C43.2258 26.9041 43.0645 26.823 42.9032 26.742C42.9032 26.661 42.8226 26.661 42.742 26.5799V27.0661C42.3387 26.9041 41.9355 26.661 41.7742 26.5799C41.6936 26.4989 41.2097 26.9851 41.2097 27.3092C41.2097 27.4713 41.371 27.5524 41.5323 27.5524C41.2903 27.6334 40.8871 27.9575 40.4839 28.2817C40.1613 28.6058 39.8387 29.011 39.7581 28.93C39.4355 28.6869 39.2742 28.4438 39.1936 28.4438C38.9516 28.4438 38.629 28.6058 38.7097 28.5248C38.9516 28.2817 39.3549 28.1196 39.5161 27.9575C39.7581 27.7955 39.7581 27.6334 39.8387 27.5524C40.0807 27.4713 39.8387 27.1472 39.7581 27.0661C39.6774 26.9851 39.8387 26.742 39.6774 26.823C39.3549 26.9041 38.7903 27.4713 38.7097 27.4713C38.3871 27.3903 37.9032 27.3092 37.4194 27.3092C37.0161 27.3092 36.6936 27.3092 36.5323 27.3903C36.2903 27.4713 36.2903 27.0661 36.129 27.0661C35.4032 27.3092 35.9678 27.6334 35.5645 28.0386C35.4839 28.1196 35.1613 28.2006 34.9194 28.2817C34.8387 28.2817 34.6774 28.2006 34.6774 28.2006C34.4355 28.2817 34.4355 27.9575 34.2742 27.9575C34.0323 28.0386 34.1936 28.2006 34.0323 28.2006C33.7903 28.1196 33.9516 27.8765 33.9516 27.7144C33.9516 27.6334 33.7097 27.5524 33.6291 27.4713C32.9839 27.2282 33.1452 27.3092 32.5807 27.0661C32.5 27.0661 32.5 26.9851 32.4194 26.9851C32.3387 26.9851 32.1774 26.9041 32.0968 26.9041C32.0968 26.9041 32.0968 26.9041 32.0161 26.9041C31.7742 26.9851 31.6129 27.3903 31.371 27.5524C31.1291 27.7144 30.9678 27.6334 30.8065 27.7955C30.5645 27.9575 30.4839 28.2006 30.4032 28.3627C30 28.6869 29.7581 28.3627 29.6774 28.8489C29.6774 28.93 29.5968 29.092 29.4355 29.1731C29.2742 29.2541 29.1936 29.092 29.0323 29.2541C28.871 29.3352 28.7903 29.5783 28.7903 29.6593C28.4678 29.9024 28.4678 30.6317 28.3871 31.118C28.2258 31.6042 27.9032 32.0094 27.9032 32.4145C27.9032 32.4145 27.5807 32.8197 27.5807 33.0628C27.5 33.387 27.5807 33.6301 27.5807 33.8732V33.9542C27.5807 34.1973 27.5 34.4404 27.4194 34.4404C27.3387 34.4404 27.2581 34.4404 27.1774 34.3594C26.7742 34.1163 26.2903 33.468 25.8871 33.468C25.4839 33.468 24.9194 33.8732 24.6774 34.3594C24.4355 34.7646 24.3549 35.8181 24.1936 36.1422C24.1936 36.2232 23.7903 36.1422 23.3065 36.0612C23.1452 36.0612 23.0645 36.0612 22.9032 36.0612C22.8226 36.0612 22.742 35.656 22.6613 35.656C22.3387 35.737 22.4194 35.8991 22.0968 36.0612C21.7742 36.2232 21.371 35.8181 21.2097 36.1422C21.0484 36.3853 20.8065 36.7905 20.8871 37.2767C20.9678 37.7629 20.8871 38.0871 21.2903 38.4923C21.5323 38.7354 21.4516 38.4923 21.8549 38.7354C21.9355 38.8164 21.9355 38.9785 22.0968 39.1406C22.2581 39.2216 22.4194 38.9785 22.5807 39.1406C22.742 39.2216 22.8226 39.3837 22.9839 39.4647C23.2258 39.6268 23.4678 39.7078 23.7903 39.8699C23.9516 39.9509 23.7097 40.113 23.871 40.2751C24.1129 40.4371 24.2742 40.5992 24.5161 40.6803C24.5968 40.7613 24.6774 40.5182 24.7581 40.5992C24.9194 40.6802 24.8387 40.9234 25.0807 41.0044C25.242 41.0854 25.242 41.2475 25.4032 41.3285C25.6452 41.4096 26.4516 42.301 26.6129 42.382C26.7742 42.463 26.8549 42.4631 27.0161 42.4631C27.0968 42.5441 27.1774 42.6251 27.2581 42.7062L27.6613 42.301C27.742 42.301 27.8226 42.2199 27.9032 42.2199C28.1452 42.1389 28.3065 42.6251 28.629 42.6251C28.9516 42.6251 29.3549 42.301 29.5968 42.301C29.7581 42.301 30.7258 42.301 30.8065 42.2199C31.129 41.9768 30.8871 42.1389 30.8065 41.4906C30.7258 40.9234 30.1613 40.7613 29.6774 40.2751C29.5161 40.113 29.2742 39.8699 29.1936 39.5457C29.1129 39.3837 29.4355 39.2216 29.5968 39.1406C29.6774 39.0595 29.7581 38.9785 29.6774 38.8974C29.5161 38.5733 29.3549 38.2492 29.1936 37.925C29.0323 37.6009 29.2742 36.9526 29.1129 36.7095C28.7903 36.1422 29.0323 35.0887 28.4678 34.9267C28.2258 34.8456 28.0645 33.8732 27.9032 33.7111C27.9032 33.387 28.4678 33.387 28.7097 33.468C28.871 33.549 28.7903 33.2249 28.7903 33.0628C28.7903 32.9818 28.7903 32.9008 28.871 32.7387C28.9516 32.2525 29.1129 31.6042 29.2742 31.4421C29.5161 31.3611 29.9194 31.4421 30.0807 31.5231C30.1613 31.6042 30.242 31.6852 30.242 31.8473C30.242 31.9283 30.242 32.0904 30.242 32.1714V32.2525C30.242 32.4145 30.242 32.5766 30.1613 32.6576C30.1613 32.8197 30.1613 32.9818 30.1613 33.0628C30.242 33.387 29.9194 33.387 29.7581 33.387C29.6774 33.3059 29.5161 33.0628 29.2742 33.2249C29.1936 33.3059 29.2742 33.468 29.2742 33.6301C29.2742 33.7922 29.1936 33.9542 29.3549 34.0353C29.4355 34.0353 28.7097 34.1163 28.7903 34.1163C29.0323 34.1973 28.871 34.6025 29.2742 34.6836C29.4355 34.6836 29.4355 34.3594 29.5161 34.1973C29.5968 33.9542 29.4355 33.8732 29.5968 33.8732C29.7581 33.8732 29.5968 33.8732 29.8387 33.8732C29.9194 33.8732 30.1613 33.8732 30.242 33.9542C30.7258 34.0353 31.2097 34.0353 31.6129 34.1973C31.7742 34.1973 31.6936 34.3594 31.6936 34.4404C31.7742 34.5215 31.9355 34.5215 32.0968 34.5215C32.2581 34.4404 32.1774 34.6836 32.2581 35.0077C32.2581 35.0887 32.3387 35.3318 32.6613 35.2508C32.742 35.2508 32.4194 34.9267 32.742 34.8456C32.8226 34.8456 32.8226 35.656 33.1452 35.656C33.629 35.656 33.6291 35.2508 33.6291 35.0077C33.6291 34.7646 34.0323 35.1698 34.2742 35.0887C34.3549 35.0887 34.4355 35.0077 34.4355 35.0077C34.6774 34.8456 34.5968 34.6025 34.5968 34.1163C34.5968 33.9542 34.8387 34.2784 34.9194 34.1163C35 33.9542 35 33.7111 35.1613 33.468C35.242 33.3059 35.4839 33.1439 35.4839 32.9818V32.9008C35.4032 32.7387 35.0807 32.7387 35 32.5766C34.8387 32.4145 35 32.2525 35 32.0904C35 31.7662 35.0807 31.4421 35.3226 31.28C35.4032 31.199 35.4839 31.118 35.5645 31.0369C35.8065 30.7938 36.129 30.4697 36.2903 30.4697C36.5323 30.4697 36.6936 30.5507 36.8549 30.2266C37.0161 29.9024 36.7742 29.7403 36.8549 29.2541C36.8549 28.93 37.0968 29.6593 37.2581 29.9024C37.3387 29.9834 37.3387 29.9834 37.4194 30.0645C37.6613 30.3076 37.9032 30.3076 37.9032 30.2266C37.9032 30.2266 38.0645 29.9834 38.2258 30.0645C38.4678 30.2266 38.629 30.7128 38.9516 30.9559C38.9516 30.9559 39.0323 31.0369 39.0323 31.118C39.0323 31.199 39.1129 31.3611 39.1129 31.5231C39.1129 31.6042 38.7097 31.9283 38.7903 32.0094C38.871 32.1714 38.9516 32.2525 39.1129 32.2525C39.1936 32.2525 39.3549 32.4956 39.4355 32.7387C39.5161 33.0628 39.5161 33.468 39.5968 33.387C39.6774 33.3059 39.8387 33.9542 39.5161 34.1163C39.4355 34.1973 39.1936 34.2784 38.9516 34.2784C38.7097 34.3594 38.4678 34.4404 38.3871 34.4404C37.742 34.8456 37.9839 35.1698 38.0645 35.1698C38.1452 35.1698 37.6613 35.4129 37.4194 35.4129C37.0968 35.4939 36.4516 35.3318 36.371 35.2508C36.5323 35.3318 36.8549 35.656 37.0161 36.0612C37.0968 36.2232 37.1774 36.4664 37.1774 36.6284C37.1774 37.1146 37.0161 37.6009 37.4194 37.6819H37.5C37.2581 37.6819 37.0161 37.7629 36.8549 37.844C36.6936 37.925 36.8549 38.006 36.7742 38.0871C36.371 38.3302 36.6129 38.7354 36.6129 38.7354C36.6129 38.7354 36.6129 38.8974 36.6129 38.9785C36.4516 39.0595 36.2097 39.3026 36.0484 39.4647C35.9678 39.5457 35.8065 39.7078 35.7258 39.7888C35.5645 39.9509 35.3226 39.8699 35.242 40.113C35.1613 40.2751 35.1613 40.4371 35.0807 40.5992C34.8387 40.8423 34.8387 40.8423 34.9194 41.0854C34.9194 41.7337 35.5645 42.0579 35.8871 42.4631L36.129 42.7062L36.7742 43.3545C36.8549 43.5165 37.1774 43.5976 37.5 43.6786C37.8226 43.7596 38.1452 43.8407 38.4678 43.9217C38.7097 43.9217 39.0323 43.9217 39.1936 43.9217C39.3549 44.0027 39.3549 44.1648 39.3549 44.2458L39.1129 44.57C38.871 44.9752 39.4355 45.2993 39.6774 45.5424C39.9194 45.7045 40.1613 45.9476 40.4839 46.1907C40.6452 46.2718 40.8065 46.4338 40.9678 46.5959C41.2903 46.9201 41.6129 47.3252 41.8549 47.4873C42.1774 47.6494 42.4194 47.5683 42.8226 47.4063C43.3065 47.1632 43.7097 46.758 44.1129 46.2718C44.5161 45.7855 44.9194 45.2993 45.1613 44.8131C45.242 44.651 45.5645 44.0027 45.5645 43.5976C45.5645 43.2734 45.242 43.1924 45.3226 43.0303C45.4839 42.463 45.8871 42.463 45.8871 42.1389C45.8871 41.8958 45.8065 41.7337 45.6452 41.6527C45.5645 41.5716 45.4032 41.4906 45.242 41.4906C45.0807 41.4906 44.9194 41.3285 44.9194 41.1665C44.9194 40.9234 45.0807 40.5182 44.9194 40.5182C44.7581 40.5182 44.6774 40.4371 44.5161 40.3561C43.9516 40.113 43.5484 39.7078 43.0645 39.3026C42.742 39.0595 42.4194 39.1406 42.0968 38.9785C41.8549 38.8974 41.6936 38.6543 41.4516 38.5733C41.2097 38.5733 40.7258 38.7354 40.4839 38.8974C40.4032 38.9785 40.3226 39.0595 40.242 39.1406C40 39.2216 39.7581 39.3026 39.5161 39.3837C39.1936 39.2216 38.871 38.8974 38.6291 38.9785H37.9839L37.6613 39.1406H37.2581L36.7742 38.8974C36.8549 38.8974 36.8549 38.8974 37.0161 38.8164C37.0968 38.7354 37.2581 38.6543 37.4194 38.5733C37.8226 38.2492 38.3871 37.844 38.6291 37.7629C38.871 37.6819 38.871 38.006 38.9516 38.006C39.1129 38.0871 39.1936 38.2492 39.4355 38.2492C39.5161 38.2492 39.5161 37.925 39.5968 37.925C39.7581 37.925 40 38.1681 40.1613 38.1681C40.242 38.1681 40.242 37.844 40.3226 37.844C40.6452 37.7629 40.8871 37.6819 41.0484 37.5198C41.2097 37.3578 41.5323 37.5198 41.5323 37.6009C41.6129 37.7629 41.129 38.2492 41.2097 38.4112C41.2097 38.4112 41.2097 38.4112 41.2097 38.4923C41.371 38.5733 41.6936 38.4112 42.0161 38.4923C42.4194 38.4923 42.8226 38.7354 43.1452 38.7354C43.3065 38.7354 43.5484 38.7354 43.629 38.8164C43.871 38.8974 44.0323 38.9785 44.1936 38.8974C44.2742 38.8164 44.5161 37.7629 44.5968 37.6009C44.9194 37.1957 44.9194 36.3043 44.3549 36.1422C44.1129 36.0612 43.871 36.7095 43.4678 36.9526C43.3065 37.0336 43.1452 36.9526 42.9839 36.9526C43.0645 36.8715 43.0645 36.8715 43.1452 36.7905C43.3065 36.7095 43.4678 36.6284 43.5484 36.6284C43.629 36.6284 44.1936 36.3043 44.5161 35.9801C44.7581 35.737 44.9194 35.4129 45 35.4129C45.1613 35.3318 45.242 35.4939 45.4032 35.4939C45.4839 35.4939 45.5645 35.2508 45.6452 35.2508C46.4516 35.1698 47.1774 35.1698 47.6613 35.1698C48.2258 35.1698 48.629 35.0887 48.9516 34.9267C49.5161 34.6025 48.7097 34.1163 48.2258 34.0353ZM34.6774 32.4145C34.7581 32.4145 35 32.4145 35 32.4956C35.0807 32.6576 35 32.6576 34.9194 32.7387C34.8387 32.9008 34.6774 32.7387 34.6774 32.5766C34.6774 32.5766 34.2742 32.4145 34.2742 32.5766C34.2742 32.8197 33.9516 32.6576 33.7903 32.6576C33.7097 32.6576 33.629 32.7387 33.5484 32.6576C33.4678 32.5766 33.2258 32.5766 32.9839 32.8197C32.9839 32.7387 33.0645 32.6576 33.0645 32.5766C33.0645 32.4145 33.3065 32.4145 33.3871 32.3335C33.3871 32.3335 33.3871 32.3335 33.3871 32.2525C33.3871 31.9283 33.3065 31.9283 33.6291 31.7662V31.6852C33.7097 31.6852 33.7097 31.6852 33.7097 31.6852C33.7903 31.6852 33.7903 31.6852 33.871 31.7662C34.0323 31.8473 34.1936 31.6852 34.2742 31.9283C34.3549 32.0904 34.2742 32.2525 34.4355 32.3335C34.5968 32.4956 34.5968 32.4956 34.6774 32.4145ZM40.7258 36.8715C40.5645 36.9526 40.4032 36.8715 39.6774 37.1146C39.9194 37.0336 40.1613 36.9526 40.1613 36.8715C40.242 36.7095 40.4839 36.6284 40.6452 36.6284C40.8871 36.5474 40.9678 36.4664 41.0484 36.7095C41.0484 36.8715 40.8065 36.8715 40.7258 36.8715Z" fill="white"/>
<path fill-rule="evenodd" clip-rule="evenodd" d="M54.6773 51.1336C56.5321 50.6473 57.9837 49.6749 58.145 49.5128C57.9031 49.918 57.3386 50.8094 56.2095 51.7008C54.7579 52.8353 52.9837 53.4026 51.2095 53.4026C50.1611 53.4026 49.1934 53.2405 48.2257 53.0784C46.7741 52.8353 45.7257 52.5112 44.9999 52.2681C44.2741 52.025 43.9515 52.025 44.0321 51.9439C44.8386 51.7008 45.645 51.6198 46.5321 51.0525C47.016 50.7284 47.6611 50.3232 48.145 49.837C48.7095 49.3508 49.1934 48.7025 49.7579 48.2162C50.887 47.1628 51.9353 46.3524 52.5805 45.7852C52.1773 46.6766 51.5321 48.8645 49.9999 50.3232C48.8708 51.4577 47.1773 51.7819 47.1773 51.7819C47.9031 51.7819 48.6289 51.5387 49.516 51.4577C49.9192 51.3767 50.5644 51.3767 50.9676 51.3767C52.2579 51.3767 53.5482 51.4577 54.6773 51.1336Z" fill="white"/>
<path fill-rule="evenodd" clip-rule="evenodd" d="M54.4357 18.5578C53.3067 17.0181 52.9034 16.4509 51.7744 15.1543C52.2583 15.1543 52.8228 15.5595 53.3873 15.8026C54.2744 16.2888 55.2422 16.775 56.0486 17.5854C57.1776 18.7199 57.5809 20.8268 57.9035 21.8803C57.9841 22.0424 57.4196 21.6372 56.6938 20.9079C55.968 20.3406 55.0809 19.5303 54.4357 18.5578Z" fill="white"/>
<path fill-rule="evenodd" clip-rule="evenodd" d="M56.6128 17.666C57.4192 17.7471 58.1451 18.3143 58.7902 18.9626C59.1934 19.4488 59.516 19.773 59.758 20.2592C60.1612 21.1506 60.3225 22.2851 60.3225 23.4196C60.3225 25.4455 60.1612 26.499 60.1612 27.2283C60.1612 27.3904 60.0805 27.1473 59.9192 26.9042C59.5967 26.4179 59.0322 25.6076 58.387 25.2024C58.0644 24.9593 57.258 24.311 56.3709 23.5006C55.8063 23.0144 55.4838 22.6903 54.9999 21.9609C54.8386 21.7178 54.516 21.3127 54.3547 20.8264C54.1934 20.2592 54.1128 19.6109 54.1128 19.2867C54.1128 19.3678 54.1934 19.6109 54.4354 19.935C54.8386 20.4213 55.4838 20.9075 55.9676 21.4747C56.2096 21.7178 56.5321 21.8799 56.8547 22.123C57.4192 22.5282 57.9031 22.9334 58.2257 23.3386C58.9515 24.1489 59.3547 24.9593 59.4354 25.2024C59.2741 24.6351 59.0322 23.9869 58.8709 23.1765C58.7096 22.6092 58.6289 22.042 58.4676 21.4747C58.3063 21.0695 58.2257 20.4213 58.0644 20.0161C57.7418 18.7195 57.1773 17.9091 56.6128 17.666Z" fill="white"/>
<path fill-rule="evenodd" clip-rule="evenodd" d="M62.1773 42.7876C62.2579 42.7066 61.4515 45.5428 59.9192 47.0015C58.2257 48.6222 57.016 49.4326 55.645 49.8378C54.516 50.1619 53.3063 50.324 51.5321 50.6481C50.8869 50.8102 50.645 50.9723 50.5644 50.9723C50.4837 50.9723 51.0482 50.405 51.6128 49.7567C52.016 49.1895 52.4192 48.2981 52.6611 47.6498C53.2257 46.2722 53.5482 44.9756 54.0321 43.9221C54.3547 43.1928 54.8386 42.6255 55.3224 41.9772C55.645 41.491 55.9676 41.0048 56.3708 40.5996C56.1289 41.3289 55.887 41.9772 55.7257 42.7876C55.4837 43.9221 55.4837 45.1376 55.1611 46.1911C54.9999 46.8394 54.5966 47.4067 54.274 47.8929C53.7902 48.7032 53.145 49.3515 52.7418 49.7567C52.9031 49.6757 53.2257 49.5136 53.5482 49.2705C54.1128 48.8653 54.5966 48.4601 55.0805 48.136C55.887 47.5687 56.774 47.1636 57.7418 46.6773C58.4676 46.2722 59.274 46.029 59.8386 45.6239C61.5321 44.0842 62.016 42.9497 62.1773 42.7876Z" fill="white"/>
<path fill-rule="evenodd" clip-rule="evenodd" d="M61.1291 22.6901C61.0484 21.9608 60.8065 21.3935 60.7259 21.1504C61.1291 21.3935 62.1775 23.6625 62.3388 24.0677C62.5807 24.716 62.6613 25.7695 62.742 26.5798C62.742 27.3092 62.5807 27.9574 62.5 28.6057C62.3388 29.6592 61.8549 30.4696 61.5323 31.442C61.2904 32.1713 61.2904 32.9007 60.9678 33.711C60.9678 33.711 60.8871 33.1438 60.5646 32.4145C60.3226 31.9282 60 31.361 59.7581 30.8748C59.5162 30.3885 59.1936 29.9023 58.9517 29.6592C58.9517 29.5782 57.8226 28.4437 57.2581 27.2281C56.613 25.9315 56.4517 24.5539 56.4517 24.4729C57.0162 24.9591 57.9839 25.9315 58.871 26.904C59.4355 27.3902 59.7581 27.9574 60.0807 28.6057C60.6452 29.6592 60.8065 30.7937 60.8065 30.7937C60.7259 29.8213 60.6452 28.6057 60.7259 27.3092C60.8065 26.4178 61.0484 25.5264 61.0484 24.635C61.2097 24.0677 61.2097 23.3384 61.1291 22.6901Z" fill="white"/>
<path fill-rule="evenodd" clip-rule="evenodd" d="M63.2257 29.7408C63.3869 28.6873 63.2257 27.958 63.2257 27.877C63.4676 28.5252 63.7095 29.3356 63.7902 30.227C63.9515 31.6046 63.7902 33.0633 63.3869 34.4409C62.9031 36.3047 62.016 37.1961 60.8869 38.5738C60.1611 39.3841 59.5966 40.3566 59.516 40.5186C59.4353 40.7617 59.516 39.8703 59.516 38.5738C59.516 37.0341 58.9515 36.0616 58.6289 34.9271C58.2256 33.5495 57.8224 32.0908 57.6611 30.227C57.6611 29.8218 57.7418 29.4166 57.7418 29.0115C57.7418 29.8218 58.3063 30.5512 58.7902 31.3615C59.1127 32.0098 59.5966 32.5771 59.9192 33.3064C60.4031 34.5219 60.5644 35.4133 60.5644 36.3858C60.5644 36.872 60.4031 37.3582 60.3224 38.0065C60.4031 37.9255 60.5644 37.2772 60.8063 36.3858C60.9676 35.7375 61.1289 34.684 61.4515 33.7926C61.774 32.9012 62.3386 32.2529 62.5805 31.4426C62.9031 30.8753 63.145 30.227 63.2257 29.7408Z" fill="white"/>
<path fill-rule="evenodd" clip-rule="evenodd" d="M63.9515 35.7358C63.9515 36.5462 64.1128 37.2755 63.9515 38.0048C63.6289 39.8687 62.6612 41.2463 61.3709 42.6239C60.2418 43.8395 55.4838 46.9189 55.7257 46.5137C55.9676 45.9464 56.2902 45.3792 56.5322 44.7309C56.8547 43.5964 57.016 42.2998 57.016 41.0842C57.016 40.598 57.1773 38.8962 57.4193 37.5997C57.6612 36.4652 57.9838 35.5738 58.0644 35.3306C58.2257 34.8444 58.3064 35.8979 58.3064 37.0324C58.3064 37.6807 58.8709 39.4635 58.7902 40.9222C58.7096 42.5429 57.8225 44.0015 57.7418 44.1636C57.8225 44.0015 58.1451 43.7584 58.4676 43.3532C58.7902 42.9481 59.0322 42.2998 59.4354 41.8136C60.3225 40.679 61.8547 39.5445 62.7418 38.329C63.4676 37.3566 63.6289 36.4652 63.9515 35.7358Z" fill="white"/>
<path fill-rule="evenodd" clip-rule="evenodd" d="M0 0V147H75V0H0ZM2.66129 2.26902H72.3387V72.2845H2.66129V2.26902ZM36.5323 144.731H2.5V110.696H36.5323V144.731ZM36.5323 108.589H2.5V74.5535H36.5323V108.589ZM72.5 144.731H38.4677V110.696H72.5V144.731ZM72.5 108.589H38.4677V74.5535H72.5V108.589ZM51.7742 129.577H54.9194C56.2903 129.577 57.4194 129.496 58.3065 129.334C59.1936 129.172 59.9194 128.848 60.5645 128.362C61.4516 127.794 62.1774 126.984 62.6613 125.931C63.1452 124.877 63.3871 123.824 63.3871 122.608C63.3871 121.311 63.1452 120.177 62.5806 119.205C62.0161 118.232 61.2097 117.341 60.1613 116.773C59.5968 116.449 58.871 116.206 57.9839 116.044C57.0968 115.882 55.9677 115.801 54.5161 115.801H49.4355V139.626H51.7742V129.577ZM51.7742 118.151H55C57.0161 118.151 58.4677 118.556 59.4355 119.286C60.3226 120.015 60.8065 121.149 60.8065 122.77C60.8065 124.31 60.3226 125.444 59.4355 126.174C58.5484 126.903 57.0968 127.227 55.1613 127.227H51.6935V118.151H51.7742ZM29.0323 122.284C28.3065 120.663 27.2581 119.205 25.8871 118.07C24.9194 117.26 23.7903 116.692 22.5 116.287C21.2097 115.882 19.6774 115.72 17.8226 115.72H11.0484V139.545H16.7742C19.1935 139.545 20.9677 139.383 22.1774 139.058C23.3871 138.734 24.4355 138.248 25.4032 137.519C26.9355 136.465 28.0645 135.007 28.871 133.305C29.6774 131.603 30.0806 129.658 30.0806 127.551C30.1613 125.768 29.7581 123.986 29.0323 122.284ZM25.1613 134.764C23.5484 136.465 21.2097 137.357 18.2258 137.357H13.3871V118.07H17.6613C19.5161 118.07 20.8871 118.232 21.8548 118.475C22.8226 118.799 23.7097 119.286 24.4355 119.934C25.4839 120.825 26.2903 121.96 26.8548 123.256C27.4194 124.553 27.6613 126.012 27.6613 127.551C27.6613 130.712 26.7742 133.143 25.1613 134.764ZM63.1452 79.6588L63.3871 100.647L50.4032 79.6588H47.5806V103.483H49.9194L49.6774 82.495L62.6613 103.483H65.4839V79.6588H63.1452ZM25.7258 79.4157V94.0022C25.7258 96.5954 25.3226 98.4592 24.4355 99.6748C23.5484 100.89 22.2581 101.539 20.4839 101.539C19.4355 101.539 18.5484 101.295 17.6613 100.728C16.8548 100.242 16.2097 99.5127 15.8065 98.6213C15.5645 98.1351 15.4032 97.6488 15.3226 97.0816C15.2419 96.5143 15.1613 95.6229 15.1613 94.4884V79.4157H12.8226V94.5695C12.8226 97.7299 13.4677 100.08 14.6774 101.539C15.8871 102.997 17.9032 103.808 20.5645 103.808C23.0645 103.808 24.9194 103.078 26.129 101.539C27.3387 99.9989 27.9839 97.7299 27.9839 94.6505V79.4157H25.7258Z" fill="white"/>
</g>
<defs>
<clipPath id="clip0_461_1037">
<rect width="75" height="147" fill="white"/>
</clipPath>
</defs>
</svg>
