<svg width="129" height="94" viewBox="0 0 129 94" fill="none" xmlns="http://www.w3.org/2000/svg">
<path d="M29.2002 48.3019V66.6019C29.2002 67.2019 28.7002 67.6019 28.2002 67.6019C27.6002 67.6019 27.2002 67.1019 27.2002 66.6019V48.3019C27.2002 47.7019 27.7002 47.3019 28.2002 47.3019C28.7002 47.2019 29.2002 47.7019 29.2002 48.3019Z" fill="#FFA200"/>
<path d="M34.6002 19.4008C33.8002 18.6008 32.8002 17.9008 31.8002 17.5008C30.8002 17.1008 29.6002 16.8008 28.5002 16.8008H28.0002C25.7002 16.8008 23.4002 17.8008 21.8002 19.4008C20.3002 21.0008 19.5002 23.1008 19.6002 25.3008L19.8002 29.4008C20.1002 33.9008 23.8002 37.3008 28.2002 37.2008H28.3002C32.7002 37.3008 36.5002 33.9008 36.7002 29.4008L36.9002 25.3008C36.9002 23.1008 36.1002 20.9008 34.6002 19.4008ZM34.6002 29.3008C34.4002 32.7008 31.5002 35.2008 28.2002 35.1008H27.9002C24.6002 35.1008 21.9002 32.6008 21.7002 29.3008L21.6002 27.5008H22.1002C24.9002 27.4008 27.6002 26.4008 29.8002 24.6008L30.2002 24.3008L30.5002 24.8008C31.4002 26.1008 32.7002 27.0008 34.2002 27.4008L34.6002 27.5008V29.3008ZM34.0002 25.0008C32.8002 24.5008 31.9002 23.4008 31.6002 22.1008C31.5002 21.7008 31.2002 21.3008 30.8002 21.2008C30.4002 21.1008 29.9002 21.3008 29.7002 21.7008C29.5002 22.1008 27.4002 25.0008 22.1002 25.4008H21.6002V24.9008C21.6002 23.3008 22.2002 21.9008 23.3002 20.8008C24.5002 19.5008 26.2002 18.8008 28.0002 18.8008H28.5002C30.3002 18.8008 32.0002 19.5008 33.2002 20.8008C34.2002 21.8008 34.7002 23.1008 34.8002 24.5008V25.3008L34.0002 25.0008Z" fill="#2F5ED1"/>
<path d="M34.8002 25.3008L34.1002 25.0008C32.9002 24.5008 32.0002 23.4008 31.7002 22.1008C31.6002 21.7008 31.3002 21.3008 30.9002 21.2008C30.5002 21.1008 30.0002 21.3008 29.8002 21.7008C29.6002 22.1008 27.5002 25.0008 22.2002 25.4008H21.7002V24.9008C21.7002 23.3008 22.3002 21.9008 23.4002 20.8008C24.6002 19.5008 26.3002 18.8008 28.1002 18.8008H28.6002C30.4002 18.8008 32.1002 19.5008 33.3002 20.8008C34.3002 21.8008 34.8002 23.1008 34.9002 24.5008L34.8002 25.3008Z" fill="#FFA200"/>
<path d="M94.1001 55.9984C92.5001 54.2984 90.2001 53.3984 87.9001 53.3984H87.4001C85.1001 53.3984 82.8001 54.3984 81.2001 55.9984C79.7001 57.5984 78.9001 59.6984 79.0001 61.8984L79.2001 65.9984C79.5001 70.3984 83.2001 73.8984 87.6001 73.7984H87.7001C92.2001 73.8984 95.9001 70.4984 96.1001 65.9984L96.3001 61.8984C96.5001 59.6984 95.7001 57.5984 94.1001 55.9984ZM94.1001 65.8984C93.9001 69.1984 91.1001 71.7984 87.7001 71.6984H87.4001C84.1001 71.6984 81.4001 69.1984 81.2001 65.8984L81.0001 61.7984C80.9001 60.1984 81.5001 58.5984 82.7001 57.3984C83.9001 56.0984 85.7001 55.3984 87.4001 55.3984H87.9001C89.6001 55.3984 91.4001 56.0984 92.6001 57.3984C93.7001 58.5984 94.3001 60.1984 94.3001 61.7984L94.1001 65.8984Z" fill="#2F5ED1"/>
<path d="M58.2 22C57.5 21.3 56.5 21 55.6 21C54.7 21 53.7 21.3 53 22L36 39C35.6 39.4 35.1 39.6 34.6 39.6H19.1C15.2 39.6 12 42.8 12 46.7V68.1C12 70.4 13.8 72.2 16.1 72.2C16.6 72.2 17 72.1 17.5 72L18.2 71.8V74.3C18.2 74.9 18.7 75.3 19.2 75.3H37.5C38.1 75.3 38.5 74.8 38.5 74.3V49.5C38.5 49 38.7 48.5 39 48.1L58.4 27.3C59.1 26.6 59.5 25.6 59.5 24.6C59.3 23.6 58.9 22.7 58.2 22ZM57 25.7L56.9 25.9L37.5 46.8C36.8 47.6 36.4 48.5 36.4 49.6V73.3H20.1V49.8C20.1 49.2 19.6 48.8 19.1 48.8C18.5 48.8 18.1 49.3 18.1 49.8V68.1C18.1 69.2 17.2 70.1 16.1 70.1C15 70.1 14.1 69.2 14.1 68.1V46.8C14.1 44 16.4 41.7 19.2 41.7H34.7C35.8 41.7 36.8 41.3 37.6 40.5L54.7 23.5C55.4 22.9 56.4 22.9 57 23.5C57.4 24.1 57.5 25 57 25.7Z" fill="#2F5ED1"/>
<path d="M56.7999 23.5008C56.0999 22.9008 55.0999 22.9008 54.4999 23.5008L37.3999 40.5008C36.6999 41.3008 35.5999 41.7008 34.4999 41.7008H18.9999C16.1999 41.7008 13.8999 44.0008 13.8999 46.8008V68.2008C13.8999 69.3008 14.7999 70.2008 15.8999 70.2008C16.9999 70.2008 17.8999 69.3008 17.8999 68.2008V49.8008C17.8999 49.2008 18.3999 48.8008 18.8999 48.8008C19.4999 48.8008 19.8999 49.3008 19.8999 49.8008V73.2008H36.1999V49.5008C36.1999 48.5008 36.5999 47.5008 37.2999 46.7008L56.6999 25.8008L56.7999 25.6008C57.4999 25.0008 57.3999 24.1008 56.7999 23.5008ZM29.1999 66.6008C29.1999 67.2008 28.6999 67.6008 28.1999 67.6008C27.5999 67.6008 27.1999 67.1008 27.1999 66.6008V48.3008C27.1999 47.7008 27.6999 47.3008 28.1999 47.3008C28.7999 47.3008 29.1999 47.8008 29.1999 48.3008V66.6008Z" fill="#FFA200"/>
<path d="M29.2002 48.3019V66.6019C29.2002 67.2019 28.7002 67.6019 28.2002 67.6019C27.6002 67.6019 27.2002 67.1019 27.2002 66.6019V48.3019C27.2002 47.7019 27.7002 47.3019 28.2002 47.3019C28.7002 47.2019 29.2002 47.7019 29.2002 48.3019Z" fill="#2F5ED1"/>
<path d="M60.5 55.9984C59.7 55.1984 58.7 54.4984 57.7 54.0984C56.6 53.6984 55.5 53.3984 54.3 53.3984H53.8C51.5 53.3984 49.2 54.3984 47.6 55.9984C46.1 57.4984 45.3 59.6984 45.4 61.8984L45.6 65.9984C45.9 70.3984 49.5 73.8984 54 73.7984H54.1C58.5 73.8984 62.3 70.4984 62.5 65.9984L62.7 61.8984C62.9 59.6984 62.1 57.5984 60.5 55.9984ZM60.5 65.8984C60.3 69.1984 57.5 71.7984 54.1 71.6984H53.8C50.5 71.6984 47.8 69.1984 47.6 65.8984L47.4 61.7984C47.3 60.1984 47.9 58.5984 49.1 57.3984C50.3 56.0984 52.1 55.3984 53.8 55.3984H54.3C56.1 55.3984 57.8 56.0984 59 57.3984C60.1 58.5984 60.7 60.0984 60.7 61.7984L60.5 65.8984Z" fill="#2F5ED1"/>
<path d="M68.9 83.2008V89.6008C68.9 90.2008 68.4 90.6008 67.9 90.6008C67.4 90.6008 66.9 90.1008 66.9 89.6008V83.2008C66.9 80.5008 64.7 78.4008 62.1 78.4008H46.3C43.6 78.4008 41.5 80.6008 41.5 83.2008V89.6008C41.5 90.2008 41 90.6008 40.5 90.6008C39.9 90.6008 39.5 90.1008 39.5 89.6008V83.2008C39.5 79.4008 42.6 76.3008 46.4 76.3008H62.2C65.8 76.3008 68.9 79.4008 68.9 83.2008Z" fill="#2F5ED1"/>
<path d="M102.5 83.2008V89.6008C102.5 90.2008 102 90.6008 101.5 90.6008C100.9 90.6008 100.5 90.1008 100.5 89.6008V83.2008C100.5 80.5008 98.3001 78.4008 95.7001 78.4008H79.9001C77.2001 78.4008 75.1001 80.6008 75.1001 83.2008V89.6008C75.1001 90.2008 74.6001 90.6008 74.1001 90.6008C73.5001 90.6008 73.1001 90.1008 73.1001 89.6008V83.2008C73.1001 79.4008 76.2001 76.3008 80.0001 76.3008H95.8001C99.4001 76.3008 102.5 79.4008 102.5 83.2008Z" fill="#2F5ED1"/>
<path d="M98.4999 0H44.8999C42.6999 0 40.8999 1.9 40.8999 4.1V27C40.8999 27.6 41.3999 28 41.8999 28C42.4999 28 42.8999 27.5 42.8999 27V8.1H100.4V45.2C100.4 46.3 99.5999 47.2 98.4999 47.2H46.3999C45.7999 47.2 45.3999 47.7 45.3999 48.2C45.3999 48.8 45.8999 49.2 46.3999 49.2H98.4999C100.7 49.2 102.5 47.3 102.5 45.1V4C102.5 1.8 100.7 0 98.4999 0ZM100.4 6.1H42.8999V4.1C42.8999 3 43.6999 2.1 44.7999 2.1H98.3999C99.4999 2.1 100.4 3.1 100.4 4.1V6.1Z" fill="#2F5ED1"/>
<path d="M100.4 4V6H42.8999V4C42.8999 2.9 43.6999 2 44.7999 2H98.3999C99.5999 2 100.5 3 100.4 4Z" fill="#FFA200"/>
<path d="M96.3999 20.3984V42.1984C96.3999 42.7984 95.8999 43.1984 95.3999 43.1984C94.7999 43.1984 94.3999 42.6984 94.3999 42.1984V20.3984C94.3999 19.7984 94.8999 19.3984 95.3999 19.3984C95.8999 19.3984 96.3999 19.8984 96.3999 20.3984Z" fill="#2F5ED1"/>
<path d="M90.2998 30V42.2C90.2998 42.8 89.7998 43.2 89.2998 43.2C88.6998 43.2 88.2998 42.7 88.2998 42.2V30C88.2998 29.4 88.7998 29 89.2998 29C89.7998 29 90.2998 29.4 90.2998 30Z" fill="#2F5ED1"/>
<path d="M84.2002 26.8984V42.1984C84.2002 42.7984 83.7002 43.1984 83.2002 43.1984C82.6002 43.1984 82.2002 42.6984 82.2002 42.1984V26.8984C82.2002 26.2984 82.7002 25.8984 83.2002 25.8984C83.7002 25.8984 84.2002 26.3984 84.2002 26.8984Z" fill="#2F5ED1"/>
<path d="M78.1001 36.1016V42.2016C78.1001 42.8016 77.6001 43.2016 77.1001 43.2016C76.6001 43.2016 76.1001 42.7016 76.1001 42.2016V36.1016C76.1001 35.5016 76.6001 35.1016 77.1001 35.1016C77.6001 35.1016 78.1001 35.5016 78.1001 36.1016Z" fill="#2F5ED1"/>
<path d="M96.1999 13.8016L90.0999 23.0016C89.8999 23.2016 89.6999 23.4016 89.3999 23.4016C89.0999 23.4016 88.8999 23.4016 88.5999 23.2016L83.4999 19.4016L77.8999 30.5016C77.7999 30.6016 77.6999 30.8016 77.5999 30.9016L71.4999 35.5016C70.9999 35.8016 70.3999 35.8016 70.0999 35.3016C69.8999 35.1016 69.8999 34.8016 69.8999 34.5016C69.8999 34.2016 70.0999 34.0016 70.2999 33.8016L76.1999 29.4016L82.1999 17.4016C82.1999 17.3016 82.2999 17.3016 82.2999 17.2016C82.4999 17.0016 82.6999 16.8016 82.9999 16.8016H83.0999C83.2999 16.8016 83.4999 16.9016 83.6999 17.0016L88.8999 20.9016L94.3999 12.6016C94.5999 12.3016 94.8999 12.1016 95.2999 12.1016C95.4999 12.1016 95.6999 12.2016 95.8999 12.3016C96.3999 12.7016 96.4999 13.3016 96.1999 13.8016Z" fill="#2F5ED1"/>
<path d="M67.4001 13.1992C67.4001 13.7992 66.9001 14.1992 66.4001 14.1992H48.1001C47.5001 14.1992 47.1001 13.6992 47.1001 13.1992C47.1001 12.6992 47.6001 12.1992 48.1001 12.1992H66.4001C66.9001 12.1992 67.4001 12.5992 67.4001 13.1992Z" fill="#2F5ED1"/>
<path d="M76.4999 13.1992C76.4999 13.7992 75.9999 14.1992 75.4999 14.1992H72.3999C71.7999 14.1992 71.3999 13.6992 71.3999 13.1992C71.3999 12.6992 71.8999 12.1992 72.3999 12.1992H75.4999C76.0999 12.1992 76.4999 12.5992 76.4999 13.1992Z" fill="#2F5ED1"/>
<path d="M125.953 71.299C125.953 69.9629 123.432 68.7938 119.735 68.2927C119.398 64.6185 118.222 62.1133 116.877 62.1133C115.533 62.1133 114.356 64.6185 113.852 68.2927C110.154 68.6268 107.633 69.7958 107.633 71.1319C107.633 72.468 110.154 73.6371 113.852 74.1382C114.188 77.8124 115.364 80.3176 116.709 80.3176C118.054 80.3176 119.23 77.8124 119.735 74.1382C123.264 73.6371 125.953 72.6351 125.953 71.299Z" fill="#FFE48F"/>
<path d="M12.2137 33.1629C12.2137 32.2665 10.533 31.4821 8.06779 31.1459C7.84369 28.6808 7.05932 27 6.1629 27C5.26648 27 4.48211 28.6808 4.14595 31.1459C1.68079 31.3701 0 32.1544 0 33.0508C0 33.9473 1.68079 34.7316 4.14595 35.0678C4.37006 37.533 5.15443 39.2137 6.05085 39.2137C6.94727 39.2137 7.73164 37.533 8.06779 35.0678C10.4209 34.7316 12.2137 34.0593 12.2137 33.1629Z" fill="#9FADF0"/>
<circle cx="25.3242" cy="87.0586" r="5" stroke="#E02287" stroke-opacity="0.6" stroke-width="3"/>
<rect x="116.711" y="7.97656" width="8.40566" height="8.40566" transform="rotate(-45 116.711 7.97656)" fill="#E02287" fill-opacity="0.6"/>
</svg>
