<svg width="131" height="92" viewBox="0 0 131 92" fill="none" xmlns="http://www.w3.org/2000/svg">
<path d="M41.8022 54.1992C39.6022 54.1992 37.8022 55.9992 37.8022 58.1992C37.8022 60.3992 39.6022 62.1992 41.8022 62.1992C44.0022 62.1992 45.8022 60.3992 45.8022 58.1992C45.9022 55.9992 44.0022 54.1992 41.8022 54.1992ZM41.8022 60.0992C40.8022 60.0992 39.9022 59.2992 39.9022 58.1992C39.9022 57.1992 40.7022 56.2992 41.8022 56.2992C42.8022 56.2992 43.7022 57.0992 43.7022 58.1992C43.7022 59.2992 42.9022 60.0992 41.8022 60.0992Z" fill="#2F5ED1"/>
<path d="M53.6025 66C51.4025 66 49.6025 67.8 49.6025 70C49.6025 72.2 51.4025 74 53.6025 74C55.8025 74 57.6025 72.2 57.6025 70C57.7025 67.8 55.9025 66 53.6025 66ZM53.6025 71.9C52.6025 71.9 51.7025 71.1 51.7025 70C51.7025 69 52.5025 68.1 53.6025 68.1C54.6025 68.1 55.5025 68.9 55.5025 70C55.5025 71.1 54.7025 71.9 53.6025 71.9Z" fill="#2F5ED1"/>
<path d="M55.5951 54.8106L38.4077 71.9883L39.9629 73.5443L57.1503 56.3667L55.5951 54.8106Z" fill="#2F5ED1"/>
<path d="M107.902 62.6C109.902 57.4 110.902 52 110.902 46.4C110.902 21.4 90.5024 1 65.5024 1C57.7024 1 50.0024 3 43.2024 6.9C43.1024 6.9 43.1024 6.9 43.0024 7H37.4024C37.2024 7 37.0024 6.8 37.0024 6.6V1.1H28.9024V19.4C28.9024 19.5 28.9024 19.5 28.8024 19.6C22.9024 27.6 19.9024 37.1 20.0024 47C20.3024 72 41.4024 92.3 66.4024 91.8C71.6024 91.7 76.7024 90.7 81.6024 88.8H81.7024C81.8024 88.8 81.8024 88.8 81.9024 88.9C84.9024 90.8 88.4024 91.8 91.9024 91.8C95.9024 91.8 99.7024 90.5 102.902 88.2C103.402 87.8 103.502 87.1 103.102 86.6C102.702 86.2 102.102 86.1 101.702 86.5C98.9024 88.6 95.4024 89.7 91.9024 89.7C82.7024 89.7 75.3024 82.2 75.3024 73.1C75.3024 63.9 82.8024 56.4 91.9024 56.4C101.002 56.4 108.602 63.9 108.602 73.1C108.602 76.5 107.602 79.6 105.802 82.4C105.502 82.9 105.602 83.5 106.002 83.9C106.502 84.3 107.202 84.2 107.602 83.6C109.702 80.5 110.802 76.8 110.802 73.1C110.802 69.5 109.802 66.1 107.902 63C107.902 62.9 107.802 62.7 107.902 62.6ZM42.9024 15.4C42.9024 15.2 43.1024 15 43.3024 15H46.3024C46.5024 15 46.7024 15.2 46.7024 15.4V36.1C46.7024 36.3 46.5024 36.5 46.3024 36.5H43.3024C43.1024 36.5 42.9024 36.3 42.9024 36.1V15.4ZM37.0024 9.5C37.0024 9.3 37.2024 9.1 37.4024 9.1H40.4024C40.6024 9.1 40.8024 9.3 40.8024 9.5V36.1C40.8024 36.3 40.6024 36.5 40.4024 36.5H37.4024C37.2024 36.5 37.0024 36.3 37.0024 36.1V9.5ZM31.1024 3.6C31.1024 3.4 31.3024 3.2 31.5024 3.2H34.5024C34.7024 3.2 34.9024 3.4 34.9024 3.6V36.1C34.9024 36.3 34.7024 36.5 34.5024 36.5H31.5024C31.3024 36.5 31.1024 36.3 31.1024 36.1V3.6ZM64.4024 89.2C64.4024 89.3 64.4024 89.4 64.3024 89.5C64.2024 89.6 64.1024 89.6 64.0024 89.6C41.4024 88.8 23.1024 70.5 22.3024 47.9C22.3024 47.8 22.3024 47.7 22.4024 47.6C22.5024 47.5 22.6024 47.5 22.7024 47.5H64.0024C64.2024 47.5 64.4024 47.7 64.4024 47.9V89.2ZM64.4024 44.9C64.4024 45.1 64.2024 45.3 64.0024 45.3H22.7024C22.6024 45.3 22.5024 45.3 22.4024 45.2C22.3024 45.1 22.3024 45 22.3024 44.9C22.5024 37.6 24.5024 30.7 28.2024 24.5C28.3024 24.3 28.5024 24.3 28.7024 24.3C28.9024 24.3 29.0024 24.5 29.0024 24.7V38.6H60.6024V24.6H55.1024C54.9024 24.6 54.7024 24.4 54.7024 24.2V18.7H49.2024C49.0024 18.7 48.8024 18.5 48.8024 18.3V12.8H43.3024C43.1024 12.8 42.9024 12.6 42.9024 12.4V9.7C42.9024 9.6 43.0024 9.4 43.1024 9.4C49.4024 5.6 56.6024 3.4 64.0024 3.2C64.1024 3.2 64.2024 3.2 64.3024 3.3C64.4024 3.4 64.4024 3.5 64.4024 3.6V44.9ZM48.8024 36.1V21.3C48.8024 21.1 49.0024 20.9 49.2024 20.9H52.2024C52.4024 20.9 52.6024 21.1 52.6024 21.3V36.1C52.6024 36.3 52.4024 36.5 52.2024 36.5H49.2024C49.0024 36.5 48.8024 36.3 48.8024 36.1ZM54.7024 36.1V27.2C54.7024 27 54.9024 26.8 55.1024 26.8H58.1024C58.3024 26.8 58.5024 27 58.5024 27.2V36.1C58.5024 36.3 58.3024 36.5 58.1024 36.5H55.1024C54.9024 36.5 54.7024 36.3 54.7024 36.1ZM106.602 33.7C106.702 33.7 106.902 33.8 106.902 34C108.002 37.5 108.602 41.2 108.702 45C108.702 45.1 108.702 45.2 108.602 45.3C108.502 45.4 108.402 45.4 108.302 45.4H95.6024C95.4024 45.4 95.3024 45.3 95.2024 45.2C95.1024 45.1 95.2024 44.9 95.3024 44.8L106.202 33.9C106.302 33.7 106.502 33.7 106.602 33.7ZM96.8024 16.8C96.9024 16.8 97.0024 16.8 97.1024 16.9C98.6024 18.5 100.002 20.2 101.202 22C101.302 22.2 101.302 22.4 101.202 22.5L85.7024 38C85.3024 38.4 85.3024 39.1 85.7024 39.5C86.1024 39.9 86.8024 39.9 87.2024 39.5L102.202 24.5C102.302 24.4 102.402 24.4 102.502 24.4C102.602 24.4 102.702 24.5 102.802 24.6C104.002 26.6 105.002 28.7 105.802 30.8C105.902 30.9 105.802 31.1 105.702 31.2L91.7024 45.2C91.6024 45.3 91.5024 45.3 91.4024 45.3H82.3024C82.1024 45.3 82.0024 45.2 81.9024 45.1C81.8024 45 81.9024 44.8 82.0024 44.7L82.9024 43.8C83.3024 43.4 83.3024 42.7 82.9024 42.3C82.5024 41.9 81.8024 41.9 81.4024 42.3L78.4024 45.3C78.3024 45.4 78.2024 45.4 78.1024 45.4H69.0024C68.8024 45.4 68.7024 45.3 68.6024 45.2C68.5024 45.1 68.6024 44.9 68.7024 44.8L96.4024 17.1C96.6024 16.9 96.7024 16.8 96.8024 16.8ZM66.5024 3.6C66.5024 3.5 66.6024 3.4 66.6024 3.3C66.7024 3.2 66.8024 3.2 66.9024 3.2C70.6024 3.3 74.3024 3.9 77.9024 5C78.0024 5 78.1024 5.1 78.2024 5.3C78.2024 5.4 78.2024 5.6 78.1024 5.7L67.2024 16.5C67.1024 16.6 67.0024 16.6 66.9024 16.6C66.9024 16.6 66.8024 16.6 66.7024 16.6C66.6024 16.5 66.4024 16.4 66.4024 16.2V3.6H66.5024ZM66.5024 33.7C66.5024 33.6 66.6024 33.5 66.6024 33.4L83.6024 16.5C84.0024 16.1 84.0024 15.4 83.6024 15C83.2024 14.6 82.5024 14.6 82.1024 15L67.3024 29.8C67.2024 29.9 67.0024 30 66.9024 29.9C66.8024 29.8 66.6024 29.7 66.6024 29.5V20.4C66.6024 20.3 66.7024 20.2 66.7024 20.1L80.7024 6.1C80.8024 6 81.0024 5.9 81.1024 6C83.2024 6.8 85.3024 7.8 87.3024 9C87.4024 9.1 87.5024 9.2 87.5024 9.3C87.5024 9.4 87.5024 9.6 87.4024 9.6L86.1024 10.9C85.7024 11.3 85.7024 12 86.1024 12.4C86.5024 12.8 87.2024 12.8 87.6024 12.4L89.4024 10.6C89.5024 10.5 89.8024 10.4 89.9024 10.6C91.7024 11.8 93.4024 13.2 95.0024 14.7C95.1024 14.8 95.1024 14.9 95.1024 15C95.1024 15.1 95.1024 15.2 95.0024 15.3L67.3024 43C67.2024 43.1 67.1024 43.1 67.0024 43.1C67.0024 43.1 66.9024 43.1 66.8024 43.1C66.7024 43 66.5024 42.9 66.5024 42.7V33.7ZM106.202 60.4C106.102 60.4 105.902 60.4 105.802 60.3C102.202 56.5 97.2024 54.3 92.0024 54.3C81.6024 54.3 73.2024 62.7 73.2024 73.1C73.2024 78.3 75.4024 83.3 79.2024 86.9C79.3024 87 79.4024 87.1 79.3024 87.3C79.3024 87.4 79.2024 87.6 79.0024 87.6C75.1024 88.9 71.0024 89.6 66.8024 89.8C66.7024 89.8 66.6024 89.8 66.5024 89.7C66.4024 89.6 66.4024 89.5 66.4024 89.4V47.9C66.4024 47.7 66.6024 47.5 66.8024 47.5H108.102C108.202 47.5 108.302 47.5 108.402 47.6C108.502 47.7 108.502 47.8 108.502 47.9C108.402 52.1 107.602 56.2 106.302 60.1C106.402 60.2 106.302 60.3 106.202 60.4Z" fill="#2F5ED1"/>
<path d="M58.5026 27.2008V36.1008C58.5026 36.3008 58.3026 36.5008 58.1026 36.5008H55.1026C54.9026 36.5008 54.7026 36.3008 54.7026 36.1008V27.2008C54.7026 27.0008 54.9026 26.8008 55.1026 26.8008H58.1026C58.3026 26.8008 58.5026 27.0008 58.5026 27.2008Z" fill="#FFA200"/>
<path d="M52.6022 21.2984V36.0984C52.6022 36.2984 52.4022 36.4984 52.2022 36.4984H49.2022C49.0022 36.4984 48.8022 36.2984 48.8022 36.0984V21.2984C48.8022 21.0984 49.0022 20.8984 49.2022 20.8984H52.2022C52.4022 20.8984 52.6022 21.0984 52.6022 21.2984Z" fill="#FFA200"/>
<path d="M46.7024 15.4V36.1C46.7024 36.3 46.5024 36.5 46.3024 36.5H43.3024C43.1024 36.5 42.9023 36.3 42.9023 36.1V15.4C42.9023 15.2 43.1024 15 43.3024 15H46.3024C46.5024 15 46.7024 15.2 46.7024 15.4Z" fill="#FFA200"/>
<path d="M40.7024 9.50156V36.1016C40.7024 36.3016 40.5024 36.5016 40.3024 36.5016H37.3024C37.1024 36.5016 36.9023 36.3016 36.9023 36.1016V9.50156C36.9023 9.30156 37.1024 9.10156 37.3024 9.10156H40.3024C40.6024 9.10156 40.7024 9.30156 40.7024 9.50156Z" fill="#FFA200"/>
<path d="M34.8025 3.59922V36.0992C34.8025 36.2992 34.6024 36.4992 34.4024 36.4992H31.4024C31.2024 36.4992 31.0024 36.2992 31.0024 36.0992V3.59922C31.0024 3.39922 31.2024 3.19922 31.4024 3.19922H34.4024C34.7024 3.19922 34.8025 3.39922 34.8025 3.59922Z" fill="#FFA200"/>
<path d="M41.8022 54.1992C39.6022 54.1992 37.8022 55.9992 37.8022 58.1992C37.8022 60.3992 39.6022 62.1992 41.8022 62.1992C44.0022 62.1992 45.8022 60.3992 45.8022 58.1992C45.9022 55.9992 44.0022 54.1992 41.8022 54.1992ZM41.8022 60.0992C40.8022 60.0992 39.9022 59.2992 39.9022 58.1992C39.9022 57.1992 40.7022 56.2992 41.8022 56.2992C42.8022 56.2992 43.7022 57.0992 43.7022 58.1992C43.7022 59.2992 42.9022 60.0992 41.8022 60.0992Z" fill="#2F5ED1"/>
<path d="M53.6021 66C51.4021 66 49.6021 67.8 49.6021 70C49.6021 72.2 51.4021 74 53.6021 74C55.8021 74 57.6021 72.2 57.6021 70C57.7021 67.8 55.9021 66 53.6021 66ZM53.6021 71.9C52.6021 71.9 51.7021 71.1 51.7021 70C51.7021 69 52.5021 68.1 53.6021 68.1C54.6021 68.1 55.502 68.9 55.502 70C55.502 71.1 54.7021 71.9 53.6021 71.9Z" fill="#2F5ED1"/>
<path d="M55.5951 54.8106L38.4077 71.9883L39.9629 73.5443L57.1503 56.3667L55.5951 54.8106Z" fill="#2F5ED1"/>
<path d="M55.5951 54.8106L38.4077 71.9883L39.9629 73.5443L57.1503 56.3667L55.5951 54.8106Z" fill="#FFA200"/>
<path d="M53.6025 66C51.4025 66 49.6025 67.8 49.6025 70C49.6025 72.2 51.4025 74 53.6025 74C55.8025 74 57.6025 72.2 57.6025 70C57.7025 67.8 55.9025 66 53.6025 66ZM53.6025 71.9C52.6025 71.9 51.7025 71.1 51.7025 70C51.7025 69 52.5025 68.1 53.6025 68.1C54.6025 68.1 55.5025 68.9 55.5025 70C55.5025 71.1 54.7025 71.9 53.6025 71.9Z" fill="#2F5ED1"/>
<path d="M41.8022 54.1992C39.6022 54.1992 37.8022 55.9992 37.8022 58.1992C37.8022 60.3992 39.6022 62.1992 41.8022 62.1992C44.0022 62.1992 45.8022 60.3992 45.8022 58.1992C45.9022 55.9992 44.0022 54.1992 41.8022 54.1992ZM41.8022 60.0992C40.8022 60.0992 39.9022 59.2992 39.9022 58.1992C39.9022 57.1992 40.7022 56.2992 41.8022 56.2992C42.8022 56.2992 43.7022 57.0992 43.7022 58.1992C43.7022 59.2992 42.9022 60.0992 41.8022 60.0992Z" fill="#2F5ED1"/>
<path d="M97.6025 77.4C97.6025 79.9 95.9025 82.1 93.5025 82.7C93.3025 82.7 93.2025 82.9 93.2025 83.1V85.9H91.0025V83.1C91.0025 82.9 90.9025 82.8 90.7025 82.7C88.4025 82.1 86.8025 80.1 86.6025 77.8H88.8026C89.0026 79.5 90.4025 80.8 92.1025 80.8C94.0025 80.8 95.5025 79.3 95.5025 77.4C95.5025 75.5 94.0025 74 92.1025 74C89.1025 74 86.6025 71.5 86.6025 68.5C86.6025 66 88.3025 63.8 90.7025 63.2C90.9025 63.2 91.0025 63 91.0025 62.8V60H93.2025V62.8C93.2025 63 93.3025 63.1 93.5025 63.2C95.8025 63.8 97.4025 65.8 97.6025 68.1H95.4025C95.2025 66.4 93.8025 65.1 92.1025 65.1C90.3025 65.1 88.8026 66.6 88.8026 68.5C88.8026 70.3 90.3025 71.8 92.1025 71.8C95.1025 71.9 97.6025 74.4 97.6025 77.4Z" fill="#FFA200"/>
<path d="M105.002 71.8984H102.802V74.0984H105.002V71.8984Z" fill="#FFA200"/>
<path d="M81.4026 71.8984H79.2026V74.0984H81.4026V71.8984Z" fill="#FFA200"/>
<path d="M18.3206 70.4279C18.3206 69.0918 15.7994 67.9227 12.1017 67.4216C11.7655 63.7474 10.589 61.2422 9.24435 61.2422C7.89971 61.2422 6.72316 63.7474 6.21892 67.4216C2.52118 67.7557 0 68.9248 0 70.2608C0 71.5969 2.52118 72.766 6.21892 73.2671C6.55508 76.9414 7.73163 79.4465 9.07627 79.4465C10.4209 79.4465 11.5975 76.9414 12.1017 73.2671C15.6313 72.766 18.3206 71.764 18.3206 70.4279Z" fill="#FFE48F"/>
<circle cx="124.332" cy="50.5" r="5" stroke="#E02287" stroke-opacity="0.6" stroke-width="3"/>
<path d="M124.364 9.18569C124.364 7.84959 121.842 6.68049 118.145 6.17946C117.808 2.50518 116.632 0 115.287 0C113.943 0 112.766 2.50518 112.262 6.17946C108.564 6.51348 106.043 7.68256 106.043 9.01866C106.043 10.3548 108.564 11.5239 112.262 12.0249C112.598 15.6992 113.775 18.2043 115.119 18.2043C116.464 18.2043 117.64 15.6992 118.145 12.0249C121.674 11.5239 124.364 10.5218 124.364 9.18569Z" fill="#9FADF0"/>
<rect x="8" y="20.8789" width="6.90165" height="6.90165" transform="rotate(-45 8 20.8789)" fill="#E02287" fill-opacity="0.6"/>
</svg>
