<svg width="172" height="145" viewBox="0 0 172 145" fill="none" xmlns="http://www.w3.org/2000/svg">
<path d="M100.535 70.3826C100.191 71.0895 100.576 71.7568 100.692 72.4184C101.112 74.867 101.603 77.3044 102.064 79.7473C102.099 79.9226 102.064 80.1262 102.338 80.1488C101.369 81.3986 100.22 82.4956 99.1403 83.6549C96.182 86.8443 93.2004 90.0112 90.2421 93.2006C89.9329 93.5342 89.7695 93.5625 89.4428 93.2062C85.4342 88.8915 81.4082 84.588 77.3879 80.2789C77.3588 80.2506 77.3529 80.1997 77.3296 80.1601C77.7614 79.9283 77.6272 79.4872 77.6972 79.1422C78.2165 76.49 78.695 73.8265 79.2026 71.1687C79.2551 70.8916 79.2843 70.6371 79.1151 70.3939C78.975 69.9585 79.1092 69.54 79.1909 69.1159C81.4082 57.3422 83.6662 45.5684 85.726 33.7664C85.7551 33.6081 85.7668 33.4498 85.8076 33.2971C86.0294 32.4601 85.9827 31.8777 84.9616 31.4309C84.0163 31.0238 83.5729 30.0624 83.6837 28.9823C85.6093 27.823 87.5406 26.6694 89.4603 25.5045C89.7053 25.3575 89.9037 25.3292 90.1604 25.4875C92.0976 26.6694 94.0465 27.8343 95.9895 29.0106C96.1528 30.0285 95.4935 31.1878 94.3907 31.6175C93.8072 31.8437 93.6905 32.1265 93.7839 32.692C94.5658 37.4931 95.4702 42.2716 96.3512 47.0557C97.7283 54.5656 99.1403 62.0698 100.576 69.574C100.628 69.8511 100.663 70.1225 100.535 70.3826Z" fill="#E20F4D"/>
<path d="M145.428 31.9564C138.199 22.5239 130.975 13.08 123.763 3.63051C122.847 2.43165 121.867 1.27803 121.056 0C100.237 0 79.4127 0 58.5939 0C58.553 0.23751 58.3663 0.390195 58.2263 0.565501C50.2325 11.0329 42.2329 21.506 34.2158 31.9621C33.9066 32.3636 33.9066 32.5841 34.2567 32.963C36.1413 34.9819 37.9968 37.0346 39.8581 39.0761C49.8124 49.9789 59.7667 60.8761 69.721 71.7846C72.265 74.5726 74.7973 77.3718 77.3355 80.171C77.8548 80.2219 77.7847 79.7865 77.8372 79.532C78.3449 76.8176 78.8759 74.1032 79.366 71.3831C79.4243 71.0665 79.4652 70.7554 79.3076 70.4501C79.2026 70.2408 79.0276 70.0881 78.8642 69.9241C77.5455 68.5726 76.3085 67.1475 75.0365 65.7564C73.0177 63.551 70.9988 61.3455 68.9858 59.1344C67.3112 57.2965 65.6132 55.4813 63.9444 53.6434C61.9489 51.4436 59.9417 49.2608 57.9404 47.0723C55.9274 44.8612 53.891 42.667 51.878 40.4616C49.4915 37.8433 47.0934 35.2363 44.7069 32.6181C44.3393 32.2166 44.3043 31.9564 44.6369 31.521C50.04 24.5201 55.4431 17.5192 60.8403 10.5127C61.3596 9.83971 61.4413 9.83405 62.1298 10.3034C66.8152 13.5155 71.5064 16.7219 76.1977 19.9282C77.9189 21.1045 79.6519 22.2751 81.3615 23.4683C81.9917 23.9094 81.9858 23.9433 81.4257 24.4805C80.9764 24.9103 80.4746 25.2835 80.0078 25.702C78.3449 27.2006 76.6528 28.6652 74.9723 30.1468C73.0993 31.7924 71.238 33.4437 69.3534 35.078C67.5912 36.6049 65.8524 38.1543 64.0962 39.6868C63.5185 40.1901 62.83 40.6142 62.4741 41.3324C62.5032 41.4399 62.5791 41.4964 62.69 41.5191C63.0634 41.5077 63.3435 41.2872 63.641 41.1119C70.3278 37.1308 77.0087 33.1383 83.7013 29.1572C85.5043 28.0658 87.3364 27.0196 89.1277 25.9112C89.6295 25.6002 90.0321 25.6002 90.5339 25.9112C92.3252 27.0253 94.1574 28.0658 95.9603 29.1572C96.1937 29.3099 96.4446 29.4343 96.6838 29.5757C103.178 33.4776 109.713 37.3287 116.213 41.2306C116.452 41.372 116.686 41.5304 116.989 41.5191C117.1 41.4908 117.17 41.4286 117.193 41.3211C117.199 41.1684 117.112 41.0667 117.007 40.9705C115.519 39.6246 114.013 38.2957 112.496 36.9781C110.127 34.914 107.793 32.8217 105.419 30.7689C104.141 29.6662 102.898 28.5352 101.614 27.4381C100.441 26.4315 99.292 25.391 98.1251 24.3787C97.7575 24.062 97.7341 23.8245 98.1776 23.5305C100.366 22.0885 102.513 20.5842 104.678 19.1083C108.914 16.2186 113.138 13.3232 117.368 10.4278C118.267 9.81709 118.267 9.80012 118.909 10.6314C122.451 15.212 125.963 19.8095 129.517 24.3844C131.366 26.7595 133.163 29.1685 135.019 31.538C135.235 31.8094 135.503 32.0808 135.13 32.4201C134.721 32.7934 134.4 33.2458 134.021 33.6473C132.708 35.0384 131.419 36.4465 130.141 37.8603C128.525 39.6529 126.885 41.4286 125.251 43.2099C123.6 45.0025 121.966 46.8121 120.309 48.6048C118.67 50.3804 117.048 52.1731 115.42 53.9544C113.745 55.7866 112.047 57.6075 110.378 59.4454C107.951 62.1202 105.483 64.7611 103.067 67.4473C102.163 68.4538 101.206 69.4208 100.336 70.4614C100.185 70.7667 100.231 71.0778 100.29 71.3944C100.447 72.2201 100.599 73.0457 100.757 73.8713C101.124 75.7884 101.463 77.7111 101.854 79.6225C101.9 79.8543 101.807 80.2954 102.338 80.1597C102.466 80.0014 102.595 79.8374 102.735 79.6847C116.954 64.1108 131.174 48.5313 145.405 32.9687C145.755 32.5615 145.726 32.3466 145.428 31.9564ZM112.333 7.73039C105.01 12.0791 97.6816 16.4165 90.3589 20.7652C90.0029 20.9744 89.7462 21.0423 89.3553 20.8104C81.9567 16.4052 74.5464 12.0225 67.142 7.6286C67.0486 7.57205 66.9611 7.50985 66.7043 7.34585C82.1842 7.34585 97.4657 7.34585 112.765 7.34585C112.736 7.61164 112.485 7.63991 112.333 7.73039Z" fill="#1D1E1F"/>
<path d="M117.118 41.2988C117.304 41.3893 117.473 41.4968 117.561 41.7852C117.293 41.7116 117.112 41.6155 116.966 41.4459C117.012 41.395 117.065 41.3497 117.118 41.2988Z" fill="#4A5076"/>
<path d="M62.6841 41.4459C62.544 41.6099 62.369 41.7173 62.1064 41.7625C62.1531 41.4911 62.3515 41.4006 62.5324 41.2988C62.5849 41.3497 62.6316 41.395 62.6841 41.4459Z" fill="#4A5076"/>
<path d="M172 130.948C114.923 130.948 57.841 130.948 0.764367 130.948C0 130.948 0 130.948 0 130.224C0 129.398 0 129.398 0.869394 129.398C57.911 129.398 114.958 129.398 172 129.398C172 129.919 172 130.433 172 130.948Z" fill="#E20F4D"/>
<path d="M130.73 115.429C130.73 113.484 130.742 111.539 130.718 109.593C130.713 109.231 130.806 109.118 131.185 109.141C131.804 109.175 132.428 109.175 133.052 109.141C133.472 109.118 133.583 109.243 133.583 109.65C133.566 112.817 133.583 115.983 133.56 119.156C133.554 119.648 133.712 119.755 134.184 119.738C134.984 119.704 135.783 119.704 136.582 119.738C137.003 119.755 137.119 119.637 137.119 119.224C137.102 116.04 137.119 112.851 137.096 109.667C137.09 109.226 137.224 109.113 137.656 109.141C138.24 109.181 138.829 109.175 139.412 109.141C139.809 109.118 139.914 109.226 139.908 109.616C139.891 112.783 139.908 115.95 139.885 119.122C139.879 119.614 139.996 119.772 140.521 119.738C141.32 119.693 142.12 119.699 142.919 119.738C143.374 119.761 143.52 119.654 143.514 119.179C143.491 116.012 143.508 112.845 143.491 109.673C143.491 109.237 143.602 109.113 144.045 109.141C144.611 109.181 145.183 109.181 145.749 109.141C146.181 109.113 146.309 109.22 146.309 109.661C146.286 112.811 146.309 115.961 146.286 119.111C146.28 119.597 146.379 119.761 146.91 119.733C147.785 119.682 147.791 119.721 147.791 120.592C147.791 121.78 147.785 122.967 147.797 124.155C147.803 124.443 147.727 124.568 147.412 124.534C147.184 124.511 146.951 124.528 146.718 124.528C145.731 124.528 145.731 124.528 145.673 123.595C145.644 123.131 145.568 122.668 145.58 122.204C145.591 121.802 145.434 121.735 145.055 121.74C140.859 121.752 136.67 121.746 132.475 121.746C132.066 121.746 131.658 121.723 131.249 121.752C130.853 121.78 130.707 121.684 130.713 121.26C130.748 119.32 130.73 117.375 130.73 115.429Z" fill="#1D1E1F"/>
<path d="M45.1031 115.803C45.179 113.948 45.249 112.088 45.3307 110.233C45.3657 109.47 45.71 109.159 46.5093 109.159C47.3262 109.153 48.1431 109.159 48.96 109.159C49.8936 109.159 50.1911 109.373 50.407 110.261C50.9964 112.738 51.7316 115.181 52.2217 117.681C52.245 117.805 52.1575 118.048 52.4142 118.031C52.5951 118.02 52.5543 117.822 52.5776 117.692C53.0736 115.125 53.8146 112.614 54.4156 110.069C54.5731 109.419 54.9407 109.164 55.6467 109.159C56.4986 109.153 57.3505 109.153 58.2024 109.159C59.1243 109.159 59.4452 109.458 59.4861 110.357C59.5561 111.873 59.6203 113.383 59.6845 114.898C59.772 117.03 59.842 119.162 59.947 121.294C59.9645 121.696 59.8537 121.792 59.4569 121.769C58.8734 121.735 58.2841 121.73 57.7006 121.769C57.2805 121.797 57.193 121.633 57.1872 121.277C57.158 120.174 57.1055 119.077 57.0588 117.975C56.9829 115.894 56.9071 113.813 56.8196 111.732C56.8137 111.59 56.9304 111.341 56.6387 111.336C56.3819 111.336 56.4286 111.568 56.3878 111.726C55.7868 114.095 55.18 116.459 54.5848 118.829C54.3339 119.824 54.1063 119.999 53.0444 119.999C52.5484 119.999 52.0466 120.005 51.5507 119.999C50.7513 119.994 50.4187 119.75 50.2262 118.998C49.6893 116.917 49.1584 114.831 48.6274 112.749C48.534 112.382 48.4465 112.014 48.3415 111.652C48.3065 111.522 48.3473 111.296 48.0906 111.336C47.8864 111.37 47.9681 111.556 47.9622 111.675C47.898 113.117 47.8339 114.565 47.7813 116.007C47.7172 117.777 47.6413 119.552 47.6005 121.322C47.5888 121.696 47.4546 121.775 47.1045 121.758C46.521 121.73 45.9317 121.718 45.3482 121.758C44.9223 121.786 44.8581 121.633 44.8756 121.266C44.9689 119.445 45.0331 117.624 45.1031 115.803Z" fill="#1D1E1F"/>
<path d="M65.6243 118.155C65.776 117.838 65.9044 117.51 66.0736 117.211C67.3047 115.045 68.5475 112.879 69.7904 110.719C70.0938 110.193 70.298 109.492 70.7648 109.22C71.2082 108.96 71.9376 109.152 72.5444 109.152C73.5713 109.152 73.5713 109.152 73.5713 110.131C73.5713 113.835 73.5655 117.533 73.583 121.237C73.583 121.667 73.478 121.797 73.0345 121.769C72.416 121.729 71.7917 121.752 71.1674 121.763C70.9107 121.769 70.7881 121.729 70.794 121.435C70.8115 118.834 70.8115 116.232 70.8115 113.637C70.8115 113.298 70.9632 112.975 70.8932 112.619C69.4519 115.622 67.6373 118.415 66.0386 121.316C65.8577 121.644 65.6651 121.791 65.2684 121.769C64.6499 121.735 64.0255 121.735 63.4012 121.769C63.0103 121.791 62.8994 121.69 62.8994 121.294C62.9169 118.093 62.9111 114.887 62.9111 111.686C62.9111 110.962 62.9286 110.238 62.9052 109.514C62.8936 109.215 62.9986 109.135 63.2962 109.147C63.973 109.164 64.644 109.158 65.3209 109.152C65.5484 109.147 65.6826 109.175 65.6768 109.452C65.6184 112.206 65.776 114.96 65.5834 117.714C65.5718 117.855 65.5543 117.991 65.5368 118.133C65.5659 118.133 65.5951 118.144 65.6243 118.155Z" fill="#1D1E1F"/>
<path d="M18.5546 115.447C18.5546 113.501 18.5663 111.556 18.5429 109.611C18.5371 109.215 18.6538 109.119 19.0447 109.136C19.6457 109.169 20.2525 109.169 20.8535 109.136C21.297 109.107 21.4603 109.198 21.4428 109.678C21.402 110.951 21.437 112.223 21.4195 113.496C21.4137 113.807 21.4895 113.908 21.8279 113.903C23.0883 113.88 24.3486 113.886 25.6089 113.903C25.9182 113.908 25.9999 113.812 25.994 113.524C25.9824 112.218 25.9999 110.906 25.9824 109.599C25.9765 109.249 26.0582 109.119 26.4433 109.136C27.1318 109.169 27.8262 109.152 28.5205 109.141C28.7714 109.136 28.8998 109.164 28.8998 109.464C28.8881 113.456 28.8881 117.448 28.8998 121.441C28.8998 121.695 28.8123 121.758 28.5614 121.752C27.8495 121.741 27.1377 121.724 26.4316 121.758C26.0232 121.774 25.9824 121.616 25.9824 121.283C25.9999 119.699 25.9765 118.116 25.9999 116.532C26.0057 116.131 25.8832 116.046 25.4922 116.057C24.3194 116.08 23.1466 116.086 21.9738 116.057C21.5479 116.046 21.402 116.131 21.4137 116.578C21.4487 118.161 21.4195 119.744 21.4312 121.328C21.437 121.661 21.3495 121.774 20.9936 121.758C20.3226 121.729 19.6457 121.729 18.9689 121.758C18.6129 121.774 18.5312 121.656 18.5312 121.328C18.5604 119.371 18.5546 117.409 18.5546 115.447Z" fill="#1D1E1F"/>
<path d="M150.032 115.431C150.032 114.176 150.026 112.921 150.032 111.66C150.038 110.15 150.983 109.115 152.53 109.064C154.519 108.996 156.509 109.036 158.493 109.166C158.837 109.188 159.006 109.273 158.942 109.663C158.878 110.037 158.866 110.421 158.884 110.794C158.901 111.185 158.785 111.326 158.347 111.315C156.871 111.286 155.4 111.303 153.924 111.303C153.171 111.303 152.932 111.524 152.915 112.248C152.903 112.745 152.932 113.249 152.903 113.746C152.885 114.074 153.002 114.148 153.323 114.142C154.764 114.125 156.2 114.148 157.641 114.125C158.049 114.12 158.172 114.238 158.137 114.623C158.084 115.115 158.341 115.759 158.043 116.065C157.74 116.376 157.069 116.15 156.561 116.155C155.494 116.172 154.432 116.178 153.364 116.15C152.979 116.138 152.885 116.257 152.903 116.608C152.932 117.275 152.903 117.948 152.915 118.621C152.932 119.356 153.16 119.577 153.907 119.582C155.4 119.588 156.888 119.594 158.382 119.577C158.75 119.571 158.89 119.667 158.878 120.035C158.866 120.464 158.901 120.894 158.948 121.324C158.977 121.601 158.866 121.692 158.604 121.714C156.526 121.867 154.449 121.918 152.372 121.81C150.919 121.737 150.038 120.702 150.026 119.294C150.026 118.016 150.032 116.726 150.032 115.431Z" fill="#1D1E1F"/>
<path d="M167.443 109.052C168.003 109.08 168.995 109.131 169.987 109.17C170.355 109.187 170.559 109.289 170.448 109.696C170.401 109.86 170.413 110.036 170.407 110.211C170.355 111.308 170.355 111.308 169.188 111.308C167.91 111.308 166.632 111.302 165.348 111.308C164.695 111.314 164.45 111.54 164.426 112.179C164.409 112.71 164.438 113.248 164.415 113.779C164.397 114.085 164.52 114.147 164.811 114.147C166.235 114.135 167.653 114.158 169.077 114.13C169.497 114.124 169.707 114.203 169.643 114.656C169.579 115.142 169.859 115.804 169.532 116.086C169.246 116.33 168.587 116.166 168.091 116.166C167.005 116.171 165.926 116.177 164.841 116.16C164.537 116.154 164.397 116.2 164.409 116.544C164.438 117.251 164.409 117.958 164.426 118.659C164.444 119.366 164.677 119.587 165.395 119.587C166.889 119.593 168.377 119.604 169.87 119.581C170.267 119.576 170.401 119.689 170.39 120.073C170.372 120.486 170.413 120.899 170.454 121.312C170.483 121.566 170.419 121.696 170.133 121.719C168.038 121.872 165.943 121.939 163.849 121.815C162.39 121.73 161.538 120.701 161.532 119.27C161.526 116.725 161.526 114.175 161.532 111.63C161.538 110.12 162.536 109.103 164.111 109.052C165.086 109.023 166.048 109.052 167.443 109.052Z" fill="#1D1E1F"/>
<path d="M117.619 109.148C118.547 109.148 119.428 109.16 120.315 109.143C120.63 109.137 120.636 109.346 120.694 109.533C121.307 111.506 121.914 113.474 122.532 115.448C122.59 115.635 122.585 115.9 122.841 115.951C123.151 116.019 123.431 116.059 123.571 115.623C124.201 113.621 124.872 111.631 125.514 109.629C125.63 109.261 125.8 109.114 126.214 109.137C126.885 109.177 127.562 109.154 128.239 109.143C128.519 109.137 128.67 109.148 128.548 109.499C127.416 112.751 126.301 116.008 125.181 119.259C125.029 119.701 124.814 120.113 124.563 120.509C123.95 121.459 123.069 121.94 121.908 121.963C121.05 121.974 120.21 121.872 119.364 121.753C119.049 121.708 118.996 121.595 119.066 121.312C119.183 120.809 119.09 120.176 119.381 119.825C119.679 119.469 120.338 119.78 120.84 119.751C121.96 119.695 122.421 119.288 122.614 118.095C120.998 118.428 120.461 117.473 120.052 116.206C119.352 114.012 118.553 111.846 117.794 109.663C117.736 109.51 117.683 109.352 117.619 109.148Z" fill="#1D1E1F"/>
<path d="M97.5586 118.168C95.6506 118.021 95.6214 117.993 95.0146 116.251C94.256 114.057 93.4917 111.863 92.7273 109.663C92.6748 109.505 92.6223 109.347 92.5581 109.149C93.4683 109.149 94.3436 109.166 95.2071 109.137C95.5397 109.126 95.5689 109.318 95.6389 109.539C96.2457 111.513 96.8584 113.486 97.4769 115.454C97.5352 115.641 97.5352 115.901 97.792 115.952C98.1071 116.02 98.3813 116.037 98.5155 115.612C99.1398 113.627 99.8167 111.654 100.441 109.669C100.575 109.234 100.779 109.115 101.217 109.137C101.871 109.171 102.53 109.154 103.189 109.143C103.487 109.137 103.603 109.171 103.487 109.511C102.367 112.728 101.264 115.952 100.155 119.175C100.108 119.305 100.062 119.435 100.009 119.56C99.2215 121.409 98.2763 122.003 96.2049 121.957C95.5631 121.946 94.9329 121.833 94.3027 121.754C94.0343 121.72 93.9293 121.641 93.9993 121.358C94.0868 120.99 94.1393 120.611 94.1744 120.238C94.2152 119.837 94.3494 119.599 94.8337 119.707C95.0554 119.758 95.2947 119.741 95.5222 119.746C96.8176 119.786 97.2318 119.463 97.5586 118.168Z" fill="#1D1E1F"/>
<path d="M8.75843 111.404C8.1166 111.404 7.4806 111.376 6.83876 111.41C5.89935 111.455 5.37421 111.856 5.10581 112.744C4.71487 114.056 4.76155 115.396 4.84908 116.742C4.88409 117.257 4.94827 117.771 5.12915 118.263C5.40339 119.021 5.94603 119.462 6.78625 119.496C8.09909 119.553 9.41777 119.558 10.7248 119.406C11.0865 119.366 11.2382 119.44 11.2616 119.802C11.2908 120.265 11.3549 120.723 11.4133 121.187C11.4425 121.396 11.3666 121.498 11.1507 121.549C9.08519 122.035 7.00797 122.194 4.93076 121.69C3.26199 121.289 2.40427 120.096 2.06001 118.552C1.62823 116.595 1.60489 114.616 2.0075 112.654C2.49763 110.25 3.7813 109.153 6.29612 108.972C7.78401 108.865 9.27774 108.927 10.7481 109.249C11.0982 109.329 11.2207 109.442 11.1332 109.798C11.0515 110.132 10.999 110.482 11.0107 110.821C11.034 111.347 10.8415 111.506 10.2988 111.438C9.7912 111.376 9.2719 111.427 8.7526 111.427C8.75843 111.415 8.75843 111.41 8.75843 111.404Z" fill="#1D1E1F"/>
<path d="M8.83943 142.614C9.60379 141.064 10.5665 139.617 11.4009 138.101C11.5643 137.807 11.7977 137.875 12.0369 137.869C13.1164 137.864 13.1164 137.864 13.1164 138.893C13.1164 140.714 13.1105 142.54 13.1222 144.361C13.1222 144.684 13.0522 144.802 12.6904 144.797C11.5935 144.785 11.5935 144.802 11.5935 143.767C11.5935 142.512 11.5935 141.262 11.5935 139.962C11.0508 140.906 10.5199 141.822 9.99473 142.738C9.67381 143.292 9.32955 143.835 9.03781 144.406C8.88027 144.712 8.68188 144.808 8.33763 144.802C7.24651 144.78 7.24651 144.797 7.24651 143.722C7.24651 141.935 7.25818 140.143 7.24067 138.356C7.23484 137.999 7.28152 137.847 7.7133 137.858C8.74023 137.886 8.74023 137.864 8.74023 138.848C8.7344 140.069 8.72856 141.291 8.72273 142.512C8.70522 142.569 8.68188 142.636 8.72856 142.67C8.76357 142.699 8.80442 142.636 8.83943 142.614Z" fill="#1D1E1F"/>
<path d="M47.2271 142.614C47.9915 141.064 48.9542 139.617 49.7886 138.101C49.952 137.807 50.1854 137.875 50.4246 137.869C51.5041 137.864 51.5041 137.864 51.5041 138.893C51.5041 140.714 51.4982 142.54 51.5099 144.361C51.5099 144.684 51.4399 144.802 51.0781 144.797C49.9812 144.785 49.9812 144.802 49.9812 143.767C49.9812 142.512 49.9812 141.262 49.9812 139.962C49.4385 140.906 48.9076 141.822 48.3824 142.738C48.0615 143.292 47.7172 143.835 47.4255 144.406C47.268 144.712 47.0696 144.808 46.7253 144.802C45.6342 144.78 45.6342 144.797 45.6342 143.722C45.6342 141.935 45.6459 140.143 45.6284 138.356C45.6225 137.999 45.6692 137.847 46.101 137.858C47.1279 137.886 47.1279 137.864 47.1279 138.848C47.1221 140.069 47.1163 141.291 47.1104 142.512C47.0929 142.569 47.0696 142.636 47.1163 142.67C47.1513 142.699 47.1921 142.636 47.2271 142.614Z" fill="#1D1E1F"/>
<path d="M129.878 141.308C129.878 140.296 129.89 139.278 129.872 138.266C129.866 137.943 129.96 137.864 130.287 137.864C131.465 137.864 131.465 137.847 131.465 138.967C131.465 139.38 131.477 139.792 131.459 140.205C131.454 140.431 131.541 140.505 131.769 140.499C132.387 140.488 133.011 140.482 133.63 140.499C133.91 140.505 133.945 140.381 133.945 140.154C133.933 139.498 133.951 138.848 133.939 138.192C133.933 137.949 134.009 137.875 134.266 137.864C135.532 137.796 135.526 137.791 135.526 138.978C135.526 140.765 135.515 142.558 135.538 144.345C135.544 144.701 135.456 144.808 135.077 144.803C133.945 144.786 133.945 144.803 133.945 143.706C133.945 143.157 133.928 142.603 133.951 142.054C133.963 141.749 133.852 141.676 133.56 141.687C132.994 141.709 132.422 141.715 131.856 141.687C131.5 141.67 131.454 141.811 131.459 142.105C131.477 142.88 131.454 143.655 131.471 144.429C131.477 144.724 131.384 144.803 131.08 144.808C129.878 144.831 129.878 144.842 129.878 143.689C129.878 142.891 129.878 142.1 129.878 141.308Z" fill="#1D1E1F"/>
<path d="M26.7646 141.325C26.7646 142.338 26.7529 143.356 26.7704 144.368C26.7763 144.69 26.7004 144.803 26.3386 144.803C25.1775 144.798 25.1775 144.815 25.1775 143.684C25.1775 143.135 25.1658 142.581 25.1833 142.032C25.195 141.755 25.1017 141.676 24.8216 141.687C24.2381 141.704 23.6488 141.71 23.0653 141.687C22.7444 141.676 22.686 141.795 22.6919 142.072C22.7094 142.864 22.686 143.655 22.7035 144.447C22.7094 144.713 22.6277 144.792 22.3476 144.803C21.1106 144.843 21.1164 144.854 21.1164 143.661C21.1164 141.874 21.1281 140.081 21.1106 138.294C21.1048 137.961 21.1981 137.865 21.5482 137.865C22.7035 137.87 22.6919 137.859 22.7094 138.99C22.7152 139.482 22.476 140.138 22.8144 140.421C23.1061 140.664 23.7596 140.494 24.2556 140.5C25.1833 140.505 25.1833 140.5 25.1833 139.623C25.1833 139.143 25.1133 138.645 25.2008 138.181C25.2183 138.091 25.265 137.966 25.3759 137.865C25.5393 137.706 25.761 137.689 25.9127 137.678C26.0411 137.667 26.4787 137.633 26.6771 137.887C26.7646 138 26.7821 138.13 26.7763 138.181C26.7471 139.227 26.7646 140.274 26.7646 141.325Z" fill="#1D1E1F"/>
<path d="M53.208 141.324C53.208 140.312 53.2139 139.294 53.2022 138.282C53.1964 137.993 53.2314 137.863 53.5931 137.857C54.7951 137.852 54.7893 137.835 54.7951 138.994C54.801 139.475 54.5851 140.097 54.8768 140.391C55.1919 140.708 55.8512 140.481 56.353 140.493C57.2691 140.51 57.2691 140.498 57.2691 139.61C57.2691 139.147 57.2924 138.677 57.2633 138.219C57.2574 138.129 57.2749 138.01 57.3566 137.903C57.5142 137.693 57.8176 137.682 57.9926 137.676C58.1443 137.671 58.5236 137.654 58.7161 137.891C58.8153 138.01 58.827 138.146 58.827 138.191C58.897 140.289 58.8503 142.387 58.8562 144.485C58.8562 144.734 58.7803 144.796 58.5236 144.807C57.2633 144.858 57.2633 144.87 57.2633 143.631C57.2633 143.117 57.2516 142.596 57.2691 142.082C57.2808 141.81 57.2224 141.68 56.9015 141.692C56.3355 141.714 55.7637 141.714 55.1977 141.692C54.8768 141.68 54.7659 141.759 54.7776 142.087C54.801 142.862 54.766 143.637 54.7951 144.406C54.8068 144.734 54.6901 144.802 54.375 144.802C53.2022 144.807 53.2022 144.819 53.2022 143.699C53.208 142.907 53.208 142.116 53.208 141.324Z" fill="#1D1E1F"/>
<path d="M150.335 141.314C150.335 142.331 150.324 143.344 150.341 144.362C150.347 144.678 150.288 144.808 149.915 144.808C148.748 144.803 148.748 144.82 148.748 143.694C148.748 142.281 148.731 140.872 148.76 139.459C148.766 139.052 148.637 138.967 148.252 138.989C147.739 139.023 147.219 139.023 146.706 138.989C146.338 138.967 146.268 139.108 146.274 139.43C146.292 141.048 146.268 142.665 146.292 144.288C146.297 144.667 146.233 144.825 145.784 144.814C144.699 144.78 144.699 144.808 144.699 143.779C144.699 141.953 144.705 140.132 144.693 138.305C144.693 137.977 144.769 137.87 145.125 137.875C146.723 137.892 148.322 137.892 149.921 137.875C150.242 137.87 150.353 137.949 150.341 138.271C150.324 139.278 150.335 140.296 150.335 141.314Z" fill="#1D1E1F"/>
<path d="M169.147 141.222C170.016 141.38 170.424 141.9 170.675 142.556C170.955 143.275 171.2 144.01 171.457 144.734C171.381 144.768 171.352 144.79 171.323 144.79C170.844 144.79 170.29 144.932 169.905 144.745C169.508 144.547 169.572 143.925 169.397 143.501C169.252 143.15 169.129 142.788 168.96 142.455C168.668 141.878 168.195 141.669 167.559 141.759C167.373 141.787 167.326 141.838 167.349 142.019C167.449 142.805 167.361 143.597 167.402 144.389C167.414 144.688 167.355 144.807 167.005 144.807C165.815 144.813 165.815 144.83 165.815 143.671C165.815 141.9 165.826 140.125 165.809 138.355C165.803 137.993 165.861 137.852 166.287 137.857C167.402 137.885 167.408 137.863 167.402 138.92C167.396 139.418 167.449 139.921 167.344 140.413C167.309 140.583 167.344 140.645 167.542 140.662C168.143 140.719 168.621 140.504 168.913 139.978C169.217 139.446 169.392 138.869 169.537 138.287C169.619 137.965 169.747 137.829 170.103 137.857C170.471 137.891 170.844 137.863 171.311 137.863C170.722 139.073 170.833 140.583 169.147 141.222Z" fill="#1D1E1F"/>
<path d="M66.1792 137.869C65.5782 139.079 65.6949 140.595 64.0262 141.211C65.0298 141.415 65.3915 142.099 65.6658 142.851C65.8933 143.479 66.1034 144.118 66.3193 144.751C66.2434 144.768 66.2084 144.785 66.1734 144.785C64.7205 144.853 64.7263 144.847 64.2712 143.53C64.137 143.139 63.962 142.761 63.7928 142.387C63.6936 142.161 63.5244 141.986 63.291 141.873C63.0109 141.731 62.6958 141.703 62.4099 141.771C61.9606 141.873 62.2932 142.223 62.2757 142.438C62.229 143.105 62.2465 143.778 62.264 144.451C62.2699 144.728 62.1765 144.791 61.9023 144.802C60.6711 144.842 60.6711 144.847 60.6711 143.654C60.6711 141.867 60.6828 140.074 60.6653 138.287C60.6594 137.948 60.7645 137.863 61.1087 137.863C62.2582 137.869 62.264 137.858 62.2582 138.989C62.2582 139.452 62.2524 139.916 62.1998 140.38C62.1707 140.623 62.2407 140.657 62.4682 140.668C63.0809 140.691 63.5302 140.47 63.8044 139.927C64.0787 139.384 64.2654 138.813 64.4113 138.231C64.4871 137.948 64.6213 137.846 64.9247 137.869C65.3098 137.892 65.7008 137.869 66.1792 137.869Z" fill="#1D1E1F"/>
<path d="M122.462 137.893C124.043 137.825 124.043 137.825 124.662 139.142C124.872 139.595 125.087 140.047 125.309 140.5C125.356 140.596 125.362 140.777 125.525 140.743C125.595 140.726 125.659 140.601 125.7 140.511C126.056 139.765 126.429 139.024 126.756 138.26C126.89 137.955 127.054 137.847 127.386 137.87C127.754 137.898 128.122 137.876 128.559 137.876C128.075 138.843 127.649 139.765 127.159 140.652C126.914 141.093 126.896 141.433 127.159 141.88C127.696 142.801 128.162 143.768 128.705 144.797C128.186 144.797 127.719 144.792 127.252 144.797C127.007 144.803 126.978 144.611 126.908 144.464C126.459 143.57 126.021 142.677 125.554 141.732C125.233 142.015 125.152 142.377 124.988 142.683C124.685 143.248 124.405 143.819 124.142 144.402C124.014 144.69 123.856 144.831 123.512 144.803C123.144 144.769 122.765 144.797 122.316 144.797C122.853 143.78 123.337 142.796 123.88 141.84C124.107 141.438 124.113 141.116 123.891 140.703C123.384 139.798 122.946 138.86 122.462 137.893Z" fill="#1D1E1F"/>
<path d="M28.4857 141.32C28.4857 140.647 28.474 139.98 28.4915 139.307C28.509 138.447 29.04 137.899 29.9152 137.882C30.8896 137.865 31.8699 137.899 32.8443 137.916C33.1536 137.921 33.4686 137.938 33.3578 138.396C33.2819 138.719 33.4861 139.182 32.8035 139.126C32.0974 139.069 31.3856 139.126 30.6737 139.109C30.2711 139.097 30.0902 139.25 30.0669 139.64C30.0144 140.664 30.0027 140.658 31.053 140.658C31.549 140.658 32.0508 140.669 32.5467 140.653C32.821 140.641 32.9085 140.726 32.9143 140.997C32.9318 141.778 32.9493 141.778 32.1383 141.778C31.5723 141.778 31.0005 141.772 30.4345 141.784C30.312 141.784 30.0902 141.71 30.0844 141.902C30.0727 142.383 29.9911 142.869 30.1311 143.339C30.2069 143.587 30.4578 143.565 30.6737 143.565C31.4206 143.565 32.1675 143.582 32.9143 143.559C33.562 143.542 33.2644 144.023 33.3461 144.294C33.4395 144.6 33.2819 144.707 32.9668 144.73C31.9399 144.803 30.9071 144.815 29.8802 144.781C28.9991 144.747 28.5032 144.198 28.4857 143.333C28.474 142.66 28.4857 141.993 28.4857 141.32Z" fill="#1D1E1F"/>
<path d="M116.563 141.313C116.563 140.623 116.545 139.933 116.569 139.249C116.592 138.451 117.117 137.909 117.94 137.886C118.967 137.852 120 137.863 121.027 137.926C121.388 137.948 121.511 138.09 121.423 138.406C121.348 138.678 121.628 139.147 120.98 139.124C120.251 139.096 119.521 139.136 118.798 139.113C118.302 139.096 118.144 139.305 118.144 139.758C118.144 140.668 118.133 140.668 119.084 140.668C119.615 140.668 120.151 140.674 120.682 140.663C120.916 140.657 120.98 140.742 120.992 140.957C121.05 141.788 121.062 141.788 120.216 141.788C119.632 141.788 119.043 141.794 118.459 141.782C118.238 141.777 118.144 141.839 118.15 142.071C118.168 143.784 117.987 143.564 119.562 143.569C120.041 143.569 120.525 143.586 121.003 143.564C121.604 143.535 121.365 143.982 121.429 144.248C121.493 144.502 121.488 144.7 121.102 144.729C120.041 144.808 118.973 144.825 117.911 144.774C117.082 144.734 116.604 144.191 116.575 143.377C116.575 143.36 116.575 143.343 116.575 143.326C116.563 142.659 116.563 141.986 116.563 141.313Z" fill="#1D1E1F"/>
<path d="M72.9478 137.87C72.2826 139.798 71.6817 141.67 70.999 143.508C70.5147 144.82 69.1785 145.323 67.8657 144.786C67.8015 144.757 67.714 144.741 67.7256 144.661C67.7606 144.356 67.7548 144.028 67.8657 143.751C67.9357 143.564 68.2216 143.677 68.4025 143.672C69.3069 143.66 69.4469 143.576 69.622 142.807C68.7526 142.982 68.4608 142.462 68.2449 141.783C67.8306 140.488 67.3755 139.21 66.9204 137.864C67.4222 137.864 67.8598 137.881 68.2974 137.858C68.595 137.841 68.595 138.056 68.6417 138.22C68.9509 139.221 69.2544 140.228 69.5636 141.234C69.622 141.421 69.6161 141.675 69.9254 141.659C70.2054 141.642 70.1704 141.393 70.2229 141.234C70.5614 140.222 70.8998 139.21 71.209 138.186C71.2849 137.943 71.3841 137.853 71.6466 137.864C72.0551 137.887 72.4635 137.87 72.9478 137.87Z" fill="#1D1E1F"/>
<path d="M18.234 141.206C19.1209 141.472 19.4476 141.839 19.5118 142.631C19.5352 142.936 19.5352 143.253 19.506 143.558C19.4418 144.214 19.0625 144.656 18.4032 144.786C17.1837 145.017 15.9584 144.944 14.7564 144.672C14.1963 144.548 14.5755 144.101 14.5464 143.807C14.5114 143.457 14.8031 143.57 14.9956 143.598C15.6842 143.689 16.3727 143.768 17.067 143.734C17.7264 143.705 17.9247 143.457 17.9189 142.75C17.9131 142.043 17.703 141.8 17.0554 141.766C16.6994 141.749 16.3435 141.749 15.9934 141.726C15.585 141.704 15.3107 141.121 15.5325 140.776C15.6141 140.646 15.7483 140.686 15.8709 140.686C16.2618 140.674 16.6527 140.686 17.0437 140.669C17.5922 140.64 17.7964 140.42 17.8139 139.883C17.8372 139.266 17.6447 139.006 17.0845 138.955C16.4252 138.893 15.7717 138.984 15.1182 139.046C14.8264 139.074 14.7389 138.995 14.7272 138.729C14.6981 137.87 14.453 137.966 15.4041 137.858C16.2735 137.756 17.1429 137.722 18.0064 137.864C18.8992 138.011 19.2142 138.361 19.3368 139.221C19.3835 139.555 19.3543 139.871 19.3018 140.194C19.2142 140.714 18.8642 141.025 18.234 141.206Z" fill="#1D1E1F"/>
<path d="M38.3585 143.553C38.5744 143.553 38.7845 143.536 38.9946 143.559C39.2104 143.582 39.508 143.355 39.6189 143.61C39.7356 143.881 39.7297 144.215 39.7414 144.52C39.7472 144.679 39.5722 144.673 39.4555 144.696C38.4052 144.939 37.3433 144.995 36.2872 144.763C35.3828 144.56 34.8693 143.949 34.6709 143.095C34.4083 141.976 34.3908 140.839 34.6417 139.719C34.916 138.481 35.5695 137.915 36.8648 137.791C37.6467 137.717 38.4227 137.774 39.1988 137.887C39.8406 137.977 39.508 138.407 39.5372 138.713C39.5664 139.046 39.4088 139.148 39.0587 139.12C38.5103 139.08 37.9559 139.092 37.4075 139.097C36.7306 139.108 36.3747 139.38 36.2522 140.013C36.083 140.884 36.083 141.761 36.2463 142.632C36.3689 143.271 36.719 143.548 37.3841 143.565C37.705 143.576 38.026 143.565 38.341 143.565C38.3585 143.565 38.3585 143.559 38.3585 143.553Z" fill="#1D1E1F"/>
<path d="M88.7188 141.918C88.7188 141.127 88.6954 140.335 88.7304 139.543C88.7479 139.164 88.6137 139.074 88.252 139.102C87.826 139.13 87.4001 139.096 86.9741 139.113C86.6824 139.13 86.5774 139.057 86.5774 138.751C86.5715 137.869 86.554 137.869 87.4409 137.869C88.9521 137.869 90.4575 137.881 91.9688 137.864C92.3305 137.858 92.4997 137.943 92.4414 138.316C92.418 138.469 92.4239 138.627 92.4414 138.78C92.4764 139.068 92.3364 139.13 92.0738 139.119C91.6303 139.102 91.1869 139.136 90.7435 139.108C90.3992 139.085 90.2942 139.187 90.3 139.532C90.3175 141.132 90.2942 142.733 90.3175 144.333C90.3233 144.729 90.2008 144.819 89.8099 144.808C88.7188 144.785 88.7188 144.808 88.7188 143.728C88.7188 143.123 88.7188 142.523 88.7188 141.918Z" fill="#1D1E1F"/>
<path d="M111.749 141.952C111.749 141.127 111.738 140.301 111.755 139.475C111.761 139.176 111.662 139.091 111.364 139.108C110.921 139.13 110.477 139.096 110.034 139.119C109.73 139.136 109.602 139.079 109.602 138.734C109.614 137.875 109.59 137.875 110.489 137.875C111.983 137.875 113.471 137.886 114.964 137.864C115.344 137.858 115.536 137.931 115.466 138.333C115.443 138.486 115.449 138.644 115.466 138.797C115.495 139.051 115.379 139.125 115.128 139.113C114.702 139.096 114.276 139.136 113.85 139.102C113.447 139.074 113.307 139.176 113.319 139.6C113.348 141.183 113.319 142.766 113.342 144.344C113.348 144.706 113.243 144.802 112.87 144.802C111.749 144.791 111.749 144.808 111.749 143.705C111.749 143.117 111.749 142.535 111.749 141.952Z" fill="#1D1E1F"/>
<path d="M42.4949 142.726C42.174 142.726 41.8531 142.692 41.538 142.732C41.0478 142.794 40.9078 142.624 40.9311 142.149C40.9487 141.81 41.0362 141.708 41.3863 141.72C42.1448 141.742 42.9092 141.742 43.6735 141.72C44.1812 141.703 44.0061 142.048 44.0294 142.285C44.0586 142.54 44.0645 142.766 43.6677 142.732C43.2768 142.704 42.88 142.726 42.4949 142.726Z" fill="#1D1E1F"/>
<path d="M116.656 120.894C116.656 119.729 116.656 119.718 115.443 119.735C115.052 119.74 114.929 119.655 114.935 119.26C114.958 117.659 114.947 116.059 114.947 114.458C114.947 112.824 114.941 111.19 114.952 109.55C114.952 109.245 114.888 109.137 114.55 109.143C112.829 109.16 111.101 109.137 109.38 109.16C107.764 109.182 106.661 110.229 106.515 111.784C106.293 114.164 105.973 116.534 105.156 118.807C104.829 119.706 104.835 119.723 103.86 119.718C103.504 119.718 103.417 119.825 103.423 120.159C103.44 121.482 103.44 122.811 103.423 124.134C103.417 124.434 103.481 124.575 103.825 124.547C104.234 124.513 104.642 124.513 105.051 124.547C105.412 124.581 105.512 124.423 105.529 124.117C105.57 123.467 105.64 122.811 105.663 122.161C105.675 121.861 105.762 121.748 106.095 121.748C108.727 121.759 111.352 121.759 113.984 121.748C114.299 121.748 114.416 121.816 114.421 122.144C114.433 122.777 114.509 123.416 114.538 124.049C114.556 124.389 114.626 124.598 115.063 124.547C115.431 124.502 115.81 124.513 116.184 124.547C116.545 124.575 116.674 124.479 116.662 124.1C116.639 123.031 116.656 121.963 116.656 120.894ZM112.076 119.401C112.076 119.638 112.012 119.729 111.749 119.729C110.384 119.718 109.024 119.723 107.554 119.723C108.773 117.28 109.018 114.713 109.287 112.157C109.363 111.439 109.596 111.218 110.325 111.19C110.786 111.173 111.247 111.196 111.708 111.173C111.977 111.162 112.076 111.235 112.076 111.512C112.064 114.142 112.07 116.771 112.076 119.401Z" fill="#1D1E1F"/>
<path d="M91.368 117.472C91.2688 115.521 90.2944 114.548 88.2872 114.299C87.1728 114.164 86.0525 114.22 84.9322 114.214C84.6288 114.214 84.5412 114.13 84.5471 113.836C84.5646 113.146 84.5762 112.456 84.5412 111.772C84.5237 111.381 84.6404 111.285 85.0372 111.291C86.6535 111.313 88.2697 111.291 89.886 111.308C90.2594 111.313 90.3878 111.189 90.3994 110.85C90.4169 110.403 90.4636 109.956 90.5278 109.515C90.5686 109.227 90.487 109.136 90.1777 109.119C87.4995 108.984 84.8155 108.972 82.1373 109.108C81.7522 109.125 81.6355 109.221 81.6413 109.606C81.6647 111.534 81.653 113.462 81.653 115.391C81.653 117.336 81.6705 119.281 81.6413 121.227C81.6355 121.662 81.7814 121.792 82.1898 121.803C82.7033 121.82 83.2167 121.883 83.7302 121.9C85.3289 121.956 86.9277 122.035 88.5206 121.843C90.1835 121.645 91.0238 120.853 91.298 119.264C91.403 118.676 91.3972 118.077 91.368 117.472ZM88.4273 118.665C88.3106 119.406 88.0363 119.722 87.272 119.768C86.4609 119.824 85.6382 119.785 84.8213 119.807C84.5529 119.813 84.5529 119.666 84.5529 119.479C84.5587 118.965 84.5529 118.45 84.5529 117.93C84.5529 117.449 84.5646 116.968 84.5471 116.488C84.5354 116.222 84.6113 116.126 84.903 116.132C85.6499 116.154 86.3967 116.132 87.1377 116.171C87.9721 116.211 88.3105 116.539 88.4214 117.33C88.4914 117.771 88.4973 118.218 88.4273 118.665Z" fill="#1D1E1F"/>
<path d="M39.3149 109.859C39.1632 109.373 38.8014 109.141 38.2704 109.147C37.436 109.152 36.6017 109.147 35.7673 109.147C35.0146 109.152 34.7578 109.333 34.5361 110.029C33.6842 112.704 32.8382 115.378 31.9863 118.053C31.6012 119.275 31.2102 120.496 30.8135 121.757C31.7004 121.757 32.5173 121.74 33.3283 121.763C33.6726 121.774 33.8243 121.678 33.906 121.35C34.1218 120.502 34.3902 119.665 34.6178 118.817C34.682 118.562 34.7695 118.438 35.0671 118.443C36.3274 118.46 37.5877 118.455 38.8539 118.443C39.1106 118.443 39.2157 118.517 39.2857 118.766C39.5191 119.648 39.7817 120.519 40.0326 121.395C40.0909 121.588 40.1142 121.774 40.4293 121.763C41.2987 121.735 42.1681 121.752 43.0375 121.752C43.0433 121.689 43.0608 121.655 43.0492 121.622C41.8064 117.703 40.5635 113.778 39.3149 109.859ZM38.1187 116.283C37.7278 116.261 37.3369 116.278 36.9459 116.278C36.555 116.278 36.164 116.261 35.7731 116.283C35.4464 116.3 35.3238 116.244 35.4289 115.893C35.849 114.457 36.2399 113.015 36.6367 111.567C36.6892 111.38 36.7359 111.262 36.9751 111.267C37.2085 111.273 37.2085 111.42 37.2552 111.567C37.6519 113.009 38.0487 114.451 38.463 115.893C38.568 116.244 38.4455 116.3 38.1187 116.283Z" fill="#1D1E1F"/>
<path d="M99.2915 139.724C99.0406 138.514 98.4513 137.976 97.1968 137.801C96.9518 137.767 96.7009 137.773 96.4558 137.756C96.4558 137.762 96.4558 137.762 96.4558 137.767C96.3158 137.767 96.1699 137.762 96.0299 137.767C94.4836 137.812 93.7076 138.44 93.4567 139.916C93.2875 140.923 93.2875 141.935 93.4975 142.942C93.7543 144.14 94.3144 144.678 95.5456 144.847C96.1757 144.938 96.8176 144.926 97.4536 144.813C98.4688 144.638 99.0581 144.05 99.2682 143.1C99.5074 141.98 99.5191 140.849 99.2915 139.724ZM97.5878 142.947C97.401 143.496 96.9751 143.66 96.4266 143.66C95.7381 143.66 95.3705 143.484 95.2188 142.953C94.9037 141.873 94.9037 140.776 95.2246 139.696C95.388 139.141 95.8548 139.006 96.3975 139.006C96.9343 139.006 97.3835 139.141 97.5819 139.684C97.7745 140.21 97.792 140.764 97.792 141.313C97.7862 141.867 97.7628 142.416 97.5878 142.947Z" fill="#1D1E1F"/>
<path d="M143.012 139.718C142.762 138.508 142.166 137.971 140.912 137.801C140.667 137.767 140.416 137.773 140.171 137.756C140.171 137.762 140.171 137.762 140.171 137.767C140.031 137.767 139.885 137.762 139.745 137.767C138.21 137.812 137.452 138.417 137.189 139.865C137.002 140.889 137.008 141.918 137.218 142.941C137.469 144.14 138.035 144.678 139.266 144.847C139.897 144.938 140.538 144.921 141.174 144.813C142.19 144.638 142.773 144.05 142.983 143.094C143.228 141.974 143.24 140.843 143.012 139.718ZM141.309 142.925C141.122 143.462 140.789 143.654 140.112 143.654C139.436 143.654 139.08 143.467 138.922 142.919C138.619 141.856 138.619 140.776 138.928 139.712C139.086 139.181 139.453 139 140.136 139C140.678 139 141.11 139.164 141.297 139.707C141.478 140.238 141.495 140.787 141.495 141.335C141.501 141.878 141.489 142.416 141.309 142.925Z" fill="#1D1E1F"/>
<path d="M3.4311 140.657C2.19411 140.657 2.21162 140.651 2.21162 139.441C2.21162 139.079 2.34582 139.017 2.67257 139.023C3.43694 139.04 4.20131 139.011 4.95984 139.04C5.31576 139.051 5.44413 138.927 5.42663 138.604C5.42079 138.486 5.42663 138.361 5.46164 138.248C5.54916 137.943 5.41496 137.864 5.12321 137.858C4.4347 137.841 3.74035 137.796 3.05767 137.762C2.36332 137.796 1.66898 137.83 0.980463 137.858C0.770408 137.869 0.630371 137.886 0.630371 138.169C0.642041 140.284 0.642041 142.399 0.636206 144.514C0.636206 144.689 0.66538 144.797 0.88127 144.814C2.13577 144.898 3.39609 145 4.64475 144.785C5.32743 144.666 5.74754 144.254 5.85841 143.581C6.26685 141.172 5.26908 140.657 3.4311 140.657ZM4.25965 143.388C4.17797 143.53 4.0671 143.637 3.89789 143.666C3.72285 143.694 3.5478 143.728 3.37276 143.739C2.22329 143.784 2.22329 143.784 2.22329 142.67C2.22329 141.692 2.22329 141.692 3.25022 141.698C4.25382 141.698 4.74395 142.529 4.25965 143.388Z" fill="#1D1E1F"/>
<path d="M76.8272 140.658C75.5143 140.652 75.526 140.652 75.5785 139.368C75.5902 139.091 75.6835 139.018 75.9519 139.023C76.6054 139.04 77.2648 139.029 77.9241 139.029C78.9685 139.023 78.7001 139.125 78.8343 138.22C78.8752 137.938 78.7993 137.875 78.5193 137.853C77.1364 137.757 75.7535 137.757 74.3765 137.842C74.1023 137.859 73.9856 137.932 73.9914 138.232C74.0148 139.261 73.9973 140.296 73.9973 141.325C73.9973 142.354 73.9973 143.389 73.9973 144.418C73.9973 144.605 73.9564 144.786 74.2657 144.803C75.5026 144.882 76.7455 144.984 77.9766 144.775C78.6826 144.656 79.1144 144.237 79.2311 143.547C79.6279 141.15 78.6068 140.663 76.8272 140.658ZM77.6324 143.378C77.5565 143.525 77.4457 143.632 77.2764 143.661C77.0839 143.694 76.8913 143.728 76.6988 143.734C75.5902 143.768 75.5902 143.762 75.5902 142.677C75.5902 141.687 75.5902 141.687 76.6054 141.693C77.6149 141.698 78.0992 142.501 77.6324 143.378Z" fill="#1D1E1F"/>
<path d="M158.008 144.435C157.36 142.422 156.724 140.403 156.094 138.384C155.983 138.039 155.779 137.864 155.406 137.869C154.98 137.875 154.554 137.875 154.128 137.869C153.76 137.864 153.544 138.016 153.433 138.367C152.774 140.482 152.103 142.597 151.409 144.791C151.893 144.791 152.319 144.78 152.745 144.797C153.002 144.808 153.06 144.684 153.13 144.48C153.288 143.994 153.229 143.309 153.643 143.072C154.04 142.846 154.682 143.044 155.207 142.987C155.802 142.919 156.077 143.095 156.217 143.694C156.479 144.831 156.52 144.814 157.716 144.802C158.025 144.797 158.107 144.734 158.008 144.435ZM155.277 141.805C154.834 141.783 154.39 141.8 153.894 141.8C154.139 140.906 154.361 140.075 154.589 139.249C154.612 139.159 154.589 139.029 154.74 139.017C154.915 139.006 154.915 139.136 154.95 139.255C155.143 139.984 155.341 140.714 155.551 141.443C155.627 141.698 155.598 141.816 155.277 141.805Z" fill="#1D1E1F"/>
<path d="M86.5072 144.299C85.9996 142.676 85.5036 141.047 84.9726 139.43C84.3658 137.581 84.8559 137.903 82.6387 137.875C82.2886 137.869 82.0844 138.039 81.991 138.367C81.886 138.745 81.7518 139.119 81.6351 139.498C81.0808 141.251 80.5323 143.004 79.9663 144.796C80.4214 144.796 80.8299 144.779 81.2383 144.802C81.5301 144.819 81.6409 144.706 81.6934 144.44C81.7693 144.072 81.9093 143.716 81.9968 143.349C82.061 143.083 82.1894 142.987 82.4753 142.998C83.0063 143.021 83.5431 143.032 84.0682 142.992C84.4475 142.964 84.5875 143.105 84.6809 143.445C85.0543 144.847 85.066 144.842 86.5247 144.791C86.5539 144.791 86.5831 144.762 86.6356 144.74C86.5947 144.593 86.5539 144.446 86.5072 144.299ZM83.829 141.805C83.3855 141.782 82.9421 141.799 82.4461 141.799C82.6912 140.9 82.9129 140.074 83.1405 139.243C83.1638 139.153 83.1405 139.023 83.298 139.017C83.4731 139.011 83.4731 139.141 83.5022 139.26C83.7006 139.99 83.899 140.719 84.1091 141.449C84.1849 141.697 84.1499 141.822 83.829 141.805Z" fill="#1D1E1F"/>
<path d="M164.333 139.199C164.199 138.447 163.767 137.995 162.991 137.87C161.789 137.678 160.587 137.774 159.385 137.831C159.105 137.842 159.093 137.995 159.093 138.204C159.099 139.233 159.099 140.268 159.099 141.297C159.099 142.089 159.099 142.88 159.099 143.672C159.099 144.831 159.099 144.814 160.295 144.803C160.651 144.803 160.704 144.673 160.692 144.379C160.675 143.814 160.698 143.242 160.68 142.677C160.669 142.366 160.715 142.236 161.1 142.275C161.766 142.343 162.442 142.366 163.113 142.219C163.773 142.072 164.17 141.676 164.304 141.048C164.438 140.432 164.444 139.821 164.333 139.199ZM161.9 141.15C160.68 141.241 160.68 141.241 160.68 140.036C160.68 138.837 160.68 138.837 161.906 138.933C162.618 138.99 162.828 139.239 162.822 140.047C162.828 140.839 162.606 141.099 161.9 141.15Z" fill="#1D1E1F"/>
<path d="M106.241 139.317C106.083 138.406 105.722 138.005 104.788 137.858C103.627 137.671 102.454 137.773 101.287 137.824C100.96 137.841 100.984 138.022 100.984 138.237C100.99 139.266 100.984 140.301 100.984 141.33C100.984 142.105 100.984 142.879 100.984 143.654C100.984 144.847 100.984 144.836 102.215 144.796C102.495 144.785 102.583 144.712 102.577 144.446C102.559 143.829 102.583 143.207 102.565 142.591C102.559 142.331 102.623 142.246 102.915 142.269C103.446 142.308 103.983 142.325 104.508 142.291C105.611 142.218 106.095 141.76 106.253 140.702C106.323 140.244 106.317 139.78 106.241 139.317ZM103.586 141.155C102.565 141.172 102.565 141.172 102.565 140.052C102.565 140.035 102.565 140.018 102.565 140.001C102.606 139.65 102.39 139.096 102.676 138.994C103.166 138.813 103.773 138.836 104.292 139.045C104.73 139.221 104.706 139.65 104.712 140.029C104.718 140.894 104.467 141.138 103.586 141.155Z" fill="#1D1E1F"/>
</svg>
