<svg width="634" height="618" viewBox="0 0 634 618" fill="none" xmlns="http://www.w3.org/2000/svg">
<circle cx="520" cy="259" r="16" stroke="#405CE1" stroke-opacity="0.3" stroke-width="4"/>
<path d="M220.848 97.0332C220.848 95.283 217.566 93.7514 212.753 93.0951C212.315 88.2818 210.784 85 209.033 85C207.283 85 205.751 88.2818 205.095 93.0951C200.282 93.5327 197 95.0642 197 96.8144C197 98.5647 200.282 100.096 205.095 100.753C205.533 105.566 207.064 108.848 208.814 108.848C210.565 108.848 212.096 105.566 212.753 100.753C217.347 100.096 220.848 98.7835 220.848 97.0332Z" fill="#FFE48F"/>
<path d="M149.848 606.033C149.848 604.283 146.566 602.751 141.753 602.095C141.315 597.282 139.784 594 138.033 594C136.283 594 134.751 597.282 134.095 602.095C129.282 602.533 126 604.064 126 605.814C126 607.565 129.282 609.096 134.095 609.753C134.533 614.566 136.064 617.848 137.814 617.848C139.565 617.848 141.096 614.566 141.753 609.753C146.347 609.096 149.848 607.784 149.848 606.033Z" fill="#FFE48F"/>
<path d="M633.848 373.033C633.848 371.283 630.566 369.751 625.753 369.095C625.315 364.282 623.784 361 622.033 361C620.283 361 618.751 364.282 618.095 369.095C613.282 369.533 610 371.064 610 372.814C610 374.565 613.282 376.096 618.095 376.753C618.533 381.566 620.064 384.848 621.814 384.848C623.565 384.848 625.096 381.566 625.753 376.753C630.347 376.096 633.848 374.784 633.848 373.033Z" fill="#405CE1" fill-opacity="0.5"/>
<path d="M23.8477 272.033C23.8477 270.283 20.5659 268.751 15.7526 268.095C15.315 263.282 13.7835 260 12.0332 260C10.283 260 8.75145 263.282 8.09509 268.095C3.28179 268.533 0 270.064 0 271.814C0 273.565 3.28179 275.096 8.09509 275.753C8.53266 280.566 10.0642 283.848 11.8145 283.848C13.5648 283.848 15.0963 280.566 15.7526 275.753C20.3471 275.096 23.8477 273.784 23.8477 272.033Z" fill="#405CE1" fill-opacity="0.5"/>
<rect x="316" y="24.1094" width="7.22486" height="7.22486" transform="rotate(-45 316 24.1094)" fill="#E02287" fill-opacity="0.6"/>
<circle cx="53" cy="556" r="16" stroke="#E02287" stroke-opacity="0.6" stroke-width="4"/>
<path fill-rule="evenodd" clip-rule="evenodd" d="M571.12 458.269C585.957 431.232 591.663 399.452 589.152 368.621C587.783 352.493 584.131 336.129 577.968 321.425C572.033 307.432 564.044 294.388 564.728 278.498C565.413 262.845 574.315 247.193 569.522 232.488C560.62 205.215 520.674 204.503 499.446 193.831C469.087 178.889 462.011 148.769 446.033 121.258C430.054 93.7473 405.858 70.9796 376.869 60.07C347.88 49.1605 314.097 50.5835 287.163 66.2363C273.923 74.0627 265.478 83.5493 258.858 97.542C253.836 108.214 248.815 119.598 239.456 126.002C227.815 134.302 213.206 131.694 199.967 132.879C169.836 135.488 139.706 146.635 117.108 167.743C106.151 177.941 97.4773 190.51 91.5425 204.503C85.836 218.259 82.8686 233.911 74.1946 246.481C65.749 258.339 52.5098 265.691 44.5206 278.024C34.2489 294.151 42.9229 311.701 40.6402 329.251C36.988 357.237 14.8467 396.132 34.0206 422.694C41.7815 433.367 52.9663 432.418 64.6077 432.181C79.9012 432.181 96.336 430.995 110.945 426.014C123.499 421.745 135.825 416.528 149.064 416.054C158.88 415.579 168.695 414.868 178.51 414.631C184.901 414.631 191.293 416.528 197.684 417.002C210.923 418.425 224.391 419.848 237.63 421.271C267.304 424.591 296.75 427.675 326.424 430.995C382.804 437.161 439.185 443.327 495.793 449.494C514.054 451.391 532.315 453.525 550.576 455.423C552.174 456.134 570.435 459.455 571.12 458.269Z" fill="#EDEEF7" fill-opacity="0.5"/>
<path fill-rule="evenodd" clip-rule="evenodd" d="M116.367 545.891C133.043 553.011 150.404 559.182 166.395 568.201C186.497 579.594 203.173 594.309 226.016 600.48C241.322 604.515 257.769 604.515 273.531 606.651C290.664 609.024 308.025 612.11 325.386 613.297C326.528 613.297 327.442 613.534 328.584 613.534C334.067 613.771 339.321 614.009 344.803 614.246C345.945 614.246 346.859 614.246 348.001 614.246C349.143 614.246 350.057 614.246 351.199 614.246C352.341 614.246 353.484 614.246 354.626 614.246C421.329 614.483 491.687 601.667 546.283 559.657C554.279 553.486 562.274 546.366 566.614 537.109C570.269 529.277 571.183 520.258 573.01 511.476C575.066 501.507 578.95 492.726 586.488 486.08C596.768 477.298 601.565 472.789 596.082 458.311C579.178 412.741 546.969 374.054 508.82 345.572C455.594 305.936 390.49 283.388 326.3 272.233C290.435 266.062 254.114 263.689 217.793 265.587C209.112 266.062 200.432 266.774 191.751 267.724C183.527 268.673 175.304 270.809 167.08 270.572C146.521 269.86 124.591 273.894 104.717 280.065C91.6963 284.1 72.0508 288.372 66.34 303.325C64.5125 308.072 62.4565 312.344 59.2584 316.616C54.6897 322.787 47.1514 323.499 41.212 327.06C34.5874 331.094 28.6481 336.553 24.0793 342.962C17.4547 352.218 13.7997 363.373 11.9723 374.766C8.77417 392.567 7.40356 412.978 11.7438 430.542C16.0841 448.342 24.5362 464.956 35.0443 479.672C53.5475 505.542 77.0764 526.903 105.174 540.432C108.601 542.568 112.484 544.229 116.367 545.891Z" fill="#D6D7F2" fill-opacity="0.8"/>
<path d="M438.461 1.26829C438.303 1.26829 438.303 1.10975 438.144 1.10975C437.986 1.10975 437.828 0.951218 437.828 0.951218C437.669 0.951218 437.511 0.792682 437.511 0.792682L437.194 0.634145C437.036 0.634145 436.878 0.475609 436.878 0.475609C436.719 0.475609 436.719 0.475609 436.561 0.317073C436.403 0.317073 436.245 0.317073 436.245 0.158536C436.086 0.158536 435.928 0.158536 435.928 0C435.77 0 435.611 0 435.453 0C435.295 0 435.295 0 435.136 0C435.136 0 435.136 0 434.978 0C434.82 0 434.661 0 434.503 0C434.345 0 434.186 0 434.028 0C433.87 0 433.711 0 433.553 0C433.395 0 433.078 0.158536 432.92 0.158536C432.603 0.317073 432.445 0.317073 432.128 0.475609L426.112 3.96341C426.587 3.64634 426.903 3.4878 427.537 3.4878C428.012 3.32926 428.487 3.32926 429.12 3.4878C429.595 3.4878 430.228 3.64634 430.862 3.80487C431.495 3.96341 432.128 4.28048 432.761 4.59755L602.642 103.207L608.659 99.7194L438.461 1.26829Z" fill="#58AFFB"/>
<path d="M617.841 115.097C617.841 114.938 617.841 114.78 617.841 114.621C617.841 114.463 617.841 114.304 617.841 114.146C617.841 113.987 617.841 113.828 617.841 113.67C617.841 113.511 617.841 113.353 617.841 113.194C617.841 113.036 617.841 112.877 617.841 112.719C617.841 112.56 617.841 112.402 617.683 112.243C617.683 112.085 617.683 111.926 617.525 111.768C617.525 111.609 617.366 111.45 617.366 111.292C617.366 111.133 617.366 110.975 617.208 110.975C617.208 110.816 617.05 110.658 617.05 110.499C617.05 110.341 616.891 110.182 616.891 110.024C616.891 109.865 616.733 109.707 616.733 109.548C616.733 109.389 616.575 109.231 616.575 109.072C616.575 108.914 616.416 108.914 616.416 108.755C616.416 108.597 616.258 108.438 616.258 108.28C616.258 108.121 616.1 107.963 616.1 107.804C615.941 107.646 615.941 107.487 615.783 107.328C615.625 107.17 615.625 107.011 615.466 106.694C615.466 106.694 615.466 106.694 615.466 106.536V106.377C615.308 106.06 614.991 105.585 614.833 105.268C614.675 104.95 614.516 104.633 614.2 104.475C614.041 104.316 613.883 104.158 613.725 103.999C613.567 103.841 613.566 103.682 613.408 103.524C613.25 103.365 613.25 103.207 613.092 103.048C612.933 102.889 612.933 102.731 612.775 102.572C612.617 102.414 612.617 102.414 612.458 102.255C612.3 102.097 612.142 101.938 612.142 101.938C611.983 101.78 611.825 101.621 611.667 101.621C611.508 101.463 611.35 101.304 611.192 101.304L611.033 101.146L610.875 100.987C610.717 100.829 610.558 100.829 610.4 100.67C610.242 100.511 610.083 100.511 609.925 100.353C609.767 100.194 609.608 100.194 609.608 100.036C609.45 99.8773 609.292 99.8773 609.292 99.7188C609.292 99.7188 609.292 99.7188 609.133 99.7188L603.117 103.207C603.75 103.524 604.384 103.999 605.017 104.475C605.65 104.95 606.125 105.426 606.759 106.06C607.867 107.17 608.817 108.597 609.608 110.024C609.608 110.024 609.608 110.024 609.608 110.182C610.083 110.816 610.4 111.609 610.717 112.243C611.033 113.036 611.35 113.67 611.508 114.463C611.667 115.255 611.983 116.048 611.983 116.682C612.142 117.475 612.142 118.267 612.142 118.902L611.825 235.426C611.825 236.219 611.825 236.853 611.667 237.487C611.508 238.121 611.35 238.597 611.192 239.072C611.033 239.548 610.717 239.865 610.558 240.182C610.4 240.34 610.4 240.34 610.242 240.499C609.925 240.816 609.608 241.133 609.292 241.292L615.308 237.804C615.625 237.645 615.941 237.328 616.258 237.011C616.416 236.853 616.416 236.853 616.575 236.694C616.733 236.536 616.733 236.377 616.891 236.219C617.05 236.06 617.208 235.743 617.208 235.584C617.208 235.426 617.366 235.267 617.366 235.109C617.366 234.95 617.525 234.792 617.525 234.633C617.525 234.475 617.683 234.316 617.683 234.158V233.999V233.84C617.683 233.682 617.683 233.523 617.683 233.365C617.683 233.206 617.683 233.048 617.683 232.889C617.683 232.731 617.683 232.572 617.683 232.414C617.683 232.255 617.683 232.097 617.683 231.938L618 115.414C617.841 115.414 617.841 115.255 617.841 115.097Z" fill="#58AFFB"/>
<path d="M602.642 103.208C607.709 106.22 611.825 113.195 611.825 119.061L611.509 235.586C611.509 241.451 607.392 243.829 602.326 240.817L431.97 142.366C426.904 139.354 422.787 132.378 422.787 126.513L423.104 9.98829C423.104 4.12245 427.22 1.7444 432.287 4.75659L602.642 103.208Z" fill="#003783"/>
<path d="M435.77 118.268L448.752 111.609L457.302 125.402L466.801 135.073L476.3 129.365L496.566 122.707L505.748 135.865L514.931 143.475L523.164 155.682L534.563 131.902L548.179 138.561L555.462 132.536L570.344 136.5L592.351 134.597" stroke="#16C5DC" stroke-width="1.9889" stroke-miterlimit="10"/>
<path d="M591.876 128.099C588.552 126.197 585.702 127.782 585.702 131.587C585.702 135.55 588.393 140.148 591.876 142.209C595.201 144.111 598.051 142.526 598.051 138.721C598.051 134.758 595.359 130.002 591.876 128.099Z" fill="#FF628A"/>
<path d="M591.876 131.903C590.293 130.952 589.026 131.744 589.026 133.488C589.026 135.232 590.293 137.452 591.718 138.244C593.301 139.196 594.568 138.403 594.568 136.659C594.726 135.074 593.459 132.854 591.876 131.903Z" fill="#212973"/>
<path d="M564.328 169.16V170.745C564.328 171.697 563.378 172.172 562.586 171.855L555.303 167.575C554.987 167.416 554.67 166.94 554.67 166.465V164.879C554.67 163.928 555.62 163.453 556.411 163.77L563.694 168.05C564.011 168.367 564.328 168.843 564.328 169.16Z" fill="#7BAEFF"/>
<path d="M587.602 190.247V191.832C587.602 192.783 586.652 193.259 585.86 192.942L555.145 175.344C554.829 175.186 554.512 174.71 554.512 174.234V172.649C554.512 171.698 555.462 171.222 556.254 171.539L586.81 189.137C587.285 189.454 587.602 189.771 587.602 190.247Z" fill="#7BAEFF"/>
<g opacity="0.53">
<path opacity="0.53" d="M574.936 198.489V200.074C574.936 201.026 573.986 201.501 573.194 201.184L555.304 190.879C554.987 190.721 554.67 190.245 554.67 189.77V188.184C554.67 187.233 555.62 186.757 556.412 187.074L574.302 197.379C574.777 197.696 574.936 198.013 574.936 198.489Z" fill="#7BAEFF"/>
</g>
<path d="M582.852 195.319V196.904C582.852 197.855 581.902 198.331 581.11 198.014L555.304 183.27C554.987 183.111 554.67 182.636 554.67 182.16V180.575C554.67 179.624 555.62 179.148 556.412 179.465L582.219 194.209C582.535 194.367 582.852 194.843 582.852 195.319Z" fill="#7BAEFF"/>
<path d="M458.251 73.2459L462.685 70.5508V83.8678L458.251 86.4044V73.2459Z" fill="#CE7C56"/>
<path d="M447.327 66.9038L451.919 64.3672L462.685 70.5501L458.251 73.2452L447.327 66.9038Z" fill="#FBD15B"/>
<path d="M458.251 73.2438V86.4023L447.327 80.2194V66.9023L458.251 73.2438Z" fill="#E2A029"/>
<path d="M475.509 71.3413L479.942 68.8047V93.6949L475.351 96.39L475.509 71.3413Z" fill="#2670D4"/>
<path d="M464.584 65.16L469.176 62.4648L479.942 68.8063L475.509 71.3429L464.584 65.16Z" fill="#58AFFB"/>
<path d="M475.509 71.3431L475.35 96.3918L464.584 90.0504V65.1602L475.509 71.3431Z" fill="#2689FD"/>
<path d="M492.766 71.1811L497.199 68.6445L497.04 103.681L492.607 106.376L492.766 71.1811Z" fill="#E7318B"/>
<path d="M481.841 64.9998L486.432 62.3047L497.198 68.6461L492.765 71.1827L481.841 64.9998Z" fill="#FA5187"/>
<path d="M492.766 71.1829L492.607 106.378L481.683 100.037L481.841 65L492.766 71.1829Z" fill="#FA5187"/>
<path d="M509.865 72.1342L514.456 69.5977L514.298 113.671L509.865 116.207V72.1342Z" fill="#5B5BD6"/>
<path d="M499.098 65.9529L503.531 63.2578L514.455 69.5993L509.864 72.1359L499.098 65.9529Z" fill="#B391FF"/>
<path d="M509.865 72.136V116.209L498.94 110.026L499.099 65.9531L509.865 72.136Z" fill="#7974F5"/>
<path d="M339.667 316.279C339.667 316.279 341.251 321.828 336.818 324.999C332.226 328.17 330.01 328.804 326.368 330.231C322.727 331.657 319.244 336.413 320.985 339.901C322.727 343.389 330.643 343.865 335.709 342.438C340.776 341.011 341.726 336.413 346.475 334.828C351.383 333.084 352.967 331.182 354.391 329.755C355.816 328.328 352.017 315.328 352.017 315.328L337.926 316.913" fill="#382747"/>
<path d="M335.234 175.023C335.234 175.023 330.96 203.401 328.426 213.389C325.735 223.377 316.869 260.157 318.452 268.084C320.035 276.011 330.485 295.353 333.176 304.865C335.868 314.377 337.926 322.145 339.984 323.255C342.042 324.365 348.85 323.255 353.125 316.913C357.4 310.572 353.6 314.218 353.6 314.218C353.6 314.218 352.017 298.523 350.433 293.133C348.85 287.901 342.042 270.462 342.517 264.755C342.992 259.048 354.075 229.56 361.991 215.926C369.907 202.292 374.657 188.023 374.657 188.023L335.234 175.023Z" fill="#535E6D"/>
<path d="M363.416 331.023C363.416 331.023 363.733 335.304 359.141 338.475C354.55 341.645 353.758 343.548 350.117 344.975C346.475 346.401 342.992 351.158 344.734 354.645C346.475 358.133 354.391 358.609 359.458 357.182C364.524 355.755 365.474 351.158 370.224 349.572C375.132 347.828 376.715 345.926 378.14 344.499C379.565 343.072 378.932 337.365 378.932 337.365L361.674 331.658" fill="#382747"/>
<path d="M344.259 182.949C344.259 182.949 345.842 206.096 349.008 212.437C352.175 218.778 352.65 223.535 354.233 232.413C355.816 241.291 361.041 301.851 360.566 312.79C360.091 323.888 360.091 336.412 360.566 337.998C361.041 339.583 371.015 343.705 379.407 337.998C379.407 337.998 380.99 324.839 382.098 309.62C383.206 294.4 382.573 274.425 384.156 254.925C385.74 235.425 393.656 200.864 393.656 187.705C393.497 187.547 368.324 195.474 344.259 182.949Z" fill="#636F82"/>
<path d="M344.259 182.949C344.259 182.949 344.575 187.388 345.209 192.937C350.908 195.949 358.35 199.437 366.107 201.656C382.573 206.413 384.315 212.754 384.315 227.656C384.315 242.559 378.14 257.62 378.932 272.522C379.565 283.778 380.198 319.132 377.823 338.949C378.457 338.632 378.932 338.315 379.565 337.839C379.565 337.839 381.148 324.681 382.256 309.461C383.365 294.242 382.731 274.266 384.315 254.766C385.898 235.266 393.814 200.705 393.814 187.547C393.497 187.547 368.324 195.474 344.259 182.949Z" fill="#535E6D"/>
<path d="M322.727 102.256C322.727 102.256 344.417 84.1824 348.85 83.8653C354.233 83.3897 360.724 85.2922 362.466 92.7434C364.208 100.353 360.25 106.06 356.133 108.121C352.175 110.341 311.803 131.268 305.628 131.109C299.453 131.109 295.495 125.719 299.453 119.06C303.57 112.719 322.727 102.256 322.727 102.256Z" fill="#E2EDFF"/>
<path d="M362.466 80.2153C362.466 80.2153 362.466 80.5324 362.466 81.008C362.149 82.5934 361.2 86.7153 360.883 88.4592C360.725 90.0446 362.466 93.0568 366.899 93.2153C371.332 93.3738 379.09 91.7885 381.94 86.5568C381.782 85.6055 382.573 75.6178 383.523 70.7031L362.466 80.2153Z" fill="#E16B40"/>
<path d="M380.832 81.3265C380.832 81.3265 402.205 98.2898 404.105 103.68C406.005 109.07 405.847 123.814 400.78 133.326C395.714 142.839 396.031 183.741 393.973 190.717C391.914 197.692 372.916 198.96 361.2 196.107C349.484 193.253 331.118 183.424 334.76 170.265C340.301 150.765 338.559 126.351 338.084 120.168C337.609 113.985 339.193 98.4484 342.517 88.1435C343.151 85.924 350.909 82.9118 350.909 82.9118C350.909 82.9118 358.983 79.2655 380.832 81.3265Z" fill="#455BAF"/>
<path d="M381.623 84.1811C362.941 82.4372 354.392 85.6079 352.334 86.7176C352.017 90.5225 351.859 95.4371 352.65 100.035C354.075 108.913 357.558 133.01 357.558 133.01C357.558 133.01 369.116 113.193 376.557 104.949C381.94 99.242 387.165 93.6932 389.698 90.9981C385.265 87.1933 381.623 84.1811 381.623 84.1811Z" fill="#E1E8F2"/>
<path d="M362.466 80.2153C362.466 80.2153 362.466 80.5324 362.466 81.008C362.149 82.5934 361.2 86.7153 360.883 88.4592C360.725 90.0446 362.466 93.0568 366.899 93.2153C371.332 93.3738 379.09 91.7885 381.94 86.5568C381.782 85.6055 382.573 75.6178 383.523 70.7031L362.466 80.2153Z" fill="#FFC8AF"/>
<path d="M348.059 50.571C349.325 36.6198 359.3 27.7417 371.966 29.3271C371.966 29.3271 385.423 29.3271 392.548 40.4246C399.672 51.5222 391.914 62.3027 387.006 68.9612C384.948 71.8148 383.365 73.8758 382.415 75.3026C382.098 75.7782 381.782 76.4124 381.307 76.7295C381.307 76.888 381.148 76.888 381.148 76.888C377.665 81.0099 373.549 83.7051 370.382 84.9733C365.158 87.0343 358.825 86.8758 355.025 83.5465C351.067 80.2173 346.792 64.5222 348.059 50.571Z" fill="#FFC8AF"/>
<path d="M354.867 104.789L363.1 97.4961L369.749 109.069L376.399 104.789C368.799 113.033 357.4 132.85 357.4 132.85C357.4 132.85 354.55 112.716 352.809 102.411L354.867 104.789Z" fill="#CFDAE4"/>
<path d="M355.5 119.057L359.141 106.057L358.508 101.618L363.1 97.4961L366.266 103.203L362.625 106.533L361.675 125.874C359.141 129.996 357.4 132.85 357.4 132.85C357.4 132.85 356.608 126.508 355.5 119.057Z" fill="#00A5FF"/>
<path d="M393.656 38.8398C393.656 38.8398 400.305 47.7178 395.239 58.6568C390.172 69.7544 383.84 75.3031 382.098 75.3031C380.356 75.3031 379.406 74.9861 379.565 73.5592C379.881 72.1324 381.306 67.5348 381.306 67.5348C381.306 67.5348 388.589 65.4739 387.956 60.7178C387.164 55.9617 384.473 55.4861 381.623 57.23C378.773 58.9739 378.615 61.1934 377.19 63.2544C375.765 65.3153 375.923 69.7544 374.498 69.4373C373.074 69.1202 372.124 68.0105 371.649 65.791C371.332 63.5714 370.857 61.0349 373.232 58.0227C375.448 55.0105 371.807 51.0471 373.865 47.2422C375.923 43.2788 377.507 41.6934 377.507 41.6934C377.507 41.6934 376.082 44.5471 367.216 44.0715C358.191 43.5959 354.391 44.7056 350.592 42.9617C346.792 41.3764 346.95 36.3032 348.85 34.2422C350.75 32.1812 355.816 30.4373 361.674 27.4252C367.532 24.413 371.174 25.0471 378.773 25.6813C386.531 26.4739 394.606 33.291 393.656 38.8398Z" fill="#CE7C56"/>
<path d="M372.757 59.1338C372.757 59.1338 372.757 73.4021 368.799 75.463C364.841 77.3655 364.999 69.5972 358.983 68.1704C352.966 66.7435 348.692 67.0606 348.85 69.9143C349.008 72.7679 350.592 82.9142 355.975 85.2923C361.358 87.6703 369.749 86.402 373.548 84.024C377.507 81.646 377.032 64.3655 378.615 61.5118C380.356 58.4997 372.757 59.1338 372.757 59.1338Z" fill="#CE7C56"/>
<path d="M305.628 131.267C305.628 131.267 299.612 134.121 293.754 128.255C287.896 122.389 269.688 90.0476 269.688 90.0476C269.688 90.0476 270.48 82.5964 279.188 81.3281C279.188 81.3281 299.612 107.804 304.045 112.401C308.319 117.157 313.227 126.035 305.628 131.267Z" fill="#FFC8AF"/>
<path d="M394.922 142.047C394.922 142.047 383.681 116.047 384.631 111.766C385.739 106.535 389.381 100.669 396.98 101.144C404.738 101.62 409.013 107.01 410.121 111.449C411.071 115.888 418.354 150.608 416.613 156.474C414.871 162.339 408.696 164.717 403.472 159.01C398.247 153.461 394.922 142.047 394.922 142.047Z" fill="#E2EDFF"/>
<path d="M417.404 153.302C417.404 153.302 415.663 146.96 407.272 146.326C398.88 145.692 358.191 152.667 358.191 152.667C358.191 152.667 352.967 158.216 357.875 165.509C357.875 165.509 395.714 164.082 402.047 164.399C408.538 164.558 418.512 162.497 417.404 153.302Z" fill="#FFC8AF"/>
<path d="M349.483 148.387C347.425 147.436 341.567 144.899 340.459 144.582C339.192 144.741 338.717 147.911 340.934 149.18C343.15 150.289 346.159 152.192 346.475 153.619C346.792 154.887 343.784 158.533 342.517 159.167C341.25 159.96 331.276 161.862 330.801 163.448C330.326 165.033 333.176 165.826 334.918 165.35C336.659 164.875 338.717 164.875 338.717 164.875C338.717 164.875 339.192 165.984 340.617 166.619C342.2 167.253 342.834 167.094 343.309 167.728C343.784 168.204 344.892 168.838 346.95 168.997C349.008 169.155 353.283 167.253 356.133 166.46C358.983 165.667 361.833 164.875 361.833 164.875L359.299 154.411C359.141 153.777 358.666 153.143 358.033 152.826C355.975 151.716 351.067 149.18 349.483 148.387Z" fill="#FFC8AF"/>
<path d="M279.188 81.326C279.188 81.326 277.446 75.4602 275.23 73.2406C273.013 71.0211 272.063 69.4358 271.272 66.8992C270.48 64.3626 272.222 58.1797 270.48 58.1797C268.739 58.1797 266.206 61.509 266.364 64.0455C266.522 66.5821 266.364 69.1187 265.731 69.7528C265.097 70.387 258.131 65.7894 256.548 64.2041C254.965 62.6187 250.057 58.8138 248.948 60.2407C247.84 61.6675 248.315 62.7772 250.532 64.5211C252.748 66.265 258.131 69.9114 259.239 71.1797C260.189 72.6065 259.239 72.2894 256.706 71.0211C254.173 69.5943 254.331 72.1309 254.965 74.1919C255.598 76.0943 253.223 76.4114 254.806 78.4723C256.389 80.6919 254.965 79.8992 256.706 81.9601C258.448 84.1797 259.081 85.2894 262.406 86.0821C265.731 86.8748 269.53 89.0943 271.272 90.8382C273.013 92.5821 279.505 89.887 279.505 89.887L279.188 81.326Z" fill="#FFC8AF"/>
<path d="M121.34 135.707C121.34 135.707 128.464 137.292 129.731 143.951C131.156 150.609 124.823 155.841 127.989 161.073C131.156 166.305 135.272 165.195 136.38 173.597C137.489 182 123.873 196.426 113.898 182C103.924 167.573 121.34 135.707 121.34 135.707Z" fill="#4D2C63"/>
<path d="M80.4922 197.539C80.4922 197.539 67.3514 201.026 63.8683 208.953C60.3851 216.88 61.1768 276.648 79.7006 301.38C98.0661 325.953 132.422 329.599 140.338 325.953C148.255 322.465 194.01 299.477 197.493 288.063C200.976 276.648 183.402 267.77 173.745 263.49C164.087 259.051 157.912 252.868 152.688 237.014C147.463 221.161 144.771 193.892 138.597 189.453C132.422 185.173 117.382 178.197 80.4922 197.539Z" fill="#FBD15B"/>
<path d="M144.772 208.478C144.772 208.478 140.339 182.319 137.33 179.307C133.847 175.819 127.989 172.966 122.131 177.246C116.273 181.527 115.64 188.027 117.223 192.149C118.807 196.112 133.531 229.405 137.964 233.21C142.397 237.014 148.413 235.588 149.68 228.453C150.788 221.319 144.772 208.478 144.772 208.478Z" fill="#FA5CA0"/>
<path d="M135.272 230.038C135.272 230.038 140.18 237.806 148.255 235.269C156.329 232.733 167.57 195.16 170.262 192.623C170.262 192.623 171.528 183.587 163.137 183.27C163.137 183.27 143.822 214.977 141.13 218.465C138.439 221.952 134.322 225.757 135.272 230.038Z" fill="#FFC8AF"/>
<path d="M158.229 344.658L149.996 339.902L118.965 344.976L127.198 349.89L158.229 344.658Z" fill="#00265A"/>
<path d="M127.198 349.891L118.965 344.977L113.107 348.464L121.498 353.22L127.198 349.891Z" fill="#002F71"/>
<path d="M90.7831 383.658L82.5503 378.902V382.39L90.9414 387.146L90.7831 383.658Z" fill="#002A65"/>
<path d="M121.498 353.221L113.107 348.465L82.5503 378.904L90.7831 383.66L121.498 353.221Z" fill="#00357F"/>
<path d="M121.498 353.221L90.7832 383.66L90.9415 387.148L121.498 360.831L127.356 357.502L158.229 348.306V344.66L127.198 349.892L121.498 353.221Z" fill="#001E46"/>
<path d="M81.2837 344.658L89.5165 339.902L120.548 344.976L112.157 349.89L81.2837 344.658Z" fill="#00265A"/>
<path d="M112.157 349.891L120.548 344.977L126.248 348.464L118.015 353.22L112.157 349.891Z" fill="#002F71"/>
<path d="M148.571 383.658L156.962 378.902L156.804 382.39L148.571 387.146V383.658Z" fill="#002A65"/>
<path d="M118.015 353.221L126.247 348.465L156.962 378.904L148.571 383.66L118.015 353.221Z" fill="#00357F"/>
<path d="M118.015 353.221L148.571 383.66V387.148L118.015 360.831L112.157 357.502L81.2837 348.306V344.66L112.157 349.892L118.015 353.221Z" fill="#001E46"/>
<path d="M81.2837 344.658L89.5165 339.902L120.548 344.976L112.157 349.89L81.2837 344.658Z" fill="#00265A"/>
<path d="M112.157 349.891L120.548 344.977L126.248 348.464L118.015 353.22L112.157 349.891Z" fill="#002F71"/>
<path d="M148.571 383.658L156.962 378.902L156.804 382.39L148.571 387.146V383.658Z" fill="#002A65"/>
<path d="M118.015 353.221L126.247 348.465L156.962 378.904L148.571 383.66L118.015 353.221Z" fill="#00357F"/>
<path d="M118.015 353.221L148.571 383.66V387.148L118.015 360.831L112.157 357.502L81.2837 348.306V344.66L112.157 349.892L118.015 353.221Z" fill="#001E46"/>
<path d="M125.456 313.902L125.298 348.78L119.123 352.268L119.281 317.549L125.456 313.902Z" fill="#0046A6"/>
<path d="M119.282 317.549L119.123 352.268L113.107 348.78V313.902L119.282 317.549Z" fill="#003783"/>
<path d="M125.456 313.902L119.282 317.548L113.107 313.902L119.282 310.414L125.456 313.902Z" fill="#4DA5DC"/>
<path d="M209.051 386.352C209.051 386.352 216.809 394.913 223.3 397.766C229.791 403.791 235.649 408.23 234.858 412.986C233.274 417.742 218.709 414.095 212.692 410.608C206.676 407.278 201.768 401.254 201.768 401.254L202.718 404.108C203.035 404.9 202.243 405.535 201.61 405.217C200.818 404.9 199.71 404.266 199.235 403.474C197.968 401.571 196.543 395.547 197.968 392.693C199.235 389.681 209.051 386.352 209.051 386.352Z" fill="#382747"/>
<path d="M156.804 318.975C156.804 318.975 156.804 332.609 166.937 344.024C177.07 355.439 191.002 375.89 195.752 388.89C200.501 397.451 204.776 400.304 211.901 394.439C214.751 393.17 209.209 381.122 200.818 364.792C192.585 348.78 178.811 314.378 175.011 310.573C171.212 306.609 158.071 302.012 156.804 318.975Z" fill="#FFC8AF"/>
<path d="M210.476 385.559C210.476 385.559 213.009 391.425 220.134 396.815C227.258 402.047 218.234 407.596 213.326 406.01C208.418 404.425 199.552 397.925 198.76 395.071C197.81 392.059 199.552 378.425 210.476 385.559Z" fill="#FFC8AF"/>
<path d="M227.891 365.902C227.891 365.902 235.649 374.463 242.14 377.317C248.632 383.341 254.49 387.78 253.698 392.536C252.115 397.293 237.549 393.646 231.533 390.158C225.516 386.829 220.608 380.805 220.608 380.805L221.558 383.658C221.875 384.451 221.083 385.085 220.45 384.768C219.658 384.451 218.55 383.817 218.075 383.024C216.809 381.122 215.384 375.097 216.809 372.244C218.075 369.39 227.891 365.902 227.891 365.902Z" fill="#382747"/>
<path d="M175.645 298.524C175.645 298.524 175.645 312.158 185.777 323.573C195.91 334.987 209.842 355.439 214.592 368.439C219.342 377 223.617 379.853 230.741 373.987C233.591 372.719 228.05 360.67 219.658 344.341C211.426 328.329 197.651 293.926 193.852 290.122C190.052 286.317 176.911 281.561 175.645 298.524Z" fill="#FFC8AF"/>
<path d="M229.316 365.269C229.316 365.269 231.849 371.135 238.974 376.525C246.099 381.757 237.074 387.306 232.166 385.72C227.258 384.135 218.392 377.635 217.6 374.781C216.65 371.769 218.392 357.977 229.316 365.269Z" fill="#FFC8AF"/>
<path d="M100.599 262.697C100.599 262.697 95.8495 284.734 106.457 298.843C117.065 312.953 148.73 321.673 150.313 323.892C151.896 326.27 155.379 330.234 159.337 330.234C163.295 330.234 193.852 315.648 197.81 300.429C196.701 289.807 193.06 286.636 188.785 283.148C184.511 279.661 156.646 266.661 155.062 264.283C153.479 261.905 152.688 257.148 152.688 257.148L100.599 262.697Z" fill="#5155D4"/>
<path d="M96.7994 182.637C96.7994 182.637 81.2837 190.089 78.2756 195.637C75.2674 201.186 75.2674 214.662 86.825 226.869C93.9496 236.857 98.066 264.442 102.024 271.259C106.932 277.759 130.522 279.186 143.188 274.271C155.854 269.357 155.696 256.991 153.163 252.869C145.721 241.137 148.729 230.357 148.888 224.65C149.204 218.942 153.637 212.442 150.946 204.515C148.254 196.589 135.589 191.04 133.53 188.662C131.472 186.125 125.614 176.93 118.965 176.772C112.157 176.296 96.7994 182.637 96.7994 182.637Z" fill="#FA5CA0"/>
<path opacity="0.76" d="M153.004 252.866C145.563 241.135 148.571 230.354 148.73 224.647C148.888 220.683 151.104 216.403 151.579 211.488C143.03 219.574 130.364 228.452 116.59 228.927C100.599 229.403 86.5086 220.366 78.4341 213.708C80.0173 217.988 82.7088 222.586 86.8252 226.866C93.9498 236.854 98.0662 264.439 102.024 271.257C106.932 277.757 130.522 279.183 143.188 274.269C155.854 269.196 155.696 256.988 153.004 252.866Z" fill="#E7318B"/>
<path d="M150.313 247.319C148.254 242.087 148.413 237.173 148.571 233.051C118.648 251.282 94.1079 241.77 94.1079 241.77C94.1079 244.307 95.0579 246.843 95.8495 249.38L95.6911 249.539C96.0078 250.807 96.1661 251.917 96.4828 253.185V253.343C96.6411 253.819 96.7994 254.295 96.7994 254.929C96.9577 255.563 97.1161 256.197 97.2744 256.831V256.99C126.406 262.697 144.296 251.917 150.313 247.319Z" fill="#4D2C63"/>
<path d="M170.578 159.171C171.212 159.012 171.845 159.012 172.478 159.329C171.053 158.536 170.262 158.061 168.678 159.012C168.045 159.329 167.57 159.646 166.937 159.963C163.612 161.866 160.287 163.768 156.804 165.829C149.046 170.268 141.289 174.707 133.531 179.305C131.314 180.573 129.256 182.158 128.464 184.854C127.673 187.39 128.148 190.719 128.148 193.256C128.148 198.012 128.148 202.927 128.148 207.683C128.148 209.11 128.148 210.695 128.148 212.122C128.148 214.024 128.781 214.817 130.364 215.768C129.098 214.975 129.256 213.232 129.256 211.963C129.256 210.061 129.256 208.158 129.256 206.256C129.256 201.341 129.256 196.427 129.256 191.671C129.256 188.183 128.939 184.854 131.631 182.158C133.214 180.573 135.747 179.463 137.647 178.354C144.297 174.549 150.946 170.585 157.596 166.78C160.446 165.036 163.454 163.451 166.304 161.707C167.57 160.597 168.995 159.646 170.578 159.171Z" fill="#E2EDFF"/>
<path d="M169.628 159.486C171.687 158.376 173.27 159.169 173.428 161.547V187.547C173.428 189.925 171.845 192.779 169.787 193.888L133.056 215.132C130.997 216.242 129.414 215.291 129.256 213.071V187.071C129.256 184.693 130.839 181.84 132.897 180.73L169.628 159.486Z" fill="#7BAEFF"/>
<path d="M99.3326 227.345C99.3326 227.345 94.8996 201.187 91.8914 198.174C88.4083 194.687 82.5504 191.833 76.6924 196.113C70.8344 200.394 70.2011 206.894 71.7844 211.016C73.3676 214.979 88.0917 248.272 92.5247 252.077C96.9578 255.882 102.974 254.455 104.241 247.321C105.349 240.187 99.3326 227.345 99.3326 227.345Z" fill="#FA5CA0"/>
<path d="M89.8334 248.905C89.8334 248.905 94.7414 256.673 102.816 254.137C110.89 251.6 122.131 214.027 124.823 211.49C124.823 211.49 126.089 202.454 117.698 202.137C117.698 202.137 98.3828 233.844 95.6913 237.332C92.8415 240.82 88.8834 244.466 89.8334 248.905Z" fill="#FFC8AF"/>
<path d="M117.381 203.564C117.381 203.564 118.648 195.637 122.131 193.417C125.456 191.039 133.372 188.978 135.43 191.515C137.488 194.21 136.222 204.673 134.164 205.625C132.105 206.734 127.039 208.32 127.039 208.32C127.039 208.32 125.139 212.283 122.923 212.283C120.548 212.125 117.381 203.564 117.381 203.564Z" fill="#FFC8AF"/>
<path d="M165.037 178.831C164.087 179.307 163.454 180.575 163.454 181.685C163.454 182.795 164.245 183.112 165.037 182.636C165.987 182.16 166.62 180.892 166.62 179.782C166.62 178.673 165.828 178.356 165.037 178.831Z" fill="#EAEEEE"/>
<path d="M114.056 178.04C114.056 178.04 114.056 178.357 114.056 178.674C114.373 180.259 115.323 184.381 115.64 186.125C115.798 187.71 114.056 190.722 109.623 190.881C105.19 191.039 97.4324 189.454 94.7409 184.222C94.8993 183.271 94.1077 173.442 93.1577 168.527L114.056 178.04Z" fill="#E16B40"/>
<path d="M123.714 145.381C120.548 131.747 109.307 124.613 97.1159 128.101C97.1159 128.101 83.975 130.162 78.592 142.052C73.209 154.101 82.3918 163.454 88.2498 169.32C90.7829 171.698 92.5245 173.601 93.7911 174.869C94.2661 175.345 94.5827 175.82 95.0577 176.137C95.216 176.296 95.216 176.296 95.216 176.296C99.1741 179.942 103.607 181.845 106.932 182.637C112.315 183.906 118.648 182.796 121.814 178.991C125.139 175.028 126.881 159.015 123.714 145.381Z" fill="#FFC8AF"/>
<path d="M121.023 132.538C121.023 132.538 127.039 134.441 122.606 143.477C118.173 152.672 110.89 149.819 110.573 157.27C110.257 164.88 109.307 168.05 102.657 171.697C96.166 175.343 103.924 178.989 103.924 191.514C103.924 204.038 91.5746 205.94 86.35 202.294C81.1253 198.648 85.5583 195.001 78.7504 188.184C71.9425 181.367 64.343 178.197 69.5677 168.843C74.7924 159.489 75.109 159.965 74.3174 147.441C73.5258 134.916 79.2254 126.989 90.4664 123.66C102.024 120.331 113.423 120.648 121.023 132.538Z" fill="#4D2C63"/>
<path d="M316.077 471.171C315.127 481.001 305.944 487.659 297.553 491.305C288.371 495.269 278.396 496.854 268.58 496.696C258.447 496.537 248.156 494.635 239.132 490.196C231.216 486.232 222.825 479.257 222.825 469.586C222.825 476.562 223.3 482.427 228.366 487.818C234.857 494.952 244.673 498.598 253.856 500.659C271.905 504.305 296.287 502.561 309.903 488.769C315.444 483.22 316.077 477.354 316.235 469.903C316.077 470.22 316.077 470.696 316.077 471.171Z" fill="#ADCDFC"/>
<path d="M302.303 450.402C320.669 461.024 320.668 478.146 302.461 488.768C284.254 499.39 254.648 499.39 236.44 488.768C218.075 478.146 218.075 461.024 236.282 450.402C254.489 439.939 284.096 439.939 302.303 450.402Z" fill="#E2EDFF"/>
<path d="M277.763 429L277.605 469.902L270.48 474.024L270.638 433.28L277.763 429Z" fill="#C7D8F2"/>
<path d="M270.638 433.28L270.48 474.024L263.355 469.902L263.514 429L270.638 433.28Z" fill="#7BAEFF"/>
<path d="M277.762 429.001L270.638 433.281L263.513 429.001L270.638 424.879L277.762 429.001Z" fill="#4DA5DC"/>
<path d="M444.319 318.815C444.161 350.997 419.146 375.729 393.339 391.107C363.574 408.863 328.585 417.424 294.387 420.753C259.714 424.083 224.091 421.388 190.368 412.192C173.744 407.753 157.595 401.57 142.555 393.168C129.097 385.717 116.431 376.522 106.299 364.79C94.8994 351.79 87.1416 335.461 87.1416 317.863C87.1416 325.949 86.8249 334.193 88.4082 342.119C90.9413 354.168 97.1159 365.266 104.874 374.778C114.69 386.51 127.039 395.863 140.18 403.473C155.062 412.034 171.211 418.375 187.677 423.131C220.766 432.327 255.439 435.339 289.637 432.802C323.677 430.266 358.191 422.022 388.273 405.692C414.238 391.583 440.519 368.436 443.844 337.363C444.636 330.863 444.319 324.839 444.319 318.815Z" fill="#A8B0F4"/>
<path d="M391.598 244.937C461.577 285.364 462.051 350.998 392.389 391.583C322.885 432.01 209.684 432.01 139.705 391.583C69.7262 351.157 69.4096 285.523 138.914 244.937C208.576 204.51 321.619 204.51 391.598 244.937Z" fill="#878CF0"/>
<path d="M362.308 302.486C362.308 302.486 359.774 299.474 357.4 296.462C355.025 293.291 352.65 290.913 349.958 292.023C347.267 293.133 347.742 295.352 347.742 295.352C347.742 295.352 347.425 297.572 346.95 300.267C346.634 302.962 347.109 307.401 351.225 308.828C355.341 310.413 359.141 310.572 359.141 310.572L362.308 302.486Z" fill="#EA9273"/>
<path d="M357.083 311.998C357.083 311.998 352.808 309.462 353.758 305.498C354.708 301.535 355.974 299.157 356.133 297.413C356.291 295.669 355.183 290.279 357.083 289.328C358.983 288.376 359.299 290.12 359.457 291.864C359.616 293.608 360.882 298.364 361.991 300.108C363.099 301.852 364.682 304.389 364.682 304.389C364.682 304.389 361.199 311.681 357.083 311.998Z" fill="#FF9F75"/>
<path d="M402.522 346.243C402.522 346.243 394.605 351.633 385.898 344.023C377.19 336.413 358.349 314.218 356.133 312.157C356.133 312.157 356.291 305.023 363.257 302.328C363.257 302.328 377.348 314.06 384.631 318.974C391.914 324.048 415.979 337.206 402.522 346.243Z" fill="white"/>
<path d="M356.766 309.145C356.133 310.888 356.133 312.157 356.133 312.157C358.349 314.218 377.19 336.413 385.898 344.023C391.439 348.937 396.822 348.462 399.83 347.51C384.156 339.425 364.524 317.864 356.766 309.145Z" fill="#C7D8F2"/>
<path d="M419.303 330.387C419.303 330.387 449.384 321.985 453.975 323.57C459.517 325.473 465.375 330.387 463.792 338.631C462.208 347.034 455.559 350.997 450.492 351.473C445.426 351.948 402.679 352.899 396.504 350.204C390.33 347.351 388.746 340.216 395.713 335.302C402.679 330.387 419.303 330.387 419.303 330.387Z" fill="white"/>
<path d="M463.793 338.789C463.793 338.314 463.951 337.997 463.951 337.68C461.101 341.485 456.193 345.606 447.485 345.924C431.495 346.558 407.746 346.558 402.68 345.606C399.355 344.972 394.289 342.594 391.281 341.167C390.331 344.814 392.389 348.46 396.505 350.363C402.68 353.216 445.427 352.106 450.494 351.631C455.56 351.155 462.209 347.192 463.793 338.789Z" fill="#C7D8F2"/>
<path d="M320.193 525.07C320.193 525.07 316.235 527.765 319.877 534.107C323.518 540.448 326.685 536.485 335.076 542.826C343.309 549.168 346.317 550.436 350.75 549.96C355.183 549.485 357.874 547.265 358.508 544.887C359.299 542.509 357.083 538.229 357.083 538.229L320.193 525.07Z" fill="#94A3C0"/>
<path d="M355.341 525.23C355.341 525.23 357.082 533.474 358.032 539.815C358.349 542.669 354.391 546.791 348.691 546.473C343.15 546.156 339.984 544.571 337.925 542.034C336.025 539.656 323.835 534.9 321.618 532.839C319.401 530.937 318.927 525.071 319.876 523.486C320.826 522.059 324.468 519.522 328.426 521.266C332.384 523.01 335.55 526.181 343.308 526.656C351.224 527.449 355.341 525.23 355.341 525.23Z" fill="#382747"/>
<path d="M358.982 503.828C358.982 503.828 355.024 506.523 358.666 512.865C362.307 519.206 365.474 515.243 373.865 521.584C382.098 527.926 385.106 529.194 389.539 528.718C393.972 528.243 396.663 526.023 397.297 523.645C398.088 521.267 395.872 516.987 395.872 516.987L358.982 503.828Z" fill="#94A3C0"/>
<path d="M394.13 504.144C394.13 504.144 395.872 512.388 396.821 518.729C397.138 521.583 393.18 525.705 387.48 525.388C381.781 525.07 378.773 523.485 376.714 520.949C374.815 518.57 362.624 513.814 360.407 511.753C358.191 509.851 357.716 503.985 358.666 502.4C359.615 500.973 363.257 498.436 367.215 500.18C371.173 501.924 374.34 505.095 382.097 505.571C389.855 506.205 394.13 504.144 394.13 504.144Z" fill="#382747"/>
<path d="M363.732 436.45C365.632 452.145 373.548 493.206 374.815 507.474C374.815 507.474 378.14 512.706 387.797 511.438L392.389 509.535C394.289 508.742 395.397 506.84 395.08 504.779C394.13 496.852 391.914 477.035 392.864 465.145C394.13 450.084 390.331 441.047 390.331 441.047C390.647 436.133 391.281 419.169 381.623 414.73C381.623 414.73 357.716 410.291 363.732 436.45Z" fill="#616D7F"/>
<path d="M383.523 421.863L380.99 427.094C380.99 427.094 340.934 428.997 330.168 440.729C330.168 440.729 323.043 441.997 324.943 457.692C326.843 473.387 334.759 514.448 336.026 528.716C336.026 528.716 339.351 533.948 349.008 532.68L353.6 530.777C355.5 529.984 356.608 528.082 356.291 526.021C355.341 518.094 353.125 498.277 354.075 486.387C355.341 471.326 351.542 462.29 351.542 462.29C351.542 462.29 369.115 465.619 387.956 473.387C406.796 481.155 423.104 472.119 430.228 468.155C437.353 464.192 440.044 461.655 440.044 461.655C440.044 461.655 449.227 461.655 457.618 454.521C466.009 447.387 467.434 428.521 458.251 417.424C449.227 406.168 383.523 421.863 383.523 421.863Z" fill="#6D7B93"/>
<path d="M403.947 338.472C403.947 338.472 410.438 336.094 409.963 327.375C408.063 318.814 405.688 318.338 405.688 318.338C405.688 318.338 414.713 309.936 425.637 312.631C425.637 312.631 432.445 326.265 440.045 332.131C440.045 332.289 433.87 348.301 403.947 338.472Z" fill="#FFC8AF"/>
<path d="M425.479 330.071C425.479 330.071 400.147 338.474 393.022 350.205C385.898 361.937 387.164 374.937 392.389 393.169C397.614 411.4 387.164 427.73 389.856 437.4C392.389 447.23 410.755 456.266 437.353 451.669C463.951 447.071 466.009 436.608 467.909 430.742C469.809 424.876 462.685 396.815 469.176 373.986C475.667 351.157 462.685 335.62 457.46 331.657C452.077 328.169 441.786 322.937 425.479 330.071Z" fill="#58AFFB"/>
<path opacity="0.54" d="M457.302 331.975C452.077 328.011 441.628 322.78 425.479 330.072C425.479 330.072 400.147 338.475 393.022 350.207C391.281 353.06 390.014 355.914 389.223 359.085C399.514 345.767 414.079 339.902 423.579 362.572C432.445 383.816 409.963 446.438 390.173 426.78C389.381 430.902 388.906 434.548 389.698 437.56C392.231 447.389 410.596 456.426 437.195 451.828C463.793 447.231 465.851 436.767 467.751 430.902C469.651 425.036 462.526 396.975 469.018 374.146C475.509 351.633 462.526 335.938 457.302 331.975Z" fill="#2689FD"/>
<path d="M401.255 341.168C401.255 341.168 408.063 345.607 425.162 343.071C442.261 340.693 443.211 328.485 441.786 327.376C440.361 326.424 437.353 322.461 437.353 322.461C437.353 322.461 419.304 330.705 412.971 333.241C406.638 335.619 403.155 337.205 403.155 337.205L401.255 341.168Z" fill="white"/>
<path d="M456.035 536.17L447.802 531.414L416.771 536.487L425.162 541.402L456.035 536.17Z" fill="#00265A"/>
<path d="M425.162 541.403L416.771 536.488L411.071 539.818L419.304 544.732L425.162 541.403Z" fill="#002F71"/>
<path d="M388.748 575.17L380.356 570.414V573.902L388.748 578.658V575.17Z" fill="#002A65"/>
<path d="M419.304 544.731L411.071 539.816L380.356 570.414L388.748 575.17L419.304 544.731Z" fill="#00357F"/>
<path d="M419.304 544.733L388.748 575.172V578.66L419.304 552.343L425.162 549.013L456.035 539.66V536.172L425.162 541.404L419.304 544.733Z" fill="#001E46"/>
<path d="M379.09 536.17L387.323 531.414L418.354 536.487L409.963 541.402L379.09 536.17Z" fill="#00265A"/>
<path d="M409.963 541.403L418.354 536.488L424.054 539.818L415.821 544.732L409.963 541.403Z" fill="#002F71"/>
<path d="M446.377 575.17L454.769 570.414V573.902L446.377 578.658V575.17Z" fill="#002A65"/>
<path d="M415.821 544.731L424.054 539.816L454.768 570.414L446.377 575.17L415.821 544.731Z" fill="#00357F"/>
<path d="M415.821 544.733L446.377 575.172V578.66L415.821 552.343L409.963 549.013L379.09 539.66V536.172L409.963 541.404L415.821 544.733Z" fill="#001E46"/>
<path d="M379.09 536.17L387.323 531.414L418.354 536.487L409.963 541.402L379.09 536.17Z" fill="#00265A"/>
<path d="M409.963 541.403L418.354 536.488L424.054 539.818L415.821 544.732L409.963 541.403Z" fill="#002F71"/>
<path d="M446.377 575.17L454.769 570.414V573.902L446.377 578.658V575.17Z" fill="#002A65"/>
<path d="M415.821 544.731L424.054 539.816L454.768 570.414L446.377 575.17L415.821 544.731Z" fill="#00357F"/>
<path d="M415.821 544.733L446.377 575.172V578.66L415.821 552.343L409.963 549.013L379.09 539.66V536.172L409.963 541.404L415.821 544.733Z" fill="#001E46"/>
<path d="M423.262 505.414L423.104 540.292L417.087 543.78V509.06L423.262 505.414Z" fill="#0046A6"/>
<path d="M417.087 509.06V543.78L410.913 540.292L411.071 505.414L417.087 509.06Z" fill="#003783"/>
<path d="M423.261 505.414L417.087 509.06L411.07 505.414L417.087 501.926L423.261 505.414Z" fill="#4DA5DC"/>
<path d="M502.74 369.39C502.582 363.682 496.882 359.878 491.499 361.78C468.226 370.024 414.712 389.365 411.229 396.341C407.904 402.841 397.297 439.463 392.23 457.853C390.647 463.085 384.631 465.621 379.881 462.768L347.583 443.743C341.409 440.097 333.809 445.329 335.076 452.304L340.3 483.536C340.775 486.073 342.2 488.134 344.417 489.402L379.09 509.377C398.405 520.475 421.995 521.109 441.944 511.121L468.542 497.804C491.816 486.073 506.223 461.816 505.273 435.817L502.74 369.39Z" fill="#FBD15B"/>
<path d="M369.115 368.594C369.115 368.594 394.605 350.68 399.514 350.68C405.371 350.68 412.496 353.216 413.763 361.777C415.029 370.18 410.121 376.204 405.53 378.265C400.938 380.326 360.883 395.545 354.075 394.911C347.267 394.277 343.467 388.094 348.375 381.119C353.441 373.985 369.115 368.594 369.115 368.594Z" fill="white"/>
<path d="M413.763 361.618C413.763 361.142 413.604 360.825 413.604 360.508C412.179 364.947 408.855 370.496 400.78 373.666C385.898 379.532 363.574 387.459 358.508 388.252C355.025 388.727 349.483 388.252 346.317 387.776C346.634 391.581 349.8 394.276 354.233 394.752C361.041 395.386 401.097 380.166 405.688 378.105C410.121 376.044 415.029 370.02 413.763 361.618Z" fill="#C7D8F2"/>
<path d="M300.561 377.632C300.561 377.632 294.228 376.522 292.012 375.096C289.637 373.669 286.471 370.34 285.362 370.34C284.254 370.34 280.613 371.449 279.821 371.132C279.029 370.815 279.821 369.388 280.454 369.23C281.088 369.071 285.204 368.596 284.571 368.437C283.937 368.279 279.663 369.388 279.346 368.437C279.029 367.486 283.621 362.096 288.529 360.986C293.437 359.876 294.228 361.779 296.603 362.73C298.978 363.681 304.678 367.962 304.678 367.962C304.678 367.962 304.203 376.047 300.561 377.632Z" fill="#FFC8AF"/>
<path d="M361.357 387.778C361.357 387.778 356.449 396.974 344.1 393.961C331.751 390.949 302.144 378.9 298.978 378.108C298.978 378.108 295.495 370.974 300.878 364.949C300.878 364.949 320.51 369.23 330.009 370.339C339.825 371.449 369.907 372.083 361.357 387.778Z" fill="white"/>
<path d="M298.187 374.938C298.503 376.84 299.136 378.108 299.136 378.108C302.303 378.901 331.909 391.108 344.259 393.962C352.175 395.864 357.083 392.694 359.616 390.316C339.984 390.474 310.061 379.535 298.187 374.938Z" fill="#C7D8F2"/>
<path d="M396.505 276.486C396.505 276.486 391.281 280.132 390.489 286.474C389.697 292.815 393.814 296.145 392.072 300.108C390.172 304.071 389.381 308.193 390.489 311.84C391.597 315.486 393.18 324.364 395.397 326.742C397.772 329.12 407.113 326.742 414.396 324.681C421.679 322.62 428.17 316.754 430.861 311.047C433.553 305.34 437.194 295.035 434.978 286.474C432.92 277.913 424.054 271.096 418.037 270.462C412.179 269.986 404.58 270.145 396.505 276.486Z" fill="#FFC8AF"/>
<path d="M392.547 278.071C392.547 278.071 386.848 282.827 389.697 289.644C391.597 291.705 396.822 294.4 398.563 298.046C400.463 301.693 395.714 306.449 399.355 310.412C402.997 314.376 406.48 315.961 407.43 320.876C408.538 325.79 415.346 324.998 424.212 322.461C427.537 320.876 429.911 314.851 429.911 314.851C429.911 314.851 435.928 303.595 437.036 296.461C438.144 289.327 436.244 286.315 434.186 286.315C432.128 286.315 423.262 293.449 416.137 291.071C409.013 288.534 396.664 276.961 392.547 278.071Z" fill="#93513F"/>
<path d="M392.547 278.071C392.547 278.071 392.864 271.73 399.672 267.291C406.48 262.852 422.47 265.706 426.587 267.767C429.753 269.828 426.903 270.462 426.903 270.462C426.903 270.462 432.445 272.84 435.453 276.486C438.619 280.132 439.569 289.01 437.511 293.449C435.453 297.889 423.895 300.584 417.721 299.157C411.388 297.888 391.756 289.01 392.547 278.071Z" fill="#A55D46"/>
<path d="M400.305 307.399C400.305 307.399 401.413 303.119 403.946 305.497C406.479 307.875 405.055 313.741 403.313 314.375C401.73 314.85 399.355 311.68 400.305 307.399Z" fill="#FFC8AF"/>
<path d="M358.507 242.559C354.549 244.937 351.225 250.486 351.225 255.083V269.669C351.225 274.266 354.549 276.169 358.507 273.791L414.237 241.291L417.562 246.84L420.729 237.486L440.519 226.388C444.477 224.01 447.802 218.462 447.802 213.864V199.279C447.802 194.681 444.477 192.779 440.519 195.157L358.507 242.559Z" fill="#FF7785"/>
<path d="M244.99 325.158L306.42 360.987L349.642 335.939L288.212 300.109L244.99 325.158Z" fill="white"/>
<path d="M297.237 316.281L287.579 321.988L275.388 318.342C278.871 314.378 287.104 312.793 293.912 314.854C295.02 315.171 296.129 315.647 297.237 316.281Z" fill="#E2EDFF"/>
<path d="M299.453 317.074C305.945 320.879 305.945 326.903 299.453 330.708C292.962 334.513 282.513 334.513 276.021 330.708C270.797 327.696 269.53 323.257 272.855 319.452L287.737 323.891L299.453 317.074Z" fill="#16C5DC"/>
<path d="M372.123 335.781C373.39 336.415 373.39 337.525 372.123 338.317L336.976 358.768C335.709 359.403 333.809 359.403 332.701 358.768L308.161 344.659C306.894 344.025 306.894 342.915 308.161 342.122L343.309 321.671C344.417 321.037 346.475 321.037 347.583 321.671L372.123 335.781Z" fill="#F2F8FD"/>
<path d="M373.073 337.051C373.073 337.209 373.073 337.209 373.073 337.051C373.073 337.209 373.073 337.209 373.073 337.209C373.073 337.209 373.073 337.209 373.073 337.368C373.073 337.368 373.073 337.368 373.073 337.526C373.073 337.526 373.073 337.526 373.073 337.685L372.915 337.843C372.915 337.843 372.915 337.843 372.757 337.843C372.757 337.843 372.757 337.843 372.598 337.843C372.598 337.843 372.598 337.843 372.44 337.843C372.44 337.843 372.44 337.843 372.282 337.843L337.134 358.295C336.976 358.295 336.817 358.453 336.659 358.453C336.659 358.453 336.659 358.453 336.501 358.453C336.342 358.453 336.342 358.453 336.184 358.612C336.026 358.612 336.026 358.612 335.867 358.612C335.709 358.612 335.551 358.612 335.551 358.612C335.551 358.612 335.551 358.612 335.392 358.612C335.234 358.612 335.076 358.612 334.917 358.612C334.917 358.612 334.917 358.612 334.759 358.612C334.601 358.612 334.442 358.612 334.284 358.612C334.126 358.612 333.967 358.612 333.809 358.453C333.809 358.453 333.809 358.453 333.651 358.453C333.493 358.453 333.334 358.295 333.176 358.295C333.018 358.295 332.859 358.136 332.701 358.136L308.161 344.026C307.686 343.709 307.369 343.392 307.369 343.075C307.369 342.917 307.369 342.917 307.369 342.758V344.185V344.343C307.369 344.819 307.686 345.136 308.319 345.453L332.859 359.563C333.018 359.721 333.176 359.721 333.334 359.721C333.492 359.721 333.493 359.721 333.651 359.88H333.809C333.809 359.88 333.809 359.88 333.967 359.88C333.967 359.88 333.967 359.88 334.126 359.88C334.284 359.88 334.284 359.88 334.442 359.88C334.442 359.88 334.442 359.88 334.601 359.88C334.601 359.88 334.601 359.88 334.759 359.88C334.917 359.88 334.917 359.88 335.076 359.88C335.076 359.88 335.076 359.88 335.234 359.88C335.234 359.88 335.234 359.88 335.392 359.88H335.551C335.709 359.88 335.709 359.88 335.867 359.88C335.867 359.88 335.867 359.88 336.026 359.88C336.184 359.88 336.184 359.88 336.342 359.88C336.342 359.88 336.342 359.88 336.501 359.88C336.659 359.88 336.659 359.88 336.817 359.88H336.976H337.134H337.292C337.451 359.88 337.609 359.721 337.767 359.721L372.915 339.27C372.915 339.27 372.915 339.27 373.073 339.27C373.073 339.27 373.073 339.27 373.232 339.27C373.232 339.27 373.232 339.27 373.39 339.27L373.548 339.112C373.548 339.112 373.548 339.112 373.548 338.953C373.548 338.953 373.548 338.953 373.548 338.795C373.548 338.795 373.548 338.795 373.548 338.636C373.548 338.636 373.548 338.636 373.548 338.478L373.073 337.051Z" fill="#7BAEFF"/>
<path d="M368.482 336.257C368.798 336.416 368.798 336.891 368.482 337.05L335.076 356.391C334.759 356.55 334.126 356.55 333.651 356.391L311.644 343.55C311.327 343.391 311.327 342.916 311.644 342.757L345.05 323.416C345.367 323.257 346 323.257 346.475 323.416L368.482 336.257Z" fill="#7CCCFF"/>
<path d="M229.633 267.926L202.084 251.914V268.719L229.791 284.731L229.633 267.926Z" fill="#CE7C56"/>
<path d="M256.389 252.55L228.683 236.379L202.084 251.915L229.633 267.928L256.389 252.55Z" fill="#FBD15B"/>
<path d="M229.633 267.929L229.791 284.734L256.389 269.356V252.551L229.633 267.929Z" fill="#E2A029"/>
<path d="M196.86 269.829L169.312 253.816V287.585L197.018 303.755L196.86 269.829Z" fill="#2670D4"/>
<path d="M223.616 254.452L195.91 238.281L169.312 253.818L196.86 269.83L223.616 254.452Z" fill="#58AFFB"/>
<path d="M196.86 269.831L197.018 303.758L223.617 288.221V254.453L196.86 269.831Z" fill="#2689FD"/>
<path d="M164.245 269.036L136.539 253.023L136.697 306.45L164.403 322.621L164.245 269.036Z" fill="#E7318B"/>
<path d="M190.843 253.659L163.295 237.488L136.539 253.025L164.245 269.037L190.843 253.659Z" fill="#FF7785"/>
<path d="M164.245 269.038L164.403 322.623L191.002 307.087L190.843 253.66L164.245 269.038Z" fill="#FA5187"/>
<path d="M243.723 341.329C243.723 341.329 243.723 341.487 243.723 341.329C243.565 341.646 243.565 341.804 243.407 341.963C243.407 341.963 243.407 341.963 243.407 342.121C243.248 342.28 243.09 342.439 242.932 342.597C242.773 342.756 242.615 342.756 242.457 342.914C242.298 343.073 242.298 343.073 242.14 343.231L187.043 375.256C186.727 375.414 186.252 375.573 185.935 375.731C185.777 375.731 185.619 375.89 185.46 375.89C185.302 375.89 185.144 376.048 184.827 376.048C184.669 376.048 184.352 376.207 184.035 376.207L183.877 375.414C183.56 375.414 183.244 374.621 182.927 374.621H182.769C182.452 374.621 182.135 375.414 181.819 375.414L181.66 375.89C181.344 375.89 181.027 376.048 180.71 375.89H180.552C180.236 375.89 179.919 375.731 179.761 375.731H179.602C179.286 375.573 178.969 375.414 178.652 375.256L143.188 354.804C142.08 354.17 141.446 353.219 141.446 352.426V358.768C141.446 359.719 142.08 360.512 143.188 361.146L178.652 381.597C178.969 381.756 179.286 381.914 179.444 382.073H178.494C178.652 382.073 178.019 382.231 178.019 382.231C179.602 382.231 179.286 382.231 179.444 382.231H180.077C180.077 382.231 180.394 382.231 180.552 382.231C180.71 382.231 181.027 382.231 181.344 382.39C181.344 382.39 181.502 382.39 181.66 382.39H182.294H182.927C182.927 382.39 182.452 382.231 182.61 382.231H182.769H182.927C183.085 382.231 183.085 382.231 183.244 382.231C183.402 382.231 183.719 382.231 183.877 382.231H184.035C184.194 382.231 184.352 382.231 184.51 382.231H184.669C184.827 382.231 185.144 382.073 185.302 382.073C185.46 382.073 185.46 382.073 185.618 382.073H185.777C186.252 381.914 186.568 381.756 186.885 381.597L241.982 349.573C242.14 349.573 242.14 349.414 242.298 349.414C242.457 349.256 242.615 349.256 242.773 349.097C242.932 348.939 243.09 348.78 243.09 348.621C243.09 348.621 243.09 348.621 243.09 348.463C243.09 348.463 243.09 348.463 243.09 348.304L243.248 348.146C243.248 347.987 243.407 347.987 243.407 347.829L243.09 347.67C243.09 347.512 242.773 347.512 242.773 347.353L243.248 341.012C243.407 341.012 243.723 341.17 243.723 341.329Z" fill="#16C5DC"/>
<path d="M241.982 338.318C244.357 339.745 244.357 341.806 241.982 343.233L186.885 375.257C184.51 376.684 180.869 376.684 178.494 375.257L143.03 354.806C140.655 353.538 140.655 351.318 143.03 349.891L198.126 317.867C200.501 316.44 204.142 316.44 206.517 317.867L241.982 338.318Z" fill="white"/>
<path d="M195.118 334.512V341.329L191.318 344.658H187.835V337.048L195.118 334.512Z" fill="#FA5187"/>
<path d="M195.118 340.695V350.366L188.626 354.171V344.183L195.118 340.695Z" fill="#BB4F23"/>
<path d="M187.202 337.524C186.727 337.365 186.41 337.207 185.935 337.048C185.619 336.89 185.302 336.89 184.827 336.731C184.51 336.731 184.194 336.573 183.877 336.573C183.561 336.573 183.244 336.414 182.927 336.414C182.611 336.414 182.294 336.414 181.977 336.414C181.661 336.414 181.344 336.414 180.869 336.414C180.552 336.414 180.077 336.414 179.761 336.414C179.286 336.414 178.811 336.573 178.494 336.573C177.861 336.731 177.228 336.89 176.594 337.048C175.803 337.365 175.011 337.682 174.378 337.999H174.219C173.744 338.316 173.27 338.634 172.953 338.951C172.636 339.109 172.478 339.426 172.32 339.585C172.161 339.743 172.003 340.06 171.845 340.219C171.686 340.377 171.686 340.536 171.528 340.853C171.528 341.012 171.37 341.17 171.37 341.487C171.37 341.646 171.37 341.804 171.37 342.121C171.37 342.121 171.37 342.121 171.37 342.28V352.426C171.37 352.426 171.37 352.426 171.37 352.268C171.37 352.109 171.37 351.951 171.37 351.634C171.37 351.475 171.528 351.316 171.528 350.999C171.528 350.841 171.686 350.682 171.845 350.365C172.003 350.207 172.161 349.89 172.32 349.731C172.478 349.573 172.795 349.256 172.953 349.097C173.27 348.78 173.744 348.463 174.219 348.146H174.378C175.011 347.67 175.803 347.353 176.594 347.195C177.228 347.036 177.861 346.877 178.494 346.719C178.969 346.719 179.286 346.56 179.761 346.56C180.077 346.56 180.552 346.56 180.869 346.56C181.186 346.56 181.502 346.56 181.977 346.56C182.294 346.56 182.611 346.56 182.927 346.56C183.244 346.56 183.561 346.56 183.877 346.719C184.194 346.719 184.51 346.877 184.827 346.877C185.144 346.877 185.619 347.036 185.935 347.195C186.41 347.353 186.727 347.512 187.202 347.67C187.677 347.829 188.31 348.146 188.627 348.463V338.316C188.152 337.999 187.677 337.841 187.202 337.524Z" fill="#E7318B"/>
<path d="M191.635 348.145V352.584C191.635 350.999 190.685 355.28 188.626 354.011V344.023C190.685 345.45 191.635 346.719 191.635 348.145Z" fill="#1E079D"/>
<path d="M191.635 348.148V352.587C191.635 351.001 190.685 355.282 188.626 354.014V343.867C190.685 345.135 191.635 346.721 191.635 348.148Z" fill="#2670D4"/>
<path d="M200.817 348.463C200.817 348.78 200.817 349.256 200.659 349.573C200.659 349.89 200.501 350.366 200.342 350.683C200.184 351 200.026 351.475 199.867 351.792C199.709 352.11 199.393 352.585 199.076 352.902C198.759 353.378 198.284 353.853 197.809 354.171C197.176 354.805 196.226 355.439 195.276 356.073C195.276 356.073 195.118 356.231 194.959 356.231V360.671C195.118 360.671 195.118 360.512 195.118 360.512C196.068 359.878 196.859 359.402 197.651 358.61C198.126 358.134 198.443 357.817 198.918 357.341C199.234 357.024 199.551 356.549 199.709 356.231C199.868 355.914 200.026 355.439 200.184 355.122C200.342 354.805 200.501 354.329 200.501 354.012C200.501 353.695 200.659 353.219 200.659 352.902V352.744V348.305C200.817 348.305 200.817 348.305 200.817 348.463Z" fill="#2689FD"/>
<path d="M195.118 340.695C202.718 345.134 202.718 351.793 195.276 356.073L188.785 352.268C192.743 349.89 192.743 346.403 188.785 344.183L195.118 340.695Z" fill="#58AFFB"/>
<path d="M195.118 353.855V360.673L188.626 356.868V355.758L195.118 353.855Z" fill="#88630A"/>
<path d="M190.843 355.758C189.735 356.075 188.468 356.392 187.202 356.709C186.41 356.868 185.618 357.026 184.669 357.026C184.035 357.026 183.244 357.185 182.452 357.185C182.135 357.185 181.66 357.185 181.344 357.185V364.002C181.66 364.002 182.135 364.002 182.452 364.002C183.244 364.002 183.877 364.002 184.669 363.843C185.46 363.685 186.41 363.685 187.202 363.526C188.468 363.368 189.577 363.051 190.843 362.575C192.426 362.099 193.851 361.465 195.118 360.673V353.855C193.851 354.648 192.426 355.282 190.843 355.758Z" fill="#E2A029"/>
<path d="M181.502 357.185V364.003L181.344 358.612L181.502 351.637V357.185Z" fill="#113C7A"/>
<path d="M195.118 353.856C191.318 356.075 186.41 357.185 181.344 357.185V351.795C184.035 351.795 186.568 351.161 188.627 350.051L195.118 353.856Z" fill="#FBD15B"/>
<path d="M180.552 353.379C179.919 353.379 179.286 353.379 178.652 353.221C178.019 353.221 177.386 353.062 176.753 353.062C176.119 352.904 175.486 352.904 174.853 352.745C174.219 352.587 173.428 352.428 172.794 352.27C172.003 352.111 171.211 351.794 170.42 351.477C169.47 351.16 168.52 350.684 167.57 350.05C163.77 347.831 161.87 344.977 161.87 341.965V352.111C161.87 354.965 163.77 358.294 167.57 360.355C168.52 360.831 169.47 361.306 170.42 361.782C171.211 362.099 172.003 362.416 172.794 362.575C173.428 362.733 174.061 362.892 174.853 363.05C175.486 363.209 176.119 363.367 176.753 363.367C177.386 363.526 178.019 363.526 178.652 363.526C179.286 363.526 179.919 363.684 180.552 363.684C180.869 363.684 181.186 363.684 181.344 363.684V353.221C181.186 353.379 180.869 353.379 180.552 353.379Z" fill="#E7318B"/>
<path d="M195.118 334.513L188.627 338.318C184.669 335.94 178.019 335.94 174.061 338.318C170.103 340.696 170.103 344.342 174.061 346.72C176.119 347.83 178.652 348.464 181.344 348.464V353.854C176.436 353.854 171.369 352.745 167.57 350.525C159.97 346.086 159.97 338.952 167.411 334.513C175.169 330.074 187.518 330.074 195.118 334.513Z" fill="#FF7785"/>
<path d="M230.741 341.646C231.216 341.963 231.216 342.439 230.741 342.756C230.266 343.073 229.316 343.073 228.841 342.756L201.451 326.902C200.976 326.585 200.976 326.11 201.451 325.792C201.926 325.475 202.876 325.475 203.351 325.792L230.741 341.646Z" fill="#D4D9DF"/>
<path d="M211.742 334.353C212.217 334.67 212.217 335.146 211.742 335.463C211.267 335.78 210.317 335.78 209.842 335.463L198.126 328.805C197.651 328.488 197.651 328.012 198.126 327.695C198.601 327.378 199.551 327.378 200.026 327.695L211.742 334.353Z" fill="#D4D9DF"/>
<path d="M215.383 339.9C215.858 340.218 215.858 340.693 215.383 341.01C214.908 341.327 213.958 341.327 213.483 341.01L195.276 330.547C194.801 330.23 194.801 329.754 195.276 329.437C195.751 329.12 196.701 329.12 197.176 329.437L215.383 339.9Z" fill="#D4D9DF"/>
<path d="M319.244 263.171V264.915C319.086 264.439 318.927 264.122 318.927 263.646V261.902C319.086 262.378 319.086 262.854 319.244 263.171Z" fill="#003783"/>
<path d="M293.437 262.061C293.437 262.219 293.437 262.219 293.437 262.378V262.537C293.437 262.695 293.437 262.695 293.437 262.854V263.012C293.437 263.171 293.279 263.171 293.279 263.329C293.279 263.488 293.121 263.488 293.121 263.646V265.39L293.279 265.232C293.279 265.232 293.279 265.232 293.279 265.073C293.279 264.915 293.437 264.915 293.437 264.756C293.437 264.756 293.437 264.756 293.437 264.597C293.437 264.439 293.437 264.439 293.437 264.28V264.122C293.437 263.963 293.437 263.963 293.437 263.805V263.646V261.902C293.437 261.902 293.437 262.061 293.437 262.061Z" fill="#0046A6"/>
<path d="M334.126 263.807C334.126 263.965 334.126 263.966 334.126 264.124V264.283V264.441V264.6C334.126 264.6 334.126 264.758 333.968 264.758C333.968 264.758 333.968 264.917 333.81 264.917L333.651 265.075C333.651 265.075 333.651 265.234 333.493 265.234C333.335 265.392 333.335 265.392 333.176 265.551L333.018 265.709L332.86 265.868C332.86 265.868 332.701 265.868 332.701 266.026C332.543 266.026 332.543 266.185 332.385 266.185C332.226 266.344 331.91 266.344 331.751 266.502C331.751 266.502 331.593 266.502 331.593 266.661C331.435 266.661 331.276 266.819 331.118 266.819H330.96C330.801 266.819 330.643 266.978 330.485 266.978H330.326C330.168 266.978 330.01 266.978 329.852 266.978C329.693 266.978 329.535 266.978 329.377 266.978C329.218 266.978 329.06 266.978 328.902 266.978C328.743 266.978 328.743 266.978 328.585 266.978C328.427 266.978 328.11 266.978 327.952 266.978H327.793C327.477 266.978 327.318 266.978 327.002 266.978C326.843 266.978 326.843 266.978 326.685 266.978C326.527 266.978 326.21 266.978 326.052 266.819V268.563H326.21C326.368 268.563 326.527 268.563 326.685 268.563C326.843 268.563 326.843 268.563 327.002 268.563C327.318 268.563 327.477 268.563 327.793 268.563H327.952C328.11 268.563 328.268 268.563 328.585 268.563C328.585 268.563 328.585 268.563 328.743 268.563C328.902 268.563 328.902 268.563 329.06 268.563C329.218 268.563 329.377 268.563 329.377 268.563H329.535C329.693 268.563 329.852 268.563 330.01 268.563C330.168 268.563 330.168 268.563 330.326 268.563H330.485H330.643C330.801 268.563 330.96 268.405 331.118 268.405H331.276C331.435 268.405 331.593 268.246 331.751 268.246C331.751 268.246 331.91 268.246 331.91 268.087C332.068 267.929 332.385 267.929 332.543 267.77L332.701 267.612C332.701 267.612 332.86 267.612 332.86 267.453L333.018 267.295L333.176 267.136C333.335 266.978 333.335 266.978 333.493 266.819C333.493 266.819 333.493 266.819 333.493 266.661L333.651 266.502C333.651 266.502 333.651 266.344 333.81 266.344C333.81 266.344 333.81 266.344 333.81 266.185V266.026C333.81 266.026 333.81 266.026 333.81 265.868C333.81 265.709 333.81 265.709 333.81 265.551C333.81 265.551 333.81 265.551 333.81 265.392V263.648C334.126 263.807 334.126 263.807 334.126 263.807Z" fill="#2689FD"/>
<path d="M286.788 266.818C286.629 266.818 286.471 266.818 286.154 266.976C285.996 266.976 285.838 266.976 285.679 266.976C285.521 266.976 285.363 266.976 285.363 266.976C285.204 266.976 284.888 266.976 284.729 266.976C284.571 266.976 284.571 266.976 284.413 266.976C284.096 266.976 283.779 266.976 283.621 266.976H283.463C283.146 266.976 282.988 266.976 282.671 266.818H282.513C282.196 266.818 282.038 266.659 281.721 266.659C281.405 266.659 281.246 266.5 280.93 266.342C280.93 266.342 280.93 266.342 280.771 266.342C280.613 266.183 280.296 266.183 280.138 266.025C279.03 265.391 278.396 264.44 278.396 263.488V265.232C278.396 266.183 279.03 267.135 280.138 267.769C280.296 267.927 280.613 267.927 280.771 268.086C280.771 268.086 280.771 268.086 280.93 268.086C281.088 268.244 281.405 268.244 281.563 268.244C281.721 268.244 281.88 268.403 282.196 268.403H282.355H282.513C282.671 268.403 282.671 268.403 282.83 268.403C282.988 268.403 283.146 268.403 283.305 268.403H283.463C283.621 268.403 283.938 268.403 284.096 268.403H284.254C284.413 268.403 284.413 268.403 284.571 268.403C284.729 268.403 284.888 268.403 284.888 268.403C285.046 268.403 285.046 268.403 285.204 268.403C285.363 268.403 285.521 268.403 285.521 268.403H285.679C285.838 268.403 285.838 268.403 285.996 268.403C286.154 268.403 286.313 268.403 286.629 268.244H286.788C286.946 268.244 287.104 268.244 287.263 268.086V266.342C287.263 266.818 286.946 266.818 286.788 266.818Z" fill="#2689FD"/>
<path d="M338.876 274.586V276.171L326.052 283.781V282.037L338.876 274.586Z" fill="#2689FD"/>
<path d="M287.421 282.196L287.263 283.94L273.963 276.171V274.586L287.421 282.196Z" fill="#2689FD"/>
<path d="M334.126 285.843V286.002C334.126 286.16 334.126 286.16 333.968 286.319V286.477C333.968 286.477 333.968 286.636 333.81 286.636C333.81 286.794 333.651 286.794 333.651 286.953C333.651 287.112 333.493 287.27 333.335 287.429C333.176 287.587 333.176 287.746 333.018 287.904C332.86 288.063 332.701 288.221 332.701 288.221C332.543 288.38 332.385 288.538 332.226 288.538C332.226 288.538 332.226 288.538 332.068 288.538C331.91 288.697 331.751 288.855 331.435 288.855C331.276 289.014 331.118 289.014 330.802 289.172C330.802 289.172 330.643 289.172 330.643 289.331C330.485 289.331 330.327 289.49 330.168 289.49C330.168 289.49 330.01 289.49 330.01 289.648C329.852 289.648 329.693 289.807 329.535 289.807C329.535 289.807 329.377 289.807 329.377 289.965C329.218 289.965 329.218 289.965 329.06 290.124C328.902 290.124 328.743 290.282 328.585 290.282C328.427 290.282 328.427 290.282 328.268 290.282C328.11 290.282 327.952 290.282 327.793 290.441C327.635 290.441 327.635 290.441 327.477 290.441C327.16 290.441 326.843 290.599 326.527 290.599C326.368 290.599 326.368 290.599 326.21 290.599C326.052 290.599 325.893 290.599 325.735 290.599C325.577 290.599 325.577 290.599 325.418 290.599C325.26 290.599 325.102 290.599 324.944 290.599C324.785 290.599 324.785 290.599 324.627 290.599C324.469 290.599 324.469 290.599 324.31 290.599C324.152 290.599 323.994 290.599 323.994 290.599C323.835 290.599 323.835 290.599 323.677 290.599C323.519 290.599 323.36 290.599 323.36 290.599C323.202 290.599 323.202 290.599 323.044 290.599C322.885 290.599 322.885 290.599 322.727 290.599C322.569 290.599 322.569 290.599 322.41 290.441C322.252 290.441 322.252 290.441 322.094 290.441C321.935 290.441 321.777 290.282 321.619 290.282C321.46 290.282 321.46 290.124 321.302 290.124H321.144C320.985 290.124 320.827 289.965 320.669 289.807C319.561 289.172 318.927 288.221 318.927 287.27V289.014C318.927 289.965 319.561 290.916 320.669 291.551C320.827 291.709 320.985 291.709 321.144 291.868H321.302C321.302 291.868 321.46 291.868 321.46 292.026H321.619C321.777 292.026 321.935 292.185 322.094 292.185H322.252C322.252 292.185 322.252 292.185 322.41 292.185C322.569 292.185 322.569 292.185 322.727 292.185H322.885C322.885 292.185 322.885 292.185 323.044 292.185C323.202 292.185 323.202 292.185 323.36 292.185C323.519 292.185 323.519 292.185 323.677 292.185C323.677 292.185 323.677 292.185 323.835 292.185C323.994 292.185 323.994 292.185 324.152 292.185H324.31H324.469C324.627 292.185 324.627 292.185 324.785 292.185H324.944H325.102C325.26 292.185 325.419 292.185 325.577 292.185H325.735C325.735 292.185 325.735 292.185 325.893 292.185C326.052 292.185 326.21 292.185 326.368 292.185H326.527C326.843 292.185 327.16 292.185 327.477 292.026C327.477 292.026 327.477 292.026 327.635 292.026H327.793C327.952 292.026 328.11 292.026 328.268 291.868C328.427 291.868 328.427 291.868 328.585 291.868C328.743 291.868 328.902 291.709 329.06 291.709H329.218H329.377C329.377 291.709 329.535 291.709 329.535 291.551C329.693 291.551 329.852 291.392 330.01 291.392C330.01 291.392 330.168 291.392 330.168 291.233C330.327 291.233 330.485 291.075 330.643 291.075C330.643 291.075 330.802 291.075 330.802 290.916C330.96 290.758 331.118 290.758 331.435 290.599H331.593C331.751 290.441 331.91 290.441 332.068 290.282C332.068 290.282 332.068 290.282 332.226 290.282C332.385 290.124 332.543 289.965 332.701 289.965L332.86 289.807C333.018 289.807 333.018 289.648 333.018 289.648C333.176 289.49 333.176 289.49 333.335 289.331C333.493 289.172 333.493 289.014 333.651 289.014C333.651 288.855 333.81 288.855 333.81 288.697V288.538V288.38C333.81 288.221 333.81 288.221 333.968 288.063V287.904C333.968 287.746 333.968 287.746 333.968 287.587V285.843C334.285 285.526 334.285 285.685 334.126 285.843Z" fill="#2689FD"/>
<path d="M299.296 278.71C299.137 278.551 298.821 278.393 298.662 278.393C298.662 278.393 298.504 278.393 298.504 278.234C298.346 278.234 298.187 278.076 298.029 278.076C297.871 278.076 297.712 277.917 297.554 277.917C297.554 277.917 297.554 277.917 297.396 277.917C297.237 277.917 297.079 277.758 296.762 277.758C296.446 277.758 296.129 277.6 295.971 277.6H295.812C295.654 277.6 295.496 277.6 295.337 277.441H295.179H295.021C294.862 277.441 294.704 277.441 294.546 277.441H294.387H294.229C294.071 277.441 293.913 277.441 293.754 277.441H293.596H293.438C293.279 277.441 293.121 277.441 293.121 277.441H292.963H292.804C292.646 277.441 292.488 277.441 292.329 277.441H292.171C292.171 277.441 292.171 277.441 292.013 277.441C291.854 277.441 291.696 277.441 291.379 277.6H291.221H291.063C290.904 277.6 290.746 277.6 290.588 277.758H290.429C290.271 277.758 290.271 277.758 290.113 277.758C289.954 277.758 289.796 277.917 289.638 277.917C289.638 277.917 289.479 277.917 289.479 278.076C289.321 278.234 289.163 278.234 288.846 278.393L288.688 278.551C288.688 278.551 288.53 278.551 288.53 278.71L288.371 278.868L288.213 279.027C288.055 279.185 288.055 279.185 287.896 279.344C287.896 279.344 287.896 279.344 287.896 279.502L287.738 279.661C287.738 279.661 287.738 279.819 287.58 279.819C287.58 279.819 287.58 279.819 287.58 279.978V280.137C287.58 280.137 287.58 280.137 287.58 280.295C287.58 280.454 287.58 280.454 287.58 280.612C287.58 280.612 287.58 280.612 287.58 280.771V282.515V282.356C287.58 282.198 287.58 282.197 287.58 282.039V281.88V281.722V281.563C287.58 281.563 287.58 281.405 287.738 281.405C287.738 281.405 287.738 281.246 287.896 281.246L288.055 281.088C288.055 281.088 288.055 280.929 288.213 280.929C288.371 280.771 288.371 280.771 288.53 280.612L288.688 280.454L288.846 280.295C288.846 280.295 289.004 280.295 289.004 280.137C289.163 280.137 289.163 279.978 289.321 279.978C289.479 279.819 289.638 279.819 289.954 279.661C289.954 279.661 290.113 279.661 290.113 279.502C290.271 279.502 290.429 279.344 290.588 279.344C290.746 279.344 290.746 279.344 290.904 279.185H291.063C291.221 279.185 291.379 279.185 291.538 279.027H291.696H291.854C292.013 279.027 292.171 279.027 292.488 278.868C292.646 278.868 292.646 278.868 292.804 278.868C292.963 278.868 293.121 278.868 293.279 278.868C293.438 278.868 293.438 278.868 293.596 278.868C293.754 278.868 293.913 278.868 293.913 278.868C294.071 278.868 294.071 278.868 294.229 278.868C294.387 278.868 294.546 278.868 294.704 278.868C294.862 278.868 294.862 278.868 295.021 278.868C295.179 278.868 295.337 278.868 295.496 278.868C295.654 278.868 295.654 278.868 295.812 278.868C295.971 278.868 296.129 278.868 296.287 279.027C296.446 279.027 296.446 279.027 296.604 279.027C296.921 279.027 297.237 279.185 297.396 279.185C297.554 279.185 297.871 279.344 298.029 279.344C298.029 279.344 298.029 279.344 298.187 279.344C298.346 279.344 298.504 279.502 298.662 279.502C298.821 279.502 298.979 279.661 299.137 279.661C299.137 279.661 299.296 279.661 299.296 279.819C299.454 279.978 299.77 279.978 299.929 280.137C301.67 281.246 302.62 282.515 302.62 283.783V282.039C301.987 281.088 301.037 279.819 299.296 278.71Z" fill="#2689FD"/>
<path d="M319.402 285.844V287.588L306.578 295.039V293.295L319.402 285.844Z" fill="#2689FD"/>
<path d="M331.434 260.002C334.601 261.904 335.076 264.599 332.384 266.184C330.801 267.136 328.268 267.453 325.893 266.977L338.875 274.428L326.051 281.88C328.426 281.562 330.959 281.721 332.542 282.672C335.234 284.258 334.759 286.953 331.592 288.855C328.426 290.758 323.676 290.916 320.985 289.489C319.402 288.538 318.927 287.111 319.56 285.684L306.577 293.294L293.278 285.526C295.811 286.001 298.503 285.843 300.244 284.733C302.936 283.148 302.461 280.453 299.295 278.55C296.128 276.648 291.378 276.489 288.687 277.916C286.945 278.867 286.47 280.453 287.42 282.038L274.121 274.27L287.579 266.502C284.887 267.136 282.196 266.819 280.296 265.867C277.604 264.282 278.079 261.587 281.246 259.684C284.412 257.782 289.162 257.623 291.853 259.05C293.753 260.16 294.07 261.745 293.12 263.331L306.577 255.562L319.56 263.014C318.927 261.587 319.402 260.16 320.985 259.209C323.36 257.941 328.109 258.258 331.434 260.002Z" fill="#58AFFB"/>
<path d="M306.578 293.293V295.037L293.279 287.428V285.684L306.578 293.293Z" fill="#2689FD"/>
<path d="M278.843 583.812C278.843 583.812 295.084 570.277 296.523 549.619C297.551 533.948 286.655 528.012 276.376 546.295C276.376 546.295 291.384 518.276 277.609 508.541C267.33 501.18 261.984 522.313 261.984 522.313C261.984 522.313 272.264 487.171 257.256 486.221C246.565 485.509 248.004 504.505 248.004 504.505C248.004 504.505 238.342 476.248 227.034 484.084L278.843 583.812Z" fill="#878CF0"/>
<path d="M226.829 484.32C226.829 484.32 212.232 490.731 231.969 515.188C231.969 515.188 217.372 504.028 211.821 514.713C206.476 525.399 238.959 537.271 238.959 537.271C238.959 537.271 221.484 532.047 219.633 545.819C217.783 559.353 252.733 563.153 252.733 563.153C252.733 563.153 238.547 563.39 236.903 572.888C235.258 582.386 266.507 592.121 278.432 583.81L226.829 484.32Z" fill="#878CF0"/>
<path d="M258.9 574.787C261.368 575.025 263.835 574.787 266.302 574.55C268.152 574.312 270.002 574.075 271.853 573.6L259.517 548.905C257.05 549.38 254.378 549.855 251.705 549.855C248.827 550.093 245.948 549.855 243.07 549.618C240.192 549.38 237.314 548.668 234.641 547.956C231.968 547.243 229.09 546.294 226.417 544.869C229.09 546.056 231.763 546.768 234.641 547.481C237.519 548.193 240.192 548.668 243.07 548.668C245.948 548.905 248.827 548.905 251.499 548.668C253.966 548.431 256.228 547.956 258.695 547.481L249.032 528.248C246.36 528.01 243.481 527.773 240.809 527.06C239.37 526.823 237.93 526.348 236.697 525.873C235.258 525.398 234.024 524.923 232.585 524.448C229.912 523.261 227.24 522.074 224.773 520.649C222.306 519.225 219.839 517.562 217.372 515.663C219.839 517.562 222.306 518.987 224.773 520.412C227.445 521.837 229.912 523.024 232.791 523.974C234.23 524.448 235.463 524.923 236.902 525.161C238.342 525.398 239.575 525.873 241.014 526.111C243.481 526.585 245.948 526.823 248.21 526.823L229.707 489.781L249.443 526.111C250.471 523.736 251.499 521.124 252.322 518.512C253.35 515.425 254.172 512.576 254.789 509.489C255.405 506.402 256.022 503.316 256.433 500.229C256.845 497.142 257.256 493.818 257.461 490.731C257.461 493.818 257.256 497.142 256.845 500.229C256.433 503.316 256.022 506.64 255.405 509.727C254.789 512.814 253.966 515.9 253.144 518.987C252.322 521.837 251.294 524.686 250.06 527.535L260.34 546.531C261.984 544.631 263.629 542.494 264.863 540.357C266.302 537.745 267.741 534.896 268.974 532.047C270.208 529.197 271.236 526.111 272.058 523.024C272.881 519.937 273.703 516.85 274.114 513.763C273.703 516.85 273.086 520.174 272.264 523.261C271.441 526.348 270.619 529.435 269.591 532.284C268.563 535.134 267.124 538.22 265.685 540.832C264.246 543.207 262.807 545.581 260.956 547.718L273.908 571.7C275.348 569.801 276.581 567.901 277.815 565.764C279.459 563.152 280.898 560.54 282.132 557.691C283.571 554.842 284.805 552.23 285.833 549.38C287.066 546.531 288.094 543.682 288.916 540.595C288.094 543.682 287.066 546.531 286.038 549.618C285.01 552.467 283.777 555.316 282.543 558.166C281.31 561.015 279.871 563.627 278.431 566.476C277.198 568.851 275.759 570.988 274.32 573.125L289.533 601.144L286.244 603.281L271.853 574.55C269.797 575.025 267.741 575.262 265.685 575.262C263.218 575.262 260.751 575.262 258.284 575.025C255.817 574.787 253.35 574.312 250.882 573.837C248.415 573.362 245.948 572.65 243.687 571.938C246.154 572.65 248.621 573.125 250.882 573.362C253.966 574.312 256.433 574.55 258.9 574.787Z" fill="#56548C"/>
<path d="M409.597 586.66C409.597 586.66 423.577 592.834 435.501 585.236C444.547 579.537 443.108 569.089 428.922 569.327C428.922 569.327 450.304 568.614 449.892 554.605C449.687 544.157 435.912 548.906 435.912 548.906C435.912 548.906 459.349 541.783 453.593 530.623C449.481 522.55 439.818 531.573 439.818 531.573C439.818 531.573 451.331 512.815 442.286 507.828L409.597 586.66Z" fill="#878CF0"/>
<path d="M442.286 507.828C442.286 507.828 432.829 499.755 427.689 524.45C427.689 524.45 427.689 509.253 419.671 509.728C411.653 510.203 418.643 538.934 418.643 538.934C418.643 538.934 414.12 524.212 406.102 528.486C397.878 532.76 410.419 559.829 410.419 559.829C410.419 559.829 404.457 549.856 398.495 552.468C392.739 555.08 400.14 581.912 409.803 587.135L442.286 507.828Z" fill="#878CF0"/>
<path d="M406.308 568.377C407.336 570.277 408.364 571.939 409.391 573.601C410.214 574.788 411.242 576.213 412.27 577.4L420.493 558.167C419.26 556.505 417.821 554.843 416.793 552.943C415.559 551.044 414.326 548.907 413.503 546.532C412.475 544.395 411.653 542.021 410.831 539.646C410.008 537.272 409.391 534.897 409.186 532.523C409.597 534.897 410.419 537.272 411.036 539.646C411.859 542.021 412.681 544.158 413.914 546.295C414.942 548.432 416.176 550.569 417.409 552.468C418.437 554.13 419.671 555.793 420.904 557.217L427.278 542.258C426.25 540.121 425.222 537.984 424.605 535.847C424.194 534.66 423.783 533.473 423.577 532.285C423.371 531.098 422.96 529.911 422.755 528.724C422.138 526.349 421.727 523.975 421.521 521.363C421.316 518.988 421.11 516.376 421.11 514.002C421.11 516.376 421.316 518.988 421.727 521.363C422.138 523.737 422.549 526.112 423.166 528.486C423.371 529.673 423.783 530.861 424.194 532.048C424.605 533.235 425.016 534.422 425.427 535.372C426.25 537.272 427.072 539.171 428.1 541.071L440.435 512.34L428.717 541.546C430.567 541.308 432.212 541.071 434.062 540.596C436.118 540.121 438.174 539.409 440.024 538.696C442.08 537.984 443.93 537.034 445.781 536.085C447.631 535.135 449.481 533.947 451.332 532.76C449.481 533.947 447.837 535.135 445.781 536.322C443.93 537.272 442.08 538.459 440.024 539.171C438.174 540.121 436.118 540.833 434.062 541.308C432.212 542.021 430.156 542.258 428.1 542.496L421.932 557.692C423.577 558.167 425.427 558.405 427.278 558.405C429.334 558.405 431.389 558.167 433.445 557.93C435.501 557.455 437.557 556.98 439.613 556.505C441.669 555.793 443.519 555.08 445.575 554.13C443.725 555.08 441.669 556.03 439.819 556.742C437.763 557.455 435.707 558.167 433.651 558.405C431.595 558.879 429.539 559.117 427.483 559.117C425.633 559.117 423.783 558.879 421.727 558.405L414.12 577.875C415.765 578.113 417.409 578.35 419.054 578.35C421.11 578.35 423.166 578.35 425.222 578.113C427.278 577.875 429.334 577.638 431.389 577.4C433.445 577.163 435.501 576.688 437.352 575.976C435.296 576.688 433.445 577.163 431.389 577.638C429.334 578.113 427.278 578.35 425.222 578.587C423.166 578.825 421.11 579.062 419.054 579.062C417.204 579.062 415.559 579.062 413.709 578.825L404.663 601.382L402.196 599.958L411.859 577.638C410.831 576.213 409.803 575.026 408.98 573.364C407.952 571.702 406.924 569.802 406.102 567.902C405.28 566.003 404.457 564.103 403.635 562.204C402.813 560.304 402.196 558.167 401.579 556.268C402.196 558.405 403.018 560.304 403.841 562.204C404.457 564.816 405.485 566.715 406.308 568.377Z" fill="#56548C"/>
<path d="M71.7163 407.855C71.7163 407.855 87.7534 401.613 92.5864 385.197C96.2894 372.725 87.8905 364.884 76.1756 376.414C76.1756 376.414 93.6518 358.304 83.84 346.078C76.59 337.09 68.3953 352.723 68.3953 352.723C68.3953 352.723 83.2379 327.473 70.8869 322.087C62.1071 318.269 59.8341 334.281 59.8341 334.281C59.8341 334.281 56.5984 308.536 45.7322 311.437L71.7163 407.855Z" fill="#878CF0"/>
<path d="M45.2794 311.558C45.2794 311.558 31.9042 312.328 44.1442 338.19C44.1442 338.19 33.8267 324.979 27.3864 331.74C21.0158 338.763 46.297 358.062 46.297 358.062C46.297 358.062 32.3765 348.614 28.4112 359.196C24.446 369.778 53.451 383.041 53.451 383.041C53.451 383.041 41.5188 379.224 38.527 386.185C35.3785 393.468 60.1013 410.676 71.5768 407.332L45.2794 311.558Z" fill="#878CF0"/>
<path d="M56.5224 394.546C58.6825 395.37 60.5464 395.993 62.6366 396.555C64.2043 396.977 65.9984 397.338 67.4962 397.499L61.4402 373.907C59.1934 373.666 56.8768 373.165 54.7167 372.341C52.3303 371.577 49.8741 370.553 47.6442 369.467C45.4144 368.382 43.1147 367.036 40.8151 365.689C38.7418 364.282 36.3723 362.674 34.4556 360.944C36.3723 362.674 38.7418 364.282 40.9716 365.367C43.2713 366.714 45.5011 367.799 47.731 368.884C50.1872 369.909 52.3473 370.733 54.9601 371.436C57.0503 371.998 59.0708 372.299 61.0912 372.6L56.4313 354.237C54.2014 353.152 51.9716 352.067 49.7417 350.981C48.6268 350.439 47.4421 349.635 46.4837 348.77C45.299 347.966 44.3406 347.102 43.3823 346.237C41.2392 344.569 39.3225 342.84 37.336 340.849C35.3494 338.859 33.5893 336.808 32.0556 334.696C33.8157 336.747 35.5758 338.798 37.5623 340.789C39.5489 342.779 41.4655 344.508 43.5388 345.915C44.4972 346.78 45.6121 347.322 46.7969 348.126C47.9118 348.669 49.0965 349.473 50.2114 350.016C52.2149 351.161 54.1486 352.046 56.3086 352.869L47.1114 317.512L57.284 352.889C58.5196 351.159 60.0514 349.629 60.9908 347.698C62.383 345.646 63.4791 343.392 64.5751 341.139C65.6711 338.886 66.6973 336.371 67.567 334.178C68.3668 331.724 69.393 329.209 69.9665 326.816C69.4628 329.471 68.663 331.925 67.8631 334.379C67.0633 336.834 66.0371 339.348 64.9411 341.602C63.845 343.855 62.749 346.108 61.4266 348.422C60.2608 350.414 58.8686 352.466 57.4066 354.257L62.8154 372.699C64.4869 371.693 66.3149 370.365 67.6901 369.157C69.4483 367.567 71.1367 365.716 72.5289 363.664C73.9211 361.612 75.3133 359.559 76.6357 357.246C77.9581 354.932 79.0541 352.679 80.1501 350.425C79.3503 352.88 78.2542 355.133 76.9319 357.447C75.8358 359.7 74.5135 362.014 73.1213 364.066C71.7291 366.118 70.0407 367.97 68.3523 369.821C66.8205 371.35 64.9925 372.678 63.1645 374.007L69.8996 397.417C71.2749 396.21 72.9463 395.203 74.2517 393.734C76.0099 392.144 77.6983 390.293 79.3867 388.442C81.0751 386.591 82.5371 384.8 83.9293 382.748C85.3215 380.695 86.7137 378.643 88.1059 376.591C87.0098 378.844 85.6177 380.897 84.2255 382.949C82.8333 385.001 81.4411 387.053 79.7527 388.905C78.2907 390.695 76.6023 392.547 74.9139 394.398C73.3821 395.927 72.0068 397.135 70.4052 398.402L78.1874 425.735L75.0181 426.581L67.9151 399.067C66.121 398.706 64.3269 398.345 62.4631 397.722C60.3728 397.16 58.2128 396.336 56.2093 395.19C54.2756 394.306 52.0458 393.221 50.2687 392.015C48.2652 390.869 46.2617 389.723 44.4148 388.256C46.1919 389.462 48.1954 390.607 50.1989 391.753C52.3589 392.577 54.5888 393.662 56.5224 394.546Z" fill="#56548C"/>
<path d="M92.0769 440.512C92.0769 440.512 105.473 446.178 116.198 439.114C124.259 433.881 122.425 424.287 109.136 424.473C109.136 424.473 129.112 423.902 128.025 410.747C127.167 401.173 114.769 405.604 114.769 405.604C114.769 405.604 136.292 399.017 130.191 388.882C126.059 381.582 117.338 389.793 117.338 389.793C117.338 389.793 126.838 372.691 118.075 368.029L92.0769 440.512Z" fill="#878CF0"/>
<path d="M118.006 367.766C118.006 367.766 108.771 360.428 105.317 382.917C105.317 382.917 104.248 368.918 96.811 369.223C89.3745 369.528 97.6264 395.894 97.6264 395.894C97.6264 395.894 92.5685 382.4 85.1339 386.345C77.6993 390.291 91.0881 415.006 91.0881 415.006C91.0881 415.006 84.97 405.716 79.5898 408.272C74.2096 410.829 82.9482 435.385 92.2336 440.189L118.006 367.766Z" fill="#878CF0"/>
<path d="M87.8359 423.718C88.7773 425.427 89.945 427.076 91.043 428.463C91.8447 429.65 92.8729 430.776 93.9011 431.902L100.562 414.158C99.1679 412.569 98.0001 410.921 96.8323 409.272C95.5948 407.361 94.3572 405.451 93.346 403.48C92.3348 401.509 91.2538 399.277 90.469 397.246C89.6842 395.215 88.8296 392.922 88.4975 390.77C89.056 392.862 89.9106 395.154 90.6954 397.186C91.4802 399.217 92.5612 401.449 93.7988 403.359C94.81 405.33 96.0475 407.241 97.5115 409.09C98.6792 410.739 99.7772 412.127 101.102 413.454L106.18 399.774C105.169 397.803 103.931 395.893 103.146 393.861C102.641 392.876 102.361 391.83 101.786 390.583C101.507 389.537 101.001 388.552 100.652 387.245C100.094 385.153 99.4655 382.8 99.1334 380.648C98.8014 378.496 98.3995 376.082 98.2938 373.87C98.3995 376.082 98.8014 378.496 99.3598 380.587C99.6919 382.74 100.32 385.093 101.105 387.124C101.384 388.17 101.89 389.155 102.239 390.462C102.744 391.448 103.024 392.494 103.529 393.479C104.244 395.249 105.186 396.958 106.353 398.607L116.266 372.152L107.242 399.21C108.896 399.048 110.551 398.887 112.135 398.464C113.946 397.98 115.757 397.497 117.725 396.691C119.466 395.946 121.208 395.201 122.879 394.195C124.55 393.189 126.222 392.182 127.893 391.176C126.292 392.444 124.62 393.45 122.949 394.456C121.277 395.463 119.536 396.208 117.865 397.214C116.123 397.959 114.382 398.704 112.345 399.248C110.534 399.732 108.723 400.215 106.842 400.437L102.13 414.58C103.697 415.001 105.422 415.101 107.146 415.201C109.097 415.241 110.977 415.018 112.858 414.796C114.739 414.574 116.55 414.091 118.518 413.285C120.329 412.802 122.07 412.057 124.038 411.252C122.366 412.258 120.625 413.003 118.587 413.547C116.846 414.292 114.809 414.836 112.998 415.319C111.187 415.803 109.08 416.085 107.129 416.046C105.405 415.946 103.68 415.846 101.886 415.485L95.748 433.369C97.2459 433.53 98.7437 433.69 100.242 433.85C102.192 433.889 104.143 433.929 106.024 433.707C107.905 433.485 109.785 433.263 111.666 433.041C113.547 432.819 115.358 432.335 117.169 431.852C115.358 432.335 113.547 432.819 111.736 433.302C109.925 433.786 108.044 434.008 106.163 434.23C104.282 434.452 102.402 434.674 100.451 434.634C98.7966 434.796 97.2987 434.636 95.5046 434.274L88.4796 455.196L85.9536 453.91L93.5709 433.39C92.5428 432.264 91.4448 430.877 90.5733 429.429C89.4055 427.78 88.4641 426.071 87.5227 424.361C86.5813 422.652 85.6399 420.943 84.8551 418.912C84.1401 417.142 83.3553 415.111 82.6403 413.341C83.3553 415.111 84.1401 417.142 85.0815 418.851C85.9531 420.299 86.8945 422.008 87.8359 423.718Z" fill="#56548C"/>
<path d="M357.583 472.211C355.938 476.485 351.21 479.334 344.631 481.709C343.397 487.408 341.341 492.869 340.93 498.568C340.519 496.668 340.314 494.531 340.314 492.631C340.314 489.307 340.725 485.983 341.136 482.896C338.258 483.846 335.174 484.558 331.884 485.508C329.829 491.682 329.212 498.568 329.417 505.216C329.417 510.202 330.034 514.951 330.651 519.7C329.623 517.801 328.595 515.664 327.773 513.764C326.95 511.627 326.128 509.49 325.511 507.353C325.1 505.216 324.894 502.842 324.894 500.705C324.894 496.193 325.306 491.444 325.922 486.933C322.427 487.882 318.727 488.832 315.026 489.782C314.821 490.969 314.615 491.919 314.409 493.106C312.765 504.266 313.793 515.664 317.082 526.111C316.671 525.636 316.465 525.162 316.26 524.687C314.615 522.075 313.176 519.463 311.737 516.613C310.914 514.714 310.092 512.814 309.681 510.677C308.242 504.504 309.27 498.093 309.886 491.444C305.775 492.869 301.868 494.531 298.373 496.431C298.373 500.467 298.579 504.504 298.785 508.54C298.99 510.44 298.99 512.102 299.401 514.002C299.813 516.376 300.635 518.513 301.252 520.65C304.13 529.436 307.625 538.221 312.559 545.582C311.326 544.632 310.298 543.208 309.064 542.02C299.401 530.86 293.85 515.426 292.823 499.517C289.739 501.654 286.86 504.266 284.599 507.353C283.16 509.253 281.926 511.152 280.693 513.052C280.693 517.563 281.104 522.312 281.721 526.824C282.337 530.385 282.954 533.947 284.393 537.034C285.216 538.933 286.449 540.596 287.477 542.258C293.234 550.568 300.429 557.454 307.83 563.865C296.318 559.591 285.627 551.043 279.048 539.408C277.198 536.084 275.553 532.522 273.908 529.198C270.413 542.97 272.264 557.217 281.515 568.139C295.906 585.236 316.26 579.062 316.26 579.062L357.583 472.211Z" fill="#B1B2F3"/>
<path d="M316.671 579.301C316.671 579.301 330.034 604.233 352.032 603.52C363.339 603.283 372.797 593.785 378.759 582.388C376.497 583.575 374.236 584.525 371.974 585.237C364.984 587.612 357.583 586.899 350.593 584.525C345.659 582.863 340.93 580.488 336.407 577.639C341.341 578.351 346.481 578.589 351.621 578.589C354.294 578.589 356.966 578.826 359.639 578.114C362.106 577.639 364.367 576.452 366.629 575.502C369.302 574.314 371.974 573.127 374.441 571.465C379.17 568.378 383.076 564.104 386.365 559.118C386.777 556.269 386.777 553.657 386.365 551.282C385.954 547.958 385.337 544.871 384.721 541.547C383.076 543.209 381.637 545.109 379.992 546.771C378.347 548.67 376.497 550.57 374.647 552.232C372.591 553.894 370.535 555.319 368.274 556.269C361.284 559.83 353.677 561.492 346.07 561.255C349.565 560.305 353.06 558.88 356.349 557.218C359.228 555.794 361.9 553.894 364.779 551.994C367.246 550.332 369.713 548.67 372.18 546.771C376.292 543.446 379.787 539.647 383.076 535.373C381.842 531.337 380.403 527.537 378.964 523.738C376.908 527.063 374.647 529.912 372.18 532.524C367.451 537.51 361.695 541.072 355.322 541.547C354.294 541.784 353.266 541.784 352.032 541.784C357.789 539.172 363.134 535.611 368.068 531.099C369.507 529.912 370.741 528.487 371.769 526.825C373.825 524.213 375.264 521.126 376.497 517.802C374.852 514.24 373.208 510.679 371.357 507.354C368.89 512.341 365.601 516.615 361.695 519.939C358.611 522.551 355.322 524.451 351.621 525.638C354.499 523.501 356.966 520.652 359.022 517.565C362.723 512.103 365.19 505.692 367.04 499.281C365.807 496.907 364.573 494.532 363.339 492.158C361.284 496.432 358.405 499.994 355.322 503.08C358.2 498.569 360.256 493.82 361.695 488.359C358.2 480.998 356.349 475.299 357.789 471.5L316.671 579.301Z" fill="#B1B2F3"/>
<path d="M295.701 565.29C297.551 566.477 299.401 567.427 301.251 568.377C303.102 569.089 305.158 570.039 307.214 570.514C310.914 571.464 314.82 571.938 318.727 571.701L322.633 561.966C318.315 560.066 314.204 557.692 310.503 554.842C309.475 554.13 308.447 553.18 307.419 552.468C306.391 551.518 305.569 550.806 304.541 549.856C302.691 547.956 301.046 546.057 299.401 543.92C296.112 539.646 293.645 534.897 291.589 529.91C289.533 524.687 288.094 519.463 287.683 513.764C288.299 519.225 289.738 524.686 291.794 529.673C293.85 534.659 296.523 539.408 299.812 543.445C301.457 545.582 303.102 547.481 304.952 549.144C305.774 550.093 306.802 550.806 307.83 551.755C308.858 552.468 309.886 553.418 310.914 554.13C314.82 556.979 318.932 559.116 323.044 561.016L327.772 548.906L323.455 545.107C322.016 543.682 320.371 542.02 318.932 540.595L316.876 538.221C316.465 537.746 316.054 537.509 315.848 537.034L314.82 535.609C314.204 534.659 313.587 533.947 312.764 532.997L310.914 530.148C308.653 526.349 306.802 522.075 305.569 517.801C304.335 513.289 303.513 508.778 304.13 504.029C303.924 508.778 304.746 513.289 305.98 517.563C307.419 521.837 309.269 525.874 311.531 529.673L313.381 532.522C313.998 533.472 314.615 534.184 315.437 535.134L316.465 536.321C316.876 536.796 317.287 537.034 317.493 537.509L319.754 539.883C321.194 541.308 322.838 542.732 324.483 544.157L328.8 547.481L332.501 538.221C331.473 536.796 330.445 535.372 329.417 533.947L327.978 531.572C327.772 531.098 327.361 530.86 327.156 530.385L326.539 529.198L325.1 526.586L323.866 523.974C323.661 523.499 323.455 523.024 323.249 522.549L322.838 521.125C322.633 520.175 322.222 519.225 322.016 518.275C320.782 514.476 320.166 510.677 319.96 506.641C319.754 502.604 319.754 498.805 320.577 495.006C319.96 498.805 319.96 502.841 320.371 506.641C320.782 510.44 321.605 514.239 322.838 518.038C323.044 518.988 323.455 519.938 323.866 520.65L324.277 522.075C324.483 522.549 324.689 523.024 324.894 523.262L326.128 525.874L327.567 528.248L328.184 529.435C328.389 529.91 328.595 530.148 329.006 530.623L330.651 532.997C331.473 534.184 332.501 535.372 333.529 536.559L339.285 522.075H339.08C338.257 519.463 337.641 516.851 337.23 514.239C336.818 511.627 336.407 509.015 336.407 506.166C335.996 500.942 335.996 495.481 336.407 490.257C336.202 495.481 336.407 500.942 337.024 506.166C337.23 508.778 337.641 511.389 338.257 514.001C338.669 516.138 339.285 518.275 339.902 520.175L352.238 488.832L340.313 520.887C342.575 520.65 344.836 519.938 347.098 518.988C349.565 517.801 351.826 516.376 353.882 514.476C355.938 512.577 357.788 510.44 359.639 508.303C361.283 505.928 362.928 503.554 364.367 500.942C363.134 503.554 361.489 506.166 359.844 508.54C358.2 510.915 356.349 513.052 354.293 515.189C352.238 517.088 349.976 518.75 347.509 520.175C345.042 521.6 342.369 522.312 339.697 522.549L334.351 537.034C335.79 537.271 337.435 537.271 338.874 537.271C340.725 537.271 342.369 537.034 344.22 536.559C347.715 535.847 351.21 534.422 354.293 532.76C357.583 531.098 360.667 528.961 363.75 526.824C366.629 524.449 369.507 522.075 372.18 519.225C369.713 522.075 366.834 524.686 363.956 527.298C361.078 529.673 357.994 531.81 354.705 533.709C351.415 535.609 347.92 537.034 344.425 537.746C342.575 538.221 340.725 538.458 339.08 538.696C337.435 538.696 335.79 538.696 333.94 538.458L330.445 547.956C334.351 549.618 338.463 550.806 342.575 550.806C346.892 551.043 351.415 550.331 355.733 548.906C360.05 547.481 364.162 545.582 368.068 543.207C371.974 540.833 375.675 537.984 379.17 534.659C375.88 537.984 372.18 541.07 368.273 543.682C364.367 546.294 360.255 548.431 355.938 549.856C351.621 551.281 347.098 552.23 342.575 552.23C338.257 552.23 333.94 551.281 330.034 549.618L325.511 561.966C329.623 564.578 334.146 566.952 338.874 568.377C341.341 569.089 343.808 569.564 346.275 569.801C348.743 570.039 351.415 570.039 353.882 569.801C359.022 569.326 363.956 567.902 368.685 565.765C370.946 564.578 373.413 563.39 375.469 561.728C377.731 560.303 379.786 558.404 381.637 556.504C379.786 558.404 377.731 560.304 375.469 561.966C373.208 563.628 370.946 565.052 368.685 566.24C363.956 568.614 359.022 570.276 353.882 570.751C351.415 570.989 348.742 570.989 346.07 570.751C343.397 570.514 340.93 570.039 338.463 569.327C333.735 567.902 329.212 566.002 324.894 563.39L321.194 573.126C323.866 577.162 326.95 580.724 330.445 583.811C331.267 584.761 332.295 585.473 333.323 586.185C334.351 586.898 335.174 587.61 336.202 588.322C338.257 589.747 340.313 590.697 342.575 591.646C346.892 593.546 351.621 594.258 356.144 594.496C360.872 594.496 365.395 593.784 369.918 592.121C365.601 594.021 360.872 594.733 356.144 594.971C351.415 594.971 346.687 594.258 342.369 592.596C340.108 591.646 338.052 590.697 335.79 589.509C334.762 589.035 333.735 588.085 332.707 587.61C331.679 586.898 330.651 586.185 329.828 585.235C326.333 582.386 323.249 579.062 320.577 575.263L310.092 603.756L307.625 602.569L318.727 574.55C315.026 574.55 311.325 574.075 307.625 572.888C305.569 572.176 303.513 571.464 301.663 570.514C299.812 569.564 297.756 568.614 296.112 567.189C292.411 564.815 289.122 561.728 286.243 558.404C283.16 555.08 280.487 551.518 278.226 547.244C280.487 551.281 283.365 554.842 286.449 557.929C288.711 560.066 292.206 562.915 295.701 565.29Z" fill="#56548C"/>
<path d="M148.015 400.998C146.296 402.748 145.231 405.422 143.927 407.686C142.506 410.155 141.38 412.521 139.186 414.272C137.289 415.919 134.616 413.558 135.444 411.295C136.45 408.312 138.762 406.356 140.956 404.605C141.905 403.782 143.032 403.061 144.04 402.545C145.167 401.824 146.354 401.411 147.481 400.69C148.014 400.175 148.43 400.689 148.015 400.998Z" fill="#B1B2F3"/>
<path d="M153.256 418.265C150.764 418.474 148.808 420.635 146.732 422.18C144.656 423.725 141.632 426.093 139.079 425.171C137.179 424.351 136.998 421.781 138.955 420.442C140.2 419.515 141.447 419.411 142.811 419.101C143.998 418.688 145.185 418.275 146.668 417.759C147.854 417.346 149.101 417.242 150.347 417.138C151.415 416.931 152.543 417.032 153.671 417.133C154.027 417.338 153.731 418.264 153.256 418.265Z" fill="#B1B2F3"/>
<path d="M130.854 393.31C131.626 394.029 131.923 394.748 132.162 395.982C132.401 397.215 132.343 398.552 132.404 399.683C132.464 400.814 132.585 402.253 132.705 403.692C132.707 405.337 133.421 407.392 132.77 408.935C132.06 410.992 129.628 412.332 128.202 410.689C126.36 408.532 126.711 403.803 127.716 400.82C128.13 399.688 128.723 398.659 129.137 397.528C129.433 396.602 130.381 394.956 130.023 393.928C129.904 393.312 130.616 392.9 130.854 393.31Z" fill="#B1B2F3"/>
<path d="M147.76 438.934C146.692 439.141 145.504 438.732 144.673 438.527C143.367 438.323 142.061 438.119 140.874 437.71C138.143 436.685 135.766 434.221 134.339 431.755C133.387 430.111 135.343 427.127 137.361 427.741C140.092 428.766 141.283 431.643 143.659 433.285C144.728 433.901 145.678 434.722 146.629 435.543C147.401 436.262 148.53 437.186 148.472 438.522C148.294 438.42 148.057 438.831 147.76 438.934Z" fill="#B1B2F3"/>
<path d="M113.129 412.147C114.02 412.66 115.562 412.452 116.69 412.553C118.115 412.551 119.361 412.447 120.667 412.651C122.27 412.752 123.219 412.75 124.822 412.851C126.603 413.054 128.266 414.286 127.437 416.549C125.958 420.355 120.614 418.922 118.476 417.692C117.229 416.973 116.279 416.152 115.15 415.228C114.378 414.51 113.724 413.585 113.07 412.661C112.832 412.25 112.951 412.044 113.129 412.147Z" fill="#B1B2F3"/>
<path d="M111.958 427.366C113.144 426.13 115.042 425.305 116.584 424.275C118.245 423.039 120.142 421.392 121.922 420.773C124.295 419.947 126.198 423.235 124.064 425.294C122.048 427.147 119.615 427.664 117.301 427.976C115.639 428.389 113.325 428.7 111.721 427.777C111.721 427.777 111.84 427.571 111.958 427.366Z" fill="#B1B2F3"/>
<path d="M128.476 444C128.475 443.178 128.178 442.458 127.999 441.533C127.76 440.3 127.699 439.169 127.461 437.936C127.161 435.571 126.326 432.077 127.986 430.018C129.172 428.783 131.249 428.883 131.844 430.322C132.38 431.452 132.203 432.994 132.145 434.331C132.088 435.668 132.03 437.004 131.972 438.341C131.737 440.397 131.443 442.968 129.486 444.307C128.892 444.514 128.536 444.308 128.476 444Z" fill="#B1B2F3"/>
<path d="M115.504 413.788C118.355 415.429 121.797 415.219 124.943 415.934C127.258 416.446 129.456 417.985 131.06 419.731C131.238 419.011 131.118 418.394 130.999 417.777C130.581 415.619 130.46 413.357 130.517 411.198C130.514 408.73 130.512 406.263 130.509 403.795C130.567 402.459 130.506 401.328 130.742 400.094C130.86 399.066 131.274 397.934 130.917 396.907C130.917 396.907 131.035 396.701 131.213 396.803C131.511 397.523 131.215 398.448 131.216 399.271C131.04 400.813 130.982 402.15 131.102 403.589C131.165 406.365 131.108 409.347 131.171 412.122C131.113 413.459 131.352 414.692 131.472 416.132C131.533 417.262 131.89 418.29 131.95 419.421C131.832 419.627 132.01 419.729 131.892 419.935C132.129 419.524 132.366 419.112 132.781 418.803C133.907 417.259 135.329 415.613 136.455 414.069C137.581 412.525 138.826 410.776 140.13 409.335C141.671 407.482 143.568 405.835 145.288 404.085C145.406 403.879 145.466 404.187 145.466 404.187C143.865 405.732 142.264 407.276 140.842 408.923C139.419 410.57 138.471 412.216 137.227 413.965C136.101 415.509 134.678 417.156 133.552 418.699C132.9 419.42 132.308 420.449 131.834 421.272C134.624 421.782 137.118 423.218 140.026 422.7C142.993 422.491 146.018 420.945 148.687 419.194C148.866 419.296 148.687 419.194 148.687 419.194C146.018 420.945 143.29 422.388 140.382 422.906C137.475 423.423 134.625 422.605 131.953 421.888C133.143 424.766 135.164 427.025 137.184 429.284C139.383 431.646 141.641 434.316 144.077 436.266C144.255 436.369 143.958 436.472 143.958 436.472C141.344 434.419 139.086 431.749 136.709 429.285C134.57 427.231 132.728 425.075 131.42 422.403C131.242 423.123 130.887 423.74 130.71 424.46C130.415 426.209 130.417 427.854 130.24 429.396C130.125 432.892 130.01 436.387 129.777 440.089C129.892 436.593 129.532 433.098 129.825 429.705C129.823 428.06 130 426.518 130.176 424.975C130.235 424.461 130.412 423.741 130.471 423.227C130.234 423.639 130.115 423.844 129.878 424.256C128.279 426.623 126.322 428.784 124.544 431.048C121.759 434.65 119.151 438.355 116.662 441.854C113.877 445.456 111.329 449.469 108.781 453.482C106.352 457.289 104.101 461.199 101.078 464.39C99.7735 465.831 97.9909 463.982 99.2951 462.541C102.259 459.042 104.748 455.543 107.177 451.736C109.784 448.031 112.333 444.841 115.119 441.239C117.786 437.843 120.453 434.446 123.298 431.153C125.491 428.58 127.863 426.109 129.699 423.331L129.64 423.022C129.758 422.817 129.758 422.817 129.877 422.611C127.563 423.745 124.833 423.543 122.638 424.471C121.155 424.987 119.968 425.4 118.544 426.224C117.239 426.842 116.231 427.358 114.866 427.668C114.688 427.565 114.807 427.36 114.807 427.36C116.349 427.152 117.773 426.328 119.078 425.709C120.086 425.194 121.273 424.781 122.46 424.368C125.129 423.439 127.8 423.333 130.351 421.788C130.469 421.582 130.469 421.582 130.587 421.376L130.706 421.17C128.982 418.808 126.31 417.269 123.52 416.759C120.729 415.426 117.88 415.43 115.504 413.788C115.326 413.685 115.326 413.685 115.504 413.788Z" fill="#56548C"/>
</svg>
