<svg width="23" height="14" viewBox="0 0 23 14" fill="none" xmlns="http://www.w3.org/2000/svg">
<path fill-rule="evenodd" clip-rule="evenodd" d="M22.1228 0.935778C22.2908 0.407902 22.1228 0.023994 21.379 0.023994H18.9076C18.2837 0.023994 17.9958 0.359915 17.8278 0.719831C17.8278 0.719831 16.5561 3.79111 14.7805 5.78264C14.2047 6.3585 13.9407 6.55046 13.6288 6.55046C13.4608 6.55046 13.2449 6.3585 13.2449 5.83063V0.911784C13.2449 0.287931 13.0529 0 12.5251 0H8.63797C8.25406 0 8.01412 0.287931 8.01412 0.575863C8.01412 1.17572 8.90191 1.31969 8.99788 2.99929V6.64643C8.99788 7.43825 8.85392 7.58221 8.54199 7.58221C7.70219 7.58221 5.66267 4.48694 4.43896 0.959774C4.19901 0.263938 3.95907 0 3.33522 0H0.839803C0.119972 0 0 0.335919 0 0.695835C0 1.34368 0.839803 4.60691 3.91108 8.9259C5.9506 11.8772 8.85392 13.4608 11.4693 13.4608C13.0529 13.4608 13.2449 13.1009 13.2449 12.5011V10.2696C13.2449 9.54975 13.3889 9.42978 13.8927 9.42978C14.2527 9.42978 14.9005 9.62173 16.3642 11.0374C18.0438 12.717 18.3317 13.4848 19.2675 13.4848H21.7389C22.4587 13.4848 22.7946 13.1249 22.6027 12.4291C22.3867 11.7332 21.5709 10.7255 20.5152 9.52576C19.9393 8.85391 19.0755 8.11009 18.8116 7.75018C18.4517 7.27029 18.5476 7.07833 18.8116 6.64643C18.7876 6.64643 21.8109 2.37544 22.1228 0.935778Z" fill="white"/>
</svg>
